<svg width="1013" height="2047" viewBox="0 0 1013 2047" fill="none" xmlns="http://www.w3.org/2000/svg">
<g filter="url(#filter0_d_1_7)">
<path d="M828.535 1.80127H183.707C88.7141 1.80127 11.707 78.8083 11.707 173.801V1873.2C11.707 1968.19 88.7141 2045.2 183.707 2045.2H828.535C923.528 2045.2 1000.54 1968.19 1000.54 1873.2V173.801C1000.54 78.8083 923.528 1.80127 828.535 1.80127Z" fill="black"/>
</g>
<path d="M828.535 8.30127H183.707C92.3039 8.30127 18.207 82.3981 18.207 173.801V1873.2C18.207 1964.6 92.3039 2038.7 183.707 2038.7H828.535C919.938 2038.7 994.035 1964.6 994.035 1873.2V173.801C994.035 82.3981 919.938 8.30127 828.535 8.30127Z" stroke="#B5B1A5" stroke-width="13"/>
<path d="M831.236 1H181.005C86.5648 1 10.0054 77.5593 10.0054 172V1875C10.0054 1969.44 86.5648 2046 181.005 2046H831.236C925.677 2046 1002.24 1969.44 1002.24 1875V172C1002.24 77.5593 925.677 1 831.236 1Z" stroke="#C2BEB3" stroke-width="2"/>
<path d="M222.441 2031.69H209.833V2047H222.441V2031.69Z" fill="#F1EEE9" fill-opacity="0.6"/>
<path d="M25.2156 1829.96H9.00537V1841.67H25.2156V1829.96Z" fill="#F1EEE9" fill-opacity="0.6"/>
<path d="M24.315 206.231H9.00537V222.441H24.315V206.231Z" fill="#F1EEE9" fill-opacity="0.6"/>
<path d="M1003.24 1829.96H987.026V1841.67H1003.24V1829.96Z" fill="#F1EEE9" fill-opacity="0.6"/>
<path d="M1003.24 207.132H987.026V222.442H1003.24V207.132Z" fill="#F1EEE9" fill-opacity="0.6"/>
<path d="M805.111 0H789.801V15.3097H805.111V0Z" fill="#F1EEE9" fill-opacity="0.6"/>
<g filter="url(#filter1_iii_1_7)">
<path d="M5.12158 705H4.12158C1.91244 705 0.121582 706.791 0.121582 709V864C0.121582 866.209 1.91244 868 4.12158 868H5.12158C7.33072 868 9.12158 866.209 9.12158 864V709C9.12158 706.791 7.33072 705 5.12158 705Z" fill="url(#paint0_linear_1_7)"/>
</g>
<path d="M5.12158 705.5H4.12158C2.18858 705.5 0.621582 707.067 0.621582 709V864C0.621582 865.933 2.18858 867.5 4.12158 867.5H5.12158C7.05457 867.5 8.62158 865.933 8.62158 864V709C8.62158 707.067 7.05457 705.5 5.12158 705.5Z" stroke="#CFCCC2"/>
<g filter="url(#filter2_iii_1_7)">
<path d="M5.12109 487H4.12109C1.91195 487 0.121094 488.791 0.121094 491V646C0.121094 648.209 1.91195 650 4.12109 650H5.12109C7.33023 650 9.12109 648.209 9.12109 646V491C9.12109 488.791 7.33023 487 5.12109 487Z" fill="url(#paint1_linear_1_7)"/>
</g>
<path d="M5.12109 487.5H4.12109C2.18809 487.5 0.621094 489.067 0.621094 491V646C0.621094 647.933 2.18809 649.5 4.12109 649.5H5.12109C7.05409 649.5 8.62109 647.933 8.62109 646V491C8.62109 489.067 7.05409 487.5 5.12109 487.5Z" stroke="#CFCCC2"/>
<g filter="url(#filter3_iii_1_7)">
<path d="M0 329.206C0 326.997 1.79086 325.206 4 325.206H5.00572C7.21486 325.206 9.00572 326.997 9.00572 329.206V397.755C9.00572 399.964 7.21486 401.755 5.00572 401.755H4C1.79086 401.755 0 399.964 0 397.755V329.206Z" fill="url(#paint2_linear_1_7)"/>
</g>
<path d="M0.5 329.206C0.5 327.273 2.067 325.706 4 325.706H5.00572C6.93872 325.706 8.50572 327.273 8.50572 329.206V397.755C8.50572 399.688 6.93872 401.255 5.00572 401.255H4C2.067 401.255 0.5 399.688 0.5 397.755V329.206Z" stroke="#CFCCC2"/>
<g filter="url(#filter4_iii_1_7)">
<path d="M1008.12 543H1007.12C1004.91 543 1003.12 544.791 1003.12 547V809C1003.12 811.209 1004.91 813 1007.12 813H1008.12C1010.33 813 1012.12 811.209 1012.12 809V547C1012.12 544.791 1010.33 543 1008.12 543Z" fill="url(#paint3_linear_1_7)"/>
</g>
<path d="M1008.12 543.5H1007.12C1005.19 543.5 1003.62 545.067 1003.62 547V809C1003.62 810.933 1005.19 812.5 1007.12 812.5H1008.12C1010.05 812.5 1011.62 810.933 1011.62 809V547C1011.62 545.067 1010.05 543.5 1008.12 543.5Z" stroke="#CFCCC2"/>
<path fill-rule="evenodd" clip-rule="evenodd" d="M756.374 51.3329C752.842 51.7264 751.076 53.9046 751.076 59.4381C751.076 105.908 715.654 119.626 697.943 120.677H317.451C262.079 120.677 262.764 76.4859 262.949 64.5539V64.552C262.958 63.9677 262.966 63.4609 262.966 63.0404C262.966 54.0483 260.272 51.3411 253.092 51.3329H756.374ZM756.374 51.3329C757.211 51.2397 758.147 51.2467 759.181 51.3329H756.374Z" fill="black"/>
<g filter="url(#filter5_dii_1_7)">
<path d="M553.851 66.6426H458.39C453.914 66.6426 450.285 70.2714 450.285 74.7477C450.285 79.2241 453.914 82.8529 458.39 82.8529H553.851C558.327 82.8529 561.956 79.2241 561.956 74.7477C561.956 70.2714 558.327 66.6426 553.851 66.6426Z" fill="#141414"/>
</g>
<path d="M553.851 67.0929H458.391C454.163 67.0929 450.736 70.5201 450.736 74.7477C450.736 78.9754 454.163 82.4026 458.391 82.4026H553.851C558.079 82.4026 561.506 78.9754 561.506 74.7477C561.506 70.5201 558.079 67.0929 553.851 67.0929Z" stroke="#0E0E0E" stroke-width="0.900572"/>
<g filter="url(#filter6_d_1_7)">
<path d="M606.985 91.8585C615.938 91.8585 623.195 84.6009 623.195 75.6482C623.195 66.6955 615.938 59.4379 606.985 59.4379C598.032 59.4379 590.775 66.6955 590.775 75.6482C590.775 84.6009 598.032 91.8585 606.985 91.8585Z" stroke="url(#paint4_radial_1_7)" stroke-width="3.60229"/>
</g>
<path d="M606.985 86.8153C613.152 86.8153 618.152 81.8156 618.152 75.6482C618.152 69.4808 613.152 64.4811 606.985 64.4811C600.818 64.4811 595.818 69.4808 595.818 75.6482C595.818 81.8156 600.818 86.8153 606.985 86.8153Z" fill="url(#paint5_radial_1_7)"/>
<path d="M606.985 86.8153C613.152 86.8153 618.152 81.8156 618.152 75.6482C618.152 69.4808 613.152 64.4811 606.985 64.4811C600.818 64.4811 595.818 69.4808 595.818 75.6482C595.818 81.8156 600.818 86.8153 606.985 86.8153Z" fill="url(#paint6_radial_1_7)"/>
<path d="M606.985 86.8153C613.152 86.8153 618.152 81.8156 618.152 75.6482C618.152 69.4808 613.152 64.4811 606.985 64.4811C600.818 64.4811 595.818 69.4808 595.818 75.6482C595.818 81.8156 600.818 86.8153 606.985 86.8153Z" fill="url(#paint7_radial_1_7)"/>
<path d="M606.985 86.8153C613.152 86.8153 618.152 81.8156 618.152 75.6482C618.152 69.4808 613.152 64.4811 606.985 64.4811C600.818 64.4811 595.818 69.4808 595.818 75.6482C595.818 81.8156 600.818 86.8153 606.985 86.8153Z" stroke="#080F21" stroke-width="0.720458"/>
<path d="M606.985 64.8413V86.455" stroke="black" stroke-width="1.80114"/>
<path d="M960 155H53V1887H960V155Z" fill="white"/>
<rect x="56" y="155" width="904" height="1732" fill="white"/>
<path fill-rule="evenodd" clip-rule="evenodd" d="M451.624 227.667C454.302 227.667 456.598 228.624 458.511 230.537C460.4 232.641 461.344 234.936 461.344 237.423C461.344 239.91 460.4 242.194 458.511 244.274C457.602 245.183 456.55 245.888 455.354 246.39L460.77 254.64H455.713L450.799 247.144H444.737V254.64H440.469V227.667H451.624ZM444.737 231.971V242.875H451.624C453.131 242.875 454.422 242.337 455.498 241.261C456.574 240.09 457.112 238.81 457.112 237.423C457.112 236.013 456.574 234.721 455.498 233.55C454.422 232.497 453.131 231.971 451.624 231.971H444.737Z" fill="#020407"/>
<path fill-rule="evenodd" clip-rule="evenodd" d="M469.02 246.821C470.192 249.451 472.093 250.766 474.723 250.766C476.564 250.766 478.095 250.061 479.314 248.65H484.192C482.136 252.858 478.979 254.963 474.723 254.963C471.878 254.963 469.451 253.958 467.442 251.95C465.457 249.965 464.465 247.55 464.465 244.704C464.465 241.883 465.457 239.468 467.442 237.459C469.451 235.45 471.878 234.446 474.723 234.446C477.545 234.446 479.96 235.45 481.968 237.459C483.977 239.468 484.981 241.883 484.981 244.704C484.981 245.446 484.91 246.151 484.766 246.821H469.02ZM480.39 242.588C479.219 239.958 477.33 238.643 474.723 238.643C472.093 238.643 470.192 239.958 469.02 242.588H480.39Z" fill="#020407"/>
<path fill-rule="evenodd" clip-rule="evenodd" d="M492.263 252.99V262.029H488.066V235.092H492.263V236.419C494.032 235.104 496.053 234.446 498.324 234.446C501.146 234.446 503.561 235.45 505.57 237.459C507.578 239.468 508.583 241.883 508.583 244.704C508.583 247.55 507.578 249.965 505.57 251.95C503.561 253.958 501.146 254.963 498.324 254.963C496.053 254.963 494.032 254.305 492.263 252.99ZM502.593 249.009C503.788 247.813 504.386 246.378 504.386 244.704C504.386 243.031 503.788 241.608 502.593 240.436C501.421 239.241 499.998 238.643 498.324 238.643C496.722 238.643 495.359 239.169 494.235 240.221C493.088 241.273 492.43 242.588 492.263 244.166V245.242C492.43 246.821 493.088 248.136 494.235 249.188C495.359 250.24 496.722 250.766 498.324 250.766C499.998 250.766 501.421 250.18 502.593 249.009Z" fill="#020407"/>
<path fill-rule="evenodd" clip-rule="evenodd" d="M514.68 251.95C512.672 249.965 511.667 247.55 511.667 244.704C511.667 241.883 512.672 239.468 514.68 237.459C516.689 235.45 519.116 234.446 521.961 234.446C524.783 234.446 527.198 235.45 529.207 237.459C531.191 239.468 532.184 241.883 532.184 244.704C532.184 247.55 531.191 249.965 529.207 251.95C527.198 253.958 524.783 254.963 521.961 254.963C519.116 254.963 516.689 253.958 514.68 251.95ZM526.23 249.009C527.425 247.813 528.023 246.378 528.023 244.704C528.023 243.031 527.425 241.608 526.23 240.436C525.058 239.241 523.635 238.643 521.961 238.643C520.264 238.643 518.829 239.241 517.657 240.436C516.462 241.608 515.864 243.031 515.864 244.704C515.864 246.378 516.462 247.813 517.657 249.009C518.829 250.18 520.264 250.766 521.961 250.766C523.635 250.766 525.058 250.18 526.23 249.009Z" fill="#020407"/>
<path d="M544.881 234.482V238.75C543.518 238.87 542.322 239.432 541.294 240.436C540.147 241.584 539.573 242.959 539.573 244.561V246.318H539.501V254.64H535.304V246.318V244.561V235.379H539.501V236.347C541.151 235.199 542.944 234.578 544.881 234.482Z" fill="#020407"/>
<path d="M557.255 239.611H552.234V244.848C552.234 246.474 552.796 247.849 553.92 248.973C554.9 249.929 556.012 250.491 557.255 250.659V254.927C554.864 254.76 552.748 253.791 550.907 252.022C548.946 250.037 547.966 247.646 547.966 244.848V241.333V235.953V230.788H552.162V235.379H557.255V239.611Z" fill="#020407"/>
<path fill-rule="evenodd" clip-rule="evenodd" d="M564.895 246.821C566.091 249.451 567.992 250.766 570.598 250.766C572.44 250.766 573.982 250.061 575.225 248.65H580.068C578.035 252.858 574.879 254.963 570.598 254.963C567.777 254.963 565.362 253.958 563.353 251.95C561.345 249.965 560.34 247.55 560.34 244.704C560.34 241.883 561.345 239.468 563.353 237.459C565.362 235.45 567.777 234.446 570.598 234.446C573.444 234.446 575.859 235.45 577.844 237.459C579.852 239.468 580.857 241.883 580.857 244.704C580.857 245.446 580.785 246.151 580.642 246.821H564.895ZM576.301 242.588C575.106 239.958 573.205 238.643 570.598 238.643C567.992 238.643 566.091 239.958 564.895 242.588H576.301Z" fill="#020407"/>
<path d="M607.937 231.218C609.156 232.414 610.113 233.813 610.806 235.415H605.892C605.605 234.984 605.283 234.59 604.924 234.231C603.011 232.318 600.703 231.362 598.001 231.362C595.299 231.362 592.992 232.318 591.079 234.231C589.166 236.144 588.209 238.451 588.209 241.154C588.209 243.856 589.166 246.163 591.079 248.076C592.992 249.989 595.299 250.945 598.001 250.945C600.703 250.945 603.011 249.989 604.924 248.076C605.283 247.717 605.605 247.323 605.892 246.892H610.806C610.113 248.471 609.156 249.869 607.937 251.089C605.211 253.839 601.899 255.214 598.001 255.214C594.128 255.214 590.816 253.839 588.066 251.089C585.316 248.339 583.941 245.027 583.941 241.154C583.941 237.256 585.316 233.944 588.066 231.218C590.816 228.468 594.128 227.093 598.001 227.093C601.899 227.093 605.211 228.468 607.937 231.218V231.218Z" fill="#020407"/>
<path d="M623.468 234.482V238.75C622.129 238.87 620.945 239.432 619.917 240.436C618.769 241.584 618.195 242.959 618.195 244.561V246.318H618.124V254.64H613.927V246.318V244.561V235.379H618.124V236.347C619.773 235.199 621.555 234.578 623.468 234.482Z" fill="#020407"/>
<path d="M643.733 235.379H648.324L637.707 261.742H633.116L636.022 254.532L626.588 235.379H631.287L638.138 249.296L643.733 235.379Z" fill="#020407"/>
<path fill-rule="evenodd" clip-rule="evenodd" d="M655.642 252.99V262.029H651.445V235.092H655.642V236.419C657.411 235.104 659.42 234.446 661.667 234.446C664.513 234.446 666.94 235.45 668.949 237.459C670.957 239.468 671.961 241.883 671.961 244.704C671.961 247.55 670.957 249.965 668.949 251.95C666.94 253.958 664.513 254.963 661.667 254.963C659.42 254.963 657.411 254.305 655.642 252.99ZM665.971 249.009C667.167 247.813 667.765 246.378 667.765 244.704C667.765 243.031 667.167 241.608 665.971 240.436C664.776 239.241 663.341 238.643 661.667 238.643C660.089 238.643 658.738 239.169 657.614 240.221C656.466 241.273 655.809 242.588 655.642 244.166V245.242C655.809 246.821 656.466 248.136 657.614 249.188C658.738 250.24 660.089 250.766 661.667 250.766C663.341 250.766 664.776 250.18 665.971 249.009Z" fill="#020407"/>
<path d="M684.336 239.611H679.314V244.848C679.314 246.474 679.888 247.849 681.036 248.973C681.993 249.929 683.093 250.491 684.336 250.659V254.927C681.969 254.76 679.852 253.791 677.987 252.022C676.027 250.037 675.046 247.646 675.046 244.848V241.333V235.953V230.788H679.243V235.379H684.336V239.611Z" fill="#020407"/>
<path fill-rule="evenodd" clip-rule="evenodd" d="M688.497 251.95C686.488 249.965 685.484 247.55 685.484 244.704C685.484 241.883 686.488 239.468 688.497 237.459C690.505 235.45 692.92 234.446 695.742 234.446C698.587 234.446 701.014 235.45 703.023 237.459C705.008 239.468 706 241.883 706 244.704C706 247.55 705.008 249.965 703.023 251.95C701.014 253.958 698.587 254.963 695.742 254.963C692.92 254.963 690.505 253.958 688.497 251.95ZM700.046 249.009C701.242 247.813 701.839 246.378 701.839 244.704C701.839 243.031 701.242 241.608 700.046 240.436C698.874 239.241 697.44 238.643 695.742 238.643C694.068 238.643 692.645 239.241 691.474 240.436C690.278 241.608 689.68 243.031 689.68 244.704C689.68 246.378 690.278 247.813 691.474 249.009C692.645 250.18 694.068 250.766 695.742 250.766C697.44 250.766 698.874 250.18 700.046 249.009Z" fill="#020407"/>
<path d="M375.512 256.756C375.512 273.291 362.169 286.706 345.634 286.706V228.887C345.634 228.241 345.634 227.595 345.634 226.95C345.634 210.415 358.941 197 375.476 197V254.783C375.548 255.429 375.512 256.075 375.512 256.756Z" fill="#0B4696"/>
<path d="M385.125 197C401.66 197 415.039 210.415 415.039 226.95C415.039 243.485 401.66 256.864 385.125 256.864" fill="#5DCFEC"/>
<path d="M335.95 286.742C319.415 286.742 306 273.363 306 256.828C306 240.293 319.415 226.878 335.95 226.878" fill="#5DCFEC"/>
<path d="M385.125 256.864C385.197 256.864 385.268 256.864 385.34 256.864C401.875 256.864 415.29 270.278 415.29 286.813H412.994C397.428 285.702 385.125 272.753 385.125 256.864V256.864Z" fill="#0B4696"/>
<rect x="86" y="326" width="840" height="523" rx="20" fill="#F5F5F5"/>
<path d="M688.683 480.669V715.75H323.382V480.669C323.382 465.688 335.476 453.596 350.365 453.596H661.611C676.592 453.596 688.683 465.688 688.683 480.669V480.669Z" fill="#2C2C39"/>
<path d="M354.006 676.135V493.23C354.006 488.257 358.038 484.225 363.012 484.225H649.032C654.006 484.225 658.038 488.257 658.038 493.23V676.135C658.038 681.108 654.006 685.14 649.032 685.14H363.012C358.038 685.14 354.006 681.108 354.006 676.135V676.135Z" fill="white"/>
<path d="M721.576 727.754L715.222 741.638C709.457 754.345 696.867 762.58 682.866 762.58H329.016C315.132 762.58 302.425 754.345 296.66 741.638L290.424 727.754C287.013 720.224 292.542 711.518 300.896 711.518H711.104C719.458 711.518 724.987 720.224 721.576 727.754Z" fill="#606076"/>
<path d="M568.604 711.518L559.373 720.168C557.021 722.372 553.92 723.598 550.698 723.598H461.302C458.08 723.598 454.979 722.372 452.627 720.168L443.396 711.518H568.604Z" fill="white"/>
<path d="M643.727 736.249C643.727 742.373 638.754 747.346 632.596 747.346C626.438 747.346 621.464 742.373 621.464 736.249C621.464 730.091 626.438 725.117 632.596 725.117C638.754 725.117 643.727 730.091 643.727 736.249Z" fill="white"/>
<path d="M673.822 736.249C673.822 742.373 668.848 747.346 662.69 747.346C656.532 747.346 651.559 742.373 651.559 736.249C651.559 730.091 656.532 725.117 662.69 725.117C668.848 725.117 673.822 730.091 673.822 736.249Z" fill="white"/>
<path d="M600.479 520.903V657.093C600.479 660.266 597.907 662.838 594.734 662.838H568.096C564.923 662.838 562.351 660.266 562.351 657.093V520.903C562.351 517.73 564.923 515.158 568.096 515.158H594.734C597.907 515.158 600.479 517.73 600.479 520.903Z" fill="#0B4696"/>
<path d="M550.98 555.936V657.093C550.98 660.266 548.407 662.838 545.235 662.838H518.597C515.424 662.838 512.852 660.266 512.852 657.093V555.936C512.852 552.763 515.424 550.191 518.597 550.191H545.235C548.407 550.191 550.98 552.763 550.98 555.936Z" fill="#5DCFEC"/>
<path d="M502.154 585.568V657.093C502.154 660.266 499.581 662.838 496.408 662.838H469.771C466.598 662.838 464.026 660.266 464.026 657.093V585.568C464.026 582.396 466.598 579.823 469.771 579.823H496.408C499.581 579.823 502.154 582.396 502.154 585.568Z" fill="#0B4696"/>
<path d="M452.991 604.612V657.093C452.991 660.266 450.419 662.838 447.246 662.838H420.608C417.435 662.838 414.863 660.266 414.863 657.093V604.612C414.863 601.439 417.435 598.866 420.608 598.866H447.246C450.419 598.866 452.991 601.439 452.991 604.612Z" fill="#5DCFEC"/>
<path d="M499.614 523.854C499.614 526.504 497.494 528.649 494.844 528.649H417.676C415.051 528.649 412.906 526.504 412.906 523.854C412.906 521.229 415.051 519.084 417.676 519.084H494.844C497.494 519.084 499.614 521.229 499.614 523.854Z" fill="#606076"/>
<path d="M499.614 548.244C499.614 550.894 497.494 553.039 494.844 553.039H417.676C415.051 553.039 412.906 550.894 412.906 548.244C412.906 545.619 415.051 543.474 417.676 543.474H494.844C497.494 543.474 499.614 545.619 499.614 548.244Z" fill="#606076"/>
<path d="M766.053 370.201V373.4H755.662V370.201H766.053ZM756.879 362.094V382H752.777V362.094H756.879ZM768.979 362.094V382H764.891V362.094H768.979ZM780.285 378.664V372.074C780.285 371.6 780.208 371.195 780.053 370.857C779.898 370.511 779.656 370.242 779.328 370.051C779.009 369.859 778.594 369.764 778.084 369.764C777.646 369.764 777.268 369.841 776.949 369.996C776.63 370.142 776.384 370.356 776.211 370.639C776.038 370.912 775.951 371.236 775.951 371.609H772.014C772.014 370.98 772.16 370.383 772.451 369.818C772.743 369.253 773.167 368.757 773.723 368.328C774.279 367.891 774.939 367.549 775.705 367.303C776.48 367.057 777.346 366.934 778.303 366.934C779.451 366.934 780.472 367.125 781.365 367.508C782.258 367.891 782.96 368.465 783.471 369.23C783.99 369.996 784.25 370.953 784.25 372.102V378.432C784.25 379.243 784.3 379.908 784.4 380.428C784.501 380.938 784.646 381.385 784.838 381.768V382H780.859C780.668 381.599 780.522 381.098 780.422 380.496C780.331 379.885 780.285 379.275 780.285 378.664ZM780.805 372.99L780.832 375.219H778.631C778.111 375.219 777.66 375.278 777.277 375.396C776.895 375.515 776.58 375.684 776.334 375.902C776.088 376.112 775.906 376.358 775.787 376.641C775.678 376.923 775.623 377.233 775.623 377.57C775.623 377.908 775.701 378.213 775.855 378.486C776.01 378.751 776.234 378.96 776.525 379.115C776.817 379.261 777.159 379.334 777.551 379.334C778.143 379.334 778.658 379.215 779.096 378.979C779.533 378.742 779.87 378.45 780.107 378.104C780.354 377.757 780.481 377.429 780.49 377.119L781.529 378.787C781.383 379.161 781.183 379.548 780.928 379.949C780.682 380.35 780.367 380.729 779.984 381.084C779.602 381.43 779.141 381.717 778.604 381.945C778.066 382.164 777.428 382.273 776.689 382.273C775.751 382.273 774.898 382.087 774.133 381.713C773.376 381.33 772.775 380.806 772.328 380.141C771.891 379.466 771.672 378.701 771.672 377.844C771.672 377.069 771.818 376.381 772.109 375.779C772.401 375.178 772.829 374.672 773.395 374.262C773.969 373.842 774.684 373.528 775.541 373.318C776.398 373.1 777.391 372.99 778.521 372.99H780.805ZM793.396 379.197C793.88 379.197 794.308 379.106 794.682 378.924C795.055 378.732 795.347 378.468 795.557 378.131C795.775 377.785 795.889 377.379 795.898 376.914H799.604C799.594 377.953 799.316 378.878 798.77 379.689C798.223 380.492 797.489 381.125 796.568 381.59C795.648 382.046 794.618 382.273 793.479 382.273C792.33 382.273 791.327 382.082 790.471 381.699C789.623 381.316 788.917 380.788 788.352 380.113C787.786 379.43 787.363 378.637 787.08 377.734C786.798 376.823 786.656 375.848 786.656 374.809V374.412C786.656 373.364 786.798 372.389 787.08 371.486C787.363 370.575 787.786 369.782 788.352 369.107C788.917 368.424 789.623 367.891 790.471 367.508C791.318 367.125 792.312 366.934 793.451 366.934C794.663 366.934 795.725 367.166 796.637 367.631C797.557 368.096 798.277 368.761 798.797 369.627C799.326 370.484 799.594 371.5 799.604 372.676H795.898C795.889 372.184 795.785 371.737 795.584 371.336C795.393 370.935 795.11 370.616 794.736 370.379C794.372 370.133 793.921 370.01 793.383 370.01C792.809 370.01 792.339 370.133 791.975 370.379C791.61 370.616 791.327 370.944 791.127 371.363C790.926 371.773 790.785 372.243 790.703 372.771C790.63 373.291 790.594 373.838 790.594 374.412V374.809C790.594 375.383 790.63 375.934 790.703 376.463C790.776 376.992 790.913 377.461 791.113 377.871C791.323 378.281 791.61 378.605 791.975 378.842C792.339 379.079 792.813 379.197 793.396 379.197ZM808.695 382.273C807.547 382.273 806.517 382.091 805.605 381.727C804.694 381.353 803.919 380.838 803.281 380.182C802.652 379.525 802.169 378.764 801.832 377.898C801.495 377.023 801.326 376.094 801.326 375.109V374.562C801.326 373.441 801.486 372.416 801.805 371.486C802.124 370.557 802.579 369.75 803.172 369.066C803.773 368.383 804.503 367.859 805.359 367.494C806.216 367.12 807.182 366.934 808.258 366.934C809.306 366.934 810.236 367.107 811.047 367.453C811.858 367.799 812.537 368.292 813.084 368.93C813.64 369.568 814.059 370.333 814.342 371.227C814.624 372.111 814.766 373.095 814.766 374.18V375.82H803.008V373.195H810.896V372.895C810.896 372.348 810.796 371.86 810.596 371.432C810.404 370.994 810.113 370.648 809.721 370.393C809.329 370.137 808.827 370.01 808.217 370.01C807.697 370.01 807.251 370.124 806.877 370.352C806.503 370.579 806.198 370.898 805.961 371.309C805.733 371.719 805.56 372.202 805.441 372.758C805.332 373.305 805.277 373.906 805.277 374.562V375.109C805.277 375.702 805.359 376.249 805.523 376.75C805.697 377.251 805.938 377.684 806.248 378.049C806.567 378.413 806.95 378.696 807.396 378.896C807.852 379.097 808.367 379.197 808.941 379.197C809.652 379.197 810.313 379.061 810.924 378.787C811.544 378.505 812.077 378.081 812.523 377.516L814.438 379.594C814.128 380.04 813.704 380.469 813.166 380.879C812.637 381.289 811.999 381.626 811.252 381.891C810.505 382.146 809.652 382.273 808.695 382.273ZM827.85 370.338H829.955C830.63 370.338 831.186 370.224 831.623 369.996C832.061 369.759 832.384 369.431 832.594 369.012C832.812 368.583 832.922 368.087 832.922 367.521C832.922 367.011 832.822 366.56 832.621 366.168C832.43 365.767 832.133 365.457 831.732 365.238C831.331 365.01 830.826 364.896 830.215 364.896C829.732 364.896 829.285 364.992 828.875 365.184C828.465 365.375 828.137 365.644 827.891 365.99C827.645 366.337 827.521 366.756 827.521 367.248H823.57C823.57 366.154 823.862 365.202 824.445 364.391C825.038 363.579 825.831 362.946 826.824 362.49C827.818 362.035 828.911 361.807 830.105 361.807C831.454 361.807 832.635 362.025 833.646 362.463C834.658 362.891 835.447 363.525 836.012 364.363C836.577 365.202 836.859 366.241 836.859 367.48C836.859 368.109 836.714 368.72 836.422 369.312C836.13 369.896 835.711 370.424 835.164 370.898C834.626 371.363 833.97 371.737 833.195 372.02C832.421 372.293 831.55 372.43 830.584 372.43H827.85V370.338ZM827.85 373.332V371.295H830.584C831.669 371.295 832.621 371.418 833.441 371.664C834.262 371.91 834.95 372.266 835.506 372.73C836.062 373.186 836.481 373.729 836.764 374.357C837.046 374.977 837.188 375.665 837.188 376.422C837.188 377.352 837.01 378.181 836.654 378.91C836.299 379.63 835.798 380.241 835.15 380.742C834.512 381.243 833.765 381.626 832.908 381.891C832.051 382.146 831.117 382.273 830.105 382.273C829.267 382.273 828.442 382.16 827.631 381.932C826.829 381.695 826.1 381.344 825.443 380.879C824.796 380.405 824.277 379.812 823.885 379.102C823.502 378.382 823.311 377.529 823.311 376.545H827.262C827.262 377.055 827.389 377.511 827.645 377.912C827.9 378.313 828.251 378.628 828.697 378.855C829.153 379.083 829.659 379.197 830.215 379.197C830.844 379.197 831.382 379.083 831.828 378.855C832.284 378.618 832.63 378.29 832.867 377.871C833.113 377.443 833.236 376.946 833.236 376.381C833.236 375.652 833.104 375.068 832.84 374.631C832.576 374.184 832.197 373.856 831.705 373.646C831.213 373.437 830.63 373.332 829.955 373.332H827.85ZM850.969 370.27V382H847.018V367.207H850.723L850.969 370.27ZM850.422 374.084H849.328C849.328 373.054 849.451 372.106 849.697 371.24C849.952 370.365 850.322 369.609 850.805 368.971C851.297 368.324 851.903 367.822 852.623 367.467C853.343 367.111 854.177 366.934 855.125 366.934C855.781 366.934 856.383 367.034 856.93 367.234C857.477 367.426 857.946 367.731 858.338 368.15C858.739 368.561 859.049 369.098 859.268 369.764C859.486 370.42 859.596 371.208 859.596 372.129V382H855.658V372.566C855.658 371.892 855.567 371.372 855.385 371.008C855.202 370.643 854.943 370.388 854.605 370.242C854.277 370.096 853.881 370.023 853.416 370.023C852.906 370.023 852.459 370.128 852.076 370.338C851.702 370.548 851.393 370.839 851.146 371.213C850.9 371.577 850.718 372.006 850.6 372.498C850.481 372.99 850.422 373.519 850.422 374.084ZM859.227 373.633L857.818 373.811C857.818 372.844 857.937 371.947 858.174 371.117C858.42 370.288 858.78 369.559 859.254 368.93C859.737 368.301 860.334 367.813 861.045 367.467C861.756 367.111 862.576 366.934 863.506 366.934C864.217 366.934 864.864 367.038 865.447 367.248C866.031 367.449 866.527 367.772 866.938 368.219C867.357 368.656 867.676 369.23 867.895 369.941C868.122 370.652 868.236 371.523 868.236 372.553V382H864.285V372.553C864.285 371.869 864.194 371.35 864.012 370.994C863.839 370.63 863.583 370.379 863.246 370.242C862.918 370.096 862.526 370.023 862.07 370.023C861.596 370.023 861.182 370.119 860.826 370.311C860.471 370.493 860.174 370.748 859.938 371.076C859.701 371.404 859.523 371.787 859.404 372.225C859.286 372.653 859.227 373.122 859.227 373.633ZM875.441 367.207V382H871.49V367.207H875.441ZM871.244 363.352C871.244 362.777 871.445 362.303 871.846 361.93C872.247 361.556 872.785 361.369 873.459 361.369C874.124 361.369 874.658 361.556 875.059 361.93C875.469 362.303 875.674 362.777 875.674 363.352C875.674 363.926 875.469 364.4 875.059 364.773C874.658 365.147 874.124 365.334 873.459 365.334C872.785 365.334 872.247 365.147 871.846 364.773C871.445 364.4 871.244 363.926 871.244 363.352ZM882.551 370.365V382H878.613V367.207H882.305L882.551 370.365ZM881.977 374.084H880.91C880.91 372.99 881.051 372.006 881.334 371.131C881.617 370.247 882.013 369.495 882.523 368.875C883.034 368.246 883.64 367.768 884.342 367.439C885.053 367.102 885.846 366.934 886.721 366.934C887.413 366.934 888.047 367.034 888.621 367.234C889.195 367.435 889.688 367.754 890.098 368.191C890.517 368.629 890.836 369.208 891.055 369.928C891.283 370.648 891.396 371.527 891.396 372.566V382H887.432V372.553C887.432 371.896 887.34 371.386 887.158 371.021C886.976 370.657 886.707 370.402 886.352 370.256C886.005 370.101 885.577 370.023 885.066 370.023C884.538 370.023 884.077 370.128 883.686 370.338C883.303 370.548 882.984 370.839 882.729 371.213C882.482 371.577 882.296 372.006 882.168 372.498C882.04 372.99 881.977 373.519 881.977 374.084Z" fill="black" fill-opacity="0.7"/>
<rect x="86" y="1501" width="840" height="386" rx="20" fill="#F5F5F5"/>
<path d="M688.683 1655.67V1890.75H323.382V1655.67C323.382 1640.69 335.476 1628.6 350.365 1628.6H661.611C676.592 1628.6 688.683 1640.69 688.683 1655.67V1655.67Z" fill="#2C2C39"/>
<path d="M354.006 1851.13V1668.23C354.006 1663.26 358.038 1659.22 363.012 1659.22H649.032C654.006 1659.22 658.038 1663.26 658.038 1668.23V1851.13C658.038 1856.11 654.006 1860.14 649.032 1860.14H363.012C358.038 1860.14 354.006 1856.11 354.006 1851.13V1851.13Z" fill="white"/>
<path d="M568.604 1878.52L559.373 1887.17C557.021 1889.37 553.92 1890.6 550.698 1890.6H461.302C458.08 1890.6 454.979 1889.37 452.627 1887.17L443.396 1878.52H568.604Z" fill="white"/>
<path d="M600.479 1695.9V1832.09C600.479 1835.27 597.907 1837.84 594.734 1837.84H568.096C564.923 1837.84 562.351 1835.27 562.351 1832.09V1695.9C562.351 1692.73 564.923 1690.16 568.096 1690.16H594.734C597.907 1690.16 600.479 1692.73 600.479 1695.9Z" fill="#0B4696"/>
<path d="M550.98 1730.94V1832.09C550.98 1835.27 548.407 1837.84 545.235 1837.84H518.597C515.424 1837.84 512.852 1835.27 512.852 1832.09V1730.94C512.852 1727.76 515.424 1725.19 518.597 1725.19H545.235C548.407 1725.19 550.98 1727.76 550.98 1730.94Z" fill="#5DCFEC"/>
<path d="M502.154 1760.57V1832.09C502.154 1835.27 499.581 1837.84 496.408 1837.84H469.771C466.598 1837.84 464.026 1835.27 464.026 1832.09V1760.57C464.026 1757.4 466.598 1754.82 469.771 1754.82H496.408C499.581 1754.82 502.154 1757.4 502.154 1760.57Z" fill="#0B4696"/>
<path d="M452.991 1779.61V1832.09C452.991 1835.27 450.419 1837.84 447.246 1837.84H420.608C417.435 1837.84 414.863 1835.27 414.863 1832.09V1779.61C414.863 1776.44 417.435 1773.87 420.608 1773.87H447.246C450.419 1773.87 452.991 1776.44 452.991 1779.61Z" fill="#5DCFEC"/>
<path d="M499.614 1698.85C499.614 1701.5 497.494 1703.65 494.844 1703.65H417.676C415.051 1703.65 412.906 1701.5 412.906 1698.85C412.906 1696.23 415.051 1694.08 417.676 1694.08H494.844C497.494 1694.08 499.614 1696.23 499.614 1698.85Z" fill="#606076"/>
<path d="M499.614 1723.24C499.614 1725.89 497.494 1728.04 494.844 1728.04H417.676C415.051 1728.04 412.906 1725.89 412.906 1723.24C412.906 1720.62 415.051 1718.47 417.676 1718.47H494.844C497.494 1718.47 499.614 1720.62 499.614 1723.24Z" fill="#606076"/>
<path d="M756.373 1536V1557H752.436V1536H756.373ZM755.812 1549.08H754.732C754.742 1548.05 754.878 1547.11 755.143 1546.24C755.407 1545.37 755.785 1544.61 756.277 1543.97C756.77 1543.32 757.357 1542.82 758.041 1542.47C758.734 1542.11 759.499 1541.93 760.338 1541.93C761.067 1541.93 761.728 1542.04 762.32 1542.25C762.922 1542.45 763.437 1542.78 763.865 1543.23C764.303 1543.68 764.64 1544.27 764.877 1545C765.114 1545.73 765.232 1546.61 765.232 1547.65V1557H761.268V1547.62C761.268 1546.96 761.172 1546.45 760.98 1546.08C760.798 1545.69 760.529 1545.42 760.174 1545.27C759.827 1545.11 759.399 1545.02 758.889 1545.02C758.324 1545.02 757.84 1545.13 757.439 1545.34C757.048 1545.55 756.733 1545.84 756.496 1546.21C756.259 1546.58 756.086 1547.01 755.977 1547.5C755.867 1547.99 755.812 1548.52 755.812 1549.08ZM776.211 1553.66V1547.07C776.211 1546.6 776.133 1546.19 775.979 1545.86C775.824 1545.51 775.582 1545.24 775.254 1545.05C774.935 1544.86 774.52 1544.76 774.01 1544.76C773.572 1544.76 773.194 1544.84 772.875 1545C772.556 1545.14 772.31 1545.36 772.137 1545.64C771.964 1545.91 771.877 1546.24 771.877 1546.61H767.939C767.939 1545.98 768.085 1545.38 768.377 1544.82C768.669 1544.25 769.092 1543.76 769.648 1543.33C770.204 1542.89 770.865 1542.55 771.631 1542.3C772.406 1542.06 773.271 1541.93 774.229 1541.93C775.377 1541.93 776.398 1542.12 777.291 1542.51C778.184 1542.89 778.886 1543.46 779.396 1544.23C779.916 1545 780.176 1545.95 780.176 1547.1V1553.43C780.176 1554.24 780.226 1554.91 780.326 1555.43C780.426 1555.94 780.572 1556.38 780.764 1556.77V1557H776.785C776.594 1556.6 776.448 1556.1 776.348 1555.5C776.257 1554.89 776.211 1554.27 776.211 1553.66ZM776.73 1547.99L776.758 1550.22H774.557C774.037 1550.22 773.586 1550.28 773.203 1550.4C772.82 1550.51 772.506 1550.68 772.26 1550.9C772.014 1551.11 771.831 1551.36 771.713 1551.64C771.604 1551.92 771.549 1552.23 771.549 1552.57C771.549 1552.91 771.626 1553.21 771.781 1553.49C771.936 1553.75 772.16 1553.96 772.451 1554.12C772.743 1554.26 773.085 1554.33 773.477 1554.33C774.069 1554.33 774.584 1554.22 775.021 1553.98C775.459 1553.74 775.796 1553.45 776.033 1553.1C776.279 1552.76 776.407 1552.43 776.416 1552.12L777.455 1553.79C777.309 1554.16 777.109 1554.55 776.854 1554.95C776.607 1555.35 776.293 1555.73 775.91 1556.08C775.527 1556.43 775.067 1556.72 774.529 1556.95C773.992 1557.16 773.354 1557.27 772.615 1557.27C771.676 1557.27 770.824 1557.09 770.059 1556.71C769.302 1556.33 768.701 1555.81 768.254 1555.14C767.816 1554.47 767.598 1553.7 767.598 1552.84C767.598 1552.07 767.743 1551.38 768.035 1550.78C768.327 1550.18 768.755 1549.67 769.32 1549.26C769.895 1548.84 770.61 1548.53 771.467 1548.32C772.324 1548.1 773.317 1547.99 774.447 1547.99H776.73ZM789.322 1554.2C789.805 1554.2 790.234 1554.11 790.607 1553.92C790.981 1553.73 791.273 1553.47 791.482 1553.13C791.701 1552.78 791.815 1552.38 791.824 1551.91H795.529C795.52 1552.95 795.242 1553.88 794.695 1554.69C794.148 1555.49 793.415 1556.12 792.494 1556.59C791.574 1557.05 790.544 1557.27 789.404 1557.27C788.256 1557.27 787.253 1557.08 786.396 1556.7C785.549 1556.32 784.842 1555.79 784.277 1555.11C783.712 1554.43 783.288 1553.64 783.006 1552.73C782.723 1551.82 782.582 1550.85 782.582 1549.81V1549.41C782.582 1548.36 782.723 1547.39 783.006 1546.49C783.288 1545.57 783.712 1544.78 784.277 1544.11C784.842 1543.42 785.549 1542.89 786.396 1542.51C787.244 1542.12 788.238 1541.93 789.377 1541.93C790.589 1541.93 791.651 1542.17 792.562 1542.63C793.483 1543.1 794.203 1543.76 794.723 1544.63C795.251 1545.48 795.52 1546.5 795.529 1547.68H791.824C791.815 1547.18 791.71 1546.74 791.51 1546.34C791.318 1545.93 791.036 1545.62 790.662 1545.38C790.298 1545.13 789.846 1545.01 789.309 1545.01C788.734 1545.01 788.265 1545.13 787.9 1545.38C787.536 1545.62 787.253 1545.94 787.053 1546.36C786.852 1546.77 786.711 1547.24 786.629 1547.77C786.556 1548.29 786.52 1548.84 786.52 1549.41V1549.81C786.52 1550.38 786.556 1550.93 786.629 1551.46C786.702 1551.99 786.839 1552.46 787.039 1552.87C787.249 1553.28 787.536 1553.6 787.9 1553.84C788.265 1554.08 788.739 1554.2 789.322 1554.2ZM804.621 1557.27C803.473 1557.27 802.443 1557.09 801.531 1556.73C800.62 1556.35 799.845 1555.84 799.207 1555.18C798.578 1554.53 798.095 1553.76 797.758 1552.9C797.421 1552.02 797.252 1551.09 797.252 1550.11V1549.56C797.252 1548.44 797.411 1547.42 797.73 1546.49C798.049 1545.56 798.505 1544.75 799.098 1544.07C799.699 1543.38 800.428 1542.86 801.285 1542.49C802.142 1542.12 803.108 1541.93 804.184 1541.93C805.232 1541.93 806.161 1542.11 806.973 1542.45C807.784 1542.8 808.463 1543.29 809.01 1543.93C809.566 1544.57 809.985 1545.33 810.268 1546.23C810.55 1547.11 810.691 1548.1 810.691 1549.18V1550.82H798.934V1548.2H806.822V1547.89C806.822 1547.35 806.722 1546.86 806.521 1546.43C806.33 1545.99 806.038 1545.65 805.646 1545.39C805.255 1545.14 804.753 1545.01 804.143 1545.01C803.623 1545.01 803.176 1545.12 802.803 1545.35C802.429 1545.58 802.124 1545.9 801.887 1546.31C801.659 1546.72 801.486 1547.2 801.367 1547.76C801.258 1548.3 801.203 1548.91 801.203 1549.56V1550.11C801.203 1550.7 801.285 1551.25 801.449 1551.75C801.622 1552.25 801.864 1552.68 802.174 1553.05C802.493 1553.41 802.876 1553.7 803.322 1553.9C803.778 1554.1 804.293 1554.2 804.867 1554.2C805.578 1554.2 806.239 1554.06 806.85 1553.79C807.469 1553.5 808.003 1553.08 808.449 1552.52L810.363 1554.59C810.053 1555.04 809.63 1555.47 809.092 1555.88C808.563 1556.29 807.925 1556.63 807.178 1556.89C806.43 1557.15 805.578 1557.27 804.621 1557.27ZM829.34 1537.05V1557H825.402V1541.59L820.672 1543.1V1539.99L828.916 1537.05H829.34ZM851.693 1553.77V1536H855.658V1557H852.09L851.693 1553.77ZM842.342 1549.78V1549.49C842.342 1548.36 842.469 1547.34 842.725 1546.42C842.98 1545.49 843.354 1544.69 843.846 1544.03C844.338 1543.36 844.944 1542.85 845.664 1542.48C846.384 1542.12 847.204 1541.93 848.125 1541.93C848.991 1541.93 849.747 1542.12 850.395 1542.48C851.051 1542.85 851.607 1543.36 852.062 1544.04C852.527 1544.7 852.901 1545.49 853.184 1546.4C853.466 1547.31 853.671 1548.3 853.799 1549.37V1550C853.671 1551.03 853.466 1551.99 853.184 1552.87C852.901 1553.76 852.527 1554.53 852.062 1555.2C851.607 1555.85 851.051 1556.36 850.395 1556.73C849.738 1557.09 848.973 1557.27 848.098 1557.27C847.177 1557.27 846.357 1557.09 845.637 1556.71C844.926 1556.34 844.324 1555.82 843.832 1555.14C843.349 1554.47 842.98 1553.67 842.725 1552.76C842.469 1551.85 842.342 1550.86 842.342 1549.78ZM846.279 1549.49V1549.78C846.279 1550.39 846.325 1550.96 846.416 1551.49C846.516 1552.02 846.676 1552.49 846.895 1552.9C847.122 1553.3 847.414 1553.61 847.77 1553.84C848.134 1554.06 848.576 1554.17 849.096 1554.17C849.77 1554.17 850.326 1554.02 850.764 1553.72C851.201 1553.41 851.534 1552.99 851.762 1552.45C851.999 1551.91 852.135 1551.29 852.172 1550.59V1548.8C852.145 1548.22 852.062 1547.71 851.926 1547.25C851.798 1546.79 851.607 1546.39 851.352 1546.06C851.105 1545.73 850.796 1545.48 850.422 1545.3C850.057 1545.11 849.624 1545.02 849.123 1545.02C848.613 1545.02 848.175 1545.14 847.811 1545.38C847.446 1545.61 847.15 1545.92 846.922 1546.32C846.703 1546.72 846.539 1547.2 846.43 1547.74C846.329 1548.28 846.279 1548.87 846.279 1549.49ZM862.986 1542.21V1557H859.035V1542.21H862.986ZM859.158 1540.42L861.838 1536.21H866.117L862.357 1540.42H859.158ZM874.375 1553.66V1547.07C874.375 1546.6 874.298 1546.19 874.143 1545.86C873.988 1545.51 873.746 1545.24 873.418 1545.05C873.099 1544.86 872.684 1544.76 872.174 1544.76C871.736 1544.76 871.358 1544.84 871.039 1545C870.72 1545.14 870.474 1545.36 870.301 1545.64C870.128 1545.91 870.041 1546.24 870.041 1546.61H866.104C866.104 1545.98 866.249 1545.38 866.541 1544.82C866.833 1544.25 867.257 1543.76 867.812 1543.33C868.368 1542.89 869.029 1542.55 869.795 1542.3C870.57 1542.06 871.436 1541.93 872.393 1541.93C873.541 1541.93 874.562 1542.12 875.455 1542.51C876.348 1542.89 877.05 1543.46 877.561 1544.23C878.08 1545 878.34 1545.95 878.34 1547.1V1553.43C878.34 1554.24 878.39 1554.91 878.49 1555.43C878.59 1555.94 878.736 1556.38 878.928 1556.77V1557H874.949C874.758 1556.6 874.612 1556.1 874.512 1555.5C874.421 1554.89 874.375 1554.27 874.375 1553.66ZM874.895 1547.99L874.922 1550.22H872.721C872.201 1550.22 871.75 1550.28 871.367 1550.4C870.984 1550.51 870.67 1550.68 870.424 1550.9C870.178 1551.11 869.995 1551.36 869.877 1551.64C869.768 1551.92 869.713 1552.23 869.713 1552.57C869.713 1552.91 869.79 1553.21 869.945 1553.49C870.1 1553.75 870.324 1553.96 870.615 1554.12C870.907 1554.26 871.249 1554.33 871.641 1554.33C872.233 1554.33 872.748 1554.22 873.186 1553.98C873.623 1553.74 873.96 1553.45 874.197 1553.1C874.443 1552.76 874.571 1552.43 874.58 1552.12L875.619 1553.79C875.473 1554.16 875.273 1554.55 875.018 1554.95C874.771 1555.35 874.457 1555.73 874.074 1556.08C873.691 1556.43 873.231 1556.72 872.693 1556.95C872.156 1557.16 871.518 1557.27 870.779 1557.27C869.84 1557.27 868.988 1557.09 868.223 1556.71C867.466 1556.33 866.865 1555.81 866.418 1555.14C865.98 1554.47 865.762 1553.7 865.762 1552.84C865.762 1552.07 865.908 1551.38 866.199 1550.78C866.491 1550.18 866.919 1549.67 867.484 1549.26C868.059 1548.84 868.774 1548.53 869.631 1548.32C870.488 1548.1 871.481 1547.99 872.611 1547.99H874.895Z" fill="black" fill-opacity="0.7"/>
<rect x="86" y="901" width="840" height="543" rx="20" fill="#F5F5F5"/>
<path d="M746.053 945.201V948.4H735.662V945.201H746.053ZM736.879 937.094V957H732.777V937.094H736.879ZM748.979 937.094V957H744.891V937.094H748.979ZM760.285 953.664V947.074C760.285 946.6 760.208 946.195 760.053 945.857C759.898 945.511 759.656 945.242 759.328 945.051C759.009 944.859 758.594 944.764 758.084 944.764C757.646 944.764 757.268 944.841 756.949 944.996C756.63 945.142 756.384 945.356 756.211 945.639C756.038 945.912 755.951 946.236 755.951 946.609H752.014C752.014 945.98 752.16 945.383 752.451 944.818C752.743 944.253 753.167 943.757 753.723 943.328C754.279 942.891 754.939 942.549 755.705 942.303C756.48 942.057 757.346 941.934 758.303 941.934C759.451 941.934 760.472 942.125 761.365 942.508C762.258 942.891 762.96 943.465 763.471 944.23C763.99 944.996 764.25 945.953 764.25 947.102V953.432C764.25 954.243 764.3 954.908 764.4 955.428C764.501 955.938 764.646 956.385 764.838 956.768V957H760.859C760.668 956.599 760.522 956.098 760.422 955.496C760.331 954.885 760.285 954.275 760.285 953.664ZM760.805 947.99L760.832 950.219H758.631C758.111 950.219 757.66 950.278 757.277 950.396C756.895 950.515 756.58 950.684 756.334 950.902C756.088 951.112 755.906 951.358 755.787 951.641C755.678 951.923 755.623 952.233 755.623 952.57C755.623 952.908 755.701 953.213 755.855 953.486C756.01 953.751 756.234 953.96 756.525 954.115C756.817 954.261 757.159 954.334 757.551 954.334C758.143 954.334 758.658 954.215 759.096 953.979C759.533 953.742 759.87 953.45 760.107 953.104C760.354 952.757 760.481 952.429 760.49 952.119L761.529 953.787C761.383 954.161 761.183 954.548 760.928 954.949C760.682 955.35 760.367 955.729 759.984 956.084C759.602 956.43 759.141 956.717 758.604 956.945C758.066 957.164 757.428 957.273 756.689 957.273C755.751 957.273 754.898 957.087 754.133 956.713C753.376 956.33 752.775 955.806 752.328 955.141C751.891 954.466 751.672 953.701 751.672 952.844C751.672 952.069 751.818 951.381 752.109 950.779C752.401 950.178 752.829 949.672 753.395 949.262C753.969 948.842 754.684 948.528 755.541 948.318C756.398 948.1 757.391 947.99 758.521 947.99H760.805ZM773.396 954.197C773.88 954.197 774.308 954.106 774.682 953.924C775.055 953.732 775.347 953.468 775.557 953.131C775.775 952.785 775.889 952.379 775.898 951.914H779.604C779.594 952.953 779.316 953.878 778.77 954.689C778.223 955.492 777.489 956.125 776.568 956.59C775.648 957.046 774.618 957.273 773.479 957.273C772.33 957.273 771.327 957.082 770.471 956.699C769.623 956.316 768.917 955.788 768.352 955.113C767.786 954.43 767.363 953.637 767.08 952.734C766.798 951.823 766.656 950.848 766.656 949.809V949.412C766.656 948.364 766.798 947.389 767.08 946.486C767.363 945.575 767.786 944.782 768.352 944.107C768.917 943.424 769.623 942.891 770.471 942.508C771.318 942.125 772.312 941.934 773.451 941.934C774.663 941.934 775.725 942.166 776.637 942.631C777.557 943.096 778.277 943.761 778.797 944.627C779.326 945.484 779.594 946.5 779.604 947.676H775.898C775.889 947.184 775.785 946.737 775.584 946.336C775.393 945.935 775.11 945.616 774.736 945.379C774.372 945.133 773.921 945.01 773.383 945.01C772.809 945.01 772.339 945.133 771.975 945.379C771.61 945.616 771.327 945.944 771.127 946.363C770.926 946.773 770.785 947.243 770.703 947.771C770.63 948.291 770.594 948.838 770.594 949.412V949.809C770.594 950.383 770.63 950.934 770.703 951.463C770.776 951.992 770.913 952.461 771.113 952.871C771.323 953.281 771.61 953.605 771.975 953.842C772.339 954.079 772.813 954.197 773.396 954.197ZM788.695 957.273C787.547 957.273 786.517 957.091 785.605 956.727C784.694 956.353 783.919 955.838 783.281 955.182C782.652 954.525 782.169 953.764 781.832 952.898C781.495 952.023 781.326 951.094 781.326 950.109V949.562C781.326 948.441 781.486 947.416 781.805 946.486C782.124 945.557 782.579 944.75 783.172 944.066C783.773 943.383 784.503 942.859 785.359 942.494C786.216 942.12 787.182 941.934 788.258 941.934C789.306 941.934 790.236 942.107 791.047 942.453C791.858 942.799 792.537 943.292 793.084 943.93C793.64 944.568 794.059 945.333 794.342 946.227C794.624 947.111 794.766 948.095 794.766 949.18V950.82H783.008V948.195H790.896V947.895C790.896 947.348 790.796 946.86 790.596 946.432C790.404 945.994 790.113 945.648 789.721 945.393C789.329 945.137 788.827 945.01 788.217 945.01C787.697 945.01 787.251 945.124 786.877 945.352C786.503 945.579 786.198 945.898 785.961 946.309C785.733 946.719 785.56 947.202 785.441 947.758C785.332 948.305 785.277 948.906 785.277 949.562V950.109C785.277 950.702 785.359 951.249 785.523 951.75C785.697 952.251 785.938 952.684 786.248 953.049C786.567 953.413 786.95 953.696 787.396 953.896C787.852 954.097 788.367 954.197 788.941 954.197C789.652 954.197 790.313 954.061 790.924 953.787C791.544 953.505 792.077 953.081 792.523 952.516L794.438 954.594C794.128 955.04 793.704 955.469 793.166 955.879C792.637 956.289 791.999 956.626 791.252 956.891C790.505 957.146 789.652 957.273 788.695 957.273ZM817.762 949.562V952.652H803.42L803.229 950.26L811.527 937.094H814.658L811.268 942.768L807.139 949.562H817.762ZM815.506 937.094V957H811.568V937.094H815.506ZM830.873 936V957H826.936V936H830.873ZM830.312 949.084H829.232C829.242 948.054 829.378 947.106 829.643 946.24C829.907 945.365 830.285 944.609 830.777 943.971C831.27 943.324 831.857 942.822 832.541 942.467C833.234 942.111 833.999 941.934 834.838 941.934C835.567 941.934 836.228 942.038 836.82 942.248C837.422 942.449 837.937 942.777 838.365 943.232C838.803 943.679 839.14 944.267 839.377 944.996C839.614 945.725 839.732 946.609 839.732 947.648V957H835.768V947.621C835.768 946.965 835.672 946.45 835.48 946.076C835.298 945.693 835.029 945.424 834.674 945.27C834.327 945.105 833.899 945.023 833.389 945.023C832.824 945.023 832.34 945.128 831.939 945.338C831.548 945.548 831.233 945.839 830.996 946.213C830.759 946.577 830.586 947.006 830.477 947.498C830.367 947.99 830.312 948.519 830.312 949.084ZM842.098 949.754V949.467C842.098 948.382 842.253 947.384 842.562 946.473C842.872 945.552 843.324 944.755 843.916 944.08C844.508 943.406 845.238 942.882 846.104 942.508C846.969 942.125 847.963 941.934 849.084 941.934C850.205 941.934 851.203 942.125 852.078 942.508C852.953 942.882 853.687 943.406 854.279 944.08C854.881 944.755 855.337 945.552 855.646 946.473C855.956 947.384 856.111 948.382 856.111 949.467V949.754C856.111 950.829 855.956 951.827 855.646 952.748C855.337 953.66 854.881 954.457 854.279 955.141C853.687 955.815 852.958 956.339 852.092 956.713C851.226 957.087 850.232 957.273 849.111 957.273C847.99 957.273 846.992 957.087 846.117 956.713C845.251 956.339 844.518 955.815 843.916 955.141C843.324 954.457 842.872 953.66 842.562 952.748C842.253 951.827 842.098 950.829 842.098 949.754ZM846.035 949.467V949.754C846.035 950.374 846.09 950.952 846.199 951.49C846.309 952.028 846.482 952.502 846.719 952.912C846.965 953.313 847.284 953.628 847.676 953.855C848.068 954.083 848.546 954.197 849.111 954.197C849.658 954.197 850.128 954.083 850.52 953.855C850.911 953.628 851.226 953.313 851.463 952.912C851.7 952.502 851.873 952.028 851.982 951.49C852.101 950.952 852.16 950.374 852.16 949.754V949.467C852.16 948.865 852.101 948.3 851.982 947.771C851.873 947.234 851.695 946.76 851.449 946.35C851.212 945.93 850.898 945.602 850.506 945.365C850.114 945.128 849.64 945.01 849.084 945.01C848.528 945.01 848.054 945.128 847.662 945.365C847.279 945.602 846.965 945.93 846.719 946.35C846.482 946.76 846.309 947.234 846.199 947.771C846.09 948.3 846.035 948.865 846.035 949.467ZM862.469 945.434V957H858.531V942.207H862.236L862.469 945.434ZM866.926 942.111L866.857 945.762C866.666 945.734 866.434 945.712 866.16 945.693C865.896 945.666 865.654 945.652 865.436 945.652C864.88 945.652 864.396 945.725 863.986 945.871C863.585 946.008 863.248 946.213 862.975 946.486C862.71 946.76 862.51 947.092 862.373 947.484C862.245 947.876 862.173 948.323 862.154 948.824L861.361 948.578C861.361 947.621 861.457 946.742 861.648 945.939C861.84 945.128 862.118 944.422 862.482 943.82C862.856 943.219 863.312 942.754 863.85 942.426C864.387 942.098 865.003 941.934 865.695 941.934C865.914 941.934 866.137 941.952 866.365 941.988C866.593 942.016 866.78 942.057 866.926 942.111ZM876.305 953.664V947.074C876.305 946.6 876.227 946.195 876.072 945.857C875.917 945.511 875.676 945.242 875.348 945.051C875.029 944.859 874.614 944.764 874.104 944.764C873.666 944.764 873.288 944.841 872.969 944.996C872.65 945.142 872.404 945.356 872.23 945.639C872.057 945.912 871.971 946.236 871.971 946.609H868.033C868.033 945.98 868.179 945.383 868.471 944.818C868.762 944.253 869.186 943.757 869.742 943.328C870.298 942.891 870.959 942.549 871.725 942.303C872.499 942.057 873.365 941.934 874.322 941.934C875.471 941.934 876.492 942.125 877.385 942.508C878.278 942.891 878.98 943.465 879.49 944.23C880.01 944.996 880.27 945.953 880.27 947.102V953.432C880.27 954.243 880.32 954.908 880.42 955.428C880.52 955.938 880.666 956.385 880.857 956.768V957H876.879C876.688 956.599 876.542 956.098 876.441 955.496C876.35 954.885 876.305 954.275 876.305 953.664ZM876.824 947.99L876.852 950.219H874.65C874.131 950.219 873.68 950.278 873.297 950.396C872.914 950.515 872.6 950.684 872.354 950.902C872.107 951.112 871.925 951.358 871.807 951.641C871.697 951.923 871.643 952.233 871.643 952.57C871.643 952.908 871.72 953.213 871.875 953.486C872.03 953.751 872.253 953.96 872.545 954.115C872.837 954.261 873.178 954.334 873.57 954.334C874.163 954.334 874.678 954.215 875.115 953.979C875.553 953.742 875.89 953.45 876.127 953.104C876.373 952.757 876.501 952.429 876.51 952.119L877.549 953.787C877.403 954.161 877.202 954.548 876.947 954.949C876.701 955.35 876.387 955.729 876.004 956.084C875.621 956.43 875.161 956.717 874.623 956.945C874.085 957.164 873.447 957.273 872.709 957.273C871.77 957.273 870.918 957.087 870.152 956.713C869.396 956.33 868.794 955.806 868.348 955.141C867.91 954.466 867.691 953.701 867.691 952.844C867.691 952.069 867.837 951.381 868.129 950.779C868.421 950.178 868.849 949.672 869.414 949.262C869.988 948.842 870.704 948.528 871.561 948.318C872.417 948.1 873.411 947.99 874.541 947.99H876.824ZM891.303 952.912C891.303 952.63 891.221 952.374 891.057 952.146C890.893 951.919 890.587 951.709 890.141 951.518C889.703 951.317 889.07 951.135 888.24 950.971C887.493 950.807 886.796 950.602 886.148 950.355C885.51 950.1 884.954 949.795 884.48 949.439C884.016 949.084 883.651 948.665 883.387 948.182C883.122 947.689 882.99 947.129 882.99 946.5C882.99 945.88 883.122 945.297 883.387 944.75C883.66 944.203 884.048 943.72 884.549 943.301C885.059 942.872 885.679 942.54 886.408 942.303C887.146 942.057 887.976 941.934 888.896 941.934C890.182 941.934 891.285 942.139 892.205 942.549C893.135 942.959 893.846 943.524 894.338 944.244C894.839 944.955 895.09 945.766 895.09 946.678H891.152C891.152 946.295 891.07 945.953 890.906 945.652C890.751 945.342 890.505 945.101 890.168 944.928C889.84 944.745 889.411 944.654 888.883 944.654C888.445 944.654 888.067 944.732 887.748 944.887C887.429 945.033 887.183 945.233 887.01 945.488C886.846 945.734 886.764 946.008 886.764 946.309C886.764 946.536 886.809 946.742 886.9 946.924C887.001 947.097 887.16 947.257 887.379 947.402C887.598 947.548 887.88 947.685 888.227 947.812C888.582 947.931 889.02 948.04 889.539 948.141C890.605 948.359 891.558 948.646 892.396 949.002C893.235 949.348 893.9 949.822 894.393 950.424C894.885 951.016 895.131 951.796 895.131 952.762C895.131 953.418 894.985 954.02 894.693 954.566C894.402 955.113 893.982 955.592 893.436 956.002C892.889 956.403 892.232 956.717 891.467 956.945C890.71 957.164 889.858 957.273 888.91 957.273C887.534 957.273 886.367 957.027 885.41 956.535C884.462 956.043 883.742 955.419 883.25 954.662C882.767 953.896 882.525 953.113 882.525 952.311H886.258C886.276 952.848 886.413 953.281 886.668 953.609C886.932 953.938 887.265 954.174 887.666 954.32C888.076 954.466 888.518 954.539 888.992 954.539C889.503 954.539 889.926 954.471 890.264 954.334C890.601 954.188 890.856 953.997 891.029 953.76C891.212 953.514 891.303 953.231 891.303 952.912Z" fill="black" fill-opacity="0.7"/>
<path d="M684.683 1106.67V1341.75H319.382V1106.67C319.382 1091.69 331.476 1079.6 346.365 1079.6H657.611C672.592 1079.6 684.683 1091.69 684.683 1106.67V1106.67Z" fill="#2C2C39"/>
<path d="M350.006 1302.13V1119.23C350.006 1114.26 354.038 1110.22 359.012 1110.22H645.032C650.006 1110.22 654.038 1114.26 654.038 1119.23V1302.13C654.038 1307.11 650.006 1311.14 645.032 1311.14H359.012C354.038 1311.14 350.006 1307.11 350.006 1302.13V1302.13Z" fill="white"/>
<path d="M717.576 1353.75L711.222 1367.64C705.457 1380.34 692.867 1388.58 678.866 1388.58H325.016C311.132 1388.58 298.425 1380.34 292.66 1367.64L286.424 1353.75C283.013 1346.22 288.542 1337.52 296.896 1337.52H707.104C715.458 1337.52 720.987 1346.22 717.576 1353.75Z" fill="#606076"/>
<path d="M564.604 1337.52L555.373 1346.17C553.021 1348.37 549.92 1349.6 546.698 1349.6H457.302C454.08 1349.6 450.979 1348.37 448.627 1346.17L439.396 1337.52H564.604Z" fill="white"/>
<path d="M639.727 1362.25C639.727 1368.37 634.754 1373.35 628.596 1373.35C622.438 1373.35 617.464 1368.37 617.464 1362.25C617.464 1356.09 622.438 1351.12 628.596 1351.12C634.754 1351.12 639.727 1356.09 639.727 1362.25Z" fill="white"/>
<path d="M669.822 1362.25C669.822 1368.37 664.848 1373.35 658.69 1373.35C652.532 1373.35 647.559 1368.37 647.559 1362.25C647.559 1356.09 652.532 1351.12 658.69 1351.12C664.848 1351.12 669.822 1356.09 669.822 1362.25Z" fill="white"/>
<path d="M682.674 976.358V1067.06C682.674 1076.6 674.908 1084.41 665.367 1084.41H586.172C583.87 1084.41 581.665 1085.32 580.035 1086.95L548.012 1118.97C543.554 1123.34 536.123 1120.17 536.123 1114.04V1093.04C536.123 1088.29 532.24 1084.41 527.446 1084.41H526.391C516.851 1084.41 509.085 1076.6 509.085 1067.06V976.358C509.085 966.818 516.851 959.004 526.391 959.004H665.367C669.97 959.004 674.093 960.825 677.161 963.702C680.565 966.866 682.674 971.372 682.674 976.358V976.358Z" fill="#86CFF8"/>
<path d="M561.293 1021.5C561.293 1029.93 554.437 1036.79 546 1036.79C537.515 1036.79 530.707 1029.93 530.707 1021.5C530.707 1013.06 537.515 1006.2 546 1006.2C554.437 1006.2 561.293 1013.06 561.293 1021.5Z" fill="white"/>
<path d="M611.172 1021.5C611.172 1029.93 604.317 1036.79 595.88 1036.79C587.394 1036.79 580.587 1029.93 580.587 1021.5C580.587 1013.06 587.394 1006.2 595.88 1006.2C604.317 1006.2 611.172 1013.06 611.172 1021.5Z" fill="white"/>
<path d="M661.052 1021.5C661.052 1029.93 654.197 1036.79 645.759 1036.79C637.274 1036.79 630.466 1029.93 630.466 1021.5C630.466 1013.06 637.274 1006.2 645.759 1006.2C654.197 1006.2 661.052 1013.06 661.052 1021.5Z" fill="white"/>
<path d="M564.136 1273.16C529.888 1307.41 474.257 1307.41 440.008 1273.36L502.174 1211.2L564.136 1273.16Z" fill="white"/>
<path d="M564.136 1273.16L502.174 1211.2L564.136 1148.84L564.334 1149.03C598.583 1183.08 598.583 1238.91 564.136 1273.16V1273.16Z" fill="#5DCFEC"/>
<path d="M564.334 1149.03L440.008 1273.36C405.364 1238.71 405.364 1182.89 439.81 1148.64C474.061 1114.39 529.689 1114.39 564.334 1149.03V1149.03Z" fill="#0B4696"/>
<defs>
<filter id="filter0_d_1_7" x="10.707" y="0.80127" width="990.833" height="2045.4" filterUnits="userSpaceOnUse" color-interpolation-filters="sRGB">
<feFlood flood-opacity="0" result="BackgroundImageFix"/>
<feColorMatrix in="SourceAlpha" type="matrix" values="0 0 0 0 0 0 0 0 0 0 0 0 0 0 0 0 0 0 127 0" result="hardAlpha"/>
<feOffset/>
<feGaussianBlur stdDeviation="0.5"/>
<feColorMatrix type="matrix" values="0 0 0 0 0.32549 0 0 0 0 0.313726 0 0 0 0 0.294118 0 0 0 1 0"/>
<feBlend mode="normal" in2="BackgroundImageFix" result="effect1_dropShadow_1_7"/>
<feBlend mode="normal" in="SourceGraphic" in2="effect1_dropShadow_1_7" result="shape"/>
</filter>
<filter id="filter1_iii_1_7" x="-0.878418" y="703" width="10" height="167" filterUnits="userSpaceOnUse" color-interpolation-filters="sRGB">
<feFlood flood-opacity="0" result="BackgroundImageFix"/>
<feBlend mode="normal" in="SourceGraphic" in2="BackgroundImageFix" result="shape"/>
<feColorMatrix in="SourceAlpha" type="matrix" values="0 0 0 0 0 0 0 0 0 0 0 0 0 0 0 0 0 0 127 0" result="hardAlpha"/>
<feOffset dy="2"/>
<feGaussianBlur stdDeviation="1.5"/>
<feComposite in2="hardAlpha" operator="arithmetic" k2="-1" k3="1"/>
<feColorMatrix type="matrix" values="0 0 0 0 0.560784 0 0 0 0 0.533333 0 0 0 0 0.45098 0 0 0 1 0"/>
<feBlend mode="normal" in2="shape" result="effect1_innerShadow_1_7"/>
<feColorMatrix in="SourceAlpha" type="matrix" values="0 0 0 0 0 0 0 0 0 0 0 0 0 0 0 0 0 0 127 0" result="hardAlpha"/>
<feOffset dy="-2"/>
<feGaussianBlur stdDeviation="1.5"/>
<feComposite in2="hardAlpha" operator="arithmetic" k2="-1" k3="1"/>
<feColorMatrix type="matrix" values="0 0 0 0 0.5625 0 0 0 0 0.534961 0 0 0 0 0.452344 0 0 0 1 0"/>
<feBlend mode="normal" in2="effect1_innerShadow_1_7" result="effect2_innerShadow_1_7"/>
<feColorMatrix in="SourceAlpha" type="matrix" values="0 0 0 0 0 0 0 0 0 0 0 0 0 0 0 0 0 0 127 0" result="hardAlpha"/>
<feOffset dx="-2"/>
<feGaussianBlur stdDeviation="0.5"/>
<feComposite in2="hardAlpha" operator="arithmetic" k2="-1" k3="1"/>
<feColorMatrix type="matrix" values="0 0 0 0 0.760784 0 0 0 0 0.745098 0 0 0 0 0.701961 0 0 0 1 0"/>
<feBlend mode="normal" in2="effect2_innerShadow_1_7" result="effect3_innerShadow_1_7"/>
</filter>
<filter id="filter2_iii_1_7" x="-0.878906" y="485" width="10" height="167" filterUnits="userSpaceOnUse" color-interpolation-filters="sRGB">
<feFlood flood-opacity="0" result="BackgroundImageFix"/>
<feBlend mode="normal" in="SourceGraphic" in2="BackgroundImageFix" result="shape"/>
<feColorMatrix in="SourceAlpha" type="matrix" values="0 0 0 0 0 0 0 0 0 0 0 0 0 0 0 0 0 0 127 0" result="hardAlpha"/>
<feOffset dy="2"/>
<feGaussianBlur stdDeviation="1.5"/>
<feComposite in2="hardAlpha" operator="arithmetic" k2="-1" k3="1"/>
<feColorMatrix type="matrix" values="0 0 0 0 0.560784 0 0 0 0 0.533333 0 0 0 0 0.45098 0 0 0 1 0"/>
<feBlend mode="normal" in2="shape" result="effect1_innerShadow_1_7"/>
<feColorMatrix in="SourceAlpha" type="matrix" values="0 0 0 0 0 0 0 0 0 0 0 0 0 0 0 0 0 0 127 0" result="hardAlpha"/>
<feOffset dy="-2"/>
<feGaussianBlur stdDeviation="1.5"/>
<feComposite in2="hardAlpha" operator="arithmetic" k2="-1" k3="1"/>
<feColorMatrix type="matrix" values="0 0 0 0 0.5625 0 0 0 0 0.534961 0 0 0 0 0.452344 0 0 0 1 0"/>
<feBlend mode="normal" in2="effect1_innerShadow_1_7" result="effect2_innerShadow_1_7"/>
<feColorMatrix in="SourceAlpha" type="matrix" values="0 0 0 0 0 0 0 0 0 0 0 0 0 0 0 0 0 0 127 0" result="hardAlpha"/>
<feOffset dx="-2"/>
<feGaussianBlur stdDeviation="0.5"/>
<feComposite in2="hardAlpha" operator="arithmetic" k2="-1" k3="1"/>
<feColorMatrix type="matrix" values="0 0 0 0 0.760784 0 0 0 0 0.745098 0 0 0 0 0.701961 0 0 0 1 0"/>
<feBlend mode="normal" in2="effect2_innerShadow_1_7" result="effect3_innerShadow_1_7"/>
</filter>
<filter id="filter3_iii_1_7" x="-1" y="323.206" width="10.0057" height="80.549" filterUnits="userSpaceOnUse" color-interpolation-filters="sRGB">
<feFlood flood-opacity="0" result="BackgroundImageFix"/>
<feBlend mode="normal" in="SourceGraphic" in2="BackgroundImageFix" result="shape"/>
<feColorMatrix in="SourceAlpha" type="matrix" values="0 0 0 0 0 0 0 0 0 0 0 0 0 0 0 0 0 0 127 0" result="hardAlpha"/>
<feOffset dy="2"/>
<feGaussianBlur stdDeviation="1.5"/>
<feComposite in2="hardAlpha" operator="arithmetic" k2="-1" k3="1"/>
<feColorMatrix type="matrix" values="0 0 0 0 0.560784 0 0 0 0 0.533333 0 0 0 0 0.45098 0 0 0 1 0"/>
<feBlend mode="normal" in2="shape" result="effect1_innerShadow_1_7"/>
<feColorMatrix in="SourceAlpha" type="matrix" values="0 0 0 0 0 0 0 0 0 0 0 0 0 0 0 0 0 0 127 0" result="hardAlpha"/>
<feOffset dy="-2"/>
<feGaussianBlur stdDeviation="1.5"/>
<feComposite in2="hardAlpha" operator="arithmetic" k2="-1" k3="1"/>
<feColorMatrix type="matrix" values="0 0 0 0 0.5625 0 0 0 0 0.534961 0 0 0 0 0.452344 0 0 0 1 0"/>
<feBlend mode="normal" in2="effect1_innerShadow_1_7" result="effect2_innerShadow_1_7"/>
<feColorMatrix in="SourceAlpha" type="matrix" values="0 0 0 0 0 0 0 0 0 0 0 0 0 0 0 0 0 0 127 0" result="hardAlpha"/>
<feOffset dx="-2"/>
<feGaussianBlur stdDeviation="0.5"/>
<feComposite in2="hardAlpha" operator="arithmetic" k2="-1" k3="1"/>
<feColorMatrix type="matrix" values="0 0 0 0 0.760784 0 0 0 0 0.745098 0 0 0 0 0.701961 0 0 0 1 0"/>
<feBlend mode="normal" in2="effect2_innerShadow_1_7" result="effect3_innerShadow_1_7"/>
</filter>
<filter id="filter4_iii_1_7" x="1003.12" y="541" width="10" height="274" filterUnits="userSpaceOnUse" color-interpolation-filters="sRGB">
<feFlood flood-opacity="0" result="BackgroundImageFix"/>
<feBlend mode="normal" in="SourceGraphic" in2="BackgroundImageFix" result="shape"/>
<feColorMatrix in="SourceAlpha" type="matrix" values="0 0 0 0 0 0 0 0 0 0 0 0 0 0 0 0 0 0 127 0" result="hardAlpha"/>
<feOffset dy="2"/>
<feGaussianBlur stdDeviation="1.5"/>
<feComposite in2="hardAlpha" operator="arithmetic" k2="-1" k3="1"/>
<feColorMatrix type="matrix" values="0 0 0 0 0.560784 0 0 0 0 0.533333 0 0 0 0 0.45098 0 0 0 1 0"/>
<feBlend mode="normal" in2="shape" result="effect1_innerShadow_1_7"/>
<feColorMatrix in="SourceAlpha" type="matrix" values="0 0 0 0 0 0 0 0 0 0 0 0 0 0 0 0 0 0 127 0" result="hardAlpha"/>
<feOffset dy="-2"/>
<feGaussianBlur stdDeviation="1.5"/>
<feComposite in2="hardAlpha" operator="arithmetic" k2="-1" k3="1"/>
<feColorMatrix type="matrix" values="0 0 0 0 0.560784 0 0 0 0 0.533333 0 0 0 0 0.45098 0 0 0 1 0"/>
<feBlend mode="normal" in2="effect1_innerShadow_1_7" result="effect2_innerShadow_1_7"/>
<feColorMatrix in="SourceAlpha" type="matrix" values="0 0 0 0 0 0 0 0 0 0 0 0 0 0 0 0 0 0 127 0" result="hardAlpha"/>
<feOffset dx="2"/>
<feGaussianBlur stdDeviation="0.5"/>
<feComposite in2="hardAlpha" operator="arithmetic" k2="-1" k3="1"/>
<feColorMatrix type="matrix" values="0 0 0 0 0.760784 0 0 0 0 0.745098 0 0 0 0 0.701961 0 0 0 1 0"/>
<feBlend mode="normal" in2="effect2_innerShadow_1_7" result="effect3_innerShadow_1_7"/>
</filter>
<filter id="filter5_dii_1_7" x="445.782" y="62.1397" width="120.677" height="25.216" filterUnits="userSpaceOnUse" color-interpolation-filters="sRGB">
<feFlood flood-opacity="0" result="BackgroundImageFix"/>
<feColorMatrix in="SourceAlpha" type="matrix" values="0 0 0 0 0 0 0 0 0 0 0 0 0 0 0 0 0 0 127 0" result="hardAlpha"/>
<feOffset/>
<feGaussianBlur stdDeviation="2.25143"/>
<feColorMatrix type="matrix" values="0 0 0 0 0 0 0 0 0 0 0 0 0 0 0 0 0 0 1 0"/>
<feBlend mode="normal" in2="BackgroundImageFix" result="effect1_dropShadow_1_7"/>
<feBlend mode="normal" in="SourceGraphic" in2="effect1_dropShadow_1_7" result="shape"/>
<feColorMatrix in="SourceAlpha" type="matrix" values="0 0 0 0 0 0 0 0 0 0 0 0 0 0 0 0 0 0 127 0" result="hardAlpha"/>
<feOffset dx="2.70172"/>
<feGaussianBlur stdDeviation="2"/>
<feComposite in2="hardAlpha" operator="arithmetic" k2="-1" k3="1"/>
<feColorMatrix type="matrix" values="0 0 0 0 0.164706 0 0 0 0 0.164706 0 0 0 0 0.164706 0 0 0 1 0"/>
<feBlend mode="normal" in2="shape" result="effect2_innerShadow_1_7"/>
<feColorMatrix in="SourceAlpha" type="matrix" values="0 0 0 0 0 0 0 0 0 0 0 0 0 0 0 0 0 0 127 0" result="hardAlpha"/>
<feOffset dx="-2.70172"/>
<feGaussianBlur stdDeviation="2"/>
<feComposite in2="hardAlpha" operator="arithmetic" k2="-1" k3="1"/>
<feColorMatrix type="matrix" values="0 0 0 0 0.164706 0 0 0 0 0.164706 0 0 0 0 0.164706 0 0 0 1 0"/>
<feBlend mode="normal" in2="effect2_innerShadow_1_7" result="effect3_innerShadow_1_7"/>
</filter>
<filter id="filter6_d_1_7" x="588.073" y="56.7361" width="37.8234" height="37.8241" filterUnits="userSpaceOnUse" color-interpolation-filters="sRGB">
<feFlood flood-opacity="0" result="BackgroundImageFix"/>
<feColorMatrix in="SourceAlpha" type="matrix" values="0 0 0 0 0 0 0 0 0 0 0 0 0 0 0 0 0 0 127 0" result="hardAlpha"/>
<feOffset/>
<feGaussianBlur stdDeviation="0.450286"/>
<feColorMatrix type="matrix" values="0 0 0 0 0.0705882 0 0 0 0 0.0313726 0 0 0 0 0.0235294 0 0 0 1 0"/>
<feBlend mode="normal" in2="BackgroundImageFix" result="effect1_dropShadow_1_7"/>
<feBlend mode="normal" in="SourceGraphic" in2="effect1_dropShadow_1_7" result="shape"/>
</filter>
<linearGradient id="paint0_linear_1_7" x1="4.62159" y1="705" x2="4.62159" y2="868" gradientUnits="userSpaceOnUse">
<stop offset="0.0469114" stop-color="#E7E6E4"/>
<stop offset="0.163638" stop-color="#F0E9E1"/>
<stop offset="0.826143" stop-color="#F0E9E1"/>
<stop offset="0.914477" stop-color="#E7E6E4"/>
</linearGradient>
<linearGradient id="paint1_linear_1_7" x1="4.6211" y1="487" x2="4.6211" y2="650" gradientUnits="userSpaceOnUse">
<stop offset="0.0469114" stop-color="#E7E6E4"/>
<stop offset="0.163638" stop-color="#F0E9E1"/>
<stop offset="0.826143" stop-color="#F0E9E1"/>
<stop offset="0.914477" stop-color="#E7E6E4"/>
</linearGradient>
<linearGradient id="paint2_linear_1_7" x1="4.50286" y1="325.206" x2="4.50286" y2="401.755" gradientUnits="userSpaceOnUse">
<stop offset="0.0469114" stop-color="#E7E6E4"/>
<stop offset="0.163638" stop-color="#F0E9E1"/>
<stop offset="0.826143" stop-color="#F0E9E1"/>
<stop offset="0.914477" stop-color="#E7E6E4"/>
</linearGradient>
<linearGradient id="paint3_linear_1_7" x1="1007.62" y1="543" x2="1007.62" y2="813" gradientUnits="userSpaceOnUse">
<stop offset="0.0469114" stop-color="#E7E6E4"/>
<stop offset="0.163638" stop-color="#F0E9E1"/>
<stop offset="0.826143" stop-color="#F0E9E1"/>
<stop offset="0.914477" stop-color="#E7E6E4"/>
</linearGradient>
<radialGradient id="paint4_radial_1_7" cx="0" cy="0" r="1" gradientUnits="userSpaceOnUse" gradientTransform="translate(595.728 59.4379) rotate(55.2222) scale(39.4714)">
<stop stop-color="#0B0B0B"/>
<stop offset="1" stop-color="#121212"/>
</radialGradient>
<radialGradient id="paint5_radial_1_7" cx="0" cy="0" r="1" gradientUnits="userSpaceOnUse" gradientTransform="translate(606.985 75.6482) rotate(90) scale(10.8069)">
<stop offset="0.213542"/>
<stop offset="0.270833" stop-color="#081A32"/>
<stop offset="0.395833" stop-color="#1F3A58"/>
<stop offset="0.515625" stop-color="#375F90"/>
<stop offset="0.713542" stop-color="#274871"/>
<stop offset="0.916667" stop-color="#0D1528"/>
</radialGradient>
<radialGradient id="paint6_radial_1_7" cx="0" cy="0" r="1" gradientUnits="userSpaceOnUse" gradientTransform="translate(606.985 75.6482) rotate(90) scale(10.8069)">
<stop offset="0.411458" stop-opacity="0"/>
<stop offset="0.510417"/>
<stop offset="0.817708" stop-opacity="0"/>
</radialGradient>
<radialGradient id="paint7_radial_1_7" cx="0" cy="0" r="1" gradientUnits="userSpaceOnUse" gradientTransform="translate(606.985 75.6482) rotate(90) scale(10.8069)">
<stop/>
<stop offset="0.166667" stop-opacity="0"/>
<stop offset="0.885417" stop-opacity="0"/>
</radialGradient>
</defs>
</svg>
