<svg version="1.2" xmlns="http://www.w3.org/2000/svg" viewBox="0 0 602 496" width="602" height="496"><style>.s0{fill:#ffffff}</style><path class="s0" d="m382.7 328.9c0 90.9-73.4 164.6-164.3 164.6v-317.7q0-5.3 0-10.7c0-90.9 73.3-164.6 164.2-164.6v317.7c0.2 3.5 0.1 7.1 0.1 10.7z" /><path class="s0" d="m434.5 2.5c90.8 0 164.5 73.7 164.5 164.6c0 90.9-73.7 164.5-164.5 164.5" /><path class="s0" d="m165.2 494.8c-90.9 0-164.5-73.6-164.5-164.5c0-90.9 73.6-164.6 164.5-164.6" /><path class="s0" d="m435.5 330.6c0.4 0 0.9 0 1.3 0c90.9 0 164.6 73.7 164.6 164.6h-12.6c-85.7-6.1-153.3-77.4-153.3-164.6z" /></svg>