<svg width="602" height="495" viewBox="0 0 602 495" fill="none" xmlns="http://www.w3.org/2000/svg">
<path d="M382.7 329.2C382.7 420 309.3 493.7 218.4 493.7V176.1C218.4 172.5 218.4 168.9 218.4 165.3C218.4 74.4 291.7 0.800049 382.6 0.800049V318.4C382.8 322 382.7 325.5 382.7 329.2Z" fill="#0B4696"/>
<path d="M435.5 0.800049C526.3 0.800049 600 74.4 600 165.3C600 256.2 526.3 329.9 435.5 329.9" fill="#5DCFEC"/>
<path d="M165.2 494.1C74.3002 494.1 0.700195 420.4 0.700195 329.5C0.700195 238.6 74.3002 165 165.2 165" fill="#5DCFEC"/>
<path d="M435.5 329.9C435.9 329.9 436.4 329.8 436.8 329.8C527.7 329.8 601.4 403.5 601.4 494.4H588.8C503.1 488.4 435.5 417 435.5 329.9Z" fill="#0B4696"/>
</svg>
