<svg width="416" height="416" viewBox="0 0 416 416" fill="none" xmlns="http://www.w3.org/2000/svg">
<path d="M273.195 231.868H171.494C146.848 231.868 126.868 211.888 126.868 187.242V64.1764C126.868 55.0997 134.232 47.7362 143.309 47.7362H301.381C310.461 47.7362 317.821 55.0997 317.821 64.1764V187.242C317.821 211.888 297.841 231.868 273.195 231.868V231.868Z" fill="#1A428A"/>
<path d="M273.191 238.689H171.498C143.129 238.689 120.051 215.611 120.051 187.242V64.1764C120.051 51.3536 130.482 40.919 143.309 40.919H301.381C314.207 40.919 324.642 51.3536 324.642 64.1764V187.242C324.642 215.611 301.56 238.689 273.191 238.689V238.689ZM143.309 54.5573C138.005 54.5573 133.69 58.8732 133.69 64.1764V187.242C133.69 208.087 150.649 225.05 171.498 225.05H273.191C294.041 225.05 311 208.087 311 187.242V64.1764C311 58.8732 306.684 54.5573 301.381 54.5573H143.309Z" fill="#1A428A"/>
<path d="M291.66 95.4763H126.868V35.2373C126.868 19.5425 139.594 6.82114 155.288 6.82114H338.28V48.8561C338.28 74.6032 317.407 95.4763 291.66 95.4763V95.4763Z" fill="#1A428A"/>
<path d="M291.66 102.294H126.868C123.103 102.294 120.051 99.2459 120.051 95.4763V35.2373C120.051 15.808 135.855 0 155.288 0H338.28C342.046 0 345.098 3.05156 345.098 6.82113V48.8561C345.098 78.322 321.126 102.294 291.66 102.294V102.294ZM133.69 88.6552H291.66C313.603 88.6552 331.459 70.7985 331.459 48.8561V13.6384H155.288C143.379 13.6384 133.69 23.3315 133.69 35.2373V88.6552Z" fill="#1A428A"/>
<path d="M379.199 409.182H38.2132V347.366C38.2132 314.248 68.0927 287.401 104.949 287.401L208.706 283.018L312.463 287.401C349.32 287.401 379.199 314.248 379.199 347.366V409.182Z" fill="#2A8EE6"/>
<path d="M379.199 415.999H38.2132C34.4475 415.999 31.396 412.951 31.396 409.182V347.362C31.396 310.541 64.3934 280.579 104.949 280.579L208.421 276.205L312.748 280.583H312.764C353.031 280.583 386.017 310.541 386.017 347.362V409.182C386.017 412.951 382.965 415.999 379.199 415.999V415.999ZM45.0343 402.361H372.378V347.362C372.378 318.06 345.5 294.218 312.463 294.218L208.421 289.828L105.234 294.21C71.913 294.218 45.0343 318.06 45.0343 347.362V402.361Z" fill="#1A428A"/>
<path d="M276.902 291.541C242.558 302.272 202.131 302.272 167.787 291.541V231.868H276.902V291.541Z" fill="#1A428A"/>
<path d="M222.345 306.358C202.908 306.358 183.47 303.587 165.754 298.046C162.906 297.16 160.97 294.526 160.97 291.541V231.868C160.97 228.098 164.022 225.05 167.787 225.05H276.902C280.668 225.05 283.723 228.098 283.723 231.868V291.541C283.723 294.526 281.784 297.164 278.935 298.046C261.219 303.587 241.782 306.358 222.345 306.358ZM174.608 286.448C204.863 294.838 239.827 294.838 270.085 286.448V238.689H174.608V286.448ZM276.902 291.541H276.968H276.902Z" fill="#1A428A"/>
<path d="M263.264 291.541C228.92 302.272 188.493 302.272 154.149 291.541V231.868H263.264V291.541Z" fill="#6BC4E8"/>
<path d="M208.706 306.358C189.269 306.358 169.832 303.587 152.116 298.046C149.267 297.16 147.328 294.526 147.328 291.541V231.868C147.328 228.098 150.383 225.05 154.149 225.05H263.264C267.029 225.05 270.085 228.098 270.085 231.868V291.541C270.085 294.526 268.145 297.164 265.297 298.046C247.58 303.587 228.143 306.358 208.706 306.358ZM160.97 286.448C191.224 294.838 226.188 294.838 256.442 286.448V238.689H160.97V286.448ZM263.264 291.541H263.33H263.264Z" fill="#1A428A"/>
<path fill-rule="evenodd" clip-rule="evenodd" d="M283.723 361.442H358.74V409.182H283.723V361.442Z" fill="white"/>
<path d="M358.74 415.999H283.723C279.957 415.999 276.902 412.951 276.902 409.182V361.442C276.902 357.672 279.957 354.625 283.723 354.625H358.74C362.506 354.625 365.557 357.672 365.557 361.442V409.182C365.557 412.951 362.506 415.999 358.74 415.999ZM290.54 402.361H351.919V368.263H290.54V402.361Z" fill="#1A428A"/>
<path d="M259.556 231.868H157.856C133.21 231.868 113.23 211.888 113.23 187.242V64.1764C113.23 55.0997 120.59 47.7362 129.67 47.7362H287.742C296.823 47.7362 304.183 55.0997 304.183 64.1764V187.242C304.183 211.888 284.203 231.868 259.556 231.868Z" fill="#D7E9FF"/>
<path d="M259.553 238.689H157.86C129.491 238.689 106.413 215.611 106.413 187.242V64.1764C106.413 51.3536 116.843 40.919 129.67 40.919H287.742C300.569 40.919 311 51.3536 311 64.1764V187.242C311 215.611 287.922 238.689 259.553 238.689V238.689ZM129.67 54.5573C124.367 54.5573 120.051 58.8732 120.051 64.1764V187.242C120.051 208.087 137.01 225.05 157.86 225.05H259.553C280.402 225.05 297.361 208.087 297.361 187.242V64.1764C297.361 58.8732 293.046 54.5573 287.742 54.5573H129.67Z" fill="#1A428A"/>
<path d="M278.022 95.4763H113.23V35.2373C113.23 19.5425 125.955 6.82114 141.646 6.82114H324.642V48.8561C324.642 74.6032 303.769 95.4763 278.022 95.4763V95.4763Z" fill="#6BC4E8"/>
<path d="M278.022 102.294H113.23C109.464 102.294 106.413 99.2459 106.413 95.4763V35.2373C106.413 15.808 122.217 0 141.646 0H324.642C328.408 0 331.459 3.05156 331.459 6.82113V48.8561C331.459 78.322 307.488 102.294 278.022 102.294ZM120.051 88.6552H278.022C299.964 88.6552 317.821 70.7985 317.821 48.8561V13.6384H141.646C129.74 13.6384 120.051 23.3315 120.051 35.2373V88.6552Z" fill="#1A428A"/>
<path d="M203.048 177.334V172.444C203.048 167.668 204 165.284 206.15 162.31L215.566 149.429C218.431 145.612 219.625 142.865 219.625 139.646C219.625 134.514 216.043 130.702 210.322 130.702C204.718 130.702 201.261 134.163 200.184 140.247C200.067 140.957 199.587 141.316 198.873 141.199L188.141 139.529C187.302 139.416 187.068 138.815 187.185 138.101C189.094 126.175 197.679 118.781 210.798 118.781C223.917 118.781 233.216 127.365 233.216 139.529C233.216 144.656 231.667 149.07 228.327 153.487L218.907 166.361C217.12 168.632 216.526 170.298 216.526 173.872V177.334C216.526 178.048 216.046 178.528 215.328 178.528H204.242C203.524 178.524 203.048 178.044 203.048 177.334ZM202.568 187.819C202.568 187.109 203.048 186.629 203.762 186.629H215.687C216.405 186.629 216.878 187.109 216.878 187.819V199.99C216.878 200.7 216.405 201.18 215.687 201.18H203.762C203.048 201.18 202.568 200.7 202.568 199.99V187.819Z" fill="#1A428A"/>
<path d="M72.311 388.722C68.5454 388.722 65.4938 385.671 65.4938 381.901V354.625C65.4938 350.855 68.5454 347.803 72.311 347.803C76.0806 347.803 79.1322 350.855 79.1322 354.625V381.901C79.1322 385.671 76.0806 388.722 72.311 388.722Z" fill="white"/>
<path d="M85.9533 375.08H58.6727C54.907 375.08 51.8516 372.032 51.8516 368.263C51.8516 364.493 54.907 361.442 58.6727 361.442H85.9533C89.719 361.442 92.7705 364.493 92.7705 368.263C92.7705 372.032 89.719 375.08 85.9533 375.08Z" fill="white"/>
<path d="M201.885 34.0978H140.511C136.745 34.0978 133.689 31.0502 133.689 27.2806C133.689 23.511 136.745 20.4595 140.511 20.4595H201.885C205.651 20.4595 208.706 23.511 208.706 27.2806C208.706 31.0502 205.651 34.0978 201.885 34.0978Z" fill="white"/>
</svg>
