<svg width="436" height="436" viewBox="0 0 436 436" fill="none" xmlns="http://www.w3.org/2000/svg">
<g clip-path="url(#clip0_1_24)">
<path fill-rule="evenodd" clip-rule="evenodd" d="M146.212 26.8933C148.227 15.8031 159.013 6.81396 170.259 6.81396H265.713C276.979 6.81396 287.753 15.8499 289.765 26.8933L299.736 81.7519H136.236L146.212 26.8933Z" fill="#1A428A"/>
<path d="M299.736 88.5619H136.236C134.217 88.5619 132.299 87.6654 131.009 86.1139C129.715 84.5624 129.173 82.5198 129.535 80.5318L139.507 25.681C142.126 11.2773 155.637 0 170.259 0H265.713C280.343 0 293.846 11.2773 296.47 25.681L306.441 80.5318C306.804 82.5198 306.262 84.5624 304.968 86.1139C303.673 87.6615 301.755 88.5619 299.736 88.5619ZM144.399 74.9379H291.574L283.06 28.1134C281.629 20.2664 273.689 13.624 265.713 13.624H170.259C162.284 13.624 154.339 20.2587 152.909 28.1134L144.399 74.9379Z" fill="#1A428A"/>
<path fill-rule="evenodd" clip-rule="evenodd" d="M146.212 409.106C148.227 420.196 159.013 429.186 170.259 429.186H265.713C276.979 429.186 287.753 420.15 289.765 409.106L299.736 354.252H136.236L146.212 409.106Z" fill="#1A428A"/>
<path d="M265.713 436H170.259C155.634 436 142.127 424.722 139.503 410.319L129.532 355.468C129.169 353.48 129.711 351.437 131.005 349.886C132.299 348.338 134.217 347.438 136.236 347.438H299.736C301.756 347.438 303.673 348.334 304.964 349.886C306.258 351.437 306.8 353.48 306.437 355.468L296.466 410.319C293.846 424.722 280.339 436 265.713 436ZM152.913 407.886C154.343 415.741 162.288 422.376 170.259 422.376H265.713C273.689 422.376 281.633 415.737 283.064 407.886L291.574 361.062H144.399L152.913 407.886Z" fill="#1A428A"/>
<path fill-rule="evenodd" clip-rule="evenodd" d="M102.174 122.682C102.174 100.077 120.445 81.7519 143.05 81.7519H292.922C315.496 81.7519 333.798 100.011 333.798 122.682V313.317C333.798 335.923 315.528 354.252 292.922 354.252H143.05C120.476 354.252 102.174 335.989 102.174 313.317V122.682Z" fill="#1A428A"/>
<path d="M292.922 361.062H143.054C116.757 361.062 95.3605 339.649 95.3605 313.321V122.678C95.3605 96.3543 116.757 74.9379 143.054 74.9379H292.922C319.215 74.9379 340.612 96.3543 340.612 122.678V313.321C340.612 339.649 319.215 361.062 292.922 361.062ZM143.054 88.5619C124.269 88.5619 108.988 103.862 108.988 122.678V313.321C108.988 332.137 124.269 347.438 143.054 347.438H292.922C311.704 347.438 326.988 332.137 326.988 313.321V122.678C326.988 103.862 311.704 88.5619 292.922 88.5619H143.054Z" fill="#1A428A"/>
<path d="M88.5504 122.682C88.5504 100.077 106.821 81.7519 129.426 81.7519H279.298C301.872 81.7519 320.174 100.011 320.174 122.682V313.317C320.174 335.923 301.904 354.252 279.298 354.252H129.426C106.852 354.252 88.5504 335.989 88.5504 313.317V122.682Z" fill="#2A8EE6"/>
<path d="M279.294 361.062H129.426C103.13 361.062 81.7365 339.649 81.7365 313.321V122.678C81.7365 96.3543 103.13 74.9379 129.426 74.9379H279.294C305.591 74.9379 326.988 96.3543 326.988 122.678V313.321C326.988 339.649 305.591 361.062 279.294 361.062ZM129.426 88.5619C110.645 88.5619 95.3605 103.862 95.3605 122.678V313.321C95.3605 332.137 110.645 347.438 129.426 347.438H279.294C298.08 347.438 313.36 332.137 313.36 313.321V122.678C313.36 103.862 298.08 88.5619 279.294 88.5619H129.426Z" fill="#1A428A"/>
<path d="M105.921 177.124C102.159 177.124 99.1066 174.079 99.1066 170.314V126.994C99.1066 109.557 113.292 95.3759 130.728 95.3759H147.9C151.661 95.3759 154.714 98.4203 154.714 102.186C154.714 105.952 151.661 109 147.9 109H130.728C120.808 109 112.735 117.069 112.735 126.994V170.314C112.731 174.079 109.682 177.124 105.921 177.124Z" fill="white"/>
<path d="M132.584 26.8933C134.603 15.8031 145.389 6.81396 156.635 6.81396H252.089C263.355 6.81396 274.129 15.8499 276.137 26.8933L286.112 81.7519H122.612L132.584 26.8933Z" fill="#6BC4E8"/>
<path d="M286.112 88.5619H122.612C120.593 88.5619 118.675 87.6654 117.385 86.1139C116.091 84.5624 115.549 82.5198 115.912 80.5318L125.883 25.681C128.503 11.2773 142.013 0 156.635 0H252.089C266.715 0 280.222 11.2773 282.842 25.681L292.817 80.5318C293.18 82.5198 292.638 84.5624 291.344 86.1139C290.049 87.6615 288.132 88.5619 286.112 88.5619ZM130.775 74.9379H277.95L269.436 28.1134C268.005 20.2664 260.061 13.624 252.089 13.624H156.632C148.66 13.624 140.715 20.2587 139.285 28.1134L130.775 74.9379Z" fill="#1A428A"/>
<path d="M132.584 409.106C134.603 420.196 145.389 429.186 156.635 429.186H252.089C263.355 429.186 274.129 420.15 276.137 409.106L286.112 354.252H122.612L132.584 409.106Z" fill="#6BC4E8"/>
<path d="M252.089 436H156.632C142.01 436 128.503 424.722 125.879 410.319L115.908 355.468C115.545 353.48 116.087 351.437 117.381 349.886C118.675 348.338 120.593 347.438 122.612 347.438H286.112C288.131 347.438 290.049 348.334 291.34 349.886C292.634 351.437 293.176 353.48 292.813 355.468L282.842 410.319C280.222 424.722 266.715 436 252.089 436ZM139.289 407.886C140.719 415.741 148.66 422.376 156.635 422.376H252.089C260.065 422.376 268.009 415.737 269.44 407.886L277.95 361.062H130.775L139.289 407.886Z" fill="#1A428A"/>
<path d="M334.808 218H320.174V156.686H334.808C341.778 156.686 347.422 162.334 347.422 169.304V205.385C347.422 212.351 341.778 218 334.808 218V218Z" fill="#6BC4E8"/>
<path d="M334.812 224.814H320.174C316.413 224.814 313.36 221.765 313.36 218V156.686C313.36 152.92 316.413 149.876 320.174 149.876H334.812C345.52 149.876 354.236 158.588 354.236 169.3V205.385C354.236 216.097 345.52 224.814 334.812 224.814V224.814ZM326.988 211.186H334.812C338.012 211.186 340.612 208.586 340.612 205.385V169.3C340.612 166.1 338.012 163.5 334.812 163.5H326.988V211.186Z" fill="#1A428A"/>
<path d="M204.36 136.252C159.212 136.252 122.612 172.852 122.612 218C122.612 263.148 159.212 299.752 204.36 299.752C249.513 299.752 286.112 263.148 286.112 218C286.112 172.852 249.513 136.252 204.36 136.252Z" fill="#D7E9FF"/>
<path d="M204.36 306.562C155.524 306.562 115.798 266.832 115.798 218C115.798 169.168 155.524 129.438 204.36 129.438C253.196 129.438 292.922 169.168 292.922 218C292.922 266.832 253.196 306.562 204.36 306.562ZM204.36 143.062C163.04 143.062 129.422 176.679 129.422 218C129.422 259.32 163.04 292.938 204.36 292.938C245.685 292.938 279.298 259.32 279.298 218C279.298 176.679 245.685 143.062 204.36 143.062V143.062Z" fill="#1A428A"/>
<path d="M182.32 180.352C182.32 179.634 182.8 179.163 183.513 179.163H213.65C230.805 179.163 238.902 187.739 238.902 200.723C238.902 209.899 234.618 215.135 229.496 217.875V218.113C234.501 220.023 240.332 226.455 240.332 236.344C240.332 252.42 230.209 260.166 212.457 260.166H183.513C182.8 260.166 182.32 259.687 182.32 258.977V180.352ZM213.295 212.87C220.44 212.87 224.853 208.586 224.853 202.271C224.853 195.839 220.44 191.547 213.295 191.547H197.09C196.619 191.547 196.377 191.789 196.377 192.26V212.156C196.377 212.628 196.619 212.87 197.09 212.87H213.295ZM197.09 247.778H214.008C221.871 247.778 226.276 243.248 226.276 236.461C226.276 229.788 221.871 225.258 214.008 225.258H197.09C196.619 225.258 196.377 225.496 196.377 225.975V247.06C196.377 247.54 196.619 247.778 197.09 247.778Z" fill="#1A428A"/>
<path d="M204.36 190.752C200.599 190.752 197.55 187.703 197.55 183.938V170.314C197.55 166.548 200.599 163.5 204.36 163.5C208.122 163.5 211.174 166.548 211.174 170.314V183.938C211.174 187.703 208.122 190.752 204.36 190.752Z" fill="#1A428A"/>
<path d="M204.36 272.5C200.599 272.5 197.55 269.451 197.55 265.686V258.876C197.55 255.11 200.599 252.062 204.36 252.062C208.122 252.062 211.174 255.11 211.174 258.876V265.686C211.174 269.451 208.122 272.5 204.36 272.5Z" fill="#1A428A"/>
<path d="M313.36 306.562C309.599 306.562 306.55 303.517 306.55 299.752V272.5C306.55 268.734 309.599 265.686 313.36 265.686C317.122 265.686 320.174 268.734 320.174 272.5V299.752C320.174 303.517 317.122 306.562 313.36 306.562Z" fill="white"/>
<path d="M326.988 292.938H299.736C295.975 292.938 292.922 289.889 292.922 286.124C292.922 282.358 295.975 279.314 299.736 279.314H326.988C330.75 279.314 333.798 282.358 333.798 286.124C333.798 289.889 330.75 292.938 326.988 292.938Z" fill="white"/>
</g>
<defs>
<clipPath id="clip0_1_24">
<rect width="436" height="436" fill="white"/>
</clipPath>
</defs>
</svg>
