<svg width="436" height="436" viewBox="0 0 436 436" fill="none" xmlns="http://www.w3.org/2000/svg">
<g clip-path="url(#clip0_1_48)">
<path d="M115.927 298.368L82.7303 274.519L170.166 152.792L203.366 176.641L115.927 298.368Z" fill="#D7E9FF"/>
<path d="M115.931 305.178C114.555 305.178 113.163 304.765 111.966 303.9L78.7698 280.058C77.3002 278.998 76.3101 277.408 76.0138 275.626C75.7293 273.841 76.1542 272.013 77.2067 270.551L164.65 148.831C166.841 145.767 171.113 145.07 174.157 147.264L207.354 171.109C208.824 172.166 209.818 173.76 210.11 175.541C210.395 177.323 209.97 179.155 208.917 180.617L121.474 302.336C120.145 304.192 118.055 305.178 115.931 305.178V305.178ZM92.2496 272.964L114.383 288.86L193.878 178.2L171.744 162.307L92.2496 272.964Z" fill="#1A428A"/>
<path d="M170.314 314.148C170.314 359.296 133.71 395.896 88.5619 395.896C43.4136 395.896 6.81396 359.296 6.81396 314.148C6.81396 268.996 43.4136 232.396 88.5619 232.396C133.71 232.396 170.314 268.996 170.314 314.148V314.148Z" fill="#6BC4E8"/>
<path d="M88.5619 402.71C39.7299 402.71 0 362.98 0 314.148C0 265.316 39.7299 225.586 88.5619 225.586C137.394 225.586 177.124 265.316 177.124 314.148C177.124 362.98 137.394 402.71 88.5619 402.71ZM88.5619 239.21C47.2416 239.21 13.624 272.827 13.624 314.148C13.624 355.468 47.2416 389.086 88.5619 389.086C129.882 389.086 163.5 355.468 163.5 314.148C163.5 272.827 129.882 239.21 88.5619 239.21V239.21Z" fill="#1A428A"/>
<path fill-rule="evenodd" clip-rule="evenodd" d="M109 375.458C63.8516 375.458 27.2519 338.858 27.2519 293.71C27.2519 276.359 32.6937 260.295 41.9128 247.061C20.7147 261.831 6.81396 286.35 6.81396 314.148C6.81396 359.296 43.4136 395.896 88.5619 395.896C116.36 395.896 140.879 381.995 155.649 360.797C142.415 370.016 126.351 375.458 109 375.458V375.458Z" fill="#1A428A"/>
<path d="M88.5619 402.71C39.7299 402.71 0 362.98 0 314.148C0 285.227 14.2126 258.057 38.0225 241.471C40.7161 239.576 44.3882 239.9 46.727 242.243C49.062 244.578 49.3895 248.242 47.4989 250.951C38.7125 263.581 34.062 278.359 34.062 293.71C34.062 335.03 67.6796 368.648 109 368.648C124.347 368.648 139.129 363.997 151.759 355.207C154.452 353.312 158.124 353.636 160.463 355.979C162.798 358.314 163.126 361.978 161.235 364.687C144.652 388.497 117.482 402.71 88.5619 402.71V402.71ZM21.3267 281.123C16.3332 291.266 13.624 302.539 13.624 314.148C13.624 355.468 47.2416 389.086 88.5619 389.086C100.171 389.086 111.444 386.376 121.587 381.383C117.443 381.972 113.237 382.272 109 382.272C60.1678 382.272 20.438 342.542 20.438 293.71C20.438 289.473 20.7381 285.266 21.3267 281.123V281.123Z" fill="#1A428A"/>
<path d="M299.752 123.396C299.752 168.544 263.148 205.148 218 205.148C172.852 205.148 136.252 168.544 136.252 123.396C136.252 78.2477 172.852 41.648 218 41.648C263.148 41.648 299.752 78.2477 299.752 123.396Z" fill="#6BC4E8"/>
<path d="M218 211.958C169.168 211.958 129.438 172.228 129.438 123.396C129.438 74.5639 169.168 34.834 218 34.834C266.832 34.834 306.562 74.5639 306.562 123.396C306.562 172.228 266.832 211.958 218 211.958V211.958ZM218 48.458C176.679 48.458 143.062 82.0756 143.062 123.396C143.062 164.716 176.679 198.334 218 198.334C259.32 198.334 292.938 164.716 292.938 123.396C292.938 82.0756 259.32 48.458 218 48.458Z" fill="#1A428A"/>
<path d="M163.5 130.21C159.734 130.21 156.686 127.162 156.686 123.396C156.686 89.5873 184.191 62.0859 218 62.0859C221.765 62.0859 224.814 65.1304 224.814 68.896C224.814 72.6616 221.765 75.7099 218 75.7099C191.707 75.7099 170.314 97.103 170.314 123.396C170.314 127.162 167.265 130.21 163.5 130.21Z" fill="white"/>
<path d="M429.186 314.148C429.186 359.296 392.586 395.896 347.438 395.896C302.289 395.896 265.686 359.296 265.686 314.148C265.686 268.996 302.289 232.396 347.438 232.396C392.586 232.396 429.186 268.996 429.186 314.148V314.148Z" fill="#6BC4E8"/>
<path d="M347.438 402.71C298.606 402.71 258.876 362.98 258.876 314.148C258.876 265.316 298.606 225.586 347.438 225.586C396.27 225.586 436 265.316 436 314.148C436 362.98 396.27 402.71 347.438 402.71V402.71ZM347.438 239.21C306.117 239.21 272.5 272.827 272.5 314.148C272.5 355.468 306.117 389.086 347.438 389.086C388.758 389.086 422.376 355.468 422.376 314.148C422.376 272.827 388.758 239.21 347.438 239.21V239.21Z" fill="#1A428A"/>
<path fill-rule="evenodd" clip-rule="evenodd" d="M347.438 232.396C342.783 232.396 338.254 232.875 333.814 233.624C372.46 240.122 401.938 273.65 401.938 314.148C401.938 354.642 372.46 388.173 333.814 394.672C338.254 395.416 342.783 395.896 347.438 395.896C392.586 395.896 429.186 359.296 429.186 314.148C429.186 268.996 392.586 232.396 347.438 232.396V232.396Z" fill="#1A428A"/>
<path d="M347.438 402.71C342.799 402.71 337.977 402.277 332.687 401.392C329.401 400.842 327 398.001 327 394.676C327 391.347 329.401 388.509 332.683 387.955C368.866 381.874 395.124 350.829 395.124 314.148C395.124 277.462 368.866 246.421 332.683 240.34C329.401 239.787 327 236.949 327 233.62C327 230.295 329.401 227.453 332.687 226.903C337.977 226.019 342.803 225.586 347.438 225.586C396.27 225.586 436 265.316 436 314.148C436 362.98 396.27 402.71 347.438 402.71V402.71ZM374.787 244.379C395.669 260.657 408.752 285.999 408.752 314.148C408.752 342.296 395.669 367.634 374.787 383.917C402.624 372.971 422.376 345.82 422.376 314.148C422.376 282.471 402.624 255.321 374.787 244.379V244.379Z" fill="#1A428A"/>
<path d="M277.817 178.991C268.485 189.029 256.697 196.736 243.361 201.09L313.247 298.372L346.444 274.523L277.817 178.991Z" fill="#D7E9FF"/>
<path d="M313.255 305.178C311.134 305.178 309.045 304.192 307.716 302.336L237.826 205.058C236.563 203.296 236.208 201.035 236.886 198.973C237.561 196.903 239.182 195.286 241.244 194.611C253.208 190.709 264.134 183.708 272.827 174.353C274.215 172.86 276.141 172.127 278.25 172.189C280.284 172.314 282.163 173.355 283.352 175.015L351.983 270.551C353.035 272.013 353.46 273.845 353.172 275.626C352.879 277.408 351.889 278.998 350.42 280.058L317.223 303.9C316.023 304.765 314.631 305.178 313.255 305.178ZM254.03 204.263L314.806 288.86L336.94 272.964L276.912 189.407C270.071 195.519 262.333 200.544 254.03 204.263V204.263Z" fill="#1A428A"/>
<path d="M265.686 314.148C265.686 309.493 266.165 304.964 266.914 300.52H129.438V341.396H270.438C267.417 332.859 265.686 323.718 265.686 314.148Z" fill="#D7E9FF"/>
<path d="M270.438 348.21H129.438C125.672 348.21 122.624 345.161 122.624 341.396V300.52C122.624 296.754 125.672 293.71 129.438 293.71H266.914C268.913 293.71 270.816 294.595 272.114 296.119C273.408 297.647 273.965 299.67 273.634 301.646C272.874 306.184 272.504 310.273 272.504 314.148C272.504 322.544 273.965 330.953 276.862 339.123C277.599 341.212 277.279 343.524 276 345.329C274.722 347.138 272.648 348.21 270.438 348.21ZM136.252 334.586H261.316C259.694 327.838 258.876 320.997 258.876 314.148C258.876 311.93 258.977 309.669 259.176 307.334H136.252V334.586Z" fill="#1A428A"/>
<path d="M388.314 361.834C384.548 361.834 381.5 358.789 381.5 355.024V327.772C381.5 324.006 384.548 320.958 388.314 320.958C392.079 320.958 395.124 324.006 395.124 327.772V355.024C395.124 358.789 392.079 361.834 388.314 361.834V361.834Z" fill="white"/>
<path d="M401.938 348.21H374.686C370.92 348.21 367.876 345.161 367.876 341.396C367.876 337.63 370.92 334.586 374.686 334.586H401.938C405.703 334.586 408.752 337.63 408.752 341.396C408.752 345.161 405.703 348.21 401.938 348.21V348.21Z" fill="white"/>
</g>
<defs>
<clipPath id="clip0_1_48">
<rect width="436" height="436" fill="white"/>
</clipPath>
</defs>
</svg>
