<svg width="409" height="409" viewBox="0 0 409 409" fill="none" xmlns="http://www.w3.org/2000/svg">
<g clip-path="url(#clip0_1_69)">
<path d="M81.9611 88.6161H340.991V402.183H81.9611V88.6161Z" fill="#1A428A"/>
<path d="M340.991 409.002H81.9611C78.1971 409.002 75.1429 405.951 75.1429 402.183V88.6161C75.1429 84.8482 78.1971 81.8019 81.9611 81.8019H340.991C344.759 81.8019 347.809 84.8482 347.809 88.6161V402.183C347.809 405.951 344.759 409.002 340.991 409.002ZM88.7753 395.365H334.177V95.4342H88.7753V395.365Z" fill="#1A428A"/>
<path d="M340.991 88.6161H81.9611L102.412 47.7152L81.9611 6.81812H340.991L320.545 47.7152L340.991 88.6161Z" fill="#1A428A"/>
<path d="M340.991 95.4342H81.9611C79.5974 95.4342 77.4014 94.2095 76.161 92.2007C74.9207 90.188 74.8075 87.68 75.8607 85.5698L94.786 47.7152L75.8607 9.86444C74.8075 7.75425 74.9207 5.24621 76.161 3.23354C77.4053 1.22477 79.5974 0 81.9611 0H340.991C343.355 0 345.551 1.22477 346.791 3.23354C348.032 5.24231 348.145 7.75425 347.092 9.86444L328.166 47.7152L347.092 85.5698C348.145 87.6761 348.032 90.188 346.791 92.2007C345.547 94.2095 343.355 95.4342 340.991 95.4342ZM92.9918 81.8019H329.964L314.448 50.7654C313.489 48.8463 313.489 46.584 314.448 44.6688L329.961 13.6323H92.9918L108.508 44.6688C109.464 46.584 109.464 48.8463 108.508 50.7654L92.9918 81.8019Z" fill="#1A428A"/>
<path d="M68.3247 88.6161H327.359V402.183H68.3247V88.6161Z" fill="#6BC4E8"/>
<path d="M327.359 409.002H68.3247C64.5607 409.002 61.5105 405.951 61.5105 402.183V88.6161C61.5105 84.8482 64.5607 81.8019 68.3247 81.8019H327.359C331.123 81.8019 334.177 84.8482 334.177 88.6161V402.183C334.177 405.951 331.123 409.002 327.359 409.002ZM75.1428 395.365H320.545V95.4342H75.1428V395.365Z" fill="#1A428A"/>
<path d="M327.359 88.6161H68.3247L88.7752 47.7152L68.3247 6.81812H327.359L306.908 47.7152L327.359 88.6161Z" fill="#D7E9FF"/>
<path d="M327.359 95.4342H68.3248C65.961 95.4342 63.7689 94.2095 62.5286 92.2007C61.2882 90.188 61.1751 87.68 62.2282 85.5698L81.1536 47.7152L62.2282 9.86444C61.1751 7.75425 61.2882 5.24621 62.5286 3.23354C63.7728 1.22477 65.961 0 68.3248 0H327.359C329.723 0 331.919 1.22477 333.159 3.23354C334.399 5.24231 334.512 7.75425 333.455 9.86444L314.534 47.7152L333.455 85.5698C334.512 87.6761 334.399 90.188 333.159 92.2007C331.915 94.2095 329.723 95.4342 327.359 95.4342ZM79.3594 81.8019H316.332L300.816 50.7654C299.856 48.8463 299.856 46.584 300.816 44.6688L316.328 13.6323H79.3594L94.8757 44.6688C95.8313 46.584 95.8313 48.8463 94.8757 50.7654L79.3594 81.8019Z" fill="#1A428A"/>
<path d="M136.494 136.335C136.494 143.863 130.39 149.968 122.858 149.968C115.33 149.968 109.226 143.863 109.226 136.335C109.226 128.803 115.33 122.699 122.858 122.699C130.39 122.699 136.494 128.803 136.494 136.335Z" fill="#2A8EE6"/>
<path d="M122.858 156.782C111.582 156.782 102.411 147.612 102.411 136.335C102.411 125.059 111.582 115.885 122.858 115.885C134.134 115.885 143.309 125.059 143.309 136.335C143.309 147.612 134.134 156.782 122.858 156.782ZM122.858 129.517C119.102 129.517 116.044 132.571 116.044 136.335C116.044 140.095 119.102 143.149 122.858 143.149C126.618 143.149 129.676 140.095 129.676 136.335C129.676 132.571 126.618 129.517 122.858 129.517Z" fill="#1A428A"/>
<path d="M286.458 136.335C286.458 143.863 280.358 149.968 272.826 149.968C265.298 149.968 259.193 143.863 259.193 136.335C259.193 128.803 265.298 122.699 272.826 122.699C280.358 122.699 286.458 128.803 286.458 136.335Z" fill="#2A8EE6"/>
<path d="M272.826 156.782C261.549 156.782 252.375 147.612 252.375 136.335C252.375 125.059 261.549 115.885 272.826 115.885C284.102 115.885 293.276 125.059 293.276 136.335C293.276 147.612 284.102 156.782 272.826 156.782ZM272.826 129.517C269.069 129.517 266.011 132.571 266.011 136.335C266.011 140.095 269.069 143.149 272.826 143.149C276.586 143.149 279.644 140.095 279.644 136.335C279.644 132.571 276.586 129.517 272.826 129.517Z" fill="#1A428A"/>
<path d="M197.842 224.951C152.74 224.951 116.044 188.259 116.044 143.149C116.044 139.381 119.094 136.335 122.858 136.335C126.626 136.335 129.676 139.381 129.676 143.149C129.676 180.735 160.252 211.315 197.842 211.315C235.431 211.315 266.011 180.735 266.011 143.149C266.011 139.381 269.062 136.335 272.826 136.335C276.59 136.335 279.644 139.381 279.644 143.149C279.644 188.259 242.947 224.951 197.842 224.951Z" fill="#1A428A"/>
<path d="M266.011 313.567C266.011 351.215 235.49 381.733 197.842 381.733C160.194 381.733 129.676 351.215 129.676 313.567C129.676 275.919 160.194 245.402 197.842 245.402C235.49 245.402 266.011 275.919 266.011 313.567Z" fill="#2A8EE6"/>
<path d="M197.842 388.551C156.496 388.551 122.858 354.913 122.858 313.567C122.858 272.222 156.496 238.584 197.842 238.584C239.191 238.584 272.826 272.222 272.826 313.567C272.826 354.913 239.191 388.551 197.842 388.551ZM197.842 252.216C164.016 252.216 136.494 279.734 136.494 313.567C136.494 347.397 164.016 374.915 197.842 374.915C231.671 374.915 259.193 347.397 259.193 313.567C259.193 279.734 231.671 252.216 197.842 252.216Z" fill="#1A428A"/>
<path d="M178.187 281.774C178.187 281.209 178.561 280.834 179.123 280.834H202.834C216.33 280.834 222.704 287.578 222.704 297.798C222.704 305.013 219.33 309.132 215.301 311.289V311.477C219.236 312.982 223.827 318.041 223.827 325.815C223.827 338.468 215.862 344.561 201.898 344.561H179.123C178.561 344.561 178.187 344.186 178.187 343.621V281.774ZM202.554 307.354C208.178 307.354 211.642 303.98 211.642 299.014C211.642 293.952 208.178 290.578 202.554 290.578H189.807C189.432 290.578 189.245 290.765 189.245 291.139V306.796C189.245 307.17 189.432 307.354 189.807 307.354H202.554ZM189.807 334.817H203.115C209.305 334.817 212.769 331.252 212.769 325.909C212.769 320.662 209.305 317.101 203.115 317.101H189.807C189.432 317.101 189.245 317.288 189.245 317.667V334.248C189.245 334.63 189.432 334.817 189.807 334.817V334.817Z" fill="#1A428A"/>
<path d="M194.437 289.708C190.669 289.708 187.619 286.661 187.619 282.894V276.075C187.619 272.308 190.669 269.257 194.437 269.257C198.201 269.257 201.251 272.308 201.251 276.075V282.894C201.251 286.661 198.201 289.708 194.437 289.708Z" fill="#1A428A"/>
<path d="M194.437 357.873C190.669 357.873 187.619 354.827 187.619 351.059V344.241C187.619 340.473 190.669 337.427 194.437 337.427C198.201 337.427 201.251 340.473 201.251 344.241V351.059C201.251 354.827 198.201 357.873 194.437 357.873Z" fill="#1A428A"/>
<path d="M320.545 299.935C316.777 299.935 313.726 296.885 313.726 293.117V265.848C313.726 262.08 316.777 259.034 320.545 259.034C324.309 259.034 327.359 262.08 327.359 265.848V293.117C327.359 296.885 324.309 299.935 320.545 299.935Z" fill="white"/>
<path d="M334.177 286.299H306.908C303.144 286.299 300.094 283.252 300.094 279.485C300.094 275.717 303.144 272.666 306.908 272.666H334.177C337.941 272.666 340.991 275.717 340.991 279.485C340.991 283.252 337.941 286.299 334.177 286.299Z" fill="white"/>
<path d="M170.577 54.5333H109.226C105.462 54.5333 102.411 51.4831 102.411 47.7152C102.411 43.9473 105.462 40.9009 109.226 40.9009H170.577C174.341 40.9009 177.391 43.9473 177.391 47.7152C177.391 51.4831 174.341 54.5333 170.577 54.5333Z" fill="white"/>
</g>
<defs>
<clipPath id="clip0_1_69">
<rect width="409" height="409" fill="white"/>
</clipPath>
</defs>
</svg>
