<svg width="409" height="409" viewBox="0 0 409 409" fill="none" xmlns="http://www.w3.org/2000/svg">
<g clip-path="url(#clip0_1_92)">
<path d="M118.423 354.468H68.3247L102.408 61.3514L118.423 354.468Z" fill="#2A8EE6"/>
<path d="M118.423 361.282H68.3248C66.3823 361.282 64.5257 360.452 63.2385 359.001C61.9435 357.55 61.3312 355.611 61.5574 353.68L95.6402 60.5635C96.0459 57.0491 98.9635 54.4397 102.622 54.5333C106.16 54.6464 109.027 57.4431 109.218 60.9769L125.23 354.094C125.335 355.966 124.66 357.795 123.373 359.153C122.086 360.51 120.295 361.282 118.423 361.282V361.282ZM75.9815 347.65H111.223L99.962 141.445L75.9815 347.65Z" fill="#1A428A"/>
<path d="M340.991 402.183H102.408L68.3247 354.468H340.991V402.183Z" fill="#2A8EE6"/>
<path d="M340.991 409.002H102.408C100.208 409.002 98.1404 407.937 96.8611 406.142L62.7783 358.427C61.2961 356.348 61.0971 353.622 62.2634 351.344C63.4335 349.074 65.7739 347.65 68.3248 347.65H340.991C344.759 347.65 347.809 350.7 347.809 354.468V402.183C347.809 405.951 344.759 409.002 340.991 409.002V409.002ZM105.918 395.365H334.177V361.282H81.571L105.918 395.365Z" fill="#1A428A"/>
<path d="M102.408 61.3514H340.991V402.183H102.408V61.3514Z" fill="#6BC4E8"/>
<path d="M340.991 409.002H102.408C98.6436 409.002 95.5934 405.951 95.5934 402.183V61.3514C95.5934 57.5835 98.6436 54.5333 102.408 54.5333H340.991C344.759 54.5333 347.809 57.5835 347.809 61.3514V402.183C347.809 405.951 344.759 409.002 340.991 409.002ZM109.226 395.365H334.177V68.1656H109.226V395.365Z" fill="#1A428A"/>
<path fill-rule="evenodd" clip-rule="evenodd" d="M293.276 259.034C293.276 300.446 259.704 334.018 218.292 334.018C176.88 334.018 143.308 300.446 143.308 259.034C143.308 217.622 176.88 184.05 218.292 184.05C259.704 184.05 293.276 217.622 293.276 259.034Z" fill="#1A428A"/>
<path d="M218.292 340.832C173.19 340.832 136.494 304.14 136.494 259.034C136.494 213.924 173.19 177.232 218.292 177.232C263.398 177.232 300.094 213.924 300.094 259.034C300.094 304.14 263.398 340.832 218.292 340.832V340.832ZM218.292 190.868C180.703 190.868 150.127 221.449 150.127 259.034C150.127 296.62 180.703 327.2 218.292 327.2C255.882 327.2 286.458 296.62 286.458 259.034C286.458 221.449 255.882 190.868 218.292 190.868V190.868Z" fill="#1A428A"/>
<path d="M306.908 259.034C306.908 300.446 273.337 334.018 231.925 334.018C190.513 334.018 156.941 300.446 156.941 259.034C156.941 217.622 190.513 184.05 231.925 184.05C273.337 184.05 306.908 217.622 306.908 259.034Z" fill="#D7E9FF"/>
<path d="M231.925 340.832C186.823 340.832 150.127 304.14 150.127 259.034C150.127 213.924 186.823 177.232 231.925 177.232C277.03 177.232 313.727 213.924 313.727 259.034C313.727 304.14 277.03 340.832 231.925 340.832V340.832ZM231.925 190.868C194.339 190.868 163.759 221.449 163.759 259.034C163.759 296.62 194.339 327.2 231.925 327.2C269.514 327.2 300.094 296.62 300.094 259.034C300.094 221.449 269.514 190.868 231.925 190.868V190.868Z" fill="#1A428A"/>
<path d="M209.871 221.363C209.871 220.645 210.351 220.173 211.061 220.173H241.216C258.386 220.173 266.487 228.75 266.487 241.747C266.487 250.925 262.201 256.163 257.075 258.905V259.147C262.08 261.058 267.919 267.494 267.919 277.386C267.919 293.476 257.785 301.226 240.026 301.226H211.061C210.351 301.226 209.871 300.746 209.871 300.033V221.363ZM240.865 253.901C248.014 253.901 252.43 249.614 252.43 243.295C252.43 236.86 248.014 232.565 240.865 232.565H224.65C224.178 232.565 223.936 232.803 223.936 233.275V253.187C223.936 253.659 224.178 253.901 224.65 253.901H240.865ZM224.65 288.83H241.578C249.446 288.83 253.853 284.298 253.853 277.503C253.853 270.829 249.446 266.293 241.578 266.293H224.65C224.178 266.293 223.936 266.535 223.936 267.015V288.109C223.936 288.592 224.178 288.83 224.65 288.83V288.83Z" fill="#1A428A"/>
<path d="M231.925 231.765C228.161 231.765 225.11 228.719 225.11 224.951V211.315C225.11 207.547 228.161 204.501 231.925 204.501C235.689 204.501 238.743 207.547 238.743 211.315V224.951C238.743 228.719 235.689 231.765 231.925 231.765Z" fill="#1A428A"/>
<path d="M231.925 313.567C228.161 313.567 225.11 310.517 225.11 306.749V299.935C225.11 296.167 228.161 293.117 231.925 293.117C235.689 293.117 238.743 296.167 238.743 299.935V306.749C238.743 310.517 235.689 313.567 231.925 313.567Z" fill="#1A428A"/>
<path d="M279.644 122.699C275.88 122.699 272.826 119.653 272.826 115.885V61.3514C272.826 35.0423 251.419 13.6323 225.11 13.6323C198.797 13.6323 177.391 35.0423 177.391 61.3514V115.885C177.391 119.653 174.341 122.699 170.577 122.699C166.813 122.699 163.759 119.653 163.759 115.885V61.3514C163.759 27.5182 191.281 0 225.11 0C258.936 0 286.458 27.5182 286.458 61.3514V115.885C286.458 119.653 283.408 122.699 279.644 122.699Z" fill="#1A428A"/>
<path d="M306.908 149.967C303.144 149.967 300.094 146.917 300.094 143.149V115.885C300.094 112.117 303.144 109.067 306.908 109.067C310.672 109.067 313.726 112.117 313.726 115.885V143.149C313.726 146.917 310.672 149.967 306.908 149.967Z" fill="white"/>
<path d="M320.545 136.335H293.276C289.512 136.335 286.458 133.285 286.458 129.517C286.458 125.749 289.512 122.699 293.276 122.699H320.545C324.309 122.699 327.359 125.749 327.359 129.517C327.359 133.285 324.309 136.335 320.545 136.335Z" fill="white"/>
<path d="M122.858 115.885C119.094 115.885 116.044 112.834 116.044 109.067V81.8019C116.044 78.034 119.094 74.9838 122.858 74.9838C126.622 74.9838 129.676 78.034 129.676 81.8019V109.067C129.676 112.834 126.622 115.885 122.858 115.885Z" fill="white"/>
</g>
<defs>
<clipPath id="clip0_1_92">
<rect width="409" height="409" fill="white"/>
</clipPath>
</defs>
</svg>
