<svg width="416" height="416" viewBox="0 0 416 416" fill="none" xmlns="http://www.w3.org/2000/svg">
<path d="M351.614 143.213C351.614 67.8835 290.548 6.82114 215.219 6.82114C139.89 6.82114 78.824 67.8835 78.824 143.213C78.824 199.128 112.508 247.125 160.662 268.182V327.344H269.777V268.182C317.93 247.125 351.614 199.128 351.614 143.213V143.213Z" fill="#1A428A"/>
<path d="M269.776 334.165H160.662C156.892 334.165 153.841 331.114 153.841 327.344V272.56C103.982 248.885 72.0066 198.601 72.0066 143.212C72.0066 64.2466 136.253 0 215.219 0C294.185 0 358.432 64.2466 358.432 143.212C358.432 198.601 326.457 248.885 276.598 272.56V327.344C276.598 331.114 273.546 334.165 269.776 334.165V334.165ZM167.483 320.523H262.955V268.178C262.955 265.466 264.563 263.019 267.045 261.931C314.278 241.28 344.793 194.679 344.793 143.212C344.793 71.7662 286.665 13.6384 215.219 13.6384C143.773 13.6384 85.6449 71.7662 85.6449 143.212C85.6449 194.679 116.161 241.28 163.393 261.931C165.879 263.019 167.483 265.466 167.483 268.178V320.523Z" fill="#1A428A"/>
<path d="M337.972 143.213C337.972 67.8835 276.91 6.82114 201.581 6.82114C126.252 6.82114 65.1855 67.8835 65.1855 143.213C65.1855 199.128 98.8697 247.125 147.023 268.182V327.344H256.138V268.182C304.292 247.125 337.972 199.128 337.972 143.213V143.213Z" fill="#6BC4E8"/>
<path d="M256.138 334.165H147.024C143.254 334.165 140.202 331.114 140.202 327.344V272.56C90.3395 248.885 58.3684 198.601 58.3684 143.212C58.3684 64.2466 122.615 0 201.581 0C280.547 0 344.793 64.2466 344.793 143.212C344.793 198.601 312.818 248.885 262.955 272.56V327.344C262.955 331.114 259.908 334.165 256.138 334.165V334.165ZM153.841 320.523H249.317V268.178C249.317 265.466 250.921 263.019 253.407 261.931C300.639 241.28 331.155 194.679 331.155 143.212C331.155 71.7662 273.027 13.6384 201.581 13.6384C130.135 13.6384 72.0068 71.7662 72.0068 143.212C72.0068 194.679 102.522 241.28 149.755 261.931C152.237 263.019 153.841 265.466 153.841 268.178V320.523Z" fill="#1A428A"/>
<path d="M201.581 313.706C197.811 313.706 194.76 310.654 194.76 306.884V156.851C194.76 153.081 197.811 150.034 201.581 150.034C205.35 150.034 208.398 153.081 208.398 156.851V306.884C208.398 310.654 205.35 313.706 201.581 313.706Z" fill="#1A428A"/>
<path d="M269.776 109.115C269.776 146.779 239.245 177.31 201.581 177.31C163.916 177.31 133.385 146.779 133.385 109.115C133.385 71.4502 163.916 40.919 201.581 40.919C239.245 40.919 269.776 71.4502 269.776 109.115Z" fill="#D7E9FF"/>
<path d="M201.581 184.131C160.217 184.131 126.564 150.478 126.564 109.115C126.564 67.7508 160.217 34.0978 201.581 34.0978C242.945 34.0978 276.598 67.7508 276.598 109.115C276.598 150.478 242.945 184.131 201.581 184.131ZM201.581 47.7362C167.733 47.7362 140.202 75.2705 140.202 109.115C140.202 142.959 167.733 170.493 201.581 170.493C235.425 170.493 262.955 142.959 262.955 109.115C262.955 75.2705 235.425 47.7362 201.581 47.7362Z" fill="#1A428A"/>
<path d="M181.921 77.3074C181.921 76.7416 182.292 76.367 182.854 76.367H206.576C220.073 76.367 226.446 83.114 226.446 93.3379C226.446 100.557 223.078 104.678 219.043 106.836V107.023C222.984 108.529 227.581 113.591 227.581 121.368C227.581 134.031 219.609 140.122 205.635 140.122H182.854C182.292 140.122 181.921 139.747 181.921 139.181V77.3074ZM206.295 102.902C211.918 102.902 215.387 99.5229 215.387 94.5554C215.387 89.4942 211.918 86.1187 206.295 86.1187H193.542C193.164 86.1187 192.976 86.3021 192.976 86.6767V102.34C192.976 102.715 193.164 102.902 193.542 102.902H206.295ZM193.542 130.374H206.857C213.049 130.374 216.511 126.811 216.511 121.461C216.511 116.213 213.049 112.65 206.857 112.65H193.542C193.16 112.65 192.976 112.837 192.976 113.216V129.804C192.976 130.187 193.16 130.374 193.542 130.374Z" fill="#1A428A"/>
<path d="M198.17 85.2446C194.401 85.2446 191.349 82.197 191.349 78.4274V71.6063C191.349 67.8367 194.401 64.7851 198.17 64.7851C201.94 64.7851 204.991 67.8367 204.991 71.6063V78.4274C204.991 82.197 201.94 85.2446 198.17 85.2446Z" fill="#1A428A"/>
<path d="M198.17 153.444C194.401 153.444 191.349 150.393 191.349 146.623V139.802C191.349 136.032 194.401 132.985 198.17 132.985C201.94 132.985 204.991 136.032 204.991 139.802V146.623C204.991 150.393 201.94 153.444 198.17 153.444Z" fill="#1A428A"/>
<path d="M201.589 300.067C201.335 300.067 201.081 300.052 200.828 300.028C197.085 299.607 194.389 296.235 194.803 292.493C197.507 268.198 205.643 250.758 218.997 240.659C233.927 229.366 249.777 231.856 250.437 231.961C254.152 232.582 256.661 236.098 256.045 239.809C255.44 243.504 251.955 246.056 248.244 245.424C247.725 245.35 237.13 243.91 227.016 251.703C216.885 259.488 210.611 273.719 208.359 293.999C207.973 297.488 205.019 300.067 201.589 300.067Z" fill="#1A428A"/>
<path d="M201.573 300.067C198.143 300.067 195.185 297.488 194.799 293.999C192.528 273.571 186.186 259.289 175.939 251.535C165.817 243.875 155.082 245.389 154.961 245.416C151.238 246.087 147.73 243.524 147.113 239.809C146.497 236.098 149.006 232.582 152.721 231.961C153.368 231.856 169.231 229.358 184.161 240.659C197.515 250.755 205.655 268.198 208.355 292.493C208.769 296.235 206.072 299.607 202.33 300.024C202.08 300.052 201.819 300.067 201.573 300.067Z" fill="#1A428A"/>
<path d="M262.955 354.625H140.202C132.671 354.625 126.564 348.518 126.564 340.982C126.564 333.451 132.671 327.344 140.202 327.344H262.955C270.491 327.344 276.598 333.451 276.598 340.982C276.598 348.518 270.491 354.625 262.955 354.625Z" fill="#6BC4E8"/>
<path d="M262.955 361.442H140.202C128.921 361.442 119.743 352.264 119.743 340.982C119.743 329.701 128.921 320.523 140.202 320.523H262.955C274.237 320.523 283.415 329.701 283.415 340.982C283.415 352.264 274.237 361.442 262.955 361.442ZM140.202 334.165C136.441 334.165 133.385 337.221 133.385 340.982C133.385 344.748 136.441 347.803 140.202 347.803H262.955C266.721 347.803 269.777 344.748 269.777 340.982C269.777 337.221 266.721 334.165 262.955 334.165H140.202Z" fill="#1A428A"/>
<path d="M262.955 381.901H140.202C132.671 381.901 126.564 375.794 126.564 368.263C126.564 360.732 132.671 354.625 140.202 354.625H262.955C270.491 354.625 276.598 360.732 276.598 368.263C276.598 375.794 270.491 381.901 262.955 381.901V381.901Z" fill="#2A8EE6"/>
<path d="M262.955 388.722H140.202C128.921 388.722 119.743 379.544 119.743 368.263C119.743 356.982 128.921 347.803 140.202 347.803H262.955C274.237 347.803 283.415 356.982 283.415 368.263C283.415 379.544 274.237 388.722 262.955 388.722V388.722ZM140.202 361.442C136.441 361.442 133.385 364.501 133.385 368.263C133.385 372.025 136.441 375.08 140.202 375.08H262.955C266.721 375.08 269.777 372.025 269.777 368.263C269.777 364.501 266.721 361.442 262.955 361.442H140.202Z" fill="#1A428A"/>
<path d="M262.955 409.182H140.202C132.671 409.182 126.564 403.075 126.564 395.54C126.564 388.008 132.671 381.901 140.202 381.901H262.955C270.491 381.901 276.598 388.008 276.598 395.54C276.598 403.075 270.491 409.182 262.955 409.182Z" fill="#6BC4E8"/>
<path d="M262.955 415.999H140.202C128.921 415.999 119.743 406.821 119.743 395.54C119.743 384.258 128.921 375.08 140.202 375.08H262.955C274.237 375.08 283.415 384.258 283.415 395.54C283.415 406.821 274.237 415.999 262.955 415.999V415.999ZM140.202 388.722C136.441 388.722 133.385 391.778 133.385 395.54C133.385 399.305 136.441 402.361 140.202 402.361H262.955C266.721 402.361 269.777 399.305 269.777 395.54C269.777 391.778 266.721 388.722 262.955 388.722H140.202Z" fill="#1A428A"/>
<path d="M317.513 115.936C313.743 115.936 310.696 112.884 310.696 109.115V81.8379C310.696 78.0684 313.743 75.0168 317.513 75.0168C321.282 75.0168 324.334 78.0684 324.334 81.8379V109.115C324.334 112.884 321.282 115.936 317.513 115.936Z" fill="white"/>
<path d="M331.155 102.294H303.874C300.105 102.294 297.057 99.2459 297.057 95.4763C297.057 91.7067 300.105 88.6552 303.874 88.6552H331.155C334.925 88.6552 337.972 91.7067 337.972 95.4763C337.972 99.2459 334.925 102.294 331.155 102.294Z" fill="white"/>
<path d="M96.6063 95.4685C95.6073 95.4685 94.5889 95.25 93.625 94.7778C90.2418 93.1232 88.837 89.0415 90.4876 85.6582C99.4042 67.3684 113.043 51.6736 129.939 40.2634C133.049 38.1562 137.315 38.9717 139.406 42.0974C141.517 45.2114 140.698 49.4532 137.572 51.5604C122.662 61.6438 110.615 75.4968 102.741 91.6404C101.562 94.0637 99.1311 95.4685 96.6063 95.4685Z" fill="white"/>
</svg>
