<svg width="410" height="410" viewBox="0 0 410 410" fill="none" xmlns="http://www.w3.org/2000/svg">
<g clip-path="url(#clip0_1_134)">
<path d="M307.199 314.027C287.863 322.621 265.098 322.621 245.762 314.027V266.238H307.199V314.027Z" fill="#6BC4E8"/>
<path d="M276.48 327.254C264.977 327.254 253.473 324.926 242.988 320.266C240.523 319.168 238.934 316.727 238.934 314.027V266.238C238.934 262.465 241.988 259.414 245.762 259.414H307.199C310.969 259.414 314.027 262.465 314.027 266.238V314.027C314.027 316.727 312.438 319.168 309.973 320.266C299.484 324.926 287.984 327.254 276.48 327.254ZM307.199 314.027H307.266H307.199ZM252.586 309.426C267.828 315.012 285.133 315.012 300.375 309.426V273.066H252.586V309.426Z" fill="#1A428A"/>
<path d="M402.773 402.773H150.188V368.887C150.188 345.59 172.32 326.707 199.621 326.707L276.48 314.027L353.34 326.707C380.641 326.707 402.773 345.59 402.773 368.887V402.773Z" fill="#2A8EE6"/>
<path d="M402.773 409.602H150.188C146.418 409.602 143.359 406.547 143.359 402.773V368.887C143.359 342.035 168.285 320.152 199.047 319.879L275.371 307.293C276.105 307.176 276.855 307.176 277.59 307.293L353.914 319.879C384.676 320.152 409.602 342.031 409.602 368.887V402.773C409.602 406.547 406.543 409.602 402.773 409.602V409.602ZM157.012 395.945H395.945V368.887C395.945 349.395 376.832 333.535 353.34 333.535C352.965 333.535 352.594 333.5 352.23 333.441L276.48 320.945L200.73 333.441C200.363 333.5 199.992 333.535 199.621 333.535C176.125 333.535 157.012 349.395 157.012 368.887V395.945Z" fill="#1A428A"/>
<path d="M313.117 279.895H239.844C224.258 279.895 211.625 267.262 211.625 251.676V191.148C211.625 157.215 239.133 129.707 273.066 129.707H279.895C313.824 129.707 341.332 157.215 341.332 191.148V251.676C341.332 267.262 328.699 279.895 313.117 279.895V279.895Z" fill="#D7E9FF"/>
<path d="M313.117 286.719H239.844C220.52 286.719 204.801 271 204.801 251.68V191.148C204.801 153.508 235.422 122.879 273.066 122.879H279.895C317.539 122.879 348.16 153.508 348.16 191.148V251.68C348.16 271 332.441 286.719 313.117 286.719V286.719ZM273.066 136.535C242.953 136.535 218.453 161.031 218.453 191.148V251.68C218.453 263.473 228.051 273.066 239.844 273.066H313.117C324.91 273.066 334.508 263.473 334.508 251.68V191.148C334.508 161.031 310.008 136.535 279.895 136.535H273.066Z" fill="#1A428A"/>
<path d="M279.895 314.027H218.453V348.16L279.895 314.027Z" fill="white"/>
<path d="M218.453 354.988C217.258 354.988 216.062 354.672 214.992 354.047C212.906 352.82 211.625 350.578 211.625 348.16V314.027C211.625 310.254 214.684 307.199 218.453 307.199H279.895C283.004 307.199 285.719 309.301 286.504 312.312C287.281 315.328 285.926 318.484 283.211 319.992L221.77 354.125C220.738 354.699 219.594 354.988 218.453 354.988V354.988ZM225.281 320.852V336.559L253.551 320.852H225.281Z" fill="#1A428A"/>
<path d="M249.973 6.82812H36.7461C27.7656 6.82812 20.4805 14.1094 20.4805 23.0938V161.227C20.4805 170.211 27.7656 177.492 36.7461 177.492H47.7852L34.1328 211.625L72.168 177.492H249.973C258.957 177.492 266.238 170.211 266.238 161.227V23.0938C266.238 14.1094 258.957 6.82812 249.973 6.82812V6.82812Z" fill="#1A428A"/>
<path d="M34.1328 218.453C32.7695 218.453 31.4023 218.047 30.2227 217.219C27.625 215.406 26.6172 212.031 27.793 209.094L37.7031 184.32H36.7461C24.0117 184.32 13.6523 173.961 13.6523 161.227V23.0938C13.6523 10.3594 24.0117 0 36.7461 0H249.973C262.707 0 273.066 10.3594 273.066 23.0938V161.227C273.066 173.961 262.707 184.32 249.973 184.32H74.7812L38.6914 216.707C37.4023 217.867 35.7695 218.453 34.1328 218.453V218.453ZM36.7461 13.6523C31.5391 13.6523 27.3086 17.8867 27.3086 23.0938V161.227C27.3086 166.434 31.5391 170.668 36.7461 170.668H47.7852C50.0547 170.668 52.168 171.793 53.4375 173.668C54.707 175.539 54.9648 177.926 54.125 180.027L51.3242 187.023L67.6055 172.414C68.8555 171.289 70.4805 170.668 72.1641 170.668H249.973C255.18 170.668 259.41 166.437 259.41 161.23V23.0938C259.41 17.8867 255.18 13.6523 249.973 13.6523H36.7461Z" fill="#1A428A"/>
<path d="M273.066 314.027H334.508V348.16L273.066 314.027Z" fill="white"/>
<path d="M334.508 354.988C333.367 354.988 332.223 354.699 331.192 354.125L269.75 319.992C267.035 318.484 265.676 315.328 266.457 312.312C267.238 309.301 269.957 307.199 273.067 307.199H334.508C338.277 307.199 341.332 310.254 341.332 314.027V348.16C341.332 350.578 340.055 352.82 337.969 354.047C336.899 354.672 335.703 354.988 334.508 354.988V354.988ZM299.41 320.852L327.68 336.559V320.852H299.41Z" fill="#1A428A"/>
<path d="M236.32 6.82812H23.0938C14.1094 6.82812 6.82812 14.1094 6.82812 23.0938V161.227C6.82812 170.211 14.1094 177.492 23.0938 177.492H34.1328V211.625L58.5156 177.492H236.32C245.305 177.492 252.586 170.211 252.586 161.227V23.0938C252.586 14.1094 245.301 6.82812 236.32 6.82812Z" fill="#2A8EE6"/>
<path d="M34.1328 218.453C33.4414 218.453 32.7383 218.348 32.0508 218.129C29.2227 217.219 27.3086 214.594 27.3086 211.625V184.32H23.0938C10.3594 184.32 0 173.961 0 161.227V23.0938C0 10.3594 10.3594 0 23.0938 0H236.32C249.055 0 259.414 10.3594 259.414 23.0938V161.227C259.414 173.961 249.055 184.32 236.32 184.32H62.0273L39.6914 215.594C38.3828 217.422 36.2969 218.453 34.1328 218.453ZM23.0938 13.6523C17.8867 13.6523 13.6523 17.8867 13.6523 23.0938V161.227C13.6523 166.434 17.8867 170.668 23.0938 170.668H34.1328C37.9023 170.668 40.9609 173.719 40.9609 177.492V190.328L52.957 173.527C54.2383 171.734 56.3086 170.668 58.5117 170.668H236.32C241.527 170.668 245.762 166.434 245.762 161.227V23.0938C245.762 17.8867 241.527 13.6523 236.32 13.6523H23.0938Z" fill="#1A428A"/>
<path d="M184.32 88.7461C184.32 118.91 159.867 143.359 129.707 143.359C99.543 143.359 75.0938 118.91 75.0938 88.7461C75.0938 58.5859 99.543 34.1328 129.707 34.1328C159.867 34.1328 184.32 58.5859 184.32 88.7461Z" fill="#D7E9FF"/>
<path d="M129.707 150.188C95.8281 150.188 68.2656 122.629 68.2656 88.7461C68.2656 54.8672 95.8281 27.3086 129.707 27.3086C163.586 27.3086 191.148 54.8672 191.148 88.7461C191.148 122.629 163.586 150.188 129.707 150.188ZM129.707 40.9609C103.359 40.9609 81.9219 62.3984 81.9219 88.7461C81.9219 115.094 103.359 136.535 129.707 136.535C156.055 136.535 177.492 115.094 177.492 88.7461C177.492 62.3984 156.055 40.9609 129.707 40.9609Z" fill="#1A428A"/>
<path d="M110.023 56.9062C110.023 56.3398 110.398 55.9648 110.961 55.9648H134.707C148.219 55.9648 154.605 62.7188 154.605 72.9531C154.605 80.1797 151.223 84.3047 147.191 86.4648V86.6523C151.129 88.1602 155.73 93.2266 155.73 101.012C155.73 113.688 147.754 119.785 133.766 119.785H110.961C110.398 119.785 110.023 119.41 110.023 118.844V56.9062ZM134.426 82.5273C140.059 82.5273 143.527 79.1484 143.527 74.1719C143.527 69.1055 140.059 65.7266 134.426 65.7266H121.66C121.281 65.7266 121.098 65.9102 121.098 66.2852V81.9648C121.098 82.3398 121.281 82.5273 121.66 82.5273H134.426ZM121.66 110.027H134.988C141.184 110.027 144.652 106.461 144.652 101.105C144.652 95.8516 141.184 92.2852 134.988 92.2852H121.66C121.281 92.2852 121.098 92.4727 121.098 92.8516V109.457C121.098 109.84 121.281 110.027 121.66 110.027Z" fill="#1A428A"/>
<path d="M126.293 64.8516C122.523 64.8516 119.465 61.8008 119.465 58.0273V51.1992C119.465 47.4258 122.523 44.375 126.293 44.375C130.062 44.375 133.121 47.4258 133.121 51.1992V58.0273C133.121 61.8008 130.062 64.8516 126.293 64.8516Z" fill="#1A428A"/>
<path d="M126.293 133.121C122.523 133.121 119.465 130.066 119.465 126.293V119.465C119.465 115.691 122.523 112.641 126.293 112.641C130.062 112.641 133.121 115.691 133.121 119.465V126.293C133.121 130.066 130.062 133.121 126.293 133.121Z" fill="#1A428A"/>
<path d="M245.762 88.7461C241.988 88.7461 238.934 85.6953 238.934 81.9219V54.6133C238.934 50.8398 241.988 47.7852 245.762 47.7852C249.531 47.7852 252.586 50.8398 252.586 54.6133V81.9219C252.586 85.6953 249.531 88.7461 245.762 88.7461Z" fill="white"/>
<path d="M259.414 75.0938H232.105C228.336 75.0938 225.281 72.0391 225.281 68.2656C225.281 64.4922 228.336 61.4414 232.105 61.4414H259.414C263.184 61.4414 266.238 64.4922 266.238 68.2656C266.238 72.0391 263.184 75.0938 259.414 75.0938Z" fill="white"/>
<path d="M27.3086 54.6133C23.5352 54.6133 20.4805 51.5586 20.4805 47.7852V27.3086C20.4805 23.5352 23.5352 20.4805 27.3086 20.4805H54.6133C58.3828 20.4805 61.4414 23.5352 61.4414 27.3086C61.4414 31.082 58.3828 34.1328 54.6133 34.1328H34.1328V47.7852C34.1328 51.5586 31.0781 54.6133 27.3086 54.6133Z" fill="white"/>
</g>
<defs>
<clipPath id="clip0_1_134">
<rect width="409.6" height="409.6" fill="white"/>
</clipPath>
</defs>
</svg>
