<svg width="389" height="389" viewBox="0 0 389 389" fill="none" xmlns="http://www.w3.org/2000/svg">
<g clip-path="url(#clip0_1_158)">
<path fill-rule="evenodd" clip-rule="evenodd" d="M334.737 382.176H314.263V6.82596L334.737 20.4779V382.176Z" fill="#1A428A"/>
<path d="M334.737 389.002H314.263C310.495 389.002 307.441 385.948 307.441 382.176V6.82596C307.441 4.30722 308.823 1.99546 311.045 0.808332C313.252 -0.382697 315.95 -0.249927 318.047 1.14807L338.521 14.8C340.419 16.0652 341.559 18.1974 341.559 20.4779V382.176C341.563 385.948 338.505 389.002 334.737 389.002ZM321.089 375.35H327.911V24.1291L321.089 19.5758V375.35Z" fill="#1A428A"/>
<path d="M95.4962 6.82596H314.263V382.176H54.9309V47.7739L95.4962 6.82596Z" fill="#6BC4E8"/>
<path d="M314.263 389.002H54.9309C51.1626 389.002 48.1089 385.948 48.1089 382.176V47.7739C48.1089 45.9737 48.8196 44.2516 50.0848 42.9708L90.6462 2.0228C91.9309 0.730239 93.6726 0.00390625 95.4962 0.00390625H314.263C318.031 0.00390625 321.089 3.05372 321.089 6.82596V382.176C321.089 385.948 318.031 389.002 314.263 389.002ZM61.7569 375.35H307.441V13.6519H98.343L61.7569 50.5816V375.35Z" fill="#1A428A"/>
<path d="M252.845 68.2479H102.705C98.9365 68.2479 95.8789 65.1942 95.8789 61.422C95.8789 57.6497 98.9365 54.5999 102.705 54.5999H252.845C256.613 54.5999 259.667 57.6497 259.667 61.422C259.667 65.1942 256.613 68.2479 252.845 68.2479Z" fill="#1A428A"/>
<path d="M252.845 136.492H102.705C98.9365 136.492 95.8789 133.442 95.8789 129.67C95.8789 125.898 98.9365 122.844 102.705 122.844H252.845C256.613 122.844 259.667 125.898 259.667 129.67C259.667 133.442 256.613 136.492 252.845 136.492Z" fill="#1A428A"/>
<path d="M164.123 102.37H102.705C98.9365 102.37 95.8789 99.3201 95.8789 95.5479C95.8789 91.7756 98.9365 88.7219 102.705 88.7219H164.123C167.895 88.7219 170.949 91.7756 170.949 95.5479C170.949 99.3201 167.895 102.37 164.123 102.37Z" fill="#1A428A"/>
<path d="M164.123 170.614H102.705C98.9365 170.614 95.8789 167.564 95.8789 163.792C95.8789 160.02 98.9365 156.966 102.705 156.966H164.123C167.895 156.966 170.949 160.02 170.949 163.792C170.949 167.564 167.895 170.614 164.123 170.614Z" fill="#1A428A"/>
<path d="M252.845 102.37H191.423C187.655 102.37 184.597 99.3201 184.597 95.5479C184.597 91.7756 187.655 88.7219 191.423 88.7219H252.845C256.613 88.7219 259.667 91.7756 259.667 95.5479C259.667 99.3201 256.613 102.37 252.845 102.37Z" fill="#1A428A"/>
<path d="M54.9309 218.388H232.371V327.58H54.9309V218.388Z" fill="white"/>
<path d="M232.371 334.406H54.9309C51.1626 334.406 48.1089 331.352 48.1089 327.58V218.388C48.1089 214.616 51.1626 211.562 54.9309 211.562H232.371C236.139 211.562 239.193 214.616 239.193 218.388V327.58C239.193 331.352 236.139 334.406 232.371 334.406ZM61.7569 320.754H225.545V225.21H61.7569V320.754Z" fill="#1A428A"/>
<path d="M102.545 244.926C104.915 244.926 107.149 245.235 109.242 245.844C111.335 246.457 113.162 247.379 114.721 248.605C116.279 249.831 117.505 251.358 118.399 253.185C119.289 255.013 119.738 257.133 119.738 259.562C119.738 260.812 119.571 261.952 119.239 262.979C118.907 264.006 118.477 264.936 117.958 265.76C117.438 266.584 116.864 267.306 116.24 267.919C115.611 268.532 115.006 269.059 114.42 269.501C113.834 269.938 113.315 270.285 112.862 270.539C112.405 270.789 112.089 270.945 111.901 271C113.502 271.453 114.849 272.031 115.939 272.738C117.032 273.449 117.946 274.218 118.68 275.057C119.41 275.897 119.984 276.764 120.398 277.658C120.812 278.548 121.117 279.415 121.316 280.255C121.519 281.095 121.64 281.868 121.679 282.575C121.718 283.281 121.738 283.848 121.738 284.273C121.738 286.351 121.484 288.186 120.976 289.772C120.473 291.357 119.805 292.732 118.977 293.891C118.153 295.051 117.204 296.035 116.138 296.847C115.072 297.664 113.994 298.32 112.901 298.827C110.288 300.053 107.344 300.748 104.064 300.909H90.9468C89.4278 300.909 88.2563 300.647 87.4284 300.128C86.6044 299.608 86.0031 298.913 85.6282 298.046C85.2572 297.183 85.0346 296.203 84.9682 295.11C84.9018 294.016 84.8667 292.884 84.8667 291.708V254.045C84.8667 252.896 84.9018 251.78 84.9682 250.686C85.0346 249.589 85.2572 248.617 85.6282 247.765C86.0031 246.914 86.6005 246.227 87.4284 245.707C88.2563 245.184 89.4278 244.926 90.9468 244.926H102.545ZM97.0269 254.361V267.958H102.142C103.291 267.907 104.318 267.638 105.224 267.158C105.598 266.974 105.969 266.72 106.344 266.4C106.715 266.08 107.051 265.701 107.344 265.26C107.637 264.818 107.871 264.295 108.043 263.678C108.215 263.065 108.301 262.362 108.301 261.562C108.301 260.656 108.207 259.863 108.023 259.18C107.836 258.5 107.59 257.914 107.281 257.422C106.973 256.93 106.629 256.509 106.243 256.161C105.856 255.817 105.462 255.525 105.063 255.282C104.103 254.775 103.025 254.47 101.826 254.361H97.0269ZM97.0269 276.436V291.47H102.865C104.118 291.419 105.239 291.127 106.223 290.592C106.649 290.377 107.063 290.096 107.465 289.752C107.863 289.404 108.223 288.971 108.543 288.452C108.863 287.932 109.117 287.331 109.304 286.651C109.488 285.972 109.582 285.179 109.582 284.269C109.582 283.285 109.484 282.426 109.281 281.692C109.082 280.958 108.816 280.317 108.484 279.771C108.148 279.228 107.77 278.759 107.344 278.373C106.918 277.986 106.489 277.674 106.063 277.432C105.024 276.873 103.849 276.541 102.545 276.432H97.0269V276.436Z" fill="#1A428A"/>
<path d="M154.048 244.926C155.114 244.926 156.188 244.965 157.266 245.047C158.347 245.125 159.328 245.352 160.206 245.723C161.089 246.098 161.8 246.664 162.346 247.426C162.893 248.183 163.166 249.241 163.166 250.604C163.166 251.936 162.893 252.982 162.346 253.74C161.8 254.501 161.089 255.068 160.206 255.443C159.328 255.814 158.347 256.048 157.266 256.142C156.188 256.235 155.114 256.282 154.048 256.282H149.967V291.786C149.967 292.935 149.936 294.055 149.87 295.149C149.803 296.242 149.581 297.214 149.21 298.066C148.835 298.921 148.237 299.604 147.41 300.128C146.582 300.647 145.41 300.905 143.891 300.905C142.368 300.905 141.197 300.647 140.373 300.128C139.545 299.604 138.947 298.921 138.572 298.066C138.198 297.214 137.979 296.242 137.913 295.149C137.846 294.055 137.811 292.935 137.811 291.786V256.282H133.73C132.664 256.282 131.59 256.235 130.513 256.142C129.431 256.048 128.455 255.814 127.572 255.443C126.693 255.068 125.979 254.501 125.432 253.74C124.885 252.982 124.616 251.936 124.616 250.604C124.616 249.241 124.885 248.183 125.432 247.426C125.979 246.664 126.693 246.098 127.572 245.723C128.455 245.352 129.431 245.125 130.513 245.047C131.59 244.965 132.664 244.926 133.73 244.926H154.048Z" fill="#1A428A"/>
<path d="M185.718 244.606C188.65 244.606 191.177 244.938 193.293 245.606C195.414 246.274 197.198 247.137 198.655 248.203C200.108 249.269 201.271 250.475 202.154 251.823C203.033 253.17 203.704 254.537 204.173 255.919C204.641 257.305 204.946 258.641 205.091 259.918C205.239 261.199 205.313 262.304 205.313 263.237C205.313 263.639 205.278 264.123 205.212 264.697C205.145 265.268 204.911 265.822 204.513 266.357C204.114 266.892 203.482 267.341 202.615 267.716C201.748 268.091 200.514 268.274 198.913 268.274C198.382 268.274 197.714 268.243 196.913 268.177C196.113 268.11 195.34 267.935 194.598 267.654C193.852 267.376 193.211 266.978 192.676 266.455C192.141 265.935 191.876 265.209 191.876 264.276C191.876 262.839 191.79 261.542 191.618 260.398C191.446 259.254 191.13 258.281 190.677 257.481C190.224 256.68 189.595 256.067 188.799 255.642C187.998 255.212 186.971 255.001 185.718 255.001C184.41 255.001 183.406 255.275 182.699 255.821C181.988 256.364 181.477 256.958 181.157 257.598C180.786 258.371 180.571 259.238 180.52 260.199V285.55C180.571 286.722 180.786 287.749 181.157 288.627C181.481 289.401 181.992 290.107 182.699 290.748C183.402 291.388 184.41 291.705 185.718 291.705C186.971 291.705 187.998 291.447 188.799 290.927C189.595 290.408 190.224 289.705 190.677 288.827C191.13 287.948 191.442 286.936 191.618 285.788C191.79 284.644 191.876 283.445 191.876 282.192C191.876 281.794 191.942 281.376 192.075 280.95C192.208 280.524 192.516 280.134 192.997 279.771C193.477 279.412 194.18 279.111 195.113 278.873C196.046 278.634 197.316 278.513 198.913 278.513C200.514 278.513 201.748 278.693 202.615 279.052C203.482 279.412 204.114 279.825 204.513 280.294C204.911 280.759 205.145 281.212 205.212 281.653C205.278 282.094 205.313 282.379 205.313 282.512C205.313 285.445 204.821 288.065 203.833 290.369C202.845 292.673 201.451 294.625 199.655 296.227C197.855 297.828 195.711 299.046 193.219 299.886C190.724 300.729 187.987 301.147 184.999 301.147C184.523 301.147 183.742 301.108 182.66 301.026C181.582 300.948 180.376 300.733 179.044 300.385C177.712 300.042 176.338 299.522 174.924 298.827C173.511 298.136 172.226 297.168 171.066 295.93C169.906 294.692 168.954 293.142 168.204 291.291C167.458 289.436 167.087 287.179 167.087 284.511V262.198C167.087 260.015 167.352 258.078 167.887 256.403C168.422 254.724 169.121 253.264 169.984 252.022C170.851 250.784 171.843 249.745 172.964 248.906C174.085 248.066 175.229 247.367 176.404 246.805C179.118 245.524 182.227 244.794 185.718 244.606Z" fill="#1A428A"/>
<path d="M307.441 81.8959C303.668 81.8959 300.615 78.8461 300.615 75.0739V47.7739C300.615 44.0017 303.668 40.9519 307.441 40.9519C311.209 40.9519 314.263 44.0017 314.263 47.7739V75.0739C314.263 78.8461 311.209 81.8959 307.441 81.8959Z" fill="white"/>
<path d="M321.089 68.2479H293.789C290.021 68.2479 286.967 65.1942 286.967 61.422C286.967 57.6497 290.021 54.5999 293.789 54.5999H321.089C324.857 54.5999 327.911 57.6497 327.911 61.422C327.911 65.1942 324.857 68.2479 321.089 68.2479Z" fill="white"/>
<path d="M293.789 368.528C290.021 368.528 286.967 365.474 286.967 361.702V313.932C286.967 310.16 290.021 307.106 293.789 307.106C297.557 307.106 300.615 310.16 300.615 313.932V361.702C300.615 365.474 297.557 368.528 293.789 368.528V368.528Z" fill="white"/>
</g>
<defs>
<clipPath id="clip0_1_158">
<rect width="389" height="389" fill="white"/>
</clipPath>
</defs>
</svg>
