<svg width="423" height="423" viewBox="0 0 423 423" fill="none" xmlns="http://www.w3.org/2000/svg">
<g clip-path="url(#clip0_1_177)">
<path fill-rule="evenodd" clip-rule="evenodd" d="M259.378 416.177H41.0549V94.0142C41.0549 76.0015 55.6556 61.4008 73.6644 61.4008H226.768C244.777 61.4008 259.378 76.0015 259.378 94.0142V416.177Z" fill="#1A428A"/>
<path d="M259.378 423.001H41.0548C37.2836 423.001 34.2307 419.949 34.2307 416.177V94.0103C34.2307 72.2693 51.9194 54.5807 73.6603 54.5807H226.772C248.509 54.5807 266.202 72.2693 266.202 94.0103V416.177C266.202 419.949 263.149 423.001 259.378 423.001ZM47.8788 409.353H252.554V94.0103C252.554 79.7922 240.99 68.2249 226.772 68.2249H73.6603C59.4422 68.2249 47.8788 79.7922 47.8788 94.0103V409.353Z" fill="#1A428A"/>
<path d="M273.022 416.177H54.699V94.0142C54.699 76.0015 69.2996 61.4008 87.3084 61.4008H240.412C258.421 61.4008 273.022 76.0015 273.022 94.0142V416.177Z" fill="#6BC4E8"/>
<path d="M273.022 423.001H54.6991C50.9279 423.001 47.8789 419.949 47.8789 416.177V94.0103C47.8789 72.2693 65.5676 54.5807 87.3085 54.5807H240.416C262.157 54.5807 279.846 72.2693 279.846 94.0103V416.177C279.846 419.949 276.793 423.001 273.022 423.001ZM61.5231 409.353H266.202V94.0103C266.202 79.7922 254.634 68.2249 240.416 68.2249H87.3085C73.0865 68.2249 61.5231 79.7922 61.5231 94.0103V409.353Z" fill="#1A428A"/>
<path d="M245.734 163.742C245.734 118.523 209.08 81.8691 163.861 81.8691C118.645 81.8691 81.9915 118.523 81.9915 163.742H245.734Z" fill="#D7E9FF"/>
<path d="M245.733 170.562H81.9913C78.2201 170.562 75.1672 167.513 75.1672 163.742C75.1672 114.838 114.956 75.049 163.86 75.049C212.765 75.049 252.554 114.838 252.554 163.742C252.554 167.513 249.505 170.562 245.733 170.562ZM89.1198 156.918H238.605C235.146 118.722 202.946 88.6932 163.864 88.6932C124.778 88.6932 92.5787 118.722 89.1198 156.918Z" fill="#1A428A"/>
<path d="M163.86 184.21C160.089 184.21 157.04 181.157 157.04 177.386V109.161C157.04 105.39 160.089 102.337 163.86 102.337C167.632 102.337 170.684 105.39 170.684 109.161V177.386C170.684 181.157 167.632 184.21 163.86 184.21Z" fill="#1A428A"/>
<path d="M191.153 122.806C189.408 122.806 187.659 122.138 186.327 120.807C183.665 118.144 183.665 113.823 186.327 111.16L199.972 97.516C202.638 94.8496 206.956 94.8496 209.622 97.516C212.285 100.178 212.285 104.496 209.622 107.163L195.974 120.807C194.643 122.138 192.898 122.806 191.153 122.806Z" fill="#1A428A"/>
<path d="M136.572 122.806C134.827 122.806 133.078 122.138 131.747 120.807L118.103 107.163C115.436 104.496 115.436 100.178 118.103 97.516C120.765 94.8496 125.087 94.8496 127.749 97.516L141.393 111.16C144.06 113.823 144.06 118.144 141.393 120.807C140.062 122.138 138.317 122.806 136.572 122.806Z" fill="#1A428A"/>
<path d="M116.104 136.45L88.8115 129.63Z" fill="#D7E9FF"/>
<path d="M116.112 143.274C115.565 143.274 115.003 143.207 114.449 143.067L87.1602 136.243C83.5022 135.333 81.277 131.628 82.1983 127.974C83.104 124.313 86.801 122.064 90.4668 123.013L117.755 129.837C121.413 130.746 123.638 134.451 122.721 138.105C121.948 141.209 119.168 143.274 116.112 143.274Z" fill="#1A428A"/>
<path d="M211.621 136.45L238.909 129.63Z" fill="#D7E9FF"/>
<path d="M211.613 143.274C208.553 143.274 205.777 141.209 205.004 138.105C204.083 134.451 206.312 130.75 209.966 129.837L237.258 123.013C240.901 122.072 244.613 124.32 245.527 127.974C246.444 131.628 244.219 135.329 240.561 136.243L213.272 143.067C212.718 143.207 212.16 143.274 211.613 143.274Z" fill="#1A428A"/>
<path d="M347.364 368.421H328.309C312.873 368.421 300.314 355.862 300.314 340.422V171.956C300.314 164.039 293.877 157.597 285.963 157.597H273.022C269.251 157.597 266.202 154.544 266.202 150.773C266.202 147.002 269.251 143.953 273.022 143.953H285.963C301.399 143.953 313.958 156.512 313.958 171.956V340.422C313.958 348.339 320.392 354.773 328.309 354.773H347.364C355.281 354.773 361.715 348.339 361.715 340.422V136.45C361.715 132.679 364.768 129.63 368.539 129.63C372.31 129.63 375.363 132.679 375.363 136.45V340.422C375.363 355.862 362.804 368.421 347.364 368.421V368.421Z" fill="#1A428A"/>
<path d="M354.895 61.4008H382.183V136.45H354.895V61.4008Z" fill="#D7E9FF"/>
<path d="M382.183 143.274H354.895C351.124 143.274 348.071 140.221 348.071 136.45V61.4008C348.071 57.6296 351.124 54.5807 354.895 54.5807H382.183C385.954 54.5807 389.007 57.6296 389.007 61.4008V136.45C389.007 140.221 385.954 143.274 382.183 143.274ZM361.715 129.63H375.363V68.2249H361.715V129.63Z" fill="#1A428A"/>
<path d="M367.407 67.085C367.341 67.085 367.274 67.085 367.208 67.085C363.437 66.9717 360.47 63.833 360.579 60.0696L361.715 20.2731C361.77 18.528 362.484 16.8766 363.714 15.643L377.362 1.99881C380.025 -0.667571 384.342 -0.667571 387.009 1.99881C389.671 4.66128 389.671 8.98292 387.009 11.6454L375.281 23.3728L374.223 60.4561C374.118 64.1609 371.077 67.085 367.407 67.085V67.085Z" fill="#1A428A"/>
<path d="M232.085 300.192C232.085 337.873 201.541 368.421 163.86 368.421C126.18 368.421 95.6355 337.873 95.6355 300.192C95.6355 262.511 126.18 231.967 163.86 231.967C201.541 231.967 232.085 262.511 232.085 300.192V300.192Z" fill="#2A8EE6"/>
<path d="M163.86 375.241C122.479 375.241 88.8115 341.577 88.8115 300.192C88.8115 258.81 122.479 225.143 163.86 225.143C205.242 225.143 238.909 258.81 238.909 300.192C238.909 341.577 205.242 375.241 163.86 375.241ZM163.86 238.791C130.002 238.791 102.46 266.333 102.46 300.192C102.46 334.055 130.002 361.597 163.86 361.597C197.723 361.597 225.265 334.055 225.265 300.192C225.265 266.333 197.723 238.791 163.86 238.791V238.791Z" fill="#1A428A"/>
<path d="M144.193 268.371C144.193 267.805 144.567 267.434 145.126 267.434H168.858C182.365 267.434 188.74 274.184 188.74 284.408C188.74 291.631 185.367 295.757 181.331 297.916V298.099C185.274 299.606 189.872 304.67 189.872 312.45C189.872 325.118 181.897 331.212 167.921 331.212H145.126C144.567 331.212 144.193 330.842 144.193 330.275V268.371ZM168.58 293.977C174.202 293.977 177.673 290.6 177.673 285.626C177.673 280.563 174.202 277.186 168.58 277.186H155.822C155.44 277.186 155.256 277.373 155.256 277.744V293.419C155.256 293.789 155.44 293.977 155.822 293.977H168.58ZM155.819 321.46H169.139C175.334 321.46 178.801 317.896 178.801 312.544C178.801 307.297 175.334 303.729 169.139 303.729H155.819C155.44 303.729 155.252 303.916 155.252 304.299V320.894C155.252 321.273 155.44 321.46 155.819 321.46V321.46Z" fill="#1A428A"/>
<path d="M160.449 276.316C156.677 276.316 153.628 273.263 153.628 269.491V262.667C153.628 258.896 156.677 255.847 160.449 255.847C164.22 255.847 167.273 258.896 167.273 262.667V269.491C167.273 273.263 164.22 276.316 160.449 276.316Z" fill="#1A428A"/>
<path d="M160.449 344.54C156.677 344.54 153.628 341.488 153.628 337.716V330.896C153.628 327.125 156.677 324.072 160.449 324.072C164.22 324.072 167.273 327.125 167.273 330.896V337.716C167.273 341.488 164.22 344.54 160.449 344.54Z" fill="#1A428A"/>
<path d="M61.523 388.889C57.7518 388.889 54.699 385.836 54.699 382.065V354.773C54.699 351.001 57.7518 347.953 61.523 347.953C65.2942 347.953 68.3432 351.001 68.3432 354.773V382.065C68.3432 385.836 65.2942 388.889 61.523 388.889V388.889Z" fill="white"/>
<path d="M75.1674 375.241H47.879C44.1078 375.241 41.0549 372.192 41.0549 368.421C41.0549 364.65 44.1078 361.597 47.879 361.597H75.1674C78.9386 361.597 81.9914 364.65 81.9914 368.421C81.9914 372.192 78.9386 375.241 75.1674 375.241Z" fill="white"/>
<path d="M75.1673 122.806C71.3961 122.806 68.3433 119.753 68.3433 115.982V96.6923C68.3433 84.7619 78.0601 75.049 89.9905 75.049H109.28C113.051 75.049 116.104 78.0979 116.104 81.8691C116.104 85.6403 113.051 88.6932 109.28 88.6932H89.9905C85.5791 88.6932 81.9914 92.2848 81.9914 96.6923V115.982C81.9914 119.753 78.9385 122.806 75.1673 122.806Z" fill="white"/>
</g>
<defs>
<clipPath id="clip0_1_177">
<rect width="423" height="423" fill="white"/>
</clipPath>
</defs>
</svg>
