<svg width="424" height="424" viewBox="0 0 424 424" fill="none" xmlns="http://www.w3.org/2000/svg">
<g clip-path="url(#clip0_1_204)">
<path d="M320.852 218.453C320.852 273.75 276.027 318.578 220.727 318.578C165.43 318.578 120.602 273.75 120.602 218.453C120.602 163.156 165.43 118.328 220.727 118.328C276.027 118.328 320.852 163.156 320.852 218.453Z" fill="#1A428A"/>
<path d="M220.727 325.406C161.754 325.406 113.781 277.426 113.781 218.453C113.781 159.48 161.754 111.5 220.727 111.5C279.699 111.5 327.68 159.48 327.68 218.453C327.68 277.426 279.699 325.406 220.727 325.406ZM220.727 125.152C169.285 125.152 127.434 167.008 127.434 218.453C127.434 269.902 169.285 311.754 220.727 311.754C272.176 311.754 314.027 269.902 314.027 218.453C314.027 167.008 272.176 125.152 220.727 125.152V125.152Z" fill="#1A428A"/>
<path d="M302.648 218.453C302.648 273.75 257.824 318.578 202.523 318.578C147.227 318.578 102.398 273.75 102.398 218.453C102.398 163.156 147.227 118.328 202.523 118.328C257.824 118.328 302.648 163.156 302.648 218.453Z" fill="#6BC4E8"/>
<path d="M202.527 325.406C143.555 325.406 95.5742 277.426 95.5742 218.453C95.5742 159.48 143.555 111.5 202.527 111.5C261.5 111.5 309.473 159.48 309.473 218.453C309.473 277.426 261.5 325.406 202.527 325.406V325.406ZM202.527 125.152C151.078 125.152 109.227 167.008 109.227 218.453C109.227 269.902 151.078 311.754 202.527 311.754C253.969 311.754 295.82 269.902 295.82 218.453C295.82 167.008 253.969 125.152 202.527 125.152V125.152Z" fill="#1A428A"/>
<path d="M129.34 188.414C128.309 188.414 127.254 188.18 126.266 187.68C122.906 185.98 121.551 181.871 123.254 178.504C131.859 161.473 146.004 147.41 163.086 138.926C166.477 137.246 170.559 138.625 172.238 142C173.918 145.379 172.539 149.473 169.164 151.152C154.699 158.34 142.727 170.238 135.438 184.668C134.238 187.039 131.832 188.414 129.34 188.414Z" fill="white"/>
<path d="M182.715 180.727C182.715 180.008 183.195 179.535 183.906 179.535H214.105C231.301 179.535 239.414 188.129 239.414 201.141C239.414 210.336 235.117 215.582 229.988 218.328V218.566C235 220.48 240.848 226.926 240.848 236.836C240.848 252.945 230.699 260.707 212.914 260.707H183.906C183.195 260.707 182.715 260.227 182.715 259.516V180.727ZM213.754 213.312C220.914 213.312 225.332 209.02 225.332 202.691C225.332 196.246 220.914 191.945 213.754 191.945H197.512C197.039 191.945 196.801 192.188 196.801 192.66V212.598C196.801 213.07 197.039 213.312 197.512 213.312H213.754ZM197.512 248.293H214.465C222.348 248.293 226.758 243.754 226.758 236.953C226.758 230.266 222.348 225.727 214.465 225.727H197.512C197.039 225.727 196.801 225.965 196.801 226.445V247.574C196.801 248.055 197.039 248.293 197.512 248.293Z" fill="#1A428A"/>
<path d="M204.801 191.148C201.027 191.148 197.973 188.094 197.973 184.32V170.668C197.973 166.895 201.027 163.84 204.801 163.84C208.574 163.84 211.625 166.895 211.625 170.668V184.32C211.625 188.094 208.574 191.148 204.801 191.148Z" fill="#1A428A"/>
<path d="M204.801 273.066C201.027 273.066 197.973 270.012 197.973 266.238V259.414C197.973 255.641 201.027 252.586 204.801 252.586C208.574 252.586 211.625 255.641 211.625 259.414V266.238C211.625 270.012 208.574 273.066 204.801 273.066Z" fill="#1A428A"/>
<path d="M211.625 423.254C94.9336 423.254 0 328.32 0 211.625C0 94.9336 94.9336 0 211.625 0C328.32 0 423.254 94.9336 423.254 211.625C423.254 328.32 328.32 423.254 211.625 423.254V423.254ZM211.625 13.6523C102.465 13.6523 13.6523 102.465 13.6523 211.625C13.6523 320.785 102.465 409.602 211.625 409.602C320.785 409.602 409.602 320.785 409.602 211.625C409.602 102.465 320.785 13.6523 211.625 13.6523V13.6523Z" fill="#1A428A"/>
<path d="M64.8516 358.398C63.1055 358.398 61.3594 357.734 60.0273 356.398C57.3594 353.734 57.3594 349.414 60.0273 346.746L346.746 60.0273C349.414 57.3594 353.734 57.3594 356.398 60.0273C359.066 62.6914 359.066 67.0156 356.398 69.6797L69.6797 356.398C68.3477 357.734 66.5977 358.398 64.8516 358.398V358.398Z" fill="#1A428A"/>
<path d="M286.719 204.801C282.945 204.801 279.895 201.746 279.895 197.973V170.668C279.895 166.895 282.945 163.84 286.719 163.84C290.492 163.84 293.547 166.895 293.547 170.668V197.973C293.547 201.746 290.492 204.801 286.719 204.801Z" fill="white"/>
<path d="M300.375 191.148H273.066C269.293 191.148 266.238 188.094 266.238 184.32C266.238 180.547 269.293 177.492 273.066 177.492H300.375C304.148 177.492 307.199 180.547 307.199 184.32C307.199 188.094 304.148 191.148 300.375 191.148Z" fill="white"/>
</g>
<defs>
<clipPath id="clip0_1_204">
<rect width="423.253" height="423.253" fill="white"/>
</clipPath>
</defs>
</svg>
