<svg width="369" height="369" viewBox="0 0 369 369" fill="none" xmlns="http://www.w3.org/2000/svg">
<g clip-path="url(#clip0_1_218)">
<path d="M361.812 368.641H6.82812C3.05469 368.641 0 365.586 0 361.812C0 358.039 3.05469 354.988 6.82812 354.988H361.812C365.586 354.988 368.641 358.039 368.641 361.812C368.641 365.586 365.586 368.641 361.812 368.641Z" fill="#1A428A"/>
<path d="M208.797 334.508H81.9219L68.2656 40.9609H252.586L238.934 304.371C238.934 321.016 225.441 334.508 208.797 334.508V334.508Z" fill="#D7E9FF"/>
<path d="M208.801 341.332H81.9219C78.2734 341.332 75.2734 338.465 75.1016 334.828L61.4453 41.2812C61.3594 39.4141 62.0391 37.5937 63.3281 36.2461C64.6211 34.8984 66.3984 34.1328 68.2656 34.1328H252.586C254.461 34.1328 256.246 34.8984 257.539 36.2617C258.828 37.6211 259.5 39.4453 259.406 41.3125L245.754 304.727C245.762 324.754 229.18 341.332 208.801 341.332V341.332ZM88.4336 327.68H208.797C221.652 327.68 232.105 317.227 232.105 304.375L245.398 47.7852H75.418L88.4336 327.68Z" fill="#1A428A"/>
<path fill-rule="evenodd" clip-rule="evenodd" d="M320.852 184.32C320.852 225.793 287.234 259.414 245.762 259.414C204.285 259.414 170.668 225.793 170.668 184.32C170.668 142.848 204.285 109.227 245.762 109.227C287.234 109.227 320.852 142.848 320.852 184.32Z" fill="#1A428A"/>
<path d="M245.762 266.238C200.586 266.238 163.84 229.492 163.84 184.32C163.84 139.145 200.586 102.398 245.762 102.398C290.934 102.398 327.68 139.145 327.68 184.32C327.68 229.492 290.934 266.238 245.762 266.238ZM245.762 116.055C208.121 116.055 177.492 146.68 177.492 184.32C177.492 221.961 208.121 252.586 245.762 252.586C283.402 252.586 314.027 221.961 314.027 184.32C314.027 146.68 283.402 116.055 245.762 116.055V116.055Z" fill="#1A428A"/>
<path d="M307.199 184.32C307.199 225.793 273.578 259.414 232.105 259.414C190.633 259.414 157.012 225.793 157.012 184.32C157.012 142.848 190.633 109.227 232.105 109.227C273.578 109.227 307.199 142.848 307.199 184.32Z" fill="#6BC4E8"/>
<path d="M232.105 266.238C186.934 266.238 150.188 229.492 150.188 184.32C150.188 139.145 186.934 102.398 232.105 102.398C277.281 102.398 314.027 139.145 314.027 184.32C314.027 229.492 277.281 266.238 232.105 266.238V266.238ZM232.105 116.055C194.465 116.055 163.84 146.68 163.84 184.32C163.84 221.961 194.465 252.586 232.105 252.586C269.746 252.586 300.375 221.961 300.375 184.32C300.375 146.68 269.746 116.055 232.105 116.055Z" fill="#1A428A"/>
<path d="M210.02 146.594C210.02 145.875 210.5 145.402 211.215 145.402H241.414C258.605 145.402 266.719 153.996 266.719 167.008C266.719 176.203 262.426 181.449 257.293 184.195V184.434C262.309 186.348 268.152 192.793 268.152 202.699C268.152 218.812 258.008 226.574 240.219 226.574H211.215C210.5 226.574 210.02 226.094 210.02 225.379V146.594ZM241.059 179.18C248.219 179.18 252.641 174.887 252.641 168.559C252.641 162.113 248.219 157.812 241.059 157.812H224.82C224.348 157.812 224.105 158.051 224.105 158.527V178.465C224.105 178.937 224.348 179.18 224.82 179.18H241.059ZM224.82 214.16H241.773C249.652 214.16 254.066 209.621 254.066 202.82C254.066 196.133 249.652 191.594 241.773 191.594H224.82C224.348 191.594 224.105 191.832 224.105 192.312V213.438C224.105 213.922 224.348 214.16 224.82 214.16Z" fill="#1A428A"/>
<path d="M232.105 157.012C228.332 157.012 225.281 153.961 225.281 150.188V136.535C225.281 132.762 228.332 129.707 232.105 129.707C235.879 129.707 238.934 132.762 238.934 136.535V150.188C238.934 153.961 235.879 157.012 232.105 157.012Z" fill="#1A428A"/>
<path d="M232.105 238.934C228.332 238.934 225.281 235.879 225.281 232.105V225.281C225.281 221.508 228.332 218.453 232.105 218.453C235.879 218.453 238.934 221.508 238.934 225.281V232.105C238.934 235.879 235.879 238.934 232.105 238.934Z" fill="#1A428A"/>
<path d="M40.9609 6.82812H279.895V40.9609H40.9609V6.82812Z" fill="#6BC4E8"/>
<path d="M279.895 47.7852H40.9609C37.1875 47.7852 34.1328 44.7344 34.1328 40.9609V6.82812C34.1328 3.05469 37.1875 0 40.9609 0H279.895C283.668 0 286.719 3.05469 286.719 6.82812V40.9609C286.719 44.7344 283.668 47.7852 279.895 47.7852ZM47.7852 34.1328H273.066V13.6523H47.7852V34.1328Z" fill="#1A428A"/>
<path d="M102.398 334.508C102.398 345.816 93.2305 354.988 81.9219 354.988C70.6094 354.988 61.4414 345.816 61.4414 334.508C61.4414 323.195 70.6094 314.027 81.9219 314.027C93.2305 314.027 102.398 323.195 102.398 334.508V334.508Z" fill="#2A8EE6"/>
<path d="M81.9219 361.812C66.8594 361.812 54.6133 349.566 54.6133 334.508C54.6133 319.445 66.8594 307.199 81.9219 307.199C96.9805 307.199 109.227 319.445 109.227 334.508C109.227 349.566 96.9805 361.812 81.9219 361.812ZM81.9219 320.852C74.3945 320.852 68.2656 326.98 68.2656 334.508C68.2656 342.031 74.3945 348.16 81.9219 348.16C89.4453 348.16 95.5742 342.031 95.5742 334.508C95.5742 326.98 89.4453 320.852 81.9219 320.852V320.852Z" fill="#1A428A"/>
<path d="M286.719 170.668C282.945 170.668 279.895 167.613 279.895 163.84V136.535C279.895 132.762 282.945 129.707 286.719 129.707C290.492 129.707 293.547 132.762 293.547 136.535V163.84C293.547 167.613 290.492 170.668 286.719 170.668Z" fill="white"/>
<path d="M300.375 157.012H273.066C269.293 157.012 266.238 153.961 266.238 150.188C266.238 146.414 269.293 143.359 273.066 143.359H300.375C304.148 143.359 307.199 146.414 307.199 150.188C307.199 153.961 304.148 157.012 300.375 157.012Z" fill="white"/>
<path d="M91.5078 120.879C87.8984 120.879 84.8867 118.055 84.6914 114.414L81.9258 61.8008C81.7344 58.0352 84.6211 54.8203 88.3867 54.6211C92.2383 54.4453 95.3672 57.3203 95.5664 61.0781L98.332 113.691C98.5273 117.461 95.6406 120.672 91.875 120.871C91.7461 120.879 91.6289 120.879 91.5078 120.879Z" fill="white"/>
</g>
<defs>
<clipPath id="clip0_1_218">
<rect width="368.64" height="368.64" fill="white"/>
</clipPath>
</defs>
</svg>
