<svg width="423" height="423" viewBox="0 0 423 423" fill="none" xmlns="http://www.w3.org/2000/svg">
<g clip-path="url(#clip0_1_237)">
<path d="M409.78 218.322C409.78 327.593 321.2 416.177 211.926 416.177C102.655 416.177 14.0714 327.593 14.0714 218.322C14.0714 109.052 102.655 20.4682 211.926 20.4682C321.2 20.4682 409.78 109.052 409.78 218.322V218.322Z" fill="#1A428A"/>
<path d="M211.926 423.001C99.0673 423.001 7.24731 331.181 7.24731 218.322C7.24731 105.464 99.0673 13.6442 211.926 13.6442C324.784 13.6442 416.604 105.464 416.604 218.322C416.604 331.181 324.784 423.001 211.926 423.001ZM211.926 27.2922C106.59 27.2922 20.8954 112.987 20.8954 218.322C20.8954 323.662 106.59 409.356 211.926 409.356C317.265 409.356 402.96 323.662 402.96 218.322C402.96 112.987 317.265 27.2922 211.926 27.2922V27.2922Z" fill="#1A428A"/>
<path d="M409.78 204.678C409.78 313.949 321.2 402.532 211.926 402.532C102.655 402.532 14.0714 313.949 14.0714 204.678C14.0714 95.4038 102.655 6.82404 211.926 6.82404C321.2 6.82404 409.78 95.4038 409.78 204.678Z" fill="#2A8EE6"/>
<path d="M211.926 409.356C99.0673 409.356 7.24731 317.536 7.24731 204.678C7.24731 91.82 99.0673 0 211.926 0C324.784 0 416.604 91.82 416.604 204.678C416.604 317.536 324.784 409.356 211.926 409.356ZM211.926 13.6442C106.59 13.6442 20.8954 99.3389 20.8954 204.678C20.8954 310.014 106.59 395.708 211.926 395.708C317.265 395.708 402.96 310.014 402.96 204.678C402.96 99.3389 317.265 13.6442 211.926 13.6442V13.6442Z" fill="#1A428A"/>
<path d="M389.315 204.678C389.315 302.647 309.894 382.064 211.926 382.064C113.957 382.064 34.5396 302.647 34.5396 204.678C34.5396 106.71 113.957 27.2922 211.926 27.2922C309.894 27.2922 389.315 106.71 389.315 204.678V204.678Z" fill="#6BC4E8"/>
<path d="M211.926 388.888C110.354 388.888 27.7155 306.25 27.7155 204.678C27.7155 103.106 110.354 20.4682 211.926 20.4682C313.498 20.4682 396.136 103.106 396.136 204.678C396.136 306.25 313.498 388.888 211.926 388.888V388.888ZM211.926 34.1124C117.876 34.1124 41.3636 110.625 41.3636 204.678C41.3636 298.727 117.876 375.24 211.926 375.24C305.979 375.24 382.491 298.727 382.491 204.678C382.491 110.625 305.979 34.1124 211.926 34.1124V34.1124Z" fill="#1A428A"/>
<path d="M347.586 132.569C345.236 132.569 342.953 131.355 341.684 129.184C329.449 108.201 312.096 90.2936 291.511 77.395C288.317 75.3884 287.353 71.1839 289.352 67.9866C291.347 64.7971 295.551 63.8289 298.752 65.8278C321.208 79.8974 340.126 99.4287 353.47 122.306C355.371 125.565 354.27 129.743 351.018 131.64C349.933 132.268 348.75 132.569 347.586 132.569V132.569Z" fill="white"/>
<path d="M235.806 197.854H150.525C146.754 197.854 143.701 194.805 143.701 191.034V88.6929C143.701 84.9218 146.754 81.8728 150.525 81.8728H235.806C267.783 81.8728 293.798 107.888 293.798 139.862C293.798 171.838 267.783 197.854 235.806 197.854V197.854ZM157.345 184.21H235.806C260.256 184.21 280.15 164.316 280.15 139.862C280.15 115.411 260.256 95.517 235.806 95.517H157.345V184.21Z" fill="#1A428A"/>
<path d="M256.274 320.659H150.525C146.754 320.659 143.701 317.611 143.701 313.839V191.034C143.701 187.263 146.754 184.21 150.525 184.21H256.274C288.251 184.21 314.267 210.226 314.267 242.203V262.671C314.267 294.644 288.251 320.659 256.274 320.659ZM157.345 307.015H256.274C280.724 307.015 300.618 287.121 300.618 262.671V242.203C300.618 217.748 280.724 197.854 256.274 197.854H157.345V307.015Z" fill="#1A428A"/>
<path d="M170.989 95.517H130.057C126.289 95.517 123.233 92.4641 123.233 88.6929C123.233 84.9218 126.289 81.8728 130.057 81.8728H170.989C174.76 81.8728 177.813 84.9218 177.813 88.6929C177.813 92.4641 174.76 95.517 170.989 95.517Z" fill="#1A428A"/>
<path d="M170.989 320.66H130.057C126.289 320.66 123.233 317.611 123.233 313.839C123.233 310.068 126.289 307.015 130.057 307.015H170.989C174.76 307.015 177.813 310.068 177.813 313.839C177.813 317.611 174.76 320.66 170.989 320.66Z" fill="#1A428A"/>
<path d="M164.169 354.776C160.402 354.776 157.345 351.723 157.345 347.952V320.659C157.345 316.888 160.402 313.839 164.169 313.839C167.936 313.839 170.989 316.888 170.989 320.659V347.952C170.989 351.723 167.936 354.776 164.169 354.776V354.776Z" fill="#1A428A"/>
<path d="M184.637 354.776C180.87 354.776 177.813 351.723 177.813 347.952V313.839C177.813 310.068 180.87 307.015 184.637 307.015C188.404 307.015 191.457 310.068 191.457 313.839V347.952C191.457 351.723 188.404 354.776 184.637 354.776Z" fill="#1A428A"/>
<path d="M164.169 88.693C160.402 88.693 157.345 85.644 157.345 81.8728V54.5806C157.345 50.8094 160.402 47.7565 164.169 47.7565C167.936 47.7565 170.989 50.8094 170.989 54.5806V81.8728C170.989 85.644 167.936 88.693 164.169 88.693Z" fill="#1A428A"/>
<path d="M184.637 95.517C180.87 95.517 177.813 92.4641 177.813 88.693V54.5806C177.813 50.8094 180.87 47.7565 184.637 47.7565C188.404 47.7565 191.457 50.8094 191.457 54.5806V88.693C191.457 92.4641 188.404 95.517 184.637 95.517Z" fill="#1A428A"/>
<path d="M89.1202 293.371C85.3529 293.371 82.2961 290.318 82.2961 286.547V259.259C82.2961 255.488 85.3529 252.435 89.1202 252.435C92.8875 252.435 95.9442 255.488 95.9442 259.259V286.547C95.9442 290.318 92.8875 293.371 89.1202 293.371Z" fill="white"/>
<path d="M102.764 279.727H75.476C71.7087 279.727 68.652 276.674 68.652 272.903C68.652 269.132 71.7087 266.079 75.476 266.079H102.764C106.532 266.079 109.588 269.132 109.588 272.903C109.588 276.674 106.532 279.727 102.764 279.727Z" fill="white"/>
</g>
<defs>
<clipPath id="clip0_1_237">
<rect width="423" height="423" fill="white"/>
</clipPath>
</defs>
</svg>
