<svg width="382" height="382" viewBox="0 0 382 382" fill="none" xmlns="http://www.w3.org/2000/svg">
<g clip-path="url(#clip0_1_281)">
<path d="M205.11 163.717L116.433 216.071V320.787L191.468 375.178L293.788 320.787V209.252L205.11 163.717ZM266.504 303.733L205.11 339.034L143.716 303.733V233.124L205.11 197.823L266.504 233.124V303.733Z" fill="#1A428A"/>
<path d="M191.468 382.001C190.055 382.001 188.654 381.56 187.464 380.701L112.428 326.31C110.66 325.022 109.61 322.972 109.61 320.787V216.075C109.61 213.663 110.886 211.426 112.967 210.2L201.644 157.843C203.658 156.664 206.148 156.59 208.229 157.647L296.906 203.186C299.182 204.353 300.61 206.695 300.61 209.256V320.787C300.61 323.312 299.217 325.623 296.988 326.809L194.669 381.201C193.662 381.736 192.565 382.001 191.468 382.001V382.001ZM123.256 317.309L192.023 367.157L286.969 316.692V213.417L205.34 171.504L123.256 219.97V317.309ZM205.11 345.857C203.935 345.857 202.76 345.557 201.71 344.952L140.317 309.651C138.201 308.433 136.897 306.173 136.897 303.733V233.132C136.897 230.692 138.201 228.432 140.317 227.215L201.71 191.91C203.814 190.696 206.406 190.696 208.51 191.91L269.904 227.215C272.019 228.432 273.323 230.692 273.323 233.132V303.733C273.323 306.173 272.019 308.433 269.904 309.651L208.51 344.952C207.46 345.557 206.285 345.857 205.11 345.857V345.857ZM150.539 299.791L205.11 331.165L259.681 299.791V237.074L205.11 205.692L150.539 237.074V299.791ZM266.504 303.733H266.57H266.504Z" fill="#1A428A"/>
<path d="M191.468 163.717L102.791 216.071V320.787L191.468 373.141L280.146 320.787V216.071L191.468 163.717ZM252.858 303.733L191.468 339.034L130.075 303.733V233.124L191.468 197.823L252.858 233.124V303.733Z" fill="#D7E9FF"/>
<path d="M191.468 379.964C190.27 379.964 189.072 379.647 188.002 379.015L99.321 326.665C97.2445 325.435 95.9681 323.199 95.9681 320.787V216.075C95.9681 213.667 97.2445 211.426 99.321 210.2L188.002 157.843C190.137 156.578 192.795 156.578 194.934 157.843L283.612 210.2C285.692 211.426 286.969 213.667 286.969 216.075V320.787C286.969 323.199 285.692 325.439 283.612 326.665L194.934 379.015C193.865 379.647 192.667 379.964 191.468 379.964V379.964ZM109.61 316.891L191.468 365.221L273.323 316.891V219.97L191.468 171.637L109.61 219.97V316.891ZM191.468 345.857C190.294 345.857 189.119 345.557 188.069 344.952L126.675 309.651C124.559 308.433 123.256 306.173 123.256 303.734V233.132C123.256 230.692 124.559 228.432 126.675 227.215L188.069 191.91C190.173 190.696 192.764 190.696 194.868 191.91L256.262 227.215C258.374 228.432 259.681 230.692 259.681 233.132V303.734C259.681 306.173 258.374 308.433 256.262 309.651L194.868 344.952C193.814 345.557 192.639 345.857 191.468 345.857ZM136.897 299.791L191.468 331.165L246.039 299.791V237.074L191.468 205.692L136.897 237.074V299.791ZM252.858 303.734H252.925H252.858Z" fill="#1A428A"/>
<path d="M102.791 6.82281L14.1135 59.1807V163.896L102.791 216.25L191.468 163.896V59.1807L102.791 6.82281ZM164.181 146.843L102.791 182.144L41.3971 146.843V76.2339L102.791 40.9292L164.181 76.2339V146.843Z" fill="#D7E9FF"/>
<path d="M102.791 223.069C101.593 223.069 100.391 222.757 99.3211 222.125L10.6436 169.771C8.56713 168.545 7.29077 166.309 7.29077 163.896V59.1846C7.29077 56.7724 8.56713 54.532 10.6436 53.3064L99.3211 0.948484C101.46 -0.316161 104.118 -0.316161 106.257 0.948484L194.934 53.3064C197.015 54.5359 198.287 56.7724 198.287 59.1846V163.896C198.287 166.305 197.015 168.545 194.934 169.771L106.257 222.121C105.188 222.757 103.989 223.069 102.791 223.069ZM20.9325 159.997L102.791 208.327L184.646 159.997V63.0801L102.791 14.7464L20.9325 63.0801V159.997ZM102.791 188.963C101.616 188.963 100.441 188.662 99.3874 188.057L37.9975 152.761C35.8819 151.539 34.5743 149.283 34.5743 146.843V76.2378C34.5743 73.7983 35.8819 71.5383 37.9975 70.3205L99.3874 35.0158C101.495 33.8019 104.087 33.8019 106.191 35.0158L167.581 70.3205C169.696 71.5383 171.004 73.7983 171.004 76.2378V146.843C171.004 149.279 169.696 151.539 167.581 152.757L106.191 188.057C105.137 188.662 103.962 188.963 102.791 188.963ZM48.22 142.897L102.791 174.275L157.362 142.897V80.1801L102.791 48.7981L48.22 80.1801V142.897ZM164.181 146.843H164.247H164.181Z" fill="#1A428A"/>
<path d="M280.146 6.82281L191.468 59.1807V163.896L280.146 216.25L368.823 163.896V59.1807L280.146 6.82281ZM341.54 146.843L280.146 182.144L218.752 146.843V76.2339L280.146 40.9292L341.54 76.2339V146.843Z" fill="#2A8EE6"/>
<path d="M280.146 223.069C278.948 223.069 277.749 222.757 276.68 222.125L188.002 169.771C185.922 168.545 184.646 166.309 184.646 163.896V59.1846C184.646 56.7724 185.922 54.532 188.002 53.3064L276.68 0.948484C278.819 -0.316161 281.473 -0.316161 283.612 0.948484L372.289 53.3064C374.37 54.5359 375.646 56.7724 375.646 59.1846V163.896C375.646 166.305 374.37 168.545 372.289 169.771L283.612 222.121C282.542 222.757 281.344 223.069 280.146 223.069V223.069ZM198.287 159.997L280.146 208.327L362 159.997V63.0801L280.146 14.7425L198.287 63.0801V159.997ZM280.146 188.963C278.971 188.963 277.796 188.662 276.746 188.057L215.352 152.761C213.237 151.539 211.933 149.283 211.933 146.843V76.2378C211.933 73.7983 213.237 71.5383 215.352 70.3205L276.746 35.0158C278.85 33.8019 281.442 33.8019 283.546 35.0158L344.939 70.3205C347.055 71.5383 348.359 73.7983 348.359 76.2378V146.843C348.359 149.279 347.055 151.539 344.939 152.757L283.546 188.057C282.496 188.662 281.321 188.963 280.146 188.963V188.963ZM225.575 142.897L280.146 174.275L334.717 142.897V80.1801L280.146 48.7981L225.575 80.1801V142.897ZM341.54 146.843H341.606H341.54Z" fill="#1A428A"/>
<path d="M334.717 266.036C330.95 266.036 327.894 262.984 327.894 259.213V231.93C327.894 228.159 330.95 225.107 334.717 225.107C338.483 225.107 341.54 228.159 341.54 231.93V259.213C341.54 262.984 338.483 266.036 334.717 266.036Z" fill="#1A428A"/>
<path d="M348.359 252.394H321.075C317.308 252.394 314.252 249.342 314.252 245.572C314.252 241.801 317.308 238.753 321.075 238.753H348.359C352.125 238.753 355.181 241.801 355.181 245.572C355.181 249.342 352.125 252.394 348.359 252.394Z" fill="#1A428A"/>
<path d="M55.0389 293.324C51.2723 293.324 48.22 290.271 48.22 286.501V259.213C48.22 255.443 51.2723 252.394 55.0389 252.394C58.8055 252.394 61.8617 255.443 61.8617 259.213V286.501C61.8617 290.271 58.8055 293.324 55.0389 293.324V293.324Z" fill="#1A428A"/>
<path d="M68.6846 279.678H41.3972C37.6306 279.678 34.5743 276.629 34.5743 272.859C34.5743 269.088 37.6306 266.036 41.3972 266.036H68.6846C72.4513 266.036 75.5036 269.088 75.5036 272.859C75.5036 276.629 72.4513 279.678 68.6846 279.678Z" fill="#1A428A"/>
<path d="M102.791 129.611C99.0244 129.611 95.9681 126.558 95.9681 122.788V95.5003C95.9681 91.7298 99.0244 88.6813 102.791 88.6813C106.558 88.6813 109.61 91.7298 109.61 95.5003V122.788C109.61 126.558 106.558 129.611 102.791 129.611Z" fill="#1A428A"/>
<path d="M116.433 115.965H89.1454C85.3787 115.965 82.3264 112.916 82.3264 109.146C82.3264 105.375 85.3787 102.323 89.1454 102.323H116.433C120.199 102.323 123.256 105.375 123.256 109.146C123.256 112.916 120.199 115.965 116.433 115.965Z" fill="#1A428A"/>
<path d="M205.11 150.071C201.344 150.071 198.287 147.023 198.287 143.252V81.8585C198.287 78.088 201.344 75.0396 205.11 75.0396C208.877 75.0396 211.933 78.088 211.933 81.8585V143.252C211.933 147.023 208.877 150.071 205.11 150.071Z" fill="white"/>
</g>
<defs>
<clipPath id="clip0_1_281">
<rect width="382" height="382" fill="white"/>
</clipPath>
</defs>
</svg>
