<svg width="368" height="368" viewBox="0 0 368 368" fill="none" xmlns="http://www.w3.org/2000/svg">
<g clip-path="url(#clip0_1_298)">
<path d="M6.81628 14.4433H143.111V150.738H6.81628V14.4433Z" fill="#6BC4E8"/>
<path d="M143.11 157.554H6.81627C3.04938 157.554 0 154.504 0 150.738V14.4433C0 10.6765 3.04938 7.62708 6.81627 7.62708H143.11C146.873 7.62708 149.927 10.6765 149.927 14.4433V150.738C149.927 154.504 146.873 157.554 143.11 157.554ZM13.6286 143.921H136.298V21.2557H13.6286V143.921Z" fill="#1A428A"/>
<path d="M95.4083 82.5904C95.4083 93.8794 86.2523 103.035 74.9633 103.035C63.6705 103.035 54.5184 93.8794 54.5184 82.5904C54.5184 71.2976 63.6705 62.1455 74.9633 62.1455C86.2523 62.1455 95.4083 71.2976 95.4083 82.5904Z" fill="#D7E9FF"/>
<path d="M74.9633 109.848C59.9348 109.848 47.7021 97.6229 47.7021 82.5904C47.7021 67.558 59.9348 55.3292 74.9633 55.3292C89.9919 55.3292 102.221 67.558 102.221 82.5904C102.221 97.6229 89.9919 109.848 74.9633 109.848ZM74.9633 68.9618C67.4452 68.9618 61.3347 75.0761 61.3347 82.5904C61.3347 90.1047 67.4452 96.219 74.9633 96.219C82.4815 96.219 88.592 90.1047 88.592 82.5904C88.592 75.0761 82.4815 68.9618 74.9633 68.9618Z" fill="#1A428A"/>
<path fill-rule="evenodd" clip-rule="evenodd" d="M211.258 14.4433H347.556V150.738H211.258V14.4433Z" fill="#288EEA"/>
<path d="M347.556 157.554H211.258C207.495 157.554 204.445 154.504 204.445 150.738V14.4433C204.445 10.6765 207.495 7.62708 211.258 7.62708H347.556C351.319 7.62708 354.372 10.6765 354.372 14.4433V150.738C354.372 154.504 351.319 157.554 347.556 157.554ZM218.074 143.921H340.739V21.2557H218.074V143.921Z" fill="#1A428A"/>
<path d="M299.853 82.5904C299.853 93.8794 290.697 103.035 279.409 103.035C268.116 103.035 258.964 93.8794 258.964 82.5904C258.964 71.2976 268.116 62.1455 279.409 62.1455C290.697 62.1455 299.853 71.2976 299.853 82.5904Z" fill="#D7E9FF"/>
<path d="M279.409 109.848C264.376 109.848 252.147 97.6229 252.147 82.5904C252.147 67.558 264.376 55.3292 279.409 55.3292C294.437 55.3292 306.666 67.558 306.666 82.5904C306.666 97.6229 294.437 109.848 279.409 109.848ZM279.409 68.9618C271.89 68.9618 265.776 75.0761 265.776 82.5904C265.776 90.1047 271.89 96.219 279.409 96.219C286.923 96.219 293.037 90.1047 293.037 82.5904C293.037 75.0761 286.923 68.9618 279.409 68.9618V68.9618Z" fill="#1A428A"/>
<path fill-rule="evenodd" clip-rule="evenodd" d="M6.81628 218.885H143.111V355.183H6.81628V218.885Z" fill="#288EEA"/>
<path d="M143.11 361.999H6.81627C3.04938 361.999 0 358.95 0 355.183V218.885C0 215.118 3.04938 212.072 6.81627 212.072H143.11C146.873 212.072 149.927 215.118 149.927 218.885V355.183C149.927 358.95 146.873 361.999 143.11 361.999ZM13.6286 348.366H136.298V225.701H13.6286V348.366Z" fill="#1A428A"/>
<path d="M95.4083 287.036C95.4083 298.325 86.2523 307.477 74.9633 307.477C63.6705 307.477 54.5184 298.325 54.5184 287.036C54.5184 275.743 63.6705 266.591 74.9633 266.591C86.2523 266.591 95.4083 275.743 95.4083 287.036V287.036Z" fill="#D7E9FF"/>
<path d="M74.9633 314.293C59.9348 314.293 47.7021 302.068 47.7021 287.036C47.7021 271.999 59.9348 259.774 74.9633 259.774C89.9919 259.774 102.221 271.999 102.221 287.036C102.221 302.068 89.9919 314.293 74.9633 314.293ZM74.9633 273.403C67.4452 273.403 61.3347 279.521 61.3347 287.036C61.3347 294.546 67.4452 300.664 74.9633 300.664C82.4815 300.664 88.592 294.546 88.592 287.036C88.592 279.521 82.4815 273.403 74.9633 273.403Z" fill="#1A428A"/>
<path d="M211.258 218.885H347.556V355.183H211.258V218.885Z" fill="#6BC4E8"/>
<path d="M347.556 361.999H211.258C207.495 361.999 204.445 358.95 204.445 355.183V218.885C204.445 215.118 207.495 212.072 211.258 212.072H347.556C351.319 212.072 354.372 215.118 354.372 218.885V355.183C354.372 358.95 351.319 361.999 347.556 361.999ZM218.074 348.366H340.739V225.701H218.074V348.366Z" fill="#1A428A"/>
<path d="M299.853 287.036C299.853 298.325 290.697 307.477 279.409 307.477C268.116 307.477 258.964 298.325 258.964 287.036C258.964 275.743 268.116 266.591 279.409 266.591C290.697 266.591 299.853 275.743 299.853 287.036V287.036Z" fill="#D7E9FF"/>
<path d="M279.409 314.293C264.376 314.293 252.147 302.068 252.147 287.036C252.147 271.999 264.376 259.775 279.409 259.775C294.437 259.775 306.666 271.999 306.666 287.036C306.666 302.068 294.437 314.293 279.409 314.293ZM279.409 273.403C271.89 273.403 265.776 279.521 265.776 287.036C265.776 294.546 271.89 300.664 279.409 300.664C286.923 300.664 293.037 294.546 293.037 287.036C293.037 279.521 286.923 273.403 279.409 273.403V273.403Z" fill="#1A428A"/>
<path d="M88.5921 205.256H40.8899C37.1269 205.256 34.0736 202.207 34.0736 198.44V130.293C34.0736 126.526 37.1269 123.48 40.8899 123.48H88.5921C92.3551 123.48 95.4083 126.526 95.4083 130.293V198.44C95.4083 202.207 92.3551 205.256 88.5921 205.256ZM47.7023 191.627H81.7797V137.109H47.7023V191.627Z" fill="#1A428A"/>
<path d="M109.037 246.146H61.3348C57.5718 246.146 54.5186 243.096 54.5186 239.33V171.182C54.5186 167.416 57.5718 164.366 61.3348 164.366H109.037C112.8 164.366 115.853 167.416 115.853 171.182V239.33C115.853 243.096 112.8 246.146 109.037 246.146ZM68.1472 232.517H102.221V177.999H68.1472V232.517Z" fill="#1A428A"/>
<path d="M293.037 205.256H245.335C241.568 205.256 238.519 202.207 238.519 198.44V130.293C238.519 126.526 241.568 123.48 245.335 123.48H293.037C296.8 123.48 299.854 126.526 299.854 130.293V198.44C299.854 202.207 296.8 205.256 293.037 205.256ZM252.147 191.627H286.221V137.109H252.147V191.627Z" fill="#1A428A"/>
<path d="M313.482 246.146H265.776C262.013 246.146 258.964 243.096 258.964 239.33V171.182C258.964 167.416 262.013 164.366 265.776 164.366H313.482C317.245 164.366 320.295 167.416 320.295 171.182V239.33C320.295 243.096 317.245 246.146 313.482 246.146ZM272.592 232.517H306.666V177.999H272.592V232.517Z" fill="#1A428A"/>
<path d="M143.111 14.4434H156.739V150.738H143.111V14.4434Z" fill="#1A428A"/>
<path d="M156.739 157.554H143.111C139.348 157.554 136.298 154.504 136.298 150.738V14.4433C136.298 10.6765 139.348 7.62708 143.111 7.62708H156.739C160.506 7.62708 163.556 10.6765 163.556 14.4433V150.738C163.556 154.504 160.506 157.554 156.739 157.554Z" fill="#1A428A"/>
<path d="M347.556 14.4434H361.184V150.738H347.556V14.4434Z" fill="#1A428A"/>
<path d="M361.184 157.554H347.556C343.793 157.554 340.74 154.504 340.74 150.738V14.4433C340.74 10.6765 343.793 7.62708 347.556 7.62708H361.184C364.947 7.62708 368.001 10.6765 368.001 14.4433V150.738C368.001 154.504 364.947 157.554 361.184 157.554Z" fill="#1A428A"/>
<path d="M143.111 218.885H156.739V355.183H143.111V218.885Z" fill="#1A428A"/>
<path d="M156.739 361.999H143.111C139.348 361.999 136.298 358.95 136.298 355.183V218.885C136.298 215.118 139.348 212.072 143.111 212.072H156.739C160.506 212.072 163.556 215.118 163.556 218.885V355.183C163.556 358.95 160.506 361.999 156.739 361.999Z" fill="#1A428A"/>
<path d="M347.556 218.885H361.184V355.183H347.556V218.885Z" fill="#1A428A"/>
<path d="M361.184 361.999H347.556C343.793 361.999 340.74 358.95 340.74 355.183V218.885C340.74 215.118 343.793 212.072 347.556 212.072H361.184C364.947 212.072 368.001 215.118 368.001 218.885V355.183C368.001 358.95 364.947 361.999 361.184 361.999Z" fill="#1A428A"/>
<path d="M136.298 287.036C132.531 287.036 129.482 283.986 129.482 280.219V252.958C129.482 249.191 132.531 246.146 136.298 246.146C140.061 246.146 143.11 249.191 143.11 252.958V280.219C143.11 283.986 140.061 287.036 136.298 287.036Z" fill="white"/>
<path d="M149.927 273.403H122.666C118.903 273.403 115.853 270.358 115.853 266.591C115.853 262.824 118.903 259.774 122.666 259.774H149.927C153.69 259.774 156.739 262.824 156.739 266.591C156.739 270.358 153.69 273.403 149.927 273.403Z" fill="white"/>
<path d="M231.703 82.5904C227.94 82.5904 224.89 79.541 224.89 75.7742V34.8843C224.89 31.1174 227.94 28.072 231.703 28.072C235.465 28.072 238.519 31.1174 238.519 34.8843V75.7742C238.519 79.541 235.465 82.5904 231.703 82.5904Z" fill="white"/>
</g>
<defs>
<clipPath id="clip0_1_298">
<rect width="368" height="368" fill="white"/>
</clipPath>
</defs>
</svg>
