<svg width="389" height="389" viewBox="0 0 389 389" fill="none" xmlns="http://www.w3.org/2000/svg">
<g clip-path="url(#clip0_1_331)">
<path d="M95.4956 6.82599H314.264V382.174H54.9301V47.7742L95.4956 6.82599Z" fill="#6BC4E8"/>
<path d="M314.264 389H54.9301C51.1618 389 48.1041 385.946 48.1041 382.174V47.7742C48.1041 45.974 48.8148 44.248 50.0801 42.9671L90.6456 2.02281C91.9304 0.726336 93.672 0 95.4957 0H314.264C318.032 0 321.09 3.05374 321.09 6.826V382.174C321.09 385.946 318.032 389 314.264 389ZM61.7561 375.352H307.438V13.6481H98.3385L61.7561 50.578V375.352Z" fill="#1A428A"/>
<path fill-rule="evenodd" clip-rule="evenodd" d="M334.738 382.174H314.264V6.82599L334.738 20.4741V382.174Z" fill="#1A428A"/>
<path d="M334.738 389H314.264C310.495 389 307.438 385.947 307.438 382.174V6.82599C307.438 4.30724 308.824 1.99546 311.042 0.808329C313.252 -0.386613 315.947 -0.246031 318.047 1.14807L338.522 14.7962C340.423 16.0653 341.56 18.1975 341.56 20.4741V382.174C341.56 385.947 338.506 389 334.738 389V389ZM321.09 375.352H327.912V24.1292L321.09 19.5759V375.352Z" fill="#1A428A"/>
<path d="M252.841 68.2444H102.7C98.932 68.2444 95.8783 65.1946 95.8783 61.4223C95.8783 57.6501 98.932 54.5963 102.7 54.5963H252.841C256.61 54.5963 259.667 57.6501 259.667 61.4223C259.667 65.1946 256.61 68.2444 252.841 68.2444Z" fill="#1A428A"/>
<path d="M252.841 136.493H102.7C98.932 136.493 95.8783 133.439 95.8783 129.667C95.8783 125.894 98.932 122.845 102.7 122.845H252.841C256.61 122.845 259.667 125.894 259.667 129.667C259.667 133.439 256.61 136.493 252.841 136.493Z" fill="#1A428A"/>
<path d="M164.123 102.371H102.7C98.932 102.371 95.8783 99.3168 95.8783 95.5445C95.8783 91.7722 98.932 88.7185 102.7 88.7185H164.123C167.891 88.7185 170.949 91.7722 170.949 95.5445C170.949 99.3168 167.891 102.371 164.123 102.371Z" fill="#1A428A"/>
<path d="M164.123 170.615H102.7C98.932 170.615 95.8783 167.561 95.8783 163.789C95.8783 160.017 98.932 156.967 102.7 156.967H164.123C167.891 156.967 170.949 160.017 170.949 163.789C170.949 167.561 167.891 170.615 164.123 170.615Z" fill="#1A428A"/>
<path d="M252.841 102.371H191.423C187.655 102.371 184.597 99.3168 184.597 95.5445C184.597 91.7722 187.655 88.7185 191.423 88.7185H252.841C256.61 88.7185 259.667 91.7722 259.667 95.5445C259.667 99.3168 256.61 102.371 252.841 102.371Z" fill="#1A428A"/>
<path d="M54.9301 218.385H232.367V327.578H54.9301V218.385Z" fill="#D7E9FF"/>
<path d="M232.367 334.404H54.9301C51.1618 334.404 48.1041 331.35 48.1041 327.578V218.385C48.1041 214.613 51.1618 211.563 54.9301 211.563H232.367C236.139 211.563 239.193 214.613 239.193 218.385V327.578C239.193 331.35 236.139 334.404 232.367 334.404ZM61.7561 320.756H225.545V225.211H61.7561V320.756Z" fill="#1A428A"/>
<path d="M95.7181 244.924C98.0924 244.924 100.322 245.232 102.415 245.846C104.508 246.459 106.336 247.376 107.894 248.602C109.452 249.829 110.678 251.356 111.573 253.183C112.463 255.011 112.912 257.135 112.912 259.56C112.912 260.814 112.744 261.954 112.412 262.981C112.08 264.008 111.651 264.933 111.131 265.757C110.612 266.585 110.038 267.304 109.413 267.921C108.784 268.534 108.179 269.057 107.593 269.498C107.008 269.94 106.488 270.287 106.035 270.537C105.582 270.791 105.262 270.943 105.075 270.998C106.676 271.451 108.023 272.029 109.112 272.74C110.206 273.446 111.12 274.22 111.854 275.059C112.584 275.899 113.158 276.762 113.572 277.656C113.986 278.546 114.29 279.413 114.494 280.253C114.693 281.092 114.814 281.866 114.853 282.572C114.892 283.279 114.911 283.845 114.911 284.271C114.911 286.352 114.658 288.184 114.154 289.769C113.646 291.359 112.978 292.729 112.154 293.889C111.327 295.049 110.382 296.037 109.312 296.849C108.245 297.661 107.168 298.321 106.074 298.829C103.462 300.055 100.517 300.746 97.2372 300.907H84.1202C82.6011 300.907 81.4296 300.649 80.6017 300.126C79.7778 299.606 79.1764 298.915 78.8015 298.048C78.4305 297.181 78.208 296.201 78.1416 295.108C78.0752 294.014 78.04 292.882 78.04 291.71V254.042C78.04 252.894 78.0752 251.777 78.1416 250.68C78.208 249.587 78.4305 248.614 78.8015 247.763C79.1764 246.908 79.7739 246.224 80.6017 245.705C81.4296 245.182 82.6011 244.924 84.1202 244.924H95.7181ZM90.2003 254.362V267.96H95.3198C96.464 267.905 97.491 267.636 98.397 267.159C98.7719 266.972 99.1468 266.718 99.5177 266.398C99.8887 266.081 100.225 265.699 100.517 265.257C100.81 264.82 101.045 264.293 101.216 263.68C101.388 263.067 101.474 262.36 101.474 261.559C101.474 260.653 101.38 259.861 101.197 259.181C101.009 258.498 100.763 257.916 100.455 257.42C100.146 256.928 99.8028 256.51 99.4162 256.163C99.0296 255.815 98.6352 255.522 98.2369 255.28C97.2802 254.776 96.1985 254.468 94.9996 254.362H90.2003ZM90.2003 276.438V291.472H96.0384C97.2919 291.417 98.4126 291.124 99.3967 290.589C99.8223 290.379 100.236 290.097 100.638 289.75C101.037 289.406 101.396 288.973 101.716 288.449C102.04 287.93 102.29 287.333 102.478 286.649C102.661 285.97 102.755 285.177 102.755 284.271C102.755 283.283 102.657 282.424 102.458 281.69C102.255 280.956 101.99 280.319 101.658 279.772C101.322 279.226 100.943 278.757 100.517 278.371C100.092 277.988 99.6622 277.672 99.2366 277.433C98.1978 276.871 97.0224 276.539 95.7181 276.434H90.2003V276.438Z" fill="#1A428A"/>
<path d="M154.02 284.353H154.977V251.164C154.977 250.313 155.032 249.505 155.137 248.747C155.247 247.985 155.477 247.326 155.84 246.767C156.199 246.205 156.731 245.76 157.437 245.428C158.148 245.096 159.109 244.928 160.339 244.928C161.698 244.928 162.772 245.096 163.557 245.428C164.341 245.76 164.939 246.205 165.337 246.767C165.736 247.326 165.989 247.985 166.095 248.747C166.2 249.505 166.255 250.313 166.255 251.164V291.714C166.255 292.886 166.224 294.018 166.153 295.111C166.087 296.205 165.876 297.185 165.517 298.052C165.154 298.919 164.568 299.61 163.756 300.129C162.943 300.653 161.803 300.91 160.339 300.91H155.059C153.806 300.91 152.759 300.664 151.92 300.169C151.08 299.676 150.381 299.075 149.823 298.368C149.26 297.665 148.815 296.923 148.483 296.15C148.147 295.377 147.89 294.725 147.702 294.19L135.624 261.481H134.667V294.67C134.667 295.525 134.612 296.33 134.507 297.091C134.398 297.849 134.167 298.509 133.808 299.071C133.449 299.63 132.914 300.075 132.207 300.411C131.5 300.743 130.536 300.91 129.309 300.91C127.923 300.91 126.83 300.743 126.029 300.411C125.229 300.075 124.631 299.63 124.229 299.071C123.827 298.509 123.577 297.849 123.471 297.091C123.362 296.33 123.307 295.525 123.307 294.67V254.124C123.307 252.976 123.343 251.851 123.409 250.746C123.475 249.641 123.698 248.653 124.069 247.786C124.444 246.923 125.037 246.228 125.85 245.705C126.662 245.186 127.814 244.928 129.309 244.928H134.585C135.921 244.928 137.006 245.186 137.846 245.705C138.685 246.228 139.373 246.794 139.904 247.408C140.493 248.126 140.958 248.95 141.302 249.883L154.02 284.353Z" fill="#1A428A"/>
<path d="M194.246 244.924C196.62 244.924 198.85 245.232 200.943 245.846C203.04 246.459 204.864 247.376 206.422 248.602C207.984 249.829 209.21 251.356 210.101 253.183C210.995 255.011 211.44 257.135 211.44 259.56C211.44 260.814 211.272 261.954 210.94 262.981C210.608 264.008 210.183 264.933 209.663 265.757C209.14 266.585 208.57 267.304 207.941 267.921C207.316 268.534 206.707 269.057 206.121 269.498C205.54 269.94 205.016 270.287 204.563 270.537C204.11 270.791 203.79 270.943 203.607 270.998C205.204 271.451 206.551 272.029 207.644 272.74C208.734 273.446 209.652 274.22 210.382 275.059C211.112 275.899 211.69 276.762 212.1 277.656C212.514 278.546 212.822 279.413 213.022 280.253C213.221 281.092 213.342 281.866 213.381 282.572C213.42 283.279 213.439 283.845 213.439 284.271C213.439 286.352 213.19 288.184 212.682 289.769C212.174 291.359 211.506 292.729 210.683 293.889C209.855 295.049 208.91 296.037 207.844 296.849C206.777 297.661 205.696 298.321 204.606 298.829C201.994 300.055 199.046 300.746 195.765 300.907H182.648C181.129 300.907 179.958 300.649 179.134 300.126C178.306 299.606 177.704 298.915 177.334 298.048C176.959 297.181 176.74 296.201 176.674 295.108C176.607 294.014 176.572 292.882 176.572 291.71V254.042C176.572 252.894 176.607 251.777 176.674 250.68C176.74 249.587 176.959 248.614 177.334 247.763C177.704 246.908 178.306 246.224 179.134 245.705C179.958 245.182 181.133 244.924 182.648 244.924H194.246ZM188.728 254.362V267.96H193.848C194.996 267.905 196.019 267.636 196.929 267.159C197.3 266.972 197.675 266.718 198.046 266.398C198.417 266.081 198.753 265.699 199.046 265.257C199.338 264.82 199.573 264.293 199.745 263.68C199.916 263.067 200.006 262.36 200.006 261.559C200.006 260.653 199.912 259.861 199.725 259.181C199.538 258.498 199.292 257.916 198.983 257.42C198.678 256.928 198.331 256.51 197.944 256.163C197.562 255.815 197.167 255.522 196.765 255.28C195.808 254.776 194.727 254.468 193.528 254.362H188.728ZM188.728 276.438V291.472H194.566C195.82 291.417 196.941 291.124 197.929 290.589C198.354 290.379 198.768 290.097 199.167 289.75C199.569 289.406 199.928 288.973 200.248 288.449C200.568 287.93 200.822 287.333 201.006 286.649C201.193 285.97 201.287 285.177 201.287 284.271C201.287 283.283 201.185 282.424 200.986 281.69C200.787 280.956 200.522 280.319 200.186 279.772C199.85 279.226 199.471 278.757 199.046 278.371C198.62 277.988 198.194 277.672 197.765 277.433C196.726 276.871 195.554 276.539 194.25 276.434H188.728V276.438Z" fill="#1A428A"/>
<path d="M314.264 334.404C310.495 334.404 307.438 331.35 307.438 327.578V300.282C307.438 296.509 310.495 293.456 314.264 293.456C318.032 293.456 321.09 296.509 321.09 300.282V327.578C321.09 331.35 318.032 334.404 314.264 334.404Z" fill="white"/>
<path d="M327.912 320.756H300.616C296.847 320.756 293.79 317.702 293.79 313.93C293.79 310.157 296.847 307.104 300.616 307.104H327.912C331.68 307.104 334.738 310.157 334.738 313.93C334.738 317.702 331.68 320.756 327.912 320.756Z" fill="white"/>
<path d="M293.79 34.1222H239.193C235.425 34.1222 232.367 31.0724 232.367 27.3001C232.367 23.5279 235.425 20.4741 239.193 20.4741H293.79C297.558 20.4741 300.616 23.5279 300.616 27.3001C300.616 31.0724 297.558 34.1222 293.79 34.1222Z" fill="white"/>
</g>
<defs>
<clipPath id="clip0_1_331">
<rect width="389" height="389" fill="white"/>
</clipPath>
</defs>
</svg>
