<svg width="409" height="409" viewBox="0 0 409 409" fill="none" xmlns="http://www.w3.org/2000/svg">
<g clip-path="url(#clip0_1_375)">
<path d="M330.796 357.756H78.2055C57.6029 357.756 40.9009 341.054 40.9009 320.451V153.255H368.101V320.451C368.101 341.054 351.398 357.756 330.796 357.756Z" fill="#1A428A"/>
<path d="M330.796 364.574H78.2055C53.8779 364.574 34.0828 344.783 34.0828 320.451V153.255C34.0828 149.487 37.1369 146.437 40.9009 146.437H368.101C371.865 146.437 374.915 149.487 374.915 153.255V320.451C374.915 344.783 355.124 364.574 330.796 364.574ZM47.7151 160.073V320.451C47.7151 337.258 61.3943 350.938 78.2055 350.938H330.796C347.607 350.938 361.286 337.258 361.286 320.451V160.073H47.7151Z" fill="#1A428A"/>
<path d="M330.796 337.305H78.2055C57.6029 337.305 40.9009 320.603 40.9009 300.001V139.622H368.101V300.001C368.101 320.603 351.398 337.305 330.796 337.305Z" fill="#6BC4E8"/>
<path d="M330.796 344.123H78.2055C53.8779 344.123 34.0828 324.332 34.0828 300.001V139.623C34.0828 135.855 37.1369 132.804 40.9009 132.804H368.101C371.865 132.804 374.915 135.855 374.915 139.623V300.001C374.915 324.332 355.124 344.123 330.796 344.123ZM47.7151 146.437V300.001C47.7151 316.808 61.3943 330.487 78.2055 330.487H330.796C347.607 330.487 361.286 316.808 361.286 300.001V146.437H47.7151Z" fill="#1A428A"/>
<path d="M265.848 316.855C265.848 346.975 241.435 371.388 211.315 371.388C181.199 371.388 156.782 346.975 156.782 316.855C156.782 286.739 181.199 262.321 211.315 262.321C241.435 262.321 265.848 286.739 265.848 316.855V316.855Z" fill="#D7E9FF"/>
<path d="M211.315 378.206C177.49 378.206 149.968 350.688 149.968 316.855C149.968 283.025 177.49 255.503 211.315 255.503C245.144 255.503 272.666 283.025 272.666 316.855C272.666 350.688 245.144 378.206 211.315 378.206V378.206ZM211.315 269.14C185.006 269.14 163.6 290.546 163.6 316.855C163.6 343.164 185.006 364.574 211.315 364.574C237.628 364.574 259.034 343.164 259.034 316.855C259.034 290.546 237.628 269.14 211.315 269.14V269.14Z" fill="#1A428A"/>
<path d="M191.664 285.061C191.664 284.496 192.035 284.121 192.596 284.121H216.311C229.803 284.121 236.177 290.865 236.177 301.085C236.177 308.301 232.803 312.42 228.774 314.577V314.764C232.709 316.27 237.3 321.329 237.3 329.102C237.3 341.76 229.335 347.848 215.371 347.848H192.596C192.035 347.848 191.664 347.474 191.664 346.908V285.061ZM216.027 310.645C221.651 310.645 225.115 307.271 225.115 302.302C225.115 297.243 221.651 293.869 216.027 293.869H203.28C202.905 293.869 202.718 294.052 202.718 294.427V310.083C202.718 310.458 202.905 310.645 203.28 310.645H216.027ZM203.28 338.105H216.588C222.779 338.105 226.242 334.544 226.242 329.196C226.242 323.95 222.779 320.389 216.588 320.389H203.28C202.905 320.389 202.718 320.576 202.718 320.954V337.535C202.718 337.918 202.905 338.105 203.28 338.105Z" fill="#1A428A"/>
<path d="M207.91 292.995C204.142 292.995 201.092 289.949 201.092 286.181V279.363C201.092 275.595 204.142 272.549 207.91 272.549C211.674 272.549 214.724 275.595 214.724 279.363V286.181C214.724 289.949 211.674 292.995 207.91 292.995Z" fill="#1A428A"/>
<path d="M207.91 361.165C204.142 361.165 201.092 358.114 201.092 354.347V347.528C201.092 343.761 204.142 340.714 207.91 340.714C211.674 340.714 214.724 343.761 214.724 347.528V354.347C214.724 358.114 211.674 361.165 207.91 361.165Z" fill="#1A428A"/>
<path d="M6.81812 120.857V78.2711H402.183V120.857C402.183 146.281 381.573 166.887 356.153 166.887H52.8443C27.4246 166.887 6.81812 146.281 6.81812 120.857V120.857Z" fill="#D7E9FF"/>
<path d="M356.153 173.705H52.8444C23.7035 173.705 0 150.002 0 120.857V78.2711C0 74.5032 3.05021 71.4569 6.81812 71.4569H402.183C405.947 71.4569 409.002 74.5032 409.002 78.2711V120.857C409.002 150.002 385.294 173.705 356.153 173.705V173.705ZM13.6323 85.0893V120.857C13.6323 142.478 31.2237 160.073 52.8444 160.073H356.153C377.778 160.073 395.365 142.478 395.365 120.857V85.0893H13.6323Z" fill="#1A428A"/>
<path d="M265.848 85.0892H143.149C139.385 85.0892 136.335 82.039 136.335 78.2711V62.2088C136.335 44.7539 150.533 30.556 167.988 30.556H241.014C258.469 30.556 272.666 44.7539 272.666 62.2088V78.2711C272.666 82.039 269.616 85.0892 265.848 85.0892ZM149.968 71.4569H259.034V62.2088C259.034 52.2702 250.948 44.1883 241.014 44.1883H167.988C158.049 44.1883 149.968 52.2702 149.968 62.2088V71.4569Z" fill="#1A428A"/>
<path d="M122.699 207.788C111.407 207.788 102.249 198.634 102.249 187.338V139.622H143.149V187.338C143.149 198.634 133.995 207.788 122.699 207.788Z" fill="#D7E9FF"/>
<path d="M122.699 214.606C107.666 214.606 95.4343 202.374 95.4343 187.338V139.623C95.4343 135.855 98.4845 132.804 102.249 132.804H143.149C146.913 132.804 149.968 135.855 149.968 139.623V187.338C149.968 202.374 137.736 214.606 122.699 214.606ZM109.067 146.437V187.338C109.067 194.854 115.183 200.97 122.699 200.97C130.219 200.97 136.335 194.854 136.335 187.338V146.437H109.067Z" fill="#1A428A"/>
<path d="M293.117 207.788C281.825 207.788 272.667 198.634 272.667 187.338V139.622H313.567V187.338C313.567 198.634 304.409 207.788 293.117 207.788Z" fill="#D7E9FF"/>
<path d="M293.117 214.606C278.084 214.606 265.848 202.374 265.848 187.338V139.623C265.848 135.855 268.903 132.804 272.667 132.804H313.567C317.331 132.804 320.382 135.855 320.382 139.623V187.338C320.382 202.374 308.15 214.606 293.117 214.606ZM279.485 146.437V187.338C279.485 194.854 285.597 200.97 293.117 200.97C300.637 200.97 306.749 194.854 306.749 187.338V146.437H279.485Z" fill="#1A428A"/>
<path d="M109.067 350.938C105.303 350.938 102.249 347.891 102.249 344.123V316.855C102.249 313.087 105.303 310.037 109.067 310.037C112.831 310.037 115.885 313.087 115.885 316.855V344.123C115.885 347.891 112.831 350.938 109.067 350.938Z" fill="white"/>
<path d="M122.699 337.305H95.4343C91.6703 337.305 88.6162 334.255 88.6162 330.487C88.6162 326.719 91.6703 323.673 95.4343 323.673H122.699C126.463 323.673 129.517 326.719 129.517 330.487C129.517 334.255 126.463 337.305 122.699 337.305Z" fill="white"/>
<path d="M115.885 105.54H27.2686C23.5007 105.54 20.4504 102.489 20.4504 98.7216C20.4504 94.9537 23.5007 91.9034 27.2686 91.9034H115.885C119.649 91.9034 122.699 94.9537 122.699 98.7216C122.699 102.489 119.649 105.54 115.885 105.54Z" fill="white"/>
</g>
<defs>
<clipPath id="clip0_1_375">
<rect width="409" height="409" fill="white"/>
</clipPath>
</defs>
</svg>
