<svg width="409" height="409" viewBox="0 0 409 409" fill="none" xmlns="http://www.w3.org/2000/svg">
<g clip-path="url(#clip0_1_396)">
<path d="M6.81812 143.617H402.183V341.299H6.81812V143.617Z" fill="#6BC4E8"/>
<path d="M402.183 348.117H6.81812C3.05021 348.117 0 345.067 0 341.299V143.617C0 139.849 3.05021 136.799 6.81812 136.799H402.183C405.951 136.799 409.002 139.849 409.002 143.617V341.299C409.002 345.067 405.951 348.117 402.183 348.117ZM13.6323 334.481H395.365V150.431H13.6323V334.481Z" fill="#1A428A"/>
<path d="M6.81812 341.299H402.183V368.568H6.81812V341.299Z" fill="#1A428A"/>
<path d="M402.183 375.382H6.81812C3.05021 375.382 0 372.336 0 368.568V341.299C0 337.531 3.05021 334.481 6.81812 334.481H402.183C405.951 334.481 409.002 337.531 409.002 341.299V368.568C409.002 372.336 405.951 375.382 402.183 375.382V375.382ZM13.6323 361.75H395.365V348.117H13.6323V361.75Z" fill="#1A428A"/>
<path d="M402.183 157.249L204.501 184.518L6.81812 157.249V82.2653H402.183V157.249Z" fill="#2A8EE6"/>
<path d="M204.501 191.332C204.185 191.332 203.881 191.312 203.569 191.266L5.8859 164.001C2.51194 163.541 0 160.65 0 157.249V82.2653C0 78.4974 3.05021 75.451 6.81812 75.451H402.183C405.951 75.451 409.002 78.4974 409.002 82.2653V157.249C409.002 160.65 406.49 163.541 403.116 164.001L205.433 191.266C205.117 191.312 204.813 191.332 204.501 191.332V191.332ZM13.6323 151.312L204.501 177.633L395.365 151.312V89.0834H13.6323V151.312ZM402.183 157.249H402.25H402.183Z" fill="#1A428A"/>
<path d="M265.848 89.0834H143.149C139.382 89.0834 136.335 86.0332 136.335 82.2653V66.2029C136.335 48.748 150.533 34.5501 167.988 34.5501H241.014C258.469 34.5501 272.666 48.748 272.666 66.2029V82.2653C272.666 86.0332 269.616 89.0834 265.848 89.0834ZM149.968 75.451H259.034V66.2029C259.034 56.2643 250.952 48.1825 241.014 48.1825H167.988C158.049 48.1825 149.968 56.2643 149.968 66.2029V75.451Z" fill="#1A428A"/>
<path fill-rule="evenodd" clip-rule="evenodd" d="M122.699 266.316C122.699 292.668 101.336 314.031 74.9837 314.031C48.6317 314.031 27.2686 292.668 27.2686 266.316C27.2686 239.964 48.6317 218.6 74.9837 218.6C101.336 218.6 122.699 239.964 122.699 266.316V266.316Z" fill="white"/>
<path d="M74.9837 320.849C44.9145 320.849 20.4504 296.385 20.4504 266.316C20.4504 236.246 44.9145 211.782 74.9837 211.782C105.053 211.782 129.517 236.246 129.517 266.316C129.517 296.385 105.053 320.849 74.9837 320.849ZM74.9837 225.415C52.4309 225.415 34.0828 243.763 34.0828 266.316C34.0828 288.868 52.4309 307.216 74.9837 307.216C97.5366 307.216 115.885 288.868 115.885 266.316C115.885 243.763 97.5366 225.415 74.9837 225.415V225.415Z" fill="#1A428A"/>
<path d="M204.501 225.415C193.205 225.415 184.05 216.26 184.05 204.964V157.249H224.951V204.964C224.951 216.26 215.793 225.415 204.501 225.415Z" fill="#D7E9FF"/>
<path d="M204.501 232.233C189.464 232.233 177.232 220.005 177.232 204.964V157.249C177.232 153.481 180.282 150.431 184.05 150.431H224.951C228.719 150.431 231.765 153.481 231.765 157.249V204.964C231.765 220.005 219.537 232.233 204.501 232.233ZM190.868 164.067V204.964C190.868 212.481 196.984 218.6 204.501 218.6C212.017 218.6 218.133 212.481 218.133 204.964V164.067H190.868Z" fill="#1A428A"/>
<path d="M59.0188 239.144C59.0188 238.665 59.3425 238.337 59.8262 238.337H79.2781C90.3361 238.337 95.8203 243.989 95.8203 252.785C95.8203 259.162 92.7584 263.035 88.4756 264.732V264.892C92.1928 265.945 96.7915 270.22 96.7915 277.569C96.7915 287.819 90.3361 293.225 78.8686 293.225H59.8262C59.3386 293.225 59.0188 292.905 59.0188 292.422V239.144ZM79.1182 262.068C85.1679 262.068 88.7252 258.592 88.7252 253.51C88.7252 248.264 85.1679 244.874 79.1182 244.874H66.6833C66.3635 244.874 66.2036 245.034 66.2036 245.362V261.584C66.2036 261.912 66.3635 262.072 66.6833 262.072H79.1182V262.068ZM66.6833 286.684H79.5161C86.0534 286.684 89.6067 283.131 89.6067 277.647C89.6067 272.24 86.0534 268.605 79.5161 268.605H66.6833C66.3635 268.605 66.2036 268.765 66.2036 269.089V286.197C66.2036 286.524 66.3635 286.684 66.6833 286.684Z" fill="#1A428A"/>
<path d="M340.832 354.932C337.064 354.932 334.018 351.885 334.018 348.117V320.849C334.018 317.081 337.064 314.031 340.832 314.031C344.6 314.031 347.65 317.081 347.65 320.849V348.117C347.65 351.885 344.6 354.932 340.832 354.932Z" fill="white"/>
<path d="M354.468 341.299H327.2C323.432 341.299 320.382 338.249 320.382 334.481C320.382 330.713 323.432 327.667 327.2 327.667H354.468C358.236 327.667 361.283 330.713 361.283 334.481C361.283 338.249 358.236 341.299 354.468 341.299Z" fill="white"/>
<path d="M95.4342 109.534H27.2686C23.5007 109.534 20.4504 106.484 20.4504 102.716C20.4504 98.9478 23.5007 95.8976 27.2686 95.8976H95.4342C99.2021 95.8976 102.248 98.9478 102.248 102.716C102.248 106.484 99.2021 109.534 95.4342 109.534Z" fill="white"/>
</g>
<defs>
<clipPath id="clip0_1_396">
<rect width="409" height="409" fill="white"/>
</clipPath>
</defs>
</svg>
