<svg width="416" height="416" viewBox="0 0 416 416" fill="none" xmlns="http://www.w3.org/2000/svg">
<path d="M109.115 181.254C52.6178 181.254 6.82104 227.055 6.82104 283.548C6.82104 340.044 52.6178 385.845 109.115 385.845C165.611 385.845 211.408 340.044 211.408 283.548C211.408 227.055 165.611 181.254 109.115 181.254Z" fill="#D7E9FF"/>
<path d="M109.115 392.662C48.9498 392.662 0 343.712 0 283.548C0 223.383 48.9498 174.433 109.115 174.433C169.28 174.433 218.229 223.383 218.229 283.548C218.229 343.712 169.28 392.662 109.115 392.662ZM109.115 188.075C56.4694 188.075 13.6384 230.902 13.6384 283.548C13.6384 336.197 56.4694 379.024 109.115 379.024C161.76 379.024 204.591 336.197 204.591 283.548C204.591 230.902 161.76 188.075 109.115 188.075Z" fill="#1A428A"/>
<path d="M109.115 201.714C63.9187 201.714 27.2805 238.352 27.2805 283.548C27.2805 328.743 63.9187 365.385 109.115 365.385C154.31 365.385 190.952 328.743 190.952 283.548C190.952 238.352 154.31 201.714 109.115 201.714Z" fill="#D7E9FF"/>
<path d="M109.115 372.207C60.2312 372.207 20.4595 332.431 20.4595 283.547C20.4595 234.664 60.2312 194.892 109.115 194.892C157.998 194.892 197.77 234.664 197.77 283.547C197.77 332.431 157.998 372.207 109.115 372.207ZM109.115 208.535C67.7508 208.535 34.0978 242.184 34.0978 283.547C34.0978 324.915 67.7508 358.564 109.115 358.564C150.478 358.564 184.131 324.915 184.131 283.547C184.131 242.184 150.478 208.535 109.115 208.535Z" fill="#1A428A"/>
<path d="M47.7362 290.369C43.9666 290.369 40.9189 287.317 40.9189 283.548C40.9189 266.721 47.1001 250.562 58.3152 238.047C60.8438 235.238 65.1519 235.011 67.942 237.517C70.7516 240.034 70.9858 244.342 68.4727 247.147C59.4975 257.161 54.5573 270.089 54.5573 283.548C54.5573 287.317 51.5057 290.369 47.7362 290.369Z" fill="white"/>
<path d="M87.0513 245.864C87.0513 245.142 87.5312 244.669 88.2415 244.669H118.41C135.587 244.669 143.692 253.254 143.692 266.253C143.692 275.439 139.404 280.679 134.276 283.423V283.665C139.287 285.573 145.125 292.015 145.125 301.912C145.125 318.008 134.99 325.758 117.22 325.758H88.2415C87.5312 325.758 87.0513 325.282 87.0513 324.568V245.864ZM118.059 278.412C125.211 278.412 129.625 274.124 129.625 267.806C129.625 261.363 125.211 257.067 118.059 257.067H101.833C101.361 257.067 101.123 257.309 101.123 257.781V277.702C101.123 278.174 101.361 278.412 101.833 278.412H118.059ZM101.833 313.357H118.773C126.643 313.357 131.053 308.822 131.053 302.029C131.053 295.348 126.643 290.814 118.773 290.814H101.833C101.361 290.814 101.123 291.055 101.123 291.532V312.639C101.123 313.119 101.361 313.357 101.833 313.357Z" fill="#1A428A"/>
<path d="M109.115 256.271C105.345 256.271 102.293 253.219 102.293 249.45V235.811C102.293 232.042 105.345 228.99 109.115 228.99C112.884 228.99 115.936 232.042 115.936 235.811V249.45C115.936 253.219 112.884 256.271 109.115 256.271Z" fill="#1A428A"/>
<path d="M109.115 338.105C105.345 338.105 102.293 335.057 102.293 331.288V324.467C102.293 320.697 105.345 317.649 109.115 317.649C112.884 317.649 115.936 320.697 115.936 324.467V331.288C115.936 335.057 112.884 338.105 109.115 338.105Z" fill="#1A428A"/>
<path d="M177.31 31.2204H395.54V379.024H177.31V31.2204Z" fill="#2A8EE6"/>
<path d="M395.54 385.845H177.31C173.541 385.845 170.493 382.793 170.493 379.024V31.2204C170.493 27.4508 173.541 24.4031 177.31 24.4031H395.54C399.309 24.4031 402.361 27.4508 402.361 31.2204V379.024C402.361 382.793 399.309 385.845 395.54 385.845ZM184.132 372.207H388.722V38.0415H184.132V372.207Z" fill="#1A428A"/>
<path d="M204.591 167.616H259.148V194.892H204.591V167.616Z" fill="#6BC4E8"/>
<path d="M259.148 201.713H204.591C200.821 201.713 197.77 198.662 197.77 194.892V167.616C197.77 163.846 200.821 160.794 204.591 160.794H259.148C262.918 160.794 265.965 163.846 265.965 167.616V194.892C265.965 198.662 262.918 201.713 259.148 201.713ZM211.408 188.075H252.327V174.433H211.408V188.075Z" fill="#1A428A"/>
<path d="M259.148 167.616H313.706V194.892H259.148V167.616Z" fill="#6BC4E8"/>
<path d="M313.706 201.713H259.148C255.379 201.713 252.327 198.662 252.327 194.892V167.616C252.327 163.846 255.379 160.794 259.148 160.794H313.706C317.475 160.794 320.523 163.846 320.523 167.616V194.892C320.523 198.662 317.475 201.713 313.706 201.713V201.713ZM265.966 188.075H306.884V174.433H265.966V188.075Z" fill="#1A428A"/>
<path d="M313.706 167.616H368.263V194.892H313.706V167.616Z" fill="#6BC4E8"/>
<path d="M368.263 201.713H313.706C309.936 201.713 306.885 198.662 306.885 194.892V167.616C306.885 163.846 309.936 160.794 313.706 160.794H368.263C372.033 160.794 375.08 163.846 375.08 167.616V194.892C375.08 198.662 372.033 201.713 368.263 201.713ZM320.523 188.075H361.442V174.433H320.523V188.075Z" fill="#1A428A"/>
<path d="M204.591 194.892H259.148V222.173H204.591V194.892Z" fill="#6BC4E8"/>
<path d="M259.148 228.99H204.591C200.821 228.99 197.77 225.943 197.77 222.173V194.892C197.77 191.123 200.821 188.075 204.591 188.075H259.148C262.918 188.075 265.965 191.123 265.965 194.892V222.173C265.965 225.943 262.918 228.99 259.148 228.99ZM211.408 215.352H252.327V201.713H211.408V215.352Z" fill="#1A428A"/>
<path d="M259.148 194.892H313.706V222.173H259.148V194.892Z" fill="#6BC4E8"/>
<path d="M313.706 228.99H259.148C255.379 228.99 252.327 225.943 252.327 222.173V194.892C252.327 191.123 255.379 188.075 259.148 188.075H313.706C317.475 188.075 320.523 191.123 320.523 194.892V222.173C320.523 225.943 317.475 228.99 313.706 228.99V228.99ZM265.966 215.352H306.884V201.713H265.966V215.352Z" fill="#1A428A"/>
<path d="M313.706 194.892H368.263V222.173H313.706V194.892Z" fill="#6BC4E8"/>
<path d="M368.263 228.99H313.706C309.936 228.99 306.885 225.943 306.885 222.173V194.892C306.885 191.123 309.936 188.075 313.706 188.075H368.263C372.033 188.075 375.08 191.123 375.08 194.892V222.173C375.08 225.943 372.033 228.99 368.263 228.99ZM320.523 215.352H361.442V201.713H320.523V215.352Z" fill="#1A428A"/>
<path d="M204.591 222.173H259.148V249.45H204.591V222.173Z" fill="#6BC4E8"/>
<path d="M259.148 256.271H204.591C200.821 256.271 197.77 253.219 197.77 249.45V222.173C197.77 218.403 200.821 215.352 204.591 215.352H259.148C262.918 215.352 265.965 218.403 265.965 222.173V249.45C265.965 253.219 262.918 256.271 259.148 256.271ZM211.408 242.632H252.327V228.99H211.408V242.632Z" fill="#1A428A"/>
<path d="M259.148 222.173H313.706V249.45H259.148V222.173Z" fill="#6BC4E8"/>
<path d="M313.706 256.271H259.148C255.379 256.271 252.327 253.219 252.327 249.45V222.173C252.327 218.403 255.379 215.352 259.148 215.352H313.706C317.475 215.352 320.523 218.403 320.523 222.173V249.45C320.523 253.219 317.475 256.271 313.706 256.271V256.271ZM265.966 242.632H306.884V228.99H265.966V242.632Z" fill="#1A428A"/>
<path d="M313.706 222.173H368.263V249.45H313.706V222.173Z" fill="#6BC4E8"/>
<path d="M368.263 256.271H313.706C309.936 256.271 306.885 253.219 306.885 249.45V222.173C306.885 218.403 309.936 215.352 313.706 215.352H368.263C372.033 215.352 375.08 218.403 375.08 222.173V249.45C375.08 253.219 372.033 256.271 368.263 256.271ZM320.523 242.632H361.442V228.99H320.523V242.632Z" fill="#1A428A"/>
<path d="M204.591 269.909H259.148V297.19H204.591V269.909Z" fill="#6BC4E8"/>
<path d="M259.148 304.007H204.591C200.821 304.007 197.77 300.959 197.77 297.19V269.909C197.77 266.14 200.821 263.092 204.591 263.092H259.148C262.918 263.092 265.965 266.14 265.965 269.909V297.19C265.965 300.959 262.918 304.007 259.148 304.007ZM211.408 290.369H252.327V276.73H211.408V290.369Z" fill="#1A428A"/>
<path d="M259.148 269.909H313.706V297.19H259.148V269.909Z" fill="#6BC4E8"/>
<path d="M313.706 304.007H259.148C255.379 304.007 252.327 300.959 252.327 297.19V269.909C252.327 266.14 255.379 263.092 259.148 263.092H313.706C317.475 263.092 320.523 266.14 320.523 269.909V297.19C320.523 300.959 317.475 304.007 313.706 304.007V304.007ZM265.966 290.369H306.884V276.73H265.966V290.369Z" fill="#1A428A"/>
<path d="M313.706 269.909H368.263V297.19H313.706V269.909Z" fill="#6BC4E8"/>
<path d="M368.263 304.007H313.706C309.936 304.007 306.885 300.959 306.885 297.19V269.909C306.885 266.14 309.936 263.092 313.706 263.092H368.263C372.033 263.092 375.08 266.14 375.08 269.909V297.19C375.08 300.959 372.033 304.007 368.263 304.007ZM320.523 290.369H361.442V276.73H320.523V290.369Z" fill="#1A428A"/>
<path d="M347.803 331.288H225.05C221.281 331.288 218.229 328.236 218.229 324.467C218.229 320.697 221.281 317.649 225.05 317.649H347.803C351.573 317.649 354.625 320.697 354.625 324.467C354.625 328.236 351.573 331.288 347.803 331.288Z" fill="#1A428A"/>
<path d="M204.591 72.1393H368.263V140.335H204.591V72.1393Z" fill="#D7E9FF"/>
<path d="M368.263 147.156H204.591C200.821 147.156 197.77 144.105 197.77 140.335V72.1394C197.77 68.3698 200.821 65.3182 204.591 65.3182H368.263C372.032 65.3182 375.08 68.3698 375.08 72.1394V140.335C375.08 144.105 372.032 147.156 368.263 147.156ZM211.408 133.518H361.442V78.9605H211.408V133.518Z" fill="#1A428A"/>
<path d="M395.54 31.2204H409.182V379.024H395.54V31.2204Z" fill="#1A428A"/>
<path d="M409.182 385.845H395.54C391.77 385.845 388.722 382.793 388.722 379.024V31.2204C388.722 27.4508 391.77 24.4031 395.54 24.4031H409.182C412.951 24.4031 415.999 27.4508 415.999 31.2204V379.024C415.999 382.793 412.951 385.845 409.182 385.845Z" fill="#1A428A"/>
<path d="M381.901 365.386C378.132 365.386 375.08 362.334 375.08 358.564V331.288C375.08 327.518 378.132 324.467 381.901 324.467C385.671 324.467 388.722 327.518 388.722 331.288V358.564C388.722 362.334 385.671 365.386 381.901 365.386Z" fill="white"/>
<path d="M395.539 351.747H368.263C364.493 351.747 361.442 348.696 361.442 344.926C361.442 341.156 364.493 338.105 368.263 338.105H395.539C399.309 338.105 402.361 341.156 402.361 344.926C402.361 348.696 399.309 351.747 395.539 351.747Z" fill="white"/>
<path d="M225.05 113.058C223.306 113.058 221.558 112.391 220.227 111.06C217.566 108.395 217.566 104.079 220.227 101.418L233.866 87.7757C236.531 85.1143 240.847 85.1143 243.512 87.7757C246.173 90.4409 246.173 94.7568 243.512 97.4181L229.87 111.06C228.539 112.391 226.795 113.058 225.05 113.058Z" fill="white"/>
<path d="M235.278 130.107C233.534 130.107 231.79 129.44 230.459 128.109C227.794 125.444 227.794 121.128 230.459 118.467L261.146 87.7757C263.807 85.1143 268.127 85.1143 270.789 87.7757C273.45 90.4409 273.45 94.7568 270.789 97.4181L240.101 128.109C238.767 129.44 237.022 130.107 235.278 130.107V130.107Z" fill="white"/>
</svg>
