<svg width="416" height="416" viewBox="0 0 416 416" fill="none" xmlns="http://www.w3.org/2000/svg">
<path d="M389.515 385.845H26.4846C15.6246 385.845 6.82113 377.041 6.82113 366.178V160.002C6.82113 149.138 15.6246 140.335 26.4846 140.335H389.515C400.375 140.335 409.182 149.138 409.182 160.002V366.178C409.182 377.041 400.375 385.845 389.515 385.845Z" fill="#1A428A"/>
<path d="M389.515 392.662H26.4846C11.8823 392.662 1.90735e-06 380.784 1.90735e-06 366.178V160.002C1.90735e-06 145.396 11.8823 133.518 26.4846 133.518H389.515C404.117 133.518 415.999 145.396 415.999 160.002V366.178C415.999 380.784 404.117 392.662 389.515 392.662V392.662ZM26.4846 147.156C19.402 147.156 13.6384 152.916 13.6384 160.002V366.178C13.6384 373.264 19.402 379.024 26.4846 379.024H389.515C396.601 379.024 402.361 373.264 402.361 366.178V160.002C402.361 152.916 396.601 147.156 389.515 147.156H26.4846Z" fill="#1A428A"/>
<path d="M389.515 365.385H26.4846C15.6246 365.385 6.82113 356.582 6.82113 345.718V139.543C6.82113 128.683 15.6246 119.875 26.4846 119.875H389.515C400.375 119.875 409.182 128.683 409.182 139.543V345.718C409.182 356.582 400.375 365.385 389.515 365.385Z" fill="#6BC4E8"/>
<path d="M389.515 372.207H26.4846C11.8823 372.207 1.90735e-06 360.324 1.90735e-06 345.718V139.543C1.90735e-06 124.941 11.8823 113.058 26.4846 113.058H389.515C404.117 113.058 415.999 124.941 415.999 139.543V345.718C415.999 360.324 404.117 372.207 389.515 372.207V372.207ZM26.4846 126.697C19.402 126.697 13.6384 132.456 13.6384 139.543V345.718C13.6384 352.805 19.402 358.564 26.4846 358.564H389.515C396.601 358.564 402.361 352.805 402.361 345.718V139.543C402.361 132.456 396.601 126.697 389.515 126.697H26.4846Z" fill="#1A428A"/>
<path d="M88.6552 256.271H34.0978C30.3283 256.271 27.2806 253.219 27.2806 249.45C27.2806 245.68 30.3283 242.632 34.0978 242.632H88.6552C92.4247 242.632 95.4763 245.68 95.4763 249.45C95.4763 253.219 92.4247 256.271 88.6552 256.271Z" fill="#1A428A"/>
<path d="M143.212 290.369H34.0978C30.3283 290.369 27.2806 287.317 27.2806 283.548C27.2806 279.778 30.3283 276.73 34.0978 276.73H143.212C146.982 276.73 150.034 279.778 150.034 283.548C150.034 287.317 146.982 290.369 143.212 290.369Z" fill="#1A428A"/>
<path d="M218.229 290.369H177.31C173.541 290.369 170.493 287.317 170.493 283.548C170.493 279.778 173.541 276.73 177.31 276.73H218.229C221.999 276.73 225.05 279.778 225.05 283.548C225.05 287.317 221.999 290.369 218.229 290.369Z" fill="#1A428A"/>
<path d="M54.5573 324.466H34.0978C30.3283 324.466 27.2806 321.419 27.2806 317.649C27.2806 313.88 30.3283 310.828 34.0978 310.828H54.5573C58.3269 310.828 61.3785 313.88 61.3785 317.649C61.3785 321.419 58.3269 324.466 54.5573 324.466Z" fill="#1A428A"/>
<path d="M136.395 324.466H102.294C98.524 324.466 95.4763 321.419 95.4763 317.649C95.4763 313.88 98.524 310.828 102.294 310.828H136.395C140.165 310.828 143.212 313.88 143.212 317.649C143.212 321.419 140.165 324.466 136.395 324.466Z" fill="#1A428A"/>
<path d="M170.493 256.271H115.936C112.166 256.271 109.115 253.219 109.115 249.45C109.115 245.68 112.166 242.632 115.936 242.632H170.493C174.263 242.632 177.31 245.68 177.31 249.45C177.31 253.219 174.263 256.271 170.493 256.271Z" fill="#1A428A"/>
<path d="M252.327 256.271H197.77C194 256.271 190.953 253.219 190.953 249.45C190.953 245.68 194 242.632 197.77 242.632H252.327C256.097 242.632 259.148 245.68 259.148 249.45C259.148 253.219 256.097 256.271 252.327 256.271Z" fill="#1A428A"/>
<path d="M68.1918 338.105C66.8923 338.105 65.5812 337.734 64.4144 336.962C61.277 334.87 60.4302 330.64 62.5218 327.503L76.1602 307.043C78.2479 303.91 82.4701 303.071 85.6192 305.154C88.7566 307.246 89.6034 311.476 87.5118 314.61L73.8695 335.069C72.5584 337.04 70.3926 338.105 68.1918 338.105Z" fill="#1A428A"/>
<path d="M98.9259 208.535H44.2905C38.6596 208.535 34.0978 203.969 34.0978 198.342V164.162C34.0978 158.535 38.6596 153.973 44.2905 153.973H98.9259C104.553 153.973 109.115 158.535 109.115 164.162V198.342C109.115 203.969 104.553 208.535 98.9259 208.535Z" fill="white"/>
<path d="M98.9259 215.352H44.2905C34.9134 215.352 27.2806 207.719 27.2806 198.342V164.162C27.2806 154.785 34.9134 147.152 44.2905 147.152H98.9259C108.303 147.152 115.936 154.785 115.936 164.162V198.342C115.936 207.719 108.303 215.352 98.9259 215.352ZM44.2905 160.794C42.4291 160.794 40.919 162.309 40.919 164.166V198.346C40.919 200.203 42.4291 201.713 44.2905 201.713H98.9259C100.783 201.713 102.297 200.203 102.297 198.346V164.166C102.297 162.309 100.783 160.794 98.9259 160.794H44.2905Z" fill="#1A428A"/>
<path d="M81.8379 208.535C78.0684 208.535 75.0168 205.483 75.0168 201.713V160.795C75.0168 157.025 78.0684 153.977 81.8379 153.977C85.6075 153.977 88.6552 157.025 88.6552 160.795V201.713C88.6552 205.483 85.6075 208.535 81.8379 208.535Z" fill="#1A428A"/>
<path d="M75.0168 188.075H40.919C37.1494 188.075 34.0978 185.024 34.0978 181.254C34.0978 177.484 37.1494 174.433 40.919 174.433H75.0168C78.7864 174.433 81.8379 177.484 81.8379 181.254C81.8379 185.024 78.7864 188.075 75.0168 188.075Z" fill="#1A428A"/>
<path d="M265.965 85.7777C265.965 115.911 241.541 140.335 211.408 140.335C181.279 140.335 156.851 115.911 156.851 85.7777C156.851 55.6484 181.279 31.2203 211.408 31.2203C241.541 31.2203 265.965 55.6484 265.965 85.7777Z" fill="#2A8EE6"/>
<path d="M211.408 147.156C177.564 147.156 150.034 119.626 150.034 85.7777C150.034 51.9336 177.564 24.4032 211.408 24.4032C245.256 24.4032 272.787 51.9336 272.787 85.7777C272.787 119.626 245.256 147.156 211.408 147.156V147.156ZM211.408 38.0416C185.088 38.0416 163.672 59.4571 163.672 85.7777C163.672 112.098 185.088 133.518 211.408 133.518C237.729 133.518 259.148 112.098 259.148 85.7777C259.148 59.4571 237.729 38.0416 211.408 38.0416Z" fill="#1A428A"/>
<path d="M191.749 53.9705C191.749 53.4046 192.123 53.0339 192.681 53.0339H216.407C229.905 53.0339 236.277 59.777 236.277 70.0009C236.277 77.2201 232.906 81.3408 228.871 83.5027V83.6861C232.812 85.1924 237.409 90.2536 237.409 98.0308C237.409 110.694 229.437 116.785 215.467 116.785H192.681C192.123 116.785 191.749 116.414 191.749 115.848V53.9705ZM216.126 79.5653C221.745 79.5653 225.214 76.1899 225.214 71.2184C225.214 66.1572 221.745 62.7818 216.126 62.7818H203.373C202.991 62.7818 202.808 62.9652 202.808 63.3398V79.0034C202.808 79.378 202.991 79.5653 203.373 79.5653H216.126ZM203.37 107.037H216.684C222.877 107.037 226.342 103.474 226.342 98.1244C226.342 92.8798 222.877 89.3131 216.684 89.3131H203.37C202.991 89.3131 202.804 89.5004 202.804 89.879V106.471C202.804 106.85 202.991 107.037 203.37 107.037Z" fill="#1A428A"/>
<path d="M208.002 61.9115C204.232 61.9115 201.18 58.86 201.18 55.0904V48.2693C201.18 44.4997 204.232 41.452 208.002 41.452C211.771 41.452 214.819 44.4997 214.819 48.2693V55.0904C214.819 58.86 211.771 61.9115 208.002 61.9115Z" fill="#1A428A"/>
<path d="M208.002 130.107C204.232 130.107 201.18 127.056 201.18 123.286V116.469C201.18 112.699 204.232 109.648 208.002 109.648C211.771 109.648 214.819 112.699 214.819 116.469V123.286C214.819 127.056 211.771 130.107 208.002 130.107Z" fill="#1A428A"/>
<path d="M327.344 379.024C323.574 379.024 320.523 375.976 320.523 372.207V344.926C320.523 341.156 323.574 338.105 327.344 338.105C331.114 338.105 334.165 341.156 334.165 344.926V372.207C334.165 375.976 331.114 379.024 327.344 379.024Z" fill="white"/>
<path d="M340.982 365.385H313.706C309.936 365.385 306.884 362.334 306.884 358.564C306.884 354.795 309.936 351.747 313.706 351.747H340.982C344.752 351.747 347.803 354.795 347.803 358.564C347.803 362.334 344.752 365.385 340.982 365.385Z" fill="white"/>
<path d="M388.722 181.254C384.953 181.254 381.901 178.202 381.901 174.433V147.156H334.165C330.395 147.156 327.344 144.105 327.344 140.335C327.344 136.565 330.395 133.518 334.165 133.518H382.522C389.702 133.518 395.54 139.356 395.54 146.536V174.433C395.54 178.202 392.492 181.254 388.722 181.254V181.254ZM382.522 147.156H382.588H382.522Z" fill="white"/>
</svg>
