<svg width="395" height="395" viewBox="0 0 395 395" fill="none" xmlns="http://www.w3.org/2000/svg">
<path d="M204.491 388.191H40.9221C33.4323 388.191 27.3609 382.119 27.3609 374.63V47.6125C27.3609 40.1227 33.4323 34.0513 40.9221 34.0513H204.491C211.981 34.0513 218.052 40.1227 218.052 47.6125V374.63C218.052 382.119 211.981 388.191 204.491 388.191Z" fill="#1A428A"/>
<path d="M204.491 394.999H40.9221C29.6874 394.999 20.5491 385.86 20.5491 374.629V47.6124C20.5491 36.3776 29.6874 27.2433 40.9221 27.2433H204.491C215.722 27.2433 224.86 36.3776 224.86 47.6124V374.629C224.86 385.86 215.722 394.999 204.491 394.999ZM40.9221 40.863C37.2006 40.863 34.1727 43.887 34.1727 47.6124V374.629C34.1727 378.355 37.2006 381.379 40.9221 381.379H204.491C208.213 381.379 211.241 378.355 211.241 374.629V47.6124C211.241 43.887 208.213 40.863 204.491 40.863H40.9221Z" fill="#1A428A"/>
<path d="M190.867 388.191H27.3024C19.8126 388.191 13.7412 382.119 13.7412 374.63V47.6125C13.7412 40.1227 19.8126 34.0513 27.3024 34.0513H190.867C198.357 34.0513 204.429 40.1227 204.429 47.6125V374.63C204.429 382.119 198.357 388.191 190.867 388.191Z" fill="#2A8EE6"/>
<path d="M190.867 394.999H27.3024C16.0676 394.999 6.92938 385.86 6.92938 374.629V47.6124C6.92938 36.3776 16.0676 27.2433 27.3024 27.2433H190.867C202.102 27.2433 211.24 36.3776 211.24 47.6124V374.629C211.24 385.86 202.102 394.999 190.867 394.999ZM27.3024 40.863C23.5809 40.863 20.5491 43.887 20.5491 47.6124V374.629C20.5491 378.355 23.5809 381.379 27.3024 381.379H190.867C194.589 381.379 197.621 378.355 197.621 374.629V47.6124C197.621 43.887 194.589 40.863 190.867 40.863H27.3024Z" fill="#1A428A"/>
<path d="M34.1727 54.4827H183.997V320.084H34.1727V54.4827Z" fill="#6BC4E8"/>
<path d="M183.997 326.896H34.1727C30.4122 326.896 27.3609 323.849 27.3609 320.084V54.4827C27.3609 50.7183 30.4122 47.6709 34.1727 47.6709H183.997C187.762 47.6709 190.809 50.7183 190.809 54.4827V320.084C190.809 323.849 187.762 326.896 183.997 326.896ZM40.9806 313.277H177.189V61.2945H40.9806V313.277Z" fill="#1A428A"/>
<path d="M365.27 6.81177H152.557C143.594 6.81177 136.326 14.0756 136.326 23.0385V160.841C136.326 169.804 143.594 177.068 152.557 177.068H163.57V211.119L187.89 177.068H365.27C374.233 177.068 381.5 169.804 381.5 160.841V23.0385C381.5 14.0756 374.233 6.81177 365.27 6.81177Z" fill="#2A8EE6"/>
<path d="M163.57 217.931C162.876 217.931 162.175 217.826 161.489 217.607C158.671 216.703 156.758 214.081 156.758 211.119V183.88H152.553C139.849 183.88 129.515 173.545 129.515 160.841V23.0385C129.515 10.3346 139.849 0 152.553 0H365.27C377.974 0 388.308 10.3346 388.308 23.0385V160.841C388.308 173.545 377.974 183.88 365.27 183.88H191.394L169.111 215.078C167.806 216.902 165.729 217.931 163.57 217.931ZM152.553 13.6197C147.358 13.6197 143.138 17.844 143.138 23.0385V160.841C143.138 166.036 147.358 170.26 152.553 170.26H163.57C167.33 170.26 170.378 173.303 170.378 177.068V189.873L182.345 173.112C183.627 171.324 185.692 170.26 187.89 170.26H365.27C370.464 170.26 374.689 166.036 374.689 160.841V23.0385C374.689 17.844 370.464 13.6197 365.27 13.6197H152.553Z" fill="#1A428A"/>
<path d="M313.394 88.534C313.394 118.626 289.003 143.017 258.911 143.017C228.823 143.017 204.429 118.626 204.429 88.534C204.429 58.4459 228.823 34.0513 258.911 34.0513C289.003 34.0513 313.394 58.4459 313.394 88.534Z" fill="#D7E9FF"/>
<path d="M258.911 149.828C225.117 149.828 197.621 122.336 197.621 88.5339C197.621 54.736 225.117 27.2433 258.911 27.2433C292.709 27.2433 320.206 54.736 320.206 88.5339C320.206 122.336 292.709 149.828 258.911 149.828ZM258.911 40.863C232.627 40.863 211.24 62.2492 211.24 88.5339C211.24 114.819 232.627 136.209 258.911 136.209C285.2 136.209 306.586 114.819 306.586 88.5339C306.586 62.2492 285.2 40.863 258.911 40.863V40.863Z" fill="#1A428A"/>
<path d="M239.279 56.7702C239.279 56.2052 239.649 55.8311 240.21 55.8311H263.899C277.383 55.8311 283.75 62.5688 283.75 72.7787C283.75 79.988 280.379 84.1031 276.354 86.2581V86.4452C280.286 87.9494 284.873 93.0037 284.873 100.77C284.873 113.416 276.915 119.499 262.964 119.499H240.21C239.649 119.499 239.279 119.125 239.279 118.56V56.7702ZM263.619 82.33C269.238 82.33 272.699 78.9592 272.699 73.9946C272.699 68.9403 269.238 65.5694 263.619 65.5694H250.884C250.51 65.5694 250.323 65.7526 250.323 66.1267V81.7689C250.323 82.143 250.51 82.33 250.884 82.33H263.619ZM250.884 109.764H264.18C270.364 109.764 273.825 106.206 273.825 100.864C273.825 95.6224 270.364 92.0645 264.18 92.0645H250.884C250.51 92.0645 250.323 92.2516 250.323 92.6296V109.195C250.323 109.577 250.51 109.764 250.884 109.764Z" fill="#1A428A"/>
<path d="M255.509 64.6965C251.745 64.6965 248.698 61.653 248.698 57.8886V51.0768C248.698 47.3124 251.745 44.2689 255.509 44.2689C259.27 44.2689 262.317 47.3124 262.317 51.0768V57.8886C262.317 61.653 259.27 64.6965 255.509 64.6965V64.6965Z" fill="#1A428A"/>
<path d="M255.509 132.803C251.745 132.803 248.698 129.755 248.698 125.991V119.179C248.698 115.415 251.745 112.371 255.509 112.371C259.27 112.371 262.317 115.415 262.317 119.179V125.991C262.317 129.755 259.27 132.803 255.509 132.803V132.803Z" fill="#1A428A"/>
<path d="M122.707 354.139C122.707 361.661 116.608 367.759 109.087 367.759C101.562 367.759 95.4633 361.661 95.4633 354.139C95.4633 346.615 101.562 340.516 109.087 340.516C116.608 340.516 122.707 346.615 122.707 354.139V354.139Z" fill="#6BC4E8"/>
<path d="M109.087 374.567C97.8209 374.567 88.6554 365.405 88.6554 354.14C88.6554 342.874 97.8209 333.708 109.087 333.708C120.353 333.708 129.515 342.874 129.515 354.14C129.515 365.405 120.353 374.567 109.087 374.567ZM109.087 347.328C105.33 347.328 102.275 350.379 102.275 354.14C102.275 357.896 105.33 360.947 109.087 360.947C112.84 360.947 115.895 357.896 115.895 354.14C115.895 350.379 112.84 347.328 109.087 347.328Z" fill="#1A428A"/>
<path d="M197.621 367.759C193.86 367.759 190.809 364.712 190.809 360.947V333.708C190.809 329.944 193.86 326.896 197.621 326.896C201.381 326.896 204.429 329.944 204.429 333.708V360.947C204.429 364.712 201.381 367.759 197.621 367.759Z" fill="white"/>
<path d="M211.241 354.139H183.997C180.237 354.139 177.189 351.092 177.189 347.328C177.189 343.563 180.237 340.516 183.997 340.516H211.241C215.001 340.516 218.052 343.563 218.052 347.328C218.052 351.092 215.001 354.139 211.241 354.139Z" fill="white"/>
<path d="M51.1983 98.7516C49.4564 98.7516 47.7105 98.0853 46.3817 96.7564C43.724 94.0948 43.724 89.7848 46.3817 87.1232L63.4073 70.0976C66.0689 67.4399 70.3789 67.4399 73.0366 70.0976C75.6982 72.7592 75.6982 77.0692 73.0366 79.7269L56.011 96.7564C54.6821 98.0853 52.9402 98.7516 51.1983 98.7516Z" fill="white"/>
<path d="M54.6042 122.585C52.8623 122.585 51.1165 121.919 49.7876 120.59C47.1299 117.932 47.1299 113.622 49.7876 110.961L90.6506 70.0976C93.3083 67.4399 97.6183 67.4399 100.28 70.0976C102.938 72.7592 102.938 77.0692 100.28 79.7269L59.4169 120.59C58.088 121.919 56.3461 122.585 54.6042 122.585Z" fill="white"/>
</svg>
