<svg width="435" height="435" viewBox="0 0 435 435" fill="none" xmlns="http://www.w3.org/2000/svg">
<g clip-path="url(#clip0_1_505)">
<path d="M346.362 177.849C343.166 177.849 340.026 178.079 336.924 178.434C338.574 171.677 339.542 164.654 339.542 157.394C339.542 108.438 299.86 68.7561 250.904 68.7561C205.854 68.7561 168.739 102.391 163.094 145.904C150.34 140.188 136.24 136.938 121.356 136.938C64.8738 136.938 19.0822 182.726 19.0822 239.212C19.0822 293.395 61.2493 337.619 114.54 341.142V341.489H346.362C391.549 341.489 428.183 304.858 428.183 259.667C428.183 214.48 391.549 177.849 346.362 177.849V177.849Z" fill="#1A428A"/>
<path d="M346.362 348.305H114.54C113.607 348.305 112.714 348.121 111.906 347.778C55.8575 342.944 12.2623 295.678 12.2623 239.212C12.2623 179.059 61.2025 130.119 121.355 130.119C133.86 130.119 146.099 132.245 157.85 136.447C167.498 93.4095 206.068 61.9363 250.904 61.9363C303.539 61.9363 346.362 104.759 346.362 157.394C346.362 161.869 346.014 166.437 345.328 171.037C345.675 171.029 346.018 171.029 346.362 171.029C395.239 171.029 434.999 210.793 434.999 259.667C434.999 308.541 395.235 348.305 346.362 348.305V348.305ZM116.689 334.669H346.362C387.717 334.669 421.36 301.023 421.36 259.667C421.36 218.311 387.717 184.665 346.362 184.665C343.677 184.665 340.849 184.845 337.712 185.204C335.488 185.52 333.292 184.618 331.813 182.948C330.338 181.279 329.772 178.985 330.299 176.815C331.907 170.222 332.722 163.691 332.722 157.39C332.722 112.273 296.017 75.5719 250.904 75.5719C209.966 75.5719 175.122 106.179 169.855 146.778C169.578 148.916 168.306 150.792 166.421 151.85C164.549 152.895 162.274 152.997 160.308 152.123C147.909 146.571 134.804 143.754 121.352 143.754C68.7167 143.754 25.898 186.577 25.898 239.212C25.898 289.248 65.0298 331.033 114.984 334.334C115.581 334.377 116.151 334.49 116.689 334.669Z" fill="#1A428A"/>
<path d="M346.362 157.394C343.166 157.394 340.026 157.624 336.924 157.979C338.574 151.226 339.542 144.203 339.542 136.938C339.542 87.9826 299.86 48.3007 250.904 48.3007C205.854 48.3007 168.739 81.9353 163.094 125.449C150.34 119.733 136.24 116.483 121.356 116.483C64.8738 116.483 19.0822 162.275 19.0822 218.756C19.0822 272.94 61.2493 317.163 114.54 320.69V321.034H346.362C391.549 321.034 428.183 284.403 428.183 239.212C428.183 194.025 391.549 157.394 346.362 157.394V157.394Z" fill="#6BC4E8"/>
<path d="M346.362 327.849H114.54C113.607 327.849 112.714 327.666 111.906 327.323C55.8575 322.489 12.2623 275.222 12.2623 218.756C12.2623 158.603 61.2025 109.663 121.355 109.663C133.86 109.663 146.099 111.789 157.85 115.991C167.498 72.958 206.068 41.4808 250.904 41.4808C303.539 41.4808 346.362 84.3035 346.362 136.938C346.362 141.413 346.014 145.982 345.328 150.582C394.966 149.958 434.999 189.998 434.999 239.212C434.999 288.086 395.235 327.849 346.362 327.849V327.849ZM116.689 314.214H346.362C387.717 314.214 421.36 280.567 421.36 239.212C421.36 197.856 387.717 164.21 346.362 164.21C343.677 164.21 340.849 164.389 337.712 164.748C335.488 165.064 333.292 164.163 331.813 162.493C330.338 160.823 329.772 158.533 330.299 156.36C331.907 149.766 332.722 143.235 332.722 136.934C332.722 91.8177 296.017 55.1165 250.904 55.1165C209.966 55.1165 175.122 85.7236 169.855 126.322C169.578 128.46 168.306 130.337 166.421 131.394C164.549 132.44 162.274 132.541 160.308 131.667C147.909 126.116 134.804 123.299 121.352 123.299C68.7167 123.299 25.898 166.121 25.898 218.756C25.898 268.793 65.0298 310.578 114.984 313.882C115.581 313.921 116.151 314.034 116.689 314.214V314.214Z" fill="#1A428A"/>
<path d="M277.976 97.3969L297.261 116.682L268.332 145.607L249.047 126.322L277.976 97.3969Z" fill="#D7E9FF"/>
<path d="M268.332 152.431C266.526 152.431 264.789 151.713 263.514 150.434L244.229 131.145C241.568 128.484 241.568 124.169 244.229 121.504L273.158 92.5785C275.823 89.9177 280.138 89.9177 282.799 92.5785L302.084 111.864C304.744 114.524 304.744 118.839 302.084 121.504L273.154 150.434C271.875 151.713 270.142 152.431 268.332 152.431V152.431ZM258.691 126.326L268.332 135.975L287.617 116.686L277.976 107.041L258.691 126.326Z" fill="#1A428A"/>
<path d="M6.81195 368.557L196.01 179.359L215.295 198.644L26.097 387.842L6.81195 368.557Z" fill="#D7E9FF"/>
<path d="M26.1009 394.662C24.3569 394.662 22.6091 393.999 21.2787 392.665L1.99756 373.384C-0.667154 370.723 -0.667154 366.404 1.99756 363.743L191.196 174.541C193.857 171.88 198.176 171.88 200.836 174.541L220.121 193.822C221.401 195.102 222.119 196.834 222.119 198.644C222.119 200.454 221.401 202.187 220.121 203.462L30.9192 392.665C29.5888 393.999 27.8449 394.662 26.1009 394.662V394.662ZM16.4603 368.561L26.1009 378.202L205.659 198.64L196.014 189L16.4603 368.561Z" fill="#1A428A"/>
<path d="M339.374 299.021C347.126 239.863 324.365 172.711 273.158 121.504C221.951 70.2972 154.795 47.5359 95.637 55.2882C135.221 72.2674 176.007 98.2474 214.437 132.011L181.551 164.896L229.766 213.107L262.651 180.225C296.415 218.655 322.395 259.441 339.374 299.021V299.021Z" fill="#D7E9FF"/>
<path d="M339.37 305.837C336.678 305.837 334.193 304.238 333.108 301.71C316.96 264.076 292.549 225.662 262.289 190.225L234.584 217.933C232.029 220.489 227.499 220.489 224.944 217.933L176.733 169.719C174.068 167.058 174.068 162.739 176.733 160.078L204.434 132.37C168.985 102.102 130.571 77.6905 92.9528 61.5579C90.1281 60.3446 88.4621 57.4028 88.8835 54.3597C89.3049 51.3165 91.7043 48.9327 94.7513 48.5348C158.435 40.1154 226.949 65.6506 277.976 116.682C329.004 167.713 354.481 236.208 346.131 299.903C345.733 302.946 343.346 305.35 340.307 305.771C339.991 305.818 339.678 305.837 339.37 305.837V305.837ZM262.651 173.406C262.722 173.406 262.796 173.406 262.87 173.413C264.754 173.476 266.53 174.307 267.77 175.723C294.495 206.135 317.069 238.911 334.017 271.746C332.863 220.145 309.348 167.347 268.336 126.326C227.32 85.314 174.513 61.8037 122.916 60.645C155.739 77.5852 188.516 100.163 218.939 126.892C220.352 128.137 221.19 129.908 221.249 131.792C221.311 133.677 220.586 135.503 219.255 136.833L191.192 164.896L229.762 203.47L257.829 175.407C259.113 174.127 260.845 173.406 262.651 173.406V173.406Z" fill="#1A428A"/>
<path d="M119.245 136.966C75.0333 138.085 39.5376 174.276 39.5376 218.756Z" fill="#6BC4E8"/>
<path d="M39.5376 225.576C35.7726 225.576 32.7178 222.525 32.7178 218.756C32.7178 170.296 70.648 131.371 119.073 130.146C122.74 129.939 125.963 133.029 126.061 136.79C126.158 140.555 123.185 143.684 119.42 143.782C78.4509 144.815 46.3573 177.748 46.3573 218.756C46.3534 222.525 43.3025 225.576 39.5376 225.576Z" fill="white"/>
<path d="M257.724 334.669C253.959 334.669 250.904 331.618 250.904 327.849V300.578C250.904 296.809 253.959 293.758 257.724 293.758C261.489 293.758 264.544 296.809 264.544 300.578V327.849C264.544 331.618 261.489 334.669 257.724 334.669Z" fill="white"/>
<path d="M271.36 321.034H244.088C240.323 321.034 237.268 317.983 237.268 314.214C237.268 310.445 240.323 307.398 244.088 307.398H271.36C275.124 307.398 278.179 310.445 278.179 314.214C278.179 317.983 275.124 321.034 271.36 321.034Z" fill="white"/>
</g>
<defs>
<clipPath id="clip0_1_505">
<rect width="435" height="435" fill="white"/>
</clipPath>
</defs>
</svg>
