<svg width="423" height="423" viewBox="0 0 423 423" fill="none" xmlns="http://www.w3.org/2000/svg">
<g clip-path="url(#clip0_1_521)">
<path d="M334.308 130.228C331.11 130.228 327.968 130.459 324.864 130.814C326.512 124.052 327.484 117.029 327.484 109.76C327.484 60.7777 287.773 21.0671 238.791 21.0671C193.712 21.0671 156.574 54.7267 150.925 98.2631C138.163 92.5478 124.055 89.2919 109.161 89.2919C52.6404 89.2919 6.8241 135.112 6.8241 191.633C6.8241 245.847 49.0137 290.097 102.337 293.627V293.97H334.308C379.523 293.97 416.177 257.316 416.177 212.101C416.177 166.882 379.523 130.228 334.308 130.228V130.228Z" fill="#6BC4E8"/>
<path d="M334.308 300.794H102.337C101.404 300.794 100.514 300.607 99.702 300.267C43.6184 295.43 0 248.13 0 191.633C0 131.442 48.9707 82.4718 109.161 82.4718C121.673 82.4718 133.92 84.5956 145.674 88.8001C155.329 45.7399 193.927 14.2432 238.791 14.2432C291.458 14.2432 334.308 57.0925 334.308 109.76C334.308 114.238 333.96 118.809 333.273 123.412C333.617 123.404 333.964 123.404 334.308 123.404C383.216 123.404 423.001 163.197 423.001 212.101C423.001 261.006 383.216 300.794 334.308 300.794V300.794ZM104.492 287.146H334.308C375.689 287.146 409.356 253.483 409.356 212.101C409.356 170.716 375.689 137.052 334.308 137.052C331.622 137.052 328.791 137.232 325.653 137.591C323.427 137.864 321.229 137.002 319.754 135.331C318.274 133.66 317.712 131.368 318.235 129.194C319.844 122.6 320.66 116.065 320.66 109.76C320.66 64.6153 283.935 27.8912 238.791 27.8912C197.827 27.8912 162.961 58.5174 157.691 99.1415C157.417 101.277 156.141 103.155 154.255 104.217C152.385 105.263 150.105 105.364 148.138 104.49C135.731 98.9346 122.622 96.116 109.161 96.116C56.4935 96.116 13.6442 138.961 13.6442 191.633C13.6442 241.701 52.8004 283.512 102.79 286.814C103.379 286.853 103.949 286.97 104.492 287.146Z" fill="#1A428A"/>
<path fill-rule="evenodd" clip-rule="evenodd" d="M293.371 307.614C293.371 350.948 258.244 386.075 214.91 386.075C171.581 386.075 136.453 350.948 136.453 307.614C136.453 264.285 171.581 229.157 214.91 229.157C258.244 229.157 293.371 264.285 293.371 307.614Z" fill="#1A428A"/>
<path d="M214.91 392.899C167.888 392.899 129.629 354.641 129.629 307.614C129.629 260.592 167.888 222.333 214.91 222.333C261.937 222.333 300.195 260.592 300.195 307.614C300.195 354.641 261.937 392.899 214.91 392.899ZM214.91 235.978C175.411 235.978 143.274 268.115 143.274 307.614C143.274 347.118 175.411 379.251 214.91 379.251C254.41 379.251 286.547 347.118 286.547 307.614C286.547 268.115 254.41 235.978 214.91 235.978Z" fill="#1A428A"/>
<path d="M293.371 293.97C293.371 337.304 258.244 372.431 214.91 372.431C171.581 372.431 136.453 337.304 136.453 293.97C136.453 250.637 171.581 215.509 214.91 215.509C258.244 215.509 293.371 250.637 293.371 293.97Z" fill="#D7E9FF"/>
<path d="M214.91 379.251C167.888 379.251 129.629 340.997 129.629 293.97C129.629 246.948 167.888 208.689 214.91 208.689C261.937 208.689 300.195 246.948 300.195 293.97C300.195 340.997 261.937 379.251 214.91 379.251V379.251ZM214.91 222.333C175.411 222.333 143.274 254.466 143.274 293.97C143.274 333.474 175.411 365.607 214.91 365.607C254.41 365.607 286.547 333.474 286.547 293.97C286.547 254.466 254.41 222.333 214.91 222.333V222.333Z" fill="#1A428A"/>
<path d="M189.426 256.266C189.426 255.548 189.906 255.075 190.62 255.075H220.801C237.983 255.075 246.091 263.664 246.091 276.668C246.091 285.858 241.801 291.101 236.671 293.845V294.083C241.683 295.996 247.524 302.438 247.524 312.342C247.524 328.442 237.385 336.199 219.607 336.199H190.62C189.906 336.199 189.426 335.719 189.426 335.008V256.266ZM220.446 288.833C227.602 288.833 232.021 284.542 232.021 278.218C232.021 271.776 227.602 267.478 220.446 267.478H204.218C203.745 267.478 203.503 267.72 203.503 268.193V288.122C203.503 288.594 203.745 288.833 204.218 288.833H220.446ZM204.218 323.792H221.161C229.035 323.792 233.446 319.256 233.446 312.459C233.446 305.776 229.035 301.239 221.161 301.239H204.218C203.745 301.239 203.503 301.477 203.503 301.958V323.074C203.503 323.554 203.745 323.792 204.218 323.792Z" fill="#1A428A"/>
<path d="M211.498 266.682C207.731 266.682 204.678 263.629 204.678 259.858V246.214C204.678 242.442 207.731 239.39 211.498 239.39C215.27 239.39 218.322 242.442 218.322 246.214V259.858C218.322 263.629 215.27 266.682 211.498 266.682Z" fill="#1A428A"/>
<path d="M211.498 348.551C207.731 348.551 204.678 345.502 204.678 341.731V334.907C204.678 331.135 207.731 328.083 211.498 328.083C215.27 328.083 218.322 331.135 218.322 334.907V341.731C218.322 345.502 215.27 348.551 211.498 348.551Z" fill="#1A428A"/>
<path d="M27.2923 198.453C23.5211 198.453 20.4683 195.404 20.4683 191.633C20.4683 143.139 58.4221 104.189 106.877 102.967C110.61 102.827 113.772 105.848 113.869 109.616C113.967 113.379 110.988 116.51 107.225 116.612C66.226 117.642 34.1124 150.595 34.1124 191.633C34.1124 195.404 31.0596 198.453 27.2923 198.453Z" fill="white"/>
<path d="M320.659 328.082C316.892 328.082 313.839 325.033 313.839 321.262V293.97C313.839 290.199 316.892 287.146 320.659 287.146C324.431 287.146 327.484 290.199 327.484 293.97V321.262C327.484 325.033 324.431 328.082 320.659 328.082Z" fill="#1A428A"/>
<path d="M347.952 389.487C344.184 389.487 341.128 386.434 341.128 382.663V293.97C341.128 290.199 344.184 287.146 347.952 287.146C351.719 287.146 354.776 290.199 354.776 293.97V382.663C354.776 386.434 351.719 389.487 347.952 389.487Z" fill="#1A428A"/>
<path d="M115.985 375.843C112.218 375.843 109.161 372.79 109.161 369.019V293.97C109.161 290.199 112.218 287.146 115.985 287.146C119.753 287.146 122.805 290.199 122.805 293.97V369.019C122.805 372.79 119.753 375.843 115.985 375.843Z" fill="#1A428A"/>
<path d="M88.6931 341.73C84.9258 341.73 81.8729 338.678 81.8729 334.906V293.97C81.8729 290.199 84.9258 287.146 88.6931 287.146C92.4603 287.146 95.5171 290.199 95.5171 293.97V334.906C95.5171 338.678 92.4603 341.73 88.6931 341.73Z" fill="#1A428A"/>
<path d="M61.4047 396.311C57.6375 396.311 54.5807 393.258 54.5807 389.487V287.146C54.5807 283.375 57.6375 280.326 61.4047 280.326C65.172 280.326 68.2249 283.375 68.2249 287.146V389.487C68.2249 393.258 65.172 396.311 61.4047 396.311Z" fill="#1A428A"/>
<path d="M75.0488 396.311C75.0488 403.846 68.9392 409.955 61.4047 409.955C53.8662 409.955 47.7566 403.846 47.7566 396.311C47.7566 388.773 53.8662 382.663 61.4047 382.663C68.9392 382.663 75.0488 388.773 75.0488 396.311Z" fill="#1A428A"/>
<path d="M102.337 341.731C102.337 349.265 96.2315 355.375 88.693 355.375C81.1584 355.375 75.0488 349.265 75.0488 341.731C75.0488 334.192 81.1584 328.083 88.693 328.083C96.2315 328.083 102.337 334.192 102.337 341.731V341.731Z" fill="#1A428A"/>
<path d="M129.629 375.843C129.629 383.377 123.52 389.487 115.985 389.487C108.447 389.487 102.337 383.377 102.337 375.843C102.337 368.304 108.447 362.195 115.985 362.195C123.52 362.195 129.629 368.304 129.629 375.843V375.843Z" fill="#1A428A"/>
<path d="M361.596 389.487C361.596 397.022 355.486 403.131 347.952 403.131C340.417 403.131 334.308 397.022 334.308 389.487C334.308 381.953 340.417 375.843 347.952 375.843C355.486 375.843 361.596 381.953 361.596 389.487Z" fill="#1A428A"/>
<path d="M334.308 328.082C334.308 335.621 328.198 341.73 320.66 341.73C313.125 341.73 307.015 335.621 307.015 328.082C307.015 320.548 313.125 314.438 320.66 314.438C328.198 314.438 334.308 320.548 334.308 328.082V328.082Z" fill="#1A428A"/>
<path d="M341.128 273.502C337.36 273.502 334.308 270.453 334.308 266.682V239.39C334.308 235.618 337.36 232.566 341.128 232.566C344.895 232.566 347.952 235.618 347.952 239.39V266.682C347.952 270.453 344.895 273.502 341.128 273.502Z" fill="white"/>
<path d="M354.776 259.858H327.484C323.716 259.858 320.66 256.805 320.66 253.034C320.66 249.263 323.716 246.214 327.484 246.214H354.776C358.543 246.214 361.596 249.263 361.596 253.034C361.596 256.805 358.543 259.858 354.776 259.858Z" fill="white"/>
</g>
<defs>
<clipPath id="clip0_1_521">
<rect width="423" height="423" fill="white"/>
</clipPath>
</defs>
</svg>
