<svg width="373" height="373" viewBox="0 0 373 373" fill="none" xmlns="http://www.w3.org/2000/svg">
<g clip-path="url(#clip0_1_545)">
<path d="M70.3103 249.73C61.7014 254.903 58.8787 266.01 64.0869 274.678L95.0943 326.28C98.6588 332.214 106.358 334.135 112.292 330.567L132.719 318.292L95.2583 255.949C90.0891 247.34 78.9776 244.522 70.3103 249.73V249.73Z" fill="#D7E9FF"/>
<path d="M105.874 339.191C104.3 339.191 102.715 339 101.154 338.606C96.1367 337.352 91.9045 334.229 89.2458 329.79L58.2384 278.188C54.7832 272.441 53.7759 265.71 55.4 259.233C57.0203 252.775 61.069 247.325 66.8004 243.881C78.6028 236.799 94.005 240.617 101.107 252.432L138.568 314.786C139.501 316.332 139.782 318.19 139.341 319.947C138.904 321.7 137.787 323.215 136.237 324.144L115.806 336.419C112.753 338.25 109.341 339.191 105.874 339.191V339.191ZM79.657 253.962C77.6658 253.962 75.6512 254.481 73.8241 255.582C71.216 257.148 69.3732 259.627 68.6353 262.551C67.8974 265.483 68.362 268.54 69.9394 271.168L100.943 322.766C101.731 324.074 102.977 324.999 104.457 325.363C105.94 325.73 107.475 325.503 108.779 324.718L123.361 315.961L89.4136 259.459C87.2858 255.922 83.5143 253.962 79.657 253.962ZM70.3103 249.73H70.3766H70.3103Z" fill="#1A428A"/>
<path d="M306.11 271.976L229.997 271.804C229.997 271.804 132.555 217.973 118.032 235.975C103.512 253.974 156.84 279.699 156.84 279.699L135.589 293.079L65.6838 294.347L35.0317 278.168C26.1457 273.479 15.0694 276.927 10.3882 285.68L11.1534 284.247C6.42542 293.086 9.74791 304.1 18.6417 308.883L61.9006 332.16L140.59 342.561C140.59 342.561 170.735 362.129 303.111 336.333" fill="#D7E9FF"/>
<path d="M189.003 356.55C156.793 356.55 142.984 351.439 138.431 349.151L61.0065 338.918C60.1866 338.813 59.394 338.551 58.6679 338.165L15.409 314.888C4.26638 308.891 -0.535821 295.632 3.74321 284.118C3.87595 283.552 4.08288 282.994 4.36789 282.459L5.13311 281.026C5.42203 280.487 5.7695 280.007 6.16773 279.578C13.3671 269.645 27.0632 266.249 38.2136 272.128L67.3157 287.488L133.559 286.281L143.237 280.198C130.681 272.972 112.203 260.275 109.161 246.763C107.931 241.308 109.165 236.096 112.722 231.685C128.788 211.73 200.11 247.602 231.754 264.98L306.126 265.148C309.893 265.155 312.942 268.22 312.931 271.984C312.919 275.752 309.87 278.793 306.106 278.793C306.102 278.793 306.098 278.793 306.09 278.793L229.977 278.621C228.83 278.621 227.701 278.328 226.694 277.766C160.853 241.406 126.555 236.264 123.341 240.254C122.408 241.406 122.166 242.394 122.475 243.768C124.513 252.853 145.533 266.663 159.807 273.557C162.04 274.639 163.512 276.845 163.649 279.32C163.785 281.799 162.571 284.153 160.474 285.477L139.22 298.853C138.17 299.513 136.955 299.872 135.71 299.895L65.8048 301.168C64.6179 301.137 63.513 300.918 62.4979 300.383L31.8419 284.204C26.5244 281.389 19.9575 283.201 16.8067 288.198C14.4096 293.574 16.5725 300.016 21.8744 302.87L64.0323 325.554L141.48 335.795C142.488 335.927 143.452 336.279 144.303 336.833C144.463 336.919 176.107 354.137 301.804 329.634C305.497 328.908 309.089 331.328 309.807 335.026C310.529 338.723 308.113 342.311 304.415 343.029C251.435 353.348 214.466 356.55 189.003 356.55Z" fill="#1A428A"/>
<path d="M302.826 250.062H364.197V366.177H302.826V250.062Z" fill="#2A8EE6"/>
<path d="M364.193 373.002H302.823C299.055 373.002 295.998 369.949 295.998 366.177V250.066C295.998 246.294 299.055 243.241 302.823 243.241H364.193C367.961 243.241 371.018 246.294 371.018 250.066V366.177C371.018 369.949 367.961 373.002 364.193 373.002V373.002ZM309.647 359.353H357.372V256.886H309.647V359.353Z" fill="#1A428A"/>
<path fill-rule="evenodd" clip-rule="evenodd" d="M281.927 106.898C281.927 162.166 237.122 206.971 181.854 206.971C126.586 206.971 81.7809 162.166 81.7809 106.898C81.7809 51.6295 126.586 6.82458 181.854 6.82458C237.122 6.82458 281.927 51.6295 281.927 106.898Z" fill="#1A428A"/>
<path d="M181.858 213.795C122.912 213.795 74.9602 165.84 74.9602 106.898C74.9602 47.9556 122.912 0 181.858 0C240.8 0 288.752 47.9556 288.752 106.898C288.752 165.84 240.8 213.795 181.858 213.795ZM181.858 13.6453C130.435 13.6453 88.6055 55.4791 88.6055 106.898C88.6055 158.32 130.435 200.15 181.858 200.15C233.273 200.15 275.106 158.32 275.106 106.898C275.106 55.4791 233.273 13.6453 181.858 13.6453V13.6453Z" fill="#1A428A"/>
<path d="M263.733 106.898C263.733 162.166 218.928 206.971 163.66 206.971C108.392 206.971 63.5872 162.166 63.5872 106.898C63.5872 51.6295 108.392 6.82458 163.66 6.82458C218.928 6.82458 263.733 51.6295 263.733 106.898Z" fill="#6BC4E8"/>
<path d="M163.66 213.795C104.714 213.795 56.7626 165.84 56.7626 106.898C56.7626 47.9556 104.714 0 163.66 0C222.602 0 270.558 47.9556 270.558 106.898C270.558 165.84 222.602 213.795 163.66 213.795ZM163.66 13.6453C112.242 13.6453 70.4117 55.4791 70.4117 106.898C70.4117 158.32 112.242 200.15 163.66 200.15C215.079 200.15 256.909 158.32 256.909 106.898C256.909 55.4791 215.079 13.6453 163.66 13.6453Z" fill="#1A428A"/>
<path d="M91.5844 74.8206C90.4912 74.8206 89.3785 74.5551 88.3478 74.0007C85.0331 72.2087 83.7994 68.0663 85.5953 64.7516C95.2036 46.9874 110.727 32.9009 129.315 25.0925C132.809 23.6401 136.795 25.2603 138.248 28.739C139.708 32.2177 138.076 36.2156 134.605 37.6758C118.871 44.2856 105.729 56.2091 97.593 71.2443C96.3593 73.5283 94.0128 74.8206 91.5844 74.8206Z" fill="white"/>
<path d="M143.858 69.1907C143.858 68.4723 144.338 67.9999 145.053 67.9999H175.236C192.419 67.9999 200.528 76.5892 200.528 89.5942C200.528 98.7847 196.237 104.028 191.107 106.773V107.011C196.12 108.924 201.961 115.366 201.961 125.271C201.961 141.372 191.821 149.13 174.046 149.13H145.053C144.338 149.13 143.858 148.649 143.858 147.939V69.1907ZM174.885 101.76C182.037 101.76 186.457 97.469 186.457 91.1441C186.457 84.7022 182.037 80.4036 174.885 80.4036H158.651C158.179 80.4036 157.937 80.6457 157.937 81.1181V101.045C157.937 101.522 158.179 101.76 158.651 101.76H174.885ZM158.651 136.722H175.595C183.47 136.722 187.882 132.185 187.882 125.388C187.882 118.704 183.47 114.167 175.595 114.167H158.651C158.179 114.167 157.937 114.406 157.937 114.886V136.004C157.937 136.484 158.179 136.722 158.651 136.722Z" fill="#1A428A"/>
<path d="M165.932 79.6072C162.165 79.6072 159.112 76.5541 159.112 72.7826V59.1373C159.112 55.3658 162.165 52.3127 165.932 52.3127C169.704 52.3127 172.757 55.3658 172.757 59.1373V72.7826C172.757 76.5541 169.704 79.6072 165.932 79.6072Z" fill="#1A428A"/>
<path d="M165.932 161.483C162.165 161.483 159.112 158.43 159.112 154.658V147.837C159.112 144.066 162.165 141.013 165.932 141.013C169.704 141.013 172.757 144.066 172.757 147.837V154.658C172.757 158.43 169.704 161.483 165.932 161.483Z" fill="#1A428A"/>
<path d="M234.167 72.7826C230.399 72.7826 227.342 69.7295 227.342 65.958V38.6675C227.342 34.896 230.399 31.8429 234.167 31.8429C237.934 31.8429 240.987 34.896 240.987 38.6675V65.958C240.987 69.7295 237.934 72.7826 234.167 72.7826Z" fill="white"/>
<path d="M247.812 59.1373H220.521C216.75 59.1373 213.697 56.0842 213.697 52.3127C213.697 48.5413 216.75 45.4882 220.521 45.4882H247.812C251.579 45.4882 254.636 48.5413 254.636 52.3127C254.636 56.0842 251.579 59.1373 247.812 59.1373Z" fill="white"/>
</g>
<defs>
<clipPath id="clip0_1_545">
<rect width="373" height="373" fill="white"/>
</clipPath>
</defs>
</svg>
