<svg width="430" height="430" viewBox="0 0 430 430" fill="none" xmlns="http://www.w3.org/2000/svg">
<path d="M92.2142 306.689C83.6065 311.864 80.7828 322.975 85.9927 331.645L117.448 383.995C120.771 389.525 127.95 391.318 133.48 387.994L154.648 375.274L117.174 312.907C112 304.299 100.888 301.479 92.2142 306.689V306.689Z" fill="#D7E9FF"/>
<path d="M127.497 396.5C125.993 396.5 124.478 396.313 122.982 395.938C118.186 394.739 114.14 391.747 111.593 387.51L80.1384 335.156C76.682 329.408 75.6744 322.674 77.2991 316.195C78.9199 309.735 82.9699 304.283 88.7032 300.839C100.517 293.746 115.921 297.566 123.021 309.392L160.495 371.767C161.428 373.313 161.709 375.172 161.268 376.93C160.83 378.683 159.713 380.195 158.163 381.128L136.995 393.849C134.078 395.598 130.813 396.5 127.497 396.5V396.5ZM101.564 310.923C99.5762 310.923 97.557 311.442 95.7331 312.543C95.7331 312.543 95.7331 312.543 95.7292 312.543C93.1203 314.11 91.2769 316.586 90.5388 319.515C89.8046 322.448 90.2654 325.506 91.8432 328.134L123.298 380.484C123.97 381.597 125.032 382.382 126.29 382.698C127.532 383.011 128.848 382.808 129.961 382.152L145.283 372.946L111.324 316.422C109.199 312.883 105.427 310.923 101.564 310.923V310.923ZM92.2143 306.689H92.2807H92.2143Z" fill="#1A428A"/>
<path d="M328.092 328.943L251.954 328.771C251.954 328.771 154.48 274.921 139.955 292.93C125.427 310.934 178.776 336.668 178.776 336.668L157.515 350.052L87.59 351.321L56.9239 335.137C48.0388 330.446 36.9588 333.895 32.2722 342.651L33.0416 341.218C28.312 350.06 31.6356 361.077 40.5324 365.862L83.8017 389.146L162.518 399.551C162.518 399.551 192.672 419.125 325.097 393.321" fill="#D7E9FF"/>
<path d="M210.946 413.544C178.725 413.544 164.916 408.432 160.362 406.143L82.9073 395.907C82.0872 395.801 81.2943 395.54 80.5679 395.153L37.2986 371.868C26.1484 365.869 21.3446 352.606 25.625 341.089C25.7578 340.523 25.9648 339.964 26.2499 339.429L27.0193 337.996C27.3044 337.457 27.6559 336.976 28.0503 336.547C35.2521 326.611 48.9527 323.213 60.1069 329.095L89.2187 344.459L155.488 343.252L165.165 337.168C152.605 329.939 134.12 317.238 131.082 303.721C129.852 298.265 131.086 293.051 134.64 288.638C150.715 268.688 222.061 304.56 253.715 321.944L328.108 322.112C331.877 322.12 334.927 325.186 334.915 328.95C334.907 332.719 331.853 335.762 328.092 335.762C328.084 335.762 328.08 335.762 328.073 335.762L251.934 335.59C250.79 335.59 249.658 335.297 248.654 334.735C182.787 298.358 148.481 293.223 145.263 297.21C144.329 298.362 144.087 299.35 144.396 300.725C146.438 309.813 167.466 323.627 181.741 330.524C183.974 331.606 185.447 333.813 185.584 336.289C185.724 338.769 184.506 341.124 182.408 342.448L161.151 355.828C160.096 356.488 158.881 356.848 157.636 356.871L87.7111 358.144C86.4926 358.199 85.4147 357.886 84.3992 357.359L53.737 341.175C48.4137 338.363 41.8407 340.163 38.6968 345.17C36.2988 350.548 38.4586 356.992 43.7623 359.847L85.9341 382.534L163.408 392.782C164.416 392.915 165.384 393.267 166.232 393.821C166.392 393.907 198.054 411.134 323.784 386.619C327.487 385.909 331.072 388.314 331.791 392.013C332.513 395.711 330.1 399.301 326.397 400.019C273.403 410.342 236.418 413.544 210.946 413.544V413.544Z" fill="#1A428A"/>
<path d="M276.602 75.0798C276.602 112.776 246.045 143.333 208.349 143.333C170.653 143.333 140.096 112.776 140.096 75.0798C140.096 37.3837 170.653 6.8269 208.349 6.8269C246.045 6.8269 276.602 37.3837 276.602 75.0798Z" fill="#D7E9FF"/>
<path d="M208.349 150.16C166.95 150.16 133.269 116.478 133.269 75.0798C133.269 33.6812 166.95 0 208.349 0C249.747 0 283.429 33.6812 283.429 75.0798C283.429 116.478 249.747 150.16 208.349 150.16V150.16ZM208.349 13.6498C174.476 13.6498 146.919 41.2033 146.919 75.0798C146.919 108.952 174.476 136.51 208.349 136.51C242.218 136.51 269.775 108.952 269.775 75.0798C269.775 41.2033 242.218 13.6498 208.349 13.6498Z" fill="#1A428A"/>
<path d="M160.569 81.9066C156.8 81.9066 153.746 78.8525 153.746 75.0797C153.746 59.4889 160.436 44.6127 172.094 34.2475C174.922 31.7519 179.229 32.0057 181.729 34.8216C184.232 37.6375 183.979 41.9531 181.159 44.4565C172.41 52.2246 167.396 63.3866 167.396 75.0758C167.396 78.8525 164.342 81.9066 160.569 81.9066Z" fill="white"/>
<path d="M259.539 204.763H157.159C147.774 204.763 140.096 197.084 140.096 187.699C140.096 178.314 147.774 170.636 157.159 170.636H259.539C268.924 170.636 276.602 178.314 276.602 187.699C276.602 197.084 268.924 204.763 259.539 204.763Z" fill="#2A8EE6"/>
<path d="M259.539 211.586H157.159C143.986 211.586 133.269 200.869 133.269 187.699C133.269 174.526 143.986 163.809 157.159 163.809H259.539C272.712 163.809 283.429 174.526 283.429 187.699C283.429 200.869 272.712 211.586 259.539 211.586V211.586ZM157.159 177.459C151.512 177.459 146.919 182.052 146.919 187.699C146.919 193.343 151.512 197.936 157.159 197.936H259.539C265.186 197.936 269.775 193.343 269.775 187.699C269.775 182.052 265.186 177.459 259.539 177.459H157.159Z" fill="#1A428A"/>
<path d="M259.539 273.016H157.159C147.774 273.016 140.096 265.337 140.096 255.952C140.096 246.567 147.774 238.889 157.159 238.889H259.539C268.924 238.889 276.602 246.567 276.602 255.952C276.602 265.337 268.924 273.016 259.539 273.016Z" fill="#2A8EE6"/>
<path d="M259.539 279.842H157.159C143.986 279.842 133.269 269.122 133.269 255.952C133.269 242.783 143.986 232.062 157.159 232.062H259.539C272.712 232.062 283.429 242.783 283.429 255.952C283.429 269.122 272.712 279.842 259.539 279.842V279.842ZM157.159 245.716C151.512 245.716 146.919 250.305 146.919 255.952C146.919 261.6 151.512 266.189 157.159 266.189H259.539C265.186 266.189 269.775 261.6 269.775 255.952C269.775 250.305 265.186 245.716 259.539 245.716H157.159Z" fill="#1A428A"/>
<path d="M259.539 238.889H157.159C147.774 238.889 140.096 231.211 140.096 221.826C140.096 212.441 147.774 204.763 157.159 204.763H259.539C268.924 204.763 276.602 212.441 276.602 221.826C276.602 231.211 268.924 238.889 259.539 238.889Z" fill="#2A8EE6"/>
<path d="M259.539 245.716H157.159C143.986 245.716 133.269 234.995 133.269 221.826C133.269 208.653 143.986 197.936 157.159 197.936H259.539C272.712 197.936 283.429 208.653 283.429 221.826C283.429 234.995 272.712 245.716 259.539 245.716V245.716ZM157.159 211.586C151.512 211.586 146.919 216.178 146.919 221.826C146.919 227.473 151.512 232.062 157.159 232.062H259.539C265.186 232.062 269.775 227.473 269.775 221.826C269.775 216.178 265.186 211.586 259.539 211.586H157.159Z" fill="#1A428A"/>
<path d="M188.669 43.2459C188.669 42.6796 189.044 42.3047 189.606 42.3047H213.348C226.857 42.3047 233.239 49.0573 233.239 59.2898C233.239 66.515 229.86 70.6393 225.83 72.799V72.9865C229.767 74.494 234.367 79.5595 234.367 87.3432C234.367 100.013 226.392 106.113 212.407 106.113H189.606C189.044 106.113 188.669 105.738 188.669 105.172V43.2459ZM213.063 68.8583C218.699 68.8583 222.167 65.4801 222.167 60.5083C222.167 55.4429 218.699 52.0607 213.063 52.0607H200.303C199.925 52.0607 199.741 52.2481 199.741 52.6231V68.2999C199.741 68.6748 199.925 68.8583 200.303 68.8583H213.063ZM200.303 96.3571H213.629C219.823 96.3571 223.291 92.7914 223.291 87.4369C223.291 82.184 219.823 78.6182 213.629 78.6182H200.303C199.925 78.6182 199.741 78.8057 199.741 79.1845V95.7869C199.741 96.1697 199.925 96.3571 200.303 96.3571Z" fill="#1A428A"/>
<path d="M338.458 307.021H399.848V423.175H338.458V307.021Z" fill="#2A8EE6"/>
<path d="M399.849 429.998H338.458C334.685 429.998 331.631 426.948 331.631 423.175V307.025C331.631 303.252 334.685 300.198 338.458 300.198H399.849C403.617 300.198 406.675 303.252 406.675 307.025V423.175C406.675 426.948 403.617 429.998 399.849 429.998V429.998ZM345.285 416.348H393.026V313.848H345.285V416.348Z" fill="#1A428A"/>
<path d="M211.762 51.1897C207.994 51.1897 204.936 48.1395 204.936 44.3667V37.5399C204.936 33.7671 207.994 30.713 211.762 30.713C215.531 30.713 218.585 33.7671 218.585 37.5399V44.3667C218.585 48.1395 215.531 51.1897 211.762 51.1897Z" fill="#1A428A"/>
<path d="M211.762 119.443C207.994 119.443 204.936 116.392 204.936 112.62V105.793C204.936 102.02 207.994 98.9698 211.762 98.9698C215.531 98.9698 218.585 102.02 218.585 105.793V112.62C218.585 116.392 215.531 119.443 211.762 119.443Z" fill="#1A428A"/>
<path d="M324.808 307.021H386.199V423.175H324.808V307.021Z" fill="#2A8EE6"/>
<path d="M386.199 429.998H324.804C321.035 429.998 317.981 426.948 317.981 423.175V307.025C317.981 303.252 321.035 300.198 324.804 300.198H386.199C389.968 300.198 393.022 303.252 393.022 307.025V423.175C393.022 426.948 389.968 429.998 386.199 429.998ZM331.631 416.348H379.376V313.848H331.631V416.348Z" fill="#1A428A"/>
<path d="M378.985 368.572C375.212 368.572 372.158 365.518 372.158 361.745V334.446C372.158 330.673 375.212 327.619 378.985 327.619C382.754 327.619 385.808 330.673 385.808 334.446V361.745C385.808 365.518 382.754 368.572 378.985 368.572Z" fill="white"/>
<path d="M392.635 354.922H365.331C361.563 354.922 358.509 351.868 358.509 348.095C358.509 344.323 361.563 341.269 365.331 341.269H392.635C396.404 341.269 399.458 344.323 399.458 348.095C399.458 351.868 396.404 354.922 392.635 354.922V354.922Z" fill="white"/>
</svg>
