<svg width="395" height="395" viewBox="0 0 395 395" fill="none" xmlns="http://www.w3.org/2000/svg">
<path d="M136.209 102.489C72.2642 102.489 20.4314 154.322 20.4314 218.263C20.4314 282.203 72.2642 334.04 136.209 334.04C200.149 334.04 251.982 282.203 251.982 218.263C251.982 154.322 200.149 102.489 136.209 102.489Z" fill="#1A428A"/>
<path d="M136.209 340.848C68.6128 340.848 13.6196 285.855 13.6196 218.263C13.6196 150.671 68.6128 95.6776 136.209 95.6776C203.801 95.6776 258.794 150.671 258.794 218.263C258.794 285.855 203.801 340.848 136.209 340.848ZM136.209 109.297C76.1261 109.297 27.2432 158.18 27.2432 218.263C27.2432 278.345 76.1261 327.228 136.209 327.228C196.291 327.228 245.174 278.345 245.174 218.263C245.174 158.18 196.291 109.297 136.209 109.297V109.297Z" fill="#1A428A"/>
<path d="M122.585 102.489C58.6446 102.489 6.81177 154.322 6.81177 218.263C6.81177 282.203 58.6446 334.04 122.585 334.04C186.529 334.04 238.362 282.203 238.362 218.263C238.362 154.322 186.526 102.489 122.585 102.489Z" fill="#6BC4E8"/>
<path d="M122.585 340.848C54.9932 340.848 0 285.855 0 218.263C0 150.671 54.9932 95.6776 122.585 95.6776C190.181 95.6776 245.174 150.671 245.174 218.263C245.174 285.855 190.181 340.848 122.585 340.848ZM122.585 109.297C62.5025 109.297 13.6197 158.18 13.6197 218.263C13.6197 278.345 62.5025 327.228 122.585 327.228C182.668 327.228 231.551 278.345 231.551 218.263C231.551 158.18 182.668 109.297 122.585 109.297V109.297Z" fill="#1A428A"/>
<path d="M122.585 136.541C77.4511 136.541 40.863 173.129 40.863 218.263C40.863 263.397 77.4511 299.989 122.585 299.989C167.723 299.989 204.311 263.397 204.311 218.263C204.311 173.129 167.723 136.541 122.585 136.541Z" fill="#D7E9FF"/>
<path d="M122.585 306.797C73.7647 306.797 34.0513 267.079 34.0513 218.263C34.0513 169.446 73.7647 129.729 122.585 129.729C171.406 129.729 211.119 169.446 211.119 218.263C211.119 267.079 171.406 306.797 122.585 306.797ZM122.585 143.349C81.2779 143.349 47.671 176.956 47.671 218.263C47.671 259.57 81.2779 293.177 122.585 293.177C163.896 293.177 197.499 259.57 197.499 218.263C197.499 176.956 163.896 143.349 122.585 143.349Z" fill="#1A428A"/>
<path d="M61.2945 225.075C57.5339 225.075 54.4827 222.027 54.4827 218.263C54.4827 198.692 62.9195 180.042 77.6303 167.104C80.4556 164.626 84.7578 164.91 87.244 167.724C89.7263 170.545 89.4496 174.847 86.6244 177.333C74.8557 187.684 68.1024 202.601 68.1024 218.263C68.1024 222.027 65.055 225.075 61.2945 225.075Z" fill="white"/>
<path d="M100.552 180.626C100.552 179.909 101.031 179.438 101.744 179.438H131.871C149.022 179.438 157.116 188.011 157.116 200.992C157.116 210.165 152.833 215.399 147.712 218.138V218.376C152.716 220.285 158.546 226.715 158.546 236.602C158.546 252.676 148.426 260.416 130.679 260.416H101.744C101.031 260.416 100.552 259.936 100.552 259.227V180.626ZM131.517 213.134C138.66 213.134 143.071 208.852 143.071 202.539C143.071 196.109 138.66 191.818 131.517 191.818H115.317C114.846 191.818 114.604 192.06 114.604 192.531V212.425C114.604 212.897 114.846 213.134 115.317 213.134H131.517ZM115.317 248.031H132.23C140.09 248.031 144.494 243.503 144.494 236.719C144.494 230.047 140.09 225.519 132.23 225.519H115.317C114.846 225.519 114.604 225.757 114.604 226.236V247.314C114.604 247.794 114.846 248.031 115.317 248.031Z" fill="#1A428A"/>
<path d="M122.585 191.023C118.825 191.023 115.777 187.976 115.777 184.212V170.592C115.777 166.827 118.825 163.78 122.585 163.78C126.346 163.78 129.397 166.827 129.397 170.592V184.212C129.397 187.976 126.346 191.023 122.585 191.023Z" fill="#1A428A"/>
<path d="M122.585 272.745C118.825 272.745 115.777 269.702 115.777 265.938V259.126C115.777 255.361 118.825 252.314 122.585 252.314C126.346 252.314 129.397 255.361 129.397 259.126V265.938C129.397 269.702 126.346 272.745 122.585 272.745Z" fill="#1A428A"/>
<path d="M181.756 61.6265H221.567C223.648 61.6265 225.69 62.1681 227.498 63.2008L272.414 88.8659H333.708V178.082L279.225 177.4L264.55 188.409C257.184 193.93 246.986 193.669 239.913 187.777L217.533 169.123C213.282 165.58 209.576 161.43 206.536 156.809L196.342 141.299C190.691 132.71 179.235 130.173 170.486 135.574L139.774 154.548C132.152 161.945 125.668 163.18 119.421 161.894C107.321 159.396 88.5339 154.778 88.5339 150.16C88.5339 144.155 157.373 79.903 173.65 64.7947C175.86 62.741 178.74 61.6265 181.756 61.6265V61.6265Z" fill="#D7E9FF"/>
<path d="M252.625 199.215C246.561 199.215 240.51 197.134 235.557 193.011L213.173 174.352C208.403 170.377 204.253 165.728 200.843 160.542L190.653 145.044C186.997 139.475 179.706 137.873 174.067 141.365L143.964 159.969C135.788 167.65 127.324 170.463 118.045 168.562C87.665 162.299 81.7261 157.07 81.7261 150.16C81.7261 146.224 81.7261 140.835 169.017 59.8026C172.481 56.5838 177.006 54.8146 181.752 54.8146H221.563C224.821 54.8146 228.039 55.6719 230.873 57.2891L274.222 82.0579H333.708C337.469 82.0579 340.516 85.1014 340.516 88.8658V178.078C340.516 179.902 339.787 181.643 338.493 182.929C337.204 184.204 335.469 184.738 333.626 184.89L281.454 184.239L268.637 193.852C263.86 197.434 258.237 199.215 252.625 199.215V199.215ZM180.517 125.886C188.895 125.886 197.055 129.994 202.028 137.558L212.226 153.06C214.895 157.128 218.149 160.772 221.886 163.885L244.274 182.54C248.946 186.437 255.602 186.596 260.466 182.961L275.138 171.952C276.338 171.048 277.717 170.635 279.307 170.588L326.896 171.184V95.6776H272.414C271.229 95.6776 270.064 95.3697 269.035 94.7813L224.119 69.1162C223.344 68.6681 222.455 68.4382 221.567 68.4382H181.756C180.45 68.4382 179.223 68.9175 178.284 69.7865C137.277 107.848 106.487 137.998 97.4384 148.839C100.821 150.262 107.605 152.502 120.8 155.222C124.425 155.986 128.68 155.826 135.036 149.661C135.387 149.319 135.78 149.018 136.197 148.757L166.909 129.783C171.168 127.141 175.879 125.886 180.517 125.886V125.886Z" fill="#1A428A"/>
<path d="M333.708 75.2461H388.191V204.643H333.708V75.2461Z" fill="#2A8EE6"/>
<path d="M394.999 211.455H326.896V68.4343H394.999V211.455ZM340.516 197.831H381.379V82.0579H340.516V197.831Z" fill="#1A428A"/>
<path d="M354.14 95.6776H367.759V109.297H354.14V95.6776Z" fill="#2A8EE6"/>
<path d="M347.328 88.8658H374.567V116.109H347.328V88.8658Z" fill="#1A428A"/>
<path d="M217.931 293.177C214.17 293.177 211.119 290.13 211.119 286.365V259.126C211.119 255.361 214.17 252.314 217.931 252.314C221.691 252.314 224.743 255.361 224.743 259.126V286.365C224.743 290.13 221.691 293.177 217.931 293.177Z" fill="white"/>
<path d="M231.55 279.557H204.311C200.551 279.557 197.499 276.51 197.499 272.745C197.499 268.981 200.551 265.938 204.311 265.938H231.55C235.311 265.938 238.362 268.981 238.362 272.745C238.362 276.51 235.311 279.557 231.55 279.557Z" fill="white"/>
</svg>
