<svg width="409" height="409" viewBox="0 0 409 409" fill="none" xmlns="http://www.w3.org/2000/svg">
<g clip-path="url(#clip0_1_607)">
<path fill-rule="evenodd" clip-rule="evenodd" d="M34.8542 272.666V313.567C34.8542 336.155 89.7893 354.468 157.557 354.468C225.321 354.468 280.256 336.155 280.256 313.567V272.666H34.8542Z" fill="#1A428A"/>
<path d="M157.557 361.282C94.7664 361.282 28.04 344.561 28.04 313.567V272.666C28.04 268.898 31.0864 265.848 34.8543 265.848H280.256C284.024 265.848 287.07 268.898 287.07 272.666V313.567C287.07 344.561 220.344 361.282 157.557 361.282V361.282ZM41.6724 279.485V313.567C41.6724 327.8 85.76 347.65 157.557 347.65C229.35 347.65 273.438 327.8 273.438 313.567V279.485H41.6724Z" fill="#1A428A"/>
<path d="M34.8542 252.216V293.117C34.8542 315.705 89.7893 334.018 157.557 334.018C225.321 334.018 280.256 315.705 280.256 293.117V252.216H34.8542Z" fill="#D7E9FF"/>
<path d="M157.557 340.832C94.7664 340.832 28.04 324.11 28.04 293.117V252.216C28.04 248.448 31.0864 245.402 34.8543 245.402H280.256C284.024 245.402 287.07 248.448 287.07 252.216V293.117C287.07 324.11 220.344 340.832 157.557 340.832V340.832ZM41.6724 259.034V293.117C41.6724 307.35 85.76 327.2 157.557 327.2C229.35 327.2 273.438 307.35 273.438 293.117V259.034H41.6724Z" fill="#1A428A"/>
<path d="M34.8542 211.315V252.216C34.8542 274.804 89.7893 293.117 157.557 293.117C225.321 293.117 280.256 274.804 280.256 252.216V211.315H34.8542Z" fill="#6BC4E8"/>
<path d="M157.557 299.935C94.7664 299.935 28.04 283.213 28.04 252.216V211.315C28.04 207.547 31.0864 204.501 34.8543 204.501H280.256C284.024 204.501 287.07 207.547 287.07 211.315V252.216C287.07 283.213 220.344 299.935 157.557 299.935V299.935ZM41.6724 218.133V252.216C41.6724 266.449 85.76 286.299 157.557 286.299C229.35 286.299 273.438 266.449 273.438 252.216V218.133H41.6724Z" fill="#1A428A"/>
<path d="M34.8542 170.418V211.315C34.8542 233.907 89.7893 252.216 157.557 252.216C225.321 252.216 280.256 233.907 280.256 211.315V170.418H34.8542Z" fill="#D7E9FF"/>
<path d="M157.557 259.034C94.7664 259.034 28.04 242.313 28.04 211.315V170.418C28.04 166.65 31.0864 163.6 34.8543 163.6H280.256C284.024 163.6 287.07 166.65 287.07 170.418V211.315C287.07 242.313 220.344 259.034 157.557 259.034V259.034ZM41.6724 177.232V211.315C41.6724 225.548 85.76 245.402 157.557 245.402C229.35 245.402 273.438 225.548 273.438 211.315V177.232H41.6724Z" fill="#1A428A"/>
<path d="M34.8542 129.517V170.418C34.8542 193.006 89.7893 211.315 157.557 211.315C225.321 211.315 280.256 193.006 280.256 170.418V129.517H34.8542Z" fill="#6BC4E8"/>
<path d="M157.557 218.133C94.7664 218.133 28.04 201.412 28.04 170.418V129.517C28.04 125.749 31.0864 122.699 34.8543 122.699H280.256C284.024 122.699 287.07 125.749 287.07 129.517V170.418C287.07 201.412 220.344 218.133 157.557 218.133V218.133ZM41.6724 136.335V170.418C41.6724 184.651 85.76 204.501 157.557 204.501C229.35 204.501 273.438 184.651 273.438 170.418V136.335H41.6724Z" fill="#1A428A"/>
<path d="M34.8542 88.6161V129.517C34.8542 152.105 89.7893 170.418 157.557 170.418C225.321 170.418 280.256 152.105 280.256 129.517V88.6161H34.8542Z" fill="#D7E9FF"/>
<path d="M157.557 177.232C94.7664 177.232 28.04 160.511 28.04 129.517V88.6161C28.04 84.8482 31.0864 81.8019 34.8543 81.8019H280.256C284.024 81.8019 287.07 84.8482 287.07 88.6161V129.517C287.07 160.511 220.344 177.232 157.557 177.232V177.232ZM41.6724 95.4342V129.517C41.6724 143.75 85.76 163.6 157.557 163.6C229.35 163.6 273.438 143.75 273.438 129.517V95.4342H41.6724Z" fill="#1A428A"/>
<path d="M34.8542 47.7152V88.6161C34.8542 111.204 89.7893 129.517 157.557 129.517C225.321 129.517 280.256 111.204 280.256 88.6161V47.7152H34.8542Z" fill="#6BC4E8"/>
<path d="M157.557 136.335C94.7664 136.335 28.04 119.614 28.04 88.616V47.7151C28.04 43.9472 31.0864 40.9009 34.8543 40.9009H280.256C284.024 40.9009 287.07 43.9472 287.07 47.7151V88.616C287.07 119.614 220.344 136.335 157.557 136.335V136.335ZM41.6724 54.5332V88.616C41.6724 102.849 85.76 122.699 157.557 122.699C229.35 122.699 273.438 102.849 273.438 88.616V54.5332H41.6724Z" fill="#1A428A"/>
<path d="M280.256 47.7152C280.256 25.1272 225.321 6.81812 157.557 6.81812C89.7893 6.81812 34.8542 25.1272 34.8542 47.7152C34.8542 70.307 89.7893 88.6161 157.557 88.6161C225.321 88.6161 280.256 70.307 280.256 47.7152Z" fill="#D7E9FF"/>
<path d="M157.557 95.4342C94.7664 95.4342 28.04 78.7127 28.04 47.7152C28.04 16.7216 94.7664 0 157.557 0C220.344 0 287.07 16.7216 287.07 47.7152C287.07 78.7127 220.344 95.4342 157.557 95.4342V95.4342ZM157.557 13.6323C85.76 13.6323 41.6724 33.4821 41.6724 47.7152C41.6724 61.9482 85.76 81.8019 157.557 81.8019C229.35 81.8019 273.438 61.9482 273.438 47.7152C273.438 33.4821 229.35 13.6323 157.557 13.6323Z" fill="#1A428A"/>
<path d="M86.6456 40.8463C83.5642 40.8463 80.7675 38.7439 80.0225 35.6079C79.1488 31.9492 81.415 28.271 85.0776 27.4012C100.34 23.7659 121.009 21.3827 143.277 20.6767C146.924 20.3061 150.185 23.5006 150.298 27.2764C150.419 31.0365 147.47 34.1842 143.703 34.2973C122.328 34.976 102.63 37.2422 88.2292 40.663C87.6988 40.7878 87.1722 40.8463 86.6456 40.8463Z" fill="white"/>
<path d="M293.888 197.683C237.416 197.683 191.64 243.463 191.64 299.935C191.64 356.403 237.416 402.183 293.888 402.183C350.36 402.183 396.141 356.403 396.141 299.935C396.141 243.463 350.36 197.683 293.888 197.683V197.683Z" fill="#6BC4E8"/>
<path d="M293.888 409.002C233.75 409.002 184.822 360.073 184.822 299.935C184.822 239.797 233.75 190.868 293.888 190.868C354.027 190.868 402.955 239.797 402.955 299.935C402.955 360.073 354.027 409.002 293.888 409.002ZM293.888 204.501C241.266 204.501 198.454 247.309 198.454 299.935C198.454 352.557 241.266 395.365 293.888 395.365C346.51 395.365 389.323 352.557 389.323 299.935C389.323 247.309 346.51 204.501 293.888 204.501V204.501Z" fill="#1A428A"/>
<path d="M293.888 218.133C248.712 218.133 212.09 254.755 212.09 299.935C212.09 345.111 248.712 381.733 293.888 381.733C339.068 381.733 375.69 345.111 375.69 299.935C375.69 254.755 339.068 218.133 293.888 218.133Z" fill="#D7E9FF"/>
<path d="M293.888 388.551C245.026 388.551 205.272 348.797 205.272 299.935C205.272 251.073 245.026 211.315 293.888 211.315C342.75 211.315 382.504 251.073 382.504 299.935C382.504 348.797 342.75 388.551 293.888 388.551V388.551ZM293.888 224.951C252.543 224.951 218.905 258.585 218.905 299.935C218.905 341.281 252.543 374.915 293.888 374.915C335.234 374.915 368.872 341.281 368.872 299.935C368.872 258.585 335.234 224.951 293.888 224.951V224.951Z" fill="#1A428A"/>
<path d="M271.835 262.264C271.835 261.542 272.314 261.07 273.028 261.07H303.183C320.349 261.07 328.451 269.651 328.451 282.648C328.451 291.826 324.164 297.064 319.039 299.806V300.048C324.047 301.959 329.882 308.395 329.882 318.287C329.882 334.377 319.753 342.127 301.99 342.127H273.028C272.314 342.127 271.835 341.647 271.835 340.933V262.264ZM302.828 294.802C309.978 294.802 314.393 290.511 314.393 284.196C314.393 277.76 309.978 273.466 302.828 273.466H286.614C286.142 273.466 285.9 273.704 285.9 274.176V294.088C285.9 294.56 286.142 294.802 286.614 294.802H302.828ZM286.614 329.727H303.542C311.409 329.727 315.817 325.195 315.817 318.404C315.817 311.726 311.409 307.194 303.542 307.194H286.614C286.142 307.194 285.9 307.436 285.9 307.915V329.009C285.9 329.489 286.142 329.727 286.614 329.727Z" fill="#1A428A"/>
<path d="M293.888 272.666C290.121 272.666 287.07 269.616 287.07 265.848V252.216C287.07 248.448 290.121 245.402 293.888 245.402C297.656 245.402 300.707 248.448 300.707 252.216V265.848C300.707 269.616 297.656 272.666 293.888 272.666Z" fill="#1A428A"/>
<path d="M293.888 354.468C290.121 354.468 287.07 351.418 287.07 347.65V340.832C287.07 337.064 290.121 334.018 293.888 334.018C297.656 334.018 300.707 337.064 300.707 340.832V347.65C300.707 351.418 297.656 354.468 293.888 354.468Z" fill="#1A428A"/>
<path d="M327.971 143.149C324.203 143.149 321.157 140.103 321.157 136.335V109.067C321.157 105.299 324.203 102.248 327.971 102.248C331.739 102.248 334.789 105.299 334.789 109.067V136.335C334.789 140.103 331.739 143.149 327.971 143.149Z" fill="#1A428A"/>
<path d="M341.607 129.517H314.339C310.571 129.517 307.521 126.467 307.521 122.699C307.521 118.931 310.571 115.885 314.339 115.885H341.607C345.375 115.885 348.422 118.931 348.422 122.699C348.422 126.467 345.375 129.517 341.607 129.517V129.517Z" fill="#1A428A"/>
<path d="M28.04 402.183C24.2721 402.183 21.2219 399.133 21.2219 395.365V368.101C21.2219 364.333 24.2721 361.282 28.04 361.282C31.808 361.282 34.8543 364.333 34.8543 368.101V395.365C34.8543 399.133 31.808 402.183 28.04 402.183Z" fill="#1A428A"/>
<path d="M41.6724 388.551H14.4038C10.6359 388.551 7.5896 385.501 7.5896 381.733C7.5896 377.965 10.6359 374.915 14.4038 374.915H41.6724C45.4403 374.915 48.4905 377.965 48.4905 381.733C48.4905 385.501 45.4403 388.551 41.6724 388.551Z" fill="#1A428A"/>
</g>
<defs>
<clipPath id="clip0_1_607">
<rect width="409" height="409" fill="white"/>
</clipPath>
</defs>
</svg>
