<svg width="416" height="416" viewBox="0 0 416 416" fill="none" xmlns="http://www.w3.org/2000/svg">
<g clip-path="url(#clip0_1_637)">
<path d="M347.817 174.359H272.361C269.958 174.359 267.738 173.098 266.505 171.035L248.317 140.604H156.908C153.144 140.604 150.093 137.557 150.093 133.788C150.093 130.02 153.144 126.969 156.908 126.969H252.183C254.587 126.969 256.806 128.225 258.039 130.293L276.227 160.719H347.817C351.586 160.719 354.637 163.77 354.637 167.539C354.637 171.308 351.586 174.359 347.817 174.359V174.359Z" fill="#1A428A"/>
<path fill-rule="evenodd" clip-rule="evenodd" d="M368.272 167.539C368.272 175.069 362.166 181.174 354.637 181.174C347.107 181.174 341.001 175.069 341.001 167.539C341.001 160.009 347.107 153.904 354.637 153.904C362.166 153.904 368.272 160.009 368.272 167.539Z" fill="#1A428A"/>
<path fill-rule="evenodd" clip-rule="evenodd" d="M416.001 215.264C416.001 222.798 409.896 228.904 402.362 228.904C394.832 228.904 388.727 222.798 388.727 215.264C388.727 207.735 394.832 201.629 402.362 201.629C409.896 201.629 416.001 207.735 416.001 215.264V215.264Z" fill="#1A428A"/>
<path fill-rule="evenodd" clip-rule="evenodd" d="M381.911 262.993C381.911 270.523 375.805 276.629 368.272 276.629C360.742 276.629 354.637 270.523 354.637 262.993C354.637 255.46 360.742 249.354 368.272 249.354C375.805 249.354 381.911 255.46 381.911 262.993Z" fill="#1A428A"/>
<path fill-rule="evenodd" clip-rule="evenodd" d="M109.09 126.63C52.6058 126.63 6.81958 172.42 6.81958 228.903C6.81958 285.383 52.6058 331.173 109.09 331.173C165.573 331.173 211.36 285.383 211.36 228.903C211.36 172.42 165.573 126.63 109.09 126.63Z" fill="#1A428A"/>
<path d="M109.09 337.993C48.9386 337.993 0 289.054 0 228.903C0 168.752 48.9386 119.81 109.09 119.81C169.241 119.81 218.179 168.752 218.179 228.903C218.179 289.054 169.241 337.993 109.09 337.993ZM109.09 133.449C56.4565 133.449 13.6352 176.266 13.6352 228.903C13.6352 281.537 56.4565 324.354 109.09 324.354C161.723 324.354 204.544 281.537 204.544 228.903C204.544 176.266 161.723 133.449 109.09 133.449Z" fill="#1A428A"/>
<path d="M395.546 222.084H156.815C153.05 222.084 149.999 219.033 149.999 215.264C149.999 211.496 153.05 208.449 156.815 208.449H395.546C399.311 208.449 402.366 211.496 402.366 215.264C402.366 219.033 399.311 222.084 395.546 222.084Z" fill="#1A428A"/>
<path d="M286.305 297.083H149.995C146.231 297.083 143.18 294.033 143.18 290.264C143.18 286.495 146.231 283.448 149.995 283.448H283.449L308.269 258.21C309.553 256.903 311.305 256.174 313.13 256.174H361.456C365.221 256.174 368.272 259.225 368.272 262.993C368.272 266.762 365.221 269.809 361.456 269.809H315.99L291.166 295.047C289.886 296.35 288.134 297.083 286.305 297.083Z" fill="#1A428A"/>
<path d="M109.09 112.994C52.6058 112.994 6.81958 158.781 6.81958 215.264C6.81958 271.748 52.6058 317.538 109.09 317.538C165.573 317.538 211.36 271.748 211.36 215.264C211.36 158.781 165.573 112.994 109.09 112.994V112.994Z" fill="#D7E9FF"/>
<path d="M109.09 324.354C48.9386 324.354 0 275.415 0 215.264C0 155.113 48.9386 106.175 109.09 106.175C169.241 106.175 218.179 155.113 218.179 215.264C218.179 275.415 169.241 324.354 109.09 324.354ZM109.09 119.81C56.4565 119.81 13.6352 162.631 13.6352 215.264C13.6352 267.901 56.4565 310.719 109.09 310.719C161.723 310.719 204.544 267.901 204.544 215.264C204.544 162.631 161.723 119.81 109.09 119.81Z" fill="#1A428A"/>
<path d="M109.09 133.449C63.9042 133.449 27.2744 170.079 27.2744 215.264C27.2744 260.45 63.9042 297.083 109.09 297.083C154.275 297.083 190.909 260.45 190.909 215.264C190.909 170.079 154.275 133.449 109.09 133.449Z" fill="#D7E9FF"/>
<path d="M109.09 303.899C60.2135 303.899 20.4548 264.137 20.4548 215.264C20.4548 166.392 60.2135 126.63 109.09 126.63C157.966 126.63 197.724 166.392 197.724 215.264C197.724 264.137 157.962 303.899 109.09 303.899ZM109.09 140.265C67.7353 140.265 34.0901 173.91 34.0901 215.264C34.0901 256.619 67.7353 290.264 109.09 290.264C150.444 290.264 184.089 256.619 184.089 215.264C184.089 173.91 150.444 140.265 109.09 140.265Z" fill="#1A428A"/>
<path d="M47.7253 222.084C43.9605 222.084 40.9097 219.033 40.9097 215.264C40.9097 192.508 52.1963 171.339 71.1061 158.636C74.2233 156.533 78.468 157.364 80.5708 160.493C82.6697 163.618 81.8388 167.859 78.7099 169.954C63.5804 180.125 54.5449 197.061 54.5449 215.264C54.5449 219.033 51.494 222.084 47.7253 222.084Z" fill="white"/>
<path d="M87.0312 177.585C87.0312 176.867 87.5072 176.395 88.2212 176.395H118.383C135.552 176.395 143.655 184.978 143.655 197.974C143.655 207.157 139.368 212.397 134.242 215.139V215.381C139.251 217.289 145.087 223.73 145.087 233.624C145.087 249.717 134.955 257.465 117.193 257.465H88.2212C87.5072 257.465 87.0312 256.985 87.0312 256.275V177.585ZM118.031 210.13C125.183 210.13 129.595 205.843 129.595 199.522C129.595 193.085 125.183 188.79 118.031 188.79H101.81C101.338 188.79 101.1 189.032 101.1 189.504V209.42C101.1 209.892 101.338 210.13 101.81 210.13H118.031ZM101.81 245.067H118.745C126.614 245.067 131.023 240.533 131.023 233.741C131.023 227.062 126.614 222.529 118.745 222.529H101.81C101.338 222.529 101.1 222.771 101.1 223.246V244.349C101.1 244.829 101.338 245.067 101.81 245.067Z" fill="#1A428A"/>
<path d="M109.09 187.994C105.325 187.994 102.27 184.943 102.27 181.174V167.539C102.27 163.77 105.325 160.719 109.09 160.719C112.854 160.719 115.909 163.77 115.909 167.539V181.174C115.909 184.943 112.854 187.994 109.09 187.994Z" fill="#1A428A"/>
<path d="M109.09 269.809C105.325 269.809 102.27 266.762 102.27 262.993V256.174C102.27 252.405 105.325 249.354 109.09 249.354C112.854 249.354 115.909 252.405 115.909 256.174V262.993C115.909 266.762 112.854 269.809 109.09 269.809Z" fill="#1A428A"/>
<path d="M211.36 358.444C207.595 358.444 204.544 355.397 204.544 351.628V324.354C204.544 320.585 207.595 317.538 211.36 317.538C215.128 317.538 218.179 320.585 218.179 324.354V351.628C218.179 355.397 215.128 358.444 211.36 358.444V358.444Z" fill="#1A428A"/>
<path d="M224.999 344.809H197.724C193.96 344.809 190.909 341.762 190.909 337.993C190.909 334.224 193.96 331.173 197.724 331.173H224.999C228.764 331.173 231.814 334.224 231.814 337.993C231.814 341.762 228.764 344.809 224.999 344.809Z" fill="#1A428A"/>
<path d="M102.27 99.359C98.5052 99.359 95.4543 96.3082 95.4543 92.5395V65.2651C95.4543 61.4964 98.5052 58.4495 102.27 58.4495C106.039 58.4495 109.09 61.4964 109.09 65.2651V92.5395C109.09 96.3082 106.039 99.359 102.27 99.359Z" fill="#1A428A"/>
<path d="M115.909 85.7199H88.6348C84.8699 85.7199 81.8191 82.673 81.8191 78.9043C81.8191 75.1356 84.8699 72.0847 88.6348 72.0847H115.909C119.674 72.0847 122.725 75.1356 122.725 78.9043C122.725 82.673 119.674 85.7199 115.909 85.7199Z" fill="#1A428A"/>
</g>
<defs>
<clipPath id="clip0_1_637">
<rect width="416" height="416" fill="white"/>
</clipPath>
</defs>
</svg>
