<svg width="410" height="410" viewBox="0 0 410 410" fill="none" xmlns="http://www.w3.org/2000/svg">
<g clip-path="url(#clip0_1_683)">
<path d="M40.9609 68.3359C40.9609 53.2148 53.207 40.9609 68.3359 40.9609H341.266C356.383 40.9609 368.641 53.207 368.641 68.3359V341.266C368.641 356.383 356.395 368.641 341.266 368.641H68.3359C53.2148 368.641 40.9609 356.395 40.9609 341.266V68.3359Z" fill="#2A8EE6"/>
<path d="M341.266 375.465H68.332C49.4727 375.465 34.1328 360.129 34.1328 341.266V68.332C34.1328 49.4727 49.4727 34.1328 68.332 34.1328H341.266C360.129 34.1328 375.465 49.4727 375.465 68.332V341.266C375.465 360.129 360.129 375.465 341.266 375.465V375.465ZM68.332 47.7852C57.0078 47.7852 47.7852 57.0078 47.7852 68.332V341.266C47.7852 352.594 57.0078 361.812 68.332 361.812H341.266C352.594 361.812 361.812 352.594 361.812 341.266V68.332C361.812 57.0078 352.594 47.7852 341.266 47.7852H68.332Z" fill="#1A428A"/>
<path d="M40.9609 68.3359C40.9609 53.2148 53.207 40.9609 68.3359 40.9609H341.266C356.383 40.9609 368.641 53.207 368.641 68.3359V341.266C368.641 356.383 356.395 368.641 341.266 368.641H68.3359C53.2148 368.641 40.9609 356.395 40.9609 341.266V68.3359Z" fill="#2A8EE6"/>
<path d="M341.266 375.465H68.332C49.4727 375.465 34.1328 360.129 34.1328 341.266V68.332C34.1328 49.4727 49.4727 34.1328 68.332 34.1328H341.266C360.129 34.1328 375.465 49.4727 375.465 68.332V341.266C375.465 360.129 360.129 375.465 341.266 375.465V375.465ZM68.332 47.7852C57.0078 47.7852 47.7852 57.0078 47.7852 68.332V341.266C47.7852 352.594 57.0078 361.812 68.332 361.812H341.266C352.594 361.812 361.812 352.594 361.812 341.266V68.332C361.812 57.0078 352.594 47.7852 341.266 47.7852H68.332Z" fill="#1A428A"/>
<path fill-rule="evenodd" clip-rule="evenodd" d="M109.227 125.195C109.227 116.375 116.371 109.227 125.195 109.227H284.402C293.223 109.227 300.371 116.371 300.371 125.195V284.402C300.371 293.223 293.227 300.371 284.402 300.371H125.195C116.375 300.371 109.227 293.227 109.227 284.402V125.195Z" fill="#1A428A"/>
<path d="M284.406 307.199H125.195C112.625 307.199 102.398 296.973 102.398 284.406V125.195C102.398 112.625 112.625 102.398 125.191 102.398H284.406C296.973 102.398 307.199 112.625 307.199 125.191V284.406C307.199 296.973 296.973 307.199 284.406 307.199V307.199ZM125.191 116.055C120.152 116.055 116.055 120.152 116.055 125.191V284.406C116.055 289.445 120.152 293.547 125.191 293.547H284.406C289.445 293.547 293.547 289.445 293.547 284.406V125.191C293.547 120.152 289.445 116.055 284.406 116.055H125.191Z" fill="#1A428A"/>
<path d="M129.707 142.254C129.707 135.324 135.32 129.707 142.254 129.707H267.348C274.273 129.707 279.891 135.32 279.891 142.254V267.348C279.891 274.273 274.277 279.891 267.348 279.891H142.254C135.324 279.891 129.707 274.277 129.707 267.348V142.254Z" fill="#D7E9FF"/>
<path d="M267.348 286.719H142.254C131.57 286.719 122.879 278.027 122.879 267.348V142.254C122.879 131.57 131.57 122.879 142.254 122.879H267.348C278.027 122.879 286.719 131.57 286.719 142.254V267.348C286.719 278.027 278.027 286.719 267.348 286.719V286.719ZM142.254 136.535C139.102 136.535 136.535 139.102 136.535 142.254V267.348C136.535 270.5 139.102 273.07 142.254 273.07H267.348C270.5 273.07 273.07 270.5 273.07 267.348V142.254C273.07 139.102 270.5 136.535 267.348 136.535H142.254Z" fill="#1A428A"/>
<path d="M402.773 102.398H375.465C371.691 102.398 368.641 99.3477 368.641 95.5742C368.641 91.8008 371.691 88.7461 375.465 88.7461H402.773C406.547 88.7461 409.602 91.8008 409.602 95.5742C409.602 99.3477 406.547 102.398 402.773 102.398V102.398Z" fill="#1A428A"/>
<path d="M34.1328 102.398H6.82812C3.05469 102.398 0 99.3477 0 95.5742C0 91.8008 3.05469 88.7461 6.82812 88.7461H34.1328C37.9063 88.7461 40.9609 91.8008 40.9609 95.5742C40.9609 99.3477 37.9063 102.398 34.1328 102.398Z" fill="#1A428A"/>
<path d="M402.773 157.012H375.465C371.691 157.012 368.641 153.961 368.641 150.188C368.641 146.414 371.691 143.359 375.465 143.359H402.773C406.547 143.359 409.602 146.414 409.602 150.188C409.602 153.961 406.547 157.012 402.773 157.012V157.012Z" fill="#1A428A"/>
<path d="M34.1328 157.012H6.82812C3.05469 157.012 0 153.961 0 150.188C0 146.414 3.05469 143.359 6.82812 143.359H34.1328C37.9063 143.359 40.9609 146.414 40.9609 150.188C40.9609 153.961 37.9063 157.012 34.1328 157.012Z" fill="#1A428A"/>
<path d="M402.773 211.625H375.465C371.691 211.625 368.641 208.574 368.641 204.801C368.641 201.027 371.691 197.973 375.465 197.973H402.773C406.547 197.973 409.602 201.027 409.602 204.801C409.602 208.574 406.547 211.625 402.773 211.625V211.625Z" fill="#1A428A"/>
<path d="M34.1328 211.625H6.82812C3.05469 211.625 0 208.574 0 204.801C0 201.027 3.05469 197.973 6.82812 197.973H34.1328C37.9063 197.973 40.9609 201.027 40.9609 204.801C40.9609 208.574 37.9063 211.625 34.1328 211.625Z" fill="#1A428A"/>
<path d="M402.773 266.238H375.465C371.691 266.238 368.641 263.188 368.641 259.414C368.641 255.641 371.691 252.586 375.465 252.586H402.773C406.547 252.586 409.602 255.641 409.602 259.414C409.602 263.188 406.547 266.238 402.773 266.238V266.238Z" fill="#1A428A"/>
<path d="M34.1328 266.238H6.82812C3.05469 266.238 0 263.188 0 259.414C0 255.641 3.05469 252.586 6.82812 252.586H34.1328C37.9063 252.586 40.9609 255.641 40.9609 259.414C40.9609 263.188 37.9063 266.238 34.1328 266.238Z" fill="#1A428A"/>
<path d="M402.773 320.852H375.465C371.691 320.852 368.641 317.801 368.641 314.027C368.641 310.254 371.691 307.199 375.465 307.199H402.773C406.547 307.199 409.602 310.254 409.602 314.027C409.602 317.801 406.547 320.852 402.773 320.852V320.852Z" fill="#1A428A"/>
<path d="M34.1328 320.852H6.82812C3.05469 320.852 0 317.801 0 314.027C0 310.254 3.05469 307.199 6.82812 307.199H34.1328C37.9063 307.199 40.9609 310.254 40.9609 314.027C40.9609 317.801 37.9063 320.852 34.1328 320.852Z" fill="#1A428A"/>
<path d="M95.5742 40.9609C91.8008 40.9609 88.7461 37.9063 88.7461 34.1328V6.82812C88.7461 3.05469 91.8008 0 95.5742 0C99.3477 0 102.398 3.05469 102.398 6.82812V34.1328C102.398 37.9063 99.3477 40.9609 95.5742 40.9609Z" fill="#1A428A"/>
<path d="M150.188 40.9609C146.414 40.9609 143.359 37.9063 143.359 34.1328V6.82812C143.359 3.05469 146.414 0 150.188 0C153.961 0 157.012 3.05469 157.012 6.82812V34.1328C157.012 37.9063 153.961 40.9609 150.188 40.9609Z" fill="#1A428A"/>
<path d="M204.801 40.9609C201.027 40.9609 197.973 37.9063 197.973 34.1328V6.82812C197.973 3.05469 201.027 0 204.801 0C208.574 0 211.625 3.05469 211.625 6.82812V34.1328C211.625 37.9063 208.574 40.9609 204.801 40.9609Z" fill="#1A428A"/>
<path d="M259.414 40.9609C255.641 40.9609 252.586 37.9063 252.586 34.1328V6.82812C252.586 3.05469 255.641 0 259.414 0C263.188 0 266.238 3.05469 266.238 6.82812V34.1328C266.238 37.9063 263.188 40.9609 259.414 40.9609Z" fill="#1A428A"/>
<path d="M314.027 40.9609C310.254 40.9609 307.199 37.9063 307.199 34.1328V6.82812C307.199 3.05469 310.254 0 314.027 0C317.801 0 320.852 3.05469 320.852 6.82812V34.1328C320.852 37.9063 317.801 40.9609 314.027 40.9609Z" fill="#1A428A"/>
<path d="M95.5742 409.602C91.8008 409.602 88.7461 406.547 88.7461 402.773V375.465C88.7461 371.691 91.8008 368.641 95.5742 368.641C99.3477 368.641 102.398 371.691 102.398 375.465V402.773C102.398 406.547 99.3477 409.602 95.5742 409.602V409.602Z" fill="#1A428A"/>
<path d="M150.188 409.602C146.414 409.602 143.359 406.547 143.359 402.773V375.465C143.359 371.691 146.414 368.641 150.188 368.641C153.961 368.641 157.012 371.691 157.012 375.465V402.773C157.012 406.547 153.961 409.602 150.188 409.602V409.602Z" fill="#1A428A"/>
<path d="M204.801 409.602C201.027 409.602 197.973 406.547 197.973 402.773V375.465C197.973 371.691 201.027 368.641 204.801 368.641C208.574 368.641 211.625 371.691 211.625 375.465V402.773C211.625 406.547 208.574 409.602 204.801 409.602V409.602Z" fill="#1A428A"/>
<path d="M259.414 409.602C255.641 409.602 252.586 406.547 252.586 402.773V375.465C252.586 371.691 255.641 368.641 259.414 368.641C263.188 368.641 266.238 371.691 266.238 375.465V402.773C266.238 406.547 263.188 409.602 259.414 409.602V409.602Z" fill="#1A428A"/>
<path d="M314.027 409.602C310.254 409.602 307.199 406.547 307.199 402.773V375.465C307.199 371.691 310.254 368.641 314.027 368.641C317.801 368.641 320.852 371.691 320.852 375.465V402.773C320.852 406.547 317.801 409.602 314.027 409.602V409.602Z" fill="#1A428A"/>
<path d="M95.5742 81.9219C95.5742 89.4609 89.4609 95.5742 81.9219 95.5742C74.3789 95.5742 68.2656 89.4609 68.2656 81.9219C68.2656 74.3789 74.3789 68.2656 81.9219 68.2656C89.4609 68.2656 95.5742 74.3789 95.5742 81.9219Z" fill="#D7E9FF"/>
<path d="M81.9219 102.398C70.6289 102.398 61.4414 93.2148 61.4414 81.9219C61.4414 70.6289 70.6289 61.4414 81.9219 61.4414C93.2148 61.4414 102.398 70.6289 102.398 81.9219C102.398 93.2148 93.2148 102.398 81.9219 102.398ZM81.9219 75.0938C78.1523 75.0938 75.0938 78.1523 75.0938 81.9219C75.0938 85.6875 78.1523 88.7461 81.9219 88.7461C85.6875 88.7461 88.7461 85.6875 88.7461 81.9219C88.7461 78.1523 85.6875 75.0938 81.9219 75.0938Z" fill="#1A428A"/>
<path d="M95.5742 327.68C95.5742 335.219 89.4609 341.332 81.9219 341.332C74.3789 341.332 68.2656 335.219 68.2656 327.68C68.2656 320.141 74.3789 314.027 81.9219 314.027C89.4609 314.027 95.5742 320.141 95.5742 327.68V327.68Z" fill="#D7E9FF"/>
<path d="M81.9219 348.16C70.6289 348.16 61.4414 338.973 61.4414 327.68C61.4414 316.387 70.6289 307.199 81.9219 307.199C93.2148 307.199 102.398 316.387 102.398 327.68C102.398 338.973 93.2148 348.16 81.9219 348.16V348.16ZM81.9219 320.852C78.1523 320.852 75.0938 323.914 75.0938 327.68C75.0938 331.445 78.1523 334.508 81.9219 334.508C85.6875 334.508 88.7461 331.445 88.7461 327.68C88.7461 323.914 85.6875 320.852 81.9219 320.852Z" fill="#1A428A"/>
<path d="M341.332 81.9219C341.332 89.4609 335.219 95.5742 327.68 95.5742C320.141 95.5742 314.027 89.4609 314.027 81.9219C314.027 74.3789 320.141 68.2656 327.68 68.2656C335.219 68.2656 341.332 74.3789 341.332 81.9219V81.9219Z" fill="#D7E9FF"/>
<path d="M327.68 102.398C316.387 102.398 307.199 93.2148 307.199 81.9219C307.199 70.6289 316.387 61.4414 327.68 61.4414C338.973 61.4414 348.16 70.6289 348.16 81.9219C348.16 93.2148 338.973 102.398 327.68 102.398V102.398ZM327.68 75.0938C323.914 75.0938 320.852 78.1523 320.852 81.9219C320.852 85.6875 323.914 88.7461 327.68 88.7461C331.445 88.7461 334.508 85.6875 334.508 81.9219C334.508 78.1523 331.445 75.0938 327.68 75.0938Z" fill="#1A428A"/>
<path d="M341.332 327.68C341.332 335.219 335.219 341.332 327.68 341.332C320.141 341.332 314.027 335.219 314.027 327.68C314.027 320.141 320.141 314.027 327.68 314.027C335.219 314.027 341.332 320.141 341.332 327.68V327.68Z" fill="#D7E9FF"/>
<path d="M327.68 348.16C316.387 348.16 307.199 338.973 307.199 327.68C307.199 316.387 316.387 307.199 327.68 307.199C338.973 307.199 348.16 316.387 348.16 327.68C348.16 338.973 338.973 348.16 327.68 348.16V348.16ZM327.68 320.852C323.914 320.852 320.852 323.914 320.852 327.68C320.852 331.445 323.914 334.508 327.68 334.508C331.445 334.508 334.508 331.445 334.508 327.68C334.508 323.914 331.445 320.852 327.68 320.852Z" fill="#1A428A"/>
<path d="M182.715 167.074C182.715 166.355 183.195 165.883 183.906 165.883H214.105C231.301 165.883 239.414 174.473 239.414 187.488C239.414 196.68 235.117 201.926 229.988 204.672V204.914C235 206.828 240.848 213.273 240.848 223.18C240.848 239.293 230.699 247.055 212.914 247.055H183.906C183.195 247.055 182.715 246.574 182.715 245.859V167.074ZM213.754 199.66C220.914 199.66 225.332 195.367 225.332 189.039C225.332 182.594 220.914 178.293 213.754 178.293H197.512C197.039 178.293 196.801 178.531 196.801 179.004V198.945C196.801 199.418 197.039 199.66 197.512 199.66H213.754ZM197.512 234.641H214.465C222.348 234.641 226.758 230.102 226.758 223.297C226.758 216.613 222.348 212.07 214.465 212.07H197.512C197.039 212.07 196.801 212.312 196.801 212.793V233.918C196.801 234.402 197.039 234.641 197.512 234.641Z" fill="#1A428A"/>
<path d="M204.801 177.492C201.027 177.492 197.973 174.441 197.973 170.668V157.012C197.973 153.238 201.027 150.188 204.801 150.188C208.574 150.188 211.625 153.238 211.625 157.012V170.668C211.625 174.441 208.574 177.492 204.801 177.492Z" fill="#1A428A"/>
<path d="M204.801 259.414C201.027 259.414 197.973 256.359 197.973 252.586V245.762C197.973 241.988 201.027 238.934 204.801 238.934C208.574 238.934 211.625 241.988 211.625 245.762V252.586C211.625 256.359 208.574 259.414 204.801 259.414Z" fill="#1A428A"/>
<path d="M307.199 184.32C303.426 184.32 300.375 181.266 300.375 177.492V150.188C300.375 146.414 303.426 143.359 307.199 143.359C310.973 143.359 314.027 146.414 314.027 150.188V177.492C314.027 181.266 310.973 184.32 307.199 184.32Z" fill="white"/>
<path d="M320.852 170.668H293.547C289.773 170.668 286.719 167.613 286.719 163.84C286.719 160.066 289.773 157.012 293.547 157.012H320.852C324.625 157.012 327.68 160.066 327.68 163.84C327.68 167.613 324.625 170.668 320.852 170.668Z" fill="white"/>
<path d="M61.4414 191.148C57.668 191.148 54.6133 188.094 54.6133 184.32V116.055C54.6133 112.281 57.668 109.227 61.4414 109.227C65.2148 109.227 68.2656 112.281 68.2656 116.055V184.32C68.2656 188.094 65.2148 191.148 61.4414 191.148Z" fill="white"/>
</g>
<defs>
<clipPath id="clip0_1_683">
<rect width="409.6" height="409.6" fill="white"/>
</clipPath>
</defs>
</svg>
