<svg width="382" height="382" viewBox="0 0 382 382" fill="none" xmlns="http://www.w3.org/2000/svg">
<path fill-rule="evenodd" clip-rule="evenodd" d="M339.606 37.5709H42.3932C34.052 37.5709 27.2876 44.3353 27.2876 52.6804V349.89C27.2876 358.235 34.052 364.999 42.3932 364.999H339.606C347.948 364.999 354.716 358.235 354.716 349.89V52.6804C354.716 44.3353 347.948 37.5709 339.606 37.5709V37.5709Z" fill="#1A428A"/>
<path d="M339.606 371.822H42.3932C30.3049 371.822 20.4648 361.982 20.4648 349.894V52.6804C20.4648 40.5881 30.3049 30.748 42.3932 30.748H339.606C351.695 30.748 361.535 40.5881 361.535 52.6804V349.89C361.535 361.982 351.695 371.822 339.606 371.822V371.822ZM42.3932 44.3938C37.8264 44.3938 34.1066 48.1097 34.1066 52.6804V349.89C34.1066 354.46 37.8264 358.176 42.3932 358.176H339.606C344.177 358.176 347.893 354.46 347.893 349.89V52.6804C347.893 48.1097 344.173 44.3938 339.606 44.3938H42.3932Z" fill="#1A428A"/>
<path d="M339.606 17.1062H42.3932C34.052 17.1062 27.2876 23.8705 27.2876 32.2157V329.425C27.2876 337.77 34.052 344.534 42.3932 344.534H339.606C347.948 344.534 354.716 337.77 354.716 329.425V32.2157C354.716 23.8705 347.948 17.1062 339.606 17.1062V17.1062Z" fill="#2A8EE6"/>
<path d="M339.606 351.357H42.3932C30.3049 351.357 20.4648 341.517 20.4648 329.429V32.2157C20.4648 20.1234 30.3049 10.2872 42.3932 10.2872H339.606C351.695 10.2872 361.535 20.1234 361.535 32.2157V329.425C361.535 341.517 351.695 351.357 339.606 351.357V351.357ZM42.3932 23.9291C37.8264 23.9291 34.1066 27.645 34.1066 32.2157V329.425C34.1066 333.996 37.8264 337.712 42.3932 337.712H339.606C344.177 337.712 347.893 333.996 347.893 329.425V32.2157C347.893 27.645 344.173 23.9291 339.606 23.9291H42.3932Z" fill="#1A428A"/>
<path d="M47.7485 112.607C43.9779 112.607 40.9295 109.555 40.9295 105.784V37.5709C40.9295 33.8004 43.9779 30.748 47.7485 30.748C51.519 30.748 54.5714 33.8004 54.5714 37.5709V105.784C54.5714 109.555 51.519 112.607 47.7485 112.607Z" fill="white"/>
<path d="M298.677 58.0356H83.3227C74.9776 58.0356 68.2133 64.8 68.2133 73.1451V288.495C68.2133 296.841 74.9776 303.605 83.3227 303.605H298.677C307.022 303.605 313.786 296.841 313.786 288.495V73.1451C313.786 64.8 307.022 58.0356 298.677 58.0356V58.0356Z" fill="#D7E9FF"/>
<path d="M298.677 310.428H83.3227C71.2344 310.428 61.3943 300.588 61.3943 288.499V73.1412C61.3943 61.0529 71.2344 51.2128 83.3227 51.2128H298.677C310.769 51.2128 320.605 61.0529 320.605 73.1412V288.495C320.605 300.588 310.769 310.428 298.677 310.428V310.428ZM83.3227 64.8585C78.752 64.8585 75.0361 68.5744 75.0361 73.1412V288.495C75.0361 293.066 78.752 296.782 83.3227 296.782H298.677C303.248 296.782 306.964 293.066 306.964 288.495V73.1412C306.964 68.5744 303.244 64.8585 298.677 64.8585H83.3227Z" fill="#1A428A"/>
<path d="M278.212 78.5005H103.787C95.4423 78.5005 88.678 85.2648 88.678 93.61V268.035C88.678 276.376 95.4423 283.144 103.787 283.144H278.212C286.557 283.144 293.322 276.376 293.322 268.035V93.61C293.322 85.2648 286.557 78.5005 278.212 78.5005V78.5005Z" fill="#6BC4E8"/>
<path d="M278.212 289.963H103.787C91.6952 289.963 81.859 280.123 81.859 268.035V93.6061C81.859 81.5177 91.6952 71.6776 103.787 71.6776H278.212C290.304 71.6776 300.145 81.5177 300.145 93.6061V268.035C300.145 280.123 290.304 289.963 278.212 289.963V289.963ZM103.787 85.3195C99.2168 85.3195 95.5009 89.0393 95.5009 93.6061V268.035C95.5009 272.605 99.2168 276.321 103.787 276.321H278.212C282.783 276.321 286.499 272.601 286.499 268.035V93.6061C286.499 89.0354 282.779 85.3195 278.212 85.3195H103.787Z" fill="#1A428A"/>
<path d="M109.143 92.1423H122.785V105.784H109.143V92.1423Z" fill="#1A428A"/>
<path d="M136.43 92.1423H150.072V105.784H136.43V92.1423Z" fill="#1A428A"/>
<path d="M259.215 92.1423H272.857V105.784H259.215V92.1423Z" fill="#1A428A"/>
<path d="M231.927 92.1423H245.573V105.784H231.927V92.1423Z" fill="#1A428A"/>
<path d="M109.143 119.43H122.785V133.072H109.143V119.43Z" fill="#1A428A"/>
<path d="M136.43 119.43H150.072V133.072H136.43V119.43Z" fill="#1A428A"/>
<path d="M184.179 92.1423H197.821V105.784H184.179V92.1423Z" fill="#1A428A"/>
<path d="M184.179 119.43H197.821V133.072H184.179V119.43Z" fill="#1A428A"/>
<path d="M184.179 228.573H197.821V242.215H184.179V228.573Z" fill="#1A428A"/>
<path d="M184.179 255.856H197.821V269.498H184.179V255.856Z" fill="#1A428A"/>
<path d="M259.215 119.43H272.857V133.072H259.215V119.43Z" fill="#1A428A"/>
<path d="M231.927 119.43H245.573V133.072H231.927V119.43Z" fill="#1A428A"/>
<path d="M109.143 146.714H122.785V160.356H109.143V146.714Z" fill="#1A428A"/>
<path d="M259.215 146.714H272.857V160.356H259.215V146.714Z" fill="#1A428A"/>
<path d="M109.143 174.001H122.785V187.643H109.143V174.001Z" fill="#1A428A"/>
<path d="M259.215 174.001H272.857V187.643H259.215V174.001Z" fill="#1A428A"/>
<path d="M109.143 201.285H122.785V214.927H109.143V201.285Z" fill="#1A428A"/>
<path d="M259.215 201.285H272.857V214.927H259.215V201.285Z" fill="#1A428A"/>
<path d="M109.143 228.573H122.785V242.215H109.143V228.573Z" fill="#1A428A"/>
<path d="M136.43 228.573H150.072V242.215H136.43V228.573Z" fill="#1A428A"/>
<path d="M259.215 228.573H272.857V242.215H259.215V228.573Z" fill="#1A428A"/>
<path d="M231.927 228.573H245.573V242.215H231.927V228.573Z" fill="#1A428A"/>
<path d="M109.143 255.856H122.785V269.498H109.143V255.856Z" fill="#1A428A"/>
<path d="M136.43 255.856H150.072V269.498H136.43V255.856Z" fill="#1A428A"/>
<path d="M259.215 255.856H272.857V269.498H259.215V255.856Z" fill="#1A428A"/>
<path d="M231.927 255.856H245.573V269.498H231.927V255.856Z" fill="#1A428A"/>
<path d="M375.177 85.3195H354.716C350.945 85.3195 347.893 82.271 347.893 78.5005C347.893 74.73 350.945 71.6776 354.716 71.6776H375.177C378.947 71.6776 382 74.73 382 78.5005C382 82.271 378.947 85.3195 375.177 85.3195Z" fill="#1A428A"/>
<path d="M375.177 187.643H354.716C350.945 187.643 347.893 184.591 347.893 180.82C347.893 177.05 350.945 174.001 354.716 174.001H375.177C378.947 174.001 382 177.05 382 180.82C382 184.591 378.947 187.643 375.177 187.643Z" fill="#1A428A"/>
<path d="M375.177 153.537H354.716C350.945 153.537 347.893 150.484 347.893 146.714C347.893 142.943 350.945 139.891 354.716 139.891H375.177C378.947 139.891 382 142.943 382 146.714C382 150.484 378.947 153.537 375.177 153.537Z" fill="#1A428A"/>
<path d="M375.177 119.43H354.716C350.945 119.43 347.893 116.378 347.893 112.607C347.893 108.837 350.945 105.784 354.716 105.784H375.177C378.947 105.784 382 108.837 382 112.607C382 116.378 378.947 119.43 375.177 119.43Z" fill="#1A428A"/>
<path d="M375.177 221.75H354.716C350.945 221.75 347.893 218.698 347.893 214.927C347.893 211.156 350.945 208.108 354.716 208.108H375.177C378.947 208.108 382 211.156 382 214.927C382 218.698 378.947 221.75 375.177 221.75Z" fill="#1A428A"/>
<path d="M375.177 289.963H354.716C350.945 289.963 347.893 286.915 347.893 283.144C347.893 279.374 350.945 276.321 354.716 276.321H375.177C378.947 276.321 382 279.374 382 283.144C382 286.915 378.947 289.963 375.177 289.963Z" fill="#1A428A"/>
<path d="M375.177 255.856H354.716C350.945 255.856 347.893 252.804 347.893 249.034C347.893 245.263 350.945 242.215 354.716 242.215H375.177C378.947 242.215 382 245.263 382 249.034C382 252.804 378.947 255.856 375.177 255.856Z" fill="#1A428A"/>
<path d="M27.2876 85.3195H6.82289C3.05234 85.3195 0 82.271 0 78.5005C0 74.73 3.05234 71.6776 6.82289 71.6776H27.2876C31.0582 71.6776 34.1066 74.73 34.1066 78.5005C34.1066 82.271 31.0582 85.3195 27.2876 85.3195Z" fill="#1A428A"/>
<path d="M27.2876 187.643H6.82289C3.05234 187.643 0 184.591 0 180.82C0 177.05 3.05234 174.001 6.82289 174.001H27.2876C31.0582 174.001 34.1066 177.05 34.1066 180.82C34.1066 184.591 31.0582 187.643 27.2876 187.643Z" fill="#1A428A"/>
<path d="M27.2876 153.537H6.82289C3.05234 153.537 0 150.484 0 146.714C0 142.943 3.05234 139.891 6.82289 139.891H27.2876C31.0582 139.891 34.1066 142.943 34.1066 146.714C34.1066 150.484 31.0582 153.537 27.2876 153.537Z" fill="#1A428A"/>
<path d="M27.2876 119.43H6.82289C3.05234 119.43 0 116.378 0 112.607C0 108.837 3.05234 105.784 6.82289 105.784H27.2876C31.0582 105.784 34.1066 108.837 34.1066 112.607C34.1066 116.378 31.0582 119.43 27.2876 119.43Z" fill="#1A428A"/>
<path d="M27.2876 221.75H6.82289C3.05234 221.75 0 218.698 0 214.927C0 211.156 3.05234 208.108 6.82289 208.108H27.2876C31.0582 208.108 34.1066 211.156 34.1066 214.927C34.1066 218.698 31.0582 221.75 27.2876 221.75Z" fill="#1A428A"/>
<path d="M27.2876 289.963H6.82289C3.05234 289.963 0 286.915 0 283.144C0 279.374 3.05234 276.321 6.82289 276.321H27.2876C31.0582 276.321 34.1066 279.374 34.1066 283.144C34.1066 286.915 31.0582 289.963 27.2876 289.963Z" fill="#1A428A"/>
<path d="M27.2876 255.856H6.82289C3.05234 255.856 0 252.804 0 249.034C0 245.263 3.05234 242.215 6.82289 242.215H27.2876C31.0582 242.215 34.1066 245.263 34.1066 249.034C34.1066 252.804 31.0582 255.856 27.2876 255.856Z" fill="#1A428A"/>
<path d="M259.215 180.82C259.215 218.495 228.672 249.034 191.002 249.034C153.328 249.034 122.785 218.495 122.785 180.82C122.785 143.146 153.328 112.607 191.002 112.607C228.672 112.607 259.215 143.146 259.215 180.82Z" fill="white"/>
<path d="M191.002 255.856C149.623 255.856 115.966 222.195 115.966 180.82C115.966 139.446 149.623 105.784 191.002 105.784C232.376 105.784 266.034 139.446 266.034 180.82C266.034 222.195 232.376 255.856 191.002 255.856V255.856ZM191.002 119.43C157.145 119.43 129.608 146.967 129.608 180.82C129.608 214.677 157.145 242.215 191.002 242.215C224.855 242.215 252.392 214.677 252.392 180.82C252.392 146.967 224.855 119.43 191.002 119.43Z" fill="#1A428A"/>
<path d="M171.337 149.005C171.337 148.439 171.708 148.068 172.27 148.068H195.998C209.499 148.068 215.873 154.813 215.873 165.039C215.873 172.26 212.505 176.382 208.465 178.545V178.728C212.407 180.235 217.005 185.297 217.005 193.077C217.005 205.743 209.031 211.836 195.057 211.836H172.27C171.708 211.836 171.337 211.465 171.337 210.895V149.005ZM195.717 174.606C201.341 174.606 204.811 171.23 204.811 166.257C204.811 161.195 201.341 157.818 195.717 157.818H182.961C182.582 157.818 182.395 158.002 182.395 158.377V174.044C182.395 174.419 182.582 174.606 182.961 174.606H195.717ZM182.961 202.085H196.275C202.473 202.085 205.936 198.522 205.936 193.17C205.936 187.92 202.473 184.357 196.275 184.357H182.961C182.579 184.357 182.391 184.544 182.391 184.923V201.519C182.391 201.898 182.579 202.085 182.961 202.085Z" fill="#1A428A"/>
<path d="M194.409 156.948C190.639 156.948 187.59 153.896 187.59 150.125V143.302C187.59 139.532 190.639 136.483 194.409 136.483C198.18 136.483 201.232 139.532 201.232 143.302V150.125C201.232 153.896 198.18 156.948 194.409 156.948Z" fill="#1A428A"/>
<path d="M194.409 225.161C190.639 225.161 187.59 222.109 187.59 218.338V211.519C187.59 207.749 190.639 204.697 194.409 204.697C198.18 204.697 201.232 207.749 201.232 211.519V218.338C201.232 222.109 198.18 225.161 194.409 225.161Z" fill="#1A428A"/>
<path d="M272.857 358.18C269.086 358.18 266.034 355.128 266.034 351.357V324.07C266.034 320.299 269.086 317.251 272.857 317.251C276.627 317.251 279.68 320.299 279.68 324.07V351.357C279.68 355.128 276.627 358.18 272.857 358.18V358.18Z" fill="white"/>
<path d="M286.499 344.534H259.215C255.444 344.534 252.392 341.486 252.392 337.715C252.392 333.945 255.444 330.893 259.215 330.893H286.499C290.269 330.893 293.322 333.945 293.322 337.715C293.322 341.486 290.269 344.534 286.499 344.534Z" fill="white"/>
</svg>
