<svg width="389" height="389" viewBox="0 0 389 389" fill="none" xmlns="http://www.w3.org/2000/svg">
<g clip-path="url(#clip0_1_785)">
<path fill-rule="evenodd" clip-rule="evenodd" d="M324.222 382.175H105.836V6.82605H302.912C314.678 6.82605 324.222 16.3661 324.222 28.1359V382.175Z" fill="#1A428A"/>
<path d="M324.222 389.001H105.836C102.064 389.001 99.0099 385.947 99.0099 382.175V6.82602C99.0099 3.05375 102.064 0 105.836 0H302.912C318.423 0 331.044 12.6211 331.044 28.1319V382.175C331.044 385.947 327.99 389.001 324.222 389.001ZM112.658 375.349H317.396V28.1319C317.396 20.1461 310.898 13.6481 302.912 13.6481H112.658V375.349Z" fill="#1A428A"/>
<path d="M23.9393 6.82605H85.3618V348.053H23.9393V6.82605Z" fill="#6BC4E8"/>
<path d="M85.3618 354.879H23.9394C20.171 354.879 17.1133 351.825 17.1133 348.053V6.82602C17.1133 3.05375 20.171 0 23.9394 0H85.3618C89.1302 0 92.1839 3.05375 92.1839 6.82602V348.053C92.1839 351.825 89.1302 354.879 85.3618 354.879ZM30.7654 341.227H78.5358V13.6481H30.7654V341.227Z" fill="#1A428A"/>
<path d="M303.748 382.175H85.3618V6.82605H282.438C294.204 6.82605 303.748 16.3661 303.748 28.1359V382.175Z" fill="#D7E9FF"/>
<path d="M303.748 389.001H85.3618C81.5895 389.001 78.5358 385.947 78.5358 382.175V6.82602C78.5358 3.05375 81.5895 0 85.3618 0H282.438C297.949 0 310.57 12.6211 310.57 28.1319V382.175C310.57 385.947 307.516 389.001 303.748 389.001V389.001ZM92.1839 375.349H296.922V28.1319C296.922 20.1461 290.424 13.6481 282.438 13.6481H92.1839V375.349Z" fill="#1A428A"/>
<path fill-rule="evenodd" clip-rule="evenodd" d="M351.518 122.841C351.518 164.301 317.907 197.912 276.447 197.912C234.987 197.912 201.377 164.301 201.377 122.841C201.377 81.3811 234.987 47.7704 276.447 47.7704C317.907 47.7704 351.518 81.3811 351.518 122.841Z" fill="#1A428A"/>
<path d="M276.447 204.738C231.293 204.738 194.555 168.003 194.555 122.841C194.555 77.6831 231.293 40.9484 276.447 40.9484C321.605 40.9484 358.344 77.6831 358.344 122.841C358.344 168.003 321.605 204.738 276.447 204.738ZM276.447 54.5965C238.814 54.5965 208.203 85.2121 208.203 122.841C208.203 160.47 238.814 191.09 276.447 191.09C314.08 191.09 344.692 160.47 344.692 122.841C344.692 85.2121 314.08 54.5965 276.447 54.5965Z" fill="#1A428A"/>
<path d="M365.166 122.841C365.166 164.301 331.555 197.912 290.095 197.912C248.636 197.912 215.029 164.301 215.029 122.841C215.029 81.3811 248.636 47.7704 290.095 47.7704C331.555 47.7704 365.166 81.3811 365.166 122.841Z" fill="#6BC4E8"/>
<path d="M290.095 204.738C244.941 204.738 208.203 168.003 208.203 122.841C208.203 77.6831 244.941 40.9484 290.095 40.9484C335.253 40.9484 371.992 77.6831 371.992 122.841C371.992 168.003 335.253 204.738 290.095 204.738ZM290.095 54.5965C252.466 54.5965 221.851 85.2121 221.851 122.841C221.851 160.47 252.466 191.09 290.095 191.09C327.728 191.09 358.344 160.47 358.344 122.841C358.344 85.2121 327.728 54.5965 290.095 54.5965Z" fill="#1A428A"/>
<path d="M268.016 85.1261C268.016 84.4076 268.497 83.9351 269.211 83.9351H299.401C316.587 83.9351 324.698 92.5262 324.698 105.534C324.698 114.726 320.406 119.971 315.275 122.716V122.958C320.289 124.868 326.131 131.315 326.131 141.218C326.131 157.326 315.99 165.082 298.206 165.082H269.211C268.497 165.082 268.016 164.602 268.016 163.891V85.1261ZM299.046 117.702C306.204 117.702 310.624 113.41 310.624 107.084C310.624 100.641 306.204 96.3414 299.046 96.3414H282.813C282.34 96.3414 282.098 96.5835 282.098 97.056V116.991C282.098 117.464 282.34 117.702 282.813 117.702H299.046ZM282.813 152.672H299.76C307.637 152.672 312.05 148.134 312.05 141.335C312.05 134.65 307.637 130.112 299.76 130.112H282.813C282.34 130.112 282.098 130.354 282.098 130.831V151.953C282.098 152.433 282.34 152.672 282.813 152.672Z" fill="#1A428A"/>
<path d="M290.095 95.5448C286.327 95.5448 283.273 92.4911 283.273 88.7188V75.0706C283.273 71.2984 286.327 68.2446 290.095 68.2446C293.868 68.2446 296.921 71.2984 296.921 75.0706V88.7188C296.921 92.4911 293.868 95.5448 290.095 95.5448Z" fill="#1A428A"/>
<path d="M290.095 177.438C286.327 177.438 283.273 174.388 283.273 170.615V163.789C283.273 160.017 286.327 156.963 290.095 156.963C293.868 156.963 296.921 160.017 296.921 163.789V170.615C296.921 174.388 293.868 177.438 290.095 177.438Z" fill="#1A428A"/>
<path d="M54.6486 320.753H303.748V382.175H54.6486C37.689 382.175 23.9393 368.425 23.9393 351.466C23.9393 334.502 37.689 320.753 54.6486 320.753V320.753Z" fill="#6BC4E8"/>
<path d="M303.748 389.001H54.6486C33.9519 389.001 17.1133 372.159 17.1133 351.466C17.1133 330.773 33.9519 313.931 54.6486 313.931H303.748C307.516 313.931 310.57 316.98 310.57 320.753V382.175C310.57 385.947 307.516 389.001 303.748 389.001V389.001ZM54.6486 327.579C41.4808 327.579 30.7654 338.294 30.7654 351.466C30.7654 364.634 41.4808 375.349 54.6486 375.349H296.922V327.579H54.6486Z" fill="#1A428A"/>
<path d="M208.203 197.912H187.729C183.96 197.912 180.903 194.862 180.903 191.089C180.903 187.317 183.96 184.263 187.729 184.263H208.203C211.971 184.263 215.029 187.317 215.029 191.089C215.029 194.862 211.971 197.912 208.203 197.912Z" fill="#1A428A"/>
<path d="M174.081 129.667H119.484C115.716 129.667 112.658 126.613 112.658 122.841C112.658 119.069 115.716 116.019 119.484 116.019H174.081C177.849 116.019 180.903 119.069 180.903 122.841C180.903 126.613 177.849 129.667 174.081 129.667Z" fill="#1A428A"/>
<path d="M160.432 95.5447H146.78C143.012 95.5447 139.958 92.491 139.958 88.7187C139.958 84.9464 143.012 81.8966 146.78 81.8966H160.432C164.201 81.8966 167.255 84.9464 167.255 88.7187C167.255 92.491 164.201 95.5447 160.432 95.5447Z" fill="#1A428A"/>
<path d="M296.921 279.808C293.153 279.808 290.095 276.754 290.095 272.982V245.686C290.095 241.914 293.153 238.86 296.921 238.86C300.69 238.86 303.747 241.914 303.747 245.686V272.982C303.747 276.754 300.69 279.808 296.921 279.808Z" fill="white"/>
<path d="M310.57 266.156H283.273C279.505 266.156 276.447 263.106 276.447 259.334C276.447 255.562 279.505 252.508 283.273 252.508H310.57C314.338 252.508 317.396 255.562 317.396 259.334C317.396 263.106 314.338 266.156 310.57 266.156Z" fill="white"/>
<path d="M44.4135 102.367C40.6451 102.367 37.5875 99.317 37.5875 95.5447V27.3001C37.5875 23.5279 40.6451 20.4741 44.4135 20.4741C48.1819 20.4741 51.2356 23.5279 51.2356 27.3001V95.5447C51.2356 99.317 48.1819 102.367 44.4135 102.367Z" fill="white"/>
</g>
<defs>
<clipPath id="clip0_1_785">
<rect width="389" height="389" fill="white"/>
</clipPath>
</defs>
</svg>
