<svg width="416" height="416" viewBox="0 0 416 416" fill="none" xmlns="http://www.w3.org/2000/svg">
<path d="M389.515 341.145H26.4846C15.6246 341.145 6.82117 332.337 6.82117 321.477V115.302C6.82117 104.438 15.6246 95.6348 26.4846 95.6348H389.515C400.375 95.6348 409.182 104.438 409.182 115.302V321.477C409.182 332.337 400.375 341.145 389.515 341.145Z" fill="#1A428A"/>
<path d="M389.515 347.962H26.4846C11.8823 347.962 0 336.083 0 321.477V115.302C0 100.696 11.8823 88.8136 26.4846 88.8136H389.515C404.117 88.8136 415.999 100.696 415.999 115.302V321.477C415.999 336.083 404.117 347.962 389.515 347.962V347.962ZM26.4846 102.456C19.402 102.456 13.6384 108.216 13.6384 115.302V321.477C13.6384 328.564 19.402 334.323 26.4846 334.323H389.515C396.601 334.323 402.361 328.564 402.361 321.477V115.302C402.361 108.216 396.601 102.456 389.515 102.456H26.4846Z" fill="#1A428A"/>
<path d="M389.515 320.685H26.4846C15.6246 320.685 6.82117 311.882 6.82117 301.018V94.8426C6.82117 83.9788 15.6246 75.1753 26.4846 75.1753H389.515C400.375 75.1753 409.182 83.9788 409.182 94.8426V301.018C409.182 311.882 400.375 320.685 389.515 320.685Z" fill="#6BC4E8"/>
<path d="M389.515 327.502H26.4846C11.8823 327.502 0 315.624 0 301.018V94.8426C0 80.2365 11.8823 68.358 26.4846 68.358H389.515C404.117 68.358 415.999 80.2365 415.999 94.8426V301.018C415.999 315.624 404.117 327.502 389.515 327.502V327.502ZM26.4846 81.9964C19.402 81.9964 13.6384 87.7561 13.6384 94.8426V301.018C13.6384 308.104 19.402 313.864 26.4846 313.864H389.515C396.601 313.864 402.361 308.104 402.361 301.018V94.8426C402.361 87.7561 396.601 81.9964 389.515 81.9964H26.4846Z" fill="#1A428A"/>
<path d="M88.6552 211.57H34.0979C30.3283 211.57 27.2806 208.519 27.2806 204.749C27.2806 200.98 30.3283 197.932 34.0979 197.932H88.6552C92.4248 197.932 95.4763 200.98 95.4763 204.749C95.4763 208.519 92.4248 211.57 88.6552 211.57Z" fill="#1A428A"/>
<path d="M143.213 245.668H34.0979C30.3283 245.668 27.2806 242.617 27.2806 238.847C27.2806 235.078 30.3283 232.03 34.0979 232.03H143.213C146.982 232.03 150.034 235.078 150.034 238.847C150.034 242.617 146.982 245.668 143.213 245.668Z" fill="#1A428A"/>
<path d="M218.229 245.668H177.31C173.541 245.668 170.493 242.617 170.493 238.847C170.493 235.078 173.541 232.03 177.31 232.03H218.229C221.999 232.03 225.05 235.078 225.05 238.847C225.05 242.617 221.999 245.668 218.229 245.668Z" fill="#1A428A"/>
<path d="M54.5574 279.766H34.0979C30.3283 279.766 27.2806 276.715 27.2806 272.945C27.2806 269.175 30.3283 266.128 34.0979 266.128H54.5574C58.3269 266.128 61.3785 269.175 61.3785 272.945C61.3785 276.715 58.3269 279.766 54.5574 279.766Z" fill="#1A428A"/>
<path d="M136.395 279.766H102.294C98.524 279.766 95.4763 276.715 95.4763 272.945C95.4763 269.175 98.524 266.128 102.294 266.128H136.395C140.165 266.128 143.213 269.175 143.213 272.945C143.213 276.715 140.165 279.766 136.395 279.766Z" fill="#1A428A"/>
<path d="M170.493 211.57H115.936C112.166 211.57 109.115 208.519 109.115 204.749C109.115 200.98 112.166 197.932 115.936 197.932H170.493C174.263 197.932 177.31 200.98 177.31 204.749C177.31 208.519 174.263 211.57 170.493 211.57Z" fill="#1A428A"/>
<path d="M252.327 211.57H197.77C194 211.57 190.953 208.519 190.953 204.749C190.953 200.98 194 197.932 197.77 197.932H252.327C256.097 197.932 259.148 200.98 259.148 204.749C259.148 208.519 256.097 211.57 252.327 211.57Z" fill="#1A428A"/>
<path d="M68.1918 293.405C66.8924 293.405 65.5812 293.034 64.4144 292.261C61.277 290.17 60.4302 285.94 62.5219 282.802L76.1602 262.343C78.2479 259.205 82.4701 258.362 85.6193 260.454C88.7567 262.546 89.6034 266.772 87.5118 269.909L73.8696 290.369C72.5584 292.339 70.3927 293.405 68.1918 293.405Z" fill="#1A428A"/>
<path d="M98.9259 163.831H44.2906C38.6596 163.831 34.0979 159.269 34.0979 153.642V119.466C34.0979 113.839 38.6596 109.273 44.2906 109.273H98.9259C104.553 109.273 109.115 113.839 109.115 119.466V153.642C109.115 159.269 104.553 163.831 98.9259 163.831Z" fill="#6BC4E8"/>
<path d="M98.9259 170.652H44.2905C34.9134 170.652 27.2806 163.019 27.2806 153.642V119.466C27.2806 110.089 34.9134 102.456 44.2905 102.456H98.9259C108.303 102.456 115.936 110.089 115.936 119.466V153.642C115.936 163.019 108.303 170.652 98.9259 170.652ZM44.2905 116.094C42.4292 116.094 40.919 117.608 40.919 119.466V153.642C40.919 155.503 42.4292 157.013 44.2905 157.013H98.9259C100.783 157.013 102.297 155.503 102.297 153.642V119.466C102.294 117.608 100.783 116.094 98.9259 116.094H44.2905Z" fill="#1A428A"/>
<path d="M81.838 163.831C78.0684 163.831 75.0168 160.783 75.0168 157.013V116.094C75.0168 112.325 78.0684 109.273 81.838 109.273C85.6075 109.273 88.6552 112.325 88.6552 116.094V157.013C88.6552 160.783 85.6075 163.831 81.838 163.831Z" fill="#1A428A"/>
<path d="M75.0169 143.375H40.919C37.1495 143.375 34.0979 140.323 34.0979 136.554C34.0979 132.784 37.1495 129.733 40.919 129.733H75.0169C78.7864 129.733 81.838 132.784 81.838 136.554C81.838 140.323 78.7864 143.375 75.0169 143.375Z" fill="#1A428A"/>
<path d="M144.02 138.22C144.02 130.501 144.305 128.07 145.312 125.066C147.809 117.136 153.955 113.132 162.181 113.132C169.974 113.132 175.835 117.136 178.625 123.567C178.766 123.918 178.625 124.281 178.266 124.426L172.194 127.356C171.761 127.571 171.406 127.356 171.262 126.997C169.689 123.567 166.969 120.703 162.185 120.703C157.534 120.703 154.818 123.208 153.46 127.138C152.82 129.143 152.609 131.075 152.609 138.22C152.609 145.373 152.82 147.304 153.46 149.302C154.818 153.236 157.538 155.733 162.185 155.733C166.973 155.733 169.689 152.877 171.262 149.447C171.406 149.088 171.761 148.873 172.194 149.088L178.266 152.018C178.625 152.163 178.766 152.518 178.625 152.877C175.835 159.308 169.974 163.311 162.181 163.311C153.959 163.311 147.809 159.308 145.312 151.371C144.305 148.374 144.02 145.943 144.02 138.22Z" fill="#1A428A"/>
<path d="M214.175 162.527C213.601 162.527 213.312 162.312 213.102 161.813L203.803 142.868H195.44C195.155 142.868 195.015 143.012 195.015 143.293V161.813C195.015 162.238 194.726 162.527 194.293 162.527H187.288C186.863 162.527 186.574 162.238 186.574 161.813V114.631C186.574 114.202 186.863 113.917 187.288 113.917H206.097C215.026 113.917 221.609 119.852 221.609 128.429C221.609 134.79 217.956 139.726 212.384 141.794L222.608 161.594C222.892 162.102 222.608 162.527 222.108 162.527H214.175ZM213.242 128.429C213.242 124.203 210.237 121.487 205.808 121.487H195.44C195.155 121.487 195.015 121.635 195.015 121.92V134.86C195.015 135.149 195.155 135.289 195.44 135.289H205.808C210.237 135.289 213.242 132.569 213.242 128.429Z" fill="#1A428A"/>
<path d="M239.497 162.527C239.063 162.527 238.775 162.238 238.775 161.813V142.653L224.695 114.627C224.551 114.268 224.77 113.917 225.269 113.917H232.488C232.913 113.917 233.273 114.127 233.487 114.627L242.997 133.502H243.212L252.788 114.627C253.006 114.127 253.291 113.917 253.791 113.917H260.725C261.298 113.917 261.439 114.268 261.298 114.627L247.211 142.653V161.813C247.211 162.238 246.926 162.527 246.501 162.527H239.497Z" fill="#1A428A"/>
<path d="M268.244 162.527C267.819 162.527 267.534 162.238 267.534 161.813V114.631C267.534 114.202 267.819 113.917 268.244 113.917H286.48C295.915 113.917 302.491 119.989 302.491 129.003C302.491 138.079 295.919 144.155 286.48 144.155H276.396C276.111 144.155 275.971 144.3 275.971 144.588V161.817C275.971 162.242 275.682 162.527 275.249 162.527H268.244ZM294.058 128.999C294.058 124.566 290.983 121.487 285.98 121.487H276.396C276.111 121.487 275.971 121.635 275.971 121.92V136.074C275.971 136.362 276.111 136.507 276.396 136.507H285.98C290.983 136.507 294.058 133.502 294.058 128.999Z" fill="#1A428A"/>
<path d="M321.096 162.527C320.671 162.527 320.386 162.238 320.386 161.813V121.92C320.386 121.635 320.238 121.487 319.953 121.487H307.232C306.799 121.487 306.514 121.21 306.514 120.777V114.631C306.514 114.202 306.799 113.917 307.232 113.917H341.97C342.403 113.917 342.688 114.202 342.688 114.631V120.777C342.688 121.21 342.403 121.487 341.97 121.487H329.248C328.963 121.487 328.815 121.635 328.815 121.92V161.813C328.815 162.238 328.53 162.527 328.105 162.527H321.096Z" fill="#1A428A"/>
<path d="M348.209 151.589C347.202 148.588 346.918 145.872 346.918 138.216C346.918 130.572 347.202 127.856 348.209 124.851C350.707 117.132 357.001 113.129 365.364 113.129C373.8 113.129 380.091 117.132 382.592 124.851C383.591 127.856 383.876 130.572 383.876 138.216C383.876 145.868 383.591 148.588 382.592 151.589C380.087 159.308 373.8 163.311 365.364 163.311C357.001 163.311 350.707 159.312 348.209 151.589V151.589ZM374.444 149.373C375.014 147.589 375.303 145.084 375.303 138.22C375.303 131.286 375.014 128.855 374.444 127.071C373.082 123.134 370.226 120.703 365.367 120.703C360.575 120.703 357.715 123.134 356.353 127.071C355.784 128.855 355.503 131.286 355.503 138.22C355.503 145.084 355.784 147.589 356.353 149.373C357.715 153.302 360.579 155.733 365.367 155.733C370.226 155.733 373.082 153.302 374.444 149.373Z" fill="#1A428A"/>
<path d="M327.344 341.145C323.574 341.145 320.523 338.093 320.523 334.324V307.047C320.523 303.277 323.574 300.226 327.344 300.226C331.114 300.226 334.165 303.277 334.165 307.047V334.324C334.165 338.093 331.114 341.145 327.344 341.145Z" fill="white"/>
<path d="M340.982 327.502H313.706C309.936 327.502 306.885 324.455 306.885 320.685C306.885 316.916 309.936 313.864 313.706 313.864H340.982C344.752 313.864 347.803 316.916 347.803 320.685C347.803 324.455 344.752 327.502 340.982 327.502Z" fill="white"/>
<path d="M388.722 232.03C384.953 232.03 381.901 228.978 381.901 225.209V184.29C381.901 180.52 384.953 177.473 388.722 177.473C392.492 177.473 395.54 180.52 395.54 184.29V225.209C395.54 228.978 392.492 232.03 388.722 232.03Z" fill="white"/>
</svg>
