<svg width="416" height="416" viewBox="0 0 416 416" fill="none" xmlns="http://www.w3.org/2000/svg">
<path fill-rule="evenodd" clip-rule="evenodd" d="M332.201 409.182H98.2414C87.5181 409.182 78.8239 400.488 78.8239 389.768V46.6943C78.8239 35.9709 87.5181 27.2806 98.2414 27.2806H332.201C342.92 27.2806 351.614 35.9709 351.614 46.6943V389.768C351.614 400.488 342.92 409.182 332.201 409.182Z" fill="#1A428A"/>
<path d="M332.201 415.999H98.2415C83.772 415.999 72.0067 404.234 72.0067 389.768V46.6943C72.0067 32.2247 83.772 20.4595 98.2415 20.4595H332.201C346.666 20.4595 358.432 32.2247 358.432 46.6943V389.768C358.432 404.234 346.666 415.999 332.201 415.999ZM98.2415 34.0978C91.2955 34.0978 85.6451 39.7444 85.6451 46.6943V389.768C85.6451 396.714 91.2955 402.361 98.2415 402.361H332.201C339.143 402.361 344.793 396.714 344.793 389.768V46.6943C344.793 39.7483 339.143 34.0978 332.201 34.0978H98.2415Z" fill="#1A428A"/>
<path fill-rule="evenodd" clip-rule="evenodd" d="M318.558 409.182H84.5992C73.8798 409.182 65.1855 400.488 65.1855 389.768V46.6943C65.1855 35.9709 73.8798 27.2806 84.5992 27.2806H318.562C329.282 27.2806 337.972 35.9709 337.972 46.6943V389.768C337.972 400.488 329.282 409.182 318.558 409.182Z" fill="#288EEA"/>
<path d="M318.558 415.999H84.5992C70.1336 415.999 58.3683 404.234 58.3683 389.768V46.6943C58.3683 32.2247 70.1336 20.4595 84.5992 20.4595H318.562C333.024 20.4595 344.793 32.2247 344.793 46.6943V389.768C344.793 404.234 333.024 415.999 318.558 415.999ZM84.5992 34.0978C77.6571 34.0978 72.0066 39.7444 72.0066 46.6943V389.768C72.0066 396.714 77.6571 402.361 84.5992 402.361H318.562C325.504 402.361 331.155 396.714 331.155 389.768V46.6943C331.155 39.7483 325.504 34.0978 318.562 34.0978H84.5992Z" fill="#1A428A"/>
<path d="M92.4662 54.5574H310.695V381.901H92.4662V54.5574Z" fill="#6BC4E8"/>
<path d="M310.695 388.722H92.4661C88.7005 388.722 85.645 385.671 85.645 381.901V54.5573C85.645 50.7878 88.7005 47.7362 92.4661 47.7362H310.695C314.461 47.7362 317.513 50.7878 317.513 54.5573V381.901C317.513 385.671 314.461 388.722 310.695 388.722ZM99.2834 375.08H303.874V61.3785H99.2834V375.08Z" fill="#1A428A"/>
<path d="M236.678 27.2807H222.04C222.04 15.9797 212.878 6.82117 201.581 6.82117C190.28 6.82117 181.121 15.9797 181.121 27.2807H166.484C155.733 27.2807 147.023 35.9905 147.023 46.7373V48.7352C147.023 59.4859 155.733 68.1957 166.484 68.1957H236.678C247.424 68.1957 256.138 59.4859 256.138 48.7352V46.7373C256.138 35.9905 247.424 27.2807 236.678 27.2807Z" fill="#D7E9FF"/>
<path d="M236.678 75.0168H166.484C151.991 75.0168 140.202 63.2281 140.202 48.7352V46.7372C140.202 32.2482 151.991 20.4595 166.484 20.4595H175.163C178.199 8.70201 188.895 0 201.581 0C214.267 0 224.959 8.70201 227.995 20.4595H236.678C251.171 20.4595 262.955 32.2482 262.955 46.7372V48.7352C262.955 63.2281 251.171 75.0168 236.678 75.0168ZM166.484 34.0978C159.515 34.0978 153.841 39.7639 153.841 46.7372V48.7352C153.841 55.7085 159.515 61.3785 166.484 61.3785H236.678C243.647 61.3785 249.317 55.7085 249.317 48.7352V46.7372C249.317 39.7639 243.647 34.0978 236.678 34.0978H222.04C218.275 34.0978 215.219 31.0502 215.219 27.2806C215.219 19.761 209.1 13.6384 201.581 13.6384C194.057 13.6384 187.942 19.761 187.942 27.2806C187.942 31.0502 184.887 34.0978 181.121 34.0978H166.484Z" fill="#1A428A"/>
<path d="M276.598 259.148H126.564C122.798 259.148 119.743 256.097 119.743 252.327C119.743 248.558 122.798 245.51 126.564 245.51H276.598C280.363 245.51 283.415 248.558 283.415 252.327C283.415 256.097 280.363 259.148 276.598 259.148Z" fill="#1A428A"/>
<path d="M235.679 286.425H126.564C122.798 286.425 119.743 283.377 119.743 279.608C119.743 275.838 122.798 272.787 126.564 272.787H235.679C239.444 272.787 242.5 275.838 242.5 279.608C242.5 283.377 239.444 286.425 235.679 286.425Z" fill="#1A428A"/>
<path d="M235.679 334.165H126.564C122.798 334.165 119.743 331.114 119.743 327.344C119.743 323.574 122.798 320.523 126.564 320.523H235.679C239.444 320.523 242.5 323.574 242.5 327.344C242.5 331.114 239.444 334.165 235.679 334.165Z" fill="#1A428A"/>
<path d="M269.776 156.851C269.776 194.515 239.245 225.05 201.581 225.05C163.916 225.05 133.385 194.515 133.385 156.851C133.385 119.19 163.916 88.6552 201.581 88.6552C239.245 88.6552 269.776 119.19 269.776 156.851Z" fill="#D7E9FF"/>
<path d="M201.581 231.868C160.217 231.868 126.564 198.219 126.564 156.851C126.564 115.487 160.217 81.8379 201.581 81.8379C242.945 81.8379 276.598 115.487 276.598 156.851C276.598 198.219 242.945 231.868 201.581 231.868ZM201.581 95.4762C167.737 95.4762 140.202 123.007 140.202 156.851C140.202 190.699 167.737 218.229 201.581 218.229C235.421 218.229 262.955 190.699 262.955 156.851C262.955 123.007 235.421 95.4762 201.581 95.4762Z" fill="#1A428A"/>
<path d="M179.517 119.167C179.517 118.445 179.997 117.973 180.708 117.973H210.876C228.054 117.973 236.159 126.558 236.159 139.556C236.159 148.742 231.866 153.983 226.742 156.726V156.968C231.749 158.876 237.591 165.319 237.591 175.215C237.591 191.312 227.453 199.061 209.686 199.061H180.708C179.997 199.061 179.517 198.585 179.517 197.871V119.167ZM210.525 151.716C217.678 151.716 222.091 147.427 222.091 141.109C222.091 134.667 217.678 130.37 210.525 130.37H194.299C193.827 130.37 193.589 130.612 193.589 131.084V151.005C193.589 151.477 193.827 151.716 194.299 151.716H210.525ZM194.299 186.66H211.235C219.11 186.66 223.515 182.126 223.515 175.332C223.515 168.651 219.11 164.117 211.235 164.117H194.299C193.827 164.117 193.589 164.359 193.589 164.835V185.942C193.589 186.422 193.827 186.66 194.299 186.66Z" fill="#1A428A"/>
<path d="M201.581 129.574C197.815 129.574 194.76 126.523 194.76 122.753V109.115C194.76 105.345 197.815 102.293 201.581 102.293C205.346 102.293 208.398 105.345 208.398 109.115V122.753C208.398 126.523 205.346 129.574 201.581 129.574Z" fill="#1A428A"/>
<path d="M201.581 211.408C197.815 211.408 194.76 208.361 194.76 204.591V197.77C194.76 194 197.815 190.953 201.581 190.953C205.346 190.953 208.398 194 208.398 197.77V204.591C208.398 208.361 205.346 211.408 201.581 211.408Z" fill="#1A428A"/>
<path d="M331.155 190.953C327.389 190.953 324.334 187.901 324.334 184.131V156.851C324.334 153.081 327.389 150.034 331.155 150.034C334.921 150.034 337.972 153.081 337.972 156.851V184.131C337.972 187.901 334.921 190.953 331.155 190.953Z" fill="white"/>
<path d="M344.793 177.31H317.513C313.747 177.31 310.695 174.263 310.695 170.493C310.695 166.724 313.747 163.672 317.513 163.672H344.793C348.559 163.672 351.614 166.724 351.614 170.493C351.614 174.263 348.559 177.31 344.793 177.31V177.31Z" fill="white"/>
<path d="M112.926 122.753C109.16 122.753 106.104 119.705 106.104 115.936V75.0168C106.104 71.2472 109.16 68.1957 112.926 68.1957C116.691 68.1957 119.743 71.2472 119.743 75.0168V115.936C119.743 119.705 116.691 122.753 112.926 122.753Z" fill="white"/>
</svg>
