<svg width="389" height="389" viewBox="0 0 389 389" fill="none" xmlns="http://www.w3.org/2000/svg">
<g clip-path="url(#clip0_1_856)">
<path fill-rule="evenodd" clip-rule="evenodd" d="M323.741 382.175H303.267V6.82605L323.741 20.4742V382.175Z" fill="#1A428A"/>
<path d="M323.741 389.001H303.267C299.495 389.001 296.441 385.947 296.441 382.175V6.82607C296.441 4.30341 297.827 1.99162 300.046 0.808394C302.26 -0.378739 304.966 -0.245968 307.051 1.14813L327.525 14.7963C329.423 16.0615 330.563 18.1937 330.563 20.4742V382.175C330.563 385.947 327.514 389.001 323.741 389.001V389.001ZM310.089 375.349H316.915V24.1254L310.089 19.576V375.349Z" fill="#1A428A"/>
<path d="M84.4987 6.82605H303.267V382.175H43.9331V47.7705L84.4987 6.82605Z" fill="#6BC4E8"/>
<path d="M303.267 389.001H43.9332C40.1648 389.001 37.1072 385.947 37.1072 382.175V47.7704C37.1072 45.9702 37.8179 44.2481 39.0831 42.9672L79.6487 2.01891C80.9335 0.726338 82.6752 0 84.4949 0H303.267C307.04 0 310.089 3.05375 310.089 6.82602V382.175C310.089 385.947 307.04 389.001 303.267 389.001V389.001ZM50.7592 375.349H296.441V13.6481H87.3417L50.7592 50.5781V375.349Z" fill="#1A428A"/>
<path d="M241.845 68.2446H91.7035C87.9351 68.2446 84.8813 65.1947 84.8813 61.4225C84.8813 57.6502 87.9351 54.5964 91.7035 54.5964H241.845C245.617 54.5964 248.671 57.6502 248.671 61.4225C248.671 65.1947 245.617 68.2446 241.845 68.2446Z" fill="#1A428A"/>
<path d="M241.845 136.493H91.7035C87.9351 136.493 84.8813 133.439 84.8813 129.667C84.8813 125.895 87.9351 122.841 91.7035 122.841H241.845C245.617 122.841 248.671 125.895 248.671 129.667C248.671 133.439 245.617 136.493 241.845 136.493Z" fill="#1A428A"/>
<path d="M153.126 102.367H91.7035C87.9351 102.367 84.8813 99.317 84.8813 95.5448C84.8813 91.7725 87.9351 88.7188 91.7035 88.7188H153.126C156.898 88.7188 159.952 91.7725 159.952 95.5448C159.952 99.317 156.898 102.367 153.126 102.367Z" fill="#1A428A"/>
<path d="M153.126 170.615H91.7035C87.9351 170.615 84.8813 167.562 84.8813 163.789C84.8813 160.017 87.9351 156.963 91.7035 156.963H153.126C156.898 156.963 159.952 160.017 159.952 163.789C159.952 167.562 156.898 170.615 153.126 170.615Z" fill="#1A428A"/>
<path d="M241.845 102.367H180.426C176.654 102.367 173.6 99.317 173.6 95.5448C173.6 91.7725 176.654 88.7188 180.426 88.7188H241.845C245.617 88.7188 248.671 91.7725 248.671 95.5448C248.671 99.317 245.617 102.367 241.845 102.367Z" fill="#1A428A"/>
<path d="M43.9331 218.386H344.215V327.579H43.9331V218.386Z" fill="white"/>
<path d="M344.216 334.405H43.9332C40.1648 334.405 37.1072 331.351 37.1072 327.579V218.386C37.1072 214.613 40.1648 211.56 43.9332 211.56H344.216C347.988 211.56 351.038 214.613 351.038 218.386V327.579C351.038 331.351 347.988 334.405 344.216 334.405ZM50.7592 320.753H337.39V225.212H50.7592V320.753Z" fill="#1A428A"/>
<path d="M91.3053 244.604C94.238 244.604 96.7645 244.936 98.8811 245.604C101.002 246.272 102.79 247.135 104.243 248.201C105.695 249.271 106.859 250.474 107.742 251.821C108.62 253.168 109.292 254.535 109.761 255.921C110.229 257.303 110.534 258.639 110.682 259.92C110.827 261.197 110.901 262.302 110.901 263.235C110.901 263.637 110.87 264.126 110.799 264.696C110.733 265.266 110.499 265.82 110.1 266.355C109.702 266.89 109.069 267.343 108.202 267.714C107.336 268.089 106.102 268.277 104.504 268.277C103.969 268.277 103.302 268.241 102.505 268.175C101.704 268.109 100.931 267.933 100.185 267.656C99.4395 267.375 98.7991 266.976 98.2641 266.453C97.733 265.934 97.4635 265.211 97.4635 264.278C97.4635 262.837 97.3776 261.544 97.2058 260.396C97.034 259.252 96.7177 258.28 96.2647 257.479C95.8117 256.679 95.1869 256.066 94.3864 255.64C93.5858 255.214 92.5588 254.999 91.3053 254.999C89.9971 254.999 88.9935 255.273 88.2867 255.82C87.576 256.366 87.0644 256.96 86.7481 257.596C86.3732 258.37 86.1584 259.236 86.1077 260.197V285.549C86.1584 286.72 86.3732 287.747 86.7481 288.63C87.0683 289.399 87.5799 290.106 88.2867 290.746C88.9935 291.387 89.9971 291.707 91.3053 291.707C92.5588 291.707 93.5858 291.445 94.3864 290.926C95.1869 290.407 95.8117 289.708 96.2647 288.829C96.7177 287.95 97.0301 286.935 97.2058 285.787C97.3815 284.643 97.4635 283.444 97.4635 282.19C97.4635 281.792 97.5299 281.378 97.6627 280.949C97.7994 280.523 98.104 280.132 98.5843 279.773C99.0646 279.41 99.7714 279.109 100.705 278.871C101.638 278.633 102.903 278.512 104.504 278.512C106.102 278.512 107.336 278.691 108.202 279.051C109.069 279.41 109.702 279.824 110.1 280.292C110.499 280.757 110.733 281.21 110.799 281.651C110.866 282.093 110.901 282.378 110.901 282.511C110.901 285.443 110.409 288.063 109.421 290.367C108.437 292.671 107.043 294.628 105.242 296.225C103.446 297.826 101.298 299.044 98.8069 299.888C96.3116 300.728 93.5741 301.145 90.5907 301.145C90.1103 301.145 89.3293 301.106 88.2515 301.028C87.1698 300.946 85.9632 300.731 84.6316 300.388C83.2999 300.04 81.9254 299.521 80.5117 298.826C79.102 298.135 77.8134 297.166 76.6536 295.928C75.4938 294.69 74.5409 293.144 73.7951 291.289C73.0453 289.438 72.6743 287.177 72.6743 284.51V262.2C72.6743 260.014 72.9399 258.081 73.4749 256.401C74.0098 254.722 74.7088 253.262 75.5719 252.024C76.4388 250.786 77.4346 249.743 78.5514 248.904C79.6722 248.064 80.8163 247.365 81.9918 246.807C84.7058 245.522 87.8142 244.792 91.3053 244.604V244.604Z" fill="#1A428A"/>
<path d="M119.136 254.043C119.136 252.895 119.172 251.774 119.238 250.68C119.304 249.587 119.523 248.615 119.898 247.763C120.273 246.908 120.863 246.225 121.679 245.702C122.491 245.182 123.643 244.924 125.135 244.924H138.33C141.61 245.085 144.543 245.776 147.128 247.002C148.221 247.537 149.295 248.197 150.346 248.982C151.4 249.771 152.341 250.743 153.165 251.903C153.993 253.063 154.657 254.425 155.164 255.999C155.672 257.573 155.926 259.397 155.926 261.478C155.926 261.904 155.883 262.47 155.805 263.177C155.723 263.883 155.551 264.657 155.285 265.496C155.016 266.336 154.657 267.211 154.204 268.117C153.751 269.022 153.153 269.889 152.404 270.713C151.658 271.537 150.744 272.299 149.666 272.994C148.588 273.685 147.311 274.244 145.847 274.673C146.78 275.044 147.729 275.532 148.686 276.13C149.647 276.731 150.514 277.496 151.287 278.43C152.06 279.363 152.693 280.484 153.185 281.788C153.677 283.096 153.923 284.615 153.923 286.349V292.027C153.923 292.347 154.005 292.613 154.165 292.828C154.325 293.039 154.485 293.226 154.645 293.386C155.285 294.026 155.656 294.577 155.762 295.046C155.871 295.514 155.926 295.893 155.926 296.186C155.926 297.119 155.738 297.904 155.364 298.545C154.993 299.185 154.504 299.704 153.907 300.107C153.306 300.505 152.626 300.79 151.869 300.966C151.107 301.138 150.326 301.223 149.529 301.223C148.647 301.223 147.757 301.083 146.851 300.806C145.945 300.524 145.117 300.118 144.371 299.583C143.625 299.052 143.016 298.385 142.551 297.584C142.086 296.783 141.852 295.866 141.852 294.827V286.349C141.852 285.174 141.77 284.096 141.61 283.112C141.45 282.124 141.145 281.273 140.692 280.55C140.239 279.832 139.611 279.273 138.81 278.871C138.01 278.473 136.971 278.27 135.694 278.27H131.215V291.629C131.215 292.8 131.18 293.944 131.113 295.065C131.047 296.186 130.828 297.178 130.453 298.045C130.078 298.912 129.481 299.607 128.653 300.126C127.825 300.646 126.654 300.903 125.135 300.903C123.643 300.903 122.487 300.646 121.679 300.126C120.866 299.607 120.273 298.912 119.898 298.045C119.523 297.178 119.304 296.186 119.238 295.065C119.172 293.948 119.136 292.8 119.136 291.629V254.043ZM136.651 269.319C137.982 269.265 139.185 268.944 140.251 268.359C140.704 268.117 141.141 267.812 141.567 267.441C141.997 267.066 142.383 266.601 142.731 266.039C143.074 265.481 143.348 264.828 143.547 264.083C143.746 263.337 143.848 262.47 143.848 261.482C143.848 260.603 143.746 259.822 143.547 259.143C143.348 258.463 143.086 257.87 142.77 257.366C142.45 256.858 142.083 256.433 141.669 256.085C141.255 255.738 140.837 255.46 140.407 255.245C139.396 254.738 138.248 254.445 136.971 254.367H131.211V269.319H136.651Z" fill="#1A428A"/>
<path d="M185.276 291.871C185.276 292.988 185.226 294.089 185.116 295.171C185.011 296.248 184.757 297.213 184.359 298.068C183.957 298.92 183.359 299.607 182.559 300.126C181.758 300.649 180.665 300.907 179.278 300.907C177.865 300.907 176.76 300.649 175.959 300.126C175.162 299.607 174.553 298.92 174.139 298.068C173.729 297.213 173.468 296.248 173.362 295.171C173.257 294.089 173.202 292.992 173.202 291.871V277.953L161.284 256.679C160.643 255.562 160.034 254.461 159.445 253.379C158.859 252.301 158.566 251.215 158.566 250.122C158.566 249.404 158.773 248.673 159.183 247.943C159.597 247.213 160.351 246.526 161.444 245.885C162.643 245.245 163.764 244.924 164.802 244.924C165.603 244.924 166.329 245.104 166.981 245.463C167.633 245.823 168.227 246.295 168.762 246.885C169.297 247.471 169.773 248.13 170.203 248.865C170.629 249.595 171.015 250.337 171.363 251.083L178.642 266.359H179.919L187.198 251.083C187.545 250.337 187.932 249.595 188.358 248.865C188.783 248.13 189.263 247.471 189.798 246.885C190.333 246.295 190.923 245.823 191.579 245.463C192.231 245.104 192.958 244.924 193.758 244.924C194.317 244.924 194.863 245.006 195.394 245.167C195.929 245.327 196.5 245.565 197.117 245.885C198.155 246.526 198.893 247.213 199.335 247.943C199.776 248.677 199.995 249.404 199.995 250.122C199.995 250.602 199.784 251.383 199.354 252.461C198.928 253.543 198.237 254.949 197.277 256.683L185.28 277.957V291.871H185.276Z" fill="#1A428A"/>
<path d="M216.946 278.836V291.793C216.946 292.937 216.911 294.058 216.845 295.151C216.778 296.245 216.552 297.217 216.165 298.068C215.782 298.923 215.173 299.607 214.349 300.13C213.521 300.649 212.334 300.907 210.788 300.907C209.296 300.907 208.144 300.649 207.332 300.13C206.52 299.607 205.926 298.923 205.551 298.068C205.176 297.217 204.958 296.245 204.891 295.151C204.825 294.058 204.79 292.937 204.79 291.793V254.043C204.79 252.895 204.825 251.778 204.891 250.684C204.958 249.591 205.176 248.619 205.551 247.763C205.926 246.912 206.516 246.225 207.332 245.705C208.144 245.186 209.296 244.924 210.788 244.924H223.983C227.291 245.085 230.251 245.78 232.859 247.006C233.98 247.537 235.066 248.205 236.12 249.005C237.17 249.806 238.119 250.782 238.959 251.946C239.799 253.106 240.47 254.476 240.978 256.062C241.486 257.651 241.739 259.482 241.739 261.56C241.739 264.415 241.29 266.914 240.4 269.062C239.506 271.205 238.213 273.006 236.522 274.458C234.827 275.911 232.762 277.004 230.321 277.739C227.884 278.473 225.131 278.84 222.066 278.84H216.946V278.836ZM222.386 269.319C223.718 269.237 224.916 268.917 225.982 268.359C226.435 268.117 226.877 267.812 227.302 267.441C227.728 267.066 228.115 266.605 228.462 266.059C228.81 265.512 229.083 264.868 229.282 264.118C229.481 263.372 229.583 262.521 229.583 261.56C229.583 260.654 229.481 259.861 229.282 259.178C229.083 258.498 228.821 257.913 228.501 257.421C228.181 256.929 227.822 256.507 227.423 256.163C227.021 255.816 226.607 255.523 226.182 255.281C225.166 254.773 224.034 254.468 222.784 254.363H216.946V269.319H222.386Z" fill="#1A428A"/>
<path d="M272.21 244.924C273.276 244.924 274.35 244.963 275.428 245.045C276.51 245.124 277.49 245.35 278.369 245.725C279.247 246.096 279.962 246.662 280.509 247.424C281.055 248.181 281.329 249.243 281.329 250.602C281.329 251.934 281.055 252.981 280.509 253.742C279.962 254.5 279.247 255.066 278.369 255.441C277.49 255.812 276.51 256.046 275.428 256.14C274.35 256.233 273.276 256.28 272.21 256.28H268.13V291.789C268.13 292.933 268.094 294.054 268.028 295.147C267.962 296.241 267.743 297.213 267.368 298.064C266.997 298.92 266.396 299.607 265.568 300.126C264.74 300.646 263.569 300.903 262.049 300.903C260.534 300.903 259.359 300.646 258.535 300.126C257.707 299.607 257.106 298.92 256.735 298.064C256.36 297.213 256.141 296.241 256.075 295.147C256.004 294.054 255.973 292.933 255.973 291.789V256.28H251.892C250.826 256.28 249.752 256.233 248.675 256.14C247.593 256.046 246.613 255.812 245.734 255.441C244.852 255.066 244.141 254.5 243.594 253.742C243.048 252.981 242.774 251.934 242.774 250.602C242.774 249.243 243.048 248.181 243.594 247.424C244.141 246.662 244.852 246.096 245.734 245.725C246.613 245.35 247.593 245.124 248.675 245.045C249.752 244.967 250.826 244.924 251.892 244.924H272.21Z" fill="#1A428A"/>
<path d="M285.804 260.759C285.804 258.202 286.179 256.023 286.925 254.222C287.671 252.422 288.623 250.923 289.783 249.724C290.943 248.525 292.224 247.584 293.622 246.904C295.024 246.225 296.383 245.713 297.703 245.366C299.023 245.018 300.217 244.807 301.284 244.725C302.35 244.643 303.135 244.604 303.642 244.604H305.001C305.509 244.604 306.294 244.643 307.36 244.725C308.426 244.807 309.613 245.018 310.921 245.366C312.225 245.713 313.581 246.225 314.979 246.904C316.377 247.584 317.646 248.525 318.778 249.724C319.915 250.923 320.844 252.422 321.578 254.222C322.312 256.023 322.679 258.202 322.679 260.759V284.674C322.679 287.314 322.312 289.551 321.578 291.391C320.844 293.234 319.911 294.765 318.778 295.991C317.646 297.213 316.38 298.181 314.979 298.888C313.577 299.595 312.225 300.122 310.921 300.47C309.613 300.813 308.426 301.028 307.36 301.106C306.294 301.188 305.509 301.227 305.001 301.227H303.642C303.135 301.227 302.35 301.188 301.284 301.106C300.217 301.028 299.023 300.813 297.703 300.47C296.383 300.122 295.024 299.595 293.622 298.888C292.224 298.181 290.943 297.217 289.783 295.991C288.623 294.765 287.671 293.23 286.925 291.391C286.179 289.551 285.804 287.314 285.804 284.674V260.759ZM299.081 286.193C299.136 287.177 299.362 288.044 299.761 288.79C300.108 289.458 300.635 290.055 301.342 290.59C302.045 291.125 303.053 291.391 304.361 291.391C305.642 291.391 306.626 291.125 307.317 290.59C308.012 290.055 308.531 289.458 308.879 288.79C309.25 288.044 309.48 287.177 309.558 286.193V260.119C309.476 259.162 309.25 258.295 308.879 257.522C308.531 256.882 308.012 256.288 307.317 255.741C306.626 255.195 305.642 254.921 304.361 254.921C303.053 254.921 302.049 255.195 301.342 255.741C300.631 256.288 300.108 256.882 299.761 257.522C299.362 258.295 299.136 259.162 299.081 260.119V286.193Z" fill="#1A428A"/>
<path d="M296.441 81.8967C292.669 81.8967 289.619 78.8429 289.619 75.0707V47.7705C289.619 43.9982 292.669 40.9484 296.441 40.9484C300.214 40.9484 303.267 43.9982 303.267 47.7705V75.0707C303.267 78.8429 300.214 81.8967 296.441 81.8967Z" fill="white"/>
<path d="M310.089 68.2446H282.793C279.021 68.2446 275.967 65.1947 275.967 61.4225C275.967 57.6502 279.021 54.5964 282.793 54.5964H310.089C313.862 54.5964 316.915 57.6502 316.915 61.4225C316.915 65.1947 313.862 68.2446 310.089 68.2446Z" fill="white"/>
<path d="M112.178 368.527H64.4073C60.6389 368.527 57.5813 365.473 57.5813 361.701C57.5813 357.929 60.6389 354.879 64.4073 354.879H112.178C115.946 354.879 119.004 357.929 119.004 361.701C119.004 365.473 115.946 368.527 112.178 368.527Z" fill="white"/>
</g>
<defs>
<clipPath id="clip0_1_856">
<rect width="389" height="389" fill="white"/>
</clipPath>
</defs>
</svg>
