<svg width="432" height="432" viewBox="0 0 432 432" fill="none" xmlns="http://www.w3.org/2000/svg">
<g clip-path="url(#clip0_1_878)">
<path d="M209.037 305.537C208.839 305.537 208.632 305.53 208.425 305.51C195.439 304.352 183.147 300.442 171.9 293.889C168.645 291.99 167.546 287.819 169.436 284.571C171.327 281.32 175.502 280.228 178.754 282.111C188.266 287.655 198.66 290.961 209.638 291.939C213.384 292.271 216.152 295.584 215.821 299.331C215.497 302.871 212.53 305.537 209.037 305.537V305.537ZM230.327 304.687C227.068 304.687 224.187 302.344 223.622 299.023C222.982 295.319 225.47 291.799 229.185 291.16C240.027 289.296 250.116 285.152 259.164 278.852C262.252 276.708 266.497 277.46 268.645 280.548C270.794 283.636 270.033 287.881 266.95 290.029C256.248 297.487 244.319 302.383 231.485 304.586C231.099 304.652 230.705 304.687 230.327 304.687V304.687ZM158.439 281.764C156.688 281.764 154.938 281.094 153.608 279.757C144.533 270.634 137.434 259.441 133.079 247.399C131.804 243.859 133.633 239.957 137.172 238.678C140.724 237.38 144.622 239.235 145.893 242.768C149.573 252.954 155.581 262.424 163.265 270.147C165.92 272.813 165.908 277.129 163.238 279.78C161.916 281.109 160.174 281.764 158.439 281.764V281.764ZM278.832 276.895C277.281 276.895 275.717 276.369 274.439 275.285C271.565 272.856 271.207 268.552 273.636 265.683C280.668 257.367 285.889 247.446 288.731 236.994C289.721 233.368 293.475 231.212 297.093 232.21C300.718 233.193 302.87 236.939 301.876 240.573C298.516 252.935 292.348 264.658 284.041 274.478C282.692 276.076 280.766 276.895 278.832 276.895V276.895ZM134.923 231.068C131.41 231.068 128.432 228.366 128.14 224.807C127.937 222.324 127.832 219.829 127.832 217.303C127.832 206.835 129.64 196.59 133.2 186.847C134.498 183.315 138.424 181.518 141.944 182.789C145.476 184.087 147.293 188.001 146.002 191.533C142.989 199.771 141.457 208.437 141.457 217.303C141.457 219.458 141.55 221.595 141.722 223.704C142.022 227.454 139.235 230.741 135.48 231.049C135.297 231.06 135.11 231.068 134.923 231.068ZM298.153 224.281C294.395 224.281 291.339 221.404 291.339 217.642C291.339 217.509 291.354 217.037 291.358 216.901C291.346 206.235 288.992 195.584 284.349 185.639C282.758 182.232 284.228 178.177 287.643 176.583C291.054 174.992 295.109 176.462 296.695 179.877C302.184 191.631 304.972 204.227 304.972 217.303C304.972 221.068 301.919 224.281 298.153 224.281V224.281ZM149.488 177.113C148.131 177.113 146.767 176.707 145.57 175.869C142.494 173.702 141.757 169.456 143.925 166.376C151.324 155.878 161.105 146.935 172.204 140.533C175.444 138.654 179.619 139.769 181.51 143.028C183.393 146.291 182.278 150.455 179.015 152.338C169.616 157.761 161.331 165.332 155.066 174.228C153.741 176.111 151.632 177.113 149.488 177.113ZM279.062 171.593C277.113 171.593 275.187 170.766 273.834 169.156C266.844 160.817 257.952 153.987 248.132 149.394C244.724 147.796 243.255 143.746 244.845 140.334C246.443 136.927 250.475 135.469 253.905 137.048C265.511 142.475 276.014 150.552 284.278 160.4C286.696 163.281 286.313 167.577 283.436 170.002C282.158 171.066 280.606 171.593 279.062 171.593ZM195.322 145.098C192.317 145.098 189.56 143.087 188.746 140.042C187.779 136.401 189.942 132.67 193.576 131.699C200.979 129.73 208.655 128.732 216.402 128.732H216.522C221.645 128.732 226.807 129.185 231.851 130.074C235.559 130.728 238.031 134.26 237.372 137.964C236.721 141.672 233.173 144.159 229.481 143.488C225.216 142.736 220.854 142.358 216.515 142.358C216.48 142.358 216.448 142.358 216.409 142.358C209.844 142.358 203.342 143.2 197.088 144.872C196.492 145.024 195.911 145.098 195.322 145.098Z" fill="#1A428A"/>
<path d="M264.092 217.303C264.092 243.641 242.74 264.993 216.402 264.993C190.063 264.993 168.711 243.641 168.711 217.303C168.711 190.96 190.063 169.608 216.402 169.608C242.74 169.608 264.092 190.96 264.092 217.303V217.303Z" fill="#6BC4E8"/>
<path d="M216.401 271.808C186.348 271.808 161.896 247.356 161.896 217.303C161.896 187.245 186.348 162.798 216.401 162.798C246.455 162.798 270.906 187.245 270.906 217.303C270.906 247.356 246.455 271.808 216.401 271.808ZM216.401 176.423C193.86 176.423 175.522 194.761 175.522 217.303C175.522 239.844 193.86 258.178 216.401 258.178C238.943 258.178 257.281 239.844 257.281 217.303C257.281 194.761 238.943 176.423 216.401 176.423Z" fill="#1A428A"/>
<path d="M200.449 190.142C200.449 189.662 200.769 189.335 201.252 189.335H220.694C231.746 189.335 237.227 194.984 237.227 203.775C237.227 210.149 234.167 214.02 229.887 215.716V215.876C233.602 216.928 238.198 221.201 238.198 228.546C238.198 238.795 231.746 244.194 220.288 244.194H201.252C200.765 244.194 200.445 243.875 200.445 243.391V190.142H200.449ZM220.534 213.053C226.581 213.053 230.136 209.584 230.136 204.5C230.136 199.256 226.581 195.873 220.534 195.873H208.106C207.786 195.873 207.626 196.032 207.626 196.356V212.57C207.626 212.897 207.786 213.057 208.106 213.057H220.534V213.053ZM208.106 237.661H220.932C227.466 237.661 231.021 234.109 231.021 228.624C231.021 223.221 227.466 219.587 220.932 219.587H208.106C207.786 219.587 207.626 219.751 207.626 220.074V237.173C207.626 237.501 207.786 237.661 208.106 237.661Z" fill="#1A428A"/>
<path d="M148.271 128.732H32.4468V113.154C32.4468 102.449 42.5946 93.7667 55.1166 93.7667L90.359 87.9385L125.602 93.7667C138.12 93.7667 148.271 102.449 148.271 113.154V128.732Z" fill="#2A8EE6"/>
<path d="M148.271 135.543H32.4467C28.6807 135.543 25.636 132.498 25.636 128.732V113.154C25.636 98.8816 38.54 87.2368 54.5239 86.96L89.2479 81.2175C89.9808 81.0966 90.7371 81.0966 91.47 81.2175L126.194 86.96C142.178 87.2368 155.086 98.8816 155.086 113.154V128.732C155.082 132.498 152.037 135.543 148.271 135.543ZM39.2613 121.918H141.457V113.154C141.457 106.222 134.346 100.577 125.601 100.577C125.227 100.577 124.857 100.546 124.49 100.484L90.3589 94.8427L56.2275 100.484C55.8611 100.546 55.4868 100.577 55.1165 100.577C46.3721 100.577 39.2613 106.219 39.2613 113.154V121.918Z" fill="#1A428A"/>
<path d="M106.756 87.8528H73.6929C66.3598 87.8528 60.4146 81.9076 60.4146 74.5745V44.4118C60.4146 28.4474 73.3576 15.5044 89.3258 15.5044H91.1192C107.087 15.5044 120.03 28.4474 120.03 44.4118V74.5745C120.03 81.9076 114.089 87.8528 106.756 87.8528Z" fill="#D7E9FF"/>
<path d="M106.752 94.6635H73.693C62.6134 94.6635 53.604 85.6502 53.604 74.5706V44.4118C53.604 24.7166 69.6346 8.68982 89.3299 8.68982H91.1271C110.818 8.68982 126.849 24.7166 126.849 44.4118V74.5706C126.845 85.6502 117.832 94.6635 106.752 94.6635ZM89.3299 22.3151C77.1471 22.3151 67.2332 32.229 67.2332 44.4118V74.5706C67.2332 78.1378 70.1337 81.0382 73.693 81.0382H106.752C110.319 81.0382 113.22 78.1378 113.22 74.5706V44.4118C113.22 32.229 103.306 22.3151 91.1232 22.3151H89.3299Z" fill="#1A428A"/>
<path d="M407.171 367.188H291.346V351.614C291.346 340.909 301.494 332.227 314.016 332.227L349.259 326.398L384.501 332.227C397.019 332.227 407.171 340.909 407.171 351.614V367.188Z" fill="#2A8EE6"/>
<path d="M407.171 374.003H291.346C287.58 374.003 284.532 370.954 284.532 367.188V351.614C284.532 337.341 297.44 325.697 313.424 325.42L348.148 319.677C348.88 319.556 349.637 319.556 350.37 319.677L385.094 325.42C401.077 325.697 413.985 337.341 413.985 351.614V367.188C413.982 370.954 410.937 374.003 407.171 374.003V374.003ZM298.161 360.378H400.356V351.614C400.356 344.682 393.241 339.037 384.501 339.037C384.127 339.037 383.753 339.006 383.39 338.944L349.259 333.303L315.127 338.944C314.761 339.006 314.386 339.037 314.016 339.037C305.272 339.037 298.161 344.678 298.161 351.614V360.378Z" fill="#1A428A"/>
<path d="M365.652 326.313H332.593C325.259 326.313 319.314 320.367 319.314 313.034V282.872C319.314 266.907 332.257 253.964 348.226 253.964H350.019C365.987 253.964 378.93 266.907 378.93 282.872V313.034C378.93 320.367 372.985 326.313 365.652 326.313Z" fill="#D7E9FF"/>
<path d="M365.652 333.123H332.592C321.513 333.123 312.503 324.11 312.503 313.03V282.872C312.503 263.176 328.53 247.15 348.225 247.15H350.023C369.718 247.15 385.748 263.176 385.748 282.872V313.03C385.745 324.11 376.731 333.123 365.652 333.123V333.123ZM348.225 260.775C336.046 260.775 326.129 270.689 326.129 282.872V313.03C326.129 316.597 329.033 319.498 332.592 319.498H365.652C369.219 319.498 372.119 316.597 372.119 313.03V282.872C372.119 270.689 362.205 260.775 350.023 260.775H348.225Z" fill="#1A428A"/>
<path d="M339.037 288.84C335.271 288.84 332.226 285.791 332.226 282.025C332.226 272.63 339.863 264.993 349.259 264.993C353.025 264.993 356.069 268.042 356.069 271.808C356.069 275.573 353.025 278.618 349.259 278.618C347.38 278.618 345.851 280.15 345.851 282.025C345.851 285.791 342.803 288.84 339.037 288.84Z" fill="white"/>
<path d="M400.356 210.488H386.731C386.731 119.98 318.991 44.287 229.161 34.4199L230.655 20.8726C327.4 31.5038 400.356 113.021 400.356 210.488V210.488Z" fill="#1A428A"/>
<path d="M209.587 401.257C104.398 401.257 18.8215 315.681 18.8215 210.488H32.4468C32.4468 308.169 111.91 387.628 209.587 387.628V401.257Z" fill="#1A428A"/>
<path d="M244.798 71.1906L213.267 23.89L261.047 0L267.141 12.1906L233.161 29.1725L256.135 63.6314L244.798 71.1906Z" fill="#1A428A"/>
<path d="M191.385 432.001L180.859 423.35L207.154 391.355L175.046 371.063L182.321 359.536L227.485 388.08L191.385 432.001Z" fill="#1A428A"/>
<path d="M250.467 374.003C246.701 374.003 243.656 370.954 243.656 367.188V339.938C243.656 336.172 246.701 333.123 250.467 333.123C254.233 333.123 257.281 336.172 257.281 339.938V367.188C257.281 370.954 254.233 374.003 250.467 374.003Z" fill="#1A428A"/>
<path d="M264.092 360.378H236.841C233.075 360.378 230.027 357.329 230.027 353.563C230.027 349.797 233.075 346.752 236.841 346.752H264.092C267.858 346.752 270.907 349.797 270.907 353.563C270.907 357.329 267.858 360.378 264.092 360.378Z" fill="#1A428A"/>
<path d="M182.337 94.6634C178.571 94.6634 175.522 91.6187 175.522 87.8527V60.5983C175.522 56.8323 178.571 53.7876 182.337 53.7876C186.103 53.7876 189.151 56.8323 189.151 60.5983V87.8527C189.151 91.6187 186.103 94.6634 182.337 94.6634Z" fill="#1A428A"/>
<path d="M195.962 81.0382H168.711C164.945 81.0382 161.896 77.9935 161.896 74.2275C161.896 70.4616 164.945 67.413 168.711 67.413H195.962C199.728 67.413 202.776 70.4616 202.776 74.2275C202.776 77.9935 199.728 81.0382 195.962 81.0382Z" fill="#1A428A"/>
<path d="M80.141 50.3803C76.375 50.3803 73.3264 47.3317 73.3264 43.5658C73.3264 34.1704 80.9636 26.5332 90.359 26.5332C94.1249 26.5332 97.1736 29.5818 97.1736 33.3478C97.1736 37.1137 94.1249 40.1585 90.359 40.1585C88.4799 40.1585 86.9517 41.6906 86.9517 43.5658C86.9517 47.3317 83.907 50.3803 80.141 50.3803Z" fill="white"/>
</g>
<defs>
<clipPath id="clip0_1_878">
<rect width="432" height="432" fill="white"/>
</clipPath>
</defs>
</svg>
