<svg width="432" height="432" viewBox="0 0 432 432" fill="none" xmlns="http://www.w3.org/2000/svg">
<g clip-path="url(#clip0_1_902)">
<path d="M209.415 121.918C209.415 174.598 166.711 217.303 114.031 217.303C61.3541 217.303 18.6499 174.598 18.6499 121.918C18.6499 69.2374 61.3541 26.5332 114.031 26.5332C166.711 26.5332 209.415 69.2374 209.415 121.918Z" fill="#1A428A"/>
<path d="M114.031 224.113C57.6818 224.113 11.8354 178.271 11.8354 121.918C11.8354 65.5611 57.6818 19.7225 114.031 19.7225C170.384 19.7225 216.23 65.5611 216.23 121.918C216.23 178.271 170.384 224.113 114.031 224.113ZM114.031 33.3478C65.1904 33.3478 25.4607 73.0813 25.4607 121.918C25.4607 170.754 65.1904 210.488 114.031 210.488C162.871 210.488 202.601 170.754 202.601 121.918C202.601 73.0813 162.871 33.3478 114.031 33.3478Z" fill="#1A428A"/>
<path d="M413.81 319.498C413.81 372.178 371.106 414.883 318.425 414.883C265.745 414.883 223.041 372.178 223.041 319.498C223.041 266.817 265.745 224.113 318.425 224.113C371.106 224.113 413.81 266.817 413.81 319.498V319.498Z" fill="#1A428A"/>
<path d="M318.425 421.693C262.072 421.693 216.23 375.855 216.23 319.498C216.23 263.145 262.072 217.303 318.425 217.303C374.778 217.303 420.621 263.145 420.621 319.498C420.621 375.855 374.778 421.693 318.425 421.693ZM318.425 230.928C269.585 230.928 229.855 270.661 229.855 319.498C229.855 368.335 269.585 408.068 318.425 408.068C367.266 408.068 406.995 368.335 406.995 319.498C406.995 270.661 367.266 230.928 318.425 230.928V230.928Z" fill="#1A428A"/>
<path d="M209.415 108.293C209.415 160.969 166.711 203.673 114.031 203.673C61.3541 203.673 18.6499 160.969 18.6499 108.293C18.6499 55.6122 61.3541 12.908 114.031 12.908C166.711 12.908 209.415 55.6122 209.415 108.293Z" fill="#6BC4E8"/>
<path d="M114.031 210.488C57.6818 210.488 11.8354 164.645 11.8354 108.293C11.8354 51.9359 57.6818 6.09338 114.031 6.09338C170.384 6.09338 216.23 51.9359 216.23 108.293C216.23 164.645 170.384 210.488 114.031 210.488ZM114.031 19.7225C65.1904 19.7225 25.4607 59.4561 25.4607 108.293C25.4607 157.129 65.1904 196.863 114.031 196.863C162.871 196.863 202.601 157.129 202.601 108.293C202.601 59.4561 162.871 19.7225 114.031 19.7225Z" fill="#1A428A"/>
<path d="M43.2066 74.2275C42.0487 74.2275 40.8792 73.9312 39.8032 73.3074C36.5479 71.4244 35.433 67.2608 37.3159 63.9978C47.183 46.934 62.6718 33.4803 80.9168 26.116C84.4176 24.7243 88.3785 26.4006 89.782 29.8859C91.1893 33.375 89.5052 37.3476 86.016 38.755C70.5741 44.9848 57.4673 56.3762 49.1128 70.8241C47.8458 73.0072 45.5574 74.2275 43.2066 74.2275Z" fill="white"/>
<path d="M182.165 108.293C182.165 145.921 151.659 176.423 114.031 176.423C76.4025 176.423 45.9006 145.921 45.9006 108.293C45.9006 70.6642 76.4025 40.1584 114.031 40.1584C151.659 40.1584 182.165 70.6642 182.165 108.293Z" fill="#D7E9FF"/>
<path d="M114.031 183.237C72.7066 183.237 39.0859 149.617 39.0859 108.293C39.0859 66.9646 72.7066 33.3478 114.031 33.3478C155.359 33.3478 188.976 66.9646 188.976 108.293C188.976 149.617 155.359 183.237 114.031 183.237ZM114.031 46.973C80.2229 46.973 52.7151 74.477 52.7151 108.293C52.7151 142.104 80.2229 169.608 114.031 169.608C147.842 169.608 175.35 142.104 175.35 108.293C175.35 74.477 147.842 46.973 114.031 46.973Z" fill="#1A428A"/>
<path d="M94.3862 76.5121C94.3862 75.9468 94.7605 75.5764 95.3219 75.5764H119.021C132.51 75.5764 138.88 82.313 138.88 92.5271C138.88 99.7393 135.508 103.856 131.48 106.016V106.199C135.414 107.704 140.003 112.76 140.003 120.53C140.003 133.181 132.042 139.266 118.085 139.266H95.3219C94.7605 139.266 94.3862 138.896 94.3862 138.331V76.5121ZM118.74 102.082C124.362 102.082 127.824 98.7101 127.824 93.7434C127.824 88.6871 124.362 85.3149 118.74 85.3149H106C105.626 85.3149 105.438 85.502 105.438 85.8763V101.525C105.438 101.899 105.626 102.082 106 102.082H118.74ZM106 129.528H119.302C125.485 129.528 128.95 125.968 128.95 120.624C128.95 115.38 125.485 111.821 119.302 111.821H106C105.626 111.821 105.438 112.008 105.438 112.386V128.963C105.438 129.341 105.626 129.528 106 129.528Z" fill="#1A428A"/>
<path d="M110.623 84.4455C106.861 84.4455 103.813 81.3968 103.813 77.6309V70.8202C103.813 67.0542 106.861 64.0056 110.623 64.0056C114.389 64.0056 117.438 67.0542 117.438 70.8202V77.6309C117.438 81.3968 114.389 84.4455 110.623 84.4455Z" fill="#1A428A"/>
<path d="M110.623 152.576C106.861 152.576 103.813 149.531 103.813 145.765V138.95C103.813 135.184 106.861 132.136 110.623 132.136C114.389 132.136 117.438 135.184 117.438 138.95V145.765C117.438 149.531 114.389 152.576 110.623 152.576Z" fill="#1A428A"/>
<path d="M107.22 40.1584H120.845V53.7876H107.22V40.1584Z" fill="#1A428A"/>
<path d="M107.22 162.798H120.845V176.423H107.22V162.798Z" fill="#1A428A"/>
<path d="M161.725 101.478H182.165V115.103H161.725V101.478Z" fill="#1A428A"/>
<path d="M45.9006 101.478H66.3405V115.103H45.9006V101.478Z" fill="#1A428A"/>
<path d="M413.81 305.873C413.81 358.549 371.106 401.257 318.425 401.257C265.745 401.257 223.041 358.549 223.041 305.873C223.041 253.192 265.745 210.488 318.425 210.488C371.106 210.488 413.81 253.192 413.81 305.873V305.873Z" fill="#2A8EE6"/>
<path d="M318.425 408.068C262.072 408.068 216.23 362.225 216.23 305.873C216.23 249.516 262.072 203.673 318.425 203.673C374.778 203.673 420.621 249.516 420.621 305.873C420.621 362.225 374.778 408.068 318.425 408.068ZM318.425 217.303C269.585 217.303 229.855 257.036 229.855 305.873C229.855 354.709 269.585 394.443 318.425 394.443C367.266 394.443 406.995 354.709 406.995 305.873C406.995 257.036 367.266 217.303 318.425 217.303V217.303Z" fill="#1A428A"/>
<path d="M386.556 305.873C386.556 343.501 356.054 374.003 318.425 374.003C280.797 374.003 250.295 343.501 250.295 305.873C250.295 268.244 280.797 237.742 318.425 237.742C356.054 237.742 386.556 268.244 386.556 305.873Z" fill="#D7E9FF"/>
<path d="M318.425 380.818C277.101 380.818 243.48 347.197 243.48 305.873C243.48 264.549 277.101 230.928 318.425 230.928C359.749 230.928 393.37 264.549 393.37 305.873C393.37 347.197 359.749 380.818 318.425 380.818ZM318.425 244.553C284.614 244.553 257.106 272.057 257.106 305.873C257.106 339.684 284.614 367.188 318.425 367.188C352.237 367.188 379.745 339.684 379.745 305.873C379.745 272.057 352.237 244.553 318.425 244.553V244.553Z" fill="#1A428A"/>
<path d="M311.611 237.742H325.24V251.368H311.611V237.742Z" fill="#1A428A"/>
<path d="M311.611 360.378H325.24V374.003H311.611V360.378Z" fill="#1A428A"/>
<path d="M366.116 299.058H386.556V312.683H366.116V299.058Z" fill="#1A428A"/>
<path d="M250.295 299.058H270.735V312.683H250.295V299.058Z" fill="#1A428A"/>
<path d="M314.815 348.725V338.406C308.89 338.3 302.757 336.464 299.178 333.907L301.631 327.061C305.311 329.509 310.624 331.451 316.347 331.451C323.603 331.451 328.511 327.26 328.511 321.439C328.511 315.814 324.523 312.344 316.963 309.276C306.535 305.19 300.099 300.485 300.099 291.596C300.099 283.113 306.129 276.681 315.533 275.145V264.821H321.868V274.735C328 274.934 332.191 276.571 335.154 278.31L332.6 285.055C330.456 283.831 326.261 281.585 319.724 281.585C311.852 281.585 308.89 286.283 308.89 290.372C308.89 295.682 312.675 298.345 321.56 302.021C332.09 306.313 337.403 311.623 337.403 320.718C337.403 328.796 331.782 336.355 321.256 338.098V348.725H314.815Z" fill="#1A428A"/>
<path d="M400.185 210.488H386.556C386.556 119.98 318.819 44.287 228.99 34.4199L230.479 20.8726C327.224 31.5038 400.185 113.021 400.185 210.488Z" fill="#1A428A"/>
<path d="M209.415 401.257C104.226 401.257 18.6499 315.681 18.6499 210.488H32.2752C32.2752 308.169 111.738 387.628 209.415 387.628V401.257Z" fill="#1A428A"/>
<path d="M244.627 71.1906L213.092 23.89L260.872 0L266.969 12.1906L232.993 29.1725L255.963 63.6314L244.627 71.1906Z" fill="#1A428A"/>
<path d="M191.213 432.001L180.691 423.35L206.983 391.355L174.871 371.063L182.149 359.536L227.309 388.08L191.213 432.001Z" fill="#1A428A"/>
<path d="M270.735 401.257C266.973 401.257 263.92 398.209 263.92 394.443V367.188C263.92 363.422 266.973 360.378 270.735 360.378C274.497 360.378 277.546 363.422 277.546 367.188V394.443C277.546 398.209 274.497 401.257 270.735 401.257Z" fill="white"/>
<path d="M284.36 387.628H257.106C253.344 387.628 250.295 384.583 250.295 380.818C250.295 377.052 253.344 374.003 257.106 374.003H284.36C288.122 374.003 291.175 377.052 291.175 380.818C291.175 384.583 288.122 387.628 284.36 387.628Z" fill="white"/>
</g>
<defs>
<clipPath id="clip0_1_902">
<rect width="432" height="432" fill="white"/>
</clipPath>
</defs>
</svg>
