<svg width="369" height="369" viewBox="0 0 369 369" fill="none" xmlns="http://www.w3.org/2000/svg">
<g clip-path="url(#clip0_1_935)">
<path d="M163.718 27.2344C84.7457 27.2344 20.7273 91.2527 20.7273 170.225C20.7273 205.68 33.7016 238.054 55.0645 263.04L34.3445 299.598L92.0198 293.812C113.114 306.077 137.555 313.215 163.718 313.215C242.69 313.215 306.708 249.197 306.708 170.225C306.708 91.2527 242.69 27.2344 163.718 27.2344V27.2344Z" fill="#1A428A"/>
<path d="M163.718 320.026C138.186 320.026 112.935 313.39 90.5354 300.81L35.0224 306.373C32.5016 306.603 30.0275 305.45 28.6405 303.315C27.2495 301.18 27.1677 298.456 28.4184 296.243L46.8279 263.765C25.5703 237.235 13.9167 204.207 13.9167 170.229C13.9167 87.6293 81.1183 20.4277 163.718 20.4277C246.317 20.4277 313.515 87.6293 313.515 170.229C313.515 252.828 246.317 320.026 163.718 320.026V320.026ZM92.0198 287.005C93.2199 287.005 94.4004 287.325 95.4446 287.929C116.242 300.019 139.85 306.408 163.718 306.408C238.805 306.408 299.897 245.316 299.897 170.225C299.897 95.1334 238.805 34.0449 163.718 34.0449C88.6263 34.0449 27.5339 95.1334 27.5339 170.225C27.5339 202.555 39.1524 233.947 60.2425 258.618C62.1049 260.792 62.4049 263.905 60.9906 266.398L46.7539 291.513L91.3419 287.036C91.5679 287.017 91.7939 287.005 92.0198 287.005V287.005Z" fill="#1A428A"/>
<path d="M163.718 47.6621C107.309 47.6621 61.5791 93.3917 61.5791 149.797C61.5791 206.206 107.309 251.936 163.718 251.936C220.123 251.936 265.853 206.206 265.853 149.797C265.853 93.3917 220.123 47.6621 163.718 47.6621Z" fill="#D7E9FF"/>
<path d="M163.718 258.742C103.646 258.742 54.7725 209.868 54.7725 149.797C54.7725 89.7254 103.646 40.8516 163.718 40.8516C223.789 40.8516 272.663 89.7254 272.663 149.797C272.663 209.868 223.789 258.742 163.718 258.742ZM163.718 54.4727C111.15 54.4727 68.3897 97.2334 68.3897 149.797C68.3897 202.364 111.15 245.125 163.718 245.125C216.281 245.125 259.042 202.364 259.042 149.797C259.042 97.2334 216.281 54.4727 163.718 54.4727Z" fill="#1A428A"/>
<path d="M163.718 68.0898C118.588 68.0898 82.0068 104.671 82.0068 149.797C82.0068 194.923 118.588 231.508 163.718 231.508C208.844 231.508 245.425 194.923 245.425 149.797C245.425 104.671 208.844 68.0898 163.718 68.0898Z" fill="#D7E9FF"/>
<path d="M163.718 238.315C114.906 238.315 75.2002 198.605 75.2002 149.797C75.2002 100.989 114.906 61.2793 163.718 61.2793C212.529 61.2793 252.235 100.989 252.235 149.797C252.235 198.605 212.529 238.315 163.718 238.315ZM163.718 74.8965C122.414 74.8965 88.8174 108.497 88.8174 149.797C88.8174 191.1 122.414 224.697 163.718 224.697C205.017 224.697 238.618 191.1 238.618 149.797C238.618 108.497 205.017 74.8965 163.718 74.8965Z" fill="#1A428A"/>
<path d="M163.718 6.80664C84.7457 6.80664 20.7273 70.825 20.7273 149.797C20.7273 185.252 33.7016 217.626 55.0645 242.612L34.3445 299.598L92.0198 273.384C113.114 285.649 137.555 292.791 163.718 292.791C242.69 292.791 306.708 228.769 306.708 149.797C306.708 70.825 242.69 6.80664 163.718 6.80664V6.80664Z" fill="#2A8EE6"/>
<path d="M34.3445 306.408C32.6652 306.408 31.0055 305.781 29.7197 304.601C27.7054 302.738 27.008 299.851 27.943 297.272L47.3305 243.964C25.7534 217.326 13.9167 184.044 13.9167 149.801C13.9167 67.2015 81.1183 0 163.718 0C246.317 0 313.515 67.2015 313.515 149.801C313.515 232.4 246.317 299.602 163.718 299.602C138.622 299.602 113.796 293.181 91.6848 281.021L37.1614 305.797C36.2575 306.21 35.2991 306.408 34.3445 306.408V306.408ZM163.718 13.6172C88.6263 13.6172 27.5339 74.7056 27.5339 149.797C27.5339 182.128 39.1524 213.523 60.2425 238.19C61.836 240.052 62.3036 242.632 61.4659 244.942L46.2824 286.694L89.2068 267.189C91.2133 266.266 93.5394 266.398 95.4446 267.501C116.242 279.591 139.85 285.981 163.718 285.981C238.805 285.981 299.897 224.892 299.897 149.797C299.897 74.7056 238.809 13.6172 163.718 13.6172V13.6172Z" fill="#1A428A"/>
<path d="M141.688 112.171C141.688 111.451 142.164 110.979 142.877 110.979H172.998C190.149 110.979 198.242 119.551 198.242 132.529C198.242 141.701 193.956 146.933 188.84 149.672V149.914C193.839 151.819 199.672 158.252 199.672 168.132C199.672 184.204 189.549 191.942 171.81 191.942H142.877C142.164 191.942 141.688 191.467 141.688 190.754V112.171ZM172.648 144.673C179.789 144.673 184.196 140.391 184.196 134.08C184.196 127.651 179.789 123.361 172.648 123.361H156.447C155.976 123.361 155.734 123.599 155.734 124.07V143.96C155.734 144.432 155.976 144.673 156.447 144.673H172.648ZM156.451 179.564H173.361C181.219 179.564 185.622 175.033 185.622 168.249C185.622 161.583 181.219 157.052 173.361 157.052H156.451C155.98 157.052 155.738 157.293 155.738 157.772V178.843C155.738 179.322 155.976 179.564 156.451 179.564Z" fill="#1A428A"/>
<path d="M163.718 122.563C159.958 122.563 156.907 119.516 156.907 115.752V102.135C156.907 98.371 159.958 95.3242 163.718 95.3242C167.477 95.3242 170.524 98.371 170.524 102.135V115.752C170.524 119.516 167.477 122.563 163.718 122.563Z" fill="#1A428A"/>
<path d="M163.718 204.27C159.958 204.27 156.907 201.227 156.907 197.463V190.652C156.907 186.889 159.958 183.842 163.718 183.842C167.477 183.842 170.524 186.889 170.524 190.652V197.463C170.524 201.227 167.477 204.27 163.718 204.27Z" fill="#1A428A"/>
<path d="M163.718 47.6621C107.309 47.6621 61.5791 93.3917 61.5791 149.797C61.5791 206.206 107.309 251.936 163.718 251.936C220.123 251.936 265.853 206.206 265.853 149.797C265.853 93.3917 220.123 47.6621 163.718 47.6621Z" fill="#D7E9FF"/>
<path d="M163.718 258.742C103.646 258.742 54.7725 209.868 54.7725 149.797C54.7725 89.7254 103.646 40.8516 163.718 40.8516C223.789 40.8516 272.663 89.7254 272.663 149.797C272.663 209.868 223.789 258.742 163.718 258.742ZM163.718 54.4727C111.15 54.4727 68.3897 97.2334 68.3897 149.797C68.3897 202.364 111.15 245.125 163.718 245.125C216.281 245.125 259.042 202.364 259.042 149.797C259.042 97.2334 216.281 54.4727 163.718 54.4727Z" fill="#1A428A"/>
<path d="M163.718 68.0898C118.588 68.0898 82.0068 104.671 82.0068 149.797C82.0068 194.923 118.588 231.508 163.718 231.508C208.844 231.508 245.425 194.923 245.425 149.797C245.425 104.671 208.844 68.0898 163.718 68.0898Z" fill="#D7E9FF"/>
<path d="M163.718 238.315C114.906 238.315 75.2002 198.605 75.2002 149.797C75.2002 100.989 114.906 61.2793 163.718 61.2793C212.529 61.2793 252.235 100.989 252.235 149.797C252.235 198.605 212.529 238.315 163.718 238.315ZM163.718 74.8965C122.414 74.8965 88.8174 108.497 88.8174 149.797C88.8174 191.1 122.414 224.697 163.718 224.697C205.017 224.697 238.618 191.1 238.618 149.797C238.618 108.497 205.017 74.8965 163.718 74.8965Z" fill="#1A428A"/>
<path d="M45.9475 122.563C45.3241 122.563 44.689 122.477 44.0579 122.298C40.4461 121.253 38.3616 117.482 39.4019 113.866C46.1267 90.5592 59.2881 69.6445 77.456 53.3818C80.2652 50.8687 84.5666 51.1142 87.0718 53.9116C89.5771 56.713 89.3433 61.0222 86.542 63.5274C70.2753 78.0836 58.501 96.7931 52.4892 117.642C51.6282 120.622 48.9047 122.563 45.9475 122.563Z" fill="white"/>
<path d="M141.689 112.171C141.689 111.451 142.164 110.979 142.877 110.979H172.999C190.15 110.979 198.242 119.551 198.242 132.529C198.242 141.701 193.956 146.933 188.84 149.672V149.914C193.839 151.819 199.672 158.252 199.672 168.132C199.672 184.204 189.55 191.942 171.81 191.942H142.877C142.164 191.942 141.689 191.467 141.689 190.754V112.171ZM172.648 144.673C179.79 144.673 184.196 140.391 184.196 134.08C184.196 127.651 179.79 123.361 172.648 123.361H156.448C155.976 123.361 155.734 123.599 155.734 124.07V143.96C155.734 144.432 155.976 144.673 156.448 144.673H172.648ZM156.451 179.564H173.361C181.22 179.564 185.622 175.033 185.622 168.249C185.622 161.583 181.22 157.052 173.361 157.052H156.451C155.98 157.052 155.738 157.293 155.738 157.772V178.843C155.738 179.322 155.976 179.564 156.451 179.564Z" fill="#1A428A"/>
<path d="M196.454 209.771L267.847 358.204L291.922 305.239L344.883 281.165L196.454 209.771Z" fill="#6BC4E8"/>
<path d="M267.847 365.011C265.237 365.011 262.849 363.515 261.711 361.154L190.313 212.724C189.062 210.118 189.592 207.005 191.638 204.955C193.679 202.91 196.785 202.384 199.403 203.635L347.832 275.028C350.213 276.182 351.721 278.601 351.69 281.239C351.658 283.885 350.104 286.273 347.696 287.364L297.065 310.379L274.042 361.021C272.951 363.429 270.563 364.984 267.921 365.011C267.898 365.011 267.871 365.011 267.847 365.011V365.011ZM211.01 224.327L267.676 342.129L285.727 302.419C286.401 300.923 287.605 299.719 289.105 299.041L328.811 280.994L211.01 224.327Z" fill="#1A428A"/>
<path d="M348.873 369.001C347.131 369.001 345.389 368.334 344.057 367.006L291.922 314.867C289.265 312.206 289.265 307.897 291.922 305.239C294.583 302.578 298.892 302.578 301.549 305.239L353.688 357.378C356.345 360.036 356.345 364.345 353.688 367.006C352.356 368.334 350.614 369.001 348.873 369.001V369.001Z" fill="#1A428A"/>
<path d="M163.718 122.563C159.958 122.563 156.907 119.516 156.907 115.752V102.135C156.907 98.371 159.958 95.3242 163.718 95.3242C167.478 95.3242 170.524 98.371 170.524 102.135V115.752C170.524 119.516 167.478 122.563 163.718 122.563Z" fill="#1A428A"/>
<path d="M163.718 204.27C159.958 204.27 156.907 201.227 156.907 197.463V190.652C156.907 186.889 159.958 183.842 163.718 183.842C167.478 183.842 170.524 186.889 170.524 190.652V197.463C170.524 201.227 167.478 204.27 163.718 204.27Z" fill="#1A428A"/>
<path d="M129.673 299.598C125.909 299.598 122.862 296.555 122.862 292.791V265.553C122.862 261.789 125.909 258.742 129.673 258.742C133.433 258.742 136.48 261.789 136.48 265.553V292.791C136.48 296.555 133.433 299.598 129.673 299.598Z" fill="white"/>
<path d="M143.29 285.981H116.052C112.292 285.981 109.245 282.934 109.245 279.17C109.245 275.406 112.292 272.363 116.052 272.363H143.29C147.05 272.363 150.097 275.406 150.097 279.17C150.097 282.934 147.05 285.981 143.29 285.981Z" fill="white"/>
</g>
<defs>
<clipPath id="clip0_1_935">
<rect width="369" height="369" fill="white"/>
</clipPath>
</defs>
</svg>
