<svg width="410" height="410" viewBox="0 0 410 410" fill="none" xmlns="http://www.w3.org/2000/svg">
<g clip-path="url(#clip0_1_961)">
<path d="M402.773 204.801C402.773 314.137 314.137 402.773 204.801 402.773C95.4609 402.773 6.82812 314.137 6.82812 204.801C6.82812 95.4609 95.4609 6.82812 204.801 6.82812C314.137 6.82812 402.773 95.4609 402.773 204.801Z" fill="#2A8EE6"/>
<path d="M204.801 409.602C91.875 409.602 0 317.727 0 204.801C0 91.875 91.875 0 204.801 0C317.727 0 409.602 91.875 409.602 204.801C409.602 317.727 317.727 409.602 204.801 409.602ZM204.801 13.6523C99.3984 13.6523 13.6523 99.3984 13.6523 204.801C13.6523 310.199 99.3984 395.945 204.801 395.945C310.199 395.945 395.945 310.199 395.945 204.801C395.945 99.3984 310.199 13.6523 204.801 13.6523V13.6523Z" fill="#1A428A"/>
<path d="M382.293 204.801C382.293 302.828 302.828 382.293 204.801 382.293C106.773 382.293 27.3086 302.828 27.3086 204.801C27.3086 106.773 106.773 27.3086 204.801 27.3086C302.828 27.3086 382.293 106.773 382.293 204.801V204.801Z" fill="#6BC4E8"/>
<path d="M204.801 389.121C103.168 389.121 20.4805 306.434 20.4805 204.801C20.4805 103.168 103.168 20.4805 204.801 20.4805C306.434 20.4805 389.121 103.168 389.121 204.801C389.121 306.434 306.434 389.121 204.801 389.121V389.121ZM204.801 34.1328C110.691 34.1328 34.1328 110.691 34.1328 204.801C34.1328 298.906 110.691 375.465 204.801 375.465C298.906 375.465 375.465 298.906 375.465 204.801C375.465 110.691 298.906 34.1328 204.801 34.1328V34.1328Z" fill="#1A428A"/>
<path d="M84.6134 110.578C83.0587 110.578 81.5001 110.051 80.2189 108.973C77.3361 106.547 76.9689 102.242 79.3946 99.3594C101.617 72.9609 130.938 54.5195 164.188 46.0352C167.844 45.0937 171.559 47.3086 172.488 50.9609C173.422 54.6133 171.215 58.3281 167.559 59.2617C137.09 67.043 110.215 83.9492 89.84 108.148C88.4923 109.754 86.5587 110.578 84.6134 110.578Z" fill="white"/>
<path d="M204.801 361.812C110.215 361.812 32.9297 287.82 27.6211 194.559C27.4297 197.949 27.3086 201.359 27.3086 204.801C27.3086 302.828 106.773 382.293 204.801 382.293C302.828 382.293 382.293 302.828 382.293 204.801C382.293 201.359 382.172 197.949 381.977 194.559C376.668 287.82 299.387 361.812 204.801 361.812V361.812Z" fill="#1A428A"/>
<path d="M204.801 389.121C103.168 389.121 20.4805 306.434 20.4805 204.801C20.4805 201.234 20.6055 197.695 20.8008 194.18C21.0039 190.559 23.9961 187.734 27.6172 187.734C31.2383 187.734 34.2305 190.559 34.4336 194.172C39.5703 284.348 114.402 354.988 204.801 354.988C295.195 354.988 370.027 284.348 375.164 194.172C375.371 190.559 378.359 187.734 381.98 187.734H381.984C385.602 187.734 388.594 190.559 388.797 194.18C388.992 197.695 389.121 201.234 389.121 204.801C389.121 306.434 306.434 389.121 204.801 389.121V389.121ZM73.1523 313.301C104.484 351.242 151.867 375.465 204.801 375.465C257.734 375.465 305.117 351.242 336.445 313.301C302.898 347.512 256.176 368.641 204.801 368.641C153.422 368.641 106.699 347.512 73.1523 313.301Z" fill="#1A428A"/>
<path d="M266.238 293.547H109.227L122.879 238.934H244.336L259.508 170.668H136.535L150.188 116.055H293.547C301.832 116.055 309.664 119.812 314.848 126.273C320.027 132.734 322 141.199 320.203 149.285L292.895 272.164C290.121 284.66 279.039 293.547 266.238 293.547V293.547Z" fill="#D7E9FF"/>
<path d="M266.238 300.375H109.227C107.125 300.375 105.141 299.406 103.848 297.746C102.555 296.094 102.094 293.934 102.602 291.895L116.258 237.281C117.016 234.238 119.746 232.105 122.879 232.105H238.859L250.996 177.492H136.535C134.43 177.492 132.445 176.527 131.152 174.867C129.859 173.215 129.402 171.055 129.91 169.012L143.563 114.398C144.324 111.359 147.055 109.227 150.188 109.227H293.547C303.953 109.227 313.656 113.879 320.172 122C326.684 130.117 329.129 140.605 326.867 150.766L299.563 273.645C296.063 289.387 282.359 300.375 266.238 300.375V300.375ZM117.969 286.719H266.238C275.914 286.719 284.133 280.129 286.234 270.688L313.539 147.805C314.895 141.707 313.43 135.41 309.523 130.547C305.613 125.672 299.789 122.879 293.547 122.879H155.516L145.277 163.84H259.508C261.578 163.84 263.535 164.781 264.832 166.395C266.129 168.012 266.621 170.129 266.172 172.145L251 240.414C250.305 243.539 247.535 245.762 244.336 245.762H128.211L117.969 286.719Z" fill="#1A428A"/>
<path d="M170.668 218.453H88.7461L102.398 191.148H184.32L170.668 218.453Z" fill="#D7E9FF"/>
<path d="M170.668 225.281H88.7461C86.3789 225.281 84.1836 224.055 82.9414 222.039C81.6993 220.027 81.5821 217.516 82.6407 215.398L96.293 188.094C97.4493 185.777 99.8125 184.32 102.398 184.32H184.32C186.688 184.32 188.883 185.547 190.125 187.559C191.367 189.57 191.484 192.086 190.426 194.199L176.773 221.508C175.617 223.82 173.254 225.281 170.668 225.281ZM99.793 211.625H166.449L173.273 197.973H106.621L99.793 211.625Z" fill="#1A428A"/>
<path d="M334.508 320.852C330.738 320.852 327.68 317.801 327.68 314.027V286.719C327.68 282.945 330.738 279.895 334.508 279.895C338.277 279.895 341.332 282.945 341.332 286.719V314.027C341.332 317.801 338.277 320.852 334.508 320.852V320.852Z" fill="white"/>
<path d="M348.16 307.199H320.852C317.082 307.199 314.027 304.148 314.027 300.375C314.027 296.602 317.082 293.547 320.852 293.547H348.16C351.93 293.547 354.988 296.602 354.988 300.375C354.988 304.148 351.93 307.199 348.16 307.199V307.199Z" fill="white"/>
</g>
<defs>
<clipPath id="clip0_1_961">
<rect width="409.6" height="409.6" fill="white"/>
</clipPath>
</defs>
</svg>
