<svg width="430" height="430" viewBox="0 0 430 430" fill="none" xmlns="http://www.w3.org/2000/svg">
<path d="M58.7039 245.717L121.837 244.28L144.649 238.128L197.83 238.734L223.919 217.394L271.09 217.761L314.34 244.608L381.148 245.221L377.195 334.681L332.165 334.025L292.715 350.533L305.588 366.683L199.982 416.599L106.859 333.622L54.6031 332.97L58.7039 245.717Z" fill="#D7E9FF"/>
<path d="M199.982 423.426C198.342 423.426 196.717 422.832 195.444 421.7L104.227 340.414L54.5172 339.797C52.6699 339.77 50.9046 338.996 49.6392 337.649C48.366 336.302 47.6982 334.497 47.7841 332.65L51.8849 245.393C52.0489 241.811 54.9624 238.968 58.5477 238.886L120.856 237.476L142.864 231.536C143.473 231.376 144.118 231.329 144.727 231.302L195.428 231.884L219.6 212.106C220.834 211.098 222.513 210.501 223.97 210.567L271.141 210.934C272.395 210.942 273.621 211.302 274.687 211.962L316.316 237.804L381.21 238.398C383.062 238.418 384.827 239.183 386.1 240.523C387.373 241.87 388.049 243.678 387.967 245.526L384.015 334.982C383.847 338.672 380.683 341.273 377.098 341.508L333.489 340.875L303.682 353.345L310.927 362.437C312.227 364.062 312.707 366.202 312.235 368.233C311.77 370.26 310.388 371.967 308.509 372.861L202.904 422.774C201.97 423.215 200.974 423.426 199.982 423.426V423.426ZM61.7541 326.233L106.945 326.8C108.593 326.819 110.171 327.432 111.397 328.526L201.146 408.503L294.879 364.199L287.38 354.787C286.044 353.115 285.572 350.912 286.107 348.842C286.638 346.768 288.11 345.062 290.083 344.238L329.529 327.725C330.396 327.366 331.403 327.174 332.262 327.198L370.669 327.756L374.016 251.978L314.281 251.435C313.028 251.419 311.801 251.068 310.743 250.408L269.114 224.569L226.329 224.237L202.146 244.022C200.908 245.026 199.447 245.393 197.748 245.561L145.512 244.967L123.618 250.872C123.083 251.013 122.536 251.091 121.989 251.107L65.2183 252.392L61.7541 326.233Z" fill="#1A428A"/>
<path d="M61.4339 333.525L108.218 333.388L191.41 407.566C197.026 412.577 207.172 414.201 214.101 411.19L297.308 375.001C304.225 371.994 305.678 365.132 300.483 359.602L228.352 282.804L187.196 311.861C177.947 318.391 164.188 316.997 156.447 308.733L160.38 312.931C152.651 304.671 152.518 291.177 160.091 282.788L218.37 218.226L272.867 217.687L315.125 244.776L369.752 244.647" fill="#D7E9FF"/>
<path d="M206.141 419.548C199.096 419.548 191.867 417.123 186.868 412.659L105.629 340.219L61.4573 340.352C61.4495 340.352 61.4417 340.352 61.4339 340.352C57.6768 340.352 54.6226 337.313 54.6109 333.544C54.5953 329.78 57.6416 326.714 61.4144 326.702L108.199 326.561C109.847 326.546 111.507 327.167 112.76 328.295L195.952 402.473C199.568 405.699 206.915 406.859 211.375 404.93L294.594 368.741C295.793 368.214 296.624 367.495 296.753 366.862C296.886 366.222 296.406 365.234 295.508 364.273L227.446 291.802L191.14 317.442C182.021 323.874 169.906 324.46 160.154 319.75C158.408 319.688 156.686 318.969 155.409 317.594L151.476 313.396C150.128 311.963 149.519 310.096 149.64 308.284C145.883 298.285 147.664 286.381 155.034 278.215L213.308 213.653C214.589 212.235 216.401 211.423 218.307 211.403L272.805 210.864C274.078 210.751 275.437 211.223 276.558 211.942L317.125 237.945L369.748 237.824H369.759C373.52 237.824 376.578 240.87 376.586 244.635C376.594 248.404 373.548 251.47 369.775 251.478L315.144 251.603C315.144 251.603 315.137 251.603 315.129 251.603C313.824 251.603 312.543 251.228 311.446 250.521L270.907 224.533L221.435 225.022L165.165 287.362C160.65 292.357 160.166 300.305 163.638 305.987C169.234 309.979 177.615 310.271 183.267 306.284L224.419 277.231C227.2 275.274 230.992 275.645 233.332 278.129L305.459 354.931C309.474 359.204 311.173 364.554 310.122 369.612C309.079 374.681 305.404 378.927 300.034 381.258L216.819 417.443C213.554 418.861 209.875 419.548 206.141 419.548V419.548Z" fill="#1A428A"/>
<path d="M233.179 401.27L198.643 372.154Z" fill="#D7E9FF"/>
<path d="M233.168 408.097C231.617 408.097 230.059 407.57 228.778 406.492L194.245 377.372C191.363 374.939 191 370.635 193.425 367.753C195.858 364.875 200.158 364.496 203.044 366.933L237.577 396.056C240.455 398.489 240.822 402.793 238.397 405.672C237.042 407.269 235.116 408.097 233.168 408.097V408.097Z" fill="#1A428A"/>
<path d="M257.874 389.514L226.149 361.031Z" fill="#D7E9FF"/>
<path d="M257.874 396.341C256.245 396.341 254.613 395.767 253.312 394.595L221.592 366.112C218.784 363.593 218.553 359.282 221.072 356.478C223.591 353.669 227.922 353.443 230.707 355.954L262.428 384.437C265.236 386.956 265.47 391.268 262.951 394.072C261.604 395.572 259.737 396.341 257.874 396.341V396.341Z" fill="#1A428A"/>
<path d="M284.842 377.817L250.516 347.05Z" fill="#D7E9FF"/>
<path d="M284.842 384.64C283.213 384.64 281.588 384.066 280.28 382.895L245.962 352.127C243.154 349.616 242.924 345.304 245.443 342.492C247.962 339.692 252.273 339.453 255.078 341.969L289.399 372.736C292.207 375.252 292.438 379.563 289.919 382.375C288.571 383.875 286.712 384.64 284.842 384.64Z" fill="#1A428A"/>
<path d="M6.82686 224.49H61.43V354.173H6.82686V224.49Z" fill="#6BC4E8"/>
<path d="M61.43 361H6.82686C3.05412 361 3.8147e-06 357.946 3.8147e-06 354.173V224.49C3.8147e-06 220.718 3.05412 217.667 6.82686 217.667H61.43C65.2027 217.667 68.2529 220.718 68.2529 224.49V354.173C68.2529 357.946 65.2027 361 61.43 361ZM13.6498 347.35H54.6031V231.317H13.6498V347.35Z" fill="#1A428A"/>
<path d="M40.9533 326.874C40.9533 330.643 37.8953 333.697 34.1265 333.697C30.3576 333.697 27.3035 330.643 27.3035 326.874C27.3035 323.105 30.3576 320.047 34.1265 320.047C37.8953 320.047 40.9533 323.105 40.9533 326.874Z" fill="#6BC4E8"/>
<path d="M34.1265 340.523C26.6005 340.523 20.4767 334.396 20.4767 326.874C20.4767 319.348 26.6005 313.22 34.1265 313.22C41.6524 313.22 47.7763 319.348 47.7763 326.874C47.7763 334.396 41.6524 340.523 34.1265 340.523ZM34.1265 326.858V326.874V326.858Z" fill="#1A428A"/>
<path d="M338.656 12.9048H125.473C116.49 12.9048 109.206 20.1886 109.206 29.1674V167.275C109.206 176.257 116.49 183.541 125.473 183.541H136.51L122.856 217.667L160.884 183.541H338.656C347.638 183.541 354.922 176.257 354.922 167.275V29.1674C354.922 20.1886 347.638 12.9048 338.656 12.9048V12.9048Z" fill="#1A428A"/>
<path d="M122.856 224.49C121.489 224.49 120.122 224.084 118.943 223.256C116.346 221.444 115.346 218.074 116.517 215.133L126.43 190.364H125.473C112.741 190.364 102.383 180.006 102.383 167.274V29.1673C102.383 16.4353 112.741 6.07788 125.473 6.07788H338.66C351.392 6.07788 361.749 16.4353 361.749 29.1673V167.274C361.749 180.006 351.392 190.364 338.66 190.364H163.497L127.414 222.745C126.129 223.905 124.496 224.49 122.856 224.49V224.49ZM125.469 19.7277C120.263 19.7277 116.033 23.9613 116.033 29.1673V167.274C116.033 172.481 120.263 176.714 125.469 176.714H136.51C138.775 176.714 140.888 177.839 142.161 179.714C143.426 181.588 143.688 183.974 142.845 186.072L140.044 193.067L156.322 178.46C157.576 177.335 159.201 176.714 160.88 176.714H338.656C343.862 176.714 348.095 172.484 348.095 167.278V29.1673C348.095 23.9613 343.862 19.7277 338.656 19.7277H125.469Z" fill="#1A428A"/>
<path d="M368.572 224.49H423.175V354.173H368.572V224.49Z" fill="#2A8EE6"/>
<path d="M423.175 361H368.572C364.799 361 361.745 357.946 361.745 354.173V224.49C361.745 220.718 364.799 217.667 368.572 217.667H423.175C426.948 217.667 429.998 220.718 429.998 224.49V354.173C429.998 357.946 426.948 361 423.175 361V361ZM375.395 347.35H416.348V231.317H375.395V347.35Z" fill="#1A428A"/>
<path d="M402.699 326.874C402.699 330.643 399.644 333.697 395.872 333.697C392.103 333.697 389.049 330.643 389.049 326.874C389.049 323.105 392.103 320.047 395.872 320.047C399.644 320.047 402.699 323.105 402.699 326.874Z" fill="#6BC4E8"/>
<path d="M395.872 340.523C388.35 340.523 382.222 334.396 382.222 326.874C382.222 319.348 388.35 313.22 395.872 313.22C403.398 313.22 409.525 319.348 409.525 326.874C409.525 334.396 403.398 340.523 395.872 340.523ZM395.872 326.858V326.874V326.858Z" fill="#1A428A"/>
<path d="M325.006 12.9048H111.819C102.836 12.9048 95.5564 20.1886 95.5564 29.1674V167.275C95.5564 176.257 102.836 183.541 111.819 183.541H122.856V217.667L147.234 183.541H325.006C333.989 183.541 341.269 176.257 341.269 167.275V29.1674C341.269 20.1886 333.989 12.9048 325.006 12.9048V12.9048Z" fill="#6BC4E8"/>
<path d="M122.856 224.49C122.165 224.49 121.458 224.385 120.778 224.166C117.951 223.26 116.033 220.632 116.033 217.667V190.364H111.819C99.087 190.364 88.7296 180.006 88.7296 167.274V29.1673C88.7296 16.4353 99.087 6.07788 111.819 6.07788H325.006C337.738 6.07788 348.095 16.4353 348.095 29.1673V167.274C348.095 180.006 337.738 190.364 325.006 190.364H150.745L128.41 221.632C127.101 223.459 125.016 224.49 122.856 224.49V224.49ZM111.819 19.7277C106.613 19.7277 102.379 23.9613 102.379 29.1673V167.274C102.379 172.481 106.613 176.714 111.819 176.714H122.856C126.629 176.714 129.683 179.768 129.683 183.541V196.371L141.681 179.573C142.958 177.78 145.028 176.714 147.23 176.714H325.006C330.212 176.714 334.446 172.481 334.446 167.274V29.1673C334.446 23.9613 330.212 19.7277 325.006 19.7277H111.819Z" fill="#1A428A"/>
<path d="M273.016 94.8075C273.016 124.966 248.571 149.411 218.412 149.411C188.258 149.411 163.809 124.966 163.809 94.8075C163.809 64.6529 188.258 40.2043 218.412 40.2043C248.571 40.2043 273.016 64.6529 273.016 94.8075Z" fill="#2A8EE6"/>
<path d="M218.412 156.237C184.54 156.237 156.983 128.684 156.983 94.8074C156.983 60.9348 184.54 33.3813 218.412 33.3813C252.289 33.3813 279.842 60.9348 279.842 94.8074C279.842 128.684 252.289 156.237 218.412 156.237V156.237ZM218.412 47.0312C192.07 47.0312 170.636 68.4647 170.636 94.8074C170.636 121.15 192.07 142.588 218.412 142.588C244.755 142.588 266.189 121.15 266.189 94.8074C266.189 68.4647 244.755 47.0312 218.412 47.0312V47.0312Z" fill="#1A428A"/>
<path d="M198.736 62.9735C198.736 62.4072 199.111 62.0361 199.67 62.0361H223.412C236.925 62.0361 243.302 68.7888 243.302 79.0173C243.302 86.2426 239.928 90.3707 235.89 92.5305V92.714C239.834 94.2216 244.435 99.287 244.435 107.071C244.435 119.744 236.456 125.841 222.47 125.841H199.67C199.111 125.841 198.736 125.47 198.736 124.903V62.9735ZM223.134 88.5898C228.758 88.5898 232.23 85.2115 232.23 80.2359C232.23 75.1704 228.758 71.7921 223.134 71.7921H210.367C209.988 71.7921 209.801 71.9796 209.801 72.3506V88.0313C209.801 88.4023 209.988 88.5898 210.367 88.5898H223.134ZM210.367 116.085H223.693C229.891 116.085 233.355 112.519 233.355 107.164C233.355 101.915 229.891 98.3497 223.693 98.3497H210.367C209.988 98.3497 209.801 98.5332 209.801 98.916V115.518C209.801 115.897 209.988 116.085 210.367 116.085Z" fill="#1A428A"/>
<path d="M214.999 70.9212C211.226 70.9212 208.176 67.8671 208.176 64.0944V57.2675C208.176 53.4948 211.226 50.4446 214.999 50.4446C218.772 50.4446 221.826 53.4948 221.826 57.2675V64.0944C221.826 67.8671 218.772 70.9212 214.999 70.9212Z" fill="#1A428A"/>
<path d="M214.999 139.174C211.226 139.174 208.176 136.12 208.176 132.347V125.524C208.176 121.752 211.226 118.698 214.999 118.698C218.772 118.698 221.826 121.752 221.826 125.524V132.347C221.826 136.12 218.772 139.174 214.999 139.174Z" fill="#1A428A"/>
<path d="M334.446 74.3347C330.673 74.3347 327.619 71.2805 327.619 67.5078V40.2043C327.619 36.4316 330.673 33.3813 334.446 33.3813C338.218 33.3813 341.269 36.4316 341.269 40.2043V67.5078C341.269 71.2805 338.218 74.3347 334.446 74.3347Z" fill="white"/>
<path d="M348.095 60.6811H320.792C317.019 60.6811 313.969 57.6308 313.969 53.8581C313.969 50.0854 317.019 47.0312 320.792 47.0312H348.095C351.868 47.0312 354.922 50.0854 354.922 53.8581C354.922 57.6308 351.868 60.6811 348.095 60.6811V60.6811Z" fill="white"/>
<path d="M116.033 67.508C112.26 67.508 109.206 64.4539 109.206 60.6812V36.6583C109.206 31.089 113.737 26.5547 119.31 26.5547H143.333C147.105 26.5547 150.16 29.6088 150.16 33.3815C150.16 37.1543 147.105 40.2045 143.333 40.2045H122.856V60.6812C122.856 64.4539 119.806 67.508 116.033 67.508Z" fill="white"/>
</svg>
