<svg width="436" height="436" viewBox="0 0 436 436" fill="none" xmlns="http://www.w3.org/2000/svg">
<g clip-path="url(#clip0_1_1008)">
<path d="M197.565 44.7678C92.2158 44.7678 6.81406 130.17 6.81406 235.522C6.81406 340.871 92.2158 426.273 197.565 426.273C302.914 426.273 388.319 340.871 388.319 235.522H197.565V44.7678Z" fill="#6BC4E8"/>
<path d="M197.565 433.087C88.6256 433.087 0 344.458 0 235.522C0 126.587 88.6256 37.9539 197.565 37.9539C201.326 37.9539 204.379 41.0023 204.379 44.7679V228.708H388.319C392.081 228.708 395.129 231.757 395.129 235.522C395.129 344.458 306.504 433.087 197.565 433.087V433.087ZM190.755 51.7067C92.4692 55.297 13.6242 136.372 13.6242 235.522C13.6242 336.946 96.1413 419.459 197.565 419.459C296.712 419.459 377.79 340.618 381.384 242.333H197.565C193.803 242.333 190.755 239.288 190.755 235.522V51.7067Z" fill="#1A428A"/>
<path d="M361.067 235.523C361.067 325.82 287.867 399.025 197.565 399.025C107.267 399.025 34.0625 325.82 34.0625 235.523C34.0625 145.221 107.267 72.0203 197.565 72.0203C287.867 72.0203 361.067 145.221 361.067 235.523Z" fill="#D7E9FF"/>
<path d="M197.565 405.835C103.653 405.835 27.2523 329.434 27.2523 235.522C27.2523 141.607 103.653 65.2061 197.565 65.2061C291.48 65.2061 367.881 141.607 367.881 235.522C367.881 329.434 291.476 405.835 197.565 405.835ZM197.565 78.8303C111.165 78.8303 40.8765 149.119 40.8765 235.522C40.8765 321.922 111.165 392.211 197.565 392.211C283.964 392.211 354.257 321.922 354.257 235.522C354.257 149.119 283.964 78.8303 197.565 78.8303V78.8303Z" fill="#1A428A"/>
<path d="M323.558 174.492C321.134 174.492 318.787 173.194 317.559 170.914C305.424 148.433 287.294 129.846 265.113 117.165C261.846 115.294 260.716 111.135 262.583 107.868C264.446 104.597 268.609 103.467 271.88 105.334C296.267 119.286 316.21 139.724 329.546 164.447C331.331 167.752 330.1 171.892 326.786 173.674C325.757 174.235 324.65 174.492 323.558 174.492V174.492Z" fill="white"/>
<path d="M197.565 378.586C110.701 378.586 39.6915 310.836 34.4133 225.301C34.2028 228.685 34.0625 232.084 34.0625 235.522C34.0625 325.82 107.267 399.025 197.565 399.025C287.867 399.025 361.067 325.82 361.067 235.522C361.067 232.084 360.927 228.685 360.716 225.301C355.438 310.836 284.428 378.586 197.565 378.586V378.586Z" fill="#1A428A"/>
<path d="M197.565 405.835C103.653 405.835 27.2523 329.434 27.2523 235.522C27.2523 231.948 27.3927 228.4 27.6149 224.884C27.837 221.29 30.8153 218.487 34.4133 218.487C38.0114 218.487 40.9896 221.29 41.2118 224.884C46.295 307.253 114.974 371.772 197.565 371.772C280.16 371.772 348.834 307.253 353.922 224.884C354.144 221.29 357.118 218.487 360.72 218.487C364.318 218.487 367.296 221.29 367.518 224.884C367.737 228.4 367.881 231.948 367.881 235.522C367.881 329.434 291.476 405.835 197.565 405.835V405.835ZM75.8551 334.104C104.608 369.531 148.486 392.21 197.565 392.21C246.647 392.21 290.525 369.531 319.274 334.104C288.249 365.796 245.018 385.396 197.565 385.396C150.116 385.396 106.885 365.796 75.8551 334.104V334.104Z" fill="#1A428A"/>
<path d="M155.597 169.822C155.597 168.532 156.458 167.674 157.748 167.674H209.528C238.968 167.674 253.578 182.717 253.578 206.134C253.578 223.114 245.411 233.425 234.025 237.935V238.368C243.91 241.163 256.159 252.546 256.159 272.099C256.159 299.39 238.968 313.786 208.456 313.786H157.748C156.458 313.786 155.597 312.929 155.597 311.639V169.822ZM209.099 230.844C225.215 230.844 234.668 221.61 234.668 208.071C234.668 194.108 225.215 185.08 209.099 185.08H176.008C175.15 185.08 174.721 185.512 174.721 186.37V229.558C174.721 230.42 175.15 230.844 176.008 230.844H209.099ZM176.012 296.381H210.175C227.581 296.381 237.034 286.928 237.034 272.317C237.034 257.921 227.581 248.246 210.175 248.246H176.012C175.15 248.246 174.721 248.679 174.721 249.536V295.091C174.721 295.948 175.15 296.381 176.012 296.381Z" fill="#1A428A"/>
<path d="M183.941 174.207C180.179 174.207 177.126 171.159 177.126 167.393V146.955C177.126 143.19 180.179 140.145 183.941 140.145C187.702 140.145 190.755 143.19 190.755 146.955V167.393C190.755 171.159 187.702 174.207 183.941 174.207Z" fill="#1A428A"/>
<path d="M204.379 174.207C200.617 174.207 197.565 171.159 197.565 167.393V146.955C197.565 143.19 200.617 140.145 204.379 140.145C208.141 140.145 211.189 143.19 211.189 146.955V167.393C211.189 171.159 208.141 174.207 204.379 174.207Z" fill="#1A428A"/>
<path d="M183.941 337.71C180.179 337.71 177.126 334.661 177.126 330.896V310.457C177.126 306.692 180.179 303.647 183.941 303.647C187.702 303.647 190.755 306.692 190.755 310.457V330.896C190.755 334.661 187.702 337.71 183.941 337.71Z" fill="#1A428A"/>
<path d="M204.379 337.71C200.617 337.71 197.565 334.661 197.565 330.896V310.457C197.565 306.692 200.617 303.647 204.379 303.647C208.141 303.647 211.189 306.692 211.189 310.457V330.896C211.189 334.661 208.141 337.71 204.379 337.71Z" fill="#1A428A"/>
<path d="M425.2 102.091L384.328 142.963C379.01 148.288 370.376 148.288 365.059 142.963L324.186 102.091C318.861 96.7659 318.861 88.1431 324.186 82.822C329.499 77.501 338.134 77.501 343.451 82.822L361.067 100.442V24.3295C361.067 16.806 367.168 10.7053 374.691 10.7053C382.219 10.7053 388.319 16.806 388.319 24.3295V100.442L405.935 82.822C408.594 80.1635 412.083 78.8303 415.568 78.8303C419.057 78.8303 422.545 80.1596 425.2 82.822C430.525 88.147 430.525 96.7659 425.2 102.091V102.091Z" fill="#6BC4E8"/>
<path d="M374.691 153.769C369.23 153.769 364.096 151.641 360.241 147.782L319.368 106.905C311.396 98.9334 311.396 85.9758 319.368 78.004C327.079 70.2894 340.555 70.2894 348.273 78.004L354.257 83.9916V24.3296C354.257 13.0599 363.425 3.89136 374.695 3.89136C385.965 3.89136 395.133 13.0599 395.133 24.3296V83.9916L401.121 78.004C408.832 70.2894 422.308 70.2894 430.026 78.004C437.994 85.9758 437.994 98.9334 430.022 106.905L389.146 147.782C385.286 151.641 380.156 153.769 374.691 153.769V153.769ZM333.819 85.6444C331.998 85.6444 330.287 86.35 329.004 87.6403C326.346 90.295 326.346 94.6181 329 97.2728L369.877 138.149C372.45 140.73 376.937 140.73 379.505 138.149L420.386 97.2728C423.041 94.6181 423.041 90.295 420.386 87.6403C417.809 85.0558 413.322 85.0558 410.757 87.6403L393.134 105.256C391.181 107.205 388.253 107.79 385.711 106.734C383.166 105.681 381.505 103.194 381.505 100.442V24.3296C381.505 20.5718 378.449 17.5156 374.691 17.5156C370.937 17.5156 367.881 20.5718 367.881 24.3296V100.442C367.881 103.194 366.22 105.681 363.675 106.734C361.118 107.79 358.198 107.205 356.253 105.256L338.633 87.6403C337.346 86.35 335.635 85.6444 333.819 85.6444Z" fill="#1A428A"/>
<path d="M88.5632 351.334C84.8014 351.334 81.7531 348.29 81.7531 344.524V317.272C81.7531 313.506 84.8014 310.458 88.5632 310.458C92.325 310.458 95.3773 313.506 95.3773 317.272V344.524C95.3773 348.29 92.325 351.334 88.5632 351.334V351.334Z" fill="white"/>
<path d="M102.187 337.71H74.939C71.1772 337.71 68.1249 334.662 68.1249 330.896C68.1249 327.13 71.1772 324.086 74.939 324.086H102.187C105.953 324.086 109.001 327.13 109.001 330.896C109.001 334.662 105.953 337.71 102.187 337.71Z" fill="white"/>
</g>
<defs>
<clipPath id="clip0_1_1008">
<rect width="436" height="436" fill="white"/>
</clipPath>
</defs>
</svg>
