<svg width="409" height="409" viewBox="0 0 409 409" fill="none" xmlns="http://www.w3.org/2000/svg">
<g clip-path="url(#clip0_1_1026)">
<path d="M382.525 314.206H26.4768C15.6177 314.206 6.81812 305.403 6.81812 294.547V88.4631C6.81812 77.6079 15.6177 68.8044 26.4768 68.8044H382.525C393.38 68.8044 402.183 77.6079 402.183 88.4631V294.547C402.183 305.403 393.38 314.206 382.525 314.206Z" fill="#1A428A"/>
<path d="M382.525 321.02H26.4729C11.8771 321.02 0 309.147 0 294.547V88.4631C0 73.8634 11.8771 61.9902 26.4729 61.9902H382.525C397.124 61.9902 409.002 73.8634 409.002 88.4631V294.547C409.002 309.147 397.124 321.02 382.525 321.02ZM26.4729 75.6226C19.3934 75.6226 13.6323 81.3798 13.6323 88.4631V294.547C13.6323 301.631 19.3934 307.388 26.4729 307.388H382.525C389.604 307.388 395.365 301.631 395.365 294.547V88.4631C395.365 81.3798 389.604 75.6226 382.525 75.6226H26.4729Z" fill="#1A428A"/>
<path d="M184.05 280.124H224.951V341.471H184.05V280.124Z" fill="#6BC4E8"/>
<path d="M224.951 348.289H184.05C180.286 348.289 177.232 345.239 177.232 341.471V280.123C177.232 276.355 180.286 273.305 184.05 273.305H224.951C228.715 273.305 231.765 276.355 231.765 280.123V341.471C231.765 345.239 228.715 348.289 224.951 348.289ZM190.868 334.657H218.133V286.938H190.868V334.657Z" fill="#1A428A"/>
<path d="M382.525 293.756H26.4768C15.6177 293.756 6.81812 284.952 6.81812 274.097V68.0166C6.81812 57.1575 15.6177 48.354 26.4768 48.354H382.525C393.38 48.354 402.183 57.1575 402.183 68.0166V274.097C402.183 284.952 393.38 293.756 382.525 293.756Z" fill="#2A8EE6"/>
<path d="M382.525 300.574H26.4729C11.8771 300.574 0 288.697 0 274.097V68.0127C0 53.4169 11.8771 41.5398 26.4729 41.5398H382.525C397.124 41.5398 409.002 53.4169 409.002 68.0127V274.097C409.002 288.697 397.124 300.574 382.525 300.574ZM26.4729 55.1721C19.3934 55.1721 13.6323 60.9293 13.6323 68.0127V274.097C13.6323 281.18 19.3934 286.938 26.4729 286.938H382.525C389.604 286.938 395.365 281.18 395.365 274.097V68.0127C395.365 60.9293 389.604 55.1721 382.525 55.1721H26.4729Z" fill="#1A428A"/>
<path d="M382.525 273.305H26.4768C15.6177 273.305 6.81812 264.502 6.81812 253.647V88.4631C6.81812 77.6079 15.6177 68.8044 26.4768 68.8044H382.525C393.38 68.8044 402.183 77.6079 402.183 88.4631V253.647C402.183 264.502 393.38 273.305 382.525 273.305Z" fill="#D7E9FF"/>
<path d="M382.525 280.123H26.4729C11.8771 280.123 0 268.246 0 253.647V88.4631C0 73.8634 11.8771 61.9902 26.4729 61.9902H382.525C397.124 61.9902 409.002 73.8634 409.002 88.4631V253.647C409.002 268.246 397.124 280.123 382.525 280.123ZM26.4729 75.6226C19.3934 75.6226 13.6323 81.3798 13.6323 88.4631V253.647C13.6323 260.73 19.3934 266.487 26.4729 266.487H382.525C389.604 266.487 395.365 260.73 395.365 253.647V88.4631C395.365 81.3798 389.604 75.6226 382.525 75.6226H26.4729Z" fill="#1A428A"/>
<path d="M149.968 341.471H259.034V361.921H149.968V341.471Z" fill="#2A8EE6"/>
<path d="M259.034 368.74H149.968C146.204 368.74 143.149 365.689 143.149 361.921V341.471C143.149 337.703 146.204 334.657 149.968 334.657H259.034C262.798 334.657 265.848 337.703 265.848 341.471V361.921C265.848 365.689 262.798 368.74 259.034 368.74V368.74ZM156.782 355.107H252.216V348.289H156.782V355.107Z" fill="#1A428A"/>
<path d="M185.689 146.078C185.689 145.512 186.063 145.142 186.629 145.142H209.209C222.053 145.142 228.423 151.698 228.423 161.918C228.423 169.317 224.862 173.818 219.892 175.784V175.975C224.202 177.192 229.546 182.162 229.546 190.688C229.546 202.589 222.053 208.868 208.745 208.868H186.625C186.063 208.868 185.685 208.494 185.685 207.928V146.078H185.689ZM209.022 172.695C216.054 172.695 220.177 168.658 220.177 162.76C220.177 156.664 216.054 152.728 209.022 152.728H194.59C194.215 152.728 194.028 152.915 194.028 153.294V172.129C194.028 172.508 194.215 172.695 194.59 172.695H209.022ZM194.593 201.278H209.494C217.08 201.278 221.207 197.151 221.207 190.778C221.207 184.502 217.08 180.281 209.494 180.281H194.593C194.215 180.281 194.028 180.469 194.028 180.847V200.712C194.028 201.091 194.215 201.278 194.593 201.278Z" fill="#1A428A"/>
<path d="M207.91 154.015C204.142 154.015 201.092 150.965 201.092 147.197V140.379C201.092 136.611 204.142 133.565 207.91 133.565C211.674 133.565 214.724 136.611 214.724 140.379V147.197C214.724 150.965 211.674 154.015 207.91 154.015Z" fill="#1A428A"/>
<path d="M207.91 222.181C204.142 222.181 201.092 219.131 201.092 215.363V208.549C201.092 204.781 204.142 201.73 207.91 201.73C211.674 201.73 214.724 204.781 214.724 208.549V215.363C214.724 219.131 211.674 222.181 207.91 222.181Z" fill="#1A428A"/>
<path d="M240.222 146.078C240.222 145.512 240.596 145.142 241.162 145.142H263.742C276.586 145.142 282.956 151.698 282.956 161.918C282.956 169.317 279.395 173.818 274.426 175.784V175.975C278.736 177.192 284.079 182.162 284.079 190.688C284.079 202.589 276.586 208.868 263.278 208.868H241.158C240.596 208.868 240.218 208.494 240.218 207.928V146.078H240.222ZM263.555 172.695C270.587 172.695 274.71 168.658 274.71 162.76C274.71 156.664 270.587 152.728 263.555 152.728H249.123C248.748 152.728 248.561 152.915 248.561 153.294V172.129C248.561 172.508 248.748 172.695 249.123 172.695H263.555ZM249.127 201.278H264.027C271.613 201.278 275.74 197.151 275.74 190.778C275.74 184.502 271.613 180.281 264.027 180.281H249.127C248.748 180.281 248.561 180.469 248.561 180.847V200.712C248.561 201.091 248.748 201.278 249.127 201.278V201.278Z" fill="#1A428A"/>
<path d="M262.443 154.015C258.675 154.015 255.625 150.965 255.625 147.197V140.379C255.625 136.611 258.675 133.565 262.443 133.565C266.207 133.565 269.257 136.611 269.257 140.379V147.197C269.257 150.965 266.207 154.015 262.443 154.015Z" fill="#1A428A"/>
<path d="M262.443 222.181C258.675 222.181 255.625 219.131 255.625 215.363V208.549C255.625 204.781 258.675 201.73 262.443 201.73C266.207 201.73 269.257 204.781 269.257 208.549V215.363C269.257 219.131 266.207 222.181 262.443 222.181Z" fill="#1A428A"/>
<path d="M131.155 146.078C131.155 145.512 131.53 145.142 132.095 145.142H154.675C167.516 145.142 173.889 151.698 173.889 161.918C173.889 169.317 170.328 173.818 165.359 175.784V175.975C169.669 177.192 175.013 182.162 175.013 190.688C175.013 202.589 167.516 208.868 154.211 208.868H132.091C131.53 208.868 131.151 208.494 131.151 207.928V146.078H131.155ZM154.488 172.695C161.521 172.695 165.644 168.658 165.644 162.76C165.644 156.664 161.521 152.728 154.488 152.728H140.056C139.682 152.728 139.495 152.915 139.495 153.294V172.129C139.495 172.508 139.682 172.695 140.056 172.695H154.488ZM140.06 201.278H154.96C162.547 201.278 166.673 197.151 166.673 190.778C166.673 184.502 162.547 180.281 154.96 180.281H140.06C139.682 180.281 139.495 180.469 139.495 180.847V200.712C139.495 201.091 139.682 201.278 140.06 201.278Z" fill="#1A428A"/>
<path d="M153.377 154.015C149.609 154.015 146.558 150.965 146.558 147.197V140.379C146.558 136.611 149.609 133.565 153.377 133.565C157.141 133.565 160.191 136.611 160.191 140.379V147.197C160.191 150.965 157.141 154.015 153.377 154.015Z" fill="#1A428A"/>
<path d="M153.377 222.181C149.609 222.181 146.558 219.131 146.558 215.363V208.549C146.558 204.781 149.609 201.73 153.377 201.73C157.141 201.73 160.191 204.781 160.191 208.549V215.363C160.191 219.131 157.141 222.181 153.377 222.181Z" fill="#1A428A"/>
<path d="M109.067 184.689H81.8019C78.034 184.689 74.9838 181.639 74.9838 177.871C74.9838 174.103 78.034 171.057 81.8019 171.057H109.067C112.831 171.057 115.885 174.103 115.885 177.871C115.885 181.639 112.831 184.689 109.067 184.689Z" fill="#1A428A"/>
<path d="M81.8019 184.689C80.0583 184.689 78.3109 184.022 76.9808 182.692C74.3168 180.028 74.3168 175.714 76.9808 173.054L104.246 145.785C106.91 143.125 111.224 143.125 113.888 145.785C116.548 148.449 116.548 152.763 113.888 155.424L86.619 182.692C85.289 184.022 83.5415 184.689 81.8019 184.689Z" fill="#1A428A"/>
<path d="M109.067 211.954C107.323 211.954 105.58 211.291 104.246 209.957L76.9808 182.692C74.3168 180.028 74.3168 175.714 76.9808 173.054C79.641 170.39 83.9589 170.39 86.619 173.054L113.888 200.319C116.548 202.983 116.548 207.297 113.888 209.957C112.554 211.291 110.81 211.954 109.067 211.954Z" fill="#1A428A"/>
<path d="M327.2 184.689H299.935C296.167 184.689 293.117 181.639 293.117 177.871C293.117 174.103 296.167 171.057 299.935 171.057H327.2C330.964 171.057 334.018 174.103 334.018 177.871C334.018 181.639 330.964 184.689 327.2 184.689Z" fill="#1A428A"/>
<path d="M299.935 184.689C298.192 184.689 296.444 184.022 295.114 182.692C292.454 180.028 292.454 175.714 295.114 173.054L322.383 145.785C325.043 143.125 329.357 143.125 332.021 145.785C334.681 148.449 334.681 152.763 332.021 155.424L304.752 182.692C303.422 184.022 301.679 184.689 299.935 184.689V184.689Z" fill="#1A428A"/>
<path d="M327.2 211.954C325.456 211.954 323.713 211.291 322.383 209.957L295.114 182.692C292.454 180.028 292.454 175.714 295.114 173.054C297.774 170.39 302.092 170.39 304.752 173.054L332.021 200.319C334.681 202.983 334.681 207.297 332.021 209.957C330.687 211.291 328.943 211.954 327.2 211.954V211.954Z" fill="#1A428A"/>
<path d="M327.2 314.206C323.436 314.206 320.382 311.156 320.382 307.388V280.123C320.382 276.355 323.436 273.305 327.2 273.305C330.964 273.305 334.018 276.355 334.018 280.123V307.388C334.018 311.156 330.964 314.206 327.2 314.206Z" fill="white"/>
<path d="M340.832 300.574H313.567C309.803 300.574 306.749 297.524 306.749 293.756C306.749 289.988 309.803 286.938 313.567 286.938H340.832C344.596 286.938 347.65 289.988 347.65 293.756C347.65 297.524 344.596 300.574 340.832 300.574Z" fill="white"/>
<path d="M23.8595 119.933C22.116 119.933 20.3685 119.266 19.0385 117.932C16.3783 115.271 16.3783 110.957 19.0385 108.293L42.898 84.4377C45.5581 81.7737 49.876 81.7737 52.5362 84.4377C55.1964 87.0979 55.1964 91.4119 52.5362 94.0759L28.6767 117.932C27.3466 119.266 25.603 119.933 23.8595 119.933Z" fill="white"/>
<path d="M27.2686 143.788C25.525 143.788 23.7776 143.121 22.4475 141.791C19.7834 139.131 19.7834 134.813 22.4475 132.153L70.1627 84.4377C72.8267 81.7737 77.1407 81.7737 79.8009 84.4377C82.4649 87.0979 82.4649 91.4119 79.8009 94.0759L32.0857 141.791C30.7556 143.121 29.0082 143.788 27.2686 143.788Z" fill="white"/>
</g>
<defs>
<clipPath id="clip0_1_1026">
<rect width="409" height="409" fill="white"/>
</clipPath>
</defs>
</svg>
