<svg width="423" height="423" viewBox="0 0 423 423" fill="none" xmlns="http://www.w3.org/2000/svg">
<g clip-path="url(#clip0_1_1057)">
<path fill-rule="evenodd" clip-rule="evenodd" d="M416.176 150.084C416.176 191.532 382.575 225.133 341.128 225.133C299.68 225.133 266.079 191.532 266.079 150.084C266.079 108.636 299.68 75.0349 341.128 75.0349C382.575 75.0349 416.176 108.636 416.176 150.084Z" fill="#1A428A"/>
<path d="M341.128 231.953C295.983 231.953 259.259 195.229 259.259 150.084C259.259 104.935 295.983 68.2109 341.128 68.2109C386.276 68.2109 423.001 104.935 423.001 150.084C423.001 195.229 386.276 231.953 341.128 231.953V231.953ZM341.128 81.859C303.51 81.859 272.903 112.466 272.903 150.084C272.903 187.702 303.51 218.309 341.128 218.309C378.746 218.309 409.356 187.702 409.356 150.084C409.356 112.466 378.746 81.859 341.128 81.859V81.859Z" fill="#1A428A"/>
<path d="M402.532 150.084C402.532 191.532 368.931 225.133 327.484 225.133C286.036 225.133 252.435 191.532 252.435 150.084C252.435 108.636 286.036 75.0349 327.484 75.0349C368.931 75.0349 402.532 108.636 402.532 150.084Z" fill="#6BC4E8"/>
<path d="M327.484 231.953C282.339 231.953 245.615 195.229 245.615 150.084C245.615 104.935 282.339 68.2109 327.484 68.2109C372.632 68.2109 409.356 104.935 409.356 150.084C409.356 195.229 372.632 231.953 327.484 231.953ZM327.484 81.859C289.865 81.859 259.259 112.466 259.259 150.084C259.259 187.702 289.865 218.309 327.484 218.309C365.102 218.309 395.708 187.702 395.708 150.084C395.708 112.466 365.102 81.859 327.484 81.859Z" fill="#1A428A"/>
<path d="M305.411 112.38C305.411 111.662 305.891 111.189 306.602 111.189H336.787C353.968 111.189 362.076 119.778 362.076 132.782C362.076 141.972 357.786 147.215 352.656 149.959V150.197C357.669 152.11 363.509 158.551 363.509 168.452C363.509 184.555 353.37 192.312 335.592 192.312H306.602C305.891 192.312 305.411 191.832 305.411 191.118V112.38ZM336.431 144.946C343.587 144.946 348.006 140.656 348.006 134.332C348.006 127.89 343.587 123.592 336.431 123.592H320.199C319.727 123.592 319.488 123.834 319.488 124.306V144.232C319.488 144.704 319.727 144.946 320.199 144.946H336.431ZM320.199 179.906H337.146C345.02 179.906 349.431 175.37 349.431 168.573C349.431 161.889 345.02 157.353 337.146 157.353H320.199C319.727 157.353 319.488 157.591 319.488 158.071V179.184C319.488 179.668 319.727 179.906 320.199 179.906Z" fill="#1A428A"/>
<path d="M327.484 122.792C323.712 122.792 320.66 119.743 320.66 115.971V102.327C320.66 98.556 323.712 95.5032 327.484 95.5032C331.255 95.5032 334.308 98.556 334.308 102.327V115.971C334.308 119.743 331.255 122.792 327.484 122.792Z" fill="#1A428A"/>
<path d="M327.484 204.664C323.712 204.664 320.66 201.611 320.66 197.84V191.02C320.66 187.249 323.712 184.196 327.484 184.196C331.255 184.196 334.308 187.249 334.308 191.02V197.84C334.308 201.611 331.255 204.664 327.484 204.664Z" fill="#1A428A"/>
<path d="M252.435 306.767L259.259 252.421H324.072C333.492 252.421 341.128 244.785 341.128 235.365C341.128 225.944 333.492 218.308 324.072 218.308H162.82C150.293 218.308 139.858 227.065 137.168 238.777H40.9364V327.47H137.168C139.854 339.181 150.293 347.938 162.82 347.938H211.26C234 347.938 252.435 329.503 252.435 306.767V306.767Z" fill="#D7E9FF"/>
<path d="M211.26 354.762H162.824C149.165 354.762 137.25 346.571 132.202 334.294H40.9365C37.1653 334.294 34.1124 331.241 34.1124 327.47V238.777C34.1124 235.005 37.1653 231.953 40.9365 231.953H132.202C137.25 219.675 149.165 211.488 162.824 211.488H324.072C337.239 211.488 347.952 222.201 347.952 235.365C347.952 248.533 337.239 259.245 324.072 259.245H265.275L259.259 307.2C259.017 333.466 237.577 354.762 211.26 354.762V354.762ZM47.7566 320.649H137.172C140.35 320.649 143.106 322.847 143.82 325.943C145.866 334.879 153.681 341.114 162.824 341.114H211.26C230.202 341.114 245.615 325.705 245.615 306.763C245.615 306.474 245.634 306.197 245.665 305.908L252.489 251.57C252.915 248.158 255.819 245.601 259.259 245.601H324.072C329.717 245.601 334.308 241.01 334.308 235.365C334.308 229.723 329.717 225.132 324.072 225.132H162.824C153.681 225.132 145.866 231.367 143.82 240.303C143.106 243.403 140.35 245.601 137.172 245.601H47.7566V320.649Z" fill="#1A428A"/>
<path d="M259.259 259.245H225.146C221.375 259.245 218.322 256.192 218.322 252.421C218.322 248.65 221.375 245.601 225.146 245.601H259.259C263.03 245.601 266.079 248.65 266.079 252.421C266.079 256.192 263.03 259.245 259.259 259.245Z" fill="#1A428A"/>
<path d="M252.435 286.533H231.966C228.195 286.533 225.146 283.484 225.146 279.713C225.146 275.942 228.195 272.889 231.966 272.889H252.435C256.206 272.889 259.259 275.942 259.259 279.713C259.259 283.484 256.206 286.533 252.435 286.533Z" fill="#1A428A"/>
<path d="M252.435 313.825H231.966C228.195 313.825 225.146 310.772 225.146 307.001C225.146 303.23 228.195 300.181 231.966 300.181H252.435C256.206 300.181 259.259 303.23 259.259 307.001C259.259 310.772 256.206 313.825 252.435 313.825Z" fill="#1A428A"/>
<path d="M6.8241 218.308H61.4047V347.938H6.8241V218.308Z" fill="#6BC4E8"/>
<path d="M61.4046 354.762H6.82404C3.05286 354.762 0 351.709 0 347.938V218.308C0 214.537 3.05286 211.488 6.82404 211.488H61.4046C65.1758 211.488 68.2248 214.537 68.2248 218.308V347.938C68.2248 351.709 65.1758 354.762 61.4046 354.762ZM13.6442 341.114H54.5806V225.132H13.6442V341.114Z" fill="#1A428A"/>
<path d="M40.9364 320.649C40.9364 324.417 37.8796 327.47 34.1124 327.47C30.3451 327.47 27.2922 324.417 27.2922 320.649C27.2922 316.878 30.3451 313.825 34.1124 313.825C37.8796 313.825 40.9364 316.878 40.9364 320.649Z" fill="#6BC4E8"/>
<path d="M34.1124 334.294C26.5896 334.294 20.4683 328.168 20.4683 320.65C20.4683 313.127 26.5896 307.001 34.1124 307.001C41.6353 307.001 47.7566 313.127 47.7566 320.65C47.7566 328.168 41.6353 334.294 34.1124 334.294ZM34.1124 320.634V320.65V320.634Z" fill="#1A428A"/>
<path d="M388.888 143.26C385.117 143.26 382.064 140.211 382.064 136.44V109.147C382.064 105.376 385.117 102.327 388.888 102.327C392.659 102.327 395.708 105.376 395.708 109.147V136.44C395.708 140.211 392.659 143.26 388.888 143.26Z" fill="white"/>
<path d="M402.532 129.615H375.24C371.469 129.615 368.42 126.563 368.42 122.791C368.42 119.02 371.469 115.971 375.24 115.971H402.532C406.303 115.971 409.356 119.02 409.356 122.791C409.356 126.563 406.303 129.615 402.532 129.615V129.615Z" fill="white"/>
<path d="M150.098 266.069H81.8729C78.1017 266.069 75.0488 263.016 75.0488 259.245C75.0488 255.474 78.1017 252.421 81.8729 252.421H150.098C153.869 252.421 156.918 255.474 156.918 259.245C156.918 263.016 153.869 266.069 150.098 266.069Z" fill="white"/>
</g>
<defs>
<clipPath id="clip0_1_1057">
<rect width="423" height="423" fill="white"/>
</clipPath>
</defs>
</svg>
