<svg width="433" height="433" viewBox="0 0 433 433" fill="none" xmlns="http://www.w3.org/2000/svg">
<g clip-path="url(#clip0_1_1107)">
<path d="M235.252 49.3972C235.252 68.2274 219.988 83.4912 201.158 83.4912C182.328 83.4912 167.064 68.2274 167.064 49.3972C167.064 30.5671 182.328 15.3032 201.158 15.3032C219.988 15.3032 235.252 30.5671 235.252 49.3972Z" fill="#1A428A"/>
<path d="M201.158 90.3116C178.598 90.3116 160.243 71.9575 160.243 49.3973C160.243 26.837 178.598 8.48291 201.158 8.48291C223.718 8.48291 242.072 26.837 242.072 49.3973C242.072 71.9575 223.718 90.3116 201.158 90.3116ZM201.158 22.1197C186.116 22.1197 173.88 34.3558 173.88 49.3973C173.88 64.4387 186.116 76.6709 201.158 76.6709C216.199 76.6709 228.431 64.4387 228.431 49.3973C228.431 34.3558 216.199 22.1197 201.158 22.1197V22.1197Z" fill="#1A428A"/>
<path d="M235.252 369.884C235.252 388.714 219.988 403.978 201.158 403.978C182.328 403.978 167.064 388.714 167.064 369.884C167.064 351.054 182.328 335.79 201.158 335.79C219.988 335.79 235.252 351.054 235.252 369.884Z" fill="#1A428A"/>
<path d="M201.158 410.798C178.598 410.798 160.243 392.444 160.243 369.884C160.243 347.324 178.598 328.974 201.158 328.974C223.718 328.974 242.072 347.324 242.072 369.884C242.072 392.444 223.718 410.798 201.158 410.798ZM201.158 342.61C186.116 342.61 173.88 354.843 173.88 369.884C173.88 384.929 186.116 397.162 201.158 397.162C216.199 397.162 228.431 384.929 228.431 369.884C228.431 354.843 216.199 342.61 201.158 342.61Z" fill="#1A428A"/>
<path d="M395.495 209.641C395.495 228.471 380.231 243.735 361.401 243.735C342.571 243.735 327.307 228.471 327.307 209.641C327.307 190.811 342.571 175.547 361.401 175.547C380.231 175.547 395.495 190.811 395.495 209.641Z" fill="#1A428A"/>
<path d="M361.401 250.555C338.841 250.555 320.487 232.201 320.487 209.641C320.487 187.08 338.841 168.726 361.401 168.726C383.961 168.726 402.315 187.08 402.315 209.641C402.315 232.201 383.965 250.555 361.401 250.555ZM361.401 182.367C346.36 182.367 334.127 194.599 334.127 209.641C334.127 224.682 346.36 236.918 361.401 236.918C376.443 236.918 388.679 224.682 388.679 209.641C388.679 194.599 376.443 182.367 361.401 182.367Z" fill="#1A428A"/>
<path d="M75.0083 209.641C75.0083 228.471 59.7444 243.735 40.9143 243.735C22.0842 243.735 6.82031 228.471 6.82031 209.641C6.82031 190.811 22.0842 175.547 40.9143 175.547C59.7444 175.547 75.0083 190.811 75.0083 209.641Z" fill="#1A428A"/>
<path d="M40.9144 250.555C18.3541 250.555 0 232.201 0 209.641C0 187.08 18.3541 168.726 40.9144 168.726C63.4746 168.726 81.8287 187.08 81.8287 209.641C81.8287 232.201 63.4746 250.555 40.9144 250.555ZM40.9144 182.367C25.869 182.367 13.6368 194.599 13.6368 209.641C13.6368 224.682 25.869 236.918 40.9144 236.918C55.9558 236.918 68.188 224.682 68.188 209.641C68.188 194.599 55.9558 182.367 40.9144 182.367Z" fill="#1A428A"/>
<path d="M338.572 72.2228C325.259 58.9098 303.67 58.9098 290.357 72.2228C277.04 85.5396 277.04 107.128 290.357 120.441C303.67 133.754 325.259 133.754 338.572 120.441C351.889 107.128 351.889 85.5396 338.572 72.2228V72.2228Z" fill="#1A428A"/>
<path d="M314.47 137.223C303.994 137.223 293.514 133.243 285.534 125.264C269.588 109.31 269.588 83.3508 285.534 67.4041C293.264 59.6746 303.541 55.4177 314.47 55.4177C325.399 55.4177 335.673 59.6746 343.398 67.4041C351.128 75.1297 355.381 85.4031 355.381 96.3321C355.381 107.257 351.128 117.535 343.398 125.264C335.427 133.243 324.947 137.223 314.47 137.223V137.223ZM314.47 69.0545C307.185 69.0545 300.33 71.8912 295.18 77.0454C284.543 87.6779 284.543 104.986 295.18 115.623C305.82 126.247 323.113 126.247 333.753 115.623C338.907 110.468 341.748 103.617 341.748 96.3321C341.748 89.0474 338.911 82.1997 333.753 77.0454C328.599 71.8951 321.755 69.0545 314.47 69.0545Z" fill="#1A428A"/>
<path d="M111.955 298.84C98.6377 285.527 77.0529 285.527 63.7361 298.84C50.4231 312.157 50.4231 333.742 63.7361 347.058C77.0529 360.371 98.6377 360.371 111.955 347.058C125.268 333.742 125.268 312.157 111.955 298.84Z" fill="#1A428A"/>
<path d="M87.8492 363.867C76.9202 363.867 66.6428 359.61 58.9212 351.881C51.1878 344.155 46.9348 333.878 46.9348 322.953C46.9348 312.024 51.1878 301.751 58.9212 294.017C74.864 278.063 100.827 278.063 116.781 294.017C132.728 309.972 132.728 335.93 116.781 351.877C109.048 359.61 98.7742 363.867 87.8492 363.867V363.867ZM87.8492 295.691C80.861 295.691 73.8846 298.348 68.5625 303.662C63.4122 308.817 60.5716 315.668 60.5716 322.953C60.5716 330.238 63.4082 337.081 68.5625 342.236C78.8711 352.544 96.8311 352.544 107.14 342.236C117.776 331.603 117.776 314.295 107.14 303.659C101.818 298.348 94.8334 295.691 87.8492 295.691V295.691Z" fill="#1A428A"/>
<path d="M111.955 72.2228C98.6416 58.9098 77.0529 58.9098 63.74 72.2228C50.4231 85.5357 50.4231 107.124 63.74 120.441C77.0529 133.754 98.6416 133.754 111.955 120.441C125.268 107.124 125.268 85.5357 111.955 72.2228Z" fill="#1A428A"/>
<path d="M87.8492 137.223C77.3728 137.223 66.8926 133.243 58.9212 125.264C51.1878 117.535 46.9348 107.257 46.9348 96.3282C46.9348 85.3992 51.1878 75.1258 58.9212 67.4002C66.6428 59.6707 76.9202 55.4177 87.8492 55.4177C98.7742 55.4177 109.052 59.6707 116.781 67.4002C132.732 83.3508 132.732 109.31 116.781 125.264C108.802 133.243 98.3216 137.223 87.8492 137.223ZM87.8492 69.0545C80.5645 69.0545 73.7168 71.8912 68.5625 77.0454C63.4121 82.1997 60.5716 89.0435 60.5716 96.3282C60.5716 103.613 63.4082 110.468 68.5625 115.619C79.1911 126.247 96.4995 126.247 107.14 115.619C117.776 104.986 117.776 87.6779 107.14 77.0454C101.985 71.8912 95.1338 69.0545 87.8492 69.0545Z" fill="#1A428A"/>
<path d="M214.795 376.704C124.557 376.704 51.141 303.288 51.141 213.051C51.141 122.814 124.557 49.3972 214.795 49.3972C305.032 49.3972 378.448 122.814 378.448 213.051C378.448 216.82 375.401 219.871 371.632 219.871C367.862 219.871 364.811 216.82 364.811 213.051C364.811 130.332 297.513 63.034 214.795 63.034C132.076 63.034 64.7778 130.332 64.7778 213.051C64.7778 295.769 132.076 363.067 214.795 363.067C218.564 363.067 221.615 366.115 221.615 369.884C221.615 373.653 218.564 376.704 214.795 376.704V376.704Z" fill="#1A428A"/>
<path d="M248.889 49.3972C248.889 68.2274 233.625 83.4912 214.795 83.4912C195.964 83.4912 180.701 68.2274 180.701 49.3972C180.701 30.5671 195.964 15.3032 214.795 15.3032C233.625 15.3032 248.889 30.5671 248.889 49.3972Z" fill="#2A8EE6"/>
<path d="M214.794 90.3116C192.234 90.3116 173.88 71.9575 173.88 49.3973C173.88 26.837 192.234 8.48291 214.794 8.48291C237.355 8.48291 255.709 26.837 255.709 49.3973C255.709 71.9575 237.359 90.3116 214.794 90.3116ZM214.794 22.1197C199.753 22.1197 187.521 34.3558 187.521 49.3973C187.521 64.4387 199.753 76.6709 214.794 76.6709C229.84 76.6709 242.072 64.4387 242.072 49.3973C242.072 34.3558 229.84 22.1197 214.794 22.1197V22.1197Z" fill="#1A428A"/>
<path d="M248.889 369.884C248.889 388.714 233.625 403.978 214.795 403.978C195.964 403.978 180.701 388.714 180.701 369.884C180.701 351.054 195.964 335.79 214.795 335.79C233.625 335.79 248.889 351.054 248.889 369.884Z" fill="#2A8EE6"/>
<path d="M214.794 410.798C192.234 410.798 173.88 392.444 173.88 369.884C173.88 347.324 192.234 328.974 214.794 328.974C237.355 328.974 255.709 347.324 255.709 369.884C255.709 392.444 237.359 410.798 214.794 410.798ZM214.794 342.61C199.753 342.61 187.521 354.843 187.521 369.884C187.521 384.929 199.753 397.162 214.794 397.162C229.84 397.162 242.072 384.929 242.072 369.884C242.072 354.843 229.84 342.61 214.794 342.61Z" fill="#1A428A"/>
<path d="M409.136 209.641C409.136 228.471 393.868 243.735 375.038 243.735C356.212 243.735 340.944 228.471 340.944 209.641C340.944 190.811 356.212 175.547 375.038 175.547C393.868 175.547 409.136 190.811 409.136 209.641V209.641Z" fill="#2A8EE6"/>
<path d="M375.038 250.555C352.478 250.555 334.127 232.201 334.127 209.641C334.127 187.08 352.478 168.726 375.038 168.726C397.598 168.726 415.952 187.08 415.952 209.641C415.952 232.201 397.602 250.555 375.038 250.555V250.555ZM375.038 182.367C359.996 182.367 347.764 194.599 347.764 209.641C347.764 224.682 359.996 236.918 375.038 236.918C390.083 236.918 402.315 224.682 402.315 209.641C402.315 194.599 390.083 182.367 375.038 182.367V182.367Z" fill="#1A428A"/>
<path d="M88.6452 209.641C88.6452 228.471 73.3813 243.735 54.5512 243.735C35.721 243.735 20.4572 228.471 20.4572 209.641C20.4572 190.811 35.721 175.547 54.5512 175.547C73.3813 175.547 88.6452 190.811 88.6452 209.641Z" fill="#2A8EE6"/>
<path d="M54.5512 250.555C31.9909 250.555 13.6368 232.201 13.6368 209.641C13.6368 187.08 31.9909 168.726 54.5512 168.726C77.1115 168.726 95.4656 187.08 95.4656 209.641C95.4656 232.201 77.1115 250.555 54.5512 250.555ZM54.5512 182.367C39.5097 182.367 27.2776 194.599 27.2776 209.641C27.2776 224.682 39.5097 236.918 54.5512 236.918C69.5927 236.918 81.8287 224.682 81.8287 209.641C81.8287 194.599 69.5927 182.367 54.5512 182.367Z" fill="#1A428A"/>
<path d="M352.208 72.2267C338.895 58.9098 317.307 58.9098 303.994 72.2267C290.681 85.5396 290.681 107.128 303.994 120.441C317.307 133.754 338.895 133.754 352.208 120.441C365.525 107.128 365.525 85.5396 352.208 72.2267Z" fill="#2A8EE6"/>
<path d="M328.107 137.223C317.631 137.223 307.15 133.243 299.171 125.264C283.225 109.31 283.225 83.3508 299.171 67.4041C306.905 59.6746 317.178 55.4177 328.107 55.4177C339.036 55.4177 349.309 59.6746 357.035 67.4041C364.764 75.1297 369.021 85.4031 369.021 96.3321C369.021 107.257 364.764 117.535 357.035 125.264C349.064 133.243 338.583 137.223 328.107 137.223ZM328.107 69.0545C320.822 69.0545 313.971 71.8912 308.816 77.0454C298.184 87.6779 298.184 104.986 308.816 115.623C319.457 126.247 336.753 126.247 347.394 115.623C352.544 110.468 355.385 103.617 355.385 96.3321C355.385 89.0474 352.548 82.1997 347.394 77.0454C342.239 71.8951 335.392 69.0545 328.107 69.0545V69.0545Z" fill="#1A428A"/>
<path d="M125.591 298.84C112.275 285.527 90.6898 285.527 77.3729 298.84C64.0599 312.157 64.0599 333.742 77.3729 347.058C90.6898 360.371 112.275 360.371 125.591 347.058C138.904 333.742 138.904 312.157 125.591 298.84Z" fill="#2A8EE6"/>
<path d="M101.486 363.867C90.5571 363.867 80.2836 359.61 72.558 351.881C64.8285 344.155 60.5717 333.878 60.5717 322.953C60.5717 312.024 64.8285 301.751 72.558 294.017C88.5008 278.063 114.463 278.063 130.418 294.017C146.365 309.972 146.365 335.93 130.418 351.877C122.688 359.61 112.411 363.867 101.486 363.867V363.867ZM101.486 295.691C94.4979 295.691 87.5214 298.348 82.2033 303.662C77.049 308.817 74.2085 315.668 74.2085 322.953C74.2085 330.238 77.0451 337.081 82.2033 342.236C92.5119 352.544 110.468 352.544 120.777 342.236C131.413 331.603 131.413 314.295 120.777 303.659C115.454 298.348 108.47 295.691 101.486 295.691V295.691Z" fill="#1A428A"/>
<path d="M125.591 72.2228C112.278 58.9098 90.6898 58.9098 77.3768 72.2228C64.0599 85.5396 64.0599 107.124 77.3768 120.441C90.6898 133.754 112.278 133.754 125.591 120.441C138.908 107.124 138.908 85.5396 125.591 72.2228Z" fill="#2A8EE6"/>
<path d="M101.486 137.223C91.0097 137.223 80.5294 133.243 72.558 125.264C64.8285 117.535 60.5717 107.257 60.5717 96.3282C60.5717 85.3992 64.8285 75.1258 72.558 67.4002C80.2836 59.6707 90.5571 55.4177 101.486 55.4177C112.411 55.4177 122.688 59.6707 130.422 67.4002C146.369 83.3508 146.369 109.31 130.422 125.264C122.439 133.243 111.958 137.223 101.486 137.223ZM101.486 69.0545C94.2013 69.0545 87.3537 71.8912 82.2033 77.0454C77.049 82.1997 74.2085 89.0435 74.2085 96.3282C74.2085 103.613 77.0451 110.468 82.2033 115.619C92.8279 126.247 110.136 126.247 120.777 115.619C131.413 104.986 131.413 87.6779 120.777 77.0454C115.622 71.8912 108.771 69.0545 101.486 69.0545Z" fill="#1A428A"/>
<path d="M364.811 383.525C361.042 383.525 357.991 380.473 357.991 376.704V363.067C357.991 359.298 361.042 356.247 364.811 356.247C368.58 356.247 371.632 359.298 371.632 363.067V376.704C371.632 380.473 368.58 383.525 364.811 383.525V383.525Z" fill="#1A428A"/>
<path d="M364.811 335.79C361.042 335.79 357.991 332.743 357.991 328.973V294.876C357.991 291.106 361.042 288.059 364.811 288.059C368.58 288.059 371.632 291.106 371.632 294.876V328.973C371.632 332.743 368.58 335.79 364.811 335.79Z" fill="#1A428A"/>
<path d="M364.811 267.602C361.042 267.602 357.991 264.551 357.991 260.782V247.145C357.991 243.376 361.042 240.324 364.811 240.324C368.58 240.324 371.632 243.376 371.632 247.145V260.782C371.632 264.551 368.58 267.602 364.811 267.602Z" fill="#1A428A"/>
<path d="M385.268 383.525C381.499 383.525 378.448 380.473 378.448 376.704V363.067C378.448 359.298 381.499 356.247 385.268 356.247C389.038 356.247 392.089 359.298 392.089 363.067V376.704C392.089 380.473 389.038 383.525 385.268 383.525V383.525Z" fill="#1A428A"/>
<path d="M385.268 335.79C381.499 335.79 378.448 332.743 378.448 328.973V294.876C378.448 291.106 381.499 288.059 385.268 288.059C389.038 288.059 392.089 291.106 392.089 294.876V328.973C392.089 332.743 389.038 335.79 385.268 335.79Z" fill="#1A428A"/>
<path d="M385.268 267.602C381.499 267.602 378.448 264.551 378.448 260.782V247.145C378.448 243.376 381.499 240.324 385.268 240.324C389.038 240.324 392.089 243.376 392.089 247.145V260.782C392.089 264.551 389.038 267.602 385.268 267.602Z" fill="#1A428A"/>
<path d="M375.038 424.435C373.368 424.435 371.698 423.823 370.387 422.605L319.246 374.874C316.495 372.303 316.347 367.988 318.91 365.233C321.489 362.482 325.789 362.334 328.552 364.897L375.038 408.289L421.528 364.897C424.29 362.334 428.598 362.478 431.169 365.229C433.733 367.988 433.588 372.299 430.838 374.87L379.697 422.605C378.382 423.823 376.712 424.435 375.038 424.435V424.435Z" fill="#1A428A"/>
<path d="M214.795 131.222C169.604 131.222 132.97 167.856 132.97 213.051C132.97 258.242 169.604 294.876 214.795 294.876C259.989 294.876 296.623 258.242 296.623 213.051C296.623 167.856 259.989 131.222 214.795 131.222V131.222Z" fill="#D7E9FF"/>
<path d="M214.795 301.696C165.917 301.696 126.149 261.929 126.149 213.051C126.149 164.173 165.917 124.406 214.795 124.406C263.673 124.406 303.44 164.173 303.44 213.051C303.44 261.929 263.673 301.696 214.795 301.696V301.696ZM214.795 138.042C173.435 138.042 139.786 171.692 139.786 213.051C139.786 254.41 173.435 288.059 214.795 288.059C256.154 288.059 289.803 254.41 289.803 213.051C289.803 171.692 256.154 138.042 214.795 138.042V138.042Z" fill="#1A428A"/>
<path d="M159.806 192.586C158.784 192.586 157.754 192.359 156.775 191.876C153.404 190.202 152.026 186.109 153.704 182.734C162.869 164.294 179.608 151.106 199.64 146.552C203.355 145.752 206.971 148.023 207.803 151.695C208.634 155.37 206.332 159.019 202.66 159.857C186.639 163.494 173.248 174.04 165.917 188.805C164.727 191.201 162.315 192.586 159.806 192.586Z" fill="white"/>
<path d="M192.734 175.367C192.734 174.649 193.214 174.177 193.928 174.177H224.093C241.264 174.177 249.369 182.757 249.369 195.758C249.369 204.943 245.08 210.183 239.953 212.926V213.164C244.963 215.076 250.8 221.514 250.8 231.409C250.8 247.504 240.667 255.257 222.899 255.257H193.928C193.214 255.257 192.734 254.777 192.734 254.063V175.367ZM223.738 207.916C230.89 207.916 235.306 203.628 235.306 197.307C235.306 190.869 230.89 186.573 223.738 186.573H207.518C207.046 186.573 206.804 186.811 206.804 187.283V207.202C206.804 207.674 207.046 207.916 207.518 207.916H223.738ZM207.518 242.857H224.452C232.325 242.857 236.731 238.323 236.731 231.53C236.731 224.85 232.325 220.316 224.452 220.316H207.518C207.046 220.316 206.804 220.554 206.804 221.034V242.135C206.804 242.619 207.046 242.857 207.518 242.857Z" fill="#1A428A"/>
<path d="M214.794 185.773C211.025 185.773 207.978 182.726 207.978 178.957V165.32C207.978 161.551 211.025 158.5 214.794 158.5C218.564 158.5 221.615 161.551 221.615 165.32V178.957C221.615 182.726 218.564 185.773 214.794 185.773Z" fill="#1A428A"/>
<path d="M214.794 267.602C211.025 267.602 207.978 264.551 207.978 260.782V253.965C207.978 250.196 211.025 247.145 214.794 247.145C218.564 247.145 221.615 250.196 221.615 253.965V260.782C221.615 264.551 218.564 267.602 214.794 267.602Z" fill="#1A428A"/>
<path d="M310.26 322.153C306.491 322.153 303.44 319.102 303.44 315.333V301.696C303.44 297.927 306.491 294.875 310.26 294.875C314.029 294.875 317.08 297.927 317.08 301.696V315.333C317.08 319.102 314.029 322.153 310.26 322.153Z" fill="#1A428A"/>
<path d="M310.26 335.79C306.491 335.79 303.44 332.743 303.44 328.974V315.333C303.44 311.564 306.491 308.516 310.26 308.516C314.029 308.516 317.08 311.564 317.08 315.333V328.974C317.08 332.743 314.029 335.79 310.26 335.79Z" fill="#1A428A"/>
<path d="M310.26 322.153H296.623C292.854 322.153 289.803 319.102 289.803 315.333C289.803 311.564 292.854 308.516 296.623 308.516H310.26C314.029 308.516 317.081 311.564 317.081 315.333C317.081 319.102 314.029 322.153 310.26 322.153Z" fill="#1A428A"/>
<path d="M323.897 322.153H310.26C306.491 322.153 303.44 319.102 303.44 315.333C303.44 311.564 306.491 308.516 310.26 308.516H323.897C327.666 308.516 330.717 311.564 330.717 315.333C330.717 319.102 327.666 322.153 323.897 322.153Z" fill="#1A428A"/>
</g>
<defs>
<clipPath id="clip0_1_1107">
<rect width="433" height="433" fill="white"/>
</clipPath>
</defs>
</svg>
