<svg width="395" height="395" viewBox="0 0 395 395" fill="none" xmlns="http://www.w3.org/2000/svg">
<path d="M333.708 197.621C333.708 265.322 278.824 320.206 211.119 320.206C143.418 320.206 88.5339 265.322 88.5339 197.621C88.5339 129.916 143.418 75.0317 211.119 75.0317C278.824 75.0317 333.708 129.916 333.708 197.621Z" fill="#1A428A"/>
<path d="M211.119 327.018C139.771 327.018 81.7261 268.969 81.7261 197.621C81.7261 126.272 139.771 68.2239 211.119 68.2239C282.468 68.2239 340.516 126.272 340.516 197.621C340.516 268.969 282.468 327.018 211.119 327.018V327.018ZM211.119 81.8436C147.28 81.8436 95.3458 133.778 95.3458 197.621C95.3458 261.46 147.28 313.394 211.119 313.394C274.962 313.394 326.896 261.46 326.896 197.621C326.896 133.778 274.962 81.8436 211.119 81.8436Z" fill="#1A428A"/>
<path d="M320.085 197.621C320.085 265.322 265.204 320.206 197.499 320.206C129.798 320.206 74.9143 265.322 74.9143 197.621C74.9143 129.916 129.798 75.0317 197.499 75.0317C265.204 75.0317 320.085 129.916 320.085 197.621Z" fill="#6BC4E8"/>
<path d="M197.499 327.018C126.151 327.018 68.1023 268.969 68.1023 197.621C68.1023 126.272 126.151 68.2239 197.499 68.2239C268.848 68.2239 326.896 126.272 326.896 197.621C326.896 268.969 268.848 327.018 197.499 327.018ZM197.499 81.8436C133.66 81.8436 81.7259 133.778 81.7259 197.621C81.7259 261.46 133.66 313.394 197.499 313.394C261.338 313.394 313.276 261.46 313.276 197.621C313.276 133.778 261.338 81.8436 197.499 81.8436V81.8436Z" fill="#1A428A"/>
<path d="M228.46 107.049C227.782 107.049 227.081 106.951 226.399 106.729C211.002 101.835 194.21 100.966 178.338 104.196C174.73 104.937 171.063 102.575 170.311 98.8887C169.562 95.1983 171.936 91.6093 175.618 90.8572C193.747 87.1512 212.916 88.1605 230.522 93.7487C234.103 94.8866 236.087 98.7173 234.949 102.302C234.033 105.202 231.352 107.049 228.46 107.049Z" fill="white"/>
<path d="M320.084 333.826C320.084 360.157 298.741 381.5 272.414 381.5C246.086 381.5 224.743 360.157 224.743 333.826C224.743 307.498 246.086 286.155 272.414 286.155C298.741 286.155 320.084 307.498 320.084 333.826V333.826Z" fill="#D7E9FF"/>
<path d="M272.414 388.308C242.372 388.308 217.931 363.867 217.931 333.826C217.931 303.784 242.372 279.343 272.414 279.343C302.455 279.343 326.896 303.784 326.896 333.826C326.896 363.867 302.455 388.308 272.414 388.308V388.308ZM272.414 292.963C249.882 292.963 231.551 311.294 231.551 333.826C231.551 356.358 249.882 374.689 272.414 374.689C294.946 374.689 313.277 356.358 313.277 333.826C313.277 311.294 294.946 292.963 272.414 292.963Z" fill="#1A428A"/>
<path d="M354.14 333.826C354.14 360.157 332.796 381.5 306.465 381.5C280.137 381.5 258.794 360.157 258.794 333.826C258.794 307.498 280.137 286.155 306.465 286.155C332.796 286.155 354.14 307.498 354.14 333.826V333.826Z" fill="#2A8EE6"/>
<path d="M306.465 388.308C276.423 388.308 251.982 363.867 251.982 333.826C251.982 303.784 276.423 279.343 306.465 279.343C336.506 279.343 360.947 303.784 360.947 333.826C360.947 363.867 336.506 388.308 306.465 388.308V388.308ZM306.465 292.963C283.933 292.963 265.602 311.294 265.602 333.826C265.602 356.358 283.933 374.689 306.465 374.689C328.997 374.689 347.328 356.358 347.328 333.826C347.328 311.294 328.997 292.963 306.465 292.963Z" fill="#1A428A"/>
<path d="M388.191 333.826C388.191 360.157 366.847 381.5 340.516 381.5C314.188 381.5 292.845 360.157 292.845 333.826C292.845 307.498 314.188 286.155 340.516 286.155C366.847 286.155 388.191 307.498 388.191 333.826V333.826Z" fill="#D7E9FF"/>
<path d="M340.516 388.308C310.475 388.308 286.033 363.867 286.033 333.826C286.033 303.784 310.475 279.343 340.516 279.343C370.561 279.343 394.999 303.784 394.999 333.826C394.999 363.867 370.561 388.308 340.516 388.308V388.308ZM340.516 292.963C317.984 292.963 299.657 311.294 299.657 333.826C299.657 356.358 317.984 374.689 340.516 374.689C363.048 374.689 381.379 356.358 381.379 333.826C381.379 311.294 363.048 292.963 340.516 292.963V292.963Z" fill="#1A428A"/>
<path d="M339.253 368.091V359.845C334.519 359.764 329.616 358.287 326.764 356.245L328.72 350.781C331.658 352.734 335.91 354.288 340.477 354.288C346.276 354.288 350.2 350.937 350.2 346.284C350.2 341.795 347.016 339.012 340.968 336.565C332.64 333.296 327.492 329.535 327.492 322.431C327.492 315.658 332.309 310.507 339.826 309.283V301.029H344.892V308.956C349.787 309.115 353.142 310.425 355.507 311.812L353.465 317.205C351.755 316.227 348.403 314.423 343.177 314.423C336.884 314.423 334.519 318.183 334.519 321.453C334.519 325.697 337.535 327.824 344.647 330.767C353.06 334.192 357.304 338.44 357.304 345.707C357.304 352.161 352.815 358.205 344.401 359.596V368.087H339.253V368.091Z" fill="#1A428A"/>
<path fill-rule="evenodd" clip-rule="evenodd" d="M79.7776 163.445C90.3343 165.682 100.229 169.111 102.843 174.344C109.051 186.756 121.467 186.756 133.878 174.344C146.294 161.929 164.913 149.517 146.294 130.894C137 121.604 133.945 106.269 133.216 93.2419C107.644 109.024 88.3274 133.941 79.7776 163.445Z" fill="white"/>
<path d="M115.996 190.462C114.912 190.462 113.833 190.376 112.777 190.205C106.023 189.114 100.338 184.558 96.7565 177.388C96.7331 177.357 94.6717 173.565 78.367 170.112C76.516 169.723 74.9065 168.577 73.9362 166.956C72.9581 165.327 72.7048 163.371 73.2309 161.555C82.1821 130.695 102.212 104.379 129.635 87.455C131.685 86.1846 134.229 86.1028 136.365 87.2056C138.492 88.3162 139.876 90.4673 140.012 92.8678C140.616 103.561 143.025 117.999 151.111 126.081C157.77 132.737 161.087 139.662 160.981 146.657C160.802 158.262 151.535 166.987 143.364 174.683C141.766 176.18 140.184 177.669 138.695 179.161C131.326 186.534 123.384 190.462 115.996 190.462ZM88.5068 158.574C99.6324 161.699 106.191 165.814 108.938 171.297C110.555 174.535 112.582 176.375 114.959 176.764C118.681 177.329 123.863 174.734 129.062 169.528C130.648 167.942 132.328 166.356 134.023 164.766C140.534 158.632 147.272 152.296 147.358 146.443C147.405 143.27 145.429 139.658 141.481 135.707C134.483 128.719 129.853 118.506 127.667 105.279C109.69 118.876 96.094 137.343 88.5068 158.574Z" fill="#1A428A"/>
<path d="M170.26 61.4121C170.26 87.7435 148.917 109.087 122.585 109.087C96.2577 109.087 74.9143 87.7435 74.9143 61.4121C74.9143 35.0846 96.2577 13.7412 122.585 13.7412C148.917 13.7412 170.26 35.0846 170.26 61.4121Z" fill="#D7E9FF"/>
<path d="M122.585 115.895C92.5437 115.895 68.1023 91.4534 68.1023 61.4121C68.1023 31.3709 92.5437 6.92944 122.585 6.92944C152.626 6.92944 177.068 31.3709 177.068 61.4121C177.068 91.4534 152.626 115.895 122.585 115.895ZM122.585 20.5491C100.053 20.5491 81.7259 38.8802 81.7259 61.4121C81.7259 83.9441 100.053 102.275 122.585 102.275C145.117 102.275 163.448 83.9441 163.448 61.4121C163.448 38.8802 145.117 20.5491 122.585 20.5491Z" fill="#1A428A"/>
<path d="M136.209 61.4121C136.209 87.7435 114.861 109.087 88.5339 109.087C62.2064 109.087 40.863 87.7435 40.863 61.4121C40.863 35.0846 62.2064 13.7412 88.5339 13.7412C114.861 13.7412 136.209 35.0846 136.209 61.4121Z" fill="#2A8EE6"/>
<path d="M88.534 115.895C58.4927 115.895 34.0513 91.4534 34.0513 61.4121C34.0513 31.3709 58.4927 6.92944 88.534 6.92944C118.575 6.92944 143.017 31.3709 143.017 61.4121C143.017 91.4534 118.575 115.895 88.534 115.895ZM88.534 20.5491C66.002 20.5491 47.671 38.8802 47.671 61.4121C47.671 83.9441 66.002 102.275 88.534 102.275C111.066 102.275 129.397 83.9441 129.397 61.4121C129.397 38.8802 111.066 20.5491 88.534 20.5491Z" fill="#1A428A"/>
<path d="M102.154 61.4121C102.154 87.7435 80.8102 109.087 54.4827 109.087C28.1551 109.087 6.81177 87.7435 6.81177 61.4121C6.81177 35.0846 28.1551 13.7412 54.4827 13.7412C80.8102 13.7412 102.154 35.0846 102.154 61.4121Z" fill="#D7E9FF"/>
<path d="M54.4827 115.895C24.4414 115.895 0 91.4534 0 61.4121C0 31.3709 24.4414 6.92944 54.4827 6.92944C84.524 6.92944 108.965 31.3709 108.965 61.4121C108.965 91.4534 84.524 115.895 54.4827 115.895ZM54.4827 20.5491C31.9508 20.5491 13.6197 38.8802 13.6197 61.4121C13.6197 83.9441 31.9508 102.275 54.4827 102.275C77.0146 102.275 95.3457 83.9441 95.3457 61.4121C95.3457 38.8802 77.0146 20.5491 54.4827 20.5491Z" fill="#1A428A"/>
<path d="M38.5366 34.2661C38.5366 33.7868 38.8562 33.4595 39.3394 33.4595H58.7733C69.821 33.4595 75.3001 39.1061 75.3001 47.8936C75.3001 54.2651 72.241 58.1347 67.9622 59.8299V59.9896C71.6759 61.0418 76.2704 65.3128 76.2704 72.6546C76.2704 82.8996 69.821 88.2968 58.368 88.2968H39.3394C38.8523 88.2968 38.5327 87.9772 38.5327 87.494V34.2661H38.5366ZM58.6135 57.1683C64.6576 57.1683 68.2116 53.7 68.2116 48.6185C68.2116 43.3771 64.6576 39.9907 58.6135 39.9907H46.1901C45.8706 39.9907 45.7108 40.1544 45.7108 40.4778V56.6851C45.7108 57.0124 45.8706 57.1722 46.1901 57.1722H58.6135V57.1683ZM46.1901 81.7656H59.011C65.5422 81.7656 69.0962 78.2116 69.0962 72.7325C69.0962 67.3314 65.5422 63.6995 59.011 63.6995H46.1901C45.8706 63.6995 45.7108 63.8593 45.7108 64.1827V81.2785C45.7108 81.6019 45.8706 81.7656 46.1901 81.7656Z" fill="#1A428A"/>
<path fill-rule="evenodd" clip-rule="evenodd" d="M164.913 292.277C164.913 292.277 177.329 255.034 164.913 248.826C152.502 242.618 140.086 248.826 133.878 230.207C127.671 211.583 133.878 205.379 152.502 199.172C171.121 192.964 195.948 199.172 202.156 223.999C208.364 248.826 195.948 261.238 189.745 286.069C185.224 304.135 164.913 292.277 164.913 292.277Z" fill="white"/>
<path d="M177.96 302.896C169.898 302.896 162.517 298.765 161.48 298.153C158.698 296.528 157.435 293.177 158.445 290.126C164.017 273.373 164.999 256.48 161.866 254.917C158.733 253.347 155.409 252.758 151.882 252.142C143.422 250.65 132.896 248.795 127.421 232.362C119.429 208.372 130.27 199.409 150.347 192.711C163.23 188.408 177.567 189.504 188.708 195.629C198.852 201.202 205.788 210.442 208.758 222.347C213.508 241.332 208.473 254.138 203.138 267.699C200.726 273.844 198.232 280.196 196.342 287.725C194.226 296.197 189.304 299.86 185.555 301.446C183.073 302.491 180.482 302.896 177.96 302.896V302.896ZM164.91 292.273H164.976H164.91ZM173.206 288.45C175.798 289.249 178.533 289.627 180.279 288.89C180.758 288.684 182.224 288.064 183.135 284.421C185.228 276.031 188.007 268.958 190.462 262.719C195.559 249.761 199.234 240.405 195.551 225.647C193.489 217.405 188.981 211.322 182.149 207.57C174.274 203.248 163.986 202.515 154.657 205.629C137.982 211.198 135.842 214.545 140.336 228.056C143.251 236.796 146.695 237.4 154.244 238.729C158.374 239.454 163.051 240.28 167.957 242.735C181.904 249.707 177.041 274.869 173.206 288.45V288.45Z" fill="#1A428A"/>
<path fill-rule="evenodd" clip-rule="evenodd" d="M260.933 92.7043C242.407 110.821 222.272 133.462 233.191 137.102C251.81 143.31 264.226 149.517 264.226 149.517C264.226 149.517 258.018 168.137 239.399 168.137C220.775 168.137 195.948 168.137 195.948 174.345C195.948 180.552 233.191 205.38 233.191 211.587C233.191 217.791 241.215 244.438 245.603 248.826C251.81 255.034 270.43 261.242 276.638 236.415C282.845 211.587 276.638 192.964 289.053 186.756C295.99 183.288 304.867 166.399 311.347 152.175C301.41 127.301 283.586 106.429 260.933 92.7043V92.7043Z" fill="white"/>
<path d="M259.16 261.187C251.764 261.187 244.808 257.664 240.79 253.639C235.038 247.899 227.256 221.793 226.446 212.916C224.388 210.017 215.924 202.959 210.215 198.205C194.6 185.186 189.14 180.12 189.14 174.341C189.14 161.929 207.304 161.325 239.399 161.325C247.263 161.325 252.161 156.668 254.916 152.724C249.617 150.402 241.262 146.973 231.032 143.559C227.163 142.269 224.45 139.381 223.593 135.644C222.108 129.203 224.824 118.486 256.175 87.8331C258.404 85.6664 261.802 85.2806 264.468 86.8783C288.402 101.383 307.299 123.673 317.672 149.646C318.366 151.376 318.319 153.301 317.547 154.992C304.267 184.157 296.664 190.563 292.101 192.851C288.286 194.756 287.627 199.476 286.84 211.47C286.364 218.835 285.764 227.985 283.243 238.063C279.405 253.424 271.233 258.693 265.048 260.4C263.084 260.946 261.109 261.187 259.16 261.187V261.187ZM205.765 176.324C209.319 179.722 214.837 184.324 218.932 187.742C234.535 200.746 239.995 205.812 239.995 211.587C239.995 216.466 247.388 240.378 250.497 244.087C252.415 246.005 257.301 248.444 261.412 247.275C266.288 245.923 268.785 239.723 270.029 234.762C272.246 225.877 272.776 217.752 273.251 210.59C274.062 198.073 274.833 186.246 286.006 180.665C286.629 180.353 292.292 176.955 303.916 152.031C295.125 131.552 280.367 113.794 261.857 101.371C243.569 119.706 238.686 128.135 237.384 131.334C255.107 137.378 266.767 143.169 267.273 143.426C270.305 144.942 271.763 148.453 270.683 151.672C270.371 152.623 262.656 174.948 239.399 174.948C230.588 174.948 214.127 174.948 205.765 176.324V176.324Z" fill="#1A428A"/>
<path d="M313.276 252.103C309.512 252.103 306.465 249.056 306.465 245.292V218.052C306.465 214.288 309.512 211.24 313.276 211.24C317.041 211.24 320.084 214.288 320.084 218.052V245.292C320.084 249.056 317.041 252.103 313.276 252.103Z" fill="white"/>
<path d="M326.896 238.48H299.657C295.892 238.48 292.845 235.436 292.845 231.672C292.845 227.907 295.892 224.86 299.657 224.86H326.896C330.661 224.86 333.708 227.907 333.708 231.672C333.708 235.436 330.661 238.48 326.896 238.48Z" fill="white"/>
</svg>
