<svg width="382" height="382" viewBox="0 0 382 382" fill="none" xmlns="http://www.w3.org/2000/svg">
<path fill-rule="evenodd" clip-rule="evenodd" d="M280.97 361.535C280.97 354.002 241.27 347.893 192.292 347.893C143.318 347.893 103.614 354.002 103.614 361.535C103.614 369.072 143.318 375.177 192.292 375.177C241.27 375.177 280.97 369.072 280.97 361.535Z" fill="#1A428A"/>
<path d="M192.292 382C109.199 382 96.791 369.177 96.791 361.535C96.791 353.896 109.199 341.07 192.292 341.07C275.384 341.07 287.793 353.896 287.793 361.535C287.793 369.177 275.384 382 192.292 382V382ZM116.26 361.535C127.908 364.739 153.494 368.358 192.292 368.358C231.094 368.358 256.676 364.739 268.323 361.535C256.676 358.33 231.094 354.716 192.292 354.716C153.494 354.716 127.908 358.33 116.26 361.535ZM275.135 364.294H275.205H275.135Z" fill="#1A428A"/>
<path d="M374.199 184.179C374.199 282.131 294.791 361.535 196.839 361.535C98.887 361.535 19.4832 282.131 19.4832 184.179C19.4832 86.2269 98.887 6.823 196.839 6.823C294.791 6.823 374.199 86.2269 374.199 184.179Z" fill="#6BC4E8"/>
<path d="M196.839 368.358C95.2845 368.358 12.6604 285.734 12.6604 184.179C12.6604 82.624 95.2845 0 196.839 0C298.394 0 381.018 82.624 381.018 184.179C381.018 285.734 298.394 368.358 196.839 368.358ZM196.839 13.6419C102.802 13.6419 26.3023 90.1417 26.3023 184.179C26.3023 278.212 102.802 354.716 196.839 354.716C290.873 354.716 367.376 278.212 367.376 184.179C367.376 90.1417 290.873 13.6419 196.839 13.6419V13.6419Z" fill="#1A428A"/>
<path d="M346.912 184.179C346.912 267.061 279.721 334.251 196.839 334.251C113.958 334.251 46.771 267.061 46.771 184.179C46.771 101.297 113.958 34.1067 196.839 34.1067C279.721 34.1067 346.912 101.297 346.912 184.179Z" fill="#D7E9FF"/>
<path d="M196.839 341.07C110.328 341.07 39.9441 270.691 39.9441 184.179C39.9441 97.6672 110.328 27.2876 196.839 27.2876C283.351 27.2876 353.731 97.6672 353.731 184.179C353.731 270.691 283.351 341.07 196.839 341.07V341.07ZM196.839 40.9295C117.849 40.9295 53.5899 105.193 53.5899 184.179C53.5899 263.165 117.849 327.428 196.839 327.428C275.829 327.428 340.089 263.165 340.089 184.179C340.089 105.193 275.829 40.9295 196.839 40.9295Z" fill="#1A428A"/>
<path d="M280.97 184.179C280.97 230.643 243.304 268.31 196.839 268.31C150.375 268.31 112.708 230.643 112.708 184.179C112.708 137.714 150.375 100.048 196.839 100.048C243.304 100.048 280.97 137.714 280.97 184.179Z" fill="#6BC4E8"/>
<path d="M196.839 275.129C146.686 275.129 105.89 234.328 105.89 184.179C105.89 134.03 146.686 93.2292 196.839 93.2292C246.988 93.2292 287.793 134.03 287.793 184.179C287.793 234.328 246.988 275.129 196.839 275.129ZM196.839 106.871C154.212 106.871 119.532 141.552 119.532 184.179C119.532 226.806 154.212 261.487 196.839 261.487C239.471 261.487 274.151 226.806 274.151 184.179C274.151 141.552 239.471 106.871 196.839 106.871V106.871Z" fill="#1A428A"/>
<path d="M135.445 191.002C131.678 191.002 128.626 187.949 128.626 184.179C128.626 165.092 136.702 146.754 150.785 133.858C153.564 131.305 157.877 131.504 160.418 134.276C162.963 137.063 162.776 141.372 159.996 143.917C148.728 154.233 142.268 168.909 142.268 184.175C142.268 187.949 139.212 191.002 135.445 191.002Z" fill="white"/>
<path d="M210.485 68.2132C210.485 75.7503 204.377 81.8589 196.839 81.8589C189.306 81.8589 183.198 75.7503 183.198 68.2132C183.198 60.6799 189.306 54.5713 196.839 54.5713C204.377 54.5713 210.485 60.6799 210.485 68.2132Z" fill="#6BC4E8"/>
<path d="M196.839 88.678C185.555 88.678 176.375 79.4976 176.375 68.2133C176.375 56.929 185.555 47.7485 196.839 47.7485C208.124 47.7485 217.304 56.929 217.304 68.2133C217.304 79.4976 208.124 88.678 196.839 88.678ZM196.839 61.3943C193.08 61.3943 190.016 64.4506 190.016 68.2133C190.016 71.9799 193.08 75.0362 196.839 75.0362C200.598 75.0362 203.662 71.9799 203.662 68.2133C203.662 64.4506 200.598 61.3943 196.839 61.3943Z" fill="#1A428A"/>
<path d="M212.757 300.145C212.757 307.678 206.648 313.786 199.115 313.786C191.578 313.786 185.469 307.678 185.469 300.145C185.469 292.607 191.578 286.499 199.115 286.499C206.648 286.499 212.757 292.607 212.757 300.145Z" fill="#6BC4E8"/>
<path d="M199.115 320.605C187.831 320.605 178.65 311.429 178.65 300.144C178.65 288.86 187.831 279.68 199.115 279.68C210.399 279.68 219.58 288.86 219.58 300.144C219.58 311.429 210.399 320.605 199.115 320.605ZM199.115 293.322C195.352 293.322 192.292 296.378 192.292 300.144C192.292 303.907 195.352 306.963 199.115 306.963C202.874 306.963 205.934 303.907 205.934 300.144C205.934 296.378 202.874 293.322 199.115 293.322Z" fill="#1A428A"/>
<path d="M95.6553 185.315C95.6553 192.852 89.5467 198.96 82.0134 198.96C74.4763 198.96 68.3677 192.852 68.3677 185.315C68.3677 177.781 74.4763 171.673 82.0134 171.673C89.5467 171.673 95.6553 177.781 95.6553 185.315Z" fill="#6BC4E8"/>
<path d="M82.0133 205.784C70.729 205.784 61.5486 196.603 61.5486 185.319C61.5486 174.034 70.729 164.854 82.0133 164.854C93.2976 164.854 102.478 174.034 102.478 185.319C102.478 196.603 93.2976 205.784 82.0133 205.784ZM82.0133 178.496C78.2545 178.496 75.1905 181.556 75.1905 185.319C75.1905 189.081 78.2545 192.138 82.0133 192.138C85.7722 192.138 88.8362 189.081 88.8362 185.319C88.8362 181.556 85.7722 178.496 82.0133 178.496Z" fill="#1A428A"/>
<path d="M327.583 183.043C327.583 190.576 321.474 196.685 313.941 196.685C306.407 196.685 300.299 190.576 300.299 183.043C300.299 175.506 306.407 169.397 313.941 169.397C321.474 169.397 327.583 175.506 327.583 183.043Z" fill="#6BC4E8"/>
<path d="M313.941 203.504C302.657 203.504 293.48 194.324 293.48 183.039C293.48 171.755 302.657 162.574 313.941 162.574C325.225 162.574 334.406 171.755 334.406 183.039C334.406 194.324 325.225 203.504 313.941 203.504V203.504ZM313.941 176.216C310.182 176.216 307.122 179.276 307.122 183.039C307.122 186.802 310.182 189.862 313.941 189.862C317.704 189.862 320.764 186.802 320.764 183.039C320.764 179.276 317.704 176.216 313.941 176.216Z" fill="#1A428A"/>
<path d="M288.816 91.7303C283.488 86.4024 274.85 86.4024 269.522 91.7303C264.194 97.0583 264.194 105.696 269.522 111.024C274.85 116.352 283.488 116.352 288.816 111.024C294.144 105.696 294.144 97.0583 288.816 91.7303Z" fill="#6BC4E8"/>
<path d="M279.171 121.84C273.706 121.84 268.565 119.709 264.701 115.845C256.723 107.863 256.723 94.8842 264.705 86.9059C272.43 79.1775 285.911 79.1775 293.644 86.9059C301.618 94.8842 301.622 107.863 293.644 115.845H293.64C289.776 119.709 284.639 121.84 279.171 121.84V121.84ZM279.171 94.5524C277.352 94.5524 275.638 95.2589 274.354 96.5509C271.692 99.209 271.692 103.542 274.35 106.196C276.926 108.784 281.419 108.784 283.991 106.196H283.995C286.653 103.538 286.653 99.209 283.995 96.5509C282.707 95.2589 280.993 94.5524 279.171 94.5524V94.5524Z" fill="#1A428A"/>
<path d="M126.424 257.334C121.097 252.006 112.459 252.006 107.131 257.334C101.803 262.662 101.803 271.299 107.131 276.627C112.459 281.955 121.097 281.955 126.424 276.627C131.752 271.299 131.752 262.662 126.424 257.334Z" fill="#6BC4E8"/>
<path d="M116.784 287.432C111.542 287.432 106.303 285.441 102.314 281.452C94.3321 273.47 94.3321 260.491 102.314 252.513C110.289 244.531 123.271 244.523 131.253 252.513C139.227 260.491 139.227 273.47 131.257 281.452C131.253 281.452 131.253 281.452 131.253 281.452C127.264 285.441 122.022 287.432 116.784 287.432ZM126.429 276.628H126.495H126.429ZM116.784 260.168C115.035 260.168 113.29 260.827 111.959 262.158C109.301 264.816 109.301 269.149 111.959 271.803C114.621 274.469 118.946 274.469 121.608 271.803C124.266 269.145 124.262 264.816 121.604 262.158C120.277 260.827 118.528 260.168 116.784 260.168V260.168Z" fill="#1A428A"/>
<path d="M124.82 93.3346C119.492 88.0066 110.854 88.0066 105.526 93.3346C100.199 98.6625 100.199 107.3 105.526 112.628C110.854 117.956 119.492 117.956 124.82 112.628C130.148 107.3 130.148 98.6625 124.82 93.3346Z" fill="#6BC4E8"/>
<path d="M115.172 123.44C109.933 123.44 104.691 121.446 100.706 117.464C92.7239 109.474 92.7239 96.4922 100.698 88.51C108.673 80.524 121.655 80.524 129.645 88.51C137.627 96.4922 137.627 109.474 129.645 117.457C125.656 121.442 120.41 123.44 115.172 123.44ZM115.175 96.1682C113.427 96.1682 111.678 96.8279 110.347 98.1589C107.689 100.817 107.689 105.154 110.351 107.812C113.005 110.47 117.342 110.462 120 107.804C122.658 105.146 122.658 100.821 119.996 98.1589C118.669 96.824 116.92 96.1682 115.175 96.1682Z" fill="#1A428A"/>
<path d="M290.424 255.725C285.096 250.398 276.458 250.398 271.13 255.725C265.802 261.053 265.802 269.691 271.13 275.019C276.458 280.347 285.096 280.347 290.424 275.019C295.751 269.691 295.751 261.053 290.424 255.725V255.725Z" fill="#6BC4E8"/>
<path d="M280.779 285.827C275.541 285.827 270.298 283.833 266.309 279.844C258.331 271.862 258.331 258.879 266.305 250.897C274.295 242.931 287.274 242.939 295.248 250.893C295.252 250.897 295.252 250.897 295.252 250.897C303.234 258.879 303.234 271.862 295.252 279.844C291.259 283.837 286.021 285.827 280.779 285.827ZM280.779 258.555C279.034 258.555 277.285 259.223 275.95 260.554C273.296 263.204 273.296 267.541 275.958 270.199C278.62 272.869 282.945 272.857 285.603 270.199C288.265 267.541 288.265 263.208 285.603 260.546C284.276 259.223 282.527 258.555 280.779 258.555V258.555Z" fill="#1A428A"/>
<path d="M170.223 146.481C170.223 145.763 170.703 145.291 171.414 145.291H201.594C218.772 145.291 226.879 153.878 226.879 166.88C226.879 176.068 222.589 181.31 217.46 184.054V184.292C222.472 186.205 228.311 192.645 228.311 202.544C228.311 218.645 218.175 226.4 200.399 226.4H171.414C170.703 226.4 170.223 225.92 170.223 225.206V146.481ZM201.238 179.042C208.393 179.042 212.812 174.753 212.812 168.429C212.812 161.989 208.393 157.691 201.238 157.691H185.013C184.536 157.691 184.298 157.93 184.298 158.406V178.328C184.298 178.8 184.536 179.042 185.013 179.042H201.238ZM185.013 213.996H201.953C209.826 213.996 214.236 209.46 214.236 202.665C214.236 195.982 209.826 191.447 201.953 191.447H185.013C184.536 191.447 184.298 191.685 184.298 192.165V213.274C184.298 213.758 184.536 213.996 185.013 213.996Z" fill="#1A428A"/>
<path d="M192.292 156.891C188.525 156.891 185.469 153.843 185.469 150.072V136.431C185.469 132.66 188.525 129.608 192.292 129.608C196.059 129.608 199.115 132.66 199.115 136.431V150.072C199.115 153.843 196.059 156.891 192.292 156.891Z" fill="#1A428A"/>
<path d="M192.292 238.75C188.525 238.75 185.469 235.698 185.469 231.928V225.109C185.469 221.338 188.525 218.286 192.292 218.286C196.059 218.286 199.115 221.338 199.115 225.109V231.928C199.115 235.698 196.059 238.75 192.292 238.75Z" fill="#1A428A"/>
<path d="M328.723 382C324.952 382 321.9 378.947 321.9 375.177V347.893C321.9 344.123 324.952 341.07 328.723 341.07C332.489 341.07 335.542 344.123 335.542 347.893V375.177C335.542 378.947 332.489 382 328.723 382Z" fill="#1A428A"/>
<path d="M342.364 368.358H315.077C311.31 368.358 308.258 365.306 308.258 361.535C308.258 357.765 311.31 354.716 315.077 354.716H342.364C346.131 354.716 349.187 357.765 349.187 361.535C349.187 365.306 346.131 368.358 342.364 368.358V368.358Z" fill="#1A428A"/>
<path d="M21.755 47.7486C17.9884 47.7486 14.936 44.7002 14.936 40.9296V13.642C14.936 9.87144 17.9884 6.823 21.755 6.823C25.5256 6.823 28.5779 9.87144 28.5779 13.642V40.9296C28.5779 44.7002 25.5256 47.7486 21.755 47.7486Z" fill="#1A428A"/>
<path d="M35.4008 34.1067H8.11317C4.34653 34.1067 1.29419 31.0583 1.29419 27.2877C1.29419 23.5172 4.34653 20.4648 8.11317 20.4648H35.4008C39.1675 20.4648 42.2198 23.5172 42.2198 27.2877C42.2198 31.0583 39.1675 34.1067 35.4008 34.1067Z" fill="#1A428A"/>
</svg>
