<svg width="389" height="389" viewBox="0 0 389 389" fill="none" xmlns="http://www.w3.org/2000/svg">
<g clip-path="url(#clip0_1_1209)">
<path d="M95.4957 6.82593H314.264V382.174H54.9302V47.7741L95.4957 6.82593Z" fill="#2A8EE6"/>
<path d="M314.263 389H54.93C51.1616 389 48.104 385.946 48.104 382.174V47.7742C48.104 45.974 48.8147 44.248 50.08 42.9671L90.6455 2.02281C91.9302 0.726336 93.6719 0 95.4955 0H314.263C318.032 0 321.09 3.05374 321.09 6.826V382.174C321.09 385.946 318.032 389 314.263 389ZM61.756 375.352H307.437V13.6481H98.3384L61.756 50.578V375.352Z" fill="#1A428A"/>
<path fill-rule="evenodd" clip-rule="evenodd" d="M334.738 382.174H314.263V6.82617L334.738 20.4743V382.174Z" fill="#1A428A"/>
<path d="M334.738 389H314.264C310.495 389 307.438 385.947 307.438 382.174V6.82605C307.438 4.3073 308.824 1.99552 311.042 0.80839C313.256 -0.386551 315.95 -0.24597 318.047 1.14813L338.522 14.7962C340.423 16.0654 341.56 18.1975 341.56 20.4742V382.174C341.56 385.947 338.506 389 334.738 389V389ZM321.09 375.352H327.912V24.1293L321.09 19.576V375.352Z" fill="#1A428A"/>
<path d="M252.841 68.2445H102.7C98.9319 68.2445 95.8782 65.1947 95.8782 61.4224C95.8782 57.6502 98.9319 54.5964 102.7 54.5964H252.841C256.609 54.5964 259.667 57.6502 259.667 61.4224C259.667 65.1947 256.609 68.2445 252.841 68.2445Z" fill="#1A428A"/>
<path d="M252.841 136.493H102.7C98.9319 136.493 95.8782 133.439 95.8782 129.667C95.8782 125.895 98.9319 122.845 102.7 122.845H252.841C256.609 122.845 259.667 125.895 259.667 129.667C259.667 133.439 256.609 136.493 252.841 136.493Z" fill="#1A428A"/>
<path d="M164.123 102.371H102.7C98.9319 102.371 95.8782 99.3168 95.8782 95.5445C95.8782 91.7722 98.9319 88.7185 102.7 88.7185H164.123C167.891 88.7185 170.949 91.7722 170.949 95.5445C170.949 99.3168 167.891 102.371 164.123 102.371Z" fill="#1A428A"/>
<path d="M164.123 170.615H102.7C98.9319 170.615 95.8782 167.561 95.8782 163.789C95.8782 160.017 98.9319 156.967 102.7 156.967H164.123C167.891 156.967 170.949 160.017 170.949 163.789C170.949 167.561 167.891 170.615 164.123 170.615Z" fill="#1A428A"/>
<path d="M252.841 102.371H191.423C187.654 102.371 184.597 99.3168 184.597 95.5445C184.597 91.7722 187.654 88.7185 191.423 88.7185H252.841C256.609 88.7185 259.667 91.7722 259.667 95.5445C259.667 99.3168 256.609 102.371 252.841 102.371Z" fill="#1A428A"/>
<path d="M54.9302 218.385H232.367V327.578H54.9302V218.385Z" fill="#6BC4E8"/>
<path d="M232.367 334.404H54.93C51.1616 334.404 48.104 331.35 48.104 327.578V218.385C48.104 214.613 51.1616 211.563 54.93 211.563H232.367C236.139 211.563 239.193 214.613 239.193 218.385V327.578C239.193 331.35 236.139 334.404 232.367 334.404ZM61.756 320.756H225.545V225.211H61.756V320.756Z" fill="#1A428A"/>
<path d="M107.339 244.924C108.406 244.924 109.487 244.963 110.581 245.045C111.67 245.123 112.658 245.353 113.537 245.724C114.415 246.095 115.138 246.665 115.696 247.423C116.259 248.181 116.536 249.243 116.536 250.602C116.536 251.961 116.259 253.019 115.696 253.78C115.138 254.538 114.419 255.104 113.537 255.479C112.658 255.854 111.67 256.081 110.581 256.159C109.487 256.237 108.406 256.28 107.339 256.28H97.8229V267.155H102.864C103.93 267.155 105 267.19 106.082 267.257C107.164 267.323 108.12 267.534 108.96 267.893C109.804 268.256 110.491 268.799 111.022 269.533C111.553 270.268 111.822 271.287 111.822 272.595C111.822 273.927 111.557 274.954 111.022 275.672C110.487 276.395 109.8 276.933 108.96 277.293C108.124 277.652 107.164 277.867 106.082 277.933C105 277.999 103.93 278.035 102.864 278.035H97.8229V289.551H107.339C108.406 289.551 109.487 289.59 110.581 289.668C111.67 289.75 112.658 289.968 113.537 290.328C114.415 290.691 115.138 291.249 115.696 292.007C116.259 292.768 116.536 293.815 116.536 295.147C116.536 296.533 116.251 297.611 115.677 298.384C115.103 299.157 114.376 299.731 113.498 300.106C112.619 300.477 111.631 300.707 110.542 300.785C109.448 300.863 108.382 300.903 107.339 300.903H91.6646C90.1729 300.903 89.017 300.637 88.2087 300.102C87.3964 299.571 86.8029 298.868 86.428 298.005C86.0531 297.138 85.8344 296.158 85.768 295.064C85.7016 293.971 85.6665 292.854 85.6665 291.706V254.116C85.6665 252.972 85.7016 251.851 85.768 250.758C85.8344 249.665 86.0531 248.684 86.428 247.817C86.8029 246.951 87.3925 246.252 88.2087 245.72C89.0209 245.189 90.1729 244.92 91.6646 244.92H107.339V244.924Z" fill="#1A428A"/>
<path d="M149.327 244.924C150.393 244.924 151.467 244.963 152.548 245.045C153.626 245.123 154.606 245.353 155.489 245.724C156.367 246.095 157.082 246.665 157.625 247.423C158.171 248.181 158.445 249.243 158.445 250.602C158.445 251.933 158.171 252.98 157.625 253.741C157.082 254.499 156.367 255.065 155.489 255.44C154.606 255.815 153.626 256.045 152.548 256.139C151.467 256.233 150.393 256.28 149.327 256.28H145.25V291.788C145.25 292.932 145.215 294.053 145.148 295.147C145.082 296.24 144.859 297.212 144.488 298.067C144.113 298.919 143.516 299.606 142.688 300.125C141.86 300.645 140.689 300.906 139.17 300.906C137.65 300.906 136.475 300.645 135.651 300.125C134.827 299.606 134.226 298.919 133.851 298.067C133.476 297.212 133.257 296.24 133.191 295.147C133.125 294.053 133.089 292.932 133.089 291.788V256.28H129.013C127.946 256.28 126.873 256.233 125.791 256.139C124.713 256.045 123.733 255.815 122.85 255.44C121.972 255.065 121.257 254.499 120.71 253.741C120.168 252.98 119.894 251.933 119.894 250.602C119.894 249.243 120.168 248.181 120.71 247.423C121.257 246.665 121.972 246.099 122.85 245.724C123.733 245.349 124.713 245.123 125.791 245.045C126.873 244.967 127.946 244.924 129.013 244.924H149.327Z" fill="#1A428A"/>
<path d="M164.603 254.124C164.603 252.976 164.654 251.859 164.763 250.762C164.869 249.668 165.13 248.692 165.544 247.825C165.954 246.958 166.563 246.259 167.36 245.724C168.161 245.193 169.266 244.924 170.679 244.924C172.066 244.924 173.167 245.193 173.979 245.724C174.795 246.259 175.404 246.958 175.818 247.825C176.232 248.688 176.494 249.668 176.599 250.762C176.705 251.859 176.759 252.976 176.759 254.124V266.679H187.717V254.124C187.717 252.976 187.768 251.859 187.877 250.762C187.982 249.668 188.244 248.692 188.654 247.825C189.068 246.958 189.677 246.259 190.474 245.724C191.274 245.193 192.38 244.924 193.793 244.924C195.179 244.924 196.281 245.193 197.093 245.724C197.905 246.259 198.518 246.958 198.932 247.825C199.346 248.688 199.604 249.668 199.713 250.762C199.819 251.859 199.873 252.976 199.873 254.124V291.71C199.873 292.885 199.819 294.018 199.713 295.111C199.604 296.201 199.346 297.181 198.932 298.048C198.518 298.915 197.905 299.61 197.093 300.129C196.281 300.649 195.179 300.91 193.793 300.91C192.38 300.91 191.274 300.649 190.474 300.129C189.677 299.61 189.068 298.915 188.654 298.048C188.244 297.181 187.982 296.205 187.877 295.111C187.772 294.014 187.717 292.882 187.717 291.71V278.437H176.759V291.71C176.759 292.885 176.705 294.018 176.599 295.111C176.49 296.205 176.232 297.181 175.818 298.048C175.404 298.915 174.791 299.61 173.979 300.129C173.167 300.649 172.066 300.91 170.679 300.91C169.266 300.91 168.161 300.649 167.36 300.129C166.563 299.61 165.954 298.915 165.544 298.048C165.13 297.181 164.869 296.205 164.763 295.111C164.658 294.014 164.603 292.882 164.603 291.71V254.124Z" fill="#1A428A"/>
<path d="M307.438 122.845C303.669 122.845 300.615 119.791 300.615 116.019V88.7186C300.615 84.9463 303.669 81.8965 307.438 81.8965C311.206 81.8965 314.264 84.9463 314.264 88.7186V116.019C314.264 119.791 311.206 122.845 307.438 122.845Z" fill="white"/>
<path d="M321.089 109.193H293.789C290.021 109.193 286.963 106.143 286.963 102.37C286.963 98.5982 290.021 95.5444 293.789 95.5444H321.089C324.858 95.5444 327.912 98.5982 327.912 102.37C327.912 106.143 324.858 109.193 321.089 109.193Z" fill="white"/>
<path d="M293.79 34.1222H239.193C235.425 34.1222 232.367 31.0724 232.367 27.3001C232.367 23.5279 235.425 20.4741 239.193 20.4741H293.79C297.558 20.4741 300.616 23.5279 300.616 27.3001C300.616 31.0724 297.558 34.1222 293.79 34.1222Z" fill="white"/>
</g>
<defs>
<clipPath id="clip0_1_1209">
<rect width="389" height="389" fill="white"/>
</clipPath>
</defs>
</svg>
