<svg width="410" height="410" viewBox="0 0 410 410" fill="none" xmlns="http://www.w3.org/2000/svg">
<g clip-path="url(#clip0_1_1228)">
<path d="M402.773 204.801C402.773 314.137 314.137 402.773 204.801 402.773C95.4609 402.773 6.82812 314.137 6.82812 204.801C6.82812 95.4609 95.4609 6.82812 204.801 6.82812C314.137 6.82812 402.773 95.4609 402.773 204.801Z" fill="#2A8EE6"/>
<path d="M204.801 409.602C91.875 409.602 0 317.727 0 204.801C0 91.875 91.875 0 204.801 0C317.727 0 409.602 91.875 409.602 204.801C409.602 317.727 317.727 409.602 204.801 409.602ZM204.801 13.6523C99.3984 13.6523 13.6523 99.3984 13.6523 204.801C13.6523 310.199 99.3984 395.945 204.801 395.945C310.199 395.945 395.945 310.199 395.945 204.801C395.945 99.3984 310.199 13.6523 204.801 13.6523V13.6523Z" fill="#1A428A"/>
<path d="M382.293 204.801C382.293 302.828 302.828 382.293 204.801 382.293C106.773 382.293 27.3086 302.828 27.3086 204.801C27.3086 106.773 106.773 27.3086 204.801 27.3086C302.828 27.3086 382.293 106.773 382.293 204.801V204.801Z" fill="#D7E9FF"/>
<path d="M204.801 389.121C103.168 389.121 20.4805 306.434 20.4805 204.801C20.4805 103.168 103.168 20.4805 204.801 20.4805C306.434 20.4805 389.121 103.168 389.121 204.801C389.121 306.434 306.434 389.121 204.801 389.121V389.121ZM204.801 34.1328C110.691 34.1328 34.1328 110.691 34.1328 204.801C34.1328 298.906 110.691 375.465 204.801 375.465C298.906 375.465 375.465 298.906 375.465 204.801C375.465 110.691 298.906 34.1328 204.801 34.1328V34.1328Z" fill="#1A428A"/>
<path d="M62.1406 145.949C61.1875 145.949 60.2148 145.746 59.2852 145.32C55.8672 143.742 54.3672 139.688 55.9453 136.262C65.0664 116.465 77.875 98.9142 94 84.1056C96.7812 81.5665 101.086 81.7306 103.645 84.5118C106.199 87.2931 106.012 91.6134 103.238 94.1603C88.4453 107.738 76.707 123.824 68.3477 141.981C67.1914 144.473 64.7266 145.949 62.1406 145.949Z" fill="white"/>
<path d="M204.801 361.812C110.215 361.812 32.9297 287.82 27.6211 194.559C27.4297 197.949 27.3086 201.359 27.3086 204.801C27.3086 302.828 106.773 382.293 204.801 382.293C302.828 382.293 382.293 302.828 382.293 204.801C382.293 201.359 382.172 197.949 381.977 194.559C376.668 287.82 299.387 361.812 204.801 361.812V361.812Z" fill="#1A428A"/>
<path d="M204.801 389.121C103.168 389.121 20.4805 306.434 20.4805 204.801C20.4805 201.227 20.6055 197.688 20.8047 194.172C21.0117 190.559 24 187.734 27.6172 187.734C31.2383 187.734 34.2266 190.559 34.4336 194.172C39.5664 284.348 114.398 354.988 204.801 354.988C295.199 354.988 370.031 284.348 375.168 194.172C375.371 190.559 378.359 187.734 381.98 187.734C385.598 187.734 388.586 190.559 388.793 194.172C388.992 197.688 389.117 201.227 389.117 204.801C389.121 306.434 306.434 389.121 204.801 389.121ZM73.168 313.312C104.492 351.254 151.871 375.465 204.801 375.465C257.727 375.465 305.105 351.254 336.434 313.312C302.887 347.52 256.176 368.641 204.801 368.641C153.426 368.641 106.711 347.52 73.168 313.312V313.312Z" fill="#1A428A"/>
<path d="M204.801 245.762C204.246 245.762 203.688 245.695 203.145 245.555L121.227 225.074C119.234 224.582 117.574 223.215 116.699 221.352C115.828 219.5 115.84 217.348 116.727 215.5L198.649 44.832C199.793 42.418 202.293 41.0273 204.914 40.957C207.582 41.0039 209.977 42.5977 211.047 45.0391L286.141 215.707C286.941 217.52 286.914 219.598 286.055 221.391C285.199 223.188 283.606 224.52 281.688 225.039L206.594 245.52C206.008 245.68 205.406 245.762 204.801 245.762ZM132.66 213.859L204.727 231.883L270.453 213.953L204.535 64.1289L132.66 213.859Z" fill="#1A428A"/>
<path d="M204.801 361.813C202.406 361.813 200.18 360.563 198.945 358.5L117.027 221.969C115.086 218.734 116.133 214.539 119.367 212.602C122.606 210.652 126.793 211.707 128.731 214.941L204.539 341.289L273.91 215.168C275.723 211.859 279.887 210.668 283.18 212.477C286.484 214.289 287.691 218.441 285.871 221.742L210.777 358.277C209.605 360.422 207.371 361.77 204.926 361.816C204.887 361.813 204.84 361.813 204.801 361.813V361.813Z" fill="#1A428A"/>
<path d="M204.801 361.812C201.027 361.812 197.973 358.762 197.973 354.988V61.4414C197.973 57.668 201.027 54.6133 204.801 54.6133C208.574 54.6133 211.625 57.668 211.625 61.4414V354.988C211.625 358.762 208.574 361.812 204.801 361.812Z" fill="#1A428A"/>
<path d="M286.719 116.055C282.945 116.055 279.895 113 279.895 109.227V81.9219C279.895 78.1484 282.945 75.0938 286.719 75.0938C290.492 75.0938 293.547 78.1484 293.547 81.9219V109.227C293.547 113 290.492 116.055 286.719 116.055Z" fill="white"/>
<path d="M300.375 102.398H273.066C269.293 102.398 266.238 99.3477 266.238 95.5742C266.238 91.8008 269.293 88.7461 273.066 88.7461H300.375C304.148 88.7461 307.199 91.8008 307.199 95.5742C307.199 99.3477 304.148 102.398 300.375 102.398Z" fill="white"/>
</g>
<defs>
<clipPath id="clip0_1_1228">
<rect width="409.6" height="409.6" fill="white"/>
</clipPath>
</defs>
</svg>
