<svg width="443" height="443" viewBox="0 0 443 443" fill="none" xmlns="http://www.w3.org/2000/svg">
<g clip-path="url(#clip0_1_1242)">
<path d="M371.626 230.018C371.626 311.886 305.26 378.253 223.391 378.253C141.523 378.253 75.1563 311.886 75.1563 230.018C75.1563 148.153 141.523 81.7864 223.391 81.7864C305.26 81.7864 371.626 148.153 371.626 230.018V230.018Z" fill="#6BC4E8"/>
<path d="M223.391 385.07C137.896 385.07 68.3395 315.513 68.3395 230.018C68.3395 144.526 137.896 74.9697 223.391 74.9697C308.883 74.9697 378.439 144.526 378.439 230.018C378.439 315.513 308.883 385.07 223.391 385.07V385.07ZM223.391 88.5995C145.411 88.5995 81.9693 152.041 81.9693 230.018C81.9693 307.998 145.411 371.44 223.391 371.44C301.368 371.44 364.81 307.998 364.81 230.018C364.81 152.041 301.368 88.5995 223.391 88.5995V88.5995Z" fill="#1A428A"/>
<path fill-rule="evenodd" clip-rule="evenodd" d="M81.0372 188.695C93.8012 191.398 105.766 195.543 108.932 201.873C116.436 216.883 131.446 216.883 146.456 201.873C161.47 186.863 183.984 171.852 161.47 149.335C150.231 138.099 146.538 119.56 145.657 103.801C114.731 122.886 91.3795 153.02 81.0372 188.695Z" fill="white"/>
<path d="M124.836 219.945C123.596 219.945 122.371 219.843 121.162 219.648C115.722 218.763 108.125 215.495 102.833 204.919C102.568 204.388 99.6587 199.603 79.6294 195.364C77.7731 194.97 76.1664 193.828 75.1953 192.201C74.2204 190.571 73.963 188.617 74.4934 186.796C85.2061 149.826 109.205 118.292 142.073 98.0058C144.116 96.7266 146.675 96.6525 148.808 97.7601C150.937 98.8676 152.322 101.02 152.462 103.423C153.199 116.6 156.202 134.43 166.287 144.515C174.16 152.388 177.931 160.188 177.811 168.362C177.608 181.801 166.634 192.127 156.958 201.241C155.016 203.062 153.09 204.88 151.276 206.689C142.634 215.339 133.384 219.945 124.836 219.945ZM89.7493 183.762C103.676 187.479 111.779 192.33 115.024 198.827C117.196 203.171 119.996 205.656 123.346 206.194C128.365 206.993 135.018 203.671 141.636 197.057C143.543 195.146 145.571 193.243 147.611 191.32C155.699 183.704 164.06 175.83 164.177 168.155C164.239 163.862 161.782 159.283 156.65 154.151C148.004 145.505 142.42 132.648 139.99 115.816C116.677 132.847 99.1713 156.495 89.7493 183.762Z" fill="#1A428A"/>
<path fill-rule="evenodd" clip-rule="evenodd" d="M183.984 344.477C183.984 344.477 198.998 299.446 183.984 291.939C168.974 284.435 153.963 291.939 146.456 269.425C138.953 246.908 146.456 239.401 168.974 231.897C191.491 224.39 221.512 231.897 229.019 261.918C236.526 291.939 221.516 306.953 214.008 336.974C208.549 358.816 183.984 344.477 183.984 344.477V344.477Z" fill="white"/>
<path d="M199.739 355.911C190.403 355.911 181.765 351.071 180.548 350.361C177.764 348.735 176.5 345.381 177.518 342.328C184.261 322.049 185.922 300.522 180.938 298.034C176.968 296.049 172.842 295.324 168.478 294.551C158.624 292.816 146.355 290.652 139.99 271.578C130.658 243.577 142.759 233.453 166.817 225.435C182.011 220.362 198.916 221.641 212.063 228.855C223.984 235.399 232.131 246.26 235.629 260.272C241.26 282.782 235.251 298.061 228.894 314.234C225.954 321.71 222.92 329.435 220.615 338.627C218.201 348.314 212.636 352.479 208.397 354.261C205.577 355.451 202.625 355.911 199.739 355.911V355.911ZM183.984 344.477H184.05H183.984ZM192.279 340.776C195.757 342.02 200.125 342.967 203.12 341.696C203.861 341.372 206.123 340.417 207.394 335.324C209.906 325.27 213.252 316.757 216.208 309.25C222.225 293.939 226.975 281.854 222.413 263.571C219.815 253.202 214.125 245.539 205.503 240.808C195.637 235.395 182.779 234.487 171.13 238.359C150.056 245.387 147.162 249.977 152.922 267.264C156.717 278.64 161.736 279.522 170.842 281.128C175.74 281.994 181.285 282.973 187.03 285.839C203.436 294.044 196.865 325.056 192.279 340.776V340.776Z" fill="#1A428A"/>
<path d="M296.657 368.031C296.657 405.672 266.141 436.184 228.5 436.184C190.863 436.184 160.347 405.672 160.347 368.031C160.347 330.391 190.863 299.879 228.5 299.879C266.141 299.879 296.657 330.391 296.657 368.031Z" fill="#1A428A"/>
<path d="M228.5 443.001C187.162 443.001 153.534 409.369 153.534 368.031C153.534 326.694 187.162 293.062 228.5 293.062C269.842 293.062 303.47 326.694 303.47 368.031C303.47 409.369 269.842 443.001 228.5 443.001V443.001ZM228.5 306.692C194.681 306.692 167.164 334.205 167.164 368.031C167.164 401.854 194.681 429.367 228.5 429.367C262.327 429.367 289.84 401.854 289.84 368.031C289.84 334.205 262.327 306.692 228.5 306.692Z" fill="#1A428A"/>
<path d="M296.657 74.9697C296.657 112.611 266.141 143.122 228.5 143.122C190.863 143.122 160.347 112.611 160.347 74.9697C160.347 37.3289 190.863 6.81689 228.5 6.81689C266.141 6.81689 296.657 37.3289 296.657 74.9697Z" fill="#1A428A"/>
<path d="M228.5 149.939C187.162 149.939 153.534 116.307 153.534 74.9696C153.534 33.6318 187.162 0 228.5 0C269.842 0 303.47 33.6318 303.47 74.9696C303.47 116.307 269.842 149.939 228.5 149.939V149.939ZM228.5 13.6298C194.681 13.6298 167.164 41.1428 167.164 74.9696C167.164 108.793 194.681 136.31 228.5 136.31C262.327 136.31 289.84 108.793 289.84 74.9696C289.84 41.1428 262.327 13.6298 228.5 13.6298Z" fill="#1A428A"/>
<path fill-rule="evenodd" clip-rule="evenodd" d="M300.093 103.154C277.692 125.059 253.346 152.439 266.547 156.842C289.064 164.345 304.074 171.852 304.074 171.852C304.074 171.852 296.567 194.37 274.054 194.37C251.536 194.37 221.516 194.37 221.516 201.873C221.516 209.38 266.547 239.401 266.547 246.908C266.547 254.411 276.249 286.631 281.557 291.939C289.064 299.446 311.581 306.949 319.085 276.928C326.592 246.908 319.085 224.39 334.095 216.883C342.487 212.687 353.219 192.268 361.058 175.066C349.043 144.987 327.489 119.751 300.093 103.154V103.154Z" fill="white"/>
<path d="M297.928 305.475C289.407 305.475 281.389 301.407 276.741 296.763C269.846 289.868 260.482 258.053 259.769 248.004C257.593 244.56 246.864 235.629 239.677 229.635C221.172 214.212 214.699 208.249 214.699 201.873C214.699 188.216 236.144 187.553 274.054 187.553C285.168 187.553 291.657 180.381 294.925 175.112C288.623 172.309 277.84 167.789 264.39 163.304C260.127 161.884 257.261 158.85 256.321 154.763C254.617 147.362 257.92 134.863 295.331 98.2787C297.562 96.1026 300.962 95.7205 303.63 97.3194C332.309 114.697 354.951 141.414 367.391 172.543C368.085 174.274 368.039 176.201 367.267 177.901C351.375 212.757 342.468 220.319 337.148 222.979C331.611 225.747 330.928 232.623 330.008 246.674C329.435 255.518 328.717 266.52 325.695 278.582C321.222 296.49 311.808 302.601 304.698 304.57C302.44 305.194 300.163 305.475 297.928 305.475ZM230.485 203.39C234.564 207.637 242.625 214.344 248.401 219.165C266.894 234.573 273.359 240.528 273.359 246.904C273.359 253.206 282.54 282.864 286.404 287.15C289.099 289.848 295.436 292.995 301.056 291.432C307.604 289.614 310.879 281.639 312.474 275.279C315.193 264.402 315.836 254.512 316.409 245.788C317.408 230.431 318.273 217.176 331.053 210.784C332.363 210.133 339.477 205.351 353.629 174.917C342.768 149.292 324.275 127.122 301.036 111.803C275.344 137.44 270.653 147.654 269.807 150.743C291.946 158.211 306.508 165.437 307.124 165.753C310.162 167.27 311.62 170.784 310.54 174.005C310.174 175.116 301.169 201.179 274.054 201.179C262.311 201.179 239.665 201.179 230.485 203.39V203.39ZM269.627 151.842H269.694H269.627Z" fill="#1A428A"/>
<path d="M221.687 415.738L221.169 402.1L221.945 402.116C232.689 402.108 243.702 401.051 254.43 398.965L257.027 412.345C245.453 414.595 233.562 415.738 221.687 415.738ZM199.548 414.42C187.599 412.984 175.755 410.36 164.341 406.62L168.58 393.669C179.148 397.128 190.111 399.557 201.17 400.883L199.548 414.42ZM278.028 406.955L273.859 393.977C284.427 390.576 294.73 386.103 304.476 380.679L311.106 392.589C300.584 398.446 289.454 403.282 278.028 406.955V406.955ZM144.19 398.68C133.314 393.622 122.87 387.452 113.148 380.335L121.193 369.342C130.198 375.925 139.87 381.642 149.935 386.314L144.19 398.68ZM329.376 380.955L321.385 369.907C330.406 363.395 338.825 355.954 346.418 347.799L356.394 357.089C348.197 365.887 339.114 373.92 329.376 380.955V380.955ZM96.4531 366.546C87.6474 358.368 79.6099 349.281 72.5591 339.551L83.6033 331.553C90.1315 340.569 97.5762 348.981 105.731 356.562L96.4531 366.546ZM370.195 340.401L359.198 332.348C365.781 323.363 371.506 313.7 376.205 303.623L388.556 309.386C383.478 320.271 377.301 330.699 370.195 340.401ZM60.9065 321.292C55.0373 310.786 50.1937 299.656 46.5123 288.23L59.4869 284.049C62.8915 294.626 67.3762 304.921 72.8047 314.651L60.9065 321.292ZM396.531 289.24L383.575 284.981C387.046 274.44 389.48 263.486 390.825 252.41L404.361 254.048C402.907 266.013 400.27 277.853 396.531 289.24ZM41.0994 267.245C38.8258 255.624 37.6715 243.671 37.6715 231.722L51.3052 231.379L51.2974 231.909C51.3013 242.79 52.3698 253.861 54.4757 264.621L41.0994 267.245ZM392.065 232.416L392.069 231.523C392.069 220.541 390.977 209.361 388.828 198.5L402.209 195.848C404.525 207.59 405.703 219.656 405.703 231.722L392.065 232.416ZM52.5063 211.369L38.9701 209.762C40.3936 197.805 43.0025 185.958 46.7307 174.547L59.6897 178.778C56.2384 189.339 53.8205 200.309 52.5063 211.369ZM383.786 179.079C380.358 168.495 375.854 158.207 370.402 148.496L382.289 141.828C388.181 152.322 393.044 163.437 396.753 174.871L383.786 179.079ZM67.0331 160.122L54.6668 154.385C59.7131 143.505 65.8748 133.049 72.9724 123.323L83.9816 131.365C77.4065 140.369 71.7089 150.045 67.0331 160.122ZM359.58 131.614C353.028 122.61 345.568 114.217 337.394 106.656L346.648 96.6487C355.474 104.815 363.531 113.878 370.601 123.604L359.58 131.614ZM96.7378 115.894L86.7387 106.628C94.9049 97.8187 103.98 89.7695 113.714 82.7031L121.72 93.7395C112.704 100.279 104.299 107.736 96.7378 115.894ZM321.908 93.9228C312.88 87.3477 303.205 81.6579 293.128 76.9977L298.849 64.6314C309.725 69.6582 320.188 75.8082 329.93 82.9019L321.908 93.9228ZM138.614 82.9292L131.957 71.031C142.467 65.154 153.585 60.3026 165.011 56.6056L169.204 69.5724C158.631 72.9926 148.34 77.4851 138.614 82.9292ZM274.471 69.6777C263.91 66.2381 252.94 63.8358 241.873 62.5294L243.471 48.9932C255.424 50.405 267.28 53.0022 278.69 56.7148L274.471 69.6777ZM188.617 64.5456L185.988 51.1693C197.661 48.8723 209.672 47.7063 221.687 47.7063L221.859 61.34H221.687C210.557 61.34 199.431 62.4163 188.617 64.5456Z" fill="#1A428A"/>
<path d="M289.84 368.031C289.84 405.672 259.328 436.184 221.687 436.184C184.046 436.184 153.534 405.672 153.534 368.031C153.534 330.391 184.046 299.879 221.687 299.879C259.328 299.879 289.84 330.391 289.84 368.031Z" fill="#D7E9FF"/>
<path d="M221.687 443.001C180.349 443.001 146.718 409.369 146.718 368.031C146.718 326.694 180.349 293.062 221.687 293.062C263.025 293.062 296.657 326.694 296.657 368.031C296.657 409.369 263.025 443.001 221.687 443.001ZM221.687 306.692C187.864 306.692 160.347 334.205 160.347 368.031C160.347 401.854 187.864 429.367 221.687 429.367C255.51 429.367 283.023 401.854 283.023 368.031C283.023 334.205 255.51 306.692 221.687 306.692Z" fill="#1A428A"/>
<path d="M177.881 355.911C176.976 355.911 176.06 355.731 175.178 355.353C171.723 353.856 170.136 349.843 171.633 346.388C177.038 333.9 186.839 323.944 199.224 318.34C202.656 316.784 206.692 318.321 208.241 321.741C209.793 325.169 208.268 329.209 204.84 330.761C195.551 334.957 188.196 342.433 184.14 351.804C183.029 354.374 180.517 355.911 177.881 355.911V355.911Z" fill="white"/>
<path d="M239.677 398.941C236.51 401.082 231.191 403.235 224.444 403.235C216.165 403.235 208.802 400.068 203.697 394.137C199.809 389.843 197.255 383.911 196.335 376.553H189.994V371.545H195.824C195.824 371.034 195.824 370.52 195.824 370.009C195.824 368.371 195.925 366.842 196.027 365.411H189.994V360.298H196.744C197.969 353.146 201.038 347.214 205.125 343.018C210.339 337.601 216.988 334.536 225.369 334.536C231.398 334.536 236.101 336.279 238.963 337.808L236.912 344.559C234.358 343.022 230.072 341.696 225.466 341.696C219.948 341.696 215.448 343.634 211.973 347.312C208.908 350.284 206.864 354.881 205.842 360.298H234.358V365.411H204.922C204.817 366.741 204.719 368.273 204.719 369.704V371.549H234.358V376.549H205.433C206.248 382.48 208.295 386.875 211.049 389.941C214.835 393.926 219.948 395.868 225.466 395.868C230.883 395.868 235.59 393.829 237.938 392.495L239.677 398.941Z" fill="#1A428A"/>
<path d="M289.84 74.9697C289.84 112.611 259.328 143.122 221.687 143.122C184.046 143.122 153.534 112.611 153.534 74.9697C153.534 37.3289 184.046 6.81689 221.687 6.81689C259.328 6.81689 289.84 37.3289 289.84 74.9697Z" fill="#D7E9FF"/>
<path d="M221.687 149.939C180.349 149.939 146.718 116.307 146.718 74.9696C146.718 33.6318 180.349 0 221.687 0C263.025 0 296.657 33.6318 296.657 74.9696C296.657 116.307 263.025 149.939 221.687 149.939ZM221.687 13.6298C187.864 13.6298 160.347 41.1428 160.347 74.9696C160.347 108.793 187.864 136.31 221.687 136.31C255.51 136.31 283.023 108.793 283.023 74.9696C283.023 41.1428 255.51 13.6298 221.687 13.6298Z" fill="#1A428A"/>
<path d="M177.881 62.8491C176.976 62.8491 176.06 62.6697 175.178 62.2914C171.723 60.7939 170.136 56.781 171.633 53.3258C177.038 40.8386 186.839 30.8825 199.224 25.2784C202.656 23.7263 206.692 25.2511 208.241 28.6791C209.793 32.107 208.268 36.1472 204.84 37.6993C195.551 41.8994 188.196 49.3714 184.14 58.7426C183.029 61.3125 180.517 62.8491 177.881 62.8491Z" fill="white"/>
<path d="M202.036 43.1825C202.036 42.6171 202.411 42.2427 202.972 42.2427H226.679C240.168 42.2427 246.541 48.9854 246.541 59.2029C246.541 66.4175 243.171 70.5357 239.139 72.6923V72.8795C243.078 74.3848 247.672 79.4428 247.672 87.2151C247.672 99.866 239.704 105.958 225.739 105.958H202.972C202.411 105.958 202.036 105.583 202.036 105.018V43.1825ZM226.398 68.7574C232.018 68.7574 235.485 65.3841 235.485 60.4196C235.485 55.3616 232.018 51.9844 226.398 51.9844H213.654C213.275 51.9844 213.088 52.1716 213.088 52.5459V68.1997C213.088 68.5741 213.275 68.7574 213.654 68.7574H226.398ZM213.654 96.2158H226.96C233.149 96.2158 236.608 92.6553 236.608 87.3087C236.608 82.0635 233.149 78.503 226.96 78.503H213.654C213.271 78.503 213.088 78.6902 213.088 79.0684V95.6465C213.088 96.0286 213.271 96.2158 213.654 96.2158Z" fill="#1A428A"/>
<path d="M218.279 51.1146C214.512 51.1146 211.462 48.0689 211.462 44.3016V37.4848C211.462 33.7176 214.512 30.668 218.279 30.668C222.046 30.668 225.096 33.7176 225.096 37.4848V44.3016C225.096 48.0689 222.046 51.1146 218.279 51.1146Z" fill="#1A428A"/>
<path d="M218.279 119.267C214.512 119.267 211.462 116.222 211.462 112.454V105.638C211.462 101.87 214.512 98.8247 218.279 98.8247C222.046 98.8247 225.096 101.87 225.096 105.638V112.454C225.096 116.222 222.046 119.267 218.279 119.267Z" fill="#1A428A"/>
<path d="M105.824 279.432C102.061 279.432 99.0114 276.382 99.0114 272.615V245.356C99.0114 241.588 102.061 238.539 105.824 238.539C109.588 238.539 112.641 241.588 112.641 245.356V272.615C112.641 276.382 109.588 279.432 105.824 279.432Z" fill="white"/>
<path d="M119.454 265.798H92.1945C88.4312 265.798 85.3777 262.752 85.3777 258.985C85.3777 255.218 88.4312 252.168 92.1945 252.168H119.454C123.221 252.168 126.271 255.218 126.271 258.985C126.271 262.752 123.221 265.798 119.454 265.798Z" fill="white"/>
</g>
<defs>
<clipPath id="clip0_1_1242">
<rect width="443" height="443" fill="white"/>
</clipPath>
</defs>
</svg>
