<svg width="430" height="430" viewBox="0 0 430 430" fill="none" xmlns="http://www.w3.org/2000/svg">
<path d="M167.009 164.903V232.062H276.215V164.903C276.215 156.76 282.816 150.159 290.959 150.159H296.692V122.856H146.532V150.159H152.266C160.409 150.159 167.009 156.76 167.009 164.903Z" fill="#1A428A"/>
<path d="M276.215 238.889H167.009C163.236 238.889 160.182 235.835 160.182 232.062V164.903C160.182 160.537 156.632 156.983 152.266 156.983H146.532C142.76 156.983 139.705 153.932 139.705 150.16V122.856C139.705 119.083 142.76 116.033 146.532 116.033H296.692C300.465 116.033 303.519 119.083 303.519 122.856V150.16C303.519 153.932 300.465 156.983 296.692 156.983H290.959C286.592 156.983 283.042 160.537 283.042 164.903V232.062C283.042 235.835 279.988 238.889 276.215 238.889ZM173.836 225.239H269.388V164.903C269.388 153.378 278.48 143.934 289.865 143.36V129.683H153.359V143.36C164.744 143.934 173.836 153.378 173.836 164.903V225.239Z" fill="#1A428A"/>
<path d="M221.612 423.175C191.457 423.175 167.009 398.727 167.009 368.572V232.062H276.215V368.572C276.215 398.727 251.767 423.175 221.612 423.175V423.175Z" fill="#1A428A"/>
<path d="M221.612 429.998C187.739 429.998 160.182 402.445 160.182 368.572V232.062C160.182 228.289 163.236 225.239 167.009 225.239H276.215C279.988 225.239 283.042 228.289 283.042 232.062V368.572C283.042 402.445 255.485 429.998 221.612 429.998ZM173.836 238.889V368.572C173.836 394.915 195.269 416.348 221.612 416.348C247.955 416.348 269.388 394.915 269.388 368.572V238.889H173.836Z" fill="#1A428A"/>
<path d="M153.359 164.903V232.062H262.565V164.903C262.565 156.76 269.166 150.159 277.309 150.159H283.042V122.856H132.882V150.159H138.616C146.759 150.159 153.359 156.76 153.359 164.903V164.903Z" fill="#6BC4E8"/>
<path d="M262.565 238.889H153.359C149.586 238.889 146.532 235.835 146.532 232.062V164.903C146.532 160.537 142.978 156.983 138.612 156.983H132.882C129.11 156.983 126.056 153.932 126.056 150.16V122.856C126.056 119.083 129.11 116.033 132.882 116.033H283.042C286.815 116.033 289.865 119.083 289.865 122.856V150.16C289.865 153.932 286.815 156.983 283.042 156.983H277.309C272.942 156.983 269.388 160.537 269.388 164.903V232.062C269.388 235.835 266.338 238.889 262.565 238.889ZM160.182 225.239H255.739V164.903C255.739 153.378 264.831 143.934 276.215 143.36V129.683H139.705V143.36C151.094 143.934 160.182 153.378 160.182 164.903V225.239Z" fill="#1A428A"/>
<path d="M207.962 423.175C177.804 423.175 153.359 398.727 153.359 368.572V232.062H262.565V368.572C262.565 398.727 238.117 423.175 207.962 423.175V423.175Z" fill="#2A8EE6"/>
<path d="M207.962 429.998C174.086 429.998 146.532 402.445 146.532 368.572V232.062C146.532 228.289 149.586 225.239 153.359 225.239H262.565C266.338 225.239 269.388 228.289 269.388 232.062V368.572C269.388 402.445 241.835 429.998 207.962 429.998ZM160.182 238.889V368.572C160.182 394.915 181.62 416.348 207.962 416.348C234.305 416.348 255.739 394.915 255.739 368.572V238.889H160.182Z" fill="#1A428A"/>
<path d="M276.215 75.0798C276.215 112.776 245.658 143.333 207.962 143.333C170.266 143.333 139.705 112.776 139.705 75.0798C139.705 37.3837 170.266 6.8269 207.962 6.8269C245.658 6.8269 276.215 37.3837 276.215 75.0798Z" fill="#D7E9FF"/>
<path d="M207.962 150.16C166.564 150.16 132.882 116.478 132.882 75.0798C132.882 33.6812 166.564 0 207.962 0C249.361 0 283.042 33.6812 283.042 75.0798C283.042 116.478 249.361 150.16 207.962 150.16ZM207.962 13.6498C174.086 13.6498 146.532 41.2033 146.532 75.0798C146.532 108.952 174.086 136.51 207.962 136.51C241.835 136.51 269.388 108.952 269.388 75.0798C269.388 41.2033 241.835 13.6498 207.962 13.6498Z" fill="#1A428A"/>
<path d="M188.286 43.2459C188.286 42.6796 188.657 42.3047 189.22 42.3047H212.961C226.47 42.3047 232.848 49.0573 232.848 59.2898C232.848 66.515 229.478 70.6393 225.439 72.799V72.9865C229.384 74.494 233.985 79.5595 233.985 87.3432C233.985 100.013 226.006 106.113 212.02 106.113H189.22C188.657 106.113 188.286 105.738 188.286 105.172V43.2459ZM212.68 68.8583C218.308 68.8583 221.78 65.4801 221.78 60.5083C221.78 55.4429 218.308 52.0607 212.68 52.0607H199.917C199.538 52.0607 199.351 52.2481 199.351 52.6231V68.2999C199.351 68.6748 199.538 68.8583 199.917 68.8583H212.68ZM199.917 96.3571H213.242C219.441 96.3571 222.905 92.7914 222.905 87.4369C222.905 82.184 219.441 78.6182 213.242 78.6182H199.917C199.534 78.6182 199.351 78.8057 199.351 79.1845V95.7869C199.351 96.1697 199.534 96.3571 199.917 96.3571Z" fill="#1A428A"/>
<path d="M211.376 51.1898C207.603 51.1898 204.549 48.1396 204.549 44.3668V37.54C204.549 33.7673 207.603 30.7131 211.376 30.7131C215.148 30.7131 218.199 33.7673 218.199 37.54V44.3668C218.199 48.1396 215.148 51.1898 211.376 51.1898Z" fill="#1A428A"/>
<path d="M211.376 119.443C207.603 119.443 204.549 116.393 204.549 112.62V105.793C204.549 102.02 207.603 98.97 211.376 98.97C215.148 98.97 218.199 102.02 218.199 105.793V112.62C218.199 116.393 215.148 119.443 211.376 119.443Z" fill="#1A428A"/>
<path d="M207.962 286.665C207.962 294.207 201.85 300.319 194.312 300.319C186.771 300.319 180.659 294.207 180.659 286.665C180.659 279.128 186.771 273.016 194.312 273.016C201.85 273.016 207.962 279.128 207.962 286.665Z" fill="#1A428A"/>
<path d="M242.089 327.619C242.089 335.156 235.977 341.269 228.439 341.269C220.897 341.269 214.785 335.156 214.785 327.619C214.785 320.081 220.897 313.969 228.439 313.969C235.977 313.969 242.089 320.081 242.089 327.619V327.619Z" fill="#1A428A"/>
<path d="M201.135 375.395C201.135 382.936 195.023 389.049 187.486 389.049C179.948 389.049 173.836 382.936 173.836 375.395C173.836 367.857 179.948 361.745 187.486 361.745C195.023 361.745 201.135 367.857 201.135 375.395V375.395Z" fill="#1A428A"/>
<path d="M255.738 218.413C251.966 218.413 248.916 215.358 248.916 211.586V184.286C248.916 180.513 251.966 177.459 255.738 177.459C259.511 177.459 262.565 180.513 262.565 184.286V211.586C262.565 215.358 259.511 218.413 255.738 218.413Z" fill="white"/>
<path d="M269.388 204.763H242.089C238.316 204.763 235.262 201.708 235.262 197.936C235.262 194.163 238.316 191.113 242.089 191.113H269.388C273.161 191.113 276.215 194.163 276.215 197.936C276.215 201.708 273.161 204.763 269.388 204.763Z" fill="white"/>
<path d="M210.587 409.525H207.962C204.189 409.525 201.135 406.471 201.135 402.699C201.135 398.926 204.189 395.872 207.962 395.872H210.587C224.194 395.872 235.262 384.804 235.262 371.197V361.745C235.262 357.973 238.316 354.922 242.089 354.922C245.861 354.922 248.916 357.973 248.916 361.745V371.197C248.916 392.333 231.723 409.525 210.587 409.525Z" fill="white"/>
</svg>
