<svg width="437" height="437" viewBox="0 0 437 437" fill="none" xmlns="http://www.w3.org/2000/svg">
<g clip-path="url(#clip0_1_1290)">
<path d="M409.693 211.828H334.139C331.737 211.828 329.514 210.57 328.28 208.504L310.065 178.035H218.546C214.776 178.035 211.718 174.981 211.718 171.207C211.718 167.434 214.776 164.383 218.546 164.383H313.94C316.342 164.383 318.565 165.641 319.799 167.707L338.014 198.176H409.693C413.463 198.176 416.521 201.227 416.521 205C416.521 208.773 413.463 211.828 409.693 211.828Z" fill="#1A428A"/>
<path fill-rule="evenodd" clip-rule="evenodd" d="M430.174 205C430.174 212.543 424.06 218.656 416.521 218.656C408.978 218.656 402.865 212.543 402.865 205C402.865 197.461 408.978 191.348 416.521 191.348C424.06 191.348 430.174 197.461 430.174 205Z" fill="#1A428A"/>
<path fill-rule="evenodd" clip-rule="evenodd" d="M409.693 252.789C409.693 260.328 403.58 266.441 396.041 266.441C388.498 266.441 382.389 260.328 382.389 252.789C382.389 245.246 388.498 239.136 396.041 239.136C403.58 239.136 409.693 245.246 409.693 252.789V252.789Z" fill="#1A428A"/>
<path fill-rule="evenodd" clip-rule="evenodd" d="M437.002 300.574C437.002 308.117 430.888 314.226 423.345 314.226C415.806 314.226 409.693 308.117 409.693 300.574C409.693 293.035 415.806 286.921 423.345 286.921C430.888 286.921 437.002 293.035 437.002 300.574V300.574Z" fill="#1A428A"/>
<path d="M389.214 259.613H218.452C214.682 259.613 211.624 256.562 211.624 252.789C211.624 249.015 214.682 245.961 218.452 245.961H389.218C392.987 245.961 396.042 249.015 396.042 252.789C396.042 256.562 392.983 259.613 389.214 259.613Z" fill="#1A428A"/>
<path d="M348.104 334.706H211.624C207.854 334.706 204.796 331.656 204.796 327.882C204.796 324.109 207.854 321.054 211.624 321.054H345.244L370.096 295.789C371.381 294.48 373.131 293.75 374.963 293.75H416.521C420.291 293.75 423.345 296.8 423.345 300.574C423.345 304.347 420.291 307.402 416.521 307.402H377.822L352.971 332.667C351.686 333.972 349.936 334.706 348.104 334.706V334.706Z" fill="#1A428A"/>
<path d="M143.82 205H68.2653C64.4958 205 61.4372 201.949 61.4372 198.176C61.4372 194.402 64.4958 191.348 68.2653 191.348H139.945L158.159 160.883C159.39 158.813 161.612 157.555 164.019 157.555H259.413C263.182 157.555 266.237 160.61 266.237 164.383C266.237 168.156 263.182 171.207 259.413 171.207H167.894L149.679 201.676C148.445 203.742 146.222 205 143.82 205Z" fill="#1A428A"/>
<path fill-rule="evenodd" clip-rule="evenodd" d="M75.0935 198.176C75.0935 205.715 68.9802 211.828 61.4412 211.828C53.8982 211.828 47.7849 205.715 47.7849 198.176C47.7849 190.633 53.8982 184.523 61.4412 184.523C68.9802 184.523 75.0935 190.633 75.0935 198.176Z" fill="#1A428A"/>
<path fill-rule="evenodd" clip-rule="evenodd" d="M27.3086 245.961C27.3086 253.504 21.1953 259.613 13.6523 259.613C6.11328 259.613 0 253.504 0 245.961C0 238.422 6.11328 232.308 13.6523 232.308C21.1953 232.308 27.3086 238.422 27.3086 245.961Z" fill="#1A428A"/>
<path fill-rule="evenodd" clip-rule="evenodd" d="M61.4412 293.75C61.4412 301.289 55.3279 307.402 47.785 307.402C40.2459 307.402 34.1326 301.289 34.1326 293.75C34.1326 286.207 40.2459 280.093 47.785 280.093C55.3279 280.093 61.4412 286.207 61.4412 293.75Z" fill="#1A428A"/>
<path d="M259.506 252.789H20.4804C16.7109 252.789 13.6523 249.734 13.6523 245.961C13.6523 242.187 16.7109 239.136 20.4804 239.136H259.51C263.28 239.136 266.335 242.187 266.335 245.961C266.335 249.734 263.276 252.789 259.506 252.789Z" fill="#1A428A"/>
<path fill-rule="evenodd" clip-rule="evenodd" d="M293.217 136.707V109.43H279.561V13.8252H170.335V109.43H156.683V136.707H143.031V341.468C143.031 386.741 179.706 423.425 224.948 423.425C270.202 423.425 306.87 386.73 306.87 341.468V136.707H293.217Z" fill="#1A428A"/>
<path d="M224.952 430.253C176.015 430.253 136.206 390.425 136.206 341.468V136.707C136.206 132.934 139.261 129.883 143.03 129.883H149.859V109.43C149.859 105.657 152.913 102.602 156.687 102.602H163.511V13.8291C163.511 10.0556 166.569 7.00098 170.339 7.00098H279.565C283.334 7.00098 286.389 10.0556 286.389 13.8291V102.602H293.217C296.987 102.602 300.045 105.657 300.045 109.43V129.883H306.869C310.639 129.883 313.698 132.934 313.698 136.707V341.468C313.698 390.425 273.889 430.253 224.952 430.253V430.253ZM149.859 143.535V341.468C149.859 382.894 183.546 416.6 224.952 416.6C266.358 416.6 300.045 382.894 300.045 341.468V143.535H293.217C289.448 143.535 286.389 140.481 286.389 136.707V116.254H279.565C275.795 116.254 272.737 113.204 272.737 109.43V20.6572H177.163V109.43C177.163 113.204 174.108 116.254 170.339 116.254H163.511V136.707C163.511 140.481 160.456 143.535 156.687 143.535H149.859Z" fill="#1A428A"/>
<path d="M266.335 327.882H129.859C128.027 327.882 126.273 327.148 124.992 325.843L100.136 300.574H54.613C50.8435 300.574 47.7849 297.523 47.7849 293.749C47.7849 289.976 50.8435 286.921 54.613 286.921H102.996C104.828 286.921 106.581 287.656 107.863 288.96L132.718 314.226H266.335C270.104 314.226 273.163 317.281 273.163 321.054C273.163 324.827 270.104 327.882 266.335 327.882V327.882Z" fill="#1A428A"/>
<path d="M156.683 13.8252H265.909V109.431H156.683V13.8252Z" fill="#6BC4E8"/>
<path d="M265.913 116.255H156.687C152.913 116.255 149.859 113.204 149.859 109.431V13.8291C149.859 10.0557 152.913 7.00098 156.687 7.00098H265.913C269.683 7.00098 272.738 10.0557 272.738 13.8291V109.431C272.738 113.204 269.683 116.255 265.913 116.255ZM163.511 102.603H259.085V20.6572H163.511V102.603Z" fill="#1A428A"/>
<path d="M143.031 109.43H279.562V150.36H143.031V109.43Z" fill="#D7E9FF"/>
<path d="M279.566 157.188H143.031C139.261 157.188 136.206 154.133 136.206 150.36V109.43C136.206 105.657 139.261 102.602 143.031 102.602H279.566C283.335 102.602 286.39 105.657 286.39 109.43V150.36C286.39 154.133 283.335 157.188 279.566 157.188ZM149.859 143.536H272.738V116.254H149.859V143.536Z" fill="#1A428A"/>
<path d="M129.378 136.708H293.217V341.468C293.217 386.734 256.549 423.425 211.296 423.425C166.054 423.425 129.378 386.741 129.378 341.468V136.708Z" fill="#2A8EE6"/>
<path d="M211.3 430.253C162.362 430.253 122.55 390.425 122.55 341.468V136.707C122.55 132.934 125.609 129.883 129.378 129.883H293.217C296.987 129.883 300.045 132.934 300.045 136.707V341.468C300.045 390.425 260.233 430.253 211.3 430.253V430.253ZM136.206 143.536V341.468C136.206 382.894 169.89 416.601 211.3 416.601C252.706 416.601 286.389 382.894 286.389 341.468V143.536H136.206Z" fill="#1A428A"/>
<path d="M177.491 61.6416C173.722 61.6416 170.667 58.5908 170.667 54.8174V13.8564C170.667 10.083 173.722 7.02832 177.491 7.02832C181.261 7.02832 184.319 10.083 184.319 13.8564V54.8174C184.319 58.5908 181.261 61.6416 177.491 61.6416Z" fill="#1A428A"/>
<path d="M245.76 61.6416C241.987 61.6416 238.932 58.5908 238.932 54.8174V13.8564C238.932 10.083 241.987 7.02832 245.76 7.02832C249.53 7.02832 252.585 10.083 252.585 13.8564V54.8174C252.585 58.5908 249.53 61.6416 245.76 61.6416Z" fill="#1A428A"/>
<path d="M211.624 52.6025C207.85 52.6025 204.796 49.5479 204.796 45.7744V16.8174C204.796 13.0439 207.85 9.98926 211.624 9.98926C215.393 9.98926 218.448 13.0439 218.448 16.8174V45.7744C218.448 49.5479 215.393 52.6025 211.624 52.6025Z" fill="#1A428A"/>
<path d="M211.609 394.746C196.261 394.746 181.534 388.699 170.589 377.746C162.374 369.535 156.863 359.171 154.656 347.8C153.941 344.101 156.359 340.511 160.058 339.8C163.761 339.066 167.343 341.499 168.062 345.199C169.745 353.894 173.956 361.804 180.245 368.093C189.523 377.367 202.327 381.992 215.448 380.933C219.21 380.503 222.511 383.39 222.831 387.144C223.156 390.906 220.374 394.214 216.616 394.531C214.941 394.679 213.273 394.746 211.609 394.746Z" fill="white"/>
<path d="M286.717 211.828C282.948 211.828 279.893 208.774 279.893 205V177.696C279.893 173.922 282.948 170.867 286.717 170.867C290.487 170.867 293.545 173.922 293.545 177.696V205C293.545 208.774 290.487 211.828 286.717 211.828Z" fill="white"/>
<path d="M300.374 198.176H273.065C269.296 198.176 266.237 195.121 266.237 191.348C266.237 187.574 269.296 184.524 273.065 184.524H300.374C304.143 184.524 307.198 187.574 307.198 191.348C307.198 195.121 304.143 198.176 300.374 198.176Z" fill="white"/>
</g>
<defs>
<clipPath id="clip0_1_1290">
<rect width="437" height="437" fill="white"/>
</clipPath>
</defs>
</svg>
