<svg width="395" height="395" viewBox="0 0 395 395" fill="none" xmlns="http://www.w3.org/2000/svg">
<g clip-path="url(#clip0_1_1318)">
<path fill-rule="evenodd" clip-rule="evenodd" d="M6.81177 75.2078H388.189V163.741H6.81177V75.2078Z" fill="#1A428A"/>
<path d="M388.189 170.553H6.81177C3.04737 170.553 0 167.506 0 163.741V75.2078C0 71.4434 3.04737 68.396 6.81177 68.396H388.189C391.95 68.396 394.997 71.4434 394.997 75.2078V163.741C394.997 167.506 391.95 170.553 388.189 170.553ZM13.6196 156.933H381.377V82.0195H13.6196V156.933Z" fill="#1A428A"/>
<path d="M364.106 109.259H30.8907C17.5945 109.259 6.81177 98.4759 6.81177 85.1797V44.8079C6.81177 31.5078 17.5945 20.7251 30.8907 20.7251H364.106C377.406 20.7251 388.189 31.5078 388.189 44.8079V85.1758C388.189 98.4759 377.406 109.259 364.106 109.259Z" fill="#2A8EE6"/>
<path d="M364.106 116.07H30.8946C13.8574 116.07 0 102.209 0 85.1758V44.8079C0 27.7746 13.8574 13.9133 30.8946 13.9133H364.106C381.14 13.9133 394.997 27.7746 394.997 44.8079V85.1797C394.997 102.209 381.14 116.07 364.106 116.07ZM30.8946 27.5369C21.3706 27.5369 13.6196 35.2839 13.6196 44.8079V85.1797C13.6196 94.6998 21.3706 102.451 30.8946 102.451H364.106C373.63 102.451 381.377 94.6998 381.377 85.1758V44.8079C381.377 35.2839 373.63 27.5369 364.106 27.5369H30.8946Z" fill="#1A428A"/>
<path d="M364.106 218.224H30.8907C17.5945 218.224 6.81177 207.441 6.81177 194.145V153.773C6.81177 140.473 17.5945 129.69 30.8907 129.69H364.106C377.406 129.69 388.185 140.473 388.185 153.773V194.141C388.189 207.441 377.406 218.224 364.106 218.224V218.224Z" fill="#2A8EE6"/>
<path d="M364.106 225.035H30.8946C13.8574 225.035 0 211.174 0 194.141V153.773C0 136.74 13.8574 122.878 30.8946 122.878H364.106C381.143 122.878 395.001 136.74 395.001 153.773V194.145C394.997 211.174 381.14 225.035 364.106 225.035ZM30.8946 136.502C21.3706 136.502 13.6196 144.249 13.6196 153.773V194.145C13.6196 203.665 21.3706 211.416 30.8946 211.416H364.106C373.63 211.416 381.381 203.665 381.381 194.141V153.773C381.381 144.249 373.63 136.498 364.106 136.498H30.8946V136.502Z" fill="#1A428A"/>
<path d="M163.447 313.569H90.556C66.9096 313.569 47.6707 294.326 47.6707 270.684V245.467C47.6707 241.702 50.7219 238.655 54.4824 238.655C58.2429 238.655 61.2942 241.702 61.2942 245.467V270.684C61.2942 286.821 74.4228 299.949 90.556 299.949H163.447C167.208 299.949 170.259 302.993 170.259 306.757C170.259 310.522 167.208 313.569 163.447 313.569V313.569Z" fill="#1A428A"/>
<path d="M81.7256 64.994C81.7256 78.1577 71.052 88.8274 57.8883 88.8274C44.7246 88.8274 34.051 78.1577 34.051 64.994C34.051 51.8264 44.7246 41.1567 57.8883 41.1567C71.052 41.1567 81.7256 51.8264 81.7256 64.994Z" fill="#6BC4E8"/>
<path d="M57.8883 95.6392C40.9875 95.6392 27.2432 81.891 27.2432 64.994C27.2432 48.0932 40.9875 34.345 57.8883 34.345C74.7892 34.345 88.5335 48.0932 88.5335 64.994C88.5335 81.891 74.7892 95.6392 57.8883 95.6392ZM57.8883 47.9685C48.5007 47.9685 40.8628 55.6025 40.8628 64.994C40.8628 74.3856 48.5007 82.0196 57.8883 82.0196C67.276 82.0196 74.9139 74.3856 74.9139 64.994C74.9139 55.6025 67.276 47.9685 57.8883 47.9685Z" fill="#1A428A"/>
<path d="M81.7256 173.959C81.7256 187.123 71.052 197.792 57.8883 197.792C44.7246 197.792 34.051 187.123 34.051 173.959C34.051 160.791 44.7246 150.122 57.8883 150.122C71.052 150.122 81.7256 160.791 81.7256 173.959Z" fill="#6BC4E8"/>
<path d="M57.8883 204.604C40.9875 204.604 27.2432 190.856 27.2432 173.959C27.2432 157.058 40.9875 143.31 57.8883 143.31C74.7892 143.31 88.5335 157.058 88.5335 173.959C88.5335 190.856 74.7892 204.604 57.8883 204.604ZM57.8883 156.933C48.5007 156.933 40.8628 164.567 40.8628 173.959C40.8628 183.35 48.5007 190.984 57.8883 190.984C67.276 190.984 74.9139 183.35 74.9139 173.959C74.9139 164.567 67.276 156.933 57.8883 156.933Z" fill="#1A428A"/>
<path d="M360.946 156.933H333.707C329.946 156.933 326.895 153.886 326.895 150.122C326.895 146.357 329.946 143.31 333.707 143.31H360.946C364.706 143.31 367.758 146.357 367.758 150.122C367.758 153.886 364.706 156.933 360.946 156.933Z" fill="#1A428A"/>
<path d="M360.946 184.173H279.224C275.464 184.173 272.412 181.125 272.412 177.361C272.412 173.597 275.464 170.553 279.224 170.553H360.946C364.706 170.553 367.758 173.597 367.758 177.361C367.758 181.125 364.706 184.173 360.946 184.173Z" fill="#1A428A"/>
<path d="M360.946 204.604H279.224C275.464 204.604 272.412 201.557 272.412 197.792C272.412 194.028 275.464 190.985 279.224 190.985H360.946C364.706 190.985 367.758 194.028 367.758 197.792C367.758 201.557 364.706 204.604 360.946 204.604Z" fill="#1A428A"/>
<path d="M360.946 47.9685H333.707C329.946 47.9685 326.895 44.9211 326.895 41.1567C326.895 37.3923 329.946 34.345 333.707 34.345H360.946C364.706 34.345 367.758 37.3923 367.758 41.1567C367.758 44.9211 364.706 47.9685 360.946 47.9685Z" fill="#1A428A"/>
<path d="M360.946 75.2078H279.224C275.464 75.2078 272.412 72.1604 272.412 68.396C272.412 64.6316 275.464 61.5881 279.224 61.5881H360.946C364.706 61.5881 367.758 64.6316 367.758 68.396C367.758 72.1604 364.706 75.2078 360.946 75.2078Z" fill="#1A428A"/>
<path d="M360.946 95.6392H279.224C275.464 95.6392 272.412 92.5918 272.412 88.8274C272.412 85.063 275.464 82.0195 279.224 82.0195H360.946C364.706 82.0195 367.758 85.063 367.758 88.8274C367.758 92.5918 364.706 95.6392 360.946 95.6392Z" fill="#1A428A"/>
<path d="M320.083 306.757C320.083 344.37 289.594 374.863 251.981 374.863C214.368 374.863 183.879 344.37 183.879 306.757C183.879 269.144 214.368 238.655 251.981 238.655C289.594 238.655 320.083 269.144 320.083 306.757V306.757Z" fill="#D7E9FF"/>
<path d="M251.981 381.671C210.674 381.671 177.067 348.068 177.067 306.757C177.067 265.45 210.674 231.843 251.981 231.843C293.288 231.843 326.895 265.45 326.895 306.757C326.895 348.068 293.288 381.671 251.981 381.671ZM251.981 245.467C218.187 245.467 190.691 272.959 190.691 306.757C190.691 340.559 218.187 368.051 251.981 368.051C285.779 368.051 313.275 340.559 313.275 306.757C313.275 272.959 285.779 245.467 251.981 245.467V245.467Z" fill="#1A428A"/>
<path d="M232.344 274.994C232.344 274.429 232.719 274.058 233.28 274.058H256.969C270.452 274.058 276.82 280.796 276.82 291.002C276.82 298.211 273.449 302.33 269.423 304.485V304.668C273.355 306.173 277.942 311.227 277.942 318.993C277.942 331.639 269.985 337.722 256.034 337.722H233.28C232.719 337.722 232.344 337.352 232.344 336.787V274.994ZM256.688 300.553C262.308 300.553 265.768 297.183 265.768 292.218C265.768 287.164 262.308 283.793 256.688 283.793H243.953C243.579 283.793 243.392 283.98 243.392 284.35V299.996C243.392 300.366 243.579 300.553 243.953 300.553H256.688ZM243.953 327.987H257.25C263.43 327.987 266.894 324.43 266.894 319.087C266.894 313.85 263.43 310.288 257.25 310.288H243.953C243.579 310.288 243.392 310.475 243.392 310.857V327.422C243.392 327.8 243.579 327.987 243.953 327.987Z" fill="#1A428A"/>
<path d="M248.575 282.924C244.815 282.924 241.767 279.876 241.767 276.112V269.3C241.767 265.536 244.815 262.492 248.575 262.492C252.339 262.492 255.387 265.536 255.387 269.3V276.112C255.387 279.876 252.339 282.924 248.575 282.924Z" fill="#1A428A"/>
<path d="M248.575 351.026C244.815 351.026 241.767 347.979 241.767 344.214V337.406C241.767 333.642 244.815 330.594 248.575 330.594C252.339 330.594 255.387 333.642 255.387 337.406V344.214C255.387 347.979 252.339 351.026 248.575 351.026Z" fill="#1A428A"/>
<path d="M231.55 122.878C227.789 122.878 224.742 119.835 224.742 116.071V88.8274C224.742 85.063 227.789 82.0195 231.55 82.0195C235.31 82.0195 238.361 85.063 238.361 88.8274V116.071C238.361 119.835 235.31 122.878 231.55 122.878Z" fill="white"/>
<path d="M245.173 109.259H217.93C214.169 109.259 211.118 106.215 211.118 102.451C211.118 98.6865 214.169 95.6392 217.93 95.6392H245.173C248.934 95.6392 251.981 98.6865 251.981 102.451C251.981 106.215 248.934 109.259 245.173 109.259Z" fill="white"/>
<path d="M156.636 47.9685H102.153C98.3927 47.9685 95.3453 44.9211 95.3453 41.1567C95.3453 37.3923 98.3927 34.345 102.153 34.345H156.636C160.4 34.345 163.447 37.3923 163.447 41.1567C163.447 44.9211 160.4 47.9685 156.636 47.9685Z" fill="white"/>
<path d="M156.636 156.933H102.153C98.3927 156.933 95.3453 153.886 95.3453 150.122C95.3453 146.357 98.3927 143.31 102.153 143.31H156.636C160.4 143.31 163.447 146.357 163.447 150.122C163.447 153.886 160.4 156.933 156.636 156.933Z" fill="white"/>
</g>
<defs>
<clipPath id="clip0_1_1318">
<rect width="395" height="395" fill="white"/>
</clipPath>
</defs>
</svg>
