<svg width="415" height="415" viewBox="0 0 415 415" fill="none" xmlns="http://www.w3.org/2000/svg">
<path d="M354.486 203.77L321.56 215.923C283.779 229.866 241.846 227.051 206.264 208.184L204.564 207.283C175.377 191.801 141.69 187.024 109.348 193.777L61.4885 203.77V40.2371L110.471 30.1505C142.969 23.4599 176.784 28.3999 206.007 44.1126C241.725 63.311 283.962 66.2664 322.004 52.2263L354.486 40.2371V203.77Z" fill="#1A428A"/>
<path d="M272.593 231.476C248.599 231.476 224.69 225.671 203.071 214.204L201.383 213.303C173.649 198.6 141.475 194.035 110.74 200.441L62.8804 210.438C60.8997 210.874 58.7826 210.348 57.1918 209.057C55.6011 207.763 54.677 205.817 54.677 203.77V40.237C54.677 37.0009 56.9501 34.2132 60.1121 33.562L109.095 23.4716C143.125 16.4808 178.675 21.6703 209.239 38.1082C243.206 56.3709 283.444 59.1937 319.637 45.832L352.123 33.8428C354.213 33.0708 356.557 33.3749 358.377 34.6459C360.21 35.917 361.302 38.0068 361.302 40.237V203.77C361.302 206.624 359.524 209.174 356.849 210.165L323.926 222.314C307.328 228.435 289.935 231.476 272.593 231.476V231.476ZM138.181 183.995C162.296 183.995 186.243 189.855 207.761 201.263L209.453 202.16C243.288 220.107 283.295 222.793 319.201 209.525L347.675 199.018V50.0156L324.363 58.6205C284.504 73.3196 240.2 70.2238 202.782 50.1092C175.022 35.184 142.75 30.4663 111.839 36.8216L68.3038 45.793V195.384L107.956 187.106C117.945 185.016 128.078 183.995 138.181 183.995V183.995ZM354.486 203.77H354.552H354.486Z" fill="#1A428A"/>
<path d="M61.4885 156.071H88.746V408.184H61.4885V156.071Z" fill="#D7E9FF"/>
<path d="M88.746 415H61.4885C57.7221 415 54.677 411.951 54.677 408.184V156.071C54.677 152.304 57.7221 149.259 61.4885 149.259H88.746C92.5123 149.259 95.5574 152.304 95.5574 156.071V408.184C95.5574 411.951 92.5123 415 88.746 415ZM68.3038 401.373H81.9306V162.886H68.3038V401.373Z" fill="#1A428A"/>
<path d="M354.486 183.328L321.56 195.481C283.779 209.424 241.846 206.609 206.264 187.742L204.564 186.841C175.377 171.359 141.69 166.582 109.348 173.335L61.4885 183.328V19.795L110.471 9.70842C142.969 3.01783 176.784 7.96169 206.007 23.6705C241.725 42.8689 283.962 45.8243 322.004 31.7842L354.486 19.795V183.328Z" fill="#2A8EE6"/>
<path d="M272.593 211.038C248.599 211.038 224.69 205.229 203.071 193.762L201.383 192.865C173.649 178.158 141.475 173.601 110.74 180.003L62.8804 189.996C60.8997 190.44 58.7826 189.914 57.1918 188.615C55.6011 187.317 54.677 185.375 54.677 183.328V19.795C54.677 16.5628 56.9501 13.7712 60.1121 13.12L109.095 3.03348C143.125 -3.96123 178.675 1.23607 209.239 17.6662C243.206 35.9328 283.444 38.7517 319.637 25.39L352.123 13.4008C354.213 12.6288 356.557 12.9329 358.377 14.2039C360.21 15.475 361.302 17.5648 361.302 19.795V183.328C361.302 186.182 359.524 188.732 356.849 189.723L323.926 201.872C307.328 207.993 289.935 211.038 272.593 211.038V211.038ZM138.181 163.553C162.296 163.553 186.243 169.413 207.761 180.821L209.453 181.718C243.288 199.665 283.295 202.351 319.201 189.083L347.675 178.576V29.5736L324.363 38.1785C284.504 52.8776 240.2 49.7857 202.782 29.6711C175.022 14.742 142.75 10.0321 111.839 16.3796L68.3038 25.351V174.942L107.956 166.664C117.945 164.574 128.078 163.553 138.181 163.553V163.553ZM354.486 183.328H354.552H354.486Z" fill="#1A428A"/>
<path d="M182.535 63.9038C182.535 63.1864 183.015 62.7146 183.728 62.7146H213.871C231.03 62.7146 239.128 71.2884 239.128 84.2797C239.128 93.4539 234.843 98.694 229.72 101.435V101.673C234.726 103.583 240.559 110.017 240.559 119.904C240.559 135.987 230.434 143.735 212.678 143.735H183.728C183.015 143.735 182.535 143.255 182.535 142.542V63.9038ZM213.516 96.4288C220.663 96.4288 225.076 92.1438 225.076 85.8275C225.076 79.3943 220.663 75.1015 213.516 75.1015H197.308C196.836 75.1015 196.595 75.3433 196.595 75.815V95.7191C196.595 96.1909 196.836 96.4288 197.308 96.4288H213.516ZM197.308 131.344H214.23C222.094 131.344 226.5 126.813 226.5 120.025C226.5 113.35 222.094 108.82 214.23 108.82H197.308C196.836 108.82 196.595 109.061 196.595 109.537V130.626C196.595 131.106 196.836 131.344 197.308 131.344Z" fill="#1A428A"/>
<path d="M204.58 74.3061C200.813 74.3061 197.768 71.2571 197.768 67.4907V53.8639C197.768 50.0976 200.813 47.0486 204.58 47.0486C208.346 47.0486 211.395 50.0976 211.395 53.8639V67.4907C211.395 71.2571 208.346 74.3061 204.58 74.3061Z" fill="#1A428A"/>
<path d="M204.58 156.071C200.813 156.071 197.768 153.026 197.768 149.259V142.444C197.768 138.678 200.813 135.629 204.58 135.629C208.346 135.629 211.395 138.678 211.395 142.444V149.259C211.395 153.026 208.346 156.071 204.58 156.071Z" fill="#1A428A"/>
<path d="M272.721 217.397C268.955 217.397 265.906 214.348 265.906 210.582V183.328C265.906 179.562 268.955 176.513 272.721 176.513C276.488 176.513 279.533 179.562 279.533 183.328V210.582C279.533 214.348 276.488 217.397 272.721 217.397Z" fill="white"/>
<path d="M286.348 203.77H259.091C255.324 203.77 252.279 200.721 252.279 196.955C252.279 193.189 255.324 190.14 259.091 190.14H286.348C290.115 190.14 293.16 193.189 293.16 196.955C293.16 200.721 290.115 203.77 286.348 203.77Z" fill="white"/>
<path d="M274.004 67.7831C273.158 67.7831 272.647 67.7714 272.499 67.7636C268.741 67.6427 265.797 64.5041 265.914 60.7455C266.031 56.9908 268.823 54.0315 272.932 54.1446C273.225 54.2303 301.012 54.8269 328.706 41.5198C332.106 39.8705 336.173 41.3287 337.799 44.713C339.429 48.1012 337.998 52.1717 334.606 53.8054C307.317 66.9175 280.597 67.7831 274.004 67.7831V67.7831Z" fill="white"/>
</svg>
