<svg width="423" height="423" viewBox="0 0 423 423" fill="none" xmlns="http://www.w3.org/2000/svg">
<g clip-path="url(#clip0_1_1360)">
<path d="M292.444 416.177H135.526L121.878 279.727H306.088L292.444 416.177Z" fill="#6BC4E8"/>
<path d="M292.444 423H135.526C132.02 423 129.085 420.342 128.737 416.856L115.093 280.406C114.898 278.485 115.53 276.573 116.822 275.148C118.118 273.715 119.957 272.903 121.882 272.903H306.092C308.016 272.903 309.855 273.715 311.147 275.148C312.44 276.573 313.076 278.485 312.881 280.406L299.237 416.856C298.889 420.342 295.949 423 292.444 423ZM141.702 409.356H286.268L298.546 286.547H129.42L141.702 409.356Z" fill="#1A428A"/>
<path d="M271.975 279.727L258.331 416.177H292.444L306.088 279.727H271.975Z" fill="#1A428A"/>
<path d="M292.444 423H258.331C256.407 423 254.568 422.185 253.276 420.756C251.98 419.331 251.347 417.418 251.542 415.497L265.187 279.048C265.534 275.561 268.47 272.903 271.975 272.903H306.088C308.012 272.903 309.851 273.715 311.143 275.148C312.439 276.573 313.072 278.485 312.877 280.406L299.233 416.856C298.889 420.342 295.949 423 292.444 423V423ZM265.874 409.356H286.268L298.545 286.547H278.151L265.874 409.356Z" fill="#1A428A"/>
<path d="M108.234 252.435H319.736V279.727H108.234V252.435Z" fill="#D7E9FF"/>
<path d="M319.736 286.547H108.234C104.463 286.547 101.414 283.498 101.414 279.727V252.435C101.414 248.664 104.463 245.615 108.234 245.615H319.736C323.507 245.615 326.556 248.664 326.556 252.435V279.727C326.556 283.498 323.507 286.547 319.736 286.547ZM115.058 272.903H312.912V259.259H115.058V272.903Z" fill="#1A428A"/>
<path fill-rule="evenodd" clip-rule="evenodd" d="M217.395 252.435C217.395 252.435 196.927 218.322 203.751 184.21C210.575 150.098 224.219 129.629 224.219 129.629" fill="white"/>
<path d="M217.395 259.259C215.084 259.259 212.823 258.08 211.547 255.948C210.653 254.461 189.806 219.158 197.059 182.871C204.071 147.837 217.957 126.725 218.543 125.843C220.619 122.708 224.851 121.861 227.99 123.953C231.129 126.03 231.98 130.27 229.903 133.408C229.774 133.6 216.883 153.334 210.442 185.549C204.235 216.577 223.059 248.613 223.255 248.929C225.179 252.169 224.125 256.354 220.893 258.283C219.8 258.943 218.589 259.259 217.395 259.259Z" fill="#1A428A"/>
<path d="M299.268 75.0487C299.268 112.729 268.72 143.273 231.039 143.273C193.362 143.273 162.814 112.729 162.814 75.0487C162.814 37.3682 193.362 6.82397 231.039 6.82397C268.72 6.82397 299.268 37.3682 299.268 75.0487Z" fill="#D7E9FF"/>
<path d="M231.039 150.098C189.658 150.098 155.994 116.43 155.994 75.0488C155.994 33.6673 189.658 0 231.039 0C272.424 0 306.088 33.6673 306.088 75.0488C306.088 116.43 272.424 150.098 231.039 150.098ZM231.039 13.6442C197.18 13.6442 169.638 41.1863 169.638 75.0488C169.638 108.907 197.18 136.453 231.039 136.453C264.902 136.453 292.444 108.907 292.444 75.0488C292.444 41.1863 264.902 13.6442 231.039 13.6442Z" fill="#1A428A"/>
<path d="M211.375 43.228C211.375 42.6619 211.746 42.2871 212.308 42.2871H236.04C249.544 42.2871 255.919 49.037 255.919 59.2652C255.919 66.4875 252.546 70.61 248.509 72.7689V72.9562C252.452 74.4632 257.051 79.5265 257.051 87.307C257.051 99.9713 249.075 106.069 235.099 106.069H212.308C211.746 106.069 211.375 105.694 211.375 105.128V43.228ZM235.759 68.8298C241.38 68.8298 244.855 65.4529 244.855 60.4832C244.855 55.4199 241.38 52.0391 235.759 52.0391H223.001C222.618 52.0391 222.435 52.2265 222.435 52.6012V68.2715C222.435 68.6463 222.618 68.8298 223.001 68.8298H235.759ZM222.997 96.3173H236.317C242.517 96.3173 245.979 92.753 245.979 87.4007C245.979 82.15 242.517 78.5857 236.317 78.5857H222.997C222.618 78.5857 222.431 78.7731 222.431 79.1517V95.7473C222.431 96.1299 222.618 96.3173 222.997 96.3173Z" fill="#1A428A"/>
<path d="M234.451 51.1686C230.68 51.1686 227.631 48.1197 227.631 44.3485V37.5245C227.631 33.7533 230.68 30.7004 234.451 30.7004C238.222 30.7004 241.275 33.7533 241.275 37.5245V44.3485C241.275 48.1197 238.222 51.1686 234.451 51.1686Z" fill="#1A428A"/>
<path d="M234.451 119.393C230.68 119.393 227.631 116.344 227.631 112.573V105.749C227.631 101.978 230.68 98.929 234.451 98.929C238.222 98.929 241.275 101.978 241.275 105.749V112.573C241.275 116.344 238.222 119.393 234.451 119.393Z" fill="#1A428A"/>
<path fill-rule="evenodd" clip-rule="evenodd" d="M210.575 231.967C210.575 231.967 237.863 177.386 271.975 197.854Z" fill="white"/>
<path d="M210.567 238.791C209.54 238.791 208.502 238.556 207.514 238.064C204.149 236.378 202.786 232.287 204.469 228.918C205.156 227.536 221.615 195.125 246.452 187.887C256.352 185.014 266.12 186.381 275.485 192.006C278.718 193.942 279.764 198.135 277.824 201.364C275.887 204.592 271.702 205.642 268.466 203.702C262.423 200.079 256.493 199.185 250.289 200.985C231.18 206.529 216.817 234.738 216.669 235.023C215.478 237.409 213.065 238.791 210.567 238.791Z" fill="#1A428A"/>
<path fill-rule="evenodd" clip-rule="evenodd" d="M203.751 218.322C203.751 218.322 169.638 191.034 155.994 197.854Z" fill="white"/>
<path d="M203.743 225.146C202.252 225.146 200.745 224.658 199.492 223.651C184.957 212.037 164.794 201.087 159.043 203.956C155.67 205.631 151.583 204.28 149.889 200.907C148.206 197.534 149.568 193.439 152.941 191.752C169.24 183.597 199.207 205.955 208.014 212.993C210.954 215.351 211.434 219.642 209.08 222.581C207.729 224.264 205.75 225.146 203.743 225.146Z" fill="#1A428A"/>
<path d="M319.736 197.854C319.736 197.854 296.925 177.386 285.62 177.386C274.318 177.386 265.155 186.552 265.155 197.854C265.155 209.16 274.318 218.322 285.62 218.322C296.925 218.322 319.736 197.854 319.736 197.854Z" fill="#6BC4E8"/>
<path d="M285.62 225.147C270.57 225.147 258.331 212.904 258.331 197.854C258.331 182.805 270.57 170.566 285.62 170.566C298.87 170.566 320.161 189.067 324.292 192.779C325.732 194.071 326.556 195.914 326.556 197.854C326.556 199.795 325.732 201.641 324.292 202.933C320.161 206.642 298.87 225.147 285.62 225.147ZM285.62 184.21C278.101 184.21 271.975 190.331 271.975 197.854C271.975 205.377 278.101 211.498 285.62 211.498C289.848 211.498 300.08 205.104 309.168 197.854C300.127 190.62 289.973 184.21 285.62 184.21Z" fill="#1A428A"/>
<path d="M103.022 181.805C103.022 181.805 117.564 208.781 128.202 212.603C138.84 216.425 150.564 210.901 154.386 200.263C158.208 189.625 152.684 177.901 142.045 174.079C131.407 170.254 103.022 181.805 103.022 181.805V181.805Z" fill="#6BC4E8"/>
<path d="M135.147 220.641C132.036 220.641 128.909 220.103 125.899 219.021C113.43 214.543 99.6452 189.933 97.014 185.042C96.0966 183.335 95.9404 181.317 96.5963 179.498C97.256 177.675 98.6536 176.215 100.446 175.481C105.591 173.396 131.876 163.195 144.345 167.653C158.504 172.744 165.887 188.399 160.808 202.566C158.344 209.429 153.355 214.918 146.758 218.022C143.068 219.771 139.11 220.641 135.147 220.641ZM112.965 185.385C119.028 195.242 126.418 204.713 130.51 206.177C133.949 207.423 137.646 207.227 140.941 205.685C144.24 204.132 146.734 201.387 147.964 197.956C150.509 190.874 146.812 183.047 139.734 180.501C135.752 179.08 123.978 181.629 112.965 185.385Z" fill="#1A428A"/>
<path d="M258.331 395.708C254.56 395.708 251.507 392.659 251.507 388.888V361.596C251.507 357.825 254.56 354.776 258.331 354.776C262.103 354.776 265.155 357.825 265.155 361.596V388.888C265.155 392.659 262.103 395.708 258.331 395.708V395.708Z" fill="white"/>
<path d="M271.975 382.064H244.687C240.916 382.064 237.863 379.011 237.863 375.24C237.863 371.469 240.916 368.42 244.687 368.42H271.975C275.747 368.42 278.799 371.469 278.799 375.24C278.799 379.011 275.747 382.064 271.975 382.064Z" fill="white"/>
<path d="M169.638 307.015H142.346C138.575 307.015 135.526 303.966 135.526 300.195C135.526 296.424 138.575 293.371 142.346 293.371H169.638C173.409 293.371 176.458 296.424 176.458 300.195C176.458 303.966 173.409 307.015 169.638 307.015Z" fill="white"/>
</g>
<defs>
<clipPath id="clip0_1_1360">
<rect width="423" height="423" fill="white"/>
</clipPath>
</defs>
</svg>
