<svg width="409" height="409" viewBox="0 0 409 409" fill="none" xmlns="http://www.w3.org/2000/svg">
<g clip-path="url(#clip0_1_1409)">
<path d="M370.094 371.388H38.9039C21.1838 371.388 6.81812 357.022 6.81812 339.302V117.175C6.81812 99.455 21.1838 85.0894 38.9039 85.0894H170.418L207.91 112.354H370.094C387.818 112.354 402.183 126.72 402.183 144.444V339.298C402.183 357.022 387.818 371.388 370.094 371.388V371.388Z" fill="#1A428A"/>
<path d="M370.098 378.206H38.9039C17.4549 378.206 0 360.751 0 339.302V117.175C0 95.7259 17.4549 78.271 38.9039 78.271H170.418C171.853 78.271 173.258 78.7313 174.424 79.5777L210.125 105.54H370.098C391.547 105.54 409.002 122.991 409.002 144.44V339.302C409.002 360.751 391.547 378.206 370.098 378.206ZM38.9039 91.9033C24.9712 91.9033 13.6323 103.242 13.6323 117.175V339.302C13.6323 353.235 24.9712 364.574 38.9039 364.574H370.098C384.03 364.574 395.365 353.235 395.365 339.302V144.44C395.365 130.507 384.03 119.172 370.098 119.172H207.91C206.471 119.172 205.066 118.712 203.9 117.865L168.199 91.9033H38.9039Z" fill="#1A428A"/>
<path d="M370.094 350.937H38.9039C21.1838 350.937 6.81812 336.572 6.81812 318.852V96.7244C6.81812 79.0043 21.1838 64.6387 38.9039 64.6387H170.418L207.91 91.9034H370.094C387.818 91.9034 402.183 106.273 402.183 123.993V318.848C402.183 336.572 387.818 350.937 370.094 350.937V350.937Z" fill="#6BC4E8"/>
<path d="M370.098 357.756H38.9039C17.4549 357.756 0 340.301 0 318.852V96.7244C0 75.2754 17.4549 57.8206 38.9039 57.8206H170.418C171.853 57.8206 173.258 58.2808 174.424 59.1272L210.125 85.0891H370.098C391.547 85.0891 409.002 102.544 409.002 123.993V318.852C409.002 340.301 391.547 357.756 370.098 357.756ZM38.9039 71.4568C24.9712 71.4568 13.6323 82.7917 13.6323 96.7244V318.852C13.6323 332.784 24.9712 344.123 38.9039 344.123H370.098C384.03 344.123 395.365 332.784 395.365 318.852V123.993C395.365 110.056 384.03 98.7215 370.098 98.7215H207.91C206.471 98.7215 205.066 98.2612 203.9 97.4148L168.199 71.4568H38.9039Z" fill="#1A428A"/>
<path d="M340.84 310.037C338.878 310.037 336.931 309.202 335.582 307.568L289.657 252.118L200.546 274.573C197.433 275.357 194.176 273.844 192.76 270.949L128.612 139.623H88.616C84.8481 139.623 81.8018 136.572 81.8018 132.804C81.8018 129.037 84.8481 125.99 88.616 125.99H132.864C135.469 125.99 137.845 127.472 138.991 129.817L202.578 260.001L290.496 237.846C293.05 237.186 295.726 238.084 297.411 240.108L346.086 298.873C348.481 301.771 348.083 306.07 345.181 308.473C343.909 309.526 342.369 310.037 340.84 310.037Z" fill="#1A428A"/>
<path d="M218.133 262.321C218.133 269.849 212.029 275.954 204.501 275.954C196.969 275.954 190.868 269.849 190.868 262.321C190.868 254.793 196.969 248.689 204.501 248.689C212.029 248.689 218.133 254.793 218.133 262.321Z" fill="#2A8EE6"/>
<path d="M204.501 282.772C193.224 282.772 184.05 273.598 184.05 262.321C184.05 251.045 193.224 241.871 204.501 241.871C215.777 241.871 224.951 251.045 224.951 262.321C224.951 273.598 215.777 282.772 204.501 282.772ZM204.501 255.503C200.741 255.503 197.683 258.561 197.683 262.321C197.683 266.081 200.741 269.139 204.501 269.139C208.261 269.139 211.315 266.081 211.315 262.321C211.315 258.561 208.261 255.503 204.501 255.503Z" fill="#1A428A"/>
<path d="M95.4341 132.804C95.4341 140.336 89.3298 146.437 81.8018 146.437C74.2699 146.437 68.1655 140.336 68.1655 132.804C68.1655 125.276 74.2699 119.172 81.8018 119.172C89.3298 119.172 95.4341 125.276 95.4341 132.804Z" fill="#2A8EE6"/>
<path d="M81.8018 153.255C70.5254 153.255 61.3513 144.081 61.3513 132.804C61.3513 121.528 70.5254 112.354 81.8018 112.354C93.0782 112.354 102.248 121.528 102.248 132.804C102.248 144.081 93.0782 153.255 81.8018 153.255ZM81.8018 125.99C78.0378 125.99 74.9837 129.044 74.9837 132.804C74.9837 136.565 78.0378 139.623 81.8018 139.623C85.5619 139.623 88.616 136.565 88.616 132.804C88.616 129.044 85.5619 125.99 81.8018 125.99Z" fill="#1A428A"/>
<path d="M306.749 248.689C306.749 256.217 300.645 262.321 293.117 262.321C285.589 262.321 279.485 256.217 279.485 248.689C279.485 241.157 285.589 235.057 293.117 235.057C300.645 235.057 306.749 241.157 306.749 248.689V248.689Z" fill="#2A8EE6"/>
<path d="M293.117 269.139C281.841 269.139 272.667 259.965 272.667 248.689C272.667 237.413 281.841 228.239 293.117 228.239C304.393 228.239 313.567 237.413 313.567 248.689C313.567 259.965 304.393 269.139 293.117 269.139ZM293.117 241.871C289.357 241.871 286.299 244.929 286.299 248.689C286.299 252.449 289.357 255.503 293.117 255.503C296.877 255.503 299.935 252.449 299.935 248.689C299.935 244.929 296.877 241.871 293.117 241.871Z" fill="#1A428A"/>
<path d="M354.468 303.222C354.468 310.75 348.364 316.855 340.832 316.855C333.304 316.855 327.2 310.75 327.2 303.222C327.2 295.691 333.304 289.59 340.832 289.59C348.364 289.59 354.468 295.691 354.468 303.222V303.222Z" fill="#2A8EE6"/>
<path d="M340.832 323.673C329.556 323.673 320.382 314.499 320.382 303.222C320.382 291.946 329.556 282.772 340.832 282.772C352.108 282.772 361.283 291.946 361.283 303.222C361.283 314.499 352.108 323.673 340.832 323.673V323.673ZM340.832 296.404C337.072 296.404 334.018 299.462 334.018 303.222C334.018 306.983 337.072 310.037 340.832 310.037C344.596 310.037 347.65 306.983 347.65 303.222C347.65 299.462 344.596 296.404 340.832 296.404Z" fill="#1A428A"/>
<path d="M354.468 91.9034C354.468 122.023 330.051 146.437 299.935 146.437C269.815 146.437 245.402 122.023 245.402 91.9034C245.402 61.7874 269.815 37.3701 299.935 37.3701C330.051 37.3701 354.468 61.7874 354.468 91.9034V91.9034Z" fill="#D7E9FF"/>
<path d="M299.935 153.255C266.102 153.255 238.583 125.737 238.583 91.9034C238.583 58.0741 266.102 30.5559 299.935 30.5559C333.764 30.5559 361.282 58.0741 361.282 91.9034C361.282 125.737 333.764 153.255 299.935 153.255ZM299.935 44.1883C273.626 44.1883 252.216 65.5944 252.216 91.9034C252.216 118.212 273.626 139.622 299.935 139.622C326.244 139.622 347.65 118.212 347.65 91.9034C347.65 65.5944 326.244 44.1883 299.935 44.1883Z" fill="#1A428A"/>
<path d="M280.284 60.1141C280.284 59.5446 280.655 59.1741 281.216 59.1741H304.928C318.42 59.1741 324.789 65.9181 324.789 76.1336C324.789 83.3495 321.423 87.4724 317.386 89.6294V89.8127C321.326 91.3183 325.92 96.3773 325.92 104.151C325.92 116.808 317.952 122.897 303.988 122.897H281.216C280.655 122.897 280.284 122.526 280.284 121.961V60.1141ZM304.647 85.6938C310.268 85.6938 313.735 82.3198 313.735 77.3505C313.735 72.2915 310.268 68.9176 304.647 68.9176H291.9C291.522 68.9176 291.334 69.1048 291.334 69.4754V85.136C291.334 85.5065 291.522 85.6938 291.9 85.6938H304.647ZM291.9 113.153H305.205C311.399 113.153 314.858 109.592 314.858 104.249C314.858 99.0024 311.399 95.4412 305.205 95.4412H291.9C291.518 95.4412 291.334 95.6245 291.334 96.0068V112.588C291.334 112.966 291.518 113.153 291.9 113.153Z" fill="#1A428A"/>
<path d="M296.526 68.0479C292.758 68.0479 289.708 64.9977 289.708 61.2298V54.4116C289.708 50.6437 292.758 47.5974 296.526 47.5974C300.294 47.5974 303.34 50.6437 303.34 54.4116V61.2298C303.34 64.9977 300.294 68.0479 296.526 68.0479Z" fill="#1A428A"/>
<path d="M296.526 136.213C292.758 136.213 289.708 133.163 289.708 129.395V122.581C289.708 118.813 292.758 115.763 296.526 115.763C300.294 115.763 303.34 118.813 303.34 122.581V129.395C303.34 133.163 300.294 136.213 296.526 136.213Z" fill="#1A428A"/>
<path d="M272.667 364.574C268.899 364.574 265.848 361.524 265.848 357.756V330.487C265.848 326.719 268.899 323.673 272.667 323.673C276.434 323.673 279.485 326.719 279.485 330.487V357.756C279.485 361.524 276.434 364.574 272.667 364.574V364.574Z" fill="white"/>
<path d="M286.299 350.938H259.034C255.266 350.938 252.216 347.891 252.216 344.123C252.216 340.355 255.266 337.305 259.034 337.305H286.299C290.067 337.305 293.117 340.355 293.117 344.123C293.117 347.891 290.067 350.938 286.299 350.938Z" fill="white"/>
<path d="M27.2686 119.172C23.5007 119.172 20.4504 116.122 20.4504 112.354V97.3056C20.4504 86.8132 28.9926 78.271 39.4811 78.271H74.9837C78.7516 78.271 81.8018 81.3212 81.8018 85.0891C81.8018 88.857 78.7516 91.9033 74.9837 91.9033H39.4811C36.505 91.9033 34.0828 94.3295 34.0828 97.3056V112.354C34.0828 116.122 31.0365 119.172 27.2686 119.172Z" fill="white"/>
</g>
<defs>
<clipPath id="clip0_1_1409">
<rect width="409" height="409" fill="white"/>
</clipPath>
</defs>
</svg>
