<svg width="409" height="409" viewBox="0 0 409 409" fill="none" xmlns="http://www.w3.org/2000/svg">
<g clip-path="url(#clip0_1_1386)">
<path d="M370.094 385.676H38.9039C21.1838 385.676 6.81812 371.31 6.81812 353.586V131.463C6.81812 113.739 21.1838 99.373 38.9039 99.373H170.418L207.91 126.642H370.094C387.818 126.642 402.183 141.007 402.183 158.727V353.586C402.183 371.31 387.818 385.676 370.094 385.676V385.676Z" fill="#1A428A"/>
<path d="M370.098 392.49H38.9039C17.4549 392.49 0 375.035 0 353.59V131.459C0 110.01 17.4549 92.5588 38.9039 92.5588H170.418C171.853 92.5588 173.258 93.0191 174.424 93.8616L210.125 119.824H370.098C391.547 119.824 409.002 137.278 409.002 158.727V353.59C409.002 375.035 391.547 392.49 370.098 392.49ZM38.9039 106.191C24.9712 106.191 13.6323 117.526 13.6323 131.459V353.59C13.6323 367.523 24.9712 378.858 38.9039 378.858H370.098C384.03 378.858 395.365 367.523 395.365 353.59V158.727C395.365 144.795 384.03 133.456 370.098 133.456H207.91C206.471 133.456 205.066 132.996 203.9 132.153L168.199 106.191H38.9039Z" fill="#1A428A"/>
<path d="M370.094 365.225H38.9039C21.1838 365.225 6.81812 350.86 6.81812 333.136V111.012C6.81812 93.2922 21.1838 78.9226 38.9039 78.9226H170.418L207.91 106.191H370.094C387.818 106.191 402.183 120.557 402.183 138.277V333.136C402.183 350.86 387.818 365.225 370.094 365.225V365.225Z" fill="#2A8EE6"/>
<path d="M370.098 372.039H38.9039C17.4549 372.039 0 354.589 0 333.14V111.012C0 89.5633 17.4549 72.1084 38.9039 72.1084H170.418C171.853 72.1084 173.258 72.5687 174.424 73.4112L210.125 99.3731H370.098C391.547 99.3731 409.002 116.828 409.002 138.277V333.14C409.002 354.589 391.547 372.039 370.098 372.039V372.039ZM38.9039 85.7407C24.9712 85.7407 13.6323 97.0757 13.6323 111.012V333.14C13.6323 347.072 24.9712 358.407 38.9039 358.407H370.098C384.03 358.407 395.365 347.072 395.365 333.14V138.277C395.365 124.344 384.03 113.009 370.098 113.009H207.91C206.471 113.009 205.066 112.549 203.9 111.703L168.199 85.7407H38.9039Z" fill="#1A428A"/>
<path d="M81.7941 324.324C80.2612 324.324 78.7244 323.809 77.4528 322.76C74.5508 320.357 74.1491 316.055 76.5479 313.161L125.223 254.396C126.908 252.375 129.587 251.497 132.138 252.129L220.056 274.284L283.643 144.1C284.789 141.76 287.165 140.274 289.766 140.274H334.018C337.786 140.274 340.832 143.324 340.832 147.092C340.832 150.86 337.786 153.906 334.018 153.906H294.022L229.874 285.233C228.458 288.131 225.201 289.633 222.088 288.857L132.977 266.401L87.052 321.851C85.7024 323.486 83.7561 324.324 81.7941 324.324V324.324Z" fill="#1A428A"/>
<path d="M231.765 276.609C231.765 284.137 225.661 290.241 218.133 290.241C210.605 290.241 204.501 284.137 204.501 276.609C204.501 269.077 210.605 262.973 218.133 262.973C225.661 262.973 231.765 269.077 231.765 276.609V276.609Z" fill="#6BC4E8"/>
<path d="M218.133 297.056C206.857 297.056 197.683 287.886 197.683 276.609C197.683 265.333 206.857 256.159 218.133 256.159C229.41 256.159 238.584 265.333 238.584 276.609C238.584 287.886 229.41 297.056 218.133 297.056ZM218.133 269.791C214.373 269.791 211.315 272.845 211.315 276.609C211.315 280.369 214.373 283.423 218.133 283.423C221.893 283.423 224.951 280.369 224.951 276.609C224.951 272.845 221.893 269.791 218.133 269.791Z" fill="#1A428A"/>
<path d="M354.468 147.092C354.468 154.62 348.364 160.724 340.832 160.724C333.304 160.724 327.2 154.62 327.2 147.092C327.2 139.56 333.304 133.456 340.832 133.456C348.364 133.456 354.468 139.56 354.468 147.092Z" fill="#6BC4E8"/>
<path d="M340.832 167.543C329.556 167.543 320.382 158.368 320.382 147.092C320.382 135.816 329.556 126.642 340.832 126.642C352.108 126.642 361.283 135.816 361.283 147.092C361.283 158.368 352.108 167.543 340.832 167.543V167.543ZM340.832 140.274C337.072 140.274 334.018 143.328 334.018 147.092C334.018 150.852 337.072 153.906 340.832 153.906C344.596 153.906 347.65 150.852 347.65 147.092C347.65 143.328 344.596 140.274 340.832 140.274Z" fill="#1A428A"/>
<path d="M143.149 262.973C143.149 270.505 137.045 276.609 129.517 276.609C121.989 276.609 115.885 270.505 115.885 262.973C115.885 255.445 121.989 249.341 129.517 249.341C137.045 249.341 143.149 255.445 143.149 262.973V262.973Z" fill="#6BC4E8"/>
<path d="M129.517 283.423C118.241 283.423 109.067 274.249 109.067 262.973C109.067 251.697 118.241 242.522 129.517 242.522C140.794 242.522 149.968 251.697 149.968 262.973C149.968 274.249 140.794 283.423 129.517 283.423ZM129.517 256.159C125.757 256.159 122.699 259.213 122.699 262.973C122.699 266.737 125.757 269.791 129.517 269.791C133.277 269.791 136.335 266.737 136.335 262.973C136.335 259.213 133.277 256.159 129.517 256.159Z" fill="#1A428A"/>
<path d="M95.4341 317.506C95.4341 325.038 89.3298 331.142 81.8018 331.142C74.2699 331.142 68.1655 325.038 68.1655 317.506C68.1655 309.978 74.2699 303.874 81.8018 303.874C89.3298 303.874 95.4341 309.978 95.4341 317.506Z" fill="#6BC4E8"/>
<path d="M81.8018 337.957C70.5254 337.957 61.3513 328.783 61.3513 317.506C61.3513 306.23 70.5254 297.056 81.8018 297.056C93.0782 297.056 102.248 306.23 102.248 317.506C102.248 328.783 93.0782 337.957 81.8018 337.957V337.957ZM81.8018 310.692C78.0378 310.692 74.9837 313.746 74.9837 317.506C74.9837 321.27 78.0378 324.324 81.8018 324.324C85.5619 324.324 88.616 321.27 88.616 317.506C88.616 313.746 85.5619 310.692 81.8018 310.692Z" fill="#1A428A"/>
<path d="M149.967 78.9224C149.967 109.042 125.55 133.456 95.4342 133.456C65.3143 133.456 40.9009 109.042 40.9009 78.9224C40.9009 48.8065 65.3143 24.3892 95.4342 24.3892C125.55 24.3892 149.967 48.8065 149.967 78.9224Z" fill="#D7E9FF"/>
<path d="M95.4342 140.274C61.601 140.274 34.0828 112.756 34.0828 78.9225C34.0828 45.0932 61.601 17.575 95.4342 17.575C129.263 17.575 156.782 45.0932 156.782 78.9225C156.782 112.756 129.263 140.274 95.4342 140.274ZM95.4342 31.2073C69.1251 31.2073 47.7151 52.6134 47.7151 78.9225C47.7151 105.232 69.1251 126.642 95.4342 126.642C121.743 126.642 143.149 105.232 143.149 78.9225C143.149 52.6134 121.743 31.2073 95.4342 31.2073Z" fill="#1A428A"/>
<path d="M75.7832 47.1331C75.7832 46.5637 76.1538 46.1931 76.7154 46.1931H100.427C113.919 46.1931 120.288 52.9371 120.288 63.1526C120.288 70.3686 116.922 74.4914 112.889 76.6484V76.8318C116.828 78.3374 121.423 83.3963 121.423 91.1701C121.423 103.827 113.455 109.916 99.4867 109.916H76.7154C76.1538 109.916 75.7832 109.545 75.7832 108.98V47.1331ZM100.146 72.7128C105.767 72.7128 109.234 69.3388 109.234 64.3696C109.234 59.3106 105.767 55.9366 100.146 55.9366H87.399C87.0206 55.9366 86.8334 56.1239 86.8334 56.4944V72.155C86.8334 72.5256 87.0206 72.7128 87.399 72.7128H100.146ZM87.399 100.173H100.708C106.898 100.173 110.357 96.6113 110.357 91.2676C110.357 86.0214 106.898 82.4602 100.708 82.4602H87.399C87.0167 82.4602 86.8334 82.6435 86.8334 83.0258V99.6069C86.8334 99.9853 87.0167 100.173 87.399 100.173Z" fill="#1A428A"/>
<path d="M92.0252 55.0669C88.2572 55.0669 85.207 52.0167 85.207 48.2488V41.4307C85.207 37.6628 88.2572 34.6165 92.0252 34.6165C95.7931 34.6165 98.8433 37.6628 98.8433 41.4307V48.2488C98.8433 52.0167 95.7931 55.0669 92.0252 55.0669Z" fill="#1A428A"/>
<path d="M92.0252 123.232C88.2572 123.232 85.207 120.182 85.207 116.414V109.6C85.207 105.832 88.2572 102.782 92.0252 102.782C95.7931 102.782 98.8433 105.832 98.8433 109.6V116.414C98.8433 120.182 95.7931 123.232 92.0252 123.232Z" fill="#1A428A"/>
<path d="M163.6 378.857C159.832 378.857 156.782 375.807 156.782 372.039V344.775C156.782 341.007 159.832 337.957 163.6 337.957C167.368 337.957 170.418 341.007 170.418 344.775V372.039C170.418 375.807 167.368 378.857 163.6 378.857Z" fill="white"/>
<path d="M177.232 365.225H149.968C146.2 365.225 143.149 362.175 143.149 358.407C143.149 354.639 146.2 351.593 149.968 351.593H177.232C181 351.593 184.05 354.639 184.05 358.407C184.05 362.175 181 365.225 177.232 365.225Z" fill="white"/>
<path d="M361.524 344.775H327.2C323.432 344.775 320.382 341.725 320.382 337.957C320.382 334.189 323.432 331.142 327.2 331.142H361.524C365.152 331.142 368.101 328.194 368.101 324.566V290.241C368.101 286.474 371.147 283.423 374.915 283.423C378.683 283.423 381.733 286.474 381.733 290.241V324.566C381.733 335.71 372.668 344.775 361.524 344.775V344.775Z" fill="white"/>
</g>
<defs>
<clipPath id="clip0_1_1386">
<rect width="409" height="409" fill="white"/>
</clipPath>
</defs>
</svg>
