<svg width="423" height="423" viewBox="0 0 423 423" fill="none" xmlns="http://www.w3.org/2000/svg">
<g clip-path="url(#clip0_1_1432)">
<path fill-rule="evenodd" clip-rule="evenodd" d="M313.839 68.6909C257.319 68.6909 211.498 114.511 211.498 171.032C211.498 227.549 257.319 273.369 313.839 273.369C370.36 273.369 416.176 227.549 416.176 171.032C416.176 114.511 370.36 68.6909 313.839 68.6909Z" fill="#1A428A"/>
<path d="M313.839 280.193C253.649 280.193 204.678 231.223 204.678 171.032C204.678 110.842 253.649 61.8708 313.839 61.8708C374.03 61.8708 423.001 110.842 423.001 171.032C423.001 231.223 374.03 280.193 313.839 280.193ZM313.839 75.515C261.172 75.515 218.322 118.36 218.322 171.032C218.322 223.7 261.172 266.545 313.839 266.545C366.507 266.545 409.356 223.7 409.356 171.032C409.356 118.36 366.507 75.515 313.839 75.515V75.515Z" fill="#1A428A"/>
<path d="M313.839 55.0469C257.319 55.0469 211.498 100.867 211.498 157.384C211.498 213.905 257.319 259.725 313.839 259.725C370.36 259.725 416.176 213.905 416.176 157.384C416.176 100.867 370.36 55.0469 313.839 55.0469Z" fill="#D7E9FF"/>
<path d="M313.839 266.545C253.649 266.545 204.678 217.575 204.678 157.384C204.678 97.1936 253.649 48.2229 313.839 48.2229C374.03 48.2229 423.001 97.1936 423.001 157.384C423.001 217.575 374.03 266.545 313.839 266.545ZM313.839 61.871C261.172 61.871 218.322 104.716 218.322 157.384C218.322 210.056 261.172 252.901 313.839 252.901C366.507 252.901 409.356 210.056 409.356 157.384C409.356 104.716 366.507 61.871 313.839 61.871V61.871Z" fill="#1A428A"/>
<path d="M313.839 75.5151C268.62 75.5151 231.967 112.169 231.967 157.384C231.967 202.599 268.62 239.257 313.839 239.257C359.055 239.257 395.708 202.599 395.708 157.384C395.708 112.169 359.055 75.5151 313.839 75.5151V75.5151Z" fill="#D7E9FF"/>
<path d="M313.839 246.081C264.935 246.081 225.146 206.288 225.146 157.384C225.146 108.48 264.935 68.6909 313.839 68.6909C362.744 68.6909 402.532 108.48 402.532 157.384C402.532 206.288 362.744 246.081 313.839 246.081V246.081ZM313.839 82.339C272.458 82.339 238.791 116.002 238.791 157.384C238.791 198.769 272.458 232.433 313.839 232.433C355.221 232.433 388.888 198.769 388.888 157.384C388.888 116.002 355.221 82.339 313.839 82.339Z" fill="#1A428A"/>
<path d="M252.435 164.208C248.664 164.208 245.615 161.155 245.615 157.384C245.615 137.763 254.075 119.083 268.82 106.122C271.658 103.639 275.96 103.916 278.447 106.742C280.937 109.573 280.66 113.886 277.826 116.369C266.028 126.742 259.259 141.69 259.259 157.384C259.259 161.155 256.206 164.208 252.435 164.208Z" fill="white"/>
<path d="M291.767 119.684C291.767 118.962 292.247 118.489 292.957 118.489H323.138C340.323 118.489 348.432 127.078 348.432 140.082C348.432 149.272 344.138 154.515 339.012 157.259V157.501C344.02 159.41 349.865 165.855 349.865 175.756C349.865 191.859 339.722 199.613 321.948 199.613H292.957C292.247 199.613 291.767 199.136 291.767 198.422V119.684ZM322.787 152.246C329.943 152.246 334.358 147.956 334.358 141.636C334.358 135.19 329.943 130.892 322.787 130.892H306.555C306.082 130.892 305.844 131.134 305.844 131.606V151.536C305.844 152.008 306.082 152.246 306.555 152.246H322.787ZM306.555 187.206H323.498C331.376 187.206 335.787 182.67 335.787 175.873C335.787 169.189 331.376 164.653 323.498 164.653H306.555C306.082 164.653 305.844 164.895 305.844 165.371V186.488C305.844 186.968 306.082 187.206 306.555 187.206Z" fill="#1A428A"/>
<path d="M313.839 130.096C310.068 130.096 307.015 127.043 307.015 123.272V109.628C307.015 105.856 310.068 102.803 313.839 102.803C317.611 102.803 320.66 105.856 320.66 109.628V123.272C320.66 127.043 317.611 130.096 313.839 130.096Z" fill="#1A428A"/>
<path d="M313.839 211.965C310.068 211.965 307.015 208.916 307.015 205.144V198.32C307.015 194.549 310.068 191.5 313.839 191.5C317.611 191.5 320.66 194.549 320.66 198.32V205.144C320.66 208.916 317.611 211.965 313.839 211.965Z" fill="#1A428A"/>
<path d="M252.435 314.067L259.259 259.725H324.072C333.492 259.725 341.128 252.089 341.128 242.669C341.128 233.249 333.492 225.613 324.072 225.613H162.821C150.293 225.613 139.858 234.369 137.168 246.081H40.9365V334.774H137.168C139.854 346.485 150.293 355.242 162.821 355.242H211.26C234.001 355.242 252.435 336.808 252.435 314.067V314.067Z" fill="#D7E9FF"/>
<path d="M211.26 362.062H162.824C149.164 362.062 137.25 353.876 132.202 341.594H40.9363C37.1652 341.594 34.1123 338.545 34.1123 334.774V246.081C34.1123 242.31 37.1652 239.257 40.9363 239.257H132.202C137.25 226.979 149.164 218.789 162.824 218.789H324.071C337.239 218.789 347.952 229.501 347.952 242.669C347.952 255.833 337.239 266.545 324.071 266.545H265.275L259.259 314.505C259.017 340.77 237.576 362.062 211.26 362.062V362.062ZM47.7565 327.95H137.172C140.349 327.95 143.106 330.148 143.82 333.247C145.866 342.18 153.681 348.418 162.824 348.418H211.26C230.202 348.418 245.615 333.009 245.615 314.064C245.615 313.779 245.634 313.497 245.665 313.212L252.489 258.87C252.915 255.462 255.819 252.901 259.259 252.901H324.071C329.717 252.901 334.308 248.314 334.308 242.669C334.308 237.024 329.717 232.433 324.071 232.433H162.824C153.681 232.433 145.866 238.671 143.82 247.607C143.106 250.703 140.349 252.901 137.172 252.901H47.7565V327.95Z" fill="#1A428A"/>
<path d="M259.259 266.545H225.146C221.375 266.545 218.322 263.496 218.322 259.725C218.322 255.954 221.375 252.901 225.146 252.901H259.259C263.03 252.901 266.079 255.954 266.079 259.725C266.079 263.496 263.03 266.545 259.259 266.545Z" fill="#1A428A"/>
<path d="M252.435 293.838H231.967C228.195 293.838 225.146 290.785 225.146 287.013C225.146 283.242 228.195 280.193 231.967 280.193H252.435C256.206 280.193 259.259 283.242 259.259 287.013C259.259 290.785 256.206 293.838 252.435 293.838Z" fill="#1A428A"/>
<path d="M252.435 321.126H231.967C228.195 321.126 225.146 318.077 225.146 314.305C225.146 310.534 228.195 307.481 231.967 307.481H252.435C256.206 307.481 259.259 310.534 259.259 314.305C259.259 318.077 256.206 321.126 252.435 321.126Z" fill="#1A428A"/>
<path d="M6.82397 225.613H61.4046V355.242H6.82397V225.613Z" fill="#6BC4E8"/>
<path d="M61.4046 362.062H6.82404C3.05286 362.062 0 359.013 0 355.242V225.613C0 221.841 3.05286 218.789 6.82404 218.789H61.4046C65.1758 218.789 68.2248 221.841 68.2248 225.613V355.242C68.2248 359.013 65.1758 362.062 61.4046 362.062ZM13.6442 348.418H54.5806V232.433H13.6442V348.418Z" fill="#1A428A"/>
<path d="M40.9364 327.95C40.9364 331.717 37.8796 334.774 34.1124 334.774C30.3451 334.774 27.2922 331.717 27.2922 327.95C27.2922 324.182 30.3451 321.126 34.1124 321.126C37.8796 321.126 40.9364 324.182 40.9364 327.95Z" fill="#6BC4E8"/>
<path d="M34.1124 341.594C26.5896 341.594 20.4683 335.473 20.4683 327.95C20.4683 320.427 26.5896 314.306 34.1124 314.306C41.6353 314.306 47.7566 320.427 47.7566 327.95C47.7566 335.473 41.6353 341.594 34.1124 341.594ZM34.1124 327.938V327.95V327.938Z" fill="#1A428A"/>
<path d="M211.498 68.691H177.386C173.615 68.691 170.566 65.6421 170.566 61.8709C170.566 58.0997 173.615 55.0469 177.386 55.0469H211.498C215.27 55.0469 218.322 58.0997 218.322 61.8709C218.322 65.6421 215.27 68.691 211.498 68.691Z" fill="#1A428A"/>
<path d="M170.566 89.1593H88.6929C84.9218 89.1593 81.8728 86.1104 81.8728 82.3392C81.8728 78.568 84.9218 75.5151 88.6929 75.5151H170.566C174.337 75.5151 177.386 78.568 177.386 82.3392C177.386 86.1104 174.337 89.1593 170.566 89.1593Z" fill="#1A428A"/>
<path d="M163.742 130.096H129.629C125.858 130.096 122.805 127.043 122.805 123.272C122.805 119.5 125.858 116.451 129.629 116.451H163.742C167.513 116.451 170.566 119.5 170.566 123.272C170.566 127.043 167.513 130.096 163.742 130.096Z" fill="#1A428A"/>
<path d="M177.386 177.852H27.2923C23.5211 177.852 20.4683 174.803 20.4683 171.032C20.4683 167.261 23.5211 164.208 27.2923 164.208H177.386C181.157 164.208 184.21 167.261 184.21 171.032C184.21 174.803 181.157 177.852 177.386 177.852Z" fill="#1A428A"/>
<path d="M313.839 375.71C310.068 375.71 307.015 372.657 307.015 368.886V341.594C307.015 337.823 310.068 334.774 313.839 334.774C317.611 334.774 320.66 337.823 320.66 341.594V368.886C320.66 372.657 317.611 375.71 313.839 375.71V375.71Z" fill="#1A428A"/>
<path d="M327.484 362.062H300.195C296.424 362.062 293.371 359.013 293.371 355.242C293.371 351.471 296.424 348.418 300.195 348.418H327.484C331.255 348.418 334.308 351.471 334.308 355.242C334.308 359.013 331.255 362.062 327.484 362.062Z" fill="#1A428A"/>
</g>
<defs>
<clipPath id="clip0_1_1432">
<rect width="423" height="423" fill="white"/>
</clipPath>
</defs>
</svg>
