<svg width="443" height="443" viewBox="0 0 443 443" fill="none" xmlns="http://www.w3.org/2000/svg">
<g clip-path="url(#clip0_1_1459)">
<path d="M54.5229 139.729H368.031V371.451H54.5229V139.729Z" fill="#2A8EE6"/>
<path d="M368.032 378.268H54.5231C50.7598 378.268 47.7063 375.218 47.7063 371.451V139.729C47.7063 135.962 50.7598 132.912 54.5231 132.912H368.032C371.795 132.912 374.844 135.962 374.844 139.729V371.451C374.844 375.218 371.795 378.268 368.032 378.268ZM61.34 364.638H361.215V146.546H61.34V364.638Z" fill="#1A428A"/>
<path d="M81.7864 160.176H272.615C295.199 160.176 313.508 178.458 313.508 201.053V214.711C313.508 237.286 295.187 255.592 272.615 255.592H81.7864V160.176Z" fill="#D7E9FF"/>
<path d="M272.611 262.405H81.7866C78.0194 262.405 74.9697 259.359 74.9697 255.592V160.176C74.9697 156.409 78.0194 153.359 81.7866 153.359H272.611C298.919 153.359 320.321 174.757 320.321 201.053V214.71C320.321 241.007 298.919 262.405 272.611 262.405ZM88.5995 248.775H272.611C291.404 248.775 306.692 233.492 306.692 214.71V201.053C306.692 182.272 291.404 166.989 272.611 166.989H88.5995V248.775Z" fill="#1A428A"/>
<path fill-rule="evenodd" clip-rule="evenodd" d="M286.245 207.882C286.245 222.939 274.042 235.145 258.985 235.145C243.928 235.145 231.722 222.939 231.722 207.882C231.722 192.825 243.928 180.622 258.985 180.622C274.042 180.622 286.245 192.825 286.245 207.882Z" fill="#2A8EE6"/>
<path d="M258.985 241.958C240.196 241.958 224.909 226.671 224.909 207.882C224.909 189.093 240.196 173.805 258.985 173.805C277.775 173.805 293.062 189.093 293.062 207.882C293.062 226.671 277.775 241.958 258.985 241.958ZM258.985 187.435C247.711 187.435 238.539 196.608 238.539 207.882C238.539 219.156 247.711 228.328 258.985 228.328C270.26 228.328 279.432 219.156 279.432 207.882C279.432 196.608 270.26 187.435 258.985 187.435V187.435Z" fill="#1A428A"/>
<path fill-rule="evenodd" clip-rule="evenodd" d="M354.402 57.9426C309.23 57.9426 272.615 94.5578 272.615 139.729C272.615 184.897 309.23 221.512 354.402 221.512C399.569 221.512 436.184 184.897 436.184 139.729C436.184 94.5578 399.569 57.9426 354.402 57.9426V57.9426Z" fill="#1A428A"/>
<path d="M354.402 228.328C305.545 228.328 265.798 188.582 265.798 139.729C265.798 90.8763 305.545 51.1296 354.402 51.1296C403.254 51.1296 443.001 90.8763 443.001 139.729C443.001 188.582 403.254 228.328 354.402 228.328V228.328ZM354.402 64.7594C313.06 64.7594 279.432 98.3912 279.432 139.729C279.432 181.067 313.06 214.699 354.402 214.699C395.739 214.699 429.367 181.067 429.367 139.729C429.367 98.3912 395.739 64.7594 354.402 64.7594V64.7594Z" fill="#1A428A"/>
<path d="M354.402 37.4961C309.23 37.4961 272.615 74.1152 272.615 119.283C272.615 164.45 309.23 201.069 354.402 201.069C399.569 201.069 436.184 164.45 436.184 119.283C436.184 74.1152 399.569 37.4961 354.402 37.4961V37.4961Z" fill="#6BC4E8"/>
<path d="M354.402 207.882C305.545 207.882 265.798 168.135 265.798 119.283C265.798 70.4298 305.545 30.6831 354.402 30.6831C403.254 30.6831 443.001 70.4298 443.001 119.283C443.001 168.135 403.254 207.882 354.402 207.882V207.882ZM354.402 44.3129C313.06 44.3129 279.432 77.9447 279.432 119.283C279.432 160.62 313.06 194.252 354.402 194.252C395.739 194.252 429.367 160.62 429.367 119.283C429.367 77.9447 395.739 44.3129 354.402 44.3129V44.3129Z" fill="#1A428A"/>
<path d="M293.062 126.099C289.299 126.099 286.245 123.05 286.245 119.283C286.245 98.602 295.48 79.2746 311.578 66.2571C314.495 63.886 318.797 64.3423 321.16 67.2711C323.531 70.1998 323.075 74.4896 320.15 76.8528C307.265 87.277 299.879 102.736 299.879 119.283C299.879 123.05 296.825 126.099 293.062 126.099V126.099Z" fill="white"/>
<path d="M332.352 81.6184C332.352 80.9008 332.828 80.429 333.541 80.429H363.691C380.854 80.429 388.954 89.0085 388.954 101.999C388.954 111.179 384.668 116.416 379.543 119.158V119.396C384.551 121.307 390.385 127.741 390.385 137.631C390.385 153.718 380.257 161.467 362.501 161.467H333.541C332.828 161.467 332.352 160.987 332.352 160.277V81.6184ZM363.34 114.15C370.484 114.15 374.899 109.865 374.899 103.547C374.899 97.1123 370.484 92.8186 363.34 92.8186H347.124C346.653 92.8186 346.411 93.0604 346.411 93.5323V113.437C346.411 113.909 346.653 114.15 347.124 114.15H363.34ZM347.124 149.073H364.05C371.915 149.073 376.322 144.542 376.322 137.752C376.322 131.076 371.915 126.544 364.05 126.544H347.124C346.653 126.544 346.411 126.782 346.411 127.262V148.356C346.411 148.835 346.653 149.073 347.124 149.073Z" fill="#1A428A"/>
<path d="M354.402 92.023C350.635 92.023 347.585 88.9733 347.585 85.2061V71.5764C347.585 67.8092 350.635 64.7595 354.402 64.7595C358.165 64.7595 361.215 67.8092 361.215 71.5764V85.2061C361.215 88.9733 358.165 92.023 354.402 92.023Z" fill="#1A428A"/>
<path d="M354.402 173.806C350.635 173.806 347.585 170.756 347.585 166.989V160.176C347.585 156.409 350.635 153.359 354.402 153.359C358.165 153.359 361.215 156.409 361.215 160.176V166.989C361.215 170.756 358.165 173.806 354.402 173.806Z" fill="#1A428A"/>
<path d="M190.833 187.435H149.939C146.176 187.435 143.123 184.39 143.123 180.623C143.123 176.855 146.176 173.806 149.939 173.806H190.833C194.596 173.806 197.646 176.855 197.646 180.623C197.646 184.39 194.596 187.435 190.833 187.435Z" fill="#1A428A"/>
<path d="M190.833 241.958H149.939C146.176 241.958 143.123 238.913 143.123 235.145C143.123 231.378 146.176 228.329 149.939 228.329H190.833C194.596 228.329 197.646 231.378 197.646 235.145C197.646 238.913 194.596 241.958 190.833 241.958Z" fill="#1A428A"/>
<path fill-rule="evenodd" clip-rule="evenodd" d="M333.955 337.375H354.402V357.821H333.955V337.375Z" fill="#1A428A"/>
<path d="M54.8623 399.12C51.099 399.12 48.0455 396.07 48.0455 392.303V139.729H6.81684C3.04964 139.729 0 136.68 0 132.912C0 129.145 3.04964 126.099 6.81684 126.099H54.8623C58.6256 126.099 61.6791 129.145 61.6791 132.912V392.303C61.6791 396.07 58.6256 399.12 54.8623 399.12Z" fill="#1A428A"/>
<path d="M20.4465 221.457C20.4465 213.962 26.538 207.882 34.1114 207.882H54.5229V282.851H34.1114C26.5653 282.851 20.4465 276.717 20.4465 269.276V221.457Z" fill="#6BC4E8"/>
<path d="M54.5231 289.669H34.1116C22.8178 289.669 13.6299 280.516 13.6299 269.273V221.461C13.6299 210.218 22.8178 201.069 34.1116 201.069H54.5231C58.2864 201.069 61.34 204.115 61.34 207.882V282.852C61.34 286.619 58.2864 289.669 54.5231 289.669ZM34.1116 214.699C30.3327 214.699 27.2636 217.733 27.2636 221.461V269.273C27.2636 273.001 30.3327 276.035 34.1116 276.035H47.7063V214.699H34.1116Z" fill="#1A428A"/>
<path d="M218.092 371.451H333.955V388.489C333.955 397.899 326.35 405.527 316.858 405.527H235.189C225.747 405.527 218.092 397.966 218.092 388.489V371.451Z" fill="#D7E9FF"/>
<path d="M316.858 412.344H235.189C222.004 412.344 211.275 401.643 211.275 388.489V371.451C211.275 367.684 214.329 364.638 218.092 364.638H333.955C337.718 364.638 340.768 367.684 340.768 371.451V388.489C340.768 401.643 330.044 412.344 316.858 412.344V412.344ZM224.909 378.268V388.489C224.909 394.128 229.519 398.715 235.189 398.715H316.858C322.525 398.715 327.138 394.128 327.138 388.489V378.268H224.909Z" fill="#1A428A"/>
<path d="M109.046 371.451H170.386V388.489C170.386 397.899 162.739 405.527 153.297 405.527H126.131C116.698 405.527 109.046 397.966 109.046 388.489V371.451Z" fill="#D7E9FF"/>
<path d="M153.301 412.344H126.131C112.954 412.344 102.229 401.643 102.229 388.489V371.451C102.229 367.684 105.283 364.638 109.046 364.638H170.386C174.149 364.638 177.199 367.684 177.199 371.451V388.489C177.199 401.643 166.478 412.344 153.301 412.344V412.344ZM115.863 378.268V388.489C115.863 394.128 120.469 398.715 126.131 398.715H153.297C158.963 398.715 163.569 394.128 163.569 388.489V378.268H115.863Z" fill="#1A428A"/>
<path d="M81.7864 255.592H272.615C295.199 255.592 313.508 273.874 313.508 296.47V310.127C313.508 332.703 295.187 351.004 272.615 351.004H81.7864V255.592Z" fill="#D7E9FF"/>
<path d="M272.611 357.821H81.7866C78.0194 357.821 74.9697 354.772 74.9697 351.004V255.592C74.9697 251.825 78.0194 248.775 81.7866 248.775H272.611C298.919 248.775 320.321 270.173 320.321 296.47V310.127C320.321 336.423 298.919 357.821 272.611 357.821ZM88.5995 344.191H272.611C291.404 344.191 306.692 328.908 306.692 310.127V296.47C306.692 277.688 291.404 262.405 272.611 262.405H88.5995V344.191Z" fill="#1A428A"/>
<path fill-rule="evenodd" clip-rule="evenodd" d="M286.245 303.298C286.245 318.355 274.042 330.558 258.985 330.558C243.928 330.558 231.722 318.355 231.722 303.298C231.722 288.241 243.928 276.035 258.985 276.035C274.042 276.035 286.245 288.241 286.245 303.298Z" fill="#2A8EE6"/>
<path d="M258.985 337.374C240.196 337.374 224.909 322.087 224.909 303.298C224.909 284.509 240.196 269.222 258.985 269.222C277.775 269.222 293.062 284.509 293.062 303.298C293.062 322.087 277.775 337.374 258.985 337.374ZM258.985 282.851C247.711 282.851 238.539 292.024 238.539 303.298C238.539 314.572 247.711 323.745 258.985 323.745C270.26 323.745 279.432 314.572 279.432 303.298C279.432 292.024 270.26 282.851 258.985 282.851V282.851Z" fill="#1A428A"/>
<path d="M190.833 282.851H149.939C146.176 282.851 143.123 279.802 143.123 276.035C143.123 272.267 146.176 269.222 149.939 269.222H190.833C194.596 269.222 197.646 272.267 197.646 276.035C197.646 279.802 194.596 282.851 190.833 282.851Z" fill="#1A428A"/>
<path d="M190.833 337.375H149.939C146.176 337.375 143.123 334.325 143.123 330.558C143.123 326.791 146.176 323.745 149.939 323.745H190.833C194.596 323.745 197.646 326.791 197.646 330.558C197.646 334.325 194.596 337.375 190.833 337.375Z" fill="#1A428A"/>
<path d="M340.768 241.958C337.005 241.958 333.955 238.913 333.955 235.145V207.882C333.955 204.115 337.005 201.069 340.768 201.069C344.531 201.069 347.585 204.115 347.585 207.882V235.145C347.585 238.913 344.531 241.958 340.768 241.958Z" fill="white"/>
<path d="M354.402 228.329H327.138C323.375 228.329 320.321 225.279 320.321 221.512C320.321 217.744 323.375 214.699 327.138 214.699H354.402C358.165 214.699 361.215 217.744 361.215 221.512C361.215 225.279 358.165 228.329 354.402 228.329Z" fill="white"/>
</g>
<defs>
<clipPath id="clip0_1_1459">
<rect width="443" height="443" fill="white"/>
</clipPath>
</defs>
</svg>
