<svg width="389" height="389" viewBox="0 0 389 389" fill="none" xmlns="http://www.w3.org/2000/svg">
<g clip-path="url(#clip0_1_1493)">
<path d="M365.166 382.175H23.9393V320.319C23.9393 287.177 53.8403 260.307 90.7234 260.307L194.555 255.921L298.382 260.307C335.269 260.307 365.166 287.173 365.166 320.319V382.175Z" fill="#6BC4E8"/>
<path d="M365.166 389.001H23.9393C20.171 389.001 17.1133 385.947 17.1133 382.175V320.315C17.1133 283.463 50.1344 253.48 90.7234 253.48L194.266 249.103L298.671 253.488H298.683C338.983 253.488 371.992 283.463 371.992 320.315V382.175C371.992 385.947 368.934 389.001 365.166 389.001V389.001ZM30.7654 375.349H358.344V320.315C358.344 290.988 331.442 267.128 298.382 267.128L194.266 262.739L91.0085 267.125C57.6633 267.128 30.7654 290.992 30.7654 320.315V375.349Z" fill="#1A428A"/>
<path d="M249.151 264.454C214.783 275.192 174.327 275.192 139.958 264.454V204.738H249.151V264.454Z" fill="#D7E9FF"/>
<path d="M194.555 279.281C175.104 279.281 155.653 276.508 137.92 270.963C135.073 270.077 133.132 267.437 133.132 264.454V204.738C133.132 200.965 136.19 197.912 139.958 197.912H249.151C252.919 197.912 255.973 200.965 255.973 204.738V264.454C255.973 267.437 254.036 270.077 251.186 270.963C233.457 276.508 214.002 279.281 194.555 279.281ZM146.78 259.354C177.06 267.753 212.049 267.753 242.325 259.354V211.56H146.78V259.354ZM249.151 264.454H249.218H249.151Z" fill="#1A428A"/>
<path fill-rule="evenodd" clip-rule="evenodd" d="M269.625 334.405H344.692V382.175H269.625V334.405Z" fill="white"/>
<path d="M344.692 389.001H269.625C265.853 389.001 262.799 385.947 262.799 382.175V334.405C262.799 330.632 265.853 327.579 269.625 327.579H344.692C348.464 327.579 351.518 330.632 351.518 334.405V382.175C351.518 385.947 348.464 389.001 344.692 389.001V389.001ZM276.447 375.349H337.87V341.227H276.447V375.349Z" fill="#1A428A"/>
<path d="M201.377 6.82593C137.303 6.82593 85.3618 58.7669 85.3618 122.841C85.3618 186.915 137.303 238.86 201.377 238.86C265.455 238.86 317.396 186.915 317.396 122.841C317.396 58.7669 265.451 6.82593 201.377 6.82593V6.82593Z" fill="#1A428A"/>
<path d="M201.377 245.686C133.644 245.686 78.5358 190.574 78.5358 122.841C78.5358 55.1119 133.644 0 201.377 0C269.114 0 324.222 55.1119 324.222 122.841C324.222 190.574 269.114 245.686 201.377 245.686V245.686ZM201.377 13.6481C141.169 13.6481 92.1839 62.633 92.1839 122.841C92.1839 183.049 141.169 232.034 201.377 232.034C261.585 232.034 310.57 183.049 310.57 122.841C310.57 62.633 261.585 13.6481 201.377 13.6481V13.6481Z" fill="#1A428A"/>
<path d="M194.555 20.4741C138.017 20.4741 92.1839 66.3076 92.1839 122.841C92.1839 179.378 138.017 225.212 194.555 225.212C251.088 225.212 296.922 179.378 296.922 122.841C296.922 66.3076 251.088 20.4741 194.555 20.4741Z" fill="#D7E9FF"/>
<path d="M194.555 232.034C134.347 232.034 85.3618 183.049 85.3618 122.841C85.3618 62.6331 134.347 13.6482 194.555 13.6482C254.763 13.6482 303.748 62.6331 303.748 122.841C303.748 183.049 254.763 232.034 194.555 232.034ZM194.555 27.3002C141.868 27.3002 99.0099 70.1581 99.0099 122.841C99.0099 175.528 141.868 218.386 194.555 218.386C247.238 218.386 290.096 175.528 290.096 122.841C290.096 70.1581 247.238 27.3002 194.555 27.3002Z" fill="#1A428A"/>
<path d="M194.555 6.82593C130.477 6.82593 78.5358 58.7669 78.5358 122.841C78.5358 186.915 130.477 238.86 194.555 238.86C258.629 238.86 310.57 186.915 310.57 122.841C310.57 58.7669 258.629 6.82593 194.555 6.82593V6.82593Z" fill="#D7E9FF"/>
<path d="M194.555 245.686C126.818 245.686 71.7098 190.574 71.7098 122.841C71.7098 55.1119 126.818 0 194.555 0C262.288 0 317.396 55.1119 317.396 122.841C317.396 190.574 262.288 245.686 194.555 245.686V245.686ZM194.555 13.6481C134.347 13.6481 85.3618 62.633 85.3618 122.841C85.3618 183.049 134.347 232.034 194.555 232.034C254.763 232.034 303.748 183.049 303.748 122.841C303.748 62.633 254.763 13.6481 194.555 13.6481Z" fill="#1A428A"/>
<path d="M194.555 40.9482C149.323 40.9482 112.658 77.6127 112.658 122.841C112.658 168.069 149.323 204.738 194.555 204.738C239.783 204.738 276.447 168.069 276.447 122.841C276.447 77.6127 239.783 40.9482 194.555 40.9482V40.9482Z" fill="#D7E9FF"/>
<path d="M194.555 211.56C145.632 211.56 105.836 171.76 105.836 122.841C105.836 73.9225 145.632 34.1223 194.555 34.1223C243.477 34.1223 283.273 73.9225 283.273 122.841C283.273 171.76 243.477 211.56 194.555 211.56V211.56ZM194.555 47.7704C153.157 47.7704 119.484 81.4476 119.484 122.841C119.484 164.238 153.157 197.912 194.555 197.912C235.948 197.912 269.625 164.238 269.625 122.841C269.625 81.4476 235.948 47.7704 194.555 47.7704Z" fill="#1A428A"/>
<path d="M133.132 129.667C129.364 129.667 126.306 126.613 126.306 122.841C126.306 106.002 132.492 89.8316 143.723 77.3043C146.238 74.4965 150.549 74.2505 153.36 76.7849C156.164 79.2958 156.402 83.6148 153.888 86.4186C144.902 96.4351 139.958 109.372 139.958 122.841C139.958 126.613 136.901 129.667 133.132 129.667Z" fill="white"/>
<path d="M172.476 85.1261C172.476 84.4076 172.952 83.9351 173.667 83.9351H203.856C221.046 83.9351 229.157 92.5262 229.157 105.534C229.157 114.726 224.862 119.971 219.734 122.716V122.958C224.745 124.868 230.59 131.315 230.59 141.218C230.59 157.326 220.445 165.082 202.665 165.082H173.667C172.952 165.082 172.476 164.602 172.476 163.891V85.1261ZM203.505 117.702C210.659 117.702 215.08 113.41 215.08 107.084C215.08 100.641 210.659 96.3414 203.505 96.3414H187.268C186.795 96.3414 186.553 96.5835 186.553 97.056V116.991C186.553 117.464 186.795 117.702 187.268 117.702H203.505ZM187.268 152.672H204.216C212.092 152.672 216.505 148.134 216.505 141.335C216.505 134.65 212.092 130.112 204.216 130.112H187.268C186.795 130.112 186.553 130.354 186.553 130.831V151.953C186.553 152.433 186.795 152.672 187.268 152.672Z" fill="#1A428A"/>
<path d="M194.555 95.5448C190.786 95.5448 187.729 92.4911 187.729 88.7188V75.0706C187.729 71.2984 190.786 68.2446 194.555 68.2446C198.323 68.2446 201.377 71.2984 201.377 75.0706V88.7188C201.377 92.4911 198.323 95.5448 194.555 95.5448Z" fill="#1A428A"/>
<path d="M194.555 177.438C190.786 177.438 187.729 174.388 187.729 170.615V163.789C187.729 160.017 190.786 156.963 194.555 156.963C198.323 156.963 201.377 160.017 201.377 163.789V170.615C201.377 174.388 198.323 177.438 194.555 177.438Z" fill="#1A428A"/>
<path d="M58.0616 368.527C54.2933 368.527 51.2356 365.473 51.2356 361.701V334.405C51.2356 330.632 54.2933 327.579 58.0616 327.579C61.83 327.579 64.8876 330.632 64.8876 334.405V361.701C64.8876 365.473 61.83 368.527 58.0616 368.527Z" fill="white"/>
<path d="M71.7098 354.879H44.4135C40.6451 354.879 37.5875 351.825 37.5875 348.053C37.5875 344.281 40.6451 341.227 44.4135 341.227H71.7098C75.482 341.227 78.5358 344.281 78.5358 348.053C78.5358 351.825 75.482 354.879 71.7098 354.879Z" fill="white"/>
</g>
<defs>
<clipPath id="clip0_1_1493">
<rect width="389" height="389" fill="white"/>
</clipPath>
</defs>
</svg>
