<svg width="430" height="430" viewBox="0 0 430 430" fill="none" xmlns="http://www.w3.org/2000/svg">
<path d="M280.074 245.71H178.292C153.624 245.71 133.624 225.714 133.624 201.046V77.8767C133.624 68.7924 140.994 61.4265 150.078 61.4265H308.284C317.373 61.4265 324.738 68.7924 324.738 77.8767V201.046C324.738 225.714 304.742 245.71 280.074 245.71V245.71Z" fill="#1A428A"/>
<path d="M280.074 252.537H178.292C149.898 252.537 126.801 229.444 126.801 201.046V77.8728C126.801 65.0431 137.24 54.5996 150.082 54.5996H308.288C321.122 54.5996 331.565 65.0431 331.565 77.8728V201.046C331.565 229.444 308.468 252.537 280.074 252.537ZM150.082 68.2495C144.77 68.2495 140.451 72.5691 140.451 77.8768V201.046C140.451 221.914 157.424 238.887 178.292 238.887H280.074C300.938 238.887 317.912 221.914 317.912 201.046V77.8728C317.912 72.5691 313.596 68.2495 308.288 68.2495H150.082Z" fill="#1A428A"/>
<path d="M298.556 109.203H133.624V48.9132C133.624 33.205 146.36 20.4729 162.068 20.4729H345.215V62.5436C345.215 88.3125 324.324 109.203 298.556 109.203V109.203Z" fill="#1A428A"/>
<path d="M298.556 116.03H133.624C129.855 116.03 126.801 112.976 126.801 109.203V48.9132C126.801 29.4713 142.618 13.646 162.068 13.646H345.215C348.988 13.646 352.042 16.7001 352.042 20.4729V62.5436C352.042 92.0306 328.046 116.03 298.556 116.03V116.03ZM140.451 102.376H298.556C320.52 102.376 338.388 84.5085 338.388 62.5436V27.2959H162.068C150.148 27.2959 140.451 36.9973 140.451 48.9132V102.376Z" fill="#1A428A"/>
<path d="M386.169 423.175H44.8933V361.307C44.8933 328.161 74.7982 301.291 111.686 301.291L215.531 296.905L319.376 301.291C356.264 301.291 386.169 328.161 386.169 361.307V423.175Z" fill="#2A8EE6"/>
<path d="M386.169 429.998H44.8933C41.1244 429.998 38.0703 426.948 38.0703 423.175V361.303C38.0703 324.45 71.0957 294.464 111.686 294.464L215.246 290.085L319.657 294.471H319.673C359.978 294.471 392.992 324.45 392.992 361.303V423.175C392.992 426.948 389.942 429.998 386.169 429.998V429.998ZM51.7202 416.348H379.342V361.303C379.342 331.976 352.441 308.114 319.372 308.114L215.246 303.724L111.975 308.106C78.6217 308.114 51.7202 331.976 51.7202 361.303V416.348Z" fill="#1A428A"/>
<path d="M283.785 305.434C249.412 316.178 208.95 316.178 174.577 305.434V245.71H283.785V305.434Z" fill="#1A428A"/>
<path d="M229.181 320.264C209.727 320.264 190.274 317.491 172.543 311.945C169.692 311.058 167.754 308.422 167.754 305.434V245.71C167.754 241.938 170.809 238.887 174.577 238.887H283.785C287.557 238.887 290.612 241.938 290.612 245.71V305.434C290.612 308.422 288.671 311.062 285.823 311.945C268.088 317.491 248.639 320.264 229.181 320.264ZM181.404 300.334C211.692 308.734 246.674 308.734 276.962 300.334V252.537H181.404V300.334ZM283.785 305.434H283.851H283.785Z" fill="#1A428A"/>
<path d="M270.135 305.434C235.762 316.178 195.3 316.178 160.927 305.434V245.71H270.135V305.434Z" fill="#6BC4E8"/>
<path d="M215.531 320.264C196.074 320.264 176.624 317.491 158.893 311.945C156.042 311.058 154.101 308.422 154.101 305.434V245.71C154.101 241.938 157.159 238.887 160.928 238.887H270.135C273.908 238.887 276.962 241.938 276.962 245.71V305.434C276.962 308.422 275.021 311.062 272.174 311.945C254.438 317.491 234.989 320.264 215.531 320.264ZM167.754 300.334C198.034 308.734 233.02 308.734 263.308 300.334V252.537H167.754V300.334ZM270.135 305.434H270.201H270.135Z" fill="#1A428A"/>
<path fill-rule="evenodd" clip-rule="evenodd" d="M290.612 375.395H365.692V423.175H290.612V375.395Z" fill="white"/>
<path d="M365.692 429.998H290.612C286.839 429.998 283.785 426.948 283.785 423.175V375.395C283.785 371.622 286.839 368.572 290.612 368.572H365.692C369.465 368.572 372.515 371.622 372.515 375.395V423.175C372.515 426.948 369.465 429.998 365.692 429.998ZM297.439 416.349H358.865V382.222H297.439V416.349Z" fill="#1A428A"/>
<path d="M266.425 245.711H164.638C139.97 245.711 119.974 225.714 119.974 201.047V77.877C119.974 68.7926 127.34 61.4268 136.428 61.4268H294.634C303.723 61.4268 311.089 68.7926 311.089 77.877V201.047C311.089 225.714 291.092 245.711 266.425 245.711V245.711Z" fill="#D7E9FF"/>
<path d="M266.421 252.538H164.642C136.248 252.538 113.151 229.444 113.151 201.047V77.8731C113.151 65.0433 123.59 54.5999 136.428 54.5999H294.638C307.472 54.5999 317.915 65.0433 317.915 77.8731V201.047C317.912 229.444 294.818 252.538 266.421 252.538V252.538ZM136.428 68.2498C131.12 68.2498 126.801 72.5693 126.801 77.877V201.047C126.801 221.914 143.774 238.888 164.642 238.888H266.421C287.284 238.888 304.262 221.914 304.262 201.047V77.8731C304.262 72.5693 299.942 68.2498 294.638 68.2498H136.428Z" fill="#1A428A"/>
<path d="M284.906 109.203H119.974V48.9132C119.974 33.205 132.71 20.4729 148.418 20.4729H331.565V62.5436C331.565 88.3125 310.675 109.203 284.906 109.203Z" fill="#6BC4E8"/>
<path d="M284.906 116.03H119.974C116.205 116.03 113.151 112.976 113.151 109.203V48.9132C113.151 29.4713 128.968 13.646 148.418 13.646H331.565C335.338 13.646 338.388 16.7001 338.388 20.4729V62.5436C338.388 92.0306 314.393 116.03 284.906 116.03V116.03ZM126.801 102.376H284.906C306.867 102.376 324.738 84.5085 324.738 62.5436V27.2959H148.418C136.498 27.2959 126.801 36.9934 126.801 48.9132V102.376Z" fill="#1A428A"/>
<path d="M208.704 47.7727H147.278C143.509 47.7727 140.451 44.7225 140.451 40.9497C140.451 37.177 143.509 34.1228 147.278 34.1228H208.704C212.477 34.1228 215.531 37.177 215.531 40.9497C215.531 44.7225 212.477 47.7727 208.704 47.7727Z" fill="white"/>
<path d="M236.008 204.761C236.008 216.067 226.842 225.238 215.531 225.238C204.221 225.238 195.054 216.067 195.054 204.761C195.054 193.45 204.221 184.284 215.531 184.284C226.842 184.284 236.008 193.45 236.008 204.761Z" fill="#6BC4E8"/>
<path d="M215.531 232.061C200.475 232.061 188.227 219.817 188.227 204.761C188.227 189.701 200.475 177.457 215.531 177.457C230.587 177.457 242.835 189.701 242.835 204.761C242.835 219.817 230.587 232.061 215.531 232.061ZM215.531 191.107C208.005 191.107 201.881 197.235 201.881 204.761C201.881 212.283 208.005 218.411 215.531 218.411C223.057 218.411 229.181 212.283 229.181 204.761C229.181 197.235 223.057 191.107 215.531 191.107Z" fill="#1A428A"/>
<path d="M99.493 27.2961C98.4659 27.2961 97.427 27.0656 96.4467 26.5775L69.1429 12.9275C65.7685 11.2403 64.4055 7.13947 66.0927 3.76897C67.776 0.402381 71.869 -0.956755 75.2473 0.714826L102.551 14.3687C105.926 16.052 107.289 20.1528 105.605 23.5233C104.406 25.9174 101.997 27.2961 99.493 27.2961Z" fill="#1A428A"/>
<path d="M92.6739 47.7727H58.5471C54.7744 47.7727 51.7202 44.7225 51.7202 40.9497C51.7202 37.177 54.7744 34.1228 58.5471 34.1228H92.6739C96.4428 34.1228 99.4969 37.177 99.4969 40.9497C99.4969 44.7225 96.4428 47.7727 92.6739 47.7727Z" fill="#1A428A"/>
<path d="M72.2049 88.7266C70.1271 88.7266 68.0767 87.7853 66.7371 85.9927C64.4758 82.9815 65.085 78.701 68.1001 76.4397L95.4039 55.9628C98.4268 53.7054 102.703 54.3108 104.957 57.3298C107.222 60.3449 106.613 64.6214 103.594 66.8828L76.294 87.3596C75.0637 88.2813 73.6265 88.7266 72.2049 88.7266Z" fill="#1A428A"/>
<path d="M85.847 402.699C82.0781 402.699 79.0201 399.644 79.0201 395.872V368.572C79.0201 364.799 82.0781 361.745 85.847 361.745C89.6159 361.745 92.6739 364.799 92.6739 368.572V395.872C92.6739 399.644 89.6159 402.699 85.847 402.699Z" fill="white"/>
<path d="M99.4969 389.049H72.1971C68.4282 389.049 65.3701 385.994 65.3701 382.222C65.3701 378.449 68.4282 375.395 72.1971 375.395H99.4969C103.266 375.395 106.324 378.449 106.324 382.222C106.324 385.994 103.266 389.049 99.4969 389.049Z" fill="white"/>
</svg>
