<svg width="436" height="436" viewBox="0 0 436 436" fill="none" xmlns="http://www.w3.org/2000/svg">
<g clip-path="url(#clip0_1_1560)">
<path d="M197.566 44.5637C92.2167 44.5637 6.81415 129.966 6.81415 235.32C6.81415 340.67 92.2167 426.072 197.566 426.072C302.916 426.072 388.323 340.67 388.323 235.32H197.566V44.5637Z" fill="#6BC4E8"/>
<path d="M197.566 432.886C88.6264 432.886 0 344.256 0 235.32C0 126.384 88.6264 37.7495 197.566 37.7495C201.328 37.7495 204.381 40.7979 204.381 44.5636V228.506H388.323C392.084 228.506 395.133 231.554 395.133 235.32C395.133 344.256 306.507 432.886 197.566 432.886V432.886ZM190.756 51.5025C92.47 55.0967 13.6243 136.172 13.6243 235.32C13.6243 336.744 96.1422 419.262 197.566 419.262C296.714 419.262 377.794 340.416 381.388 242.134H197.566C193.805 242.134 190.756 239.086 190.756 235.32V51.5025Z" fill="#1A428A"/>
<path d="M361.07 235.32C361.07 325.619 287.869 398.824 197.566 398.824C107.268 398.824 34.0628 325.619 34.0628 235.32C34.0628 145.017 107.268 71.8162 197.566 71.8162C287.869 71.8162 361.07 145.017 361.07 235.32Z" fill="#D7E9FF"/>
<path d="M197.566 405.634C103.654 405.634 27.2526 329.232 27.2526 235.32C27.2526 141.403 103.654 65.002 197.566 65.002C291.483 65.002 367.884 141.403 367.884 235.32C367.884 329.232 291.483 405.634 197.566 405.634ZM197.566 78.6263C111.166 78.6263 40.8769 148.915 40.8769 235.32C40.8769 321.72 111.166 392.009 197.566 392.009C283.967 392.009 354.26 321.72 354.26 235.32C354.26 148.915 283.967 78.6263 197.566 78.6263V78.6263Z" fill="#1A428A"/>
<path d="M323.554 174.277C321.129 174.277 318.786 172.979 317.554 170.699C306.779 150.732 291.023 133.603 271.995 121.168C268.846 119.11 267.961 114.884 270.019 111.742C272.077 108.584 276.311 107.715 279.445 109.766C300.371 123.437 317.694 142.273 329.545 164.232C331.33 167.537 330.095 171.677 326.785 173.459C325.756 174.016 324.645 174.277 323.554 174.277V174.277Z" fill="white"/>
<path d="M197.566 378.385C110.702 378.385 39.6919 310.634 34.4136 225.099C34.2031 228.482 34.0628 231.882 34.0628 235.32C34.0628 325.619 107.268 398.823 197.566 398.823C287.869 398.823 361.07 325.619 361.07 235.32C361.07 231.882 360.93 228.482 360.719 225.099C355.441 310.634 284.431 378.385 197.566 378.385V378.385Z" fill="#1A428A"/>
<path d="M197.566 405.634C103.654 405.634 27.2526 329.232 27.2526 235.32C27.2526 231.745 27.3929 228.198 27.6151 224.681C27.8373 221.087 30.8156 218.288 34.4136 218.288C38.0117 218.288 40.9899 221.087 41.2121 224.681C46.2954 307.051 114.975 371.571 197.566 371.571C280.162 371.571 348.837 307.051 353.925 224.681C354.147 221.087 357.121 218.288 360.723 218.288C364.321 218.288 367.3 221.087 367.522 224.681C367.74 228.198 367.884 231.745 367.884 235.32C367.884 329.232 291.483 405.634 197.566 405.634V405.634ZM75.8558 333.902C104.609 369.329 148.488 392.009 197.566 392.009C246.645 392.009 290.528 369.329 319.277 333.902C288.251 365.595 245.02 385.195 197.566 385.195C150.117 385.195 106.886 365.599 75.8558 333.902V333.902Z" fill="#1A428A"/>
<path d="M155.598 169.619C155.598 168.329 156.46 167.471 157.75 167.471H209.53C238.97 167.471 253.58 182.514 253.58 205.931C253.58 222.912 245.413 233.222 234.027 237.733V238.165C243.913 240.96 256.161 252.343 256.161 271.897C256.161 299.188 238.97 313.585 208.458 313.585H157.75C156.46 313.585 155.598 312.727 155.598 311.437V169.619ZM209.101 230.642C225.217 230.642 234.67 221.407 234.67 207.868C234.67 193.905 225.217 184.877 209.101 184.877H176.009C175.152 184.877 174.723 185.309 174.723 186.167V229.355C174.723 230.217 175.152 230.642 176.009 230.642H209.101ZM176.013 296.179H210.177C227.583 296.179 237.036 286.726 237.036 272.115C237.036 257.719 227.583 248.047 210.177 248.047H176.013C175.152 248.047 174.723 248.48 174.723 249.338V294.889C174.723 295.746 175.152 296.179 176.013 296.179Z" fill="#1A428A"/>
<path d="M183.942 174.004C180.18 174.004 177.128 170.956 177.128 167.19V146.752C177.128 142.986 180.18 139.942 183.942 139.942C187.704 139.942 190.756 142.986 190.756 146.752V167.19C190.756 170.956 187.704 174.004 183.942 174.004Z" fill="#1A428A"/>
<path d="M204.381 174.004C200.619 174.004 197.566 170.956 197.566 167.19V146.752C197.566 142.986 200.619 139.942 204.381 139.942C208.142 139.942 211.191 142.986 211.191 146.752V167.19C211.191 170.956 208.142 174.004 204.381 174.004Z" fill="#1A428A"/>
<path d="M183.942 337.508C180.18 337.508 177.128 334.46 177.128 330.694V310.256C177.128 306.49 180.18 303.445 183.942 303.445C187.704 303.445 190.756 306.49 190.756 310.256V330.694C190.756 334.46 187.704 337.508 183.942 337.508V337.508Z" fill="#1A428A"/>
<path d="M204.381 337.508C200.619 337.508 197.566 334.46 197.566 330.694V310.256C197.566 306.49 200.619 303.445 204.381 303.445C208.142 303.445 211.191 306.49 211.191 310.256V330.694C211.191 334.46 208.142 337.508 204.381 337.508V337.508Z" fill="#1A428A"/>
<path d="M425.204 55.3694L384.331 14.4925C379.014 9.17144 370.379 9.17144 365.062 14.4925L324.189 55.3694C318.864 60.6905 318.864 69.3134 324.189 74.6345C329.502 79.9556 338.137 79.9556 343.454 74.6345L361.07 57.0184V133.128C361.07 140.651 367.171 146.752 374.694 146.752C382.222 146.752 388.323 140.651 388.323 133.128V57.0184L405.939 74.6384C408.597 77.297 412.086 78.6302 415.571 78.6302C419.06 78.6302 422.549 77.297 425.204 74.6384C430.529 69.3134 430.529 60.6905 425.204 55.3694V55.3694Z" fill="#2A8EE6"/>
<path d="M374.695 153.566C363.425 153.566 354.26 144.397 354.26 133.128V73.4651L348.268 79.4528C340.562 87.1713 327.085 87.1713 319.367 79.4528C311.399 71.4809 311.399 58.5232 319.371 50.5513L360.244 9.67438C367.954 1.95978 381.431 1.95978 389.149 9.67438L430.022 50.5513C437.994 58.5232 437.994 71.4809 430.022 79.4528C422.311 87.1713 408.835 87.1713 401.117 79.4528L395.133 73.4651V133.128C395.133 144.401 385.964 153.566 374.695 153.566ZM361.07 50.2082C361.951 50.2082 362.832 50.372 363.678 50.7267C366.224 51.7753 367.884 54.2663 367.884 57.0185V133.131C367.884 136.889 370.941 139.942 374.695 139.942C378.452 139.942 381.509 136.889 381.509 133.131V57.0185C381.509 54.2663 383.169 51.7753 385.715 50.7267C388.256 49.6469 391.188 50.255 393.137 52.2041L410.757 69.8203C413.33 72.4009 417.817 72.4009 420.386 69.8203C423.044 67.1656 423.044 62.8424 420.39 60.1877L379.513 19.3108C376.936 16.7302 372.453 16.7302 369.884 19.3108L329.003 60.1877C326.349 62.8424 326.349 67.1656 329.003 69.8203C331.58 72.4009 336.067 72.4009 338.632 69.8203L356.256 52.2041C357.558 50.8982 359.296 50.2082 361.07 50.2082V50.2082Z" fill="#1A428A"/>
<path d="M286.131 364.761C282.369 364.761 279.32 361.712 279.32 357.947V330.694C279.32 326.928 282.369 323.884 286.131 323.884C289.892 323.884 292.945 326.928 292.945 330.694V357.947C292.945 361.712 289.892 364.761 286.131 364.761Z" fill="white"/>
<path d="M299.759 351.133H272.506C268.744 351.133 265.692 348.088 265.692 344.322C265.692 340.557 268.744 337.508 272.506 337.508H299.759C303.52 337.508 306.569 340.557 306.569 344.322C306.569 348.088 303.52 351.133 299.759 351.133Z" fill="white"/>
</g>
<defs>
<clipPath id="clip0_1_1560">
<rect width="436" height="436" fill="white"/>
</clipPath>
</defs>
</svg>
