<svg width="402" height="402" viewBox="0 0 402 402" fill="none" xmlns="http://www.w3.org/2000/svg">
<path d="M263.009 136.46C263.009 200.519 211.08 252.448 147.018 252.448C82.9592 252.448 31.0306 200.519 31.0306 136.46C31.0306 72.3978 82.9592 20.4692 147.018 20.4692C211.08 20.4692 263.009 72.3978 263.009 136.46Z" fill="#1A428A"/>
<path d="M147.018 259.272C79.305 259.272 24.2063 204.173 24.2063 136.46C24.2063 68.7435 79.305 13.6448 147.018 13.6448C214.735 13.6448 269.833 68.7435 269.833 136.46C269.833 204.173 214.739 259.272 147.018 259.272ZM147.018 27.2935C86.8243 27.2935 37.8512 76.2667 37.8512 136.46C37.8512 196.654 86.8243 245.627 147.018 245.627C207.211 245.627 256.189 196.654 256.189 136.46C256.189 76.2667 207.211 27.2935 147.018 27.2935Z" fill="#1A428A"/>
<path d="M263.009 122.812C263.009 186.87 211.08 238.803 147.018 238.803C82.9592 238.803 31.0306 186.87 31.0306 122.812C31.0306 58.753 82.9592 6.82446 147.018 6.82446C211.08 6.82446 263.009 58.753 263.009 122.812Z" fill="#2A8EE6"/>
<path d="M147.018 245.627C79.305 245.627 24.2063 190.528 24.2063 122.812C24.2063 55.0987 79.305 0 147.018 0C214.735 0 269.833 55.0987 269.833 122.812C269.833 190.528 214.739 245.627 147.018 245.627ZM147.018 13.6449C86.8243 13.6449 37.8512 62.618 37.8512 122.812C37.8512 183.005 86.8243 231.978 147.018 231.978C207.211 231.978 256.189 183.005 256.189 122.812C256.189 62.618 207.211 13.6449 147.018 13.6449Z" fill="#1A428A"/>
<path d="M66.3434 78.457C65.0902 78.457 63.8252 78.1096 62.6852 77.3912C59.5073 75.3728 58.5664 71.1564 60.5926 67.9706C70.4466 52.4791 84.2867 39.8922 100.61 31.5765C103.967 29.8509 108.074 31.1978 109.784 34.5553C111.498 37.9129 110.167 42.0239 106.806 43.73C92.6493 50.9448 80.6481 61.8607 72.1059 75.2986C70.8097 77.3366 68.6039 78.457 66.3434 78.457Z" fill="white"/>
<path d="M367.635 391.188C362.306 396.517 353.666 396.517 348.337 391.188L261.494 304.349L280.792 285.047L367.635 371.89C372.964 377.219 372.964 385.859 367.635 391.188V391.188Z" fill="#2A8EE6"/>
<path d="M357.992 401.998C352.749 401.998 347.506 400.007 343.512 396.021L256.673 309.17C254.01 306.508 254.01 302.186 256.673 299.523L275.971 280.229C278.633 277.563 282.951 277.563 285.618 280.229L372.465 367.068C380.441 375.048 380.441 388.033 372.469 396.017C372.465 396.017 372.465 396.017 372.465 396.025C368.471 400.007 363.227 401.998 357.992 401.998ZM367.639 391.192H367.705H367.639ZM271.145 304.349L353.163 386.37C355.825 389.029 360.151 389.013 362.814 386.37C365.476 383.704 365.476 379.37 362.81 376.715L280.792 294.698L271.145 304.349Z" fill="#1A428A"/>
<path d="M222.07 122.812C222.07 164.262 188.472 197.864 147.018 197.864C105.568 197.864 71.9691 164.262 71.9691 122.812C71.9691 81.3617 105.568 47.759 147.018 47.759C188.472 47.759 222.07 81.3617 222.07 122.812Z" fill="#6BC4E8"/>
<path d="M147.018 204.689C101.871 204.689 65.1448 167.963 65.1448 122.812C65.1448 77.6644 101.871 40.9385 147.018 40.9385C192.169 40.9385 228.895 77.6644 228.895 122.812C228.895 167.963 192.169 204.689 147.018 204.689ZM147.018 54.5833C109.402 54.5833 78.7896 85.1916 78.7896 122.812C78.7896 160.432 109.402 191.044 147.018 191.044C184.638 191.044 215.25 160.432 215.25 122.812C215.25 85.1916 184.638 54.5833 147.018 54.5833Z" fill="#1A428A"/>
<path d="M121.536 81.6973C121.536 80.9751 122.012 80.5027 122.727 80.5027H152.909C170.095 80.5027 178.204 89.0917 178.204 102.096C178.204 111.287 173.909 116.53 168.783 119.274V119.516C173.792 121.429 179.637 127.871 179.637 137.772C179.637 153.877 169.494 161.63 151.718 161.63H122.727C122.012 161.63 121.536 161.154 121.536 160.439V81.6973ZM152.558 114.265C159.714 114.265 164.13 109.971 164.13 103.65C164.13 97.2045 159.714 92.906 152.558 92.906H136.325C135.852 92.906 135.61 93.1481 135.61 93.6205V113.551C135.61 114.023 135.852 114.265 136.325 114.265H152.558ZM136.328 149.223H153.272C161.147 149.223 165.559 144.686 165.559 137.889C165.559 131.205 161.147 126.669 153.272 126.669H136.328C135.852 126.669 135.614 126.911 135.614 127.391V148.504C135.614 148.985 135.852 149.223 136.328 149.223Z" fill="#1A428A"/>
<path d="M136.785 92.1095C133.014 92.1095 129.961 89.0565 129.961 85.2852V71.6403C129.961 67.8689 133.014 64.8159 136.785 64.8159C140.557 64.8159 143.61 67.8689 143.61 71.6403V85.2852C143.61 89.0565 140.557 92.1095 136.785 92.1095Z" fill="#1A428A"/>
<path d="M157.254 92.1095C153.483 92.1095 150.43 89.0565 150.43 85.2852V71.6403C150.43 67.8689 153.483 64.8159 157.254 64.8159C161.026 64.8159 164.079 67.8689 164.079 71.6403V85.2852C164.079 89.0565 161.026 92.1095 157.254 92.1095Z" fill="#1A428A"/>
<path d="M143.61 173.983C139.838 173.983 136.785 170.934 136.785 167.162V160.338C136.785 156.566 139.838 153.517 143.61 153.517C147.381 153.517 150.43 156.566 150.43 160.338V167.162C150.43 170.934 147.381 173.983 143.61 173.983Z" fill="#1A428A"/>
<path d="M208.426 136.46C155.669 136.46 112.904 179.226 112.904 231.978C112.904 284.735 155.669 327.5 208.426 327.5C261.182 327.5 303.948 284.735 303.948 231.978C303.948 179.226 261.182 136.46 208.426 136.46V136.46ZM208.426 307.031C166.976 307.031 133.373 273.432 133.373 231.978C133.373 190.528 166.976 156.926 208.426 156.926C249.876 156.926 283.478 190.528 283.478 231.978C283.478 273.432 249.876 307.031 208.426 307.031Z" fill="#D7E9FF"/>
<path d="M208.426 334.325C151.992 334.325 106.083 288.416 106.083 231.978C106.083 175.544 151.992 129.636 208.426 129.636C264.863 129.636 310.772 175.544 310.772 231.978C310.772 288.416 264.863 334.325 208.426 334.325V334.325ZM208.426 143.281C159.519 143.281 119.728 183.072 119.728 231.978C119.728 280.885 159.519 320.676 208.426 320.676C257.332 320.676 297.123 280.885 297.123 231.978C297.123 183.072 257.332 143.281 208.426 143.281V143.281ZM208.426 313.855C163.278 313.855 126.552 277.129 126.552 231.978C126.552 186.831 163.278 150.105 208.426 150.105C253.577 150.105 290.303 186.831 290.303 231.978C290.303 277.129 253.577 313.855 208.426 313.855ZM208.426 163.75C170.806 163.75 140.197 194.358 140.197 231.978C140.197 269.598 170.806 300.21 208.426 300.21C246.046 300.21 276.654 269.598 276.654 231.978C276.654 194.358 246.046 163.75 208.426 163.75V163.75Z" fill="#1A428A"/>
<path d="M181.136 245.627C177.365 245.627 174.312 242.574 174.312 238.803V211.509C174.312 207.738 177.365 204.688 181.136 204.688C184.907 204.688 187.956 207.738 187.956 211.509V238.803C187.956 242.574 184.907 245.627 181.136 245.627Z" fill="white"/>
<path d="M194.781 231.978H167.487C163.716 231.978 160.667 228.929 160.667 225.158C160.667 221.387 163.716 218.333 167.487 218.333H194.781C198.552 218.333 201.605 221.387 201.605 225.158C201.605 228.929 198.552 231.978 194.781 231.978Z" fill="white"/>
</svg>
