<svg width="397" height="397" viewBox="0 0 397 397" fill="none" xmlns="http://www.w3.org/2000/svg">
<g clip-path="url(#clip0_1_1578)">
<path d="M157.895 206.559L215.698 148.757L234.965 168.024L177.163 225.826L157.895 206.559Z" fill="#1A428A"/>
<path d="M177.167 232.636C175.424 232.636 173.678 231.969 172.349 230.64L153.081 211.377C151.803 210.098 151.086 208.367 151.086 206.559C151.086 204.75 151.803 203.023 153.081 201.745L210.884 143.943C213.542 141.28 217.857 141.28 220.516 143.943L239.779 163.206C242.441 165.868 242.441 170.179 239.779 172.838L181.981 230.64C180.651 231.969 178.909 232.636 177.167 232.636ZM167.531 206.559L177.167 216.191L225.333 168.02L215.702 158.388L167.531 206.559Z" fill="#1A428A"/>
<path d="M122.054 6.81348C65.6196 6.81348 19.8735 52.5595 19.8735 108.994C19.8735 165.428 65.6196 211.174 122.054 211.174C178.488 211.174 224.234 165.428 224.234 108.994C224.234 52.5595 178.488 6.81348 122.054 6.81348Z" fill="#1A428A"/>
<path d="M122.054 217.988C61.9556 217.988 13.0601 169.092 13.0601 108.994C13.0601 48.8956 61.9556 0 122.054 0C182.152 0 231.048 48.8956 231.048 108.994C231.048 169.092 182.152 217.988 122.054 217.988ZM122.054 13.6232C69.4669 13.6232 26.6833 56.4069 26.6833 108.994C26.6833 161.581 69.4669 204.364 122.054 204.364C174.641 204.364 217.424 161.581 217.424 108.994C217.424 56.4069 174.641 13.6232 122.054 13.6232Z" fill="#1A428A"/>
<path d="M186.798 216.195L221.478 250.874L244.601 245.094L242.535 271.931L270.612 300.008L278.318 298.082L283.136 312.532L297.585 326.981H316.853L319.262 348.658L350.57 379.97L377.508 384.885L389.108 341.435L225.333 177.66L186.798 216.195Z" fill="#1A428A"/>
<path d="M377.516 391.699C377.111 391.699 376.698 391.663 376.284 391.585L349.35 386.666C347.989 386.421 346.734 385.762 345.756 384.787L314.448 353.472C313.352 352.38 312.662 350.946 312.495 349.406L310.756 333.795H297.585C295.781 333.795 294.05 333.074 292.771 331.799L278.322 317.349C277.573 316.605 277.012 315.693 276.677 314.687L273.855 306.221L272.264 306.618C269.945 307.184 267.489 306.513 265.798 304.822L237.721 276.749C236.314 275.345 235.593 273.389 235.745 271.409L237.086 253.996L223.135 257.481C220.804 258.085 218.356 257.384 216.664 255.692L181.985 221.008C179.326 218.346 179.326 214.035 181.985 211.377L220.519 172.846C223.182 170.183 227.493 170.183 230.151 172.846L393.926 336.613C395.645 338.332 396.316 340.838 395.692 343.185L384.092 386.639C383.281 389.668 380.545 391.699 377.516 391.699ZM353.887 373.651L372.55 377.054L381.515 343.473L225.333 187.295L196.43 216.194L223.568 243.336L242.952 238.491C245.076 237.949 247.325 238.479 248.998 239.894C250.67 241.305 251.562 243.433 251.395 245.624L249.571 269.331L272.709 292.461L276.673 291.471C280.119 290.625 283.662 292.555 284.784 295.93L289.092 308.856L300.407 320.172H316.857C320.33 320.172 323.241 322.779 323.627 326.233L325.771 345.531L353.887 373.651Z" fill="#1A428A"/>
<path d="M147.675 216.779L205.477 158.977L224.745 178.244L166.942 236.047L147.675 216.779Z" fill="#6BC4E8"/>
<path d="M166.946 242.856C165.204 242.856 163.462 242.19 162.132 240.861L142.865 221.593C141.586 220.319 140.869 218.588 140.869 216.779C140.869 214.971 141.586 213.24 142.865 211.961L200.667 154.159C203.326 151.501 207.637 151.501 210.299 154.159L229.563 173.427C232.221 176.085 232.221 180.396 229.563 183.058L171.764 240.861C170.435 242.19 168.689 242.856 166.946 242.856ZM157.311 216.775L166.946 226.411L215.113 178.24L205.481 168.609L157.311 216.775Z" fill="#1A428A"/>
<path d="M111.837 17.03C55.4033 17.03 9.65332 62.78 9.65332 119.21C9.65332 175.644 55.4033 221.394 111.837 221.394C168.268 221.394 214.018 175.644 214.018 119.21C214.018 62.78 168.268 17.03 111.837 17.03Z" fill="#D7E9FF"/>
<path d="M111.838 228.204C51.7393 228.204 2.84375 179.309 2.84375 119.21C2.84375 59.1121 51.7393 10.2166 111.838 10.2166C171.936 10.2166 220.831 59.1121 220.831 119.21C220.831 179.309 171.936 228.204 111.838 228.204ZM111.838 23.8437C59.2467 23.8437 16.467 66.6234 16.467 119.21C16.467 171.801 59.2467 214.581 111.838 214.581C164.424 214.581 207.204 171.801 207.204 119.21C207.204 66.6234 164.424 23.8437 111.838 23.8437Z" fill="#1A428A"/>
<path d="M111.837 37.4668C66.6877 37.4668 30.0901 74.0644 30.0901 119.21C30.0901 164.356 66.6877 200.957 111.837 200.957C156.983 200.957 193.581 164.356 193.581 119.21C193.581 74.0683 156.983 37.4668 111.837 37.4668Z" fill="#6BC4E8"/>
<path d="M111.837 207.771C63.0043 207.771 23.2766 168.04 23.2766 119.21C23.2766 70.381 63.0043 30.6533 111.837 30.6533C160.667 30.6533 200.394 70.381 200.394 119.21C200.394 168.04 160.667 207.771 111.837 207.771ZM111.837 44.2805C70.5156 44.2805 36.9038 77.8923 36.9038 119.21C36.9038 160.532 70.5156 194.144 111.837 194.144C153.155 194.144 186.767 160.532 186.767 119.21C186.767 77.8923 153.152 44.2805 111.837 44.2805Z" fill="#1A428A"/>
<path d="M50.527 126.024C46.7655 126.024 43.7134 122.976 43.7134 119.21C43.7134 105.56 47.7399 92.3807 55.3526 81.1196C57.4614 78.0091 61.6906 77.1866 64.8128 79.2915C67.9312 81.3925 68.7498 85.6334 66.641 88.744C60.5563 97.7521 57.3405 108.292 57.3405 119.214C57.3405 122.976 54.2884 126.024 50.527 126.024Z" fill="white"/>
<path d="M89.7947 81.568C89.7947 80.8469 90.2741 80.3752 90.9874 80.3752H121.122C138.277 80.3752 146.373 88.9507 146.373 101.935C146.373 111.11 142.089 116.345 136.967 119.086V119.327C141.972 121.237 147.804 127.669 147.804 137.554C147.804 153.633 137.681 161.374 119.93 161.374H90.9874C90.2741 161.374 89.7947 160.899 89.7947 160.185V81.568ZM120.771 114.085C127.912 114.085 132.325 109.801 132.325 103.486C132.325 97.0545 127.912 92.7629 120.771 92.7629H104.564C104.092 92.7629 103.851 93.0006 103.851 93.4723V113.371C103.851 113.843 104.092 114.085 104.564 114.085H120.771ZM104.564 148.99H121.481C129.343 148.99 133.748 144.461 133.748 137.675C133.748 131.001 129.343 126.472 121.481 126.472H104.564C104.092 126.472 103.851 126.71 103.851 127.189V148.269C103.851 148.749 104.092 148.99 104.564 148.99Z" fill="#1A428A"/>
<path d="M111.837 91.9638C108.072 91.9638 105.024 88.9156 105.024 85.1502V71.527C105.024 67.7616 108.072 64.7134 111.837 64.7134C115.599 64.7134 118.647 67.7616 118.647 71.527V85.1502C118.647 88.9156 115.599 91.9638 111.837 91.9638Z" fill="#1A428A"/>
<path d="M111.837 173.707C108.072 173.707 105.024 170.663 105.024 166.897V160.084C105.024 156.318 108.072 153.274 111.837 153.274C115.599 153.274 118.647 156.318 118.647 160.084V166.897C118.647 170.663 115.599 173.707 111.837 173.707Z" fill="#1A428A"/>
<path d="M176.578 226.411L211.262 261.095L234.38 255.314L232.318 282.151L260.391 310.224L268.101 308.298L272.915 322.748L287.369 337.202H306.636L309.045 358.874L340.353 390.186L377.508 384.885L378.888 351.651L215.113 187.876L176.578 226.411Z" fill="#6BC4E8"/>
<path d="M340.353 397C338.56 397 336.826 396.286 335.535 395.004L304.227 363.692C303.132 362.601 302.442 361.162 302.274 359.626L300.54 344.011H287.369C285.56 344.011 283.829 343.294 282.551 342.016L268.101 327.566C267.353 326.822 266.792 325.909 266.456 324.908L263.634 316.437L262.044 316.835C259.729 317.4 257.269 316.73 255.577 315.038L227.5 286.969C226.093 285.566 225.372 283.613 225.528 281.625L226.865 264.213L212.914 267.702C210.587 268.306 208.136 267.6 206.444 265.913L171.764 231.225C169.106 228.567 169.106 224.252 171.764 221.593L210.299 183.062C212.961 180.404 217.272 180.404 219.931 183.062L383.706 346.833C385.051 348.174 385.776 350.026 385.694 351.928L384.314 385.166C384.178 388.452 381.722 391.165 378.467 391.628L341.316 396.934C340.996 396.98 340.673 397 340.353 397V397ZM315.551 355.748L342.762 382.963L370.936 378.945L371.958 354.353L215.117 197.512L186.214 226.411L213.351 253.552L232.731 248.711C234.868 248.165 237.109 248.695 238.781 250.114C240.453 251.525 241.346 253.654 241.178 255.84L239.35 279.551L262.488 302.682L266.452 301.692C269.902 300.865 273.441 302.775 274.568 306.147L278.875 319.072L290.191 330.388H306.64C310.109 330.388 313.025 332.996 313.407 336.449L315.551 355.748Z" fill="#1A428A"/>
<path d="M241.264 241.831C237.503 241.831 234.455 238.783 234.455 235.018V207.771C234.455 204.006 237.503 200.958 241.264 200.958C245.03 200.958 248.078 204.006 248.078 207.771V235.018C248.078 238.783 245.03 241.831 241.264 241.831Z" fill="white"/>
<path d="M254.891 228.204H227.641C223.879 228.204 220.831 225.16 220.831 221.394C220.831 217.629 223.879 214.581 227.641 214.581H254.891C258.653 214.581 261.701 217.629 261.701 221.394C261.701 225.16 258.653 228.204 254.891 228.204Z" fill="white"/>
</g>
<defs>
<clipPath id="clip0_1_1578">
<rect width="397" height="397" fill="white"/>
</clipPath>
</defs>
</svg>
