<svg width="409" height="409" viewBox="0 0 409 409" fill="none" xmlns="http://www.w3.org/2000/svg">
<g clip-path="url(#clip0_1_1600)">
<path d="M204.501 409.324C202.824 409.324 201.146 409.301 199.481 409.262C195.713 409.168 192.737 406.04 192.83 402.28C192.924 398.524 196.275 395.536 199.816 395.63C208.53 395.875 217.423 395.462 226.102 394.479C229.776 394.124 233.22 396.749 233.638 400.49C234.059 404.23 231.364 407.604 227.627 408.029C219.99 408.891 212.208 409.324 204.501 409.324ZM172.532 406.738C172.173 406.738 171.807 406.711 171.44 406.653C162.196 405.155 152.959 402.99 143.996 400.217C140.4 399.105 138.391 395.283 139.502 391.686C140.614 388.094 144.413 386.089 148.029 387.193C156.388 389.783 164.996 391.799 173.612 393.192C177.334 393.793 179.857 397.291 179.257 401.009C178.718 404.355 175.824 406.738 172.532 406.738ZM253.647 403.166C250.613 403.166 247.836 401.114 247.052 398.04C246.119 394.389 248.315 390.676 251.966 389.744C260.434 387.579 268.832 384.798 276.934 381.471C280.409 380.059 284.403 381.697 285.827 385.188C287.258 388.667 285.593 392.65 282.113 394.081C273.423 397.65 264.417 400.638 255.344 402.955C254.779 403.099 254.205 403.166 253.647 403.166V403.166ZM120.604 390.696C119.633 390.696 118.646 390.489 117.714 390.052C109.234 386.062 100.953 381.455 93.1095 376.349C89.954 374.302 89.0569 370.077 91.1124 366.926C93.1641 363.77 97.3923 362.857 100.54 364.929C107.869 369.687 115.592 373.993 123.506 377.707C126.915 379.314 128.378 383.374 126.783 386.775C125.617 389.252 123.167 390.696 120.604 390.696V390.696ZM303.96 382.52C301.616 382.52 299.334 381.311 298.063 379.138C296.171 375.885 297.271 371.712 300.516 369.812C308.087 365.401 315.408 360.427 322.273 355.029C325.249 352.693 329.524 353.223 331.845 356.172C334.174 359.136 333.655 363.415 330.698 365.744C323.346 371.532 315.494 376.86 307.389 381.596C306.308 382.224 305.127 382.52 303.96 382.52V382.52ZM75.0696 361.067C73.4859 361.067 71.8945 360.521 70.6035 359.402C63.5279 353.258 56.8034 346.573 50.6328 339.528C48.1481 336.701 48.4368 332.394 51.2646 329.91C54.0886 327.441 58.4065 327.706 60.8833 330.542C66.6483 337.118 72.9282 343.363 79.5357 349.096C82.3792 351.565 82.6873 355.872 80.2222 358.715C78.8687 360.268 76.973 361.067 75.0696 361.067ZM346.71 348.956C345.006 348.956 343.301 348.324 341.979 347.049C339.268 344.431 339.19 340.117 341.803 337.407C347.876 331.123 353.575 324.348 358.739 317.28C360.97 314.23 365.238 313.578 368.268 315.794C371.311 318.017 371.97 322.284 369.751 325.319C364.212 332.897 358.115 340.145 351.617 346.873C350.279 348.258 348.497 348.956 346.71 348.956V348.956ZM39.2705 320.186C37.0511 320.186 34.8824 319.109 33.5718 317.116C28.4114 309.288 23.7581 301.026 19.725 292.558C18.1063 289.157 19.5494 285.089 22.9546 283.474C26.3559 281.863 30.4163 283.306 32.0389 286.704C35.7951 294.606 40.1403 302.313 44.9536 309.623C47.0248 312.763 46.1588 316.991 43.0111 319.062C41.8566 319.819 40.5538 320.186 39.2705 320.186ZM378.745 305.075C377.653 305.075 376.553 304.818 375.523 304.264C372.208 302.477 370.96 298.351 372.746 295.027C376.889 287.328 380.52 279.273 383.551 271.09C384.857 267.556 388.773 265.738 392.303 267.064C395.837 268.371 397.643 272.287 396.333 275.817C393.091 284.589 389.191 293.225 384.756 301.487C383.523 303.776 381.175 305.075 378.745 305.075V305.075ZM15.9103 271.078C13.0083 271.078 10.3247 269.221 9.40807 266.304C6.59189 257.36 4.38029 248.139 2.83178 238.906C2.2116 235.197 4.71184 231.683 8.42904 231.059C12.115 230.419 15.6528 232.943 16.2769 236.656C17.7201 245.264 19.7835 253.865 22.4163 262.22C23.5475 265.805 21.5504 269.635 17.9541 270.766C17.2754 270.977 16.5889 271.078 15.9103 271.078V271.078ZM397.616 254.13C397.132 254.13 396.645 254.076 396.153 253.97C392.471 253.163 390.15 249.531 390.954 245.853C392.818 237.335 394.109 228.578 394.788 219.837C395.081 216.077 398.334 213.249 402.109 213.565C405.866 213.861 408.674 217.134 408.381 220.89C407.656 230.255 406.271 239.636 404.266 248.767C403.568 251.962 400.752 254.13 397.616 254.13ZM6.89613 217.496C3.22964 217.496 0.206728 214.579 0.0858116 210.885C0.0273037 208.868 0 206.852 0 204.824C0 197.456 0.390053 190.017 1.17796 182.735C1.57581 178.994 4.89126 176.225 8.67867 176.681C12.4193 177.083 15.1301 180.445 14.7323 184.186C14.0068 190.988 13.6323 197.931 13.6323 204.824C13.6323 206.704 13.6596 208.592 13.7221 210.472C13.8313 214.236 10.8786 217.376 7.11066 217.496C7.04435 217.496 6.97024 217.496 6.89613 217.496ZM402.183 211.638C398.416 211.638 395.365 208.592 395.365 204.824C395.365 196.051 394.769 187.221 393.575 178.573C393.068 174.848 395.677 171.404 399.406 170.893C403.127 170.405 406.572 172.995 407.09 176.724C408.354 185.976 409.002 195.435 409.002 204.824C409.002 208.592 405.951 211.638 402.183 211.638V211.638ZM12.7274 163.462C12.1774 163.462 11.6236 163.396 11.0619 163.256C7.4149 162.343 5.1916 158.641 6.11213 154.987C8.38223 145.914 11.3154 136.9 14.8376 128.194C16.2496 124.703 20.2242 123.022 23.7113 124.434C27.1984 125.842 28.8834 129.816 27.4714 133.304C24.1911 141.428 21.4568 149.834 19.331 158.302C18.5587 161.399 15.7854 163.462 12.7274 163.462ZM394.761 157.803C391.792 157.803 389.054 155.849 388.212 152.837C385.832 144.432 382.841 136.104 379.319 128.081C377.797 124.633 379.361 120.611 382.813 119.102C386.273 117.577 390.283 119.149 391.792 122.597C395.576 131.189 398.782 140.126 401.325 149.136C402.351 152.759 400.249 156.527 396.617 157.545C395.997 157.725 395.381 157.803 394.761 157.803ZM33.0765 113.103C31.9258 113.103 30.7557 112.81 29.683 112.198C26.4222 110.322 25.2949 106.148 27.1711 102.887C31.84 94.7898 37.1252 86.9146 42.8824 79.4997C45.1915 76.5314 49.4743 75.9892 52.4504 78.2944C55.4265 80.6035 55.9648 84.8902 53.6557 87.8585C48.2768 94.782 43.3427 102.134 38.9936 109.69C37.7337 111.878 35.4363 113.103 33.0765 113.103ZM372.89 108.024C370.601 108.024 368.374 106.874 367.083 104.783C362.499 97.3485 357.347 90.152 351.765 83.3924C349.366 80.4904 349.78 76.1959 352.682 73.7932C355.592 71.4061 359.886 71.8234 362.281 74.7137C368.253 81.9492 373.78 89.6567 378.691 97.6332C380.66 100.836 379.67 105.036 376.459 107.01C375.348 107.701 374.111 108.024 372.89 108.024V108.024ZM66.4026 70.1852C64.6317 70.1852 62.8609 69.5026 61.523 68.1296C58.8941 65.4422 58.9487 61.1204 61.6439 58.4914C68.3607 51.9347 75.5844 45.7913 83.1124 40.2292C86.1471 37.9942 90.4064 38.6378 92.6453 41.6685C94.8842 44.6992 94.2368 48.9664 91.206 51.2014C84.1851 56.3891 77.4411 62.1267 71.1612 68.2506C69.8351 69.5416 68.1188 70.1852 66.4026 70.1852ZM338.285 66.1014C336.631 66.1014 334.977 65.5085 333.671 64.3032C327.215 58.3588 320.311 52.8318 313.142 47.8703C310.045 45.7289 309.273 41.4812 311.414 38.3881C313.552 35.2911 317.799 34.5149 320.9 36.6602C328.584 41.9805 335.98 47.8976 342.895 54.2633C345.673 56.8103 345.844 61.1243 343.301 63.8937C341.959 65.3603 340.122 66.1014 338.285 66.1014V66.1014ZM110.147 37.8928C107.729 37.8928 105.384 36.6095 104.152 34.3394C102.35 31.0317 103.575 26.8894 106.878 25.0912C115.116 20.6056 123.744 16.6583 132.52 13.3545C136.039 12.0323 139.982 13.8109 141.301 17.3292C142.631 20.8591 140.844 24.787 137.326 26.1093C129.131 29.1946 121.084 32.8806 113.4 37.0619C112.363 37.6275 111.243 37.8928 110.147 37.8928ZM293.636 35.1429C292.606 35.1429 291.553 34.9088 290.566 34.4096C282.773 30.4622 274.624 27.0298 266.336 24.1941C262.775 22.9732 260.879 19.0922 262.096 15.531C263.321 11.9698 267.186 10.0859 270.755 11.2912C279.629 14.3336 288.37 18.0157 296.717 22.2438C300.079 23.9484 301.425 28.0478 299.728 31.4023C298.523 33.7816 296.128 35.1429 293.636 35.1429V35.1429ZM161.022 18.7529C157.909 18.7529 155.093 16.6037 154.379 13.4286C153.556 9.76215 155.865 6.11515 159.539 5.28824C168.659 3.23656 178.032 1.80507 187.397 1.02886C191.095 0.720723 194.434 3.5096 194.753 7.26581C195.062 11.0142 192.273 14.3102 188.516 14.6222C179.783 15.3399 171.034 16.6778 162.519 18.589C162.02 18.7022 161.517 18.7529 161.022 18.7529ZM242.231 17.5515C241.805 17.5515 241.365 17.5125 240.932 17.4228C232.374 15.7729 223.59 14.6924 214.825 14.2283C211.065 14.0215 208.183 10.8114 208.382 7.05128C208.589 3.29117 211.764 0.40868 215.559 0.607607C224.943 1.11468 234.352 2.26533 243.518 4.04397C247.219 4.75777 249.634 8.33065 248.916 12.0284C248.288 15.2853 245.433 17.5515 242.231 17.5515Z" fill="#1A428A"/>
<path d="M206.451 361.594C202.722 361.594 199.68 358.598 199.633 354.861C199.59 351.101 202.597 348.008 206.365 347.958C215.032 347.848 223.73 346.955 232.222 345.297C235.892 344.537 239.496 346.986 240.214 350.684C240.932 354.378 238.525 357.958 234.827 358.676C225.544 360.486 216.023 361.465 206.537 361.594C206.509 361.594 206.478 361.594 206.451 361.594V361.594ZM179.311 359.495C178.937 359.495 178.55 359.46 178.172 359.402C168.819 357.826 159.559 355.369 150.654 352.116C147.12 350.817 145.302 346.9 146.593 343.367C147.892 339.833 151.824 338.046 155.338 339.306C163.463 342.282 171.908 344.517 180.438 345.957C184.152 346.581 186.656 350.103 186.028 353.808C185.462 357.139 182.58 359.495 179.311 359.495V359.495ZM259.65 351.133C256.943 351.133 254.373 349.502 253.316 346.826C251.931 343.324 253.64 339.365 257.142 337.98C265.197 334.793 272.998 330.846 280.327 326.251C283.51 324.246 287.715 325.214 289.727 328.408C291.724 331.603 290.757 335.811 287.57 337.808C279.535 342.84 270.989 347.162 262.162 350.657C261.339 350.98 260.489 351.133 259.65 351.133ZM128.386 340.89C127.208 340.89 126.006 340.582 124.922 339.938C116.751 335.113 108.981 329.52 101.831 323.322C98.9875 320.853 98.6833 316.55 101.144 313.703C103.621 310.86 107.924 310.551 110.767 313.017C117.297 318.68 124.392 323.786 131.861 328.209C135.102 330.117 136.175 334.298 134.256 337.543C132.984 339.692 130.714 340.89 128.386 340.89ZM305.634 322.382C303.789 322.382 301.944 321.637 300.598 320.166C298.063 317.389 298.258 313.075 301.031 310.532C307.436 304.673 313.333 298.218 318.552 291.341C320.838 288.346 325.117 287.765 328.105 290.031C331.108 292.305 331.693 296.588 329.415 299.579C323.701 307.111 317.242 314.179 310.232 320.595C308.926 321.793 307.276 322.382 305.634 322.382ZM87.4302 305.375C85.4332 305.375 83.4595 304.502 82.106 302.825C76.1694 295.421 70.8842 287.441 66.383 279.094C64.5965 275.778 65.8447 271.644 69.1524 269.853C72.4795 268.075 76.6063 269.307 78.3927 272.623C82.4922 280.244 87.3171 287.534 92.7428 294.29C95.1026 297.227 94.6267 301.522 91.6935 303.878C90.4336 304.884 88.9241 305.375 87.4302 305.375V305.375ZM338.418 279.207C337.384 279.207 336.331 278.973 335.348 278.474C331.986 276.777 330.64 272.677 332.337 269.315C336.237 261.6 339.455 253.471 341.889 245.155C342.95 241.539 346.73 239.496 350.349 240.529C353.965 241.594 356.036 245.381 354.979 248.989C352.303 258.105 348.781 267.01 344.506 275.462C343.309 277.842 340.906 279.207 338.418 279.207V279.207ZM61.7102 257.617C58.8277 257.617 56.1519 255.78 55.2197 252.894C52.3177 243.872 50.2309 234.526 49.0139 225.114C48.5342 221.378 51.1709 217.965 54.9037 217.477C58.7536 217.06 62.0534 219.642 62.541 223.371C63.6448 231.964 65.5483 240.49 68.1967 248.713C69.3474 252.297 67.3776 256.135 63.7969 257.294C63.0987 257.512 62.4005 257.617 61.7102 257.617ZM353.68 227.178C353.446 227.178 353.216 227.162 352.974 227.143C349.234 226.756 346.503 223.41 346.893 219.657C347.397 214.786 347.65 209.793 347.65 204.82C347.65 196.126 346.866 187.42 345.321 178.94C344.643 175.23 347.096 171.681 350.798 171.01C354.495 170.331 358.057 172.793 358.728 176.49C360.424 185.781 361.282 195.306 361.282 204.82C361.282 210.257 361.005 215.726 360.459 221.058C360.093 224.568 357.136 227.178 353.68 227.178ZM54.7399 203.856C54.619 203.856 54.4981 203.856 54.385 203.849C50.6249 203.657 47.7307 200.447 47.9218 196.695C48.4094 187.193 49.7589 177.723 51.9432 168.522C52.8013 164.863 56.4834 162.577 60.1421 163.463C63.8047 164.328 66.0748 168.003 65.2011 171.661C63.2197 180.059 61.9793 188.718 61.5424 197.385C61.3552 201.029 58.3401 203.856 54.7399 203.856ZM344.705 158.31C341.959 158.31 339.369 156.641 338.336 153.918C335.254 145.824 331.416 137.969 326.915 130.577C324.957 127.363 325.983 123.17 329.197 121.212C332.426 119.27 336.608 120.288 338.562 123.498C343.488 131.591 347.705 140.2 351.079 149.074C352.417 152.588 350.653 156.527 347.131 157.865C346.332 158.17 345.513 158.31 344.705 158.31V158.31ZM67.2489 151.106C66.3284 151.106 65.3962 150.922 64.499 150.528C61.0549 149.003 59.4986 144.982 61.0159 141.534C64.8462 132.875 69.4917 124.508 74.8354 116.656C76.9534 113.555 81.1894 112.736 84.3098 114.866C87.4185 116.984 88.2259 121.224 86.1002 124.34C81.2206 131.494 76.9807 139.139 73.4937 147.045C72.3664 149.592 69.8701 151.106 67.2489 151.106ZM316.547 111.968C314.671 111.968 312.803 111.195 311.457 109.682C305.692 103.203 299.307 97.2199 292.493 91.8996C289.524 89.5904 288.998 85.3038 291.315 82.3355C293.612 79.3672 297.903 78.825 300.879 81.1575C308.341 86.9771 315.326 93.5261 321.641 100.617C324.145 103.433 323.892 107.74 321.084 110.24C319.785 111.398 318.166 111.968 316.547 111.968ZM97.7705 106.289C96.0387 106.289 94.3069 105.633 92.9768 104.323C90.301 101.674 90.2737 97.3603 92.9183 94.6806C99.5804 87.9405 106.89 81.766 114.652 76.3209C117.741 74.1678 121.981 74.9089 124.154 77.9903C126.311 81.0717 125.562 85.3272 122.48 87.4881C115.385 92.4612 108.704 98.1014 102.627 104.264C101.285 105.606 99.5258 106.289 97.7705 106.289ZM273.797 78.6066C272.733 78.6066 271.656 78.3608 270.65 77.8343C262.973 73.8284 254.884 70.5052 246.619 67.962C243.014 66.8582 240.998 63.0435 242.106 59.4433C243.213 55.8548 247.032 53.8382 250.624 54.9304C259.685 57.7192 268.547 61.3584 276.961 65.7465C280.296 67.4901 281.587 71.6129 279.847 74.9479C278.63 77.2765 276.255 78.6066 273.797 78.6066ZM142.186 75.1936C139.596 75.1936 137.127 73.7153 135.98 71.2112C134.416 67.7904 135.922 63.7416 139.342 62.1775C147.959 58.238 157.004 55.0591 166.217 52.75C169.817 51.8411 173.566 54.0488 174.486 57.7036C175.403 61.3506 173.187 65.0522 169.532 65.9728C161.127 68.0829 152.877 70.9771 145.018 74.5734C144.097 74.9908 143.13 75.1936 142.186 75.1936ZM221.995 62.6846C221.737 62.6846 221.468 62.6729 221.203 62.6378C212.688 61.6549 203.834 61.413 195.202 61.9708C191.453 62.119 188.208 59.3692 187.962 55.6012C187.725 51.8489 190.572 48.6076 194.336 48.3658C203.736 47.7651 213.46 48.0069 222.775 49.0991C226.515 49.532 229.191 52.9138 228.758 56.6544C228.356 60.1298 225.411 62.6846 221.995 62.6846Z" fill="#1A428A"/>
<path d="M204.501 307.072C199.629 307.072 194.734 306.725 189.956 306.046C186.235 305.516 183.637 302.06 184.171 298.331C184.702 294.61 188.15 292.016 191.883 292.547C200.16 293.732 208.819 293.732 217.135 292.547C220.848 292.028 224.308 294.61 224.842 298.339C225.369 302.064 222.779 305.512 219.05 306.046C214.264 306.725 209.365 307.072 204.501 307.072V307.072ZM164.844 298.471C163.896 298.471 162.933 298.272 162.016 297.851C153.17 293.814 144.936 288.506 137.537 282.105C134.697 279.632 134.389 275.333 136.854 272.482C139.331 269.639 143.629 269.334 146.473 271.8C152.885 277.358 160.019 281.949 167.688 285.459C171.108 287.023 172.614 291.064 171.05 294.493C169.903 296.993 167.434 298.471 164.844 298.471V298.471ZM244.169 298.464C241.579 298.464 239.11 296.985 237.964 294.485C236.399 291.056 237.905 287.016 241.326 285.451C248.994 281.941 256.136 277.342 262.541 271.788C265.384 269.315 269.69 269.627 272.156 272.467C274.625 275.31 274.316 279.616 271.477 282.081C264.085 288.494 255.851 293.799 246.997 297.843C246.077 298.265 245.113 298.464 244.169 298.464V298.464ZM124.212 263.25C121.97 263.25 119.774 262.146 118.475 260.121C113.174 251.891 109.11 242.979 106.367 233.641C105.307 230.025 107.378 226.238 110.994 225.18C114.629 224.12 118.397 226.191 119.454 229.807C121.825 237.892 125.351 245.608 129.938 252.746C131.974 255.913 131.062 260.129 127.895 262.165C126.756 262.899 125.476 263.25 124.212 263.25ZM284.797 263.23C283.529 263.23 282.254 262.875 281.115 262.142C277.948 260.106 277.031 255.885 279.071 252.726C283.658 245.596 287.188 237.881 289.556 229.787C290.613 226.183 294.4 224.112 298.016 225.157C301.632 226.218 303.703 230.005 302.642 233.621C299.9 242.967 295.828 251.88 290.535 260.102C289.228 262.126 287.04 263.23 284.797 263.23ZM109.067 211.638C109.067 211.638 109.067 211.638 109.059 211.638C105.299 211.638 102.249 208.584 102.249 204.816C102.256 195.018 103.641 185.325 106.364 176.018C107.421 172.418 111.204 170.362 114.824 171.392C118.432 172.449 120.511 176.237 119.454 179.852C117.09 187.915 115.889 196.317 115.885 204.828C115.885 208.592 112.827 211.638 109.067 211.638ZM299.935 211.638C296.167 211.638 293.117 208.592 293.117 204.824C293.117 196.309 291.92 187.907 289.548 179.845C288.491 176.237 290.562 172.449 294.174 171.384C297.802 170.327 301.577 172.399 302.638 176.01C305.365 185.317 306.749 195.01 306.749 204.824C306.749 208.592 303.703 211.638 299.935 211.638V211.638ZM124.197 160.042C122.933 160.042 121.654 159.691 120.519 158.957C117.347 156.921 116.435 152.705 118.475 149.538C123.74 141.35 130.157 133.947 137.541 127.542C140.384 125.081 144.682 125.385 147.159 128.229C149.624 131.072 149.316 135.379 146.477 137.848C140.072 143.402 134.506 149.818 129.938 156.913C128.636 158.938 126.44 160.042 124.197 160.042ZM284.801 160.042C282.558 160.042 280.366 158.938 279.063 156.913C274.496 149.822 268.934 143.406 262.537 137.848C259.693 135.386 259.385 131.076 261.858 128.233C264.319 125.378 268.622 125.077 271.469 127.554C278.853 133.959 285.265 141.354 290.531 149.538C292.567 152.697 291.654 156.917 288.487 158.953C287.344 159.691 286.065 160.042 284.801 160.042ZM244.15 124.812C243.202 124.812 242.238 124.613 241.322 124.196C233.646 120.685 225.505 118.302 217.123 117.105C213.394 116.574 210.804 113.118 211.339 109.389C211.869 105.664 215.344 103.074 219.054 103.605C228.723 104.99 238.123 107.747 246.993 111.8C250.414 113.364 251.92 117.405 250.355 120.834C249.209 123.334 246.74 124.812 244.15 124.812ZM164.852 124.808C162.262 124.808 159.793 123.33 158.646 120.826C157.082 117.405 158.58 113.356 162.009 111.792C170.874 107.732 180.275 104.974 189.952 103.597C193.689 103.012 197.129 105.653 197.659 109.386C198.186 113.114 195.596 116.562 191.871 117.097C183.497 118.287 175.356 120.67 167.68 124.184C166.763 124.609 165.796 124.808 164.852 124.808Z" fill="#1A428A"/>
<path d="M182.447 167.148C182.447 166.431 182.927 165.959 183.637 165.959H213.792C230.962 165.959 239.063 174.54 239.063 187.533C239.063 196.714 234.773 201.953 229.651 204.695V204.937C234.656 206.844 240.495 213.284 240.495 223.176C240.495 239.265 230.361 247.012 212.602 247.012H183.637C182.927 247.012 182.447 246.532 182.447 245.822V167.148ZM213.441 199.691C220.591 199.691 225.002 195.4 225.002 189.085C225.002 182.649 220.591 178.355 213.441 178.355H197.222C196.751 178.355 196.513 178.593 196.513 179.065V198.977C196.513 199.449 196.751 199.691 197.222 199.691H213.441ZM197.222 234.62H214.151C222.022 234.62 226.426 230.083 226.426 223.293C226.426 216.619 222.022 212.082 214.151 212.082H197.222C196.751 212.082 196.513 212.324 196.513 212.804V233.898C196.513 234.378 196.751 234.62 197.222 234.62Z" fill="#1A428A"/>
<path d="M204.501 177.555C200.733 177.555 197.683 174.509 197.683 170.741V157.105C197.683 153.337 200.733 150.29 204.501 150.29C208.269 150.29 211.315 153.337 211.315 157.105V170.741C211.315 174.509 208.269 177.555 204.501 177.555Z" fill="#1A428A"/>
<path d="M204.501 259.357C200.733 259.357 197.683 256.307 197.683 252.539V245.721C197.683 241.953 200.733 238.906 204.501 238.906C208.269 238.906 211.315 241.953 211.315 245.721V252.539C211.315 256.307 208.269 259.357 204.501 259.357Z" fill="#1A428A"/>
<path d="M182.447 167.148C182.447 166.431 182.927 165.959 183.637 165.959H213.792C230.962 165.959 239.063 174.54 239.063 187.533C239.063 196.714 234.773 201.953 229.651 204.695V204.937C234.656 206.844 240.495 213.284 240.495 223.176C240.495 239.265 230.361 247.012 212.602 247.012H183.637C182.927 247.012 182.447 246.532 182.447 245.822V167.148ZM213.441 199.691C220.591 199.691 225.002 195.4 225.002 189.085C225.002 182.649 220.591 178.355 213.441 178.355H197.222C196.751 178.355 196.513 178.593 196.513 179.065V198.977C196.513 199.449 196.751 199.691 197.222 199.691H213.441ZM197.222 234.62H214.151C222.022 234.62 226.426 230.083 226.426 223.293C226.426 216.619 222.022 212.082 214.151 212.082H197.222C196.751 212.082 196.513 212.324 196.513 212.804V233.898C196.513 234.378 196.751 234.62 197.222 234.62Z" fill="#1A428A"/>
<path d="M204.501 177.555C200.733 177.555 197.683 174.509 197.683 170.741V157.105C197.683 153.337 200.733 150.29 204.501 150.29C208.269 150.29 211.315 153.337 211.315 157.105V170.741C211.315 174.509 208.269 177.555 204.501 177.555Z" fill="#1A428A"/>
<path d="M204.501 259.357C200.733 259.357 197.683 256.307 197.683 252.539V245.721C197.683 241.953 200.733 238.906 204.501 238.906C208.269 238.906 211.315 241.953 211.315 245.721V252.539C211.315 256.307 208.269 259.357 204.501 259.357Z" fill="#1A428A"/>
<path d="M381.733 48.0381C377.965 48.0381 374.915 44.9918 374.915 41.2239V13.9553C374.915 10.1874 377.965 7.14111 381.733 7.14111C385.501 7.14111 388.551 10.1874 388.551 13.9553V41.2239C388.551 44.9918 385.501 48.0381 381.733 48.0381Z" fill="#1A428A"/>
<path d="M395.365 34.4058H368.101C364.333 34.4058 361.282 31.3556 361.282 27.5877C361.282 23.8198 364.333 20.7734 368.101 20.7734H395.365C399.133 20.7734 402.183 23.8198 402.183 27.5877C402.183 31.3556 399.133 34.4058 395.365 34.4058Z" fill="#1A428A"/>
</g>
<defs>
<clipPath id="clip0_1_1600">
<rect width="409" height="409" fill="white"/>
</clipPath>
</defs>
</svg>
