<svg width="389" height="389" viewBox="0 0 389 389" fill="none" xmlns="http://www.w3.org/2000/svg">
<g clip-path="url(#clip0_1_1637)">
<path d="M95.4953 6.82593H314.264V382.175H54.9297V47.7703L95.4953 6.82593Z" fill="#6BC4E8"/>
<path d="M314.264 389.001H54.9298C51.1614 389.001 48.1038 385.947 48.1038 382.175V47.7704C48.1038 45.9702 48.8145 44.2481 50.0797 42.9672L90.6453 2.01891C91.9301 0.726338 93.6717 0 95.4915 0H314.264C318.036 0 321.086 3.05375 321.086 6.82602V382.175C321.086 385.947 318.036 389.001 314.264 389.001V389.001ZM61.7558 375.349H307.438V13.6481H98.3383L61.7558 50.5781V375.349Z" fill="#1A428A"/>
<path fill-rule="evenodd" clip-rule="evenodd" d="M334.738 382.175H314.264V6.82593L334.738 20.4741V382.175Z" fill="#1A428A"/>
<path d="M334.738 389.001H314.264C310.491 389.001 307.438 385.947 307.438 382.175V6.82607C307.438 4.30341 308.824 1.99162 311.042 0.808394C313.256 -0.378739 315.955 -0.245968 318.048 1.14813L338.522 14.7963C340.42 16.0615 341.56 18.1937 341.56 20.4742V382.175C341.56 385.947 338.51 389.001 334.738 389.001V389.001ZM321.086 375.349H327.912V24.1254L321.086 19.576V375.349Z" fill="#1A428A"/>
<path d="M252.841 68.2446H102.7C98.9319 68.2446 95.8782 65.1947 95.8782 61.4225C95.8782 57.6502 98.9319 54.5964 102.7 54.5964H252.841C256.614 54.5964 259.668 57.6502 259.668 61.4225C259.668 65.1947 256.614 68.2446 252.841 68.2446Z" fill="#1A428A"/>
<path d="M252.841 136.493H102.7C98.9319 136.493 95.8782 133.439 95.8782 129.667C95.8782 125.895 98.9319 122.841 102.7 122.841H252.841C256.614 122.841 259.668 125.895 259.668 129.667C259.668 133.439 256.614 136.493 252.841 136.493Z" fill="#1A428A"/>
<path d="M164.123 102.367H102.7C98.9319 102.367 95.8782 99.317 95.8782 95.5448C95.8782 91.7725 98.9319 88.7188 102.7 88.7188H164.123C167.895 88.7188 170.949 91.7725 170.949 95.5448C170.949 99.317 167.895 102.367 164.123 102.367Z" fill="#1A428A"/>
<path d="M164.123 170.615H102.7C98.9319 170.615 95.8782 167.562 95.8782 163.789C95.8782 160.017 98.9319 156.963 102.7 156.963H164.123C167.895 156.963 170.949 160.017 170.949 163.789C170.949 167.562 167.895 170.615 164.123 170.615Z" fill="#1A428A"/>
<path d="M252.841 102.367H191.423C187.65 102.367 184.597 99.317 184.597 95.5448C184.597 91.7725 187.65 88.7188 191.423 88.7188H252.841C256.614 88.7188 259.667 91.7725 259.667 95.5448C259.667 99.317 256.614 102.367 252.841 102.367Z" fill="#1A428A"/>
<path d="M54.9297 218.386H232.367V327.579H54.9297V218.386Z" fill="#D7E9FF"/>
<path d="M232.367 334.405H54.9298C51.1614 334.405 48.1038 331.351 48.1038 327.579V218.386C48.1038 214.614 51.1614 211.56 54.9298 211.56H232.367C236.14 211.56 239.193 214.614 239.193 218.386V327.579C239.193 331.351 236.14 334.405 232.367 334.405ZM61.7558 320.753H225.545V225.212H61.7558V320.753Z" fill="#1A428A"/>
<path d="M87.1855 254.121C87.1855 252.973 87.2402 251.856 87.3457 250.762C87.455 249.669 87.7127 248.689 88.1267 247.822C88.5406 246.955 89.1459 246.256 89.9464 245.725C90.743 245.19 91.8521 244.924 93.2618 244.924C94.7848 244.924 95.968 245.19 96.8232 245.725C97.6745 246.256 98.3032 246.955 98.7015 247.822C99.1037 248.689 99.3498 249.669 99.4435 250.762C99.5372 251.856 99.5841 252.973 99.5841 254.121V289.149H107.421C108.515 289.149 109.593 289.204 110.659 289.309C111.725 289.418 112.678 289.668 113.517 290.071C114.357 290.469 115.032 291.055 115.54 291.828C116.044 292.601 116.298 293.655 116.298 294.987C116.298 296.35 116.044 297.42 115.54 298.209C115.032 298.994 114.361 299.587 113.517 299.985C112.678 300.388 111.725 300.642 110.659 300.747C109.593 300.852 108.511 300.907 107.421 300.907H96.0656C94.652 300.907 93.3985 300.852 92.3051 300.747C91.2116 300.638 90.2862 300.388 89.5286 299.985C88.7671 299.587 88.1891 298.994 87.7869 298.209C87.3847 297.42 87.1855 296.35 87.1855 294.987V254.121Z" fill="#1A428A"/>
<path d="M148.608 244.924C149.674 244.924 150.748 244.963 151.826 245.045C152.907 245.123 153.887 245.35 154.766 245.725C155.645 246.096 156.359 246.662 156.906 247.424C157.453 248.181 157.726 249.243 157.726 250.602C157.726 251.934 157.453 252.98 156.906 253.742C156.359 254.499 155.645 255.066 154.766 255.441C153.887 255.812 152.907 256.046 151.826 256.14C150.748 256.233 149.674 256.28 148.608 256.28H144.527V291.789C144.527 292.933 144.492 294.054 144.426 295.147C144.359 296.241 144.14 297.213 143.766 298.064C143.395 298.919 142.793 299.607 141.965 300.126C141.138 300.645 139.966 300.903 138.447 300.903C136.932 300.903 135.756 300.645 134.932 300.126C134.105 299.607 133.503 298.919 133.132 298.064C132.757 297.213 132.539 296.241 132.472 295.147C132.402 294.054 132.371 292.933 132.371 291.789V256.28H128.294C127.228 256.28 126.154 256.233 125.076 256.14C123.994 256.046 123.014 255.812 122.136 255.441C121.253 255.066 120.542 254.499 119.996 253.742C119.449 252.98 119.176 251.934 119.176 250.602C119.176 249.243 119.449 248.181 119.996 247.424C120.542 246.662 121.253 246.096 122.136 245.725C123.014 245.35 123.994 245.123 125.076 245.045C126.154 244.967 127.228 244.924 128.294 244.924H148.608Z" fill="#1A428A"/>
<path d="M180.278 244.604C183.211 244.604 185.737 244.936 187.854 245.604C189.974 246.272 191.759 247.135 193.215 248.201C194.668 249.271 195.832 250.474 196.714 251.821C197.593 253.168 198.265 254.535 198.733 255.921C199.202 257.303 199.506 258.639 199.655 259.92C199.799 261.197 199.873 262.302 199.873 263.235C199.873 263.637 199.838 264.126 199.772 264.696C199.706 265.266 199.471 265.82 199.073 266.355C198.675 266.886 198.042 267.343 197.175 267.714C196.308 268.089 195.074 268.277 193.477 268.277C192.942 268.277 192.274 268.241 191.478 268.175C190.677 268.109 189.904 267.933 189.158 267.656C188.412 267.375 187.772 266.976 187.237 266.453C186.702 265.934 186.436 265.211 186.436 264.278C186.436 262.837 186.35 261.544 186.178 260.396C186.007 259.252 185.69 258.28 185.237 257.479C184.784 256.679 184.16 256.066 183.359 255.64C182.558 255.214 181.531 254.999 180.278 254.999C178.97 254.999 177.966 255.273 177.259 255.82C176.549 256.366 176.037 256.96 175.721 257.596C175.346 258.37 175.131 259.236 175.08 260.197V285.549C175.131 286.72 175.346 287.747 175.721 288.63C176.041 289.399 176.553 290.106 177.259 290.746C177.966 291.387 178.97 291.707 180.278 291.707C181.531 291.707 182.558 291.445 183.359 290.926C184.16 290.407 184.784 289.708 185.237 288.829C185.69 287.95 186.003 286.935 186.178 285.787C186.35 284.643 186.436 283.444 186.436 282.19C186.436 281.792 186.503 281.378 186.635 280.949C186.772 280.523 187.077 280.132 187.557 279.773C188.037 279.41 188.744 279.109 189.677 278.871C190.611 278.633 191.876 278.512 193.477 278.512C195.074 278.512 196.308 278.691 197.175 279.051C198.042 279.41 198.675 279.824 199.073 280.292C199.471 280.757 199.706 281.21 199.772 281.651C199.838 282.093 199.873 282.378 199.873 282.511C199.873 285.443 199.381 288.063 198.393 290.367C197.409 292.671 196.015 294.628 194.215 296.225C192.419 297.826 190.271 299.044 187.78 299.888C185.284 300.728 182.547 301.145 179.563 301.145C179.083 301.145 178.302 301.106 177.224 301.028C176.143 300.946 174.936 300.731 173.604 300.388C172.273 300.04 170.898 299.521 169.484 298.826C168.071 298.135 166.786 297.166 165.626 295.928C164.466 294.69 163.514 293.144 162.768 291.289C162.018 289.438 161.647 287.177 161.647 284.51V262.2C161.647 260.014 161.913 258.081 162.448 256.401C162.982 254.722 163.682 253.262 164.545 252.024C165.411 250.786 166.407 249.743 167.524 248.904C168.645 248.064 169.789 247.365 170.964 246.807C173.682 245.522 176.787 244.792 180.278 244.604V244.604Z" fill="#1A428A"/>
<path d="M314.264 334.405C310.491 334.405 307.438 331.351 307.438 327.579V300.282C307.438 296.51 310.491 293.456 314.264 293.456C318.036 293.456 321.086 296.51 321.086 300.282V327.579C321.086 331.351 318.036 334.405 314.264 334.405Z" fill="white"/>
<path d="M327.912 320.753H300.616C296.843 320.753 293.79 317.703 293.79 313.931C293.79 310.158 296.843 307.104 300.616 307.104H327.912C331.684 307.104 334.738 310.158 334.738 313.931C334.738 317.703 331.684 320.753 327.912 320.753Z" fill="white"/>
<path d="M293.79 102.367C290.017 102.367 286.964 99.317 286.964 95.5447V27.3001C286.964 23.5279 290.017 20.4741 293.79 20.4741C297.562 20.4741 300.616 23.5279 300.616 27.3001V95.5447C300.616 99.317 297.562 102.367 293.79 102.367Z" fill="white"/>
</g>
<defs>
<clipPath id="clip0_1_1637">
<rect width="389" height="389" fill="white"/>
</clipPath>
</defs>
</svg>
