<svg width="410" height="410" viewBox="0 0 410 410" fill="none" xmlns="http://www.w3.org/2000/svg">
<g clip-path="url(#clip0_1_1656)">
<path d="M402.773 204.801C402.773 314.137 314.137 402.773 204.801 402.773C95.4609 402.773 6.82812 314.137 6.82812 204.801C6.82812 95.4609 95.4609 6.82812 204.801 6.82812C314.137 6.82812 402.773 95.4609 402.773 204.801Z" fill="#2A8EE6"/>
<path d="M204.801 409.602C91.875 409.602 0 317.727 0 204.801C0 91.875 91.875 0 204.801 0C317.727 0 409.602 91.875 409.602 204.801C409.602 317.727 317.727 409.602 204.801 409.602ZM204.801 13.6523C99.3984 13.6523 13.6523 99.3984 13.6523 204.801C13.6523 310.199 99.3984 395.945 204.801 395.945C310.199 395.945 395.945 310.199 395.945 204.801C395.945 99.3984 310.199 13.6523 204.801 13.6523V13.6523Z" fill="#1A428A"/>
<path d="M382.293 204.801C382.293 302.828 302.828 382.293 204.801 382.293C106.773 382.293 27.3086 302.828 27.3086 204.801C27.3086 106.773 106.773 27.3086 204.801 27.3086C302.828 27.3086 382.293 106.773 382.293 204.801V204.801Z" fill="#6BC4E8"/>
<path d="M204.801 389.121C103.168 389.121 20.4805 306.434 20.4805 204.801C20.4805 103.168 103.168 20.4805 204.801 20.4805C306.434 20.4805 389.121 103.168 389.121 204.801C389.121 306.434 306.434 389.121 204.801 389.121V389.121ZM204.801 34.1328C110.691 34.1328 34.1328 110.691 34.1328 204.801C34.1328 298.906 110.691 375.465 204.801 375.465C298.906 375.465 375.465 298.906 375.465 204.801C375.465 110.691 298.906 34.1328 204.801 34.1328V34.1328Z" fill="#1A428A"/>
<path d="M70.3554 130.473C69.1523 130.473 67.9335 130.152 66.828 129.488C63.6015 127.539 62.5663 123.34 64.5194 120.113C76.6444 100.059 93.3124 82.4805 112.719 69.2656C115.82 67.1211 120.078 67.9492 122.199 71.0664C124.328 74.1797 123.519 78.4258 120.398 80.5469C102.605 92.668 87.3202 108.793 76.1991 127.18C74.9179 129.301 72.6679 130.473 70.3554 130.473Z" fill="white"/>
<path d="M204.801 361.812C110.215 361.812 32.9297 287.82 27.6211 194.559C27.4297 197.949 27.3086 201.359 27.3086 204.801C27.3086 302.828 106.773 382.293 204.801 382.293C302.828 382.293 382.293 302.828 382.293 204.801C382.293 201.359 382.172 197.949 381.977 194.559C376.668 287.82 299.387 361.812 204.801 361.812V361.812Z" fill="#1A428A"/>
<path d="M204.801 389.121C103.168 389.121 20.4805 306.434 20.4805 204.801C20.4805 201.227 20.6055 197.688 20.8047 194.172C21.0117 190.559 24 187.734 27.6172 187.734C31.2383 187.734 34.2266 190.559 34.4336 194.172C39.5664 284.348 114.398 354.988 204.801 354.988C295.199 354.988 370.031 284.348 375.168 194.172C375.371 190.559 378.359 187.734 381.98 187.734C385.598 187.734 388.586 190.559 388.793 194.172C388.992 197.688 389.117 201.227 389.117 204.801C389.121 306.434 306.434 389.121 204.801 389.121ZM73.168 313.312C104.492 351.254 151.871 375.465 204.801 375.465C257.727 375.465 305.105 351.254 336.434 313.312C302.887 347.52 256.176 368.641 204.801 368.641C153.426 368.641 106.711 347.52 73.168 313.312V313.312Z" fill="#1A428A"/>
<path d="M279.894 300.375H136.535C134.422 300.375 132.426 299.394 131.133 297.726C129.848 296.059 129.394 293.887 129.922 291.84L184.535 80.2148C185.48 76.5507 189.215 74.3788 192.851 75.3085C196.5 76.2538 198.699 79.9726 197.762 83.6249L145.348 286.719H279.894C283.668 286.719 286.719 289.773 286.719 293.547C286.719 297.32 283.668 300.375 279.894 300.375Z" fill="#1A428A"/>
<path d="M129.707 225.281C126.766 225.281 124.055 223.375 123.168 220.414C122.086 216.804 124.133 213 127.746 211.914L196.016 191.433C199.629 190.359 203.434 192.398 204.512 196.015C205.594 199.621 203.547 203.429 199.934 204.512L131.664 224.992C131.016 225.187 130.352 225.281 129.707 225.281Z" fill="#1A428A"/>
<path d="M300.375 348.16C296.602 348.16 293.547 345.105 293.547 341.332V314.027C293.547 310.254 296.602 307.199 300.375 307.199C304.148 307.199 307.199 310.254 307.199 314.027V341.332C307.199 345.105 304.148 348.16 300.375 348.16Z" fill="white"/>
<path d="M314.027 334.508H286.719C282.945 334.508 279.895 331.453 279.895 327.68C279.895 323.906 282.945 320.852 286.719 320.852H314.027C317.801 320.852 320.852 323.906 320.852 327.68C320.852 331.453 317.801 334.508 314.027 334.508V334.508Z" fill="white"/>
</g>
<defs>
<clipPath id="clip0_1_1656">
<rect width="409.6" height="409.6" fill="white"/>
</clipPath>
</defs>
</svg>
