<svg width="424" height="424" viewBox="0 0 424 424" fill="none" xmlns="http://www.w3.org/2000/svg">
<g clip-path="url(#clip0_1_1669)">
<path d="M298.934 368.641H124.32C112.215 368.641 102.398 358.828 102.398 346.723V192.586C102.398 180.48 112.215 170.668 124.32 170.668H298.934C311.039 170.668 320.852 180.48 320.852 192.586V346.719C320.852 358.828 311.039 368.641 298.934 368.641Z" fill="#1A428A"/>
<path d="M298.934 375.465H124.32C108.469 375.465 95.5742 362.574 95.5742 346.719V192.586C95.5742 176.734 108.469 163.84 124.32 163.84H298.934C314.785 163.84 327.68 176.734 327.68 192.586V346.719C327.68 362.574 314.785 375.465 298.934 375.465V375.465ZM124.32 177.492C116 177.492 109.227 184.266 109.227 192.586V346.719C109.227 355.039 116 361.812 124.32 361.812H298.934C307.254 361.812 314.027 355.039 314.027 346.719V192.586C314.027 184.266 307.254 177.492 298.934 177.492H124.32Z" fill="#1A428A"/>
<path d="M211.625 423.254C118.215 423.254 36.9453 363.34 9.39844 274.168C8.28906 270.566 10.3008 266.746 13.9062 265.633C17.4961 264.535 21.3359 266.539 22.4414 270.141C48.2148 353.555 124.238 409.602 211.625 409.602C318.508 409.602 405.871 324.465 409.488 218.453H6.82812C3.05469 218.453 0 215.398 0 211.625C0 94.9336 94.9336 0 211.625 0C307.215 0 391.266 64.3984 416.027 156.605C417.008 160.254 414.848 163.992 411.207 164.973C407.566 165.953 403.82 163.793 402.84 160.152C379.68 73.8945 301.047 13.6523 211.625 13.6523C104.746 13.6523 17.3789 98.7852 13.7656 204.801H416.426C420.199 204.801 423.254 207.852 423.254 211.625C423.254 328.32 328.32 423.254 211.625 423.254V423.254Z" fill="#1A428A"/>
<path d="M211.625 53.0195C151.398 53.0195 102.398 102.02 102.398 162.246C102.398 162.793 102.5 163.309 102.559 163.84H102.398V211.625H129.707V163.84H129.547C129.609 163.309 129.707 162.793 129.707 162.246C129.707 117.07 166.457 80.3242 211.625 80.3242C256.797 80.3242 293.547 117.07 293.547 162.246V213.219C293.547 220.758 299.66 226.871 307.199 226.871C314.738 226.871 320.852 220.758 320.852 213.219V162.246C320.852 102.02 271.852 53.0195 211.625 53.0195V53.0195Z" fill="#D7E9FF"/>
<path d="M307.199 233.699C295.906 233.699 286.719 224.516 286.719 213.219V162.246C286.719 120.84 253.035 87.1562 211.625 87.1562C170.219 87.1562 136.535 120.84 136.535 162.246C136.535 162.555 136.52 162.855 136.5 163.148C136.52 163.375 136.535 163.609 136.535 163.84V211.625C136.535 215.398 133.48 218.453 129.707 218.453H102.398C98.625 218.453 95.5742 215.398 95.5742 211.625V163.84C95.5742 163.598 95.5859 163.367 95.6094 163.133C95.5859 162.828 95.5742 162.539 95.5742 162.246C95.5742 98.2539 147.633 46.1914 211.625 46.1914C275.621 46.1914 327.68 98.2539 327.68 162.246V213.219C327.68 224.516 318.492 233.699 307.199 233.699V233.699ZM211.625 73.5C260.559 73.5 300.375 113.312 300.375 162.246V213.219C300.375 216.984 303.434 220.047 307.199 220.047C310.965 220.047 314.027 216.984 314.027 213.219V162.246C314.027 105.777 268.094 59.8477 211.625 59.8477C155.16 59.8477 109.227 105.777 109.227 162.246C109.234 162.301 109.34 163.027 109.348 163.078C109.426 163.832 109.387 164.586 109.227 165.305V204.801H122.879V165.195C122.727 164.508 122.68 163.793 122.762 163.082L129.547 162.68L122.887 162.129C122.879 113.312 162.691 73.5 211.625 73.5Z" fill="#1A428A"/>
<path d="M298.934 354.988H124.32C112.215 354.988 102.398 345.172 102.398 333.066V178.934C102.398 166.828 112.215 157.012 124.32 157.012H298.934C311.039 157.012 320.852 166.828 320.852 178.934V333.066C320.852 345.172 311.039 354.988 298.934 354.988Z" fill="#6BC4E8"/>
<path d="M298.934 361.812H124.32C108.469 361.812 95.5742 348.918 95.5742 333.066V178.934C95.5742 163.082 108.469 150.188 124.32 150.188H298.934C314.785 150.188 327.68 163.082 327.68 178.934V333.066C327.68 348.918 314.785 361.812 298.934 361.812V361.812ZM124.32 163.84C116 163.84 109.227 170.613 109.227 178.934V333.066C109.227 341.387 116 348.16 124.32 348.16H298.934C307.254 348.16 314.027 341.387 314.027 333.066V178.934C314.027 170.613 307.254 163.84 298.934 163.84H124.32Z" fill="#1A428A"/>
<path d="M245.762 225.281C245.762 206.43 230.477 191.148 211.625 191.148C192.773 191.148 177.492 206.43 177.492 225.281C177.492 236.41 182.902 246.203 191.148 252.434V307.199H232.105V252.434C240.352 246.203 245.762 236.41 245.762 225.281V225.281Z" fill="#2A8EE6"/>
<path d="M232.105 314.027H191.148C187.375 314.027 184.32 310.973 184.32 307.199V255.652C175.602 247.859 170.668 236.973 170.668 225.281C170.668 202.695 189.039 184.32 211.625 184.32C234.211 184.32 252.586 202.695 252.586 225.281C252.586 236.973 247.652 247.859 238.934 255.652V307.199C238.934 310.973 235.879 314.027 232.105 314.027ZM197.973 300.375H225.281V252.434C225.281 250.293 226.281 248.277 227.992 246.988C234.945 241.734 238.934 233.82 238.934 225.281C238.934 210.219 226.688 197.973 211.625 197.973C196.566 197.973 184.32 210.219 184.32 225.281C184.32 233.82 188.309 241.734 195.258 246.988C196.973 248.281 197.973 250.293 197.973 252.434V300.375Z" fill="#1A428A"/>
<path d="M266.238 368.641C262.465 368.641 259.414 365.586 259.414 361.812V334.508C259.414 330.734 262.465 327.68 266.238 327.68C270.012 327.68 273.066 330.734 273.066 334.508V361.812C273.066 365.586 270.012 368.641 266.238 368.641Z" fill="white"/>
<path d="M279.895 354.988H252.586C248.812 354.988 245.762 351.934 245.762 348.16C245.762 344.387 248.812 341.332 252.586 341.332H279.895C283.668 341.332 286.719 344.387 286.719 348.16C286.719 351.934 283.668 354.988 279.895 354.988Z" fill="white"/>
<path d="M122.879 211.625C119.105 211.625 116.055 208.574 116.055 204.801V183.215C116.055 176.293 121.68 170.668 128.602 170.668H157.012C160.785 170.668 163.84 173.719 163.84 177.492C163.84 181.266 160.785 184.32 157.012 184.32H129.707V204.801C129.707 208.574 126.652 211.625 122.879 211.625Z" fill="white"/>
</g>
<defs>
<clipPath id="clip0_1_1669">
<rect width="423.253" height="423.253" fill="white"/>
</clipPath>
</defs>
</svg>
