<svg width="395" height="395" viewBox="0 0 395 395" fill="none" xmlns="http://www.w3.org/2000/svg">
<path d="M209.806 388.191H35.6068C23.5302 388.191 13.7412 378.402 13.7412 366.325V212.557C13.7412 200.48 23.5302 190.691 35.6068 190.691H209.803C221.879 190.691 231.668 200.48 231.668 212.557V366.321C231.672 378.402 221.883 388.191 209.806 388.191V388.191Z" fill="#1A428A"/>
<path d="M209.803 394.999H35.6068C19.797 394.999 6.92939 382.139 6.92939 366.321V212.557C6.92939 196.743 19.797 183.88 35.6068 183.88H209.803C225.616 183.88 238.48 196.743 238.48 212.557V366.321C238.48 382.139 225.616 394.999 209.803 394.999ZM35.6068 197.499C27.3063 197.499 20.5491 204.257 20.5491 212.557V366.321C20.5491 374.622 27.3063 381.379 35.6068 381.379H209.803C218.107 381.379 224.86 374.622 224.86 366.321V212.557C224.86 204.257 218.107 197.499 209.803 197.499H35.6068Z" fill="#1A428A"/>
<path d="M122.707 32.4612C62.624 32.4612 13.7412 81.344 13.7412 141.427V143.017V204.311H40.9806V143.017C40.9806 143.017 40.9806 141.972 40.9806 141.427C40.9806 96.3627 77.6427 59.7045 122.707 59.7045C167.767 59.7045 204.429 96.3627 204.429 141.427V192.277C204.429 199.798 210.527 205.897 218.052 205.897C225.573 205.897 231.672 199.798 231.672 192.277V141.427C231.672 81.344 182.789 32.4612 122.707 32.4612Z" fill="#D7E9FF"/>
<path d="M218.052 212.709C206.786 212.709 197.621 203.547 197.621 192.281V141.431C197.621 100.119 164.014 66.5163 122.707 66.5163C81.3993 66.5163 47.7924 100.119 47.7924 141.431V204.311C47.7924 208.075 44.7411 211.119 40.9806 211.119H13.7412C9.98067 211.119 6.92939 208.075 6.92939 204.311V141.427C6.92939 77.5874 58.8674 25.6494 122.707 25.6494C186.546 25.6494 238.48 77.5874 238.48 141.427V192.277C238.48 203.547 229.318 212.709 218.052 212.709ZM122.707 52.8927C171.527 52.8927 211.241 92.61 211.241 141.427V192.277C211.241 196.034 214.296 199.089 218.052 199.089C221.805 199.089 224.86 196.034 224.86 192.277V141.427C224.86 85.0968 179.033 39.273 122.707 39.273C66.3768 39.273 20.5491 85.0968 20.5491 141.427V197.499H34.1727V141.427C34.1727 92.6139 73.8861 52.8927 122.707 52.8927Z" fill="#1A428A"/>
<path d="M209.806 374.567H35.6068C23.5302 374.567 13.7412 364.778 13.7412 352.702V198.937C13.7412 186.861 23.5302 177.068 35.6068 177.068H209.803C221.879 177.068 231.668 186.861 231.668 198.933V352.702C231.672 364.778 221.883 374.567 209.806 374.567V374.567Z" fill="#6BC4E8"/>
<path d="M209.803 381.379H35.6068C19.797 381.379 6.92939 368.515 6.92939 352.702V198.937C6.92939 183.12 19.797 170.26 35.6068 170.26H209.803C225.616 170.26 238.48 183.12 238.48 198.937V352.702C238.48 368.515 225.616 381.379 209.803 381.379V381.379ZM35.6068 183.88C27.3063 183.88 20.5491 190.637 20.5491 198.937V352.702C20.5491 361.002 27.3063 367.759 35.6068 367.759H209.803C218.107 367.759 224.86 361.002 224.86 352.702V198.937C224.86 190.637 218.107 183.88 209.803 183.88H35.6068Z" fill="#1A428A"/>
<path d="M34.1727 238.362C30.4122 238.362 27.3609 235.315 27.3609 231.551V200.531C27.3609 195.103 31.7761 190.691 37.2084 190.691H75.0318C78.7962 190.691 81.8436 193.735 81.8436 197.499C81.8436 201.264 78.7962 204.311 75.0318 204.311H40.9806V231.551C40.9806 235.315 37.9332 238.362 34.1727 238.362Z" fill="white"/>
<path d="M156.758 245.174C156.758 226.364 141.513 211.119 122.707 211.119C103.9 211.119 88.6554 226.364 88.6554 245.174C88.6554 256.277 94.0487 266.046 102.275 272.262V326.896H143.138V272.262C151.361 266.046 156.758 256.277 156.758 245.174Z" fill="#2A8EE6"/>
<path d="M143.138 333.708H102.275C98.5146 333.708 95.4633 330.661 95.4633 326.896V275.473C86.7654 267.698 81.8436 256.837 81.8436 245.174C81.8436 222.642 100.175 204.311 122.707 204.311C145.239 204.311 163.57 222.642 163.57 245.174C163.57 256.837 158.644 267.698 149.946 275.473V326.896C149.946 330.661 146.899 333.708 143.138 333.708ZM109.087 320.084H136.326V272.261C136.326 270.126 137.328 268.115 139.031 266.829C145.967 261.588 149.946 253.693 149.946 245.174C149.946 230.148 137.725 217.931 122.707 217.931C107.684 217.931 95.4633 230.148 95.4633 245.174C95.4633 253.693 99.4459 261.588 106.382 266.829C108.085 268.119 109.087 270.126 109.087 272.261V320.084Z" fill="#1A428A"/>
<path d="M367.877 374.567H272.535C265.01 374.567 258.911 368.468 258.911 360.947C258.911 353.426 265.01 347.328 272.535 347.328H367.877C375.402 347.328 381.5 353.426 381.5 360.947C381.5 368.468 375.402 374.567 367.877 374.567V374.567Z" fill="#2A8EE6"/>
<path d="M367.877 381.379H272.535C261.269 381.379 252.104 372.213 252.104 360.947C252.104 349.681 261.269 340.516 272.535 340.516H367.877C379.143 340.516 388.308 349.681 388.308 360.947C388.308 372.213 379.143 381.379 367.877 381.379V381.379ZM272.535 354.139C268.778 354.139 265.723 357.191 265.723 360.947C265.723 364.704 268.778 367.759 272.535 367.759H367.877C371.633 367.759 374.689 364.704 374.689 360.947C374.689 357.191 371.633 354.139 367.877 354.139H272.535Z" fill="#1A428A"/>
<path d="M367.877 306.465H272.535C265.01 306.465 258.911 300.366 258.911 292.845C258.911 285.324 265.01 279.225 272.535 279.225H367.877C375.402 279.225 381.5 285.324 381.5 292.845C381.5 300.366 375.402 306.465 367.877 306.465V306.465Z" fill="#2A8EE6"/>
<path d="M367.877 313.277H272.535C261.269 313.277 252.104 304.111 252.104 292.845C252.104 281.579 261.269 272.414 272.535 272.414H367.877C379.143 272.414 388.308 281.579 388.308 292.845C388.308 304.111 379.143 313.277 367.877 313.277V313.277ZM272.535 286.033C268.778 286.033 265.723 289.088 265.723 292.845C265.723 296.602 268.778 299.657 272.535 299.657H367.877C371.633 299.657 374.689 296.602 374.689 292.845C374.689 289.088 371.633 286.033 367.877 286.033H272.535Z" fill="#1A428A"/>
<path d="M367.877 238.362H272.535C265.01 238.362 258.911 232.264 258.911 224.743C258.911 217.218 265.01 211.119 272.535 211.119H367.877C375.402 211.119 381.5 217.218 381.5 224.743C381.5 232.264 375.402 238.362 367.877 238.362Z" fill="#2A8EE6"/>
<path d="M367.877 245.174H272.535C261.269 245.174 252.104 236.009 252.104 224.743C252.104 213.477 261.269 204.311 272.535 204.311H367.877C379.143 204.311 388.308 213.477 388.308 224.743C388.308 236.009 379.143 245.174 367.877 245.174V245.174ZM272.535 217.931C268.778 217.931 265.723 220.982 265.723 224.743C265.723 228.499 268.778 231.55 272.535 231.55H367.877C371.633 231.55 374.689 228.499 374.689 224.743C374.689 220.982 371.633 217.931 367.877 217.931H272.535Z" fill="#1A428A"/>
<path d="M367.877 170.26H272.535C265.01 170.26 258.911 164.161 258.911 156.636C258.911 149.115 265.01 143.017 272.535 143.017H367.877C375.402 143.017 381.5 149.115 381.5 156.636C381.5 164.161 375.402 170.26 367.877 170.26Z" fill="#2A8EE6"/>
<path d="M367.877 177.068H272.535C261.269 177.068 252.104 167.902 252.104 156.636C252.104 145.37 261.269 136.209 272.535 136.209H367.877C379.143 136.209 388.308 145.37 388.308 156.636C388.308 167.902 379.143 177.068 367.877 177.068V177.068ZM272.535 149.828C268.778 149.828 265.723 152.88 265.723 156.636C265.723 160.397 268.778 163.448 272.535 163.448H367.877C371.633 163.448 374.689 160.397 374.689 156.636C374.689 152.88 371.633 149.828 367.877 149.828H272.535Z" fill="#1A428A"/>
<path d="M367.877 102.154H272.535C265.01 102.154 258.911 96.055 258.911 88.534C258.911 81.013 265.01 74.9143 272.535 74.9143H367.877C375.402 74.9143 381.5 81.013 381.5 88.534C381.5 96.055 375.402 102.154 367.877 102.154Z" fill="#2A8EE6"/>
<path d="M367.877 108.965H272.535C261.269 108.965 252.104 99.7998 252.104 88.5338C252.104 77.2678 261.269 68.1023 272.535 68.1023H367.877C379.143 68.1023 388.308 77.2678 388.308 88.5338C388.308 99.7998 379.143 108.965 367.877 108.965V108.965ZM272.535 81.7259C268.778 81.7259 265.723 84.7772 265.723 88.5338C265.723 92.2904 268.778 95.3456 272.535 95.3456H367.877C371.633 95.3456 374.689 92.2904 374.689 88.5338C374.689 84.7772 371.633 81.7259 367.877 81.7259H272.535Z" fill="#1A428A"/>
<path d="M367.877 34.0512H224.86C217.339 34.0512 211.241 27.9525 211.241 20.4315C211.241 12.9104 217.339 6.81177 224.86 6.81177H367.877C375.402 6.81177 381.5 12.9104 381.5 20.4315C381.5 27.9525 375.402 34.0512 367.877 34.0512Z" fill="#2A8EE6"/>
<path d="M367.877 40.863H224.86C213.594 40.863 204.429 31.6975 204.429 20.4315C204.429 9.16553 213.594 0 224.86 0H367.877C379.143 0 388.308 9.16553 388.308 20.4315C388.308 31.6975 379.143 40.863 367.877 40.863V40.863ZM224.86 13.6197C221.107 13.6197 218.052 16.6749 218.052 20.4315C218.052 24.1881 221.107 27.2433 224.86 27.2433H367.877C371.633 27.2433 374.689 24.1881 374.689 20.4315C374.689 16.6749 371.633 13.6197 367.877 13.6197H224.86Z" fill="#1A428A"/>
<path d="M61.4121 388.191C57.6516 388.191 54.6042 385.143 54.6042 381.379V354.139C54.6042 350.375 57.6516 347.328 61.4121 347.328C65.1726 347.328 68.2239 350.375 68.2239 354.139V381.379C68.2239 385.143 65.1726 388.191 61.4121 388.191Z" fill="white"/>
<path d="M75.0318 374.567H47.7924C44.0319 374.567 40.9806 371.523 40.9806 367.759C40.9806 363.995 44.0319 360.947 47.7924 360.947H75.0318C78.7962 360.947 81.8436 363.995 81.8436 367.759C81.8436 371.523 78.7962 374.567 75.0318 374.567Z" fill="white"/>
</svg>
