<svg width="395" height="395" viewBox="0 0 395 395" fill="none" xmlns="http://www.w3.org/2000/svg">
<path d="M388.191 349.783H340.516C336.755 349.783 333.708 346.736 333.708 342.972C333.708 309.174 306.211 281.681 272.414 281.681C238.616 281.681 211.119 309.174 211.119 342.972C211.119 346.736 208.072 349.783 204.311 349.783H122.585C118.825 349.783 115.777 346.736 115.777 342.972C115.777 339.207 118.825 336.164 122.585 336.164H197.807C201.256 298.032 233.402 268.057 272.414 268.057C311.426 268.057 343.571 298.032 347.02 336.164H388.191C391.951 336.164 394.999 339.207 394.999 342.972C394.999 346.736 391.951 349.783 388.191 349.783V349.783Z" fill="#1A428A"/>
<path d="M252.777 311.208C252.777 310.643 253.151 310.273 253.712 310.273H277.402C290.885 310.273 297.252 317.01 297.252 327.216C297.252 334.426 293.882 338.545 289.856 340.7V340.883C293.788 342.387 298.375 347.441 298.375 355.208C298.375 367.853 290.417 373.937 276.462 373.937H253.712C253.151 373.937 252.777 373.566 252.777 373.001V311.208ZM277.121 336.768C282.74 336.768 286.201 333.397 286.201 328.436C286.201 323.378 282.74 320.007 277.121 320.007H264.386C264.008 320.007 263.825 320.194 263.825 320.568V336.211C263.825 336.585 264.008 336.768 264.386 336.768H277.121ZM264.386 364.202H277.682C283.863 364.202 287.323 360.644 287.323 355.302C287.323 350.064 283.863 346.506 277.682 346.506H264.386C264.008 346.506 263.825 346.689 263.825 347.071V363.637C263.825 364.019 264.008 364.202 264.386 364.202V364.202Z" fill="#1A428A"/>
<path d="M275.819 319.138C272.059 319.138 269.008 316.091 269.008 312.326V305.514C269.008 301.75 272.059 298.707 275.819 298.707C279.58 298.707 282.631 301.75 282.631 305.514V312.326C282.631 316.091 279.58 319.138 275.819 319.138Z" fill="#1A428A"/>
<path d="M275.819 387.241C272.059 387.241 269.008 384.193 269.008 380.429V373.621C269.008 369.856 272.059 366.809 275.819 366.809C279.58 366.809 282.631 369.856 282.631 373.621V380.429C282.631 384.193 279.58 387.241 275.819 387.241Z" fill="#1A428A"/>
<path d="M285.834 58.3062L305.097 77.5686L276.201 106.46L256.939 87.1978L285.834 58.3062Z" fill="#D7E9FF"/>
<path d="M276.201 113.276C274.397 113.276 272.663 112.559 271.389 111.281L252.126 92.0145C249.469 89.3568 249.469 85.0468 252.126 82.3852L281.022 53.4935C283.683 50.8358 287.993 50.8358 290.651 53.4935L309.91 72.752C312.571 75.4136 312.571 79.7236 309.91 82.3852L281.018 111.281C279.74 112.559 278.006 113.276 276.201 113.276V113.276ZM266.572 87.2018L276.201 96.8388L295.464 77.5686L285.834 67.9394L266.572 87.2018Z" fill="#1A428A"/>
<path d="M14.9875 329.149L203.964 140.173L223.227 159.435L34.2499 348.412L14.9875 329.149Z" fill="#D7E9FF"/>
<path d="M34.25 355.224C32.508 355.224 30.7661 354.561 29.4373 353.228L10.1748 333.97C7.51716 331.312 7.51716 326.998 10.1748 324.341L199.152 135.36C201.813 132.702 206.123 132.702 208.785 135.36L228.047 154.619C229.322 155.897 230.042 157.627 230.042 159.435C230.042 161.243 229.322 162.973 228.047 164.248L39.0665 353.228C37.7377 354.561 35.9958 355.224 34.25 355.224V355.224ZM24.6207 329.153L34.25 338.783L213.601 159.431L203.968 149.802L24.6207 329.153Z" fill="#1A428A"/>
<path d="M347.156 259.695C354.903 200.606 332.165 133.532 281.018 82.3854C229.871 31.2384 162.797 8.50385 103.708 16.247C143.243 33.2064 183.981 59.152 222.369 92.8798L189.522 125.727L237.676 173.881L270.524 141.038C304.251 179.422 330.201 220.161 347.156 259.695V259.695Z" fill="#6BC4E8"/>
<path d="M347.152 266.502C344.463 266.502 341.985 264.905 340.898 262.38C324.768 224.79 300.389 186.421 270.165 151.025L242.489 178.701C239.937 181.254 235.416 181.254 232.86 178.701L184.706 130.543C182.048 127.885 182.048 123.572 184.706 120.914L212.378 93.2381C176.97 63.0058 138.601 38.6229 101.023 22.5091C98.206 21.2972 96.542 18.3589 96.959 15.3193C97.3838 12.2797 99.7804 9.89874 102.824 9.50125C166.433 1.119 234.863 26.597 285.834 77.5686C336.802 128.54 362.249 196.954 353.91 260.575C353.512 263.615 351.127 266.015 348.091 266.436C347.776 266.483 347.464 266.502 347.152 266.502V266.502ZM270.527 134.226C270.598 134.226 270.672 134.226 270.746 134.234C272.628 134.292 274.397 135.126 275.64 136.541C302.334 166.917 324.882 199.655 341.81 232.451C340.656 180.911 317.17 128.174 276.205 87.2017C235.237 46.2374 182.492 22.7546 130.956 21.5973C163.74 38.5176 196.478 61.0691 226.866 87.7668C228.277 89.0099 229.115 90.7791 229.173 92.6613C229.236 94.5435 228.511 96.3634 227.182 97.6961L199.152 125.727L237.676 164.255L265.711 136.221C266.989 134.947 268.723 134.226 270.527 134.226Z" fill="#1A428A"/>
<path d="M224.743 377.023H54.4827C50.7222 377.023 47.6709 373.979 47.6709 370.215C47.6709 366.45 50.7222 363.403 54.4827 363.403H224.743C228.503 363.403 231.551 366.45 231.551 370.215C231.551 373.979 228.503 377.023 224.743 377.023Z" fill="#1A428A"/>
<path fill-rule="evenodd" clip-rule="evenodd" d="M27.2433 342.972H224.743V370.215H27.2433V342.972Z" fill="#1A428A"/>
<path d="M224.743 377.023H27.2433C23.4789 377.023 20.4315 373.979 20.4315 370.215V342.971C20.4315 339.207 23.4789 336.164 27.2433 336.164H224.743C228.503 336.164 231.551 339.207 231.551 342.971V370.215C231.551 373.979 228.503 377.023 224.743 377.023V377.023ZM34.0512 363.403H217.931V349.783H34.0512V363.403Z" fill="#1A428A"/>
<path d="M156.636 315.732C152.876 315.732 149.828 312.685 149.828 308.92V281.681C149.828 277.917 152.876 274.869 156.636 274.869C160.401 274.869 163.448 277.917 163.448 281.681V308.92C163.448 312.685 160.401 315.732 156.636 315.732Z" fill="#1A428A"/>
<path d="M170.26 302.112H143.017C139.256 302.112 136.209 299.065 136.209 295.301C136.209 291.536 139.256 288.489 143.017 288.489H170.26C174.02 288.489 177.068 291.536 177.068 295.301C177.068 299.065 174.02 302.112 170.26 302.112Z" fill="#1A428A"/>
<path d="M20.4315 247.63C16.671 247.63 13.6197 244.582 13.6197 240.818V213.575C13.6197 209.81 16.671 206.767 20.4315 206.767C24.192 206.767 27.2433 209.81 27.2433 213.575V240.818C27.2433 244.582 24.192 247.63 20.4315 247.63Z" fill="#1A428A"/>
<path d="M34.0512 234.006H6.8118C3.04738 234.006 0 230.963 0 227.198C0 223.434 3.04738 220.386 6.8118 220.386H34.0512C37.8117 220.386 40.863 223.434 40.863 227.198C40.863 230.963 37.8117 234.006 34.0512 234.006Z" fill="#1A428A"/>
<path d="M221.337 128.447C219.595 128.447 217.853 127.78 216.52 126.451C213.862 123.794 213.862 119.48 216.52 116.822L247.169 86.1769C249.827 83.5153 254.137 83.5153 256.799 86.1769C259.456 88.8345 259.456 93.1445 256.799 95.8061L226.149 126.451C224.821 127.784 223.079 128.447 221.337 128.447Z" fill="white"/>
</svg>
