<svg width="368" height="368" viewBox="0 0 368 368" fill="none" xmlns="http://www.w3.org/2000/svg">
<g clip-path="url(#clip0_1_1728)">
<path d="M208.309 361.184H44.6369C37.1421 361.184 31.0668 355.109 31.0668 347.614V20.3863C31.0668 12.8915 37.1421 6.81616 44.6369 6.81616H208.309C215.804 6.81616 221.879 12.8915 221.879 20.3863V347.614C221.879 355.109 215.804 361.184 208.309 361.184Z" fill="#1A428A"/>
<path d="M208.309 368.001H44.6369C33.3947 368.001 24.2505 358.856 24.2505 347.614V20.3864C24.2505 9.14425 33.3947 0 44.6369 0H208.309C219.551 0 228.696 9.14425 228.696 20.3864V347.614C228.696 358.856 219.551 368.001 208.309 368.001ZM44.6369 13.6286C40.9129 13.6286 37.8791 16.6585 37.8791 20.3864V347.614C37.8791 351.342 40.9129 354.372 44.6369 354.372H208.309C212.033 354.372 215.067 351.342 215.067 347.614V20.3864C215.067 16.6585 212.033 13.6286 208.309 13.6286H44.6369Z" fill="#1A428A"/>
<path d="M194.681 361.184H31.0083C23.5135 361.184 17.4381 355.109 17.4381 347.614V20.3863C17.4381 12.8915 23.5135 6.81616 31.0083 6.81616H194.681C202.175 6.81616 208.251 12.8915 208.251 20.3863V347.614C208.251 355.109 202.175 361.184 194.681 361.184Z" fill="#6BC4E8"/>
<path d="M194.681 368.001H31.0082C19.7661 368.001 10.6218 358.856 10.6218 347.614V20.3864C10.6218 9.14425 19.7661 0 31.0082 0H194.681C205.923 0 215.067 9.14425 215.067 20.3864V347.614C215.067 358.856 205.923 368.001 194.681 368.001ZM31.0082 13.6286C27.2804 13.6286 24.2505 16.6585 24.2505 20.3864V347.614C24.2505 351.342 27.2804 354.372 31.0082 354.372H194.681C198.405 354.372 201.435 351.342 201.435 347.614V20.3864C201.435 16.6585 198.405 13.6286 194.681 13.6286H31.0082Z" fill="#1A428A"/>
<path d="M37.8792 27.2612H187.806V293.037H37.8792V27.2612Z" fill="#2A8EE6"/>
<path d="M187.806 299.853H37.8791C34.1162 299.853 31.0668 296.804 31.0668 293.037V27.2611C31.0668 23.4942 34.1162 20.4448 37.8791 20.4448H187.806C191.569 20.4448 194.622 23.4942 194.622 27.2611V293.037C194.622 296.804 191.569 299.853 187.806 299.853ZM44.6954 286.221H180.994V34.0735H44.6954V286.221Z" fill="#1A428A"/>
<path d="M249.141 102.221C249.141 132.332 224.73 156.739 194.622 156.739C164.51 156.739 140.104 132.332 140.104 102.221C140.104 72.1128 164.51 47.7021 194.622 47.7021C224.73 47.7021 249.141 72.1128 249.141 102.221Z" fill="#D7E9FF"/>
<path d="M194.622 163.555C160.802 163.555 133.287 136.045 133.287 102.221C133.287 68.4006 160.802 40.8899 194.622 40.8899C228.438 40.8899 255.953 68.4006 255.953 102.221C255.953 136.045 228.438 163.555 194.622 163.555ZM194.622 54.5185C168.316 54.5185 146.916 75.9188 146.916 102.221C146.916 128.523 168.316 149.927 194.622 149.927C220.924 149.927 242.324 128.523 242.324 102.221C242.324 75.9188 220.924 54.5185 194.622 54.5185Z" fill="#1A428A"/>
<path d="M174.973 70.4361C174.973 69.8707 175.347 69.5002 175.909 69.5002H199.613C213.102 69.5002 219.473 76.2424 219.473 86.4551C219.473 93.6691 216.1 97.7909 212.076 99.9473V100.131C216.007 101.636 220.6 106.693 220.6 114.465C220.6 127.119 212.638 133.206 198.674 133.206H175.909C175.347 133.206 174.973 132.835 174.973 132.27V70.4361ZM199.329 96.0127C204.956 96.0127 208.418 92.6397 208.418 87.6718C208.418 82.6142 204.956 79.2411 199.329 79.2411H186.589C186.211 79.2411 186.028 79.4283 186.028 79.7987V95.4551C186.028 95.8256 186.211 96.0127 186.589 96.0127H199.329ZM186.589 123.465H199.894C206.079 123.465 209.542 119.905 209.542 114.559C209.542 109.318 206.079 105.758 199.894 105.758H186.589C186.211 105.758 186.028 105.941 186.028 106.323V122.9C186.028 123.278 186.211 123.465 186.589 123.465Z" fill="#1A428A"/>
<path d="M191.214 78.3717C187.451 78.3717 184.398 75.3223 184.398 71.5554V64.7391C184.398 60.9722 187.451 57.9268 191.214 57.9268C194.977 57.9268 198.03 60.9722 198.03 64.7391V71.5554C198.03 75.3223 194.977 78.3717 191.214 78.3717Z" fill="#1A428A"/>
<path d="M191.214 146.519C187.451 146.519 184.398 143.469 184.398 139.702V132.89C184.398 129.123 187.451 126.074 191.214 126.074C194.977 126.074 198.03 129.123 198.03 132.89V139.702C198.03 143.469 194.977 146.519 191.214 146.519Z" fill="#1A428A"/>
<path d="M351.361 238.519C351.361 268.627 326.955 293.037 296.843 293.037C266.735 293.037 242.324 268.627 242.324 238.519C242.324 208.407 266.735 184 296.843 184C326.955 184 351.361 208.407 351.361 238.519V238.519Z" fill="#D7E9FF"/>
<path d="M296.843 299.854C263.027 299.854 235.512 272.339 235.512 238.519C235.512 204.695 263.027 177.184 296.843 177.184C330.663 177.184 358.178 204.695 358.178 238.519C358.178 272.339 330.663 299.854 296.843 299.854V299.854ZM296.843 190.817C270.541 190.817 249.141 212.217 249.141 238.519C249.141 264.821 270.541 286.221 296.843 286.221C323.149 286.221 344.549 264.821 344.549 238.519C344.549 212.217 323.149 190.817 296.843 190.817Z" fill="#1A428A"/>
<path d="M277.193 206.734C277.193 206.169 277.568 205.794 278.129 205.794H301.834C315.326 205.794 321.698 212.537 321.698 222.753C321.698 229.967 318.325 234.085 314.297 236.241V236.429C318.231 237.934 322.821 242.991 322.821 250.763C322.821 263.413 314.858 269.504 300.898 269.504H278.129C277.568 269.504 277.193 269.13 277.193 268.564V206.734ZM301.553 232.307C307.176 232.307 310.639 228.934 310.639 223.97C310.639 218.912 307.176 215.535 301.553 215.535H288.81C288.436 215.535 288.248 215.722 288.248 216.097V231.749C288.248 232.124 288.436 232.307 288.81 232.307H301.553ZM288.81 259.763H302.115C308.299 259.763 311.766 256.203 311.766 250.857C311.766 245.612 308.299 242.052 302.115 242.052H288.81C288.436 242.052 288.248 242.239 288.248 242.617V259.194C288.248 259.576 288.436 259.763 288.81 259.763V259.763Z" fill="#1A428A"/>
<path d="M300.251 214.666C296.488 214.666 293.435 211.62 293.435 207.853V201.037C293.435 197.27 296.488 194.221 300.251 194.221C304.014 194.221 307.067 197.27 307.067 201.037V207.853C307.067 211.62 304.014 214.666 300.251 214.666Z" fill="#1A428A"/>
<path d="M300.251 282.817C296.488 282.817 293.435 279.767 293.435 276V269.184C293.435 265.417 296.488 262.372 300.251 262.372C304.014 262.372 307.067 265.417 307.067 269.184V276C307.067 279.767 304.014 282.817 300.251 282.817Z" fill="#1A428A"/>
<path d="M126.475 327.111C126.475 334.637 120.372 340.739 112.843 340.739C105.317 340.739 99.2139 334.637 99.2139 327.111C99.2139 319.585 105.317 313.482 112.843 313.482C120.372 313.482 126.475 319.585 126.475 327.111V327.111Z" fill="white"/>
<path d="M112.842 347.556C101.569 347.556 92.3976 338.384 92.3976 327.111C92.3976 315.838 101.569 306.666 112.842 306.666C124.116 306.666 133.287 315.838 133.287 327.111C133.287 338.384 124.116 347.556 112.842 347.556V347.556ZM112.842 320.295C109.087 320.295 106.03 323.352 106.03 327.111C106.03 330.87 109.087 333.927 112.842 333.927C116.602 333.927 119.659 330.87 119.659 327.111C119.659 323.352 116.602 320.295 112.842 320.295Z" fill="#1A428A"/>
<path d="M194.622 163.555H112.843C109.08 163.555 106.03 160.506 106.03 156.739C106.03 152.972 109.08 149.927 112.843 149.927H194.622C198.385 149.927 201.435 152.972 201.435 156.739C201.435 160.506 198.385 163.555 194.622 163.555Z" fill="#1A428A"/>
<path d="M296.843 299.853H215.067C211.304 299.853 208.251 296.804 208.251 293.037C208.251 289.27 211.304 286.221 215.067 286.221H296.843C300.606 286.221 303.659 289.27 303.659 293.037C303.659 296.804 300.606 299.853 296.843 299.853Z" fill="#1A428A"/>
<path d="M201.435 347.556C197.672 347.556 194.622 344.506 194.622 340.74V313.482C194.622 309.715 197.672 306.666 201.435 306.666C205.201 306.666 208.251 309.715 208.251 313.482V340.74C208.251 344.506 205.201 347.556 201.435 347.556Z" fill="white"/>
<path d="M215.067 333.927H187.806C184.043 333.927 180.994 330.878 180.994 327.111C180.994 323.344 184.043 320.294 187.806 320.294H215.067C218.83 320.294 221.879 323.344 221.879 327.111C221.879 330.878 218.83 333.927 215.067 333.927Z" fill="white"/>
<path d="M54.9159 64.739C53.1767 64.739 51.4298 64.0761 50.1 62.7425C47.4367 60.0831 47.4367 55.7703 50.1 53.1069L60.3205 42.8864C62.9839 40.2231 67.2967 40.2231 69.96 42.8864C72.6195 45.5459 72.6195 49.8626 69.96 52.522L59.7356 62.7425C58.4059 64.0761 56.6589 64.739 54.9159 64.739Z" fill="white"/>
<path d="M58.324 88.5921C56.581 88.5921 54.8379 87.9253 53.5082 86.5956C50.8448 83.9361 50.8448 79.6194 53.5082 76.96L87.5817 42.8864C90.2412 40.2231 94.5579 40.2231 97.2173 42.8864C99.8768 45.5459 99.8768 49.8626 97.2173 52.522L63.1438 86.5956C61.8141 87.9253 60.0671 88.5921 58.324 88.5921Z" fill="white"/>
</g>
<defs>
<clipPath id="clip0_1_1728">
<rect width="368" height="368" fill="white"/>
</clipPath>
</defs>
</svg>
