<svg width="410" height="410" viewBox="0 0 410 410" fill="none" xmlns="http://www.w3.org/2000/svg">
<g clip-path="url(#clip0_1_1754)">
<path d="M402.773 204.801C402.773 314.137 314.137 402.773 204.801 402.773C95.4609 402.773 6.82812 314.137 6.82812 204.801C6.82812 95.4609 95.4609 6.82812 204.801 6.82812C314.137 6.82812 402.773 95.4609 402.773 204.801Z" fill="#2A8EE6"/>
<path d="M204.801 409.602C91.875 409.602 0 317.727 0 204.801C0 91.875 91.875 0 204.801 0C317.727 0 409.602 91.875 409.602 204.801C409.602 317.727 317.727 409.602 204.801 409.602ZM204.801 13.6523C99.3984 13.6523 13.6523 99.3984 13.6523 204.801C13.6523 310.199 99.3984 395.945 204.801 395.945C310.199 395.945 395.945 310.199 395.945 204.801C395.945 99.3984 310.199 13.6523 204.801 13.6523V13.6523Z" fill="#1A428A"/>
<path d="M382.293 204.801C382.293 302.828 302.828 382.293 204.801 382.293C106.773 382.293 27.3086 302.828 27.3086 204.801C27.3086 106.773 106.773 27.3086 204.801 27.3086C302.828 27.3086 382.293 106.773 382.293 204.801V204.801Z" fill="#D7E9FF"/>
<path d="M204.801 389.121C103.168 389.121 20.4805 306.434 20.4805 204.801C20.4805 103.168 103.168 20.4805 204.801 20.4805C306.434 20.4805 389.121 103.168 389.121 204.801C389.121 306.434 306.434 389.121 204.801 389.121V389.121ZM204.801 34.1328C110.691 34.1328 34.1328 110.691 34.1328 204.801C34.1328 298.906 110.691 375.465 204.801 375.465C298.906 375.465 375.465 298.906 375.465 204.801C375.465 110.691 298.906 34.1328 204.801 34.1328V34.1328Z" fill="#1A428A"/>
<path d="M382.293 204.801C382.293 302.828 302.828 382.293 204.801 382.293C106.773 382.293 27.3086 302.828 27.3086 204.801C27.3086 106.773 106.773 27.3086 204.801 27.3086C302.828 27.3086 382.293 106.773 382.293 204.801V204.801Z" fill="#D7E9FF"/>
<path d="M204.801 389.121C103.168 389.121 20.4805 306.434 20.4805 204.801C20.4805 103.168 103.168 20.4805 204.801 20.4805C306.434 20.4805 389.121 103.168 389.121 204.801C389.121 306.434 306.434 389.121 204.801 389.121V389.121ZM204.801 34.1328C110.691 34.1328 34.1328 110.691 34.1328 204.801C34.1328 298.906 110.691 375.465 204.801 375.465C298.906 375.465 375.465 298.906 375.465 204.801C375.465 110.691 298.906 34.1328 204.801 34.1328V34.1328Z" fill="#1A428A"/>
<path d="M127.281 75.0547C124.906 75.0547 122.602 73.8125 121.344 71.6016C119.48 68.3281 120.625 64.1562 123.902 62.2969C148.441 48.3398 176.414 40.9609 204.801 40.9609C208.57 40.9609 211.625 44.0117 211.625 47.7852C211.625 51.5586 208.57 54.6133 204.801 54.6133C178.777 54.6133 153.137 61.375 130.652 74.1602C129.586 74.7656 128.426 75.0547 127.281 75.0547Z" fill="white"/>
<path d="M204.801 361.812C110.215 361.812 32.9297 287.82 27.6211 194.559C27.4297 197.949 27.3086 201.359 27.3086 204.801C27.3086 302.828 106.773 382.293 204.801 382.293C302.828 382.293 382.293 302.828 382.293 204.801C382.293 201.359 382.172 197.949 381.977 194.559C376.668 287.82 299.387 361.812 204.801 361.812V361.812Z" fill="#1A428A"/>
<path d="M204.801 389.121C103.168 389.121 20.4805 306.434 20.4805 204.801C20.4805 201.234 20.6055 197.695 20.8008 194.18C21.0039 190.559 23.9961 187.734 27.6172 187.734C31.2383 187.734 34.2305 190.559 34.4336 194.172C39.5703 284.348 114.402 354.988 204.801 354.988C295.195 354.988 370.027 284.348 375.164 194.172C375.371 190.559 378.359 187.734 381.98 187.734H381.984C385.602 187.734 388.594 190.559 388.797 194.18C388.992 197.695 389.121 201.234 389.121 204.801C389.121 306.434 306.434 389.121 204.801 389.121V389.121ZM73.1523 313.301C104.484 351.242 151.867 375.465 204.801 375.465C257.734 375.465 305.117 351.242 336.445 313.301C302.898 347.512 256.176 368.641 204.801 368.641C153.422 368.641 106.699 347.512 73.1523 313.301Z" fill="#1A428A"/>
<path d="M354.457 300.375H314.027C310.258 300.375 307.199 297.32 307.199 293.547V129.031L208.668 196.774C206.34 198.371 203.262 198.371 200.934 196.774L102.398 129.031V293.547C102.398 297.32 99.3437 300.375 95.5742 300.375H50.6406C46.8711 300.375 43.8125 297.32 43.8125 293.547C43.8125 289.774 46.8711 286.719 50.6406 286.719H88.7461V116.055C88.7461 113.52 90.1484 111.192 92.3984 110.012C94.6328 108.828 97.3516 109 99.4414 110.426L204.801 182.859L310.16 110.43C312.254 109 314.969 108.828 317.203 110.016C319.449 111.192 320.852 113.52 320.852 116.055V286.719H354.457C358.227 286.719 361.281 289.774 361.281 293.547C361.281 297.32 358.227 300.375 354.457 300.375V300.375Z" fill="#1A428A"/>
<path d="M286.719 354.988C282.949 354.988 279.895 351.934 279.895 348.16V320.852C279.895 317.078 282.949 314.027 286.719 314.027C290.488 314.027 293.547 317.078 293.547 320.852V348.16C293.547 351.934 290.488 354.988 286.719 354.988V354.988Z" fill="white"/>
<path d="M300.375 341.332H273.066C269.297 341.332 266.238 338.281 266.238 334.508C266.238 330.734 269.297 327.68 273.066 327.68H300.375C304.145 327.68 307.199 330.734 307.199 334.508C307.199 338.281 304.145 341.332 300.375 341.332Z" fill="white"/>
</g>
<defs>
<clipPath id="clip0_1_1754">
<rect width="409.6" height="409.6" fill="white"/>
</clipPath>
</defs>
</svg>
