<svg width="436" height="436" viewBox="0 0 436 436" fill="none" xmlns="http://www.w3.org/2000/svg">
<g clip-path="url(#clip0_1_1768)">
<path d="M6.81775 109.512H429.187V307.071H6.81775V109.512Z" fill="#2A8EE6"/>
<path d="M429.187 313.881H6.81385C3.0483 313.881 0 310.837 0 307.071V109.512C0 105.747 3.0483 102.698 6.81385 102.698H429.187C432.952 102.698 436.001 105.747 436.001 109.512V307.071C436.001 310.837 432.952 313.881 429.187 313.881ZM13.6238 300.257H422.377V116.322H13.6238V300.257Z" fill="#1A428A"/>
<path d="M272.503 204.883C272.503 234.984 248.101 259.382 218.004 259.382C187.903 259.382 163.505 234.984 163.505 204.883C163.505 174.786 187.903 150.384 218.004 150.384C248.101 150.384 272.503 174.786 272.503 204.883Z" fill="#D7E9FF"/>
<path d="M218.004 266.196C184.192 266.196 156.691 238.695 156.691 204.883C156.691 171.075 184.192 143.574 218.004 143.574C251.812 143.574 279.313 171.075 279.313 204.883C279.313 238.695 251.812 266.196 218.004 266.196ZM218.004 157.198C191.712 157.198 170.315 178.59 170.315 204.883C170.315 231.176 191.712 252.572 218.004 252.572C244.297 252.572 265.689 231.176 265.689 204.883C265.689 178.59 244.293 157.198 218.004 157.198V157.198Z" fill="#1A428A"/>
<path d="M214.597 249.165C210.832 249.165 207.783 246.117 207.783 242.351V235.541C207.783 231.776 210.832 228.728 214.597 228.728C218.363 228.728 221.411 231.776 221.411 235.541V242.351C221.411 246.117 218.363 249.165 214.597 249.165Z" fill="#1A428A"/>
<path d="M198.366 173.11C198.366 172.544 198.74 172.174 199.297 172.174H222.994C236.477 172.174 242.847 178.91 242.847 189.123C242.847 196.334 239.479 200.451 235.448 202.61V202.794C239.385 204.298 243.977 209.354 243.977 217.123C243.977 229.772 236.013 235.857 222.054 235.857H199.297C198.74 235.857 198.366 235.487 198.366 234.922V173.11ZM222.713 198.677C228.33 198.677 231.796 195.305 231.796 190.339C231.796 185.283 228.33 181.911 222.713 181.911H209.974C209.596 181.911 209.409 182.099 209.409 182.469V198.116C209.409 198.49 209.596 198.677 209.974 198.677H222.713ZM209.974 226.12H223.274C229.461 226.12 232.918 222.561 232.918 217.216C232.918 211.977 229.461 208.415 223.274 208.415H209.974C209.592 208.415 209.409 208.602 209.409 208.984V225.554C209.409 225.933 209.592 226.12 209.974 226.12Z" fill="#1A428A"/>
<path d="M214.597 181.042C210.832 181.042 207.783 177.994 207.783 174.229V167.415C207.783 163.649 210.832 160.605 214.597 160.605C218.363 160.605 221.411 163.649 221.411 167.415V174.229C221.411 177.994 218.363 181.042 214.597 181.042Z" fill="#1A428A"/>
<path d="M6.81775 157.198C33.1571 157.198 54.5069 135.848 54.5069 109.512H6.81775V157.198Z" fill="#2A8EE6"/>
<path d="M6.81775 164.011C3.05999 164.011 0.00779617 160.963 0.00779617 157.198L0 109.512C0 107.708 0.717247 105.973 1.99582 104.694C3.27439 103.416 5.00514 102.698 6.81385 102.698H54.5069C58.2724 102.698 61.3168 105.747 61.3168 109.512C61.3168 139.563 36.8681 164.011 6.81775 164.011V164.011ZM13.6238 116.322V149.819C30.7208 146.938 44.2471 133.415 47.1278 116.322H13.6238Z" fill="#1A428A"/>
<path d="M381.498 109.512C381.498 135.848 402.847 157.198 429.187 157.198V109.509H381.498V109.512Z" fill="#2A8EE6"/>
<path d="M429.187 164.011C399.136 164.011 374.688 139.563 374.688 109.512C374.688 105.747 377.736 102.698 381.501 102.698H429.187C432.952 102.698 436.001 105.747 436.001 109.512V157.198C436.001 160.963 432.952 164.011 429.187 164.011V164.011ZM388.881 116.322C391.757 133.415 405.284 146.938 422.377 149.819V116.322H388.881Z" fill="#1A428A"/>
<path d="M6.81775 259.382C33.1571 259.382 54.5069 280.732 54.5069 307.071H6.81775V259.382Z" fill="#2A8EE6"/>
<path d="M54.5069 313.881H6.81385C3.0483 313.881 0 310.837 0 307.071V259.382C0 255.616 3.0522 252.572 6.81775 252.572C36.872 252.572 61.3168 277.021 61.3168 307.071C61.3168 310.837 58.2724 313.881 54.5069 313.881ZM13.6238 300.257H47.1278C44.2471 283.168 30.7208 269.642 13.6316 266.761L13.6238 300.257Z" fill="#1A428A"/>
<path d="M381.498 307.067C381.498 280.732 402.847 259.382 429.187 259.382V307.071H381.498V307.067Z" fill="#2A8EE6"/>
<path d="M429.187 313.881H381.501C377.736 313.881 374.688 310.837 374.688 307.071C374.688 277.021 399.136 252.572 429.187 252.572C432.952 252.572 436.001 255.617 436.001 259.382V307.071C436.001 310.837 432.952 313.881 429.187 313.881V313.881ZM388.881 300.258H422.377V266.761C405.284 269.642 391.757 283.168 388.881 300.258V300.258Z" fill="#1A428A"/>
<path d="M163.505 191.259H129.444C127.167 191.259 125.039 190.121 123.776 188.226L112.171 170.822H74.9445C71.1789 170.822 68.1306 167.777 68.1306 164.012C68.1306 160.246 71.1789 157.198 74.9445 157.198H115.816C118.092 157.198 120.221 158.336 121.484 160.23L133.088 177.635H163.505C167.271 177.635 170.315 180.68 170.315 184.445C170.315 188.211 167.271 191.259 163.505 191.259Z" fill="#1A428A"/>
<path d="M163.505 218.511H54.5068C50.7413 218.511 47.693 215.462 47.693 211.697C47.693 207.931 50.7413 204.883 54.5068 204.883H163.505C167.271 204.883 170.315 207.931 170.315 211.697C170.315 215.462 167.271 218.511 163.505 218.511Z" fill="#1A428A"/>
<path d="M109.006 259.382H88.5684C84.8028 259.382 81.7545 256.338 81.7545 252.572C81.7545 248.807 84.8028 245.758 88.5684 245.758H106.184L117.812 234.13C119.09 232.852 120.821 232.135 122.63 232.135H170.81C174.576 232.135 177.62 235.179 177.62 238.944C177.62 242.71 174.576 245.758 170.81 245.758H125.452L113.82 257.386C112.545 258.665 110.815 259.382 109.006 259.382Z" fill="#1A428A"/>
<path d="M307.056 191.259H272.994C269.229 191.259 266.181 188.211 266.181 184.445C266.181 180.68 269.229 177.635 272.994 177.635H303.411L315.012 160.23C316.275 158.336 318.403 157.198 320.68 157.198H361.555C365.32 157.198 368.365 160.246 368.365 164.012C368.365 167.777 365.32 170.822 361.555 170.822H324.324L312.724 188.226C311.461 190.121 309.332 191.259 307.056 191.259Z" fill="#1A428A"/>
<path d="M381.993 218.511H272.994C269.229 218.511 266.181 215.462 266.181 211.697C266.181 207.931 269.229 204.883 272.994 204.883H381.993C385.758 204.883 388.806 207.931 388.806 211.697C388.806 215.462 385.758 218.511 381.993 218.511Z" fill="#1A428A"/>
<path d="M347.931 259.382H327.493C325.685 259.382 323.954 258.665 322.679 257.386L311.047 245.758H265.689C261.924 245.758 258.879 242.71 258.879 238.944C258.879 235.179 261.924 232.135 265.689 232.135H313.87C315.678 232.135 317.409 232.852 318.684 234.13L330.316 245.758H347.931C351.697 245.758 354.745 248.807 354.745 252.572C354.745 256.338 351.697 259.382 347.931 259.382V259.382Z" fill="#1A428A"/>
<path fill-rule="evenodd" clip-rule="evenodd" d="M415.563 327.509H20.4454L6.81775 307.071H429.187L415.563 327.509Z" fill="#1A428A"/>
<path d="M415.563 334.319H20.4454C18.1689 334.319 16.0406 333.181 14.7776 331.286L1.1499 310.848C-0.237817 308.759 -0.37425 306.073 0.810768 303.859C1.99578 301.645 4.30345 300.257 6.81771 300.257H429.187C431.705 300.257 434.013 301.641 435.194 303.855C436.379 306.073 436.246 308.759 434.855 310.848L421.231 331.286C419.968 333.181 417.839 334.319 415.563 334.319ZM24.0901 320.695H411.918L416.463 313.881H19.545L24.0901 320.695Z" fill="#1A428A"/>
<path d="M327.002 320.695C323.237 320.695 320.188 317.647 320.188 313.881V286.634C320.188 282.868 323.237 279.82 327.002 279.82C330.768 279.82 333.812 282.868 333.812 286.634V313.881C333.812 317.647 330.768 320.695 327.002 320.695Z" fill="white"/>
<path d="M340.626 307.071H313.379C309.613 307.071 306.565 304.023 306.565 300.257C306.565 296.492 309.613 293.444 313.379 293.444H340.626C344.392 293.444 347.44 296.492 347.44 300.257C347.44 304.023 344.392 307.071 340.626 307.071Z" fill="white"/>
<path d="M129.444 136.76H74.9446C71.179 136.76 68.1307 133.712 68.1307 129.946C68.1307 126.181 71.179 123.136 74.9446 123.136H129.444C133.209 123.136 136.254 126.181 136.254 129.946C136.254 133.712 133.209 136.76 129.444 136.76Z" fill="white"/>
</g>
<defs>
<clipPath id="clip0_1_1768">
<rect width="436" height="436" fill="white"/>
</clipPath>
</defs>
</svg>
