<svg width="436" height="436" viewBox="0 0 436 436" fill="none" xmlns="http://www.w3.org/2000/svg">
<g clip-path="url(#clip0_1_1796)">
<path d="M218 311.154C216.823 311.154 215.649 310.846 214.593 310.242L119.217 255.177C117.112 253.96 115.814 251.711 115.814 249.275V139.145C115.814 136.708 117.112 134.459 119.217 133.243L214.593 78.1776C216.702 76.9652 219.298 76.9652 221.407 78.1776L316.783 133.243C318.892 134.459 320.186 136.708 320.186 139.145V249.275C320.186 251.711 318.892 253.96 316.783 255.177L221.407 310.242C220.35 310.846 219.177 311.154 218 311.154V311.154ZM129.438 245.342L218 296.474L306.562 245.342V143.074L218 91.9419L129.438 143.074V245.342ZM313.376 249.275H313.442H313.376Z" fill="#1A428A"/>
<path d="M408.744 311.154C407.59 311.154 406.417 310.862 405.345 310.242L309.969 255.177C307.86 253.96 306.562 251.711 306.562 249.275V139.144C306.562 136.708 307.86 134.459 309.969 133.243L405.345 78.1775C408.592 76.2947 412.763 77.4057 414.65 80.6723C416.532 83.9312 415.417 88.0944 412.155 89.9811L320.186 143.078V245.345L412.155 298.442C415.417 300.321 416.528 304.488 414.65 307.747C413.387 309.934 411.098 311.154 408.744 311.154V311.154Z" fill="#1A428A"/>
<path d="M27.2559 311.154C24.9014 311.154 22.6132 309.934 21.3502 307.747C19.4674 304.488 20.5823 300.321 23.845 298.438L115.814 245.342V143.074L23.845 89.9811C20.5823 88.0983 19.4713 83.9312 21.3502 80.6723C23.2291 77.4057 27.3846 76.2947 30.6551 78.1775L126.031 133.243C128.14 134.459 129.438 136.708 129.438 139.144V249.275C129.438 251.711 128.14 253.96 126.031 255.177L30.6551 310.242C29.587 310.862 28.4098 311.154 27.2559 311.154Z" fill="#1A428A"/>
<path d="M143.062 139.71C143.062 150.999 133.913 160.148 122.624 160.148C111.339 160.148 102.186 150.999 102.186 139.71C102.186 128.421 111.339 119.272 122.624 119.272C133.913 119.272 143.062 128.421 143.062 139.71Z" fill="#D7E9FF"/>
<path d="M122.624 166.958C107.601 166.958 95.376 154.737 95.376 139.71C95.376 124.682 107.601 112.458 122.624 112.458C137.651 112.458 149.876 124.682 149.876 139.71C149.876 154.737 137.651 166.958 122.624 166.958ZM122.624 126.086C115.112 126.086 109 132.198 109 139.71C109 147.221 115.112 153.334 122.624 153.334C130.14 153.334 136.252 147.221 136.252 139.71C136.252 132.198 130.14 126.086 122.624 126.086Z" fill="#1A428A"/>
<path d="M238.438 92.0237C238.438 103.309 229.289 112.458 218 112.458C206.711 112.458 197.562 103.309 197.562 92.0237C197.562 80.7346 206.711 71.5857 218 71.5857C229.289 71.5857 238.438 80.7346 238.438 92.0237Z" fill="#D7E9FF"/>
<path d="M218 119.272C202.976 119.272 190.752 107.051 190.752 92.0237C190.752 76.9924 202.976 64.7717 218 64.7717C233.023 64.7717 245.252 76.9924 245.252 92.0237C245.252 107.051 233.023 119.272 218 119.272ZM218 78.3957C210.484 78.3957 204.376 84.5119 204.376 92.0237C204.376 99.5315 210.484 105.648 218 105.648C225.515 105.648 231.624 99.5315 231.624 92.0237C231.624 84.5119 225.515 78.3957 218 78.3957Z" fill="#1A428A"/>
<path d="M429.186 92.0237C429.186 103.309 420.037 112.458 408.751 112.458C397.462 112.458 388.313 103.309 388.313 92.0237C388.313 80.7346 397.462 71.5857 408.751 71.5857C420.037 71.5857 429.186 80.7346 429.186 92.0237Z" fill="#6BC4E8"/>
<path d="M408.751 119.272C393.724 119.272 381.5 107.051 381.5 92.0237C381.5 76.9924 393.724 64.7717 408.751 64.7717C423.775 64.7717 435.999 76.9924 435.999 92.0237C435.999 107.051 423.775 119.272 408.751 119.272ZM408.751 78.3957C401.236 78.3957 395.124 84.5119 395.124 92.0237C395.124 99.5315 401.236 105.648 408.751 105.648C416.263 105.648 422.375 99.5315 422.375 92.0237C422.375 84.5119 416.263 78.3957 408.751 78.3957V78.3957Z" fill="#1A428A"/>
<path d="M47.686 92.0237C47.686 103.309 38.5371 112.458 27.2519 112.458C15.9629 112.458 6.81396 103.309 6.81396 92.0237C6.81396 80.7346 15.9629 71.5857 27.2519 71.5857C38.5371 71.5857 47.686 80.7346 47.686 92.0237Z" fill="#2A8EE6"/>
<path d="M27.2519 119.272C12.2246 119.272 0 107.051 0 92.0237C0 76.9924 12.2246 64.7717 27.2519 64.7717C42.2754 64.7717 54.4999 76.9924 54.4999 92.0237C54.4999 107.051 42.2754 119.272 27.2519 119.272ZM27.2519 78.3957C19.7363 78.3957 13.624 84.5119 13.624 92.0237C13.624 99.5315 19.7363 105.648 27.2519 105.648C34.7636 105.648 40.8759 99.5315 40.8759 92.0237C40.8759 84.5119 34.7636 78.3957 27.2519 78.3957Z" fill="#1A428A"/>
<path d="M238.438 296.395C238.438 307.685 229.289 316.833 218 316.833C206.711 316.833 197.562 307.685 197.562 296.395C197.562 285.11 206.711 275.958 218 275.958C229.289 275.958 238.438 285.11 238.438 296.395Z" fill="#2A8EE6"/>
<path d="M218 323.647C202.976 323.647 190.752 311.427 190.752 296.395C190.752 281.368 202.976 269.147 218 269.147C233.023 269.147 245.252 281.368 245.252 296.395C245.252 311.427 233.023 323.647 218 323.647ZM218 282.771C210.484 282.771 204.376 288.888 204.376 296.395C204.376 303.907 210.484 310.023 218 310.023C225.515 310.023 231.624 303.907 231.624 296.395C231.624 288.888 225.515 282.771 218 282.771Z" fill="#1A428A"/>
<path d="M429.186 303.209C429.186 314.498 420.037 323.647 408.751 323.647C397.462 323.647 388.313 314.498 388.313 303.209C388.313 291.92 397.462 282.771 408.751 282.771C420.037 282.771 429.186 291.92 429.186 303.209Z" fill="#D7E9FF"/>
<path d="M408.751 330.457C393.724 330.457 381.5 318.237 381.5 303.209C381.5 288.182 393.724 275.958 408.751 275.958C423.775 275.958 435.999 288.182 435.999 303.209C435.999 318.237 423.775 330.457 408.751 330.457ZM408.751 289.585C401.236 289.585 395.124 295.698 395.124 303.209C395.124 310.721 401.236 316.833 408.751 316.833C416.263 316.833 422.375 310.721 422.375 303.209C422.375 295.698 416.263 289.585 408.751 289.585V289.585Z" fill="#1A428A"/>
<path d="M47.686 303.209C47.686 314.498 38.5371 323.647 27.2519 323.647C15.9629 323.647 6.81396 314.498 6.81396 303.209C6.81396 291.92 15.9629 282.771 27.2519 282.771C38.5371 282.771 47.686 291.92 47.686 303.209Z" fill="#D7E9FF"/>
<path d="M27.2519 330.457C12.2246 330.457 0 318.237 0 303.209C0 288.182 12.2246 275.958 27.2519 275.958C42.2754 275.958 54.4999 288.182 54.4999 303.209C54.4999 318.237 42.2754 330.457 27.2519 330.457ZM27.2519 289.585C19.7363 289.585 13.624 295.698 13.624 303.209C13.624 310.721 19.7363 316.833 27.2519 316.833C34.7636 316.833 40.8759 310.721 40.8759 303.209C40.8759 295.698 34.7636 289.585 27.2519 289.585Z" fill="#1A428A"/>
<path d="M143.062 255.523C143.062 266.809 133.913 275.957 122.624 275.957C111.339 275.957 102.186 266.809 102.186 255.523C102.186 244.234 111.339 235.085 122.624 235.085C133.913 235.085 143.062 244.234 143.062 255.523Z" fill="#6BC4E8"/>
<path d="M122.624 282.771C107.601 282.771 95.376 270.551 95.376 255.523C95.376 240.492 107.601 228.271 122.624 228.271C137.651 228.271 149.876 240.492 149.876 255.523C149.876 270.551 137.651 282.771 122.624 282.771ZM122.624 241.895C115.112 241.895 109 248.012 109 255.523C109 263.031 115.112 269.147 122.624 269.147C130.14 269.147 136.252 263.031 136.252 255.523C136.252 248.012 130.14 241.895 122.624 241.895Z" fill="#1A428A"/>
<path d="M333.814 139.71C333.814 150.999 324.661 160.148 313.376 160.148C302.087 160.148 292.938 150.999 292.938 139.71C292.938 128.421 302.087 119.272 313.376 119.272C324.661 119.272 333.814 128.421 333.814 139.71V139.71Z" fill="#D7E9FF"/>
<path d="M313.376 166.958C298.348 166.958 286.124 154.737 286.124 139.71C286.124 124.682 298.348 112.458 313.376 112.458C328.399 112.458 340.624 124.682 340.624 139.71C340.624 154.737 328.399 166.958 313.376 166.958V166.958ZM313.376 126.086C305.86 126.086 299.752 132.198 299.752 139.71C299.752 147.221 305.86 153.334 313.376 153.334C320.887 153.334 327 147.221 327 139.71C327 132.198 320.887 126.086 313.376 126.086V126.086Z" fill="#1A428A"/>
<path d="M354.645 279.918C353.492 279.918 352.322 279.626 351.246 279.006L309.969 255.177C307.86 253.96 306.562 251.711 306.562 249.275V181.198C306.562 177.432 309.614 174.384 313.376 174.384C317.137 174.384 320.186 177.432 320.186 181.198V245.342L358.06 267.202C361.319 269.085 362.43 273.252 360.555 276.511C359.288 278.694 357 279.918 354.645 279.918Z" fill="#1A428A"/>
<path d="M253.146 290.86C250.787 290.86 248.499 289.636 247.236 287.457C245.357 284.194 246.476 280.031 249.731 278.148L309.969 243.373C313.232 241.486 317.391 242.617 319.278 245.868C321.156 249.127 320.038 253.294 316.783 255.177L256.545 289.952C255.469 290.568 254.296 290.86 253.146 290.86Z" fill="#1A428A"/>
<path d="M333.814 255.523C333.814 266.809 324.661 275.957 313.376 275.957C302.087 275.957 292.938 266.809 292.938 255.523C292.938 244.234 302.087 235.085 313.376 235.085C324.661 235.085 333.814 244.234 333.814 255.523V255.523Z" fill="#D7E9FF"/>
<path d="M313.376 282.772C298.348 282.772 286.124 270.551 286.124 255.524C286.124 240.492 298.348 228.272 313.376 228.272C328.399 228.272 340.624 240.492 340.624 255.524C340.624 270.551 328.399 282.772 313.376 282.772V282.772ZM313.376 241.896C305.86 241.896 299.752 248.012 299.752 255.524C299.752 263.031 305.86 269.148 313.376 269.148C320.887 269.148 327 263.031 327 255.524C327 248.012 320.887 241.896 313.376 241.896V241.896Z" fill="#1A428A"/>
<path d="M189.146 156.561C189.146 155.844 189.625 155.373 190.339 155.373H220.475C237.631 155.373 245.727 163.948 245.727 176.933C245.727 186.109 241.443 191.345 236.321 194.085V194.323C241.326 196.233 247.158 202.665 247.158 212.551C247.158 228.63 237.034 236.376 219.282 236.376H190.339C189.625 236.376 189.146 235.897 189.146 235.183V156.561ZM220.12 189.08C227.266 189.08 231.678 184.796 231.678 178.481C231.678 172.049 227.266 167.757 220.12 167.757H203.916C203.444 167.757 203.202 167.999 203.202 168.47V188.366C203.202 188.838 203.444 189.08 203.916 189.08H220.12ZM203.916 223.988H220.834C228.696 223.988 233.101 219.458 233.101 212.671C233.101 205.998 228.696 201.468 220.834 201.468H203.916C203.444 201.468 203.202 201.706 203.202 202.185V223.267C203.202 223.75 203.444 223.988 203.916 223.988Z" fill="#1A428A"/>
<path d="M211.186 166.958C207.424 166.958 204.376 163.913 204.376 160.148V146.524C204.376 142.758 207.424 139.71 211.186 139.71C214.951 139.71 218 142.758 218 146.524V160.148C218 163.913 214.951 166.958 211.186 166.958Z" fill="#1A428A"/>
<path d="M211.186 248.71C207.424 248.71 204.376 245.661 204.376 241.896V235.086C204.376 231.32 207.424 228.272 211.186 228.272C214.951 228.272 218 231.32 218 235.086V241.896C218 245.661 214.951 248.71 211.186 248.71Z" fill="#1A428A"/>
<path d="M189.146 156.561C189.146 155.844 189.625 155.373 190.339 155.373H220.475C237.631 155.373 245.727 163.948 245.727 176.933C245.727 186.109 241.443 191.345 236.321 194.085V194.323C241.326 196.233 247.158 202.665 247.158 212.551C247.158 228.63 237.034 236.376 219.282 236.376H190.339C189.625 236.376 189.146 235.897 189.146 235.183V156.561ZM220.12 189.08C227.266 189.08 231.678 184.796 231.678 178.481C231.678 172.049 227.266 167.757 220.12 167.757H203.916C203.444 167.757 203.202 167.999 203.202 168.47V188.366C203.202 188.838 203.444 189.08 203.916 189.08H220.12ZM203.916 223.988H220.834C228.696 223.988 233.101 219.458 233.101 212.671C233.101 205.998 228.696 201.468 220.834 201.468H203.916C203.444 201.468 203.202 201.706 203.202 202.185V223.267C203.202 223.75 203.444 223.988 203.916 223.988Z" fill="#1A428A"/>
<path d="M211.186 166.958C207.424 166.958 204.376 163.913 204.376 160.148V146.524C204.376 142.758 207.424 139.71 211.186 139.71C214.951 139.71 218 142.758 218 146.524V160.148C218 163.913 214.951 166.958 211.186 166.958Z" fill="#1A428A"/>
<path d="M211.186 248.71C207.424 248.71 204.376 245.661 204.376 241.896V235.086C204.376 231.32 207.424 228.272 211.186 228.272C214.951 228.272 218 231.32 218 235.086V241.896C218 245.661 214.951 248.71 211.186 248.71Z" fill="#1A428A"/>
<path d="M320.186 350.895C320.186 343.372 274.437 337.271 218 337.271C161.563 337.271 115.814 343.372 115.814 350.895C115.814 358.423 161.563 364.523 218 364.523C274.437 364.523 320.186 358.423 320.186 350.895Z" fill="#1A428A"/>
<path d="M218 371.333C168.275 371.333 109 367.79 109 350.895C109 334.005 168.275 330.458 218 330.458C267.725 330.458 327 334.005 327 350.895C327 367.79 267.725 371.333 218 371.333V371.333ZM130.206 350.895C144.075 354.143 173.518 357.709 218 357.709C262.482 357.709 291.924 354.143 305.794 350.895C291.924 347.652 262.482 344.085 218 344.085C173.518 344.085 144.075 347.652 130.206 350.895ZM314.541 353.963H314.608H314.541Z" fill="#1A428A"/>
<path d="M361.062 221.458C357.3 221.458 354.252 218.413 354.252 214.648V187.396C354.252 183.63 357.3 180.586 361.062 180.586C364.823 180.586 367.876 183.63 367.876 187.396V214.648C367.876 218.413 364.823 221.458 361.062 221.458Z" fill="#1A428A"/>
<path d="M374.686 207.834H347.438C343.676 207.834 340.624 204.789 340.624 201.024C340.624 197.258 343.676 194.21 347.438 194.21H374.686C378.451 194.21 381.5 197.258 381.5 201.024C381.5 204.789 378.451 207.834 374.686 207.834Z" fill="#1A428A"/>
<path d="M74.938 221.458C71.1763 221.458 68.124 218.413 68.124 214.648V187.396C68.124 183.63 71.1763 180.586 74.938 180.586C78.6997 180.586 81.7519 183.63 81.7519 187.396V214.648C81.7519 218.413 78.6997 221.458 74.938 221.458Z" fill="#1A428A"/>
<path d="M88.562 207.834H61.314C57.5522 207.834 54.5 204.789 54.5 201.024C54.5 197.258 57.5522 194.21 61.314 194.21H88.562C92.3237 194.21 95.3759 197.258 95.3759 201.024C95.3759 204.789 92.3237 207.834 88.562 207.834Z" fill="#1A428A"/>
</g>
<defs>
<clipPath id="clip0_1_1796">
<rect width="436" height="436" fill="white"/>
</clipPath>
</defs>
</svg>
