<svg width="410" height="410" viewBox="0 0 410 410" fill="none" xmlns="http://www.w3.org/2000/svg">
<g clip-path="url(#clip0_1_1835)">
<path d="M204.801 102.398C148.246 102.398 102.398 148.246 102.398 204.801C102.398 261.355 148.246 307.199 204.801 307.199C261.355 307.199 307.199 261.355 307.199 204.801C307.199 148.246 261.355 102.398 204.801 102.398V102.398Z" fill="#1A428A"/>
<path d="M204.801 314.027C144.574 314.027 95.5742 265.027 95.5742 204.801C95.5742 144.574 144.574 95.5742 204.801 95.5742C265.027 95.5742 314.027 144.574 314.027 204.801C314.027 265.027 265.027 314.027 204.801 314.027V314.027ZM204.801 109.227C152.102 109.227 109.227 152.102 109.227 204.801C109.227 257.5 152.102 300.375 204.801 300.375C257.5 300.375 300.375 257.5 300.375 204.801C300.375 152.102 257.5 109.227 204.801 109.227V109.227Z" fill="#1A428A"/>
<path d="M204.801 122.879C159.555 122.879 122.879 159.555 122.879 204.801C122.879 250.043 159.555 286.719 204.801 286.719C250.043 286.719 286.719 250.043 286.719 204.801C286.719 159.555 250.043 122.879 204.801 122.879Z" fill="#D7E9FF"/>
<path d="M204.801 293.547C155.863 293.547 116.055 253.734 116.055 204.801C116.055 155.867 155.863 116.055 204.801 116.055C253.738 116.055 293.547 155.867 293.547 204.801C293.547 253.734 253.738 293.547 204.801 293.547ZM204.801 129.707C163.395 129.707 129.707 163.395 129.707 204.801C129.707 246.207 163.395 279.895 204.801 279.895C246.207 279.895 279.895 246.207 279.895 204.801C279.895 163.395 246.207 129.707 204.801 129.707V129.707Z" fill="#1A428A"/>
<path d="M143.359 211.625C139.59 211.625 136.535 208.574 136.535 204.801C136.535 182.086 147.785 160.926 166.625 148.199C169.758 146.082 173.992 146.914 176.105 150.031C178.215 153.152 177.395 157.398 174.27 159.508C159.188 169.699 150.188 186.629 150.188 204.801C150.188 208.574 147.129 211.625 143.359 211.625Z" fill="white"/>
<path d="M182.715 167.074C182.715 166.355 183.195 165.883 183.906 165.883H214.105C231.301 165.883 239.414 174.473 239.414 187.488C239.414 196.68 235.117 201.926 229.988 204.672V204.914C235 206.828 240.848 213.273 240.848 223.18C240.848 239.293 230.699 247.055 212.914 247.055H183.906C183.195 247.055 182.715 246.574 182.715 245.859V167.074ZM213.754 199.66C220.914 199.66 225.332 195.367 225.332 189.039C225.332 182.594 220.914 178.293 213.754 178.293H197.512C197.039 178.293 196.801 178.531 196.801 179.004V198.945C196.801 199.418 197.039 199.66 197.512 199.66H213.754ZM197.512 234.641H214.465C222.348 234.641 226.758 230.102 226.758 223.297C226.758 216.613 222.348 212.07 214.465 212.07H197.512C197.039 212.07 196.801 212.312 196.801 212.793V233.918C196.801 234.402 197.039 234.641 197.512 234.641Z" fill="#1A428A"/>
<path d="M204.801 177.492C201.031 177.492 197.973 174.441 197.973 170.668V157.012C197.973 153.238 201.031 150.188 204.801 150.188C208.57 150.188 211.625 153.238 211.625 157.012V170.668C211.625 174.441 208.57 177.492 204.801 177.492Z" fill="#1A428A"/>
<path d="M204.801 259.414C201.031 259.414 197.973 256.359 197.973 252.586V245.762C197.973 241.988 201.031 238.934 204.801 238.934C208.57 238.934 211.625 241.988 211.625 245.762V252.586C211.625 256.359 208.57 259.414 204.801 259.414Z" fill="#1A428A"/>
<path d="M204.801 102.398C201.031 102.398 197.973 99.3477 197.973 95.5742V27.3086C197.973 23.5352 201.031 20.4805 204.801 20.4805C208.57 20.4805 211.625 23.5352 211.625 27.3086V95.5742C211.625 99.3477 208.57 102.398 204.801 102.398Z" fill="#1A428A"/>
<path d="M127.566 134.395C125.82 134.395 124.074 133.727 122.738 132.395L74.4688 84.1211C71.8008 81.4531 71.8008 77.1328 74.4688 74.4688C77.1328 71.8008 81.4531 71.8008 84.1211 74.4688L132.395 122.738C135.059 125.406 135.059 129.727 132.395 132.395C131.059 133.727 129.313 134.395 127.566 134.395Z" fill="#1A428A"/>
<path d="M84.1172 64.8125C78.7852 59.4805 70.1406 59.4805 64.8086 64.8125C59.4766 70.1445 59.4766 78.7891 64.8086 84.1211C70.1406 89.4531 78.7852 89.4531 84.1172 84.1211C89.4492 78.7891 89.4492 70.1445 84.1172 64.8125Z" fill="#6BC4E8"/>
<path d="M74.4688 94.9453C68.9961 94.9453 63.8516 92.8125 59.9844 88.9453C52 80.9609 52 67.9727 59.9883 59.9844C67.7188 52.2539 81.2148 52.2539 88.9492 59.9844H88.9531C96.9336 67.9727 96.9336 80.9609 88.9492 88.9453C85.082 92.8125 79.9375 94.9453 74.4688 94.9453ZM74.4688 67.6406C72.6445 67.6406 70.9297 68.3477 69.6445 69.6406C66.9805 72.3008 66.9805 76.6328 69.6406 79.293C72.2227 81.8789 76.7148 81.8789 79.2891 79.293C81.9531 76.6328 81.9531 72.3008 79.293 69.6406C79.293 69.6406 79.293 69.6406 79.2891 69.6406C78.0039 68.3477 76.2891 67.6406 74.4688 67.6406Z" fill="#1A428A"/>
<path d="M330.305 337.133C328.562 337.133 326.812 336.465 325.48 335.133L277.207 286.859C274.543 284.195 274.543 279.871 277.207 277.207C279.871 274.543 284.195 274.543 286.859 277.207L335.133 325.48C337.797 328.145 337.797 332.469 335.133 335.133C333.801 336.465 332.051 337.133 330.305 337.133Z" fill="#1A428A"/>
<path d="M344.785 325.48C339.453 320.148 330.809 320.148 325.477 325.48C320.145 330.812 320.145 339.457 325.477 344.789C330.809 350.121 339.453 350.121 344.785 344.789C350.117 339.457 350.117 330.812 344.785 325.48V325.48Z" fill="#6BC4E8"/>
<path d="M335.133 355.613C329.664 355.613 324.52 353.48 320.648 349.613C312.668 341.625 312.668 328.641 320.652 320.652C328.387 312.918 341.883 312.918 349.613 320.652H349.617C357.602 328.641 357.598 341.625 349.613 349.613C345.746 353.48 340.602 355.613 335.133 355.613V355.613ZM335.133 328.305C333.309 328.305 331.598 329.012 330.309 330.305C327.645 332.969 327.645 337.301 330.305 339.961C332.887 342.547 337.383 342.547 339.957 339.961C342.621 337.297 342.621 332.965 339.961 330.305C339.961 330.305 339.961 330.305 339.957 330.305C338.668 329.012 336.957 328.305 335.133 328.305Z" fill="#1A428A"/>
<path d="M282.035 134.395C280.289 134.395 278.539 133.727 277.207 132.395C274.543 129.727 274.543 125.406 277.207 122.738L325.48 74.4688C328.145 71.8008 332.469 71.8008 335.133 74.4688C337.797 77.1328 337.797 81.4531 335.133 84.1211L286.859 132.395C285.527 133.727 283.781 134.395 282.035 134.395V134.395Z" fill="#1A428A"/>
<path d="M344.785 64.8125C339.453 59.4805 330.809 59.4805 325.477 64.8125C320.145 70.1445 320.145 78.7891 325.477 84.1211C330.809 89.4531 339.453 89.4531 344.785 84.1211C350.117 78.7891 350.117 70.1445 344.785 64.8125V64.8125Z" fill="#6BC4E8"/>
<path d="M335.133 94.9453C329.664 94.9453 324.52 92.8125 320.648 88.9453C312.668 80.9609 312.668 67.9727 320.652 59.9844C328.387 52.2539 341.879 52.2539 349.617 59.9844C357.598 67.9727 357.602 80.9609 349.617 88.9453H349.613C345.746 92.8125 340.602 94.9453 335.133 94.9453V94.9453ZM335.133 67.6406C333.309 67.6406 331.598 68.3477 330.309 69.6406C327.645 72.3008 327.645 76.6328 330.305 79.293C332.887 81.8789 337.383 81.8789 339.957 79.293H339.961C342.621 76.6328 342.621 72.3008 339.961 69.6406C338.668 68.3477 336.957 67.6406 335.133 67.6406V67.6406Z" fill="#1A428A"/>
<path d="M79.293 337.133C77.5469 337.133 75.8008 336.465 74.4688 335.133C71.8008 332.469 71.8008 328.145 74.4688 325.48L122.738 277.207C125.406 274.543 129.727 274.543 132.395 277.207C135.059 279.871 135.059 284.195 132.395 286.859L84.1211 335.133C82.7852 336.465 81.0391 337.133 79.293 337.133Z" fill="#1A428A"/>
<path d="M84.1172 325.48C78.7852 320.148 70.1406 320.148 64.8086 325.48C59.4766 330.812 59.4766 339.457 64.8086 344.789C70.1406 350.121 78.7852 350.121 84.1172 344.789C89.4492 339.457 89.4492 330.812 84.1172 325.48Z" fill="#6BC4E8"/>
<path d="M74.4688 355.613C68.9961 355.613 63.8516 353.48 59.9844 349.613C52 341.625 52 328.641 59.9883 320.652C67.7188 312.918 81.2109 312.918 88.9531 320.652C96.9336 328.641 96.9336 341.625 88.9531 349.613H88.9492C85.082 353.48 79.9375 355.613 74.4688 355.613ZM74.4688 328.305C72.6445 328.305 70.9297 329.012 69.6445 330.305C66.9805 332.969 66.9805 337.301 69.6406 339.961C72.2227 342.547 76.7148 342.547 79.2891 339.961H79.293C81.9531 337.297 81.9531 332.965 79.293 330.305C78.0039 329.012 76.2891 328.305 74.4688 328.305Z" fill="#1A428A"/>
<path d="M218.453 20.4805C218.453 28.0195 212.34 34.1328 204.801 34.1328C197.258 34.1328 191.148 28.0195 191.148 20.4805C191.148 12.9414 197.258 6.82812 204.801 6.82812C212.34 6.82812 218.453 12.9414 218.453 20.4805Z" fill="#6BC4E8"/>
<path d="M204.801 40.9609C193.508 40.9609 184.32 31.7734 184.32 20.4805C184.32 9.1875 193.508 0 204.801 0C216.094 0 225.281 9.1875 225.281 20.4805C225.281 31.7734 216.094 40.9609 204.801 40.9609ZM204.801 13.6523C201.035 13.6523 197.973 16.7148 197.973 20.4805C197.973 24.2461 201.035 27.3086 204.801 27.3086C208.563 27.3086 211.625 24.2461 211.625 20.4805C211.625 16.7148 208.563 13.6523 204.801 13.6523Z" fill="#1A428A"/>
<path d="M204.801 389.121C201.031 389.121 197.973 386.066 197.973 382.293V314.027C197.973 310.254 201.031 307.199 204.801 307.199C208.57 307.199 211.625 310.254 211.625 314.027V382.293C211.625 386.066 208.57 389.121 204.801 389.121Z" fill="#1A428A"/>
<path d="M218.453 389.121C218.453 396.66 212.34 402.773 204.801 402.773C197.258 402.773 191.148 396.66 191.148 389.121C191.148 381.578 197.258 375.465 204.801 375.465C212.34 375.465 218.453 381.578 218.453 389.121V389.121Z" fill="#6BC4E8"/>
<path d="M204.801 409.602C193.508 409.602 184.32 400.414 184.32 389.121C184.32 377.828 193.508 368.641 204.801 368.641C216.094 368.641 225.281 377.828 225.281 389.121C225.281 400.414 216.094 409.602 204.801 409.602V409.602ZM204.801 382.293C201.035 382.293 197.973 385.352 197.973 389.121C197.973 392.887 201.035 395.945 204.801 395.945C208.563 395.945 211.625 392.887 211.625 389.121C211.625 385.352 208.563 382.293 204.801 382.293Z" fill="#1A428A"/>
<path d="M95.5742 211.625H27.3086C23.5352 211.625 20.4805 208.574 20.4805 204.801C20.4805 201.027 23.5352 197.973 27.3086 197.973H95.5742C99.3437 197.973 102.398 201.027 102.398 204.801C102.398 208.574 99.3437 211.625 95.5742 211.625Z" fill="#1A428A"/>
<path d="M34.1328 204.801C34.1328 212.34 28.0195 218.453 20.4805 218.453C12.9414 218.453 6.82812 212.34 6.82812 204.801C6.82812 197.258 12.9414 191.148 20.4805 191.148C28.0195 191.148 34.1328 197.258 34.1328 204.801Z" fill="#6BC4E8"/>
<path d="M20.4805 225.281C9.1875 225.281 0 216.094 0 204.801C0 193.508 9.1875 184.32 20.4805 184.32C31.7734 184.32 40.9609 193.508 40.9609 204.801C40.9609 216.094 31.7734 225.281 20.4805 225.281ZM20.4805 197.973C16.7187 197.973 13.6523 201.035 13.6523 204.801C13.6523 208.566 16.7187 211.625 20.4805 211.625C24.2422 211.625 27.3086 208.566 27.3086 204.801C27.3086 201.035 24.2422 197.973 20.4805 197.973Z" fill="#1A428A"/>
<path d="M382.293 211.625H314.027C310.258 211.625 307.199 208.574 307.199 204.801C307.199 201.027 310.258 197.973 314.027 197.973H382.293C386.062 197.973 389.121 201.027 389.121 204.801C389.121 208.574 386.062 211.625 382.293 211.625Z" fill="#1A428A"/>
<path d="M402.773 204.801C402.773 212.34 396.66 218.453 389.121 218.453C381.578 218.453 375.465 212.34 375.465 204.801C375.465 197.258 381.578 191.148 389.121 191.148C396.66 191.148 402.773 197.258 402.773 204.801V204.801Z" fill="#6BC4E8"/>
<path d="M389.121 225.281C377.828 225.281 368.641 216.094 368.641 204.801C368.641 193.508 377.828 184.32 389.121 184.32C400.414 184.32 409.602 193.508 409.602 204.801C409.602 216.094 400.414 225.281 389.121 225.281V225.281ZM389.121 197.973C385.355 197.973 382.293 201.035 382.293 204.801C382.293 208.566 385.355 211.625 389.121 211.625C392.883 211.625 395.945 208.566 395.945 204.801C395.945 201.035 392.883 197.973 389.121 197.973Z" fill="#1A428A"/>
<path d="M266.238 266.238C262.469 266.238 259.414 263.188 259.414 259.414V232.105C259.414 228.332 262.469 225.281 266.238 225.281C270.012 225.281 273.066 228.332 273.066 232.105V259.414C273.066 263.188 270.012 266.238 266.238 266.238Z" fill="white"/>
<path d="M279.895 252.586H252.586C248.816 252.586 245.762 249.535 245.762 245.762C245.762 241.988 248.816 238.934 252.586 238.934H279.895C283.664 238.934 286.719 241.988 286.719 245.762C286.719 249.535 283.664 252.586 279.895 252.586Z" fill="white"/>
</g>
<defs>
<clipPath id="clip0_1_1835">
<rect width="409.6" height="409.6" fill="white"/>
</clipPath>
</defs>
</svg>
