<svg width="409" height="409" viewBox="0 0 409 409" fill="none" xmlns="http://www.w3.org/2000/svg">
<g clip-path="url(#clip0_1_1871)">
<path d="M204.457 102.249C147.989 102.249 102.208 148.026 102.208 204.498C102.208 260.971 147.989 306.748 204.457 306.748C260.929 306.748 306.71 260.971 306.71 204.498C306.71 148.026 260.929 102.249 204.457 102.249ZM204.457 259.559C174.052 259.559 149.401 234.907 149.401 204.498C149.401 174.09 174.052 149.438 204.457 149.438C234.866 149.438 259.517 174.09 259.517 204.498C259.517 234.907 234.866 259.559 204.457 259.559Z" fill="#1A428A"/>
<path d="M204.457 313.566C144.318 313.566 95.3896 264.637 95.3896 204.498C95.3896 144.359 144.318 95.4309 204.457 95.4309C264.596 95.4309 313.524 144.359 313.524 204.498C313.524 264.637 264.596 313.566 204.457 313.566V313.566ZM204.457 109.063C151.835 109.063 109.026 151.876 109.026 204.498C109.026 257.121 151.835 299.933 204.457 299.933C257.083 299.933 299.892 257.121 299.892 204.498C299.892 151.876 257.083 109.063 204.457 109.063V109.063ZM204.457 266.377C170.339 266.377 142.582 238.616 142.582 204.498C142.582 170.38 170.339 142.62 204.457 142.62C238.579 142.62 266.335 170.38 266.335 204.498C266.335 238.616 238.579 266.377 204.457 266.377ZM204.457 156.256C177.859 156.256 156.215 177.896 156.215 204.498C156.215 231.104 177.855 252.744 204.457 252.744C231.063 252.744 252.703 231.104 252.703 204.498C252.703 177.896 231.059 156.256 204.457 156.256Z" fill="#1A428A"/>
<path d="M260.099 43.4365L212.383 9.34957C207.644 5.97169 201.27 5.97169 196.531 9.34957L148.816 43.4365C142.688 47.813 141.268 56.3279 145.648 62.4517C150.017 68.5834 158.528 69.9837 164.668 65.6268L190.911 46.8807C190.891 47.1655 190.825 47.4307 190.825 47.7154V115.882C190.825 123.41 196.929 129.514 204.457 129.514C211.989 129.514 218.093 123.41 218.093 115.882V47.7154C218.093 47.4307 218.027 47.1655 218.008 46.8807L244.251 65.6268C246.653 67.3391 249.423 68.1661 252.169 68.1661C256.416 68.1661 260.613 66.1807 263.274 62.4517C267.646 56.3279 266.23 47.813 260.099 43.4365Z" fill="#2A8EE6"/>
<path d="M204.457 136.332C193.181 136.332 184.01 127.158 184.01 115.882V60.1895L168.627 71.1735C159.429 77.7108 146.627 75.5733 140.098 66.407C133.545 57.2485 135.679 44.4468 144.853 37.89L192.572 3.80694C199.691 -1.26768 209.247 -1.26768 216.342 3.79914L264.061 37.89H264.065C273.239 44.4468 275.373 57.2485 268.816 66.4148C262.513 75.2534 249.181 77.5119 240.299 71.1813L224.908 60.1895V115.882C224.908 127.158 215.734 136.332 204.457 136.332ZM190.91 40.0665C192.042 40.0665 193.177 40.3435 194.206 40.9168C196.504 42.1884 197.869 44.6653 197.713 47.2864C197.705 47.4659 197.647 47.9924 197.623 48.1758L197.643 115.882C197.643 119.642 200.701 122.7 204.457 122.7C208.217 122.7 211.275 119.642 211.275 115.882V47.7155C211.26 47.9534 211.221 47.5673 211.205 47.2864C211.049 44.6653 212.414 42.1884 214.712 40.9168C217.013 39.6336 219.829 39.8052 221.971 41.3381L248.213 60.0842C251.178 62.1866 255.625 61.4416 257.723 58.4927C259.907 55.4347 259.194 51.1675 256.139 48.9793L208.424 14.8962C206.06 13.2112 202.873 13.1995 200.49 14.9001L152.779 48.9793C149.721 51.1675 149.011 55.4269 151.191 58.4927C153.371 61.5469 157.646 62.2451 160.724 60.0686L186.947 41.3381C188.125 40.4917 189.514 40.0665 190.91 40.0665Z" fill="#1A428A"/>
<path d="M260.099 365.564L212.383 399.647C207.644 403.029 201.27 403.029 196.531 399.647L148.816 365.564C142.688 361.184 141.268 352.669 145.648 346.545C150.017 340.413 158.528 339.017 164.668 343.37L190.911 362.116C190.891 361.835 190.825 361.57 190.825 361.285V293.119C190.825 285.587 196.929 279.483 204.457 279.483C211.989 279.483 218.093 285.587 218.093 293.119V361.285C218.093 361.57 218.027 361.835 218.008 362.116L244.251 343.37C246.653 341.658 249.423 340.835 252.169 340.835C256.416 340.835 260.613 342.82 263.274 346.549C267.646 352.669 266.23 361.184 260.099 365.564Z" fill="#2A8EE6"/>
<path d="M204.457 409.001C200.291 409.001 196.126 407.737 192.576 405.202L144.857 371.111C135.679 364.55 133.545 351.752 140.102 342.586C146.624 333.424 159.406 331.282 168.611 337.812L184.01 348.807V293.115C184.01 281.839 193.181 272.665 204.457 272.665C215.734 272.665 224.908 281.839 224.908 293.115V348.807L240.288 337.823C249.189 331.473 262.509 333.743 268.816 342.586C275.373 351.752 273.24 364.554 264.065 371.111C264.065 371.111 264.065 371.111 264.062 371.111L216.342 405.194C212.789 407.729 208.623 409.001 204.457 409.001V409.001ZM156.753 347.657C154.624 347.657 152.521 348.647 151.199 350.5C149.011 353.57 149.721 357.829 152.783 360.018L200.494 394.101C202.866 395.801 206.052 395.805 208.428 394.097L256.14 360.018C259.194 357.829 259.907 353.562 257.723 350.504C255.617 347.559 251.186 346.799 248.206 348.92L221.971 367.659C219.837 369.192 217.013 369.359 214.708 368.08C212.41 366.808 211.049 364.332 211.205 361.71C211.213 361.531 211.271 361.004 211.295 360.821L211.275 293.115C211.275 289.355 208.217 286.301 204.457 286.301C200.701 286.301 197.643 289.355 197.643 293.115V361.281C197.678 361.051 197.694 361.43 197.713 361.71C197.869 364.332 196.504 366.808 194.206 368.08C191.901 369.352 189.081 369.192 186.948 367.659L160.705 348.913C159.507 348.07 158.122 347.657 156.753 347.657V347.657ZM260.099 365.564H260.165H260.099Z" fill="#1A428A"/>
<path d="M38.6914 243.984L35.5397 302.539C35.2277 308.355 38.6485 313.73 44.0429 315.914L98.4128 337.886C105.395 340.706 113.34 337.336 116.16 330.354C118.988 323.376 115.603 315.446 108.632 312.602L78.7306 300.518C78.9802 300.382 79.2376 300.296 79.4795 300.144L136.997 263.561C143.351 259.52 145.223 251.094 141.186 244.74C137.145 238.386 128.716 236.514 122.362 240.555L64.8446 277.135C64.6028 277.291 64.4155 277.49 64.1854 277.653L65.9211 245.45C66.0733 242.502 65.2854 239.724 63.8148 237.411C61.533 233.823 57.6091 231.35 53.0337 231.104C45.5212 230.698 39.1009 236.464 38.6914 243.984V243.984Z" fill="#2A8EE6"/>
<path d="M103.526 345.706C100.933 345.706 98.3347 345.207 95.8618 344.201L41.4919 322.233C33.3905 318.952 28.2691 310.89 28.7332 302.176L31.8849 243.613C31.8849 243.613 31.8849 243.613 31.8849 243.609C32.4934 232.356 42.1745 223.689 53.4081 224.298C59.9806 224.641 66.0303 228.175 69.572 233.756C71.8617 237.349 72.9538 241.518 72.7315 245.797L71.7174 264.684L118.707 234.802C128.233 228.756 140.894 231.572 146.94 241.078C149.873 245.692 150.828 251.165 149.647 256.497C148.457 261.829 145.27 266.381 140.66 269.31L93.6619 299.2L111.187 306.283C121.644 310.551 126.703 322.494 122.479 332.92C120.435 337.971 116.539 341.938 111.511 344.068C108.94 345.16 106.233 345.706 103.526 345.706ZM45.4978 244.346L42.3462 302.902C42.1901 305.811 43.9025 308.499 46.6095 309.599L100.968 331.567C102.657 332.245 104.509 332.226 106.183 331.52C107.856 330.81 109.155 329.492 109.837 327.799C111.249 324.323 109.553 320.337 106.058 318.913L76.1796 306.837C73.7534 305.858 72.0996 303.58 71.928 300.971C71.7564 298.361 73.0942 295.881 75.3683 294.589C75.536 294.496 76.0431 294.242 76.2225 294.16L133.342 257.807C134.879 256.832 135.944 255.311 136.338 253.536C136.736 251.757 136.412 249.932 135.437 248.403C133.42 245.228 129.192 244.288 126.025 246.304L68.5072 282.884C68.6476 282.841 68.4604 282.977 68.1913 283.173C66.0576 284.717 63.2453 284.904 60.9284 283.637C58.6232 282.381 57.2463 279.908 57.3867 277.287L59.1186 245.08C59.1927 243.656 58.8299 242.271 58.0732 241.07C56.8835 239.209 54.8747 238.031 52.6865 237.914C48.8952 237.743 45.7084 240.594 45.4978 244.346V244.346Z" fill="#1A428A"/>
<path d="M310.506 71.1111L364.871 93.083C370.27 95.2712 373.687 100.646 373.379 106.458L370.223 165.013C369.817 172.533 363.393 178.302 355.877 177.893C348.357 177.499 342.611 171.067 342.993 163.55L344.725 131.347C344.499 131.511 344.308 131.71 344.07 131.866L286.548 168.446C280.194 172.487 271.769 170.614 267.728 164.26C263.687 157.906 265.563 149.481 271.917 145.44L329.435 108.857C329.677 108.705 329.934 108.619 330.18 108.482L300.278 96.3984C297.548 95.2907 295.364 93.395 293.893 91.082C291.611 87.4935 291.034 82.8908 292.754 78.647C295.574 71.665 303.52 68.291 310.506 71.1111V71.1111Z" fill="#2A8EE6"/>
<path d="M356.622 184.726C356.255 184.726 355.885 184.723 355.514 184.699C344.292 184.106 335.617 174.468 336.187 163.207L337.201 144.313L290.211 174.195C280.693 180.256 268.032 177.432 261.979 167.919C259.045 163.305 258.09 157.832 259.276 152.5C260.461 147.168 263.652 142.616 268.259 139.687L315.252 109.797L297.731 102.713C293.741 101.095 290.429 98.333 288.14 94.7289C284.606 89.1667 283.966 82.1964 286.435 76.0842C288.483 71.0252 292.376 67.0583 297.407 64.9286C302.439 62.7989 308.001 62.7365 313.06 64.796L367.426 86.764C375.528 90.0443 380.649 98.1068 380.185 106.821L377.033 165.384C376.44 176.266 367.395 184.726 356.622 184.726V184.726ZM344.729 124.529C345.844 124.529 346.968 124.802 347.99 125.36C350.299 126.616 351.676 129.089 351.535 131.71L349.8 163.917C349.612 167.665 352.495 170.887 356.232 171.078C359.949 171.305 363.221 168.399 363.42 164.642L366.572 106.095C366.724 103.185 365.016 100.498 362.309 99.3979L307.951 77.4299C306.25 76.7434 304.401 76.7707 302.736 77.4767C301.058 78.1866 299.763 79.505 299.077 81.1979C298.254 83.2339 298.468 85.5587 299.65 87.4231C300.411 88.6206 301.519 89.5372 302.853 90.0794L332.739 102.159C335.165 103.138 336.819 105.416 336.99 108.026C337.158 110.635 335.824 113.116 333.55 114.407C333.378 114.501 332.875 114.754 332.696 114.836L275.576 151.189C274.039 152.168 272.974 153.686 272.576 155.461C272.182 157.239 272.506 159.065 273.481 160.594C275.502 163.769 279.718 164.709 282.893 162.692L340.411 126.113C340.267 126.183 340.466 126.019 340.723 125.824C341.913 124.966 343.317 124.529 344.729 124.529Z" fill="#1A428A"/>
<path d="M316.2 333.154L369.56 308.842C374.857 306.424 378.04 300.904 377.478 295.112L371.787 236.748C371.05 229.251 364.384 223.771 356.891 224.504C349.398 225.23 343.937 231.9 344.639 239.393L347.775 271.49C347.537 271.338 347.342 271.147 347.096 271.003L288.042 236.951C281.52 233.191 273.181 235.43 269.421 241.951C265.661 248.473 267.9 256.813 274.421 260.573L333.472 294.625C333.721 294.765 333.987 294.839 334.236 294.968L304.889 308.339C302.209 309.564 300.11 311.553 298.737 313.928C296.615 317.611 296.237 322.233 298.141 326.399C301.257 333.252 309.343 336.275 316.2 333.154Z" fill="#2A8EE6"/>
<path d="M310.58 341.201C302.806 341.201 295.36 336.747 291.935 329.223C289.201 323.231 289.536 316.238 292.832 310.516C294.958 306.822 298.152 303.92 302.057 302.141L319.262 294.301L271.012 266.482C261.245 260.85 257.875 248.313 263.512 238.546C269.144 228.768 281.677 225.413 291.444 231.046L339.693 258.864L337.86 240.052C336.799 228.811 345.045 218.802 356.236 217.721C361.685 217.214 366.986 218.814 371.198 222.273C375.419 225.741 378.04 230.648 378.566 236.081L384.261 294.457C385.104 303.144 380.337 311.417 372.392 315.044L319.024 339.364H319.02C316.282 340.605 313.411 341.201 310.58 341.201V341.201ZM316.2 333.158H316.267H316.2ZM336.838 288.676C336.877 288.676 337.084 288.77 337.287 288.868C339.635 290.046 341.102 292.464 341.055 295.085C341.004 297.714 339.455 300.078 337.064 301.17L307.717 314.545C306.414 315.138 305.353 316.101 304.647 317.326C303.543 319.237 303.426 321.574 304.339 323.571C305.895 326.999 309.956 328.505 313.38 326.953L366.736 302.633C369.384 301.427 370.972 298.666 370.691 295.772L365 237.404C364.825 235.594 363.951 233.959 362.547 232.805C361.143 231.65 359.368 231.128 357.554 231.284C353.817 231.646 351.075 235.001 351.426 238.753L354.555 270.835C354.812 273.456 353.529 276 351.259 277.349C348.996 278.703 346.149 278.621 343.953 277.139C343.816 277.045 343.403 276.741 343.274 276.639L284.637 242.853C281.38 240.973 277.199 242.104 275.323 245.357C273.442 248.614 274.566 252.795 277.827 254.671L336.877 288.719C336.834 288.692 336.827 288.676 336.838 288.676V288.676Z" fill="#1A428A"/>
<path d="M37.131 172.248L31.4401 113.888C30.8784 108.092 34.0613 102.573 39.3582 100.158L92.7179 75.8423C99.575 72.7219 107.661 75.7487 110.777 82.5981C113.906 89.4474 110.867 97.5177 104.029 100.662L74.6817 114.033C74.9352 114.157 75.1966 114.232 75.4462 114.376L134.501 148.424C141.022 152.184 143.261 160.523 139.497 167.045C135.737 173.567 127.402 175.806 120.876 172.046L61.8254 137.998C61.5758 137.853 61.3808 137.662 61.1468 137.506L64.2789 169.604C64.5597 172.541 63.8927 175.353 62.5197 177.729C60.3978 181.411 56.5831 184.052 52.0273 184.496C44.5343 185.226 37.8682 179.745 37.131 172.248Z" fill="#2A8EE6"/>
<path d="M50.6581 191.377C45.9463 191.377 41.4099 189.762 37.72 186.728C33.4957 183.256 30.8784 178.353 30.3479 172.92C30.3479 172.912 30.3479 172.912 30.3479 172.912L24.657 114.544C23.8106 105.857 28.581 97.5803 36.5264 93.9528L89.8938 69.6367C100.156 64.9755 112.31 69.5158 116.983 79.7742C121.652 89.9898 117.12 102.148 106.873 106.856L89.652 114.696L137.902 142.515C147.669 148.147 151.039 160.683 145.403 170.45C139.766 180.229 127.242 183.584 117.471 177.951L69.2209 150.132L71.0542 168.945C71.4676 173.22 70.5549 177.432 68.4174 181.138C65.1253 186.852 59.2433 190.644 52.6786 191.279C52.0038 191.346 51.3329 191.377 50.6581 191.377ZM43.918 171.593C44.0974 173.403 44.9672 175.038 46.3714 176.192C47.7756 177.347 49.5192 177.846 51.3641 177.713C53.5563 177.499 55.5143 176.235 56.6104 174.332C57.3281 173.091 57.6284 171.687 57.4919 170.255L54.3598 138.162C54.1062 135.54 55.3895 132.997 57.6596 131.648C59.9298 130.31 62.7772 130.384 64.9615 131.858C65.1019 131.952 65.5154 132.26 65.6441 132.358L124.281 166.144C127.542 168.032 131.716 166.901 133.596 163.64C135.472 160.383 134.352 156.206 131.092 154.326L72.0371 120.278C72.2126 120.41 71.9045 120.262 71.6314 120.129C69.2833 118.951 67.8206 116.537 67.8635 113.912C67.9142 111.283 69.4666 108.919 71.8577 107.831L101.205 94.4559C104.615 92.8918 106.14 88.8352 104.579 85.4262C103.019 82.0054 98.9587 80.4959 95.5379 82.0483L42.1822 106.364C39.5338 107.57 37.9462 110.331 38.2232 113.229L43.918 171.593Z" fill="#1A428A"/>
<path d="M204.457 115.882C155.517 115.882 115.84 155.558 115.84 204.498C115.84 253.443 155.517 293.115 204.457 293.115C253.401 293.115 293.078 253.443 293.078 204.498C293.078 155.558 253.401 115.882 204.457 115.882V115.882ZM204.457 252.214C178.105 252.214 156.742 230.85 156.742 204.498C156.742 178.146 178.105 156.783 204.457 156.783C230.813 156.783 252.176 178.146 252.176 204.498C252.176 230.85 230.813 252.214 204.457 252.214Z" fill="#D7E9FF"/>
<path d="M204.457 299.933C151.835 299.933 109.026 257.121 109.026 204.498C109.026 151.876 151.835 109.063 204.457 109.063C257.083 109.063 299.892 151.876 299.892 204.498C299.892 257.121 257.083 299.933 204.457 299.933ZM204.457 122.7C159.355 122.7 122.659 159.392 122.659 204.498C122.659 249.608 159.355 286.301 204.457 286.301C249.563 286.301 286.26 249.608 286.26 204.498C286.26 159.392 249.563 122.7 204.457 122.7V122.7ZM204.457 259.032C174.388 259.032 149.923 234.568 149.923 204.498C149.923 174.429 174.388 149.965 204.457 149.965C234.53 149.965 258.991 174.429 258.991 204.498C258.991 234.568 234.53 259.032 204.457 259.032ZM204.457 163.597C181.904 163.597 163.56 181.945 163.56 204.498C163.56 227.051 181.904 245.4 204.457 245.4C227.01 245.4 245.358 227.051 245.358 204.498C245.358 181.945 227.01 163.597 204.457 163.597Z" fill="#1A428A"/>
<path d="M204.457 115.882C155.517 115.882 115.84 155.558 115.84 204.498C115.84 253.443 155.517 293.115 204.457 293.115C253.401 293.115 293.078 253.443 293.078 204.498C293.078 155.558 253.401 115.882 204.457 115.882V115.882ZM204.457 252.214C178.105 252.214 156.742 230.85 156.742 204.498C156.742 178.146 178.105 156.783 204.457 156.783C230.813 156.783 252.176 178.146 252.176 204.498C252.176 230.85 230.813 252.214 204.457 252.214Z" fill="#D7E9FF"/>
<path d="M204.457 299.933C151.835 299.933 109.026 257.121 109.026 204.498C109.026 151.876 151.835 109.063 204.457 109.063C257.083 109.063 299.892 151.876 299.892 204.498C299.892 257.121 257.083 299.933 204.457 299.933ZM204.457 122.7C159.355 122.7 122.659 159.392 122.659 204.498C122.659 249.608 159.355 286.301 204.457 286.301C249.563 286.301 286.26 249.608 286.26 204.498C286.26 159.392 249.563 122.7 204.457 122.7V122.7ZM204.457 259.032C174.388 259.032 149.923 234.568 149.923 204.498C149.923 174.429 174.388 149.965 204.457 149.965C234.53 149.965 258.991 174.429 258.991 204.498C258.991 234.568 234.53 259.032 204.457 259.032ZM204.457 163.597C181.904 163.597 163.56 181.945 163.56 204.498C163.56 227.051 181.904 245.4 204.457 245.4C227.01 245.4 245.358 227.051 245.358 204.498C245.358 181.945 227.01 163.597 204.457 163.597Z" fill="#1A428A"/>
<path d="M163.56 293.115C159.796 293.115 156.741 290.069 156.741 286.301V259.032C156.741 255.264 159.796 252.214 163.56 252.214C167.324 252.214 170.374 255.264 170.374 259.032V286.301C170.374 290.069 167.324 293.115 163.56 293.115Z" fill="white"/>
<path d="M177.192 279.483H149.923C146.159 279.483 143.109 276.433 143.109 272.665C143.109 268.897 146.159 265.85 149.923 265.85H177.192C180.956 265.85 184.01 268.897 184.01 272.665C184.01 276.433 180.956 279.483 177.192 279.483Z" fill="white"/>
<path d="M149.908 170.423C148.484 170.423 147.049 169.975 145.82 169.058C142.813 166.792 142.204 162.521 144.463 159.509C158.781 140.444 180.648 129.514 204.457 129.514C208.225 129.514 211.275 132.56 211.275 136.328C211.275 140.096 208.225 143.147 204.457 143.147C184.978 143.147 167.082 152.094 155.365 167.697C154.027 169.483 151.983 170.423 149.908 170.423Z" fill="white"/>
</g>
<defs>
<clipPath id="clip0_1_1871">
<rect width="409" height="409" fill="white"/>
</clipPath>
</defs>
</svg>
