<svg width="409" height="409" viewBox="0 0 409 409" fill="none" xmlns="http://www.w3.org/2000/svg">
<g clip-path="url(#clip0_1_1894)">
<path d="M218.133 122.647C172.957 122.647 136.335 159.27 136.335 204.445C136.335 249.621 172.957 286.247 218.133 286.247C263.309 286.247 299.935 249.621 299.935 204.445C299.935 159.27 263.309 122.647 218.133 122.647Z" fill="#1A428A"/>
<path d="M218.133 293.062C169.267 293.062 129.517 253.307 129.517 204.445C129.517 155.584 169.267 115.829 218.133 115.829C266.999 115.829 306.749 155.584 306.749 204.445C306.749 253.307 266.999 293.062 218.133 293.062V293.062ZM218.133 129.462C176.788 129.462 143.149 163.1 143.149 204.445C143.149 245.795 176.788 279.429 218.133 279.429C259.479 279.429 293.117 245.795 293.117 204.445C293.117 163.1 259.479 129.462 218.133 129.462V129.462Z" fill="#1A428A"/>
<path d="M204.501 122.647C159.321 122.647 122.699 159.27 122.699 204.445C122.699 249.621 159.321 286.247 204.501 286.247C249.677 286.247 286.299 249.621 286.299 204.445C286.299 159.27 249.677 122.647 204.501 122.647Z" fill="#D7E9FF"/>
<path d="M204.501 293.062C155.635 293.062 115.885 253.307 115.885 204.445C115.885 155.584 155.635 115.829 204.501 115.829C253.367 115.829 293.117 155.584 293.117 204.445C293.117 253.307 253.367 293.062 204.501 293.062ZM204.501 129.462C163.155 129.462 129.517 163.1 129.517 204.445C129.517 245.795 163.155 279.429 204.501 279.429C245.846 279.429 279.485 245.795 279.485 204.445C279.485 163.1 245.846 129.462 204.501 129.462V129.462Z" fill="#1A428A"/>
<path d="M143.149 211.264C139.385 211.264 136.335 208.213 136.335 204.445C136.335 190.786 140.361 177.598 147.978 166.329C150.085 163.213 154.328 162.39 157.445 164.5C160.565 166.602 161.384 170.842 159.278 173.959C153.185 182.969 149.968 193.516 149.968 204.445C149.968 208.213 146.913 211.264 143.149 211.264Z" fill="white"/>
<path d="M182.447 166.778C182.447 166.056 182.927 165.584 183.637 165.584H213.792C230.962 165.584 239.063 174.166 239.063 187.158C239.063 196.34 234.773 201.579 229.651 204.321V204.562C234.656 206.47 240.495 212.91 240.495 222.801C240.495 238.891 230.361 246.637 212.602 246.637H183.637C182.927 246.637 182.447 246.162 182.447 245.448V166.778ZM213.441 199.312C220.591 199.312 225.002 195.026 225.002 188.711C225.002 182.271 220.591 177.976 213.441 177.976H197.222C196.751 177.976 196.513 178.218 196.513 178.69V198.602C196.513 199.074 196.751 199.312 197.222 199.312H213.441ZM197.222 234.242H214.151C222.022 234.242 226.426 229.709 226.426 222.918C226.426 216.241 222.022 211.708 214.151 211.708H197.222C196.751 211.708 196.513 211.95 196.513 212.426V233.524C196.513 234.004 196.751 234.242 197.222 234.242Z" fill="#1A428A"/>
<path d="M204.501 177.181C200.737 177.181 197.683 174.13 197.683 170.363V156.73C197.683 152.962 200.737 149.912 204.501 149.912C208.265 149.912 211.315 152.962 211.315 156.73V170.363C211.315 174.13 208.265 177.181 204.501 177.181Z" fill="#1A428A"/>
<path d="M204.501 258.979C200.737 258.979 197.683 255.932 197.683 252.165V245.346C197.683 241.579 200.737 238.528 204.501 238.528C208.265 238.528 211.315 241.579 211.315 245.346V252.165C211.315 255.932 208.265 258.979 204.501 258.979Z" fill="#1A428A"/>
<path d="M170.418 20.395H238.584V88.5645H170.418V20.395Z" fill="#6BC4E8"/>
<path d="M238.584 95.3788H170.418C166.654 95.3788 163.6 92.3325 163.6 88.5646V20.395C163.6 16.6271 166.654 13.5808 170.418 13.5808H238.584C242.348 13.5808 245.402 16.6271 245.402 20.395V88.5646C245.402 92.3325 242.348 95.3788 238.584 95.3788ZM177.232 81.7464H231.765V27.2132H177.232V81.7464Z" fill="#1A428A"/>
<path d="M334.018 20.395H402.183V88.5645H334.018V20.395Z" fill="#6BC4E8"/>
<path d="M402.183 95.3788H334.018C330.254 95.3788 327.2 92.3325 327.2 88.5646V20.395C327.2 16.6271 330.254 13.5808 334.018 13.5808H402.183C405.947 13.5808 409.002 16.6271 409.002 20.395V88.5646C409.002 92.3325 405.947 95.3788 402.183 95.3788ZM340.832 81.7464H395.365V27.2132H340.832V81.7464Z" fill="#1A428A"/>
<path d="M6.81812 20.395H74.9837V88.5645H6.81812V20.395Z" fill="#6BC4E8"/>
<path d="M74.9837 95.3788H6.81812C3.05021 95.3788 0 92.3325 0 88.5646V20.395C0 16.6271 3.05021 13.5808 6.81812 13.5808H74.9837C78.7478 13.5808 81.8019 16.6271 81.8019 20.395V88.5646C81.8019 92.3325 78.7478 95.3788 74.9837 95.3788ZM13.6323 81.7464H68.1656V27.2132H13.6323V81.7464Z" fill="#1A428A"/>
<path d="M368.101 129.462H40.9009C37.1369 129.462 34.0828 126.415 34.0828 122.648V88.5647C34.0828 84.7968 37.1369 81.7466 40.9009 81.7466C44.6649 81.7466 47.7151 84.7968 47.7151 88.5647V115.829H361.282V88.5647C361.282 84.7968 364.337 81.7466 368.101 81.7466C371.865 81.7466 374.915 84.7968 374.915 88.5647V122.648C374.915 126.415 371.865 129.462 368.101 129.462Z" fill="#1A428A"/>
<path d="M170.418 320.33H238.584V388.496H170.418V320.33Z" fill="#6BC4E8"/>
<path d="M238.584 395.314H170.418C166.654 395.314 163.6 392.264 163.6 388.496V320.33C163.6 316.562 166.654 313.512 170.418 313.512H238.584C242.348 313.512 245.402 316.562 245.402 320.33V388.496C245.402 392.264 242.348 395.314 238.584 395.314ZM177.232 381.681H231.765V327.148H177.232V381.681Z" fill="#1A428A"/>
<path d="M334.018 320.33H402.183V388.496H334.018V320.33Z" fill="#6BC4E8"/>
<path d="M402.183 395.314H334.018C330.254 395.314 327.2 392.264 327.2 388.496V320.33C327.2 316.562 330.254 313.512 334.018 313.512H402.183C405.947 313.512 409.002 316.562 409.002 320.33V388.496C409.002 392.264 405.947 395.314 402.183 395.314ZM340.832 381.681H395.365V327.148H340.832V381.681Z" fill="#1A428A"/>
<path d="M6.81812 320.33H74.9837V388.496H6.81812V320.33Z" fill="#6BC4E8"/>
<path d="M74.9837 395.314H6.81812C3.05021 395.314 0 392.264 0 388.496V320.33C0 316.562 3.05021 313.512 6.81812 313.512H74.9837C78.7478 313.512 81.8019 316.562 81.8019 320.33V388.496C81.8019 392.264 78.7478 395.314 74.9837 395.314ZM13.6323 381.681H68.1656V327.148H13.6323V381.681Z" fill="#1A428A"/>
<path d="M368.101 327.148C364.337 327.148 361.282 324.098 361.282 320.33V293.061H47.7151V320.33C47.7151 324.098 44.6649 327.148 40.9009 327.148C37.1369 327.148 34.0828 324.098 34.0828 320.33V286.247C34.0828 282.479 37.1369 279.429 40.9009 279.429H368.101C371.865 279.429 374.915 282.479 374.915 286.247V320.33C374.915 324.098 371.865 327.148 368.101 327.148Z" fill="#1A428A"/>
<path d="M170.418 61.2959H81.8018C78.0339 61.2959 74.9836 58.2496 74.9836 54.4817C74.9836 50.7138 78.0339 47.6636 81.8018 47.6636H170.418C174.182 47.6636 177.232 50.7138 177.232 54.4817C177.232 58.2496 174.182 61.2959 170.418 61.2959Z" fill="#1A428A"/>
<path d="M334.018 61.2959H245.402C241.634 61.2959 238.583 58.2496 238.583 54.4817C238.583 50.7138 241.634 47.6636 245.402 47.6636H334.018C337.782 47.6636 340.832 50.7138 340.832 54.4817C340.832 58.2496 337.782 61.2959 334.018 61.2959Z" fill="#1A428A"/>
<path d="M170.418 361.231H81.8018C78.0339 361.231 74.9836 358.181 74.9836 354.413C74.9836 350.645 78.0339 347.599 81.8018 347.599H170.418C174.182 347.599 177.232 350.645 177.232 354.413C177.232 358.181 174.182 361.231 170.418 361.231Z" fill="#1A428A"/>
<path d="M334.018 361.231H245.402C241.634 361.231 238.583 358.181 238.583 354.413C238.583 350.645 241.634 347.599 245.402 347.599H334.018C337.782 347.599 340.832 350.645 340.832 354.413C340.832 358.181 337.782 361.231 334.018 361.231Z" fill="#1A428A"/>
<path d="M272.667 197.631C268.903 197.631 265.848 194.581 265.848 190.813V163.548C265.848 159.78 268.903 156.73 272.667 156.73C276.431 156.73 279.485 159.78 279.485 163.548V190.813C279.485 194.581 276.431 197.631 272.667 197.631Z" fill="white"/>
<path d="M286.299 183.995H259.034C255.27 183.995 252.216 180.949 252.216 177.181C252.216 173.413 255.27 170.363 259.034 170.363H286.299C290.063 170.363 293.117 173.413 293.117 177.181C293.117 180.949 290.063 183.995 286.299 183.995Z" fill="white"/>
</g>
<defs>
<clipPath id="clip0_1_1894">
<rect width="409" height="409" fill="white"/>
</clipPath>
</defs>
</svg>
