<svg width="396" height="396" viewBox="0 0 396 396" fill="none" xmlns="http://www.w3.org/2000/svg">
<g clip-path="url(#clip0_1_1924)">
<path d="M197.973 204.801H40.9609C37.1914 204.801 34.1328 201.746 34.1328 197.973V40.9609C34.1328 37.1875 37.1914 34.1328 40.9609 34.1328H197.973C201.746 34.1328 204.801 37.1875 204.801 40.9609V197.973C204.801 201.746 201.746 204.801 197.973 204.801ZM47.7852 191.148H191.148V47.7852H47.7852V191.148Z" fill="#1A428A"/>
<path d="M187.734 126.293C142.488 126.293 105.812 162.969 105.812 208.215C105.812 253.457 142.488 290.133 187.734 290.133C232.977 290.133 269.652 253.457 269.652 208.215C269.652 162.969 232.977 126.293 187.734 126.293V126.293Z" fill="#1A428A"/>
<path d="M187.734 296.961C138.797 296.961 98.9883 257.148 98.9883 208.215C98.9883 159.281 138.797 119.465 187.734 119.465C236.668 119.465 276.48 159.281 276.48 208.215C276.48 257.148 236.668 296.961 187.734 296.961V296.961ZM187.734 133.121C146.328 133.121 112.641 166.805 112.641 208.215C112.641 249.621 146.328 283.309 187.734 283.309C229.141 283.309 262.828 249.621 262.828 208.215C262.828 166.805 229.141 133.121 187.734 133.121V133.121Z" fill="#1A428A"/>
<path d="M75.0938 40.9609C75.0938 59.8125 59.8125 75.0938 40.9609 75.0938C22.1094 75.0938 6.82812 59.8125 6.82812 40.9609C6.82812 22.1094 22.1094 6.82812 40.9609 6.82812C59.8125 6.82812 75.0938 22.1094 75.0938 40.9609Z" fill="#2A8EE6"/>
<path d="M40.9609 81.9219C18.375 81.9219 0 63.5469 0 40.9609C0 18.375 18.375 0 40.9609 0C63.5469 0 81.9219 18.375 81.9219 40.9609C81.9219 63.5469 63.5469 81.9219 40.9609 81.9219ZM40.9609 13.6523C25.9023 13.6523 13.6523 25.8984 13.6523 40.9609C13.6523 56.0195 25.9023 68.2656 40.9609 68.2656C56.0156 68.2656 68.2656 56.0195 68.2656 40.9609C68.2656 25.8984 56.0156 13.6523 40.9609 13.6523Z" fill="#1A428A"/>
<path d="M232.105 40.9609C232.105 59.8125 216.824 75.0938 197.973 75.0938C179.121 75.0938 163.84 59.8125 163.84 40.9609C163.84 22.1094 179.121 6.82812 197.973 6.82812C216.824 6.82812 232.105 22.1094 232.105 40.9609Z" fill="#2A8EE6"/>
<path d="M197.973 81.9219C175.387 81.9219 157.012 63.5469 157.012 40.9609C157.012 18.375 175.387 0 197.973 0C220.559 0 238.934 18.375 238.934 40.9609C238.934 63.5469 220.559 81.9219 197.973 81.9219ZM197.973 13.6523C182.914 13.6523 170.668 25.8984 170.668 40.9609C170.668 56.0195 182.914 68.2656 197.973 68.2656C213.031 68.2656 225.281 56.0195 225.281 40.9609C225.281 25.8984 213.031 13.6523 197.973 13.6523Z" fill="#1A428A"/>
<path d="M75.0938 197.973C75.0938 216.824 59.8125 232.105 40.9609 232.105C22.1094 232.105 6.82812 216.824 6.82812 197.973C6.82812 179.121 22.1094 163.84 40.9609 163.84C59.8125 163.84 75.0938 179.121 75.0938 197.973Z" fill="#2A8EE6"/>
<path d="M40.9609 238.934C18.375 238.934 0 220.559 0 197.973C0 175.387 18.375 157.012 40.9609 157.012C63.5469 157.012 81.9219 175.387 81.9219 197.973C81.9219 220.559 63.5469 238.934 40.9609 238.934ZM40.9609 170.668C25.9023 170.668 13.6523 182.914 13.6523 197.973C13.6523 213.031 25.9023 225.281 40.9609 225.281C56.0156 225.281 68.2656 213.031 68.2656 197.973C68.2656 182.914 56.0156 170.668 40.9609 170.668Z" fill="#1A428A"/>
<path d="M354.988 361.812H197.973C194.199 361.812 191.148 358.762 191.148 354.988V197.973C191.148 194.199 194.199 191.148 197.973 191.148H354.988C358.762 191.148 361.812 194.199 361.812 197.973V354.988C361.812 358.762 358.762 361.812 354.988 361.812ZM204.801 348.16H348.16V204.801H204.801V348.16Z" fill="#1A428A"/>
<path d="M389.121 197.973C389.121 216.824 373.84 232.105 354.988 232.105C336.137 232.105 320.852 216.824 320.852 197.973C320.852 179.121 336.137 163.84 354.988 163.84C373.84 163.84 389.121 179.121 389.121 197.973Z" fill="#2A8EE6"/>
<path d="M354.988 238.934C332.402 238.934 314.027 220.559 314.027 197.973C314.027 175.387 332.402 157.012 354.988 157.012C377.574 157.012 395.945 175.387 395.945 197.973C395.945 220.559 377.574 238.934 354.988 238.934V238.934ZM354.988 170.668C339.926 170.668 327.68 182.914 327.68 197.973C327.68 213.031 339.926 225.281 354.988 225.281C370.047 225.281 382.293 213.031 382.293 197.973C382.293 182.914 370.047 170.668 354.988 170.668Z" fill="#1A428A"/>
<path d="M232.105 354.988C232.105 373.84 216.824 389.121 197.973 389.121C179.121 389.121 163.84 373.84 163.84 354.988C163.84 336.137 179.121 320.852 197.973 320.852C216.824 320.852 232.105 336.137 232.105 354.988V354.988Z" fill="#2A8EE6"/>
<path d="M197.973 395.945C175.387 395.945 157.012 377.574 157.012 354.988C157.012 332.402 175.387 314.027 197.973 314.027C220.559 314.027 238.934 332.402 238.934 354.988C238.934 377.574 220.559 395.945 197.973 395.945V395.945ZM197.973 327.68C182.914 327.68 170.668 339.926 170.668 354.988C170.668 370.047 182.914 382.293 197.973 382.293C213.031 382.293 225.281 370.047 225.281 354.988C225.281 339.926 213.031 327.68 197.973 327.68Z" fill="#1A428A"/>
<path d="M389.121 354.988C389.121 373.84 373.84 389.121 354.988 389.121C336.137 389.121 320.852 373.84 320.852 354.988C320.852 336.137 336.137 320.852 354.988 320.852C373.84 320.852 389.121 336.137 389.121 354.988V354.988Z" fill="#2A8EE6"/>
<path d="M354.988 395.945C332.402 395.945 314.027 377.574 314.027 354.988C314.027 332.402 332.402 314.027 354.988 314.027C377.574 314.027 395.945 332.402 395.945 354.988C395.945 377.574 377.574 395.945 354.988 395.945V395.945ZM354.988 327.68C339.926 327.68 327.68 339.926 327.68 354.988C327.68 370.047 339.926 382.293 354.988 382.293C370.047 382.293 382.293 370.047 382.293 354.988C382.293 339.926 370.047 327.68 354.988 327.68Z" fill="#1A428A"/>
<path d="M197.973 116.055C152.73 116.055 116.055 152.73 116.055 197.973C116.055 243.215 152.73 279.895 197.973 279.895C243.219 279.895 279.895 243.215 279.895 197.973C279.895 152.73 243.219 116.055 197.973 116.055V116.055Z" fill="#D7E9FF"/>
<path d="M197.973 286.719C149.035 286.719 109.227 246.906 109.227 197.973C109.227 149.039 149.035 109.227 197.973 109.227C246.906 109.227 286.719 149.039 286.719 197.973C286.719 246.906 246.906 286.719 197.973 286.719ZM197.973 122.879C156.566 122.879 122.879 156.566 122.879 197.973C122.879 239.379 156.566 273.066 197.973 273.066C239.379 273.066 273.066 239.379 273.066 197.973C273.066 156.566 239.379 122.879 197.973 122.879V122.879Z" fill="#1A428A"/>
<path d="M142.918 177.488C141.895 177.488 140.859 177.258 139.883 176.773C136.508 175.094 135.133 171 136.809 167.621C145.988 149.152 162.754 135.953 182.801 131.398C186.52 130.559 190.141 132.871 190.973 136.547C191.805 140.227 189.5 143.879 185.824 144.719C169.793 148.359 156.383 158.918 149.035 173.699C147.844 176.102 145.426 177.488 142.918 177.488Z" fill="white"/>
<path d="M175.887 160.246C175.887 159.527 176.367 159.055 177.082 159.055H207.281C224.473 159.055 232.586 167.648 232.586 180.66C232.586 189.855 228.293 195.102 223.16 197.848V198.086C228.176 200 234.02 206.445 234.02 216.355C234.02 232.465 223.875 240.227 206.086 240.227H177.082C176.367 240.227 175.887 239.746 175.887 239.035V160.246ZM206.926 192.832C214.086 192.832 218.508 188.539 218.508 182.211C218.508 175.766 214.086 171.465 206.926 171.465H190.688C190.215 171.465 189.973 171.707 189.973 172.18V192.121C189.973 192.594 190.215 192.832 190.688 192.832H206.926ZM190.688 227.812H207.641C215.52 227.812 219.934 223.273 219.934 216.473C219.934 209.785 215.52 205.246 207.641 205.246H190.688C190.215 205.246 189.973 205.484 189.973 205.965V227.094C189.973 227.574 190.215 227.812 190.688 227.812Z" fill="#1A428A"/>
<path d="M197.973 170.668C194.199 170.668 191.148 167.613 191.148 163.84V150.188C191.148 146.414 194.199 143.359 197.973 143.359C201.746 143.359 204.801 146.414 204.801 150.188V163.84C204.801 167.613 201.746 170.668 197.973 170.668Z" fill="#1A428A"/>
<path d="M197.973 252.586C194.199 252.586 191.148 249.535 191.148 245.762V238.934C191.148 235.16 194.199 232.105 197.973 232.105C201.746 232.105 204.801 235.16 204.801 238.934V245.762C204.801 249.535 201.746 252.586 197.973 252.586Z" fill="#1A428A"/>
<path d="M150.188 273.066C146.418 273.066 143.359 270.012 143.359 266.238V238.934C143.359 235.16 146.418 232.105 150.188 232.105C153.957 232.105 157.012 235.16 157.012 238.934V266.238C157.012 270.012 153.957 273.066 150.188 273.066Z" fill="white"/>
<path d="M163.84 259.414H136.535C132.762 259.414 129.707 256.359 129.707 252.586C129.707 248.812 132.762 245.762 136.535 245.762H163.84C167.609 245.762 170.668 248.812 170.668 252.586C170.668 256.359 167.609 259.414 163.84 259.414Z" fill="white"/>
</g>
<defs>
<clipPath id="clip0_1_1924">
<rect width="395.947" height="395.947" fill="white"/>
</clipPath>
</defs>
</svg>
