<svg width="424" height="424" viewBox="0 0 424 424" fill="none" xmlns="http://www.w3.org/2000/svg">
<g clip-path="url(#clip0_1_1950)">
<path fill-rule="evenodd" clip-rule="evenodd" d="M319.387 109.227H103.867C95.5156 109.227 88.7461 115.996 88.7461 124.348V339.867C88.7461 348.215 95.5156 354.988 103.867 354.988H319.387C327.734 354.988 334.508 348.215 334.508 339.867V124.348C334.508 115.996 327.734 109.227 319.387 109.227Z" fill="#1A428A"/>
<path d="M319.387 361.812H103.867C91.7656 361.812 81.9219 351.965 81.9219 339.867V124.348C81.9219 112.246 91.7656 102.398 103.867 102.398H319.387C331.484 102.398 341.332 112.246 341.332 124.348V339.867C341.332 351.965 331.484 361.812 319.387 361.812ZM103.867 116.055C99.293 116.055 95.5742 119.773 95.5742 124.348V339.867C95.5742 344.441 99.293 348.16 103.867 348.16H319.387C323.961 348.16 327.68 344.437 327.68 339.867V124.348C327.68 119.773 323.957 116.055 319.387 116.055H103.867Z" fill="#1A428A"/>
<path d="M319.387 88.7461H103.867C95.5156 88.7461 88.7461 95.5156 88.7461 103.867V319.387C88.7461 327.734 95.5156 334.508 103.867 334.508H319.387C327.734 334.508 334.508 327.734 334.508 319.387V103.867C334.508 95.5156 327.734 88.7461 319.387 88.7461V88.7461Z" fill="#D7E9FF"/>
<path d="M319.387 341.332H103.867C91.7656 341.332 81.9219 331.484 81.9219 319.387V103.867C81.9219 91.7656 91.7656 81.9219 103.867 81.9219H319.387C331.484 81.9219 341.332 91.7656 341.332 103.867V319.387C341.332 331.484 331.484 341.332 319.387 341.332ZM103.867 95.5742C99.293 95.5742 95.5742 99.293 95.5742 103.867V319.387C95.5742 323.961 99.293 327.68 103.867 327.68H319.387C323.961 327.68 327.68 323.957 327.68 319.387V103.867C327.68 99.293 323.957 95.5742 319.387 95.5742H103.867Z" fill="#1A428A"/>
<path d="M298.906 109.227H124.348C115.996 109.227 109.227 115.996 109.227 124.348V298.906C109.227 307.258 115.996 314.027 124.348 314.027H298.906C307.258 314.027 314.027 307.258 314.027 298.906V124.348C314.027 115.996 307.258 109.227 298.906 109.227Z" fill="#6BC4E8"/>
<path d="M298.906 320.852H124.348C112.246 320.852 102.398 311.008 102.398 298.906V124.348C102.398 112.246 112.246 102.398 124.348 102.398H298.906C311.008 102.398 320.852 112.246 320.852 124.348V298.906C320.852 311.008 311.008 320.852 298.906 320.852ZM124.348 116.055C119.773 116.055 116.055 119.773 116.055 124.348V298.906C116.055 303.48 119.773 307.199 124.348 307.199H298.906C303.48 307.199 307.199 303.477 307.199 298.906V124.348C307.199 119.773 303.477 116.055 298.906 116.055H124.348Z" fill="#1A428A"/>
<path d="M279.895 211.625C279.895 249.328 249.328 279.895 211.625 279.895C173.926 279.895 143.359 249.328 143.359 211.625C143.359 173.926 173.926 143.359 211.625 143.359C249.328 143.359 279.895 173.926 279.895 211.625V211.625Z" fill="white"/>
<path d="M211.625 286.719C170.219 286.719 136.535 253.035 136.535 211.625C136.535 170.219 170.219 136.535 211.625 136.535C253.035 136.535 286.719 170.219 286.719 211.625C286.719 253.035 253.035 286.719 211.625 286.719ZM211.625 150.188C177.746 150.188 150.188 177.746 150.188 211.625C150.188 245.508 177.746 273.066 211.625 273.066C245.508 273.066 273.066 245.508 273.066 211.625C273.066 177.746 245.508 150.188 211.625 150.188V150.188Z" fill="#1A428A"/>
<path d="M191.945 179.785C191.945 179.219 192.32 178.848 192.879 178.848H216.629C230.141 178.848 236.52 185.602 236.52 195.832C236.52 203.059 233.145 207.188 229.105 209.348V209.531C233.051 211.039 237.652 216.105 237.652 223.891C237.652 236.566 229.672 242.664 215.688 242.664H192.879C192.32 242.664 191.945 242.293 191.945 241.727V179.785ZM216.348 205.406C221.973 205.406 225.445 202.027 225.445 197.051C225.445 191.984 221.973 188.605 216.348 188.605H203.582C203.199 188.605 203.016 188.793 203.016 189.164V204.848C203.016 205.219 203.199 205.406 203.582 205.406H216.348ZM203.578 232.906H216.906C223.105 232.906 226.574 229.34 226.574 223.988C226.574 218.734 223.105 215.168 216.906 215.168H203.578C203.199 215.168 203.012 215.352 203.012 215.734V232.34C203.012 232.719 203.199 232.906 203.578 232.906Z" fill="#1A428A"/>
<path d="M215.039 187.734C211.266 187.734 208.215 184.68 208.215 180.906V174.078C208.215 170.305 211.266 167.254 215.039 167.254C218.813 167.254 221.867 170.305 221.867 174.078V180.906C221.867 184.68 218.813 187.734 215.039 187.734Z" fill="#1A428A"/>
<path d="M215.039 256C211.266 256 208.215 252.945 208.215 249.172V242.348C208.215 238.574 211.266 235.52 215.039 235.52C218.813 235.52 221.867 238.574 221.867 242.348V249.172C221.867 252.945 218.813 256 215.039 256Z" fill="#1A428A"/>
<path d="M129.707 122.879H143.359V136.535H129.707V122.879Z" fill="#1A428A"/>
<path d="M157.012 122.879H170.668V136.535H157.012V122.879Z" fill="#1A428A"/>
<path d="M279.895 122.879H293.547V136.535H279.895V122.879Z" fill="#1A428A"/>
<path d="M252.586 122.879H266.238V136.535H252.586V122.879Z" fill="#1A428A"/>
<path d="M129.707 150.188H143.359V163.84H129.707V150.188Z" fill="#1A428A"/>
<path d="M157.012 150.188H170.668V163.84H157.012V150.188Z" fill="#1A428A"/>
<path d="M204.801 122.879H218.453V143.359H204.801V122.879Z" fill="#1A428A"/>
<path d="M204.801 279.895H218.453V300.375H204.801V279.895Z" fill="#1A428A"/>
<path d="M279.895 150.188H293.547V163.84H279.895V150.188Z" fill="#1A428A"/>
<path d="M252.586 150.188H266.238V163.84H252.586V150.188Z" fill="#1A428A"/>
<path d="M129.707 177.492H143.359V191.148H129.707V177.492Z" fill="#1A428A"/>
<path d="M279.895 177.492H293.547V191.148H279.895V177.492Z" fill="#1A428A"/>
<path d="M129.707 204.801H143.359V218.453H129.707V204.801Z" fill="#1A428A"/>
<path d="M279.895 204.801H293.547V218.453H279.895V204.801Z" fill="#1A428A"/>
<path d="M129.707 232.105H143.359V245.762H129.707V232.105Z" fill="#1A428A"/>
<path d="M279.895 232.105H293.547V245.762H279.895V232.105Z" fill="#1A428A"/>
<path d="M129.707 259.414H143.359V273.066H129.707V259.414Z" fill="#1A428A"/>
<path d="M157.012 259.414H170.668V273.066H157.012V259.414Z" fill="#1A428A"/>
<path d="M279.895 259.414H293.547V273.066H279.895V259.414Z" fill="#1A428A"/>
<path d="M252.586 259.414H266.238V273.066H252.586V259.414Z" fill="#1A428A"/>
<path d="M129.707 286.719H143.359V300.375H129.707V286.719Z" fill="#1A428A"/>
<path d="M157.012 286.719H170.668V300.375H157.012V286.719Z" fill="#1A428A"/>
<path d="M279.895 286.719H293.547V300.375H279.895V286.719Z" fill="#1A428A"/>
<path d="M252.586 286.719H266.238V300.375H252.586V286.719Z" fill="#1A428A"/>
<path d="M211.625 423.254C94.9336 423.254 0 328.32 0 211.625C0 94.9336 94.9336 0 211.625 0C328.32 0 423.254 94.9336 423.254 211.625C423.254 328.32 328.32 423.254 211.625 423.254V423.254ZM211.625 13.6523C102.465 13.6523 13.6523 102.465 13.6523 211.625C13.6523 320.785 102.465 409.602 211.625 409.602C320.785 409.602 409.602 320.785 409.602 211.625C409.602 102.465 320.785 13.6523 211.625 13.6523V13.6523Z" fill="#1A428A"/>
<path d="M64.8516 358.398C63.1055 358.398 61.3594 357.734 60.0273 356.398C57.3594 353.734 57.3594 349.414 60.0273 346.746L346.746 60.0273C349.414 57.3594 353.734 57.3594 356.398 60.0273C359.066 62.6914 359.066 67.0156 356.398 69.6797L69.6797 356.398C68.3477 357.734 66.5977 358.398 64.8516 358.398V358.398Z" fill="#1A428A"/>
<path d="M279.895 354.988C276.121 354.988 273.066 351.934 273.066 348.16V320.852C273.066 317.078 276.121 314.027 279.895 314.027C283.668 314.027 286.719 317.078 286.719 320.852V348.16C286.719 351.934 283.668 354.988 279.895 354.988V354.988Z" fill="white"/>
<path d="M293.547 341.332H266.238C262.465 341.332 259.414 338.281 259.414 334.508C259.414 330.734 262.465 327.68 266.238 327.68H293.547C297.32 327.68 300.375 330.734 300.375 334.508C300.375 338.281 297.32 341.332 293.547 341.332Z" fill="white"/>
</g>
<defs>
<clipPath id="clip0_1_1950">
<rect width="423.253" height="423.253" fill="white"/>
</clipPath>
</defs>
</svg>
