<svg width="395" height="395" viewBox="0 0 395 395" fill="none" xmlns="http://www.w3.org/2000/svg">
<path d="M283.333 388.191H85.834V361.146C85.834 342.554 103.14 327.481 124.488 327.481L184.586 317.36L244.68 327.481C266.027 327.481 283.333 342.554 283.333 361.146V388.191Z" fill="#6BC4E8"/>
<path d="M283.333 394.999H85.834C82.0696 394.999 79.0222 391.955 79.0222 388.191V361.146C79.0222 339.008 99.103 320.957 123.895 320.677L183.452 310.638C184.196 310.522 184.968 310.522 185.712 310.638L245.268 320.677C270.064 320.957 290.141 339.008 290.141 361.146V388.191C290.145 391.955 287.098 394.999 283.333 394.999V394.999ZM92.6458 381.379H276.525V361.146C276.525 346.338 262.239 334.293 244.68 334.293C244.302 334.293 243.924 334.258 243.55 334.199L184.586 324.262L125.618 334.199C125.247 334.258 124.869 334.293 124.487 334.293C106.932 334.293 92.6458 346.338 92.6458 361.146V381.379Z" fill="#1A428A"/>
<path d="M208.524 317.361C193.389 324.223 175.572 324.223 160.436 317.361V279.226H208.524V317.361Z" fill="#D7E9FF"/>
<path d="M184.484 329.285C175.253 329.285 166.029 327.376 157.623 323.564C155.187 322.462 153.625 320.034 153.625 317.361V279.225C153.625 275.461 156.672 272.414 160.436 272.414H208.524C212.289 272.414 215.336 275.461 215.336 279.225V317.361C215.336 320.03 213.774 322.462 211.338 323.564C202.932 327.376 193.708 329.285 184.484 329.285ZM208.524 317.361H208.591H208.524ZM167.244 312.762C178.284 316.647 190.677 316.64 201.716 312.762V286.033H167.244V312.762Z" fill="#1A428A"/>
<path fill-rule="evenodd" clip-rule="evenodd" d="M276.525 6.81177C220.106 6.81177 174.368 52.5459 174.368 108.965C174.368 165.385 220.106 211.119 276.525 211.119C332.941 211.119 378.679 165.385 378.679 108.965C378.679 52.5459 332.941 6.81177 276.525 6.81177Z" fill="#1A428A"/>
<path d="M276.525 217.931C216.443 217.931 167.56 169.048 167.56 108.965C167.56 48.8828 216.443 0 276.525 0C336.608 0 385.491 48.8828 385.491 108.965C385.491 169.048 336.608 217.931 276.525 217.931ZM276.525 13.6197C223.948 13.6197 181.18 56.3922 181.18 108.965C181.18 161.539 223.948 204.311 276.525 204.311C329.099 204.311 371.867 161.539 371.867 108.965C371.867 56.3922 329.099 13.6197 276.525 13.6197Z" fill="#1A428A"/>
<path d="M212.729 292.845H156.228C143.797 292.845 133.715 282.764 133.715 270.333V219.279C133.715 192.204 155.663 170.26 182.738 170.26H186.222C213.294 170.26 235.242 192.207 235.242 219.279V270.333C235.242 282.764 225.164 292.845 212.729 292.845Z" fill="#D7E9FF"/>
<path d="M212.729 299.657H156.232C140.063 299.657 126.907 286.501 126.907 270.333V219.283C126.907 188.494 151.953 163.448 182.735 163.448H186.218C217.004 163.448 242.053 188.494 242.053 219.283V270.333C242.053 286.501 228.897 299.657 212.729 299.657ZM182.735 177.068C159.466 177.068 140.531 196.003 140.531 219.283V270.333C140.531 278.992 147.573 286.033 156.232 286.033H212.733C221.392 286.033 228.434 278.992 228.434 270.333V219.283C228.434 196.003 209.499 177.068 186.222 177.068H182.735Z" fill="#1A428A"/>
<path d="M262.902 6.81177C206.486 6.81177 160.748 52.5459 160.748 108.965C160.748 165.385 206.486 211.119 262.902 211.119C319.321 211.119 365.059 165.385 365.059 108.965C365.059 52.5459 319.321 6.81177 262.902 6.81177Z" fill="#D7E9FF"/>
<path d="M262.902 217.931C202.819 217.931 153.936 169.048 153.936 108.965C153.936 48.8828 202.819 0 262.902 0C322.984 0 371.867 48.8828 371.867 108.965C371.867 169.048 322.984 217.931 262.902 217.931V217.931ZM262.902 13.6197C210.329 13.6197 167.56 56.3922 167.56 108.965C167.56 161.539 210.329 204.311 262.902 204.311C315.479 204.311 358.248 161.539 358.248 108.965C358.248 56.3922 315.479 13.6197 262.902 13.6197Z" fill="#1A428A"/>
<path d="M262.902 27.2434C217.768 27.2434 181.18 63.8315 181.18 108.966C181.18 154.1 217.768 190.692 262.902 190.692C308.04 190.692 344.628 154.1 344.628 108.966C344.628 63.8315 308.04 27.2434 262.902 27.2434V27.2434Z" fill="#D7E9FF"/>
<path d="M262.902 197.499C214.085 197.499 174.368 157.782 174.368 108.965C174.368 60.1487 214.085 20.4314 262.902 20.4314C311.718 20.4314 351.44 60.1487 351.44 108.965C351.44 157.782 311.718 197.499 262.902 197.499V197.499ZM262.902 34.0511C221.595 34.0511 187.988 67.6581 187.988 108.965C187.988 150.273 221.595 183.88 262.902 183.88C304.213 183.88 337.816 150.273 337.816 108.965C337.816 67.6581 304.213 34.0511 262.902 34.0511V34.0511Z" fill="#1A428A"/>
<path d="M201.611 115.777C197.847 115.777 194.799 112.73 194.799 108.965C194.799 90.7825 201.884 73.6751 214.744 60.8075C217.405 58.1498 221.715 58.1498 224.377 60.8075C227.035 63.4613 227.035 67.7791 224.377 70.4367C214.085 80.7324 208.419 94.4144 208.419 108.965C208.419 112.73 205.376 115.777 201.611 115.777Z" fill="white"/>
<path d="M240.869 71.3289C240.869 70.6119 241.348 70.1404 242.061 70.1404H272.188C289.338 70.1404 297.432 78.7136 297.432 91.6942C297.432 100.868 293.15 106.101 288.029 108.841V109.078C293.033 110.988 298.863 117.418 298.863 127.304C298.863 143.375 288.742 151.118 270.996 151.118H242.061C241.348 151.118 240.869 150.639 240.869 149.93V71.3289ZM271.834 103.837C278.977 103.837 283.388 99.5543 283.388 93.2413C283.388 86.8114 278.977 82.5209 271.834 82.5209H255.634C255.163 82.5209 254.921 82.7625 254.921 83.234V103.124C254.921 103.595 255.163 103.837 255.634 103.837H271.834ZM255.634 138.734H272.547C280.407 138.734 284.81 134.206 284.81 127.421C284.81 120.75 280.407 116.221 272.547 116.221H255.634C255.163 116.221 254.921 116.459 254.921 116.938V138.017C254.921 138.496 255.163 138.734 255.634 138.734V138.734Z" fill="#1A428A"/>
<path d="M262.902 81.726C259.137 81.726 256.094 78.6786 256.094 74.9142V61.2945C256.094 57.5301 259.137 54.4827 262.902 54.4827C266.666 54.4827 269.714 57.5301 269.714 61.2945V74.9142C269.714 78.6786 266.666 81.726 262.902 81.726V81.726Z" fill="#1A428A"/>
<path d="M262.902 163.448C259.137 163.448 256.094 160.401 256.094 156.636V149.828C256.094 146.064 259.137 143.017 262.902 143.017C266.666 143.017 269.714 146.064 269.714 149.828V156.636C269.714 160.401 266.666 163.448 262.902 163.448V163.448Z" fill="#1A428A"/>
<path d="M215.231 388.191H17.7316V361.146C17.7316 342.554 35.0378 327.481 56.3851 327.481L116.479 317.36L176.577 327.481C197.925 327.481 215.231 342.554 215.231 361.146V388.191Z" fill="#6BC4E8"/>
<path d="M215.231 394.999H17.7316C13.9672 394.999 10.9198 391.955 10.9198 388.191V361.146C10.9198 339.008 31.0006 320.957 55.7928 320.677L115.349 310.638C116.094 310.522 116.865 310.522 117.609 310.638L177.166 320.677C201.958 320.957 222.039 339.008 222.039 361.146V388.191C222.043 391.955 218.995 394.999 215.231 394.999V394.999ZM24.5395 381.379H208.419V361.146C208.419 346.338 194.133 334.293 176.577 334.293C176.196 334.293 175.818 334.258 175.447 334.199L116.479 324.262L57.5152 334.199C57.1411 334.258 56.7631 334.293 56.3851 334.293C38.8295 334.293 24.5395 346.338 24.5395 361.146V381.379Z" fill="#1A428A"/>
<path d="M140.422 317.361C125.286 324.223 107.47 324.223 92.3302 317.361V279.226H140.422V317.361Z" fill="#D7E9FF"/>
<path d="M116.382 329.285C107.15 329.285 97.9261 327.376 89.5205 323.564C87.0849 322.462 85.5223 320.034 85.5223 317.361V279.225C85.5223 275.461 88.5658 272.414 92.3302 272.414H140.422C144.186 272.414 147.234 275.461 147.234 279.225V317.361C147.234 320.03 145.671 322.462 143.236 323.564C134.83 327.376 125.606 329.285 116.382 329.285ZM140.422 317.361H140.488H140.422ZM99.142 312.762C110.182 316.647 122.574 316.64 133.614 312.762V286.033H99.142V312.762Z" fill="#1A428A"/>
<path d="M144.627 292.845H88.1254C75.6904 292.845 65.613 282.764 65.613 270.333V219.279C65.613 192.204 87.5604 170.26 114.632 170.26H118.116C145.192 170.26 167.139 192.207 167.139 219.279V270.333C167.139 282.764 157.062 292.845 144.627 292.845Z" fill="#D7E9FF"/>
<path d="M144.627 299.657H88.1293C71.961 299.657 58.8051 286.501 58.8051 270.333V219.283C58.8051 188.494 83.8544 163.448 114.632 163.448H118.116C148.902 163.448 173.951 188.494 173.951 219.283V270.333C173.951 286.501 160.795 299.657 144.627 299.657ZM114.632 177.068C91.3598 177.068 72.4248 196.003 72.4248 219.283V270.333C72.4248 278.992 79.4704 286.033 88.1293 286.033H144.627C153.286 286.033 160.331 278.992 160.331 270.333V219.283C160.331 196.003 141.396 177.068 118.12 177.068H114.632Z" fill="#1A428A"/>
<path d="M331.008 313.277C327.244 313.277 324.196 310.229 324.196 306.465V279.225C324.196 275.461 327.244 272.414 331.008 272.414C334.773 272.414 337.816 275.461 337.816 279.225V306.465C337.816 310.229 334.773 313.277 331.008 313.277Z" fill="#1A428A"/>
<path d="M344.628 299.657H317.385C313.62 299.657 310.577 296.609 310.577 292.845C310.577 289.081 313.62 286.033 317.385 286.033H344.628C348.392 286.033 351.44 289.081 351.44 292.845C351.44 296.609 348.392 299.657 344.628 299.657V299.657Z" fill="#1A428A"/>
<path d="M85.834 129.397C82.0696 129.397 79.0222 126.35 79.0222 122.585V95.3457C79.0222 91.5813 82.0696 88.5339 85.834 88.5339C89.5984 88.5339 92.6458 91.5813 92.6458 95.3457V122.585C92.6458 126.35 89.5984 129.397 85.834 129.397Z" fill="#1A428A"/>
<path d="M99.4537 115.777H72.2143C68.4499 115.777 65.4025 112.73 65.4025 108.965C65.4025 105.201 68.4499 102.154 72.2143 102.154H99.4537C103.218 102.154 106.266 105.201 106.266 108.965C106.266 112.73 103.218 115.777 99.4537 115.777Z" fill="#1A428A"/>
</svg>
