<svg width="423" height="423" viewBox="0 0 423 423" fill="none" xmlns="http://www.w3.org/2000/svg">
<g clip-path="url(#clip0_1_2019)">
<path d="M31.0612 6.82397H263.028V416.176H31.0612V6.82397Z" fill="#6BC4E8"/>
<path d="M263.028 423.001H31.0613C27.294 423.001 24.2372 419.948 24.2372 416.177V6.82404C24.2372 3.05286 27.294 0 31.0613 0H263.028C266.795 0 269.852 3.05286 269.852 6.82404V416.177C269.852 419.948 266.795 423.001 263.028 423.001ZM37.8853 409.356H256.208V13.6442H37.8853V409.356Z" fill="#1A428A"/>
<path fill-rule="evenodd" clip-rule="evenodd" d="M263.512 6.82397L296.601 40.9364V375.24L263.512 416.176V6.82397Z" fill="#1A428A"/>
<path d="M263.512 423C262.751 423 261.985 422.876 261.236 422.606C258.511 421.65 256.688 419.069 256.688 416.176V6.82396C256.688 4.04437 258.374 1.54587 260.951 0.499622C263.527 -0.538818 266.479 0.0819035 268.407 2.0729L301.497 36.1853C302.734 37.458 303.425 39.164 303.425 40.9363V375.24C303.425 376.802 302.887 378.32 301.907 379.534L268.817 420.467C267.498 422.103 265.53 423 263.512 423V423ZM270.336 23.6537V396.883L289.777 372.827V43.7003L270.336 23.6537Z" fill="#1A428A"/>
<path d="M51.5294 27.2922H242.56V95.517H51.5294V27.2922Z" fill="#2A8EE6"/>
<path d="M242.56 102.337H51.5294C47.7621 102.337 44.7054 99.2882 44.7054 95.5171V27.2923C44.7054 23.5211 47.7621 20.4683 51.5294 20.4683H242.56C246.331 20.4683 249.384 23.5211 249.384 27.2923V95.5171C249.384 99.2882 246.331 102.337 242.56 102.337ZM58.3535 88.693H235.739V34.1124H58.3535V88.693Z" fill="#1A428A"/>
<path d="M51.5294 115.985H242.56V184.21H51.5294V115.985Z" fill="#2A8EE6"/>
<path d="M242.56 191.034H51.5294C47.7621 191.034 44.7054 187.981 44.7054 184.21V115.985C44.7054 112.214 47.7621 109.161 51.5294 109.161H242.56C246.331 109.161 249.384 112.214 249.384 115.985V184.21C249.384 187.981 246.331 191.034 242.56 191.034ZM58.3535 177.386H235.739V122.805H58.3535V177.386Z" fill="#1A428A"/>
<path d="M290.32 13.6443C233.799 13.6443 187.979 59.4645 187.979 115.985C187.979 172.502 233.799 218.322 290.32 218.322C346.841 218.322 392.657 172.502 392.657 115.985C392.657 59.4645 346.841 13.6443 290.32 13.6443Z" fill="#6BC4E8"/>
<path d="M290.32 225.146C230.129 225.146 181.159 176.176 181.159 115.985C181.159 55.7946 230.129 6.82397 290.32 6.82397C350.511 6.82397 399.481 55.7946 399.481 115.985C399.481 176.176 350.511 225.146 290.32 225.146ZM290.32 20.4681C237.652 20.4681 194.803 63.3136 194.803 115.985C194.803 168.653 237.652 211.498 290.32 211.498C342.988 211.498 385.837 168.653 385.837 115.985C385.837 63.3136 342.988 20.4681 290.32 20.4681V20.4681Z" fill="#1A428A"/>
<path d="M290.32 34.1123C245.101 34.1123 208.447 70.7661 208.447 115.985C208.447 161.2 245.101 197.854 290.32 197.854C335.535 197.854 372.189 161.2 372.189 115.985C372.189 70.7661 335.535 34.1123 290.32 34.1123V34.1123Z" fill="#D7E9FF"/>
<path d="M290.32 204.678C241.412 204.678 201.627 164.89 201.627 115.985C201.627 67.0809 241.412 27.2922 290.32 27.2922C339.228 27.2922 379.013 67.0809 379.013 115.985C379.013 164.89 339.228 204.678 290.32 204.678V204.678ZM290.32 40.9364C248.938 40.9364 215.271 74.5998 215.271 115.985C215.271 157.367 248.938 191.034 290.32 191.034C331.701 191.034 365.369 157.367 365.369 115.985C365.369 74.5998 331.701 40.9364 290.32 40.9364Z" fill="#1A428A"/>
<path d="M228.915 122.805C225.148 122.805 222.095 119.757 222.095 115.985C222.095 99.14 228.287 82.9661 239.53 70.4306C242.04 67.6237 246.358 67.3855 249.165 69.9114C251.968 72.4294 252.202 76.7393 249.684 79.5462C240.693 89.5676 235.739 102.505 235.739 115.985C235.739 119.757 232.683 122.805 228.915 122.805Z" fill="white"/>
<path d="M268.247 78.2813C268.247 77.559 268.727 77.0867 269.438 77.0867H299.619C316.804 77.0867 324.913 85.6753 324.913 98.6831C324.913 107.869 320.622 113.112 315.492 115.856V116.098C320.501 118.011 326.345 124.453 326.345 134.353C326.345 150.457 316.203 158.214 298.428 158.214H269.438C268.727 158.214 268.247 157.734 268.247 157.019V78.2813ZM299.268 110.848C306.424 110.848 310.839 106.553 310.839 100.233C310.839 93.7915 306.424 89.4933 299.268 89.4933H283.035C282.563 89.4933 282.325 89.7314 282.325 90.2038V110.133C282.325 110.606 282.563 110.848 283.035 110.848H299.268ZM283.035 145.807H299.982C307.856 145.807 312.268 141.267 312.268 134.47C312.268 127.787 307.856 123.25 299.982 123.25H283.035C282.563 123.25 282.325 123.492 282.325 123.973V145.085C282.325 145.565 282.563 145.807 283.035 145.807Z" fill="#1A428A"/>
<path d="M290.32 88.6929C286.553 88.6929 283.496 85.6439 283.496 81.8727V68.2247C283.496 64.4535 286.553 61.4045 290.32 61.4045C294.087 61.4045 297.14 64.4535 297.14 68.2247V81.8727C297.14 85.6439 294.087 88.6929 290.32 88.6929Z" fill="#1A428A"/>
<path d="M290.32 170.566C286.553 170.566 283.496 167.513 283.496 163.742V156.918C283.496 153.147 286.553 150.098 290.32 150.098C294.087 150.098 297.14 153.147 297.14 156.918V163.742C297.14 167.513 294.087 170.566 290.32 170.566Z" fill="#1A428A"/>
<path d="M85.6418 211.498H208.447V259.259H85.6418V211.498Z" fill="#2A8EE6"/>
<path d="M208.447 266.079H85.6418C81.8745 266.079 78.8177 263.03 78.8177 259.259V211.498C78.8177 207.727 81.8745 204.678 85.6418 204.678H208.447C212.214 204.678 215.271 207.727 215.271 211.498V259.259C215.271 263.03 212.214 266.079 208.447 266.079ZM92.4658 252.435H201.627V218.322H92.4658V252.435Z" fill="#1A428A"/>
<path d="M85.6418 279.727H208.447V327.484H85.6418V279.727Z" fill="#2A8EE6"/>
<path d="M208.447 334.307H85.6418C81.8745 334.307 78.8177 331.255 78.8177 327.483V279.727C78.8177 275.956 81.8745 272.903 85.6418 272.903H208.447C212.214 272.903 215.271 275.956 215.271 279.727V327.483C215.271 331.255 212.214 334.307 208.447 334.307V334.307ZM92.4658 320.659H201.627V286.547H92.4658V320.659Z" fill="#1A428A"/>
<path d="M242.56 371.832C242.56 381.252 234.923 388.888 225.503 388.888C216.083 388.888 208.447 381.252 208.447 371.832C208.447 362.412 216.083 354.776 225.503 354.776C234.923 354.776 242.56 362.412 242.56 371.832V371.832Z" fill="#D7E9FF"/>
<path d="M225.503 395.708C212.339 395.708 201.627 384.996 201.627 371.832C201.627 358.664 212.339 347.952 225.503 347.952C238.671 347.952 249.384 358.664 249.384 371.832C249.384 384.996 238.671 395.708 225.503 395.708ZM225.503 361.596C219.862 361.596 215.271 366.187 215.271 371.832C215.271 377.473 219.862 382.064 225.503 382.064C231.148 382.064 235.739 377.473 235.739 371.832C235.739 366.187 231.148 361.596 225.503 361.596V361.596Z" fill="#1A428A"/>
<path d="M276.676 307.015C272.905 307.015 269.852 303.966 269.852 300.195V272.903C269.852 269.132 272.905 266.079 276.676 266.079C280.443 266.079 283.496 269.132 283.496 272.903V300.195C283.496 303.966 280.443 307.015 276.676 307.015Z" fill="white"/>
<path d="M290.32 293.371H263.028C259.261 293.371 256.208 290.318 256.208 286.547C256.208 282.776 259.261 279.727 263.028 279.727H290.32C294.087 279.727 297.14 282.776 297.14 286.547C297.14 290.318 294.087 293.371 290.32 293.371Z" fill="white"/>
</g>
<defs>
<clipPath id="clip0_1_2019">
<rect width="423" height="423" fill="white"/>
</clipPath>
</defs>
</svg>
