<svg width="430" height="430" viewBox="0 0 430 430" fill="none" xmlns="http://www.w3.org/2000/svg">
<path d="M30.9015 88.7295H208.361V423.175H30.9015V88.7295Z" fill="#2A8EE6"/>
<path d="M208.361 429.998H30.9014C27.1326 429.998 24.0746 426.948 24.0746 423.175V88.7297C24.0746 84.957 27.1326 81.9067 30.9014 81.9067H208.361C212.133 81.9067 215.187 84.957 215.187 88.7297V423.175C215.187 426.948 212.133 429.998 208.361 429.998ZM37.7283 416.348H201.538V95.5565H37.7283V416.348Z" fill="#1A428A"/>
<path d="M119.631 375.395C97.0493 375.395 78.6777 357.027 78.6777 334.445C78.6777 323.498 82.9387 313.219 90.6716 305.49C93.3391 302.822 97.6625 302.822 100.326 305.49C102.99 308.153 102.99 312.477 100.326 315.14C95.1708 320.292 92.3314 327.154 92.3314 334.445C92.3314 349.501 104.579 361.745 119.631 361.745C134.687 361.745 146.935 349.501 146.935 334.445C146.935 327.154 144.095 320.292 138.936 315.14C136.272 312.477 136.272 308.157 138.932 305.49C141.6 302.826 145.923 302.826 148.587 305.49C156.323 313.219 160.584 323.498 160.584 334.445C160.584 357.027 142.213 375.395 119.631 375.395V375.395Z" fill="white"/>
<path d="M119.631 320.792C115.862 320.792 112.808 317.742 112.808 313.969V293.492C112.808 289.72 115.862 286.666 119.631 286.666C123.4 286.666 126.458 289.72 126.458 293.492V313.969C126.458 317.742 123.4 320.792 119.631 320.792V320.792Z" fill="white"/>
<path d="M58.205 122.856H174.234V156.982H58.205V122.856Z" fill="#6BC4E8"/>
<path d="M174.234 163.809H58.2049C54.4322 163.809 51.3781 160.755 51.3781 156.983V122.856C51.3781 119.083 54.4322 116.033 58.2049 116.033H174.234C178.003 116.033 181.061 119.083 181.061 122.856V156.983C181.061 160.755 178.003 163.809 174.234 163.809ZM65.0279 150.16H167.411V129.683H65.0279V150.16Z" fill="#1A428A"/>
<path d="M58.205 156.982H174.234V191.113H58.205V156.982Z" fill="#6BC4E8"/>
<path d="M174.234 197.936H58.2049C54.4322 197.936 51.3781 194.886 51.3781 191.113V156.983C51.3781 153.21 54.4322 150.16 58.2049 150.16H174.234C178.003 150.16 181.061 153.21 181.061 156.983V191.113C181.061 194.886 178.003 197.936 174.234 197.936ZM65.0279 184.286H167.411V163.809H65.0279V184.286Z" fill="#1A428A"/>
<path d="M112.808 20.4766H290.267L208.361 88.7295H30.9015L112.808 20.4766Z" fill="#2A8EE6"/>
<path d="M208.361 95.5565H30.9014C28.0269 95.5565 25.461 93.7561 24.4807 91.0574C23.5043 88.3509 24.3245 85.3241 26.5311 83.4846L108.438 15.2277C109.664 14.2123 111.211 13.6499 112.808 13.6499H290.267C293.142 13.6499 295.708 15.4503 296.684 18.1491C297.664 20.8556 296.848 23.8824 294.641 25.7219L212.735 93.9787C211.508 94.9941 209.962 95.5565 208.361 95.5565ZM49.7534 81.9067H205.888L271.415 27.3036H115.276L49.7534 81.9067Z" fill="#1A428A"/>
<path d="M208.361 88.7295L290.267 20.4766V348.095L208.361 423.175V88.7295Z" fill="#2A8EE6"/>
<path d="M208.361 429.998C207.427 429.998 206.494 429.815 205.615 429.42C203.135 428.334 201.538 425.882 201.538 423.175V88.7297C201.538 86.7027 202.436 84.7851 203.99 83.4846L285.893 15.2317C287.936 13.5367 290.779 13.1773 293.161 14.2982C295.559 15.4152 297.09 17.8288 297.09 20.4768V348.095C297.09 350.009 296.293 351.833 294.88 353.126L212.973 428.206C211.688 429.381 210.036 429.998 208.361 429.998V429.998ZM215.187 91.9283V407.659L283.44 345.096V35.0483L215.187 91.9283Z" fill="#1A428A"/>
<path fill-rule="evenodd" clip-rule="evenodd" d="M317.567 27.3037C272.333 27.3037 235.664 63.9727 235.664 109.206C235.664 154.44 272.333 191.113 317.567 191.113C362.804 191.113 399.473 154.44 399.473 109.206C399.473 63.9727 362.804 27.3037 317.567 27.3037Z" fill="#1A428A"/>
<path d="M317.567 197.936C268.642 197.936 228.837 158.131 228.837 109.206C228.837 60.2819 268.642 20.4768 317.567 20.4768C366.491 20.4768 406.296 60.2819 406.296 109.206C406.296 158.131 366.491 197.936 317.567 197.936V197.936ZM317.567 34.1266C276.168 34.1266 242.487 67.8078 242.487 109.206C242.487 150.605 276.168 184.286 317.567 184.286C358.969 184.286 392.647 150.605 392.647 109.206C392.647 67.8078 358.969 34.1266 317.567 34.1266Z" fill="#1A428A"/>
<path d="M317.567 6.8269C272.333 6.8269 235.664 43.4959 235.664 88.7296C235.664 133.963 272.333 170.636 317.567 170.636C362.804 170.636 399.473 133.963 399.473 88.7296C399.473 43.4959 362.804 6.8269 317.567 6.8269Z" fill="#6BC4E8"/>
<path d="M317.567 177.459C268.642 177.459 228.837 137.654 228.837 88.7296C228.837 39.8051 268.642 0 317.567 0C366.491 0 406.296 39.8051 406.296 88.7296C406.296 137.654 366.491 177.459 317.567 177.459V177.459ZM317.567 13.6498C276.168 13.6498 242.487 47.331 242.487 88.7296C242.487 130.128 276.168 163.809 317.567 163.809C358.969 163.809 392.647 130.128 392.647 88.7296C392.647 47.331 358.969 13.6498 317.567 13.6498Z" fill="#1A428A"/>
<path d="M256.141 95.5565C252.368 95.5565 249.314 92.5023 249.314 88.7296C249.314 71.8929 255.5 55.7162 266.737 43.1873C269.259 40.3753 273.575 40.1488 276.371 42.6522C279.183 45.1752 279.418 49.4869 276.903 52.2911C267.908 62.3165 262.964 75.2594 262.964 88.7296C262.964 92.5023 259.914 95.5565 256.141 95.5565Z" fill="white"/>
<path d="M295.485 51.01C295.485 50.2914 295.965 49.8188 296.68 49.8188H326.874C344.062 49.8188 352.174 58.411 352.174 71.4203C352.174 80.6139 347.881 85.859 342.75 88.6046V88.8428C347.764 90.7565 353.607 97.2007 353.607 107.109C353.607 123.215 343.464 130.976 325.679 130.976H296.68C295.965 130.976 295.485 130.495 295.485 129.784V51.01ZM326.518 83.5899C333.677 83.5899 338.098 79.2977 338.098 72.9708C338.098 66.5267 333.677 62.2267 326.518 62.2267H310.283C309.81 62.2267 309.568 62.4688 309.568 62.9414V82.8791C309.568 83.3517 309.81 83.5899 310.283 83.5899H326.518ZM310.283 118.564H327.233C335.114 118.564 339.524 114.026 339.524 107.226C339.524 100.54 335.114 96.0017 327.233 96.0017H310.283C309.81 96.0017 309.572 96.2399 309.572 96.7203V117.845C309.572 118.326 309.81 118.564 310.283 118.564Z" fill="#1A428A"/>
<path d="M317.567 61.43C313.794 61.43 310.744 58.3759 310.744 54.6031V40.9533C310.744 37.1806 313.794 34.1265 317.567 34.1265C321.34 34.1265 324.394 37.1806 324.394 40.9533V54.6031C324.394 58.3759 321.34 61.43 317.567 61.43Z" fill="#1A428A"/>
<path d="M317.567 143.333C313.794 143.333 310.744 140.282 310.744 136.51V129.683C310.744 125.91 313.794 122.856 317.567 122.856C321.34 122.856 324.394 125.91 324.394 129.683V136.51C324.394 140.282 321.34 143.333 317.567 143.333Z" fill="#1A428A"/>
<path d="M256.141 313.969C252.368 313.969 249.314 310.915 249.314 307.142V279.842C249.314 276.07 252.368 273.016 256.141 273.016C259.914 273.016 262.964 276.07 262.964 279.842V307.142C262.964 310.915 259.914 313.969 256.141 313.969Z" fill="white"/>
<path d="M269.791 300.319H242.487C238.714 300.319 235.664 297.265 235.664 293.492C235.664 289.72 238.714 286.666 242.487 286.666H269.791C273.563 286.666 276.617 289.72 276.617 293.492C276.617 297.265 273.563 300.319 269.791 300.319Z" fill="white"/>
</svg>
