<svg width="402" height="402" viewBox="0 0 402 402" fill="none" xmlns="http://www.w3.org/2000/svg">
<g clip-path="url(#clip0_1_2069)">
<path fill-rule="evenodd" clip-rule="evenodd" d="M292.899 17.2649C236.409 17.2649 190.614 63.0602 190.614 119.55C190.614 176.04 236.409 221.832 292.899 221.832C349.386 221.832 395.181 176.04 395.181 119.55C395.181 63.0602 349.386 17.2649 292.899 17.2649V17.2649Z" fill="#1A428A"/>
<path d="M292.899 228.652C232.742 228.652 183.798 179.708 183.798 119.55C183.798 59.3925 232.742 10.4485 292.899 10.4485C353.057 10.4485 402.001 59.3925 402.001 119.55C402.001 179.708 353.057 228.652 292.899 228.652ZM292.899 24.0852C240.256 24.0852 197.434 66.9113 197.434 119.55C197.434 172.189 240.256 215.015 292.899 215.015C345.538 215.015 388.361 172.189 388.361 119.55C388.361 66.9113 345.538 24.0852 292.899 24.0852Z" fill="#1A428A"/>
<path d="M279.259 17.2649C222.773 17.2649 176.977 63.0602 176.977 119.55C176.977 176.04 222.773 221.832 279.259 221.832C335.749 221.832 381.544 176.04 381.544 119.55C381.544 63.0602 335.749 17.2649 279.259 17.2649V17.2649Z" fill="#D7E9FF"/>
<path d="M279.259 228.652C219.101 228.652 170.157 179.708 170.157 119.55C170.157 59.3925 219.101 10.4485 279.259 10.4485C339.417 10.4485 388.361 59.3925 388.361 119.55C388.361 179.708 339.417 228.652 279.259 228.652ZM279.259 24.0852C226.62 24.0852 183.798 66.9113 183.798 119.55C183.798 172.189 226.62 215.015 279.259 215.015C331.902 215.015 374.724 172.189 374.724 119.55C374.724 66.9113 331.902 24.0852 279.259 24.0852Z" fill="#1A428A"/>
<path d="M279.259 37.7219C234.068 37.7219 197.434 74.3558 197.434 119.55C197.434 164.741 234.068 201.375 279.259 201.375C324.453 201.375 361.087 164.741 361.087 119.55C361.087 74.3558 324.453 37.7219 279.259 37.7219Z" fill="#D7E9FF"/>
<path d="M279.259 208.195C230.381 208.195 190.614 168.428 190.614 119.55C190.614 70.6725 230.381 30.9055 279.259 30.9055C328.136 30.9055 367.907 70.6725 367.907 119.55C367.907 168.428 328.136 208.195 279.259 208.195ZM279.259 44.5423C237.9 44.5423 204.255 78.1913 204.255 119.55C204.255 160.909 237.9 194.558 279.259 194.558C320.622 194.558 354.267 160.909 354.267 119.55C354.267 78.1913 320.622 44.5423 279.259 44.5423Z" fill="#1A428A"/>
<path d="M219.031 114.568C218.598 114.568 218.157 114.529 217.716 114.443C214.021 113.725 211.609 110.143 212.331 106.444C215.699 89.1592 225.515 74.0164 239.979 63.8015C243.066 61.636 247.319 62.3696 249.488 65.4403C251.657 68.5227 250.928 72.7717 247.849 74.9489C236.269 83.1193 228.407 95.2304 225.714 109.054C225.082 112.312 222.226 114.568 219.031 114.568Z" fill="white"/>
<path d="M257.198 81.8668C257.198 81.1489 257.678 80.6768 258.388 80.6768H288.553C305.728 80.6768 313.832 89.2568 313.832 102.258C313.832 111.442 309.544 116.682 304.417 119.425V119.663C309.423 121.575 315.264 128.013 315.264 137.908C315.264 154.003 305.128 161.756 287.363 161.756H258.388C257.678 161.756 257.198 161.276 257.198 160.562V81.8668ZM288.202 114.416C295.354 114.416 299.77 110.127 299.77 103.807C299.77 97.3686 295.354 93.0727 288.202 93.0727H271.982C271.51 93.0727 271.268 93.3107 271.268 93.7829V113.701C271.268 114.174 271.51 114.416 271.982 114.416H288.202ZM271.982 149.356H288.916C296.786 149.356 301.195 144.822 301.195 138.029C301.195 131.349 296.786 126.815 288.916 126.815H271.982C271.51 126.815 271.268 127.053 271.268 127.533V148.634C271.268 149.118 271.51 149.356 271.982 149.356Z" fill="#1A428A"/>
<path d="M279.259 92.2728C275.49 92.2728 272.442 89.2255 272.442 85.4563V71.8157C272.442 68.0466 275.49 64.9993 279.259 64.9993C283.028 64.9993 286.079 68.0466 286.079 71.8157V85.4563C286.079 89.2255 283.028 92.2728 279.259 92.2728Z" fill="#1A428A"/>
<path d="M279.259 174.101C275.49 174.101 272.442 171.05 272.442 167.281V160.464C272.442 156.695 275.49 153.644 279.259 153.644C283.028 153.644 286.079 156.695 286.079 160.464V167.281C286.079 171.05 283.028 174.101 279.259 174.101Z" fill="#1A428A"/>
<path d="M163.301 203.173L6.81641 385.484H209.94L163.301 203.173Z" fill="#6BC4E8"/>
<path d="M209.94 392.305H6.81642C4.1554 392.305 1.7363 390.752 0.624286 388.337C-0.487723 385.914 -0.0936425 383.069 1.64265 381.044L158.124 198.733C159.782 196.81 162.365 195.955 164.851 196.536C167.328 197.118 169.271 199.022 169.903 201.484L216.545 383.795C217.064 385.839 216.616 388.005 215.324 389.667C214.033 391.329 212.043 392.305 209.94 392.305ZM21.6549 378.668H201.157L159.942 217.559L21.6549 378.668Z" fill="#1A428A"/>
<path d="M163.688 203.173L320.173 385.484H209.94L163.688 203.173Z" fill="#D7E9FF"/>
<path d="M320.173 392.305H209.94C206.818 392.305 204.099 390.186 203.326 387.162L157.074 204.851C156.302 201.78 157.734 198.577 160.543 197.122C163.348 195.662 166.79 196.322 168.858 198.733L325.347 381.044C327.087 383.069 327.477 385.91 326.365 388.333C325.253 390.752 322.838 392.305 320.173 392.305V392.305ZM215.246 378.668H305.338L177.446 229.67L215.246 378.668Z" fill="#1A428A"/>
<path d="M306.536 296.84C302.767 296.84 299.716 293.792 299.716 290.023V262.746C299.716 258.977 302.767 255.926 306.536 255.926C310.305 255.926 313.356 258.977 313.356 262.746V290.023C313.356 293.792 310.305 296.84 306.536 296.84Z" fill="#1A428A"/>
<path d="M320.173 283.203H292.899C289.13 283.203 286.079 280.151 286.079 276.382C286.079 272.613 289.13 269.566 292.899 269.566H320.173C323.942 269.566 326.993 272.613 326.993 276.382C326.993 280.151 323.942 283.203 320.173 283.203Z" fill="#1A428A"/>
</g>
<defs>
<clipPath id="clip0_1_2069">
<rect width="402" height="402" fill="white"/>
</clipPath>
</defs>
</svg>
