<svg width="423" height="423" viewBox="0 0 423 423" fill="none" xmlns="http://www.w3.org/2000/svg">
<g clip-path="url(#clip0_1_2087)">
<path fill-rule="evenodd" clip-rule="evenodd" d="M317.23 416.176H126.079C118.575 416.176 112.493 410.094 112.493 402.591V20.4096C112.493 12.9063 118.575 6.82397 126.079 6.82397H317.23C324.733 6.82397 330.815 12.9063 330.815 20.4096V402.591C330.815 410.094 324.733 416.176 317.23 416.176Z" fill="#1A428A"/>
<path d="M317.23 423.001H126.079C114.824 423.001 105.669 413.846 105.669 402.591V20.4097C105.669 9.15467 114.824 0 126.079 0H317.23C328.485 0 337.639 9.15467 337.639 20.4097V402.591C337.639 413.846 328.485 423.001 317.23 423.001ZM126.079 13.6442C122.35 13.6442 119.317 16.6775 119.317 20.4097V402.591C119.317 406.323 122.35 409.356 126.079 409.356H317.23C320.958 409.356 323.991 406.323 323.991 402.591V20.4097C323.991 16.6775 320.958 13.6442 317.23 13.6442H126.079Z" fill="#1A428A"/>
<path d="M296.761 416.176H105.61C98.107 416.176 92.0247 410.094 92.0247 402.591V20.4096C92.0247 12.9063 98.107 6.82397 105.61 6.82397H296.761C304.265 6.82397 310.347 12.9063 310.347 20.4096V402.591C310.347 410.094 304.265 416.176 296.761 416.176Z" fill="white"/>
<path d="M296.761 423.001H105.61C94.3554 423.001 85.2007 413.846 85.2007 402.591V20.4097C85.2007 9.15467 94.3554 0 105.61 0H296.761C308.016 0 317.171 9.15467 317.171 20.4097V402.591C317.171 413.846 308.016 423.001 296.761 423.001ZM105.61 13.6442C101.882 13.6442 98.8488 16.6775 98.8488 20.4097V402.591C98.8488 406.323 101.882 409.356 105.61 409.356H296.761C300.49 409.356 303.523 406.323 303.523 402.591V20.4097C303.523 16.6775 300.49 13.6442 296.761 13.6442H105.61Z" fill="#1A428A"/>
<path d="M92.0247 47.7566H310.347V347.101H92.0247V47.7566Z" fill="#6BC4E8"/>
<path d="M310.347 353.921H92.0247C88.2574 353.921 85.2007 350.872 85.2007 347.101V47.7567C85.2007 43.9855 88.2574 40.9365 92.0247 40.9365H310.347C314.114 40.9365 317.171 43.9855 317.171 47.7567V347.101C317.171 350.872 314.114 353.921 310.347 353.921ZM98.8488 340.277H303.523V54.5807H98.8488V340.277Z" fill="#1A428A"/>
<path d="M214.83 382.064C214.83 389.599 208.72 395.708 201.186 395.708C193.651 395.708 187.542 389.599 187.542 382.064C187.542 374.53 193.651 368.42 201.186 368.42C208.72 368.42 214.83 374.53 214.83 382.064V382.064Z" fill="#6BC4E8"/>
<path d="M201.186 402.533C189.9 402.533 180.718 393.351 180.718 382.064C180.718 370.778 189.9 361.596 201.186 361.596C212.472 361.596 221.654 370.778 221.654 382.064C221.654 393.351 212.472 402.533 201.186 402.533V402.533ZM201.186 375.24C197.426 375.24 194.362 378.301 194.362 382.064C194.362 385.828 197.426 388.888 201.186 388.888C204.945 388.888 208.01 385.828 208.01 382.064C208.01 378.301 204.945 375.24 201.186 375.24Z" fill="#1A428A"/>
<path d="M201.186 327.484C197.419 327.484 194.362 324.431 194.362 320.66V245.615C194.362 241.844 197.419 238.791 201.186 238.791C204.953 238.791 208.01 241.844 208.01 245.615V320.66C208.01 324.431 204.953 327.484 201.186 327.484Z" fill="#1A428A"/>
<path d="M201.186 327.484C199.441 327.484 197.696 326.816 196.365 325.485L162.248 291.372C159.586 288.706 159.586 284.388 162.248 281.726C164.915 279.059 169.232 279.059 171.899 281.726L201.186 311.013L230.477 281.726C233.139 279.059 237.457 279.059 240.124 281.726C242.786 284.388 242.786 288.706 240.124 291.372L206.011 325.485C204.676 326.816 202.931 327.484 201.186 327.484Z" fill="#1A428A"/>
<path d="M242.122 81.8729H126.137C122.37 81.8729 119.317 78.8201 119.317 75.0489C119.317 71.2777 122.37 68.2249 126.137 68.2249H242.122C245.89 68.2249 248.942 71.2777 248.942 75.0489C248.942 78.8201 245.89 81.8729 242.122 81.8729Z" fill="#1A428A"/>
<path d="M276.235 102.337H126.137C122.37 102.337 119.317 99.2883 119.317 95.5172C119.317 91.746 122.37 88.6931 126.137 88.6931H276.235C280.002 88.6931 283.059 91.746 283.059 95.5172C283.059 99.2883 280.002 102.337 276.235 102.337Z" fill="#1A428A"/>
<path d="M255.766 170.566C255.766 200.708 231.332 225.147 201.186 225.147C171.044 225.147 146.605 200.708 146.605 170.566C146.605 140.42 171.044 115.985 201.186 115.985C231.332 115.985 255.766 140.42 255.766 170.566Z" fill="#2A8EE6"/>
<path d="M201.186 231.966C167.327 231.966 139.781 204.424 139.781 170.566C139.781 136.703 167.327 109.161 201.186 109.161C235.045 109.161 262.591 136.703 262.591 170.566C262.591 204.424 235.045 231.966 201.186 231.966ZM201.186 122.805C174.854 122.805 153.429 144.234 153.429 170.566C153.429 196.898 174.854 218.322 201.186 218.322C227.518 218.322 248.942 196.898 248.942 170.566C248.942 144.234 227.518 122.805 201.186 122.805Z" fill="#1A428A"/>
<path d="M181.514 138.745C181.514 138.179 181.889 137.804 182.451 137.804H206.183C219.691 137.804 226.07 144.554 226.07 154.782C226.07 162.001 222.693 166.127 218.66 168.286V168.473C222.599 169.976 227.194 175.044 227.194 182.824C227.194 195.488 219.222 201.586 205.242 201.586H182.451C181.889 201.586 181.514 201.212 181.514 200.645V138.745ZM205.902 164.347C211.531 164.347 214.998 160.97 214.998 155.996C214.998 150.933 211.531 147.556 205.902 147.556H193.144C192.769 147.556 192.582 147.744 192.582 148.118V163.789C192.582 164.163 192.769 164.347 193.144 164.347H205.902ZM193.144 191.83H206.464C212.656 191.83 216.126 188.266 216.126 182.918C216.126 177.667 212.656 174.103 206.464 174.103H193.144C192.769 174.103 192.582 174.286 192.582 174.669V191.264C192.582 191.643 192.769 191.83 193.144 191.83Z" fill="#1A428A"/>
<path d="M204.598 146.685C200.831 146.685 197.774 143.633 197.774 139.861V133.041C197.774 129.27 200.831 126.217 204.598 126.217C208.365 126.217 211.422 129.27 211.422 133.041V139.861C211.422 143.633 208.365 146.685 204.598 146.685Z" fill="#1A428A"/>
<path d="M204.598 214.91C200.831 214.91 197.774 211.861 197.774 208.09V201.266C197.774 197.495 200.831 194.442 204.598 194.442C208.365 194.442 211.422 197.495 211.422 201.266V208.09C211.422 211.861 208.365 214.91 204.598 214.91Z" fill="#1A428A"/>
<path d="M303.523 143.274C299.756 143.274 296.703 140.225 296.703 136.453V109.161C296.703 105.39 299.756 102.337 303.523 102.337C307.294 102.337 310.347 105.39 310.347 109.161V136.453C310.347 140.225 307.294 143.274 303.523 143.274Z" fill="white"/>
<path d="M317.171 129.63H289.879C286.111 129.63 283.059 126.577 283.059 122.805C283.059 119.034 286.111 115.985 289.879 115.985H317.171C320.938 115.985 323.991 119.034 323.991 122.805C323.991 126.577 320.938 129.63 317.171 129.63Z" fill="white"/>
<path d="M112.493 327.484C108.726 327.484 105.669 324.431 105.669 320.66V286.547C105.669 282.776 108.726 279.727 112.493 279.727C116.26 279.727 119.317 282.776 119.317 286.547V320.66C119.317 324.431 116.26 327.484 112.493 327.484Z" fill="white"/>
</g>
<defs>
<clipPath id="clip0_1_2087">
<rect width="423" height="423" fill="white"/>
</clipPath>
</defs>
</svg>
