<svg width="389" height="389" viewBox="0 0 389 389" fill="none" xmlns="http://www.w3.org/2000/svg">
<g clip-path="url(#clip0_1_2109)">
<path d="M95.4957 6.82593H314.264V382.174H54.9302V47.7741L95.4957 6.82593Z" fill="#D7E9FF"/>
<path d="M314.263 389H54.93C51.1616 389 48.104 385.946 48.104 382.174V47.7742C48.104 45.974 48.8147 44.248 50.08 42.9671L90.6455 2.02281C91.9302 0.726336 93.6719 0 95.4955 0H314.263C318.032 0 321.09 3.05374 321.09 6.826V382.174C321.09 385.946 318.032 389 314.263 389ZM61.756 375.352H307.437V13.6481H98.3384L61.756 50.578V375.352Z" fill="#1A428A"/>
<path fill-rule="evenodd" clip-rule="evenodd" d="M334.738 382.174H314.263V6.82617L334.738 20.4743V382.174Z" fill="#1A428A"/>
<path d="M334.738 389H314.264C310.495 389 307.438 385.947 307.438 382.174V6.82605C307.438 4.3073 308.824 1.99552 311.042 0.80839C313.252 -0.386551 315.95 -0.24597 318.047 1.14813L338.522 14.7962C340.423 16.0654 341.56 18.1975 341.56 20.4742V382.174C341.56 385.947 338.506 389 334.738 389V389ZM321.09 375.352H327.912V24.1293L321.09 19.576V375.352Z" fill="#1A428A"/>
<path d="M252.841 68.2445H102.7C98.9319 68.2445 95.8782 65.1947 95.8782 61.4224C95.8782 57.6502 98.9319 54.5964 102.7 54.5964H252.841C256.609 54.5964 259.667 57.6502 259.667 61.4224C259.667 65.1947 256.609 68.2445 252.841 68.2445Z" fill="#1A428A"/>
<path d="M252.841 136.493H102.7C98.9319 136.493 95.8782 133.439 95.8782 129.667C95.8782 125.895 98.9319 122.845 102.7 122.845H252.841C256.609 122.845 259.667 125.895 259.667 129.667C259.667 133.439 256.609 136.493 252.841 136.493Z" fill="#1A428A"/>
<path d="M164.123 102.371H102.7C98.9319 102.371 95.8782 99.3168 95.8782 95.5445C95.8782 91.7722 98.9319 88.7185 102.7 88.7185H164.123C167.891 88.7185 170.949 91.7722 170.949 95.5445C170.949 99.3168 167.891 102.371 164.123 102.371Z" fill="#1A428A"/>
<path d="M164.123 170.615H102.7C98.9319 170.615 95.8782 167.561 95.8782 163.789C95.8782 160.017 98.9319 156.967 102.7 156.967H164.123C167.891 156.967 170.949 160.017 170.949 163.789C170.949 167.561 167.891 170.615 164.123 170.615Z" fill="#1A428A"/>
<path d="M252.841 102.371H191.423C187.654 102.371 184.597 99.3168 184.597 95.5445C184.597 91.7722 187.654 88.7185 191.423 88.7185H252.841C256.609 88.7185 259.667 91.7722 259.667 95.5445C259.667 99.3168 256.609 102.371 252.841 102.371Z" fill="#1A428A"/>
<path d="M54.9302 218.385H232.367V327.578H54.9302V218.385Z" fill="#6BC4E8"/>
<path d="M232.367 334.404H54.93C51.1616 334.404 48.104 331.35 48.104 327.578V218.385C48.104 214.613 51.1616 211.563 54.93 211.563H232.367C236.139 211.563 239.193 214.613 239.193 218.385V327.578C239.193 331.35 236.139 334.404 232.367 334.404ZM61.756 320.756H225.545V225.211H61.756V320.756Z" fill="#1A428A"/>
<path d="M95.5855 272.357L85.5066 257.08C84.9208 256.202 84.3897 255.323 83.9094 254.44C83.5072 253.722 83.1401 252.964 82.8082 252.164C82.4724 251.363 82.3083 250.684 82.3083 250.125C82.3083 249.403 82.5153 248.669 82.9253 247.923C83.3393 247.181 84.0656 246.498 85.1044 245.884C86.3032 245.244 87.3966 244.928 88.3846 244.928C89.1304 244.928 89.8177 245.096 90.4425 245.428C91.0713 245.76 91.6414 246.201 92.1647 246.747C92.684 247.29 93.1683 247.911 93.6212 248.606C94.0742 249.297 94.5155 249.993 94.9411 250.684L102.376 262.922H103.579L111.014 250.684C111.44 249.993 111.881 249.301 112.334 248.606C112.787 247.911 113.275 247.29 113.791 246.747C114.31 246.201 114.88 245.76 115.493 245.428C116.103 245.096 116.798 244.928 117.571 244.928C118.051 244.928 118.563 245.021 119.109 245.205C119.656 245.392 120.238 245.646 120.851 245.966C121.968 246.58 122.741 247.24 123.171 247.946C123.596 248.653 123.807 249.352 123.807 250.043C123.807 250.629 123.635 251.324 123.288 252.125C122.944 252.925 122.554 253.695 122.128 254.44C121.648 255.323 121.089 256.202 120.449 257.08L110.452 272.357V273.075L121.57 290.593C122.132 291.472 122.616 292.343 123.03 293.21C123.444 294.077 123.647 294.936 123.647 295.791C123.647 296.509 123.456 297.224 123.069 297.931C122.683 298.638 121.968 299.309 120.929 299.95C119.73 300.59 118.637 300.91 117.649 300.91C116.958 300.91 116.329 300.77 115.771 300.489C115.208 300.207 114.689 299.844 114.209 299.387C113.732 298.934 113.283 298.415 112.869 297.829C112.459 297.244 112.053 296.642 111.651 296.029L103.575 282.912H102.376L94.2968 296.029C93.8985 296.642 93.4924 297.244 93.0784 297.829C92.6645 298.415 92.2232 298.934 91.7585 299.387C91.2938 299.844 90.7784 300.207 90.22 300.489C89.6615 300.77 89.0445 300.91 88.3807 300.91C87.3693 300.91 86.2993 300.586 85.1825 299.95C84.089 299.309 83.3354 298.638 82.9214 297.931C82.5114 297.224 82.3044 296.509 82.3044 295.791C82.3044 294.936 82.5114 294.077 82.9214 293.21C83.3354 292.343 83.8235 291.472 84.3819 290.593L95.5777 273.075V272.357H95.5855Z" fill="#1A428A"/>
<path d="M131.574 254.042C131.574 252.898 131.609 251.777 131.676 250.684C131.742 249.59 131.961 248.618 132.336 247.763C132.707 246.911 133.3 246.224 134.112 245.705C134.929 245.185 136.081 244.924 137.572 244.924H150.767C154.048 245.084 156.98 245.779 159.566 247.005C160.659 247.536 161.733 248.196 162.783 248.985C163.838 249.77 164.775 250.742 165.603 251.902C166.427 253.062 167.094 254.429 167.602 256.002C168.11 257.576 168.36 259.4 168.36 261.481C168.36 261.907 168.321 262.473 168.243 263.18C168.161 263.887 167.989 264.66 167.723 265.499C167.454 266.339 167.094 267.21 166.641 268.116C166.188 269.022 165.587 269.889 164.841 270.717C164.095 271.541 163.182 272.302 162.104 272.993C161.026 273.688 159.749 274.247 158.285 274.672C159.218 275.047 160.163 275.532 161.124 276.133C162.084 276.73 162.951 277.5 163.72 278.433C164.494 279.366 165.126 280.483 165.622 281.791C166.114 283.099 166.36 284.619 166.36 286.348V292.026C166.36 292.35 166.442 292.616 166.602 292.827C166.763 293.042 166.923 293.229 167.083 293.389C167.723 294.03 168.094 294.58 168.2 295.049C168.305 295.517 168.36 295.896 168.36 296.189C168.36 297.122 168.176 297.907 167.801 298.548C167.426 299.188 166.942 299.708 166.345 300.106C165.743 300.504 165.064 300.793 164.302 300.965C163.545 301.141 162.764 301.227 161.963 301.227C161.085 301.227 160.19 301.086 159.284 300.805C158.378 300.528 157.554 300.122 156.809 299.587C156.063 299.052 155.454 298.388 154.989 297.587C154.524 296.787 154.29 295.869 154.29 294.826V286.348C154.29 285.177 154.208 284.099 154.048 283.111C153.888 282.127 153.583 281.272 153.13 280.553C152.673 279.831 152.048 279.273 151.248 278.874C150.447 278.476 149.409 278.273 148.132 278.273H143.649V291.628C143.649 292.803 143.617 293.948 143.547 295.068C143.481 296.189 143.262 297.181 142.887 298.048C142.516 298.915 141.915 299.606 141.087 300.125C140.263 300.649 139.088 300.906 137.572 300.906C136.077 300.906 134.925 300.649 134.112 300.125C133.3 299.606 132.707 298.915 132.332 298.048C131.961 297.181 131.738 296.189 131.672 295.068C131.605 293.948 131.57 292.803 131.57 291.628V254.042H131.574ZM149.088 269.319C150.42 269.264 151.619 268.944 152.689 268.358C153.142 268.12 153.579 267.811 154.005 267.44C154.43 267.065 154.821 266.601 155.165 266.042C155.512 265.48 155.785 264.828 155.989 264.082C156.188 263.336 156.285 262.469 156.285 261.485C156.285 260.603 156.188 259.822 155.989 259.146C155.785 258.466 155.528 257.873 155.208 257.365C154.887 256.858 154.52 256.432 154.106 256.084C153.692 255.737 153.275 255.46 152.849 255.245C151.834 254.737 150.685 254.444 149.409 254.366H143.649V269.322H149.088V269.319Z" fill="#1A428A"/>
<path d="M189.396 278.835V291.792C189.396 292.936 189.361 294.057 189.295 295.15C189.228 296.244 189.002 297.216 188.615 298.071C188.229 298.923 187.623 299.61 186.795 300.129C185.971 300.649 184.784 300.91 183.238 300.91C181.742 300.91 180.59 300.649 179.778 300.129C178.966 299.61 178.372 298.923 177.997 298.071C177.626 297.216 177.404 296.244 177.337 295.15C177.271 294.057 177.24 292.936 177.24 291.792V254.042C177.24 252.898 177.271 251.777 177.337 250.684C177.404 249.59 177.626 248.618 177.997 247.763C178.372 246.911 178.966 246.224 179.778 245.705C180.594 245.185 181.742 244.924 183.238 244.924H196.433C199.741 245.084 202.697 245.779 205.309 247.005C206.43 247.536 207.515 248.204 208.57 249.005C209.62 249.805 210.569 250.785 211.409 251.945C212.248 253.105 212.92 254.476 213.428 256.061C213.935 257.65 214.185 259.482 214.185 261.563C214.185 264.414 213.74 266.913 212.846 269.061C211.956 271.205 210.663 273.005 208.968 274.458C207.277 275.91 205.212 277.004 202.771 277.738C200.33 278.472 197.577 278.839 194.512 278.839H189.396V278.835ZM194.832 269.319C196.167 269.237 197.366 268.92 198.432 268.358C198.885 268.12 199.323 267.811 199.752 267.44C200.178 267.065 200.565 266.608 200.912 266.058C201.256 265.511 201.529 264.867 201.728 264.121C201.931 263.371 202.029 262.52 202.029 261.559C202.029 260.653 201.931 259.861 201.728 259.181C201.529 258.498 201.267 257.916 200.951 257.42C200.631 256.928 200.272 256.51 199.869 256.163C199.471 255.815 199.057 255.522 198.632 255.28C197.616 254.776 196.484 254.468 195.23 254.362H189.392V269.319H194.832Z" fill="#1A428A"/>
<path d="M307.438 88.7185C303.669 88.7185 300.615 85.6686 300.615 81.8964V54.5963C300.615 50.824 303.669 47.7742 307.438 47.7742C311.206 47.7742 314.264 50.824 314.264 54.5963V81.8964C314.264 85.6686 311.206 88.7185 307.438 88.7185Z" fill="white"/>
<path d="M321.089 75.0705H293.789C290.021 75.0705 286.963 72.0167 286.963 68.2445C286.963 64.4722 290.021 61.4224 293.789 61.4224H321.089C324.858 61.4224 327.912 64.4722 327.912 68.2445C327.912 72.0167 324.858 75.0705 321.089 75.0705Z" fill="white"/>
<path d="M123.174 368.526H75.4041C71.6358 368.526 68.5781 365.472 68.5781 361.7C68.5781 357.928 71.6358 354.878 75.4041 354.878H123.174C126.943 354.878 130 357.928 130 361.7C130 365.472 126.943 368.526 123.174 368.526Z" fill="white"/>
</g>
<defs>
<clipPath id="clip0_1_2109">
<rect width="389" height="389" fill="white"/>
</clipPath>
</defs>
</svg>
