<svg width="423" height="423" viewBox="0 0 423 423" fill="none" xmlns="http://www.w3.org/2000/svg">
<g clip-path="url(#clip0_1_2128)">
<path d="M409.78 218.322C409.78 327.593 321.2 416.177 211.925 416.177C102.655 416.177 14.0713 327.593 14.0713 218.322C14.0713 109.052 102.655 20.4683 211.925 20.4683C321.2 20.4683 409.78 109.052 409.78 218.322V218.322Z" fill="#1A428A"/>
<path d="M211.926 423.001C99.0673 423.001 7.24731 331.181 7.24731 218.322C7.24731 105.464 99.0673 13.6443 211.926 13.6443C324.784 13.6443 416.604 105.464 416.604 218.322C416.604 331.181 324.784 423.001 211.926 423.001ZM211.926 27.2924C106.59 27.2924 20.8954 112.987 20.8954 218.322C20.8954 323.662 106.59 409.357 211.926 409.357C317.265 409.357 402.96 323.662 402.96 218.322C402.96 112.987 317.265 27.2924 211.926 27.2924V27.2924Z" fill="#1A428A"/>
<path d="M409.78 204.678C409.78 313.949 321.2 402.532 211.925 402.532C102.655 402.532 14.0713 313.949 14.0713 204.678C14.0713 95.4037 102.655 6.82397 211.925 6.82397C321.2 6.82397 409.78 95.4037 409.78 204.678Z" fill="#2A8EE6"/>
<path d="M211.926 409.356C99.0673 409.356 7.24731 317.536 7.24731 204.678C7.24731 91.82 99.0673 0 211.926 0C324.784 0 416.604 91.82 416.604 204.678C416.604 317.536 324.784 409.356 211.926 409.356ZM211.926 13.6442C106.59 13.6442 20.8954 99.3389 20.8954 204.678C20.8954 310.014 106.59 395.708 211.926 395.708C317.265 395.708 402.96 310.014 402.96 204.678C402.96 99.3389 317.265 13.6442 211.926 13.6442V13.6442Z" fill="#1A428A"/>
<path d="M389.315 204.678C389.315 302.647 309.894 382.064 211.926 382.064C113.957 382.064 34.5396 302.647 34.5396 204.678C34.5396 106.71 113.957 27.2922 211.926 27.2922C309.894 27.2922 389.315 106.71 389.315 204.678V204.678Z" fill="#D7E9FF"/>
<path d="M211.926 388.888C110.354 388.888 27.7156 306.25 27.7156 204.678C27.7156 103.106 110.354 20.4683 211.926 20.4683C313.498 20.4683 396.136 103.106 396.136 204.678C396.136 306.25 313.498 388.888 211.926 388.888V388.888ZM211.926 34.1124C117.876 34.1124 41.3637 110.625 41.3637 204.678C41.3637 298.727 117.876 375.24 211.926 375.24C305.979 375.24 382.491 298.727 382.491 204.678C382.491 110.625 305.979 34.1124 211.926 34.1124V34.1124Z" fill="#1A428A"/>
<path d="M172.262 363.361C171.692 363.361 171.114 363.29 170.536 363.142C145.633 356.654 122.264 344.122 102.967 326.906C100.157 324.4 99.9107 320.082 102.421 317.271C104.919 314.464 109.233 314.214 112.048 316.724C129.74 332.508 151.157 343.993 173.976 349.939C177.626 350.892 179.808 354.616 178.86 358.262C178.059 361.331 175.291 363.361 172.262 363.361Z" fill="white"/>
<path d="M304.944 239.681C301.009 236.354 296.828 233.7 292.506 231.666C281.282 226.392 273.436 215.902 273.014 203.507L272.928 201.016C272.557 190.011 277.632 179.451 286.674 173.17C296.488 166.35 304.253 156.16 308.04 143.223C314.161 122.341 306.732 99.1476 289.609 85.722C261.595 63.7586 222.259 73.4832 206.893 103.5C202.744 111.609 200.819 120.264 200.889 128.782C200.983 139.986 195.576 150.507 186.269 156.746L184.325 158.05C174.881 164.378 162.928 164.847 152.609 160.068C148.155 158.007 143.244 156.492 137.853 155.684C117.556 152.639 96.6469 161.313 84.9391 178.171C64.3537 207.809 77.1586 248.304 110.814 260.82C134.257 269.538 161.487 260.559 175.178 239.622C181.647 229.733 184.493 218.728 184.177 207.996C183.864 197.413 189.388 187.509 198.184 181.614L202.849 178.487C211.078 172.967 221.658 172.354 230.469 176.882L230.75 177.023C239.577 181.528 245.265 190.464 245.605 200.372L246.05 213.509C246.374 223.069 242.591 232.544 235.119 238.521C227.213 244.845 220.908 253.508 217.368 264.185C209.747 287.191 218.839 313.195 239.077 326.527C269.645 346.667 311.015 332.117 321.758 296.26C327.833 275.967 321.126 253.36 304.944 239.681Z" fill="#6BC4E8"/>
<path d="M269.219 342.514C257.367 342.514 245.655 339.035 235.326 332.227C212.648 317.29 202.373 287.773 210.895 262.042C214.686 250.584 221.588 240.61 230.864 233.192C236.368 228.789 239.491 221.52 239.23 213.747L238.785 200.606C238.531 193.185 234.268 186.482 227.651 183.105C220.741 179.553 212.812 180.017 206.644 184.155L201.982 187.29C194.971 191.987 190.763 199.845 190.997 207.801C191.372 220.38 187.874 232.681 180.89 243.354C165.403 267.035 134.925 277.041 108.433 267.219C90.3812 260.504 76.7449 246.192 71.0178 227.938C65.2986 209.687 68.328 190.132 79.3371 174.282C92.4347 155.419 115.796 145.487 138.864 148.938C144.673 149.813 150.263 151.468 155.475 153.877C163.935 157.8 173.293 157.242 180.526 152.385L182.471 151.085C189.814 146.159 194.147 137.851 194.065 128.845C193.995 119.015 196.326 109.185 200.815 100.401C209.212 84.0122 224.34 72.3434 242.337 68.3927C260.307 64.4302 279.085 68.7987 293.822 80.3542C313.158 95.5092 321.505 121.548 314.595 145.147C310.519 159.053 302.211 170.687 290.578 178.772C283.496 183.691 279.452 191.92 279.748 200.786L279.838 203.273C280.158 212.615 286.119 221.129 295.415 225.49C300.357 227.817 305.05 230.842 309.352 234.473C327.509 249.819 335.125 275.444 328.293 298.224C322.582 317.29 308.727 332.067 290.277 338.778C283.391 341.276 276.282 342.514 269.219 342.514V342.514ZM218.024 167.052C223.345 167.052 228.681 168.298 233.588 170.816C244.886 176.582 252.003 187.766 252.417 200.146L252.862 213.279C253.276 225.338 248.24 236.764 239.386 243.854C232.179 249.608 226.811 257.385 223.848 266.333C217.231 286.309 225.215 309.225 242.829 320.835C255.681 329.295 271.285 331.161 285.616 325.949C299.967 320.734 310.753 309.202 315.219 294.3C320.513 276.647 314.614 256.792 300.541 244.892C297.156 242.031 293.471 239.661 289.602 237.842C275.657 231.279 266.69 218.213 266.202 203.741L266.116 201.258C265.655 187.731 271.886 175.141 282.786 167.564C291.831 161.275 298.304 152.194 301.493 141.306C306.849 123.016 300.38 102.837 285.397 91.09C273.889 82.0603 259.284 78.6365 245.261 81.7167C231.262 84.793 219.488 93.8696 212.96 106.616C209.466 113.452 207.647 121.092 207.709 128.728C207.827 142.333 201.233 154.931 190.064 162.414L188.123 163.714C176.9 171.245 162.557 172.205 149.74 166.26C145.711 164.402 141.37 163.109 136.842 162.434C118.872 159.736 100.695 167.439 90.5413 182.063C81.9566 194.423 79.583 209.66 84.0374 223.858C88.4878 238.049 99.1143 249.198 113.188 254.426C133.773 262.081 157.439 254.281 169.467 235.886C174.917 227.555 177.645 217.983 177.356 208.203C176.982 195.602 183.505 183.246 194.381 175.949L199.047 172.826C204.758 168.993 211.379 167.052 218.024 167.052V167.052Z" fill="#1A428A"/>
<path d="M136.877 115.985C133.109 115.985 130.057 112.932 130.057 109.161V81.8729C130.057 78.1017 133.109 75.0488 136.877 75.0488C140.644 75.0488 143.701 78.1017 143.701 81.8729V109.161C143.701 112.932 140.644 115.985 136.877 115.985Z" fill="white"/>
<path d="M150.525 102.337H123.232C119.465 102.337 116.408 99.2883 116.408 95.5172C116.408 91.746 119.465 88.6931 123.232 88.6931H150.525C154.292 88.6931 157.345 91.746 157.345 95.5172C157.345 99.2883 154.292 102.337 150.525 102.337Z" fill="white"/>
</g>
<defs>
<clipPath id="clip0_1_2128">
<rect width="423" height="423" fill="white"/>
</clipPath>
</defs>
</svg>
