<svg width="416" height="416" viewBox="0 0 416 416" fill="none" xmlns="http://www.w3.org/2000/svg">
<path d="M392.481 334.124H283.312V265.895H324.247C361.93 265.895 392.481 296.441 392.481 334.124Z" fill="#1A428A"/>
<path d="M392.481 340.944H283.312C279.54 340.944 276.487 337.895 276.487 334.124V265.894C276.487 262.123 279.54 259.07 283.312 259.07H324.247C365.635 259.07 399.301 292.74 399.301 334.124C399.301 337.895 396.248 340.944 392.481 340.944V340.944ZM290.132 327.299H385.277C381.873 296.636 355.801 272.715 324.247 272.715H290.132V327.299Z" fill="#1A428A"/>
<path d="M24.0349 334.124H133.204V265.895H92.2644C54.5812 265.895 24.0349 296.441 24.0349 334.124Z" fill="#1A428A"/>
<path d="M133.204 340.944H24.035C20.2674 340.944 17.2104 337.895 17.2104 334.124C17.2104 292.74 50.8801 259.07 92.2645 259.07H133.204C136.971 259.07 140.024 262.123 140.024 265.894V334.124C140.024 337.895 136.971 340.944 133.204 340.944ZM31.2343 327.299H126.379V272.715H92.2645C60.7109 272.715 34.6387 296.636 31.2343 327.299Z" fill="#1A428A"/>
<path d="M246.105 409.178H170.41C149.863 409.178 133.204 392.519 133.204 371.971V129.799C133.204 125.668 208.258 6.61768 208.258 6.61768C208.258 6.61768 283.312 125.668 283.312 129.799V371.971C283.312 392.519 266.653 409.178 246.105 409.178Z" fill="#6BC4E8"/>
<path d="M246.105 415.999H170.411C146.134 415.999 126.383 396.251 126.383 371.971V129.798C126.383 127.366 126.383 123.696 202.487 2.97889C204.986 -0.991662 211.529 -0.991662 214.028 2.97889C290.132 123.696 290.132 127.366 290.132 129.798V371.971C290.132 396.251 270.381 415.999 246.105 415.999V415.999ZM140.024 131.005V371.971C140.024 388.72 153.654 402.353 170.411 402.353H246.101C262.858 402.353 276.487 388.72 276.487 371.971V131.005C272.103 121.768 234.833 61.7095 208.254 19.4233C181.678 61.7095 144.409 121.768 140.024 131.005Z" fill="#1A428A"/>
<path d="M392.481 320.479H283.312V252.245H324.247C361.93 252.245 392.481 282.796 392.481 320.479Z" fill="#6BC4E8"/>
<path d="M392.481 327.299H283.312C279.54 327.299 276.487 324.25 276.487 320.479V252.245C276.487 248.474 279.54 245.425 283.312 245.425H324.247C365.635 245.425 399.301 279.091 399.301 320.479C399.301 324.25 396.248 327.299 392.481 327.299V327.299ZM290.132 313.654H385.277C381.873 282.991 355.801 259.07 324.247 259.07H290.132V313.654Z" fill="#1A428A"/>
<path d="M24.0349 320.479H133.204V252.245H92.2644C54.5812 252.245 24.0349 282.796 24.0349 320.479Z" fill="#6BC4E8"/>
<path d="M133.204 327.299H24.035C20.2674 327.299 17.2104 324.25 17.2104 320.479C17.2104 279.091 50.8801 245.425 92.2645 245.425H133.204C136.971 245.425 140.024 248.474 140.024 252.245V320.479C140.024 324.25 136.971 327.299 133.204 327.299ZM31.2343 313.654H126.379V259.07H92.2645C60.7109 259.07 34.6387 282.991 31.2343 313.654Z" fill="#1A428A"/>
<path d="M110.477 344.494C110.477 333.191 101.314 324.024 90.0077 324.024C78.7051 324.024 69.542 333.191 69.542 344.494C69.542 355.8 78.7051 378.608 90.0077 378.608C101.314 378.608 110.477 355.8 110.477 344.494V344.494Z" fill="#2A8EE6"/>
<path d="M90.0078 385.433C73.3447 385.433 62.7175 358.552 62.7175 344.493C62.7175 329.443 74.9611 317.199 90.0078 317.199C105.058 317.199 117.302 329.443 117.302 344.493C117.302 358.552 106.675 385.433 90.0078 385.433ZM90.0078 330.848C82.4844 330.848 76.3627 336.97 76.3627 344.493C76.3627 354.691 84.9089 371.784 90.0078 371.784C95.1105 371.784 103.657 354.691 103.657 344.493C103.657 336.97 97.535 330.848 90.0078 330.848Z" fill="#1A428A"/>
<path d="M349.284 344.494C349.284 333.191 340.121 324.024 328.815 324.024C317.512 324.024 308.349 333.191 308.349 344.494C308.349 355.8 317.512 378.608 328.815 378.608C340.121 378.608 349.284 355.8 349.284 344.494V344.494Z" fill="#2A8EE6"/>
<path d="M328.815 385.433C312.152 385.433 301.525 358.552 301.525 344.493C301.525 329.443 313.768 317.199 328.815 317.199C343.866 317.199 356.109 329.443 356.109 344.493C356.109 358.552 345.482 385.433 328.815 385.433V385.433ZM328.815 330.848C321.292 330.848 315.17 336.97 315.17 344.493C315.17 354.691 323.716 371.784 328.815 371.784C333.918 371.784 342.464 354.691 342.464 344.493C342.464 336.97 336.342 330.848 328.815 330.848V330.848Z" fill="#1A428A"/>
<path d="M235.548 340.945C235.548 356.019 223.328 368.239 208.258 368.239C193.184 368.239 180.964 356.019 180.964 340.945C180.964 325.874 193.184 313.654 208.258 313.654C223.328 313.654 235.548 325.874 235.548 340.945Z" fill="#D7E9FF"/>
<path d="M208.258 375.063C189.447 375.063 174.143 359.755 174.143 340.944C174.143 322.138 189.447 306.83 208.258 306.83C227.064 306.83 242.372 322.138 242.372 340.944C242.372 359.755 227.064 375.063 208.258 375.063V375.063ZM208.258 320.479C196.971 320.479 187.788 329.657 187.788 340.944C187.788 352.231 196.971 361.414 208.258 361.414C219.545 361.414 228.727 352.231 228.727 340.944C228.727 329.657 219.545 320.479 208.258 320.479V320.479Z" fill="#1A428A"/>
<path d="M276.487 197.661C276.487 235.344 245.941 265.894 208.258 265.894C170.574 265.894 140.024 235.344 140.024 197.661C140.024 159.978 170.574 129.431 208.258 129.431C245.941 129.431 276.487 159.978 276.487 197.661V197.661Z" fill="#D7E9FF"/>
<path d="M208.258 272.715C166.869 272.715 133.204 239.049 133.204 197.661C133.204 156.277 166.869 122.607 208.258 122.607C249.642 122.607 283.312 156.277 283.312 197.661C283.312 239.049 249.642 272.715 208.258 272.715ZM208.258 136.256C174.397 136.256 146.849 163.8 146.849 197.661C146.849 231.526 174.397 259.07 208.258 259.07C242.115 259.07 269.663 231.526 269.663 197.661C269.663 163.8 242.115 136.256 208.258 136.256V136.256Z" fill="#1A428A"/>
<path d="M188.584 165.838C188.584 165.272 188.959 164.901 189.521 164.901H213.255C226.76 164.901 233.139 171.648 233.139 181.877C233.139 189.099 229.762 193.222 225.729 195.385V195.568C229.668 197.076 234.267 202.139 234.267 209.92C234.267 222.589 226.295 228.684 212.314 228.684H189.521C188.959 228.684 188.584 228.313 188.584 227.747V165.838ZM212.97 191.446C218.604 191.446 222.071 188.069 222.071 183.099C222.071 178.031 218.604 174.654 212.97 174.654H200.215C199.836 174.654 199.653 174.841 199.653 175.216V190.887C199.653 191.262 199.836 191.446 200.215 191.446H212.97ZM200.215 218.931H213.536C219.728 218.931 223.195 215.367 223.195 210.014C223.195 204.767 219.728 201.198 213.536 201.198H200.215C199.836 201.198 199.653 201.386 199.653 201.768V218.365C199.653 218.744 199.836 218.931 200.215 218.931Z" fill="#1A428A"/>
<path d="M211.67 173.783C207.899 173.783 204.845 170.73 204.845 166.959V160.134C204.845 156.363 207.899 153.313 211.67 153.313C215.438 153.313 218.491 156.363 218.491 160.134V166.959C218.491 170.73 215.438 173.783 211.67 173.783Z" fill="#1A428A"/>
<path d="M211.67 242.013C207.899 242.013 204.845 238.96 204.845 235.188V228.367C204.845 224.596 207.899 221.543 211.67 221.543C215.438 221.543 218.491 224.596 218.491 228.367V235.188C218.491 238.96 215.438 242.013 211.67 242.013Z" fill="#1A428A"/>
<path d="M337.896 224.955C334.129 224.955 331.072 221.902 331.072 218.131V190.84C331.072 187.069 334.129 184.016 337.896 184.016C341.664 184.016 344.717 187.069 344.717 190.84V218.131C344.717 221.902 341.664 224.955 337.896 224.955Z" fill="#1A428A"/>
<path d="M351.541 211.31H324.247C320.48 211.31 317.427 208.257 317.427 204.486C317.427 200.714 320.48 197.661 324.247 197.661H351.541C355.309 197.661 358.366 200.714 358.366 204.486C358.366 208.257 355.309 211.31 351.541 211.31V211.31Z" fill="#1A428A"/>
<path d="M78.6192 115.786C74.8517 115.786 71.7947 112.733 71.7947 108.962V81.6717C71.7947 77.9002 74.8517 74.8472 78.6192 74.8472C82.3867 74.8472 85.4398 77.9002 85.4398 81.6717V108.962C85.4398 112.733 82.3867 115.786 78.6192 115.786Z" fill="#1A428A"/>
<path d="M92.2644 102.141H64.9742C61.2027 102.141 58.1497 99.0881 58.1497 95.3167C58.1497 91.5453 61.2027 88.4922 64.9742 88.4922H92.2644C96.032 88.4922 99.0889 91.5453 99.0889 95.3167C99.0889 99.0881 96.032 102.141 92.2644 102.141Z" fill="#1A428A"/>
<path d="M167.311 115.786C166.073 115.786 164.828 115.455 163.703 114.748C160.506 112.753 159.537 108.544 161.532 105.343L195.647 50.7584C197.646 47.5609 201.859 46.5887 205.048 48.5955C208.25 50.5866 209.218 54.7992 207.223 57.9968L173.104 112.581C171.808 114.654 169.587 115.786 167.311 115.786Z" fill="white"/>
</svg>
