<svg width="389" height="389" viewBox="0 0 389 389" fill="none" xmlns="http://www.w3.org/2000/svg">
<g clip-path="url(#clip0_1_2169)">
<path d="M280.485 245.998L232.23 294.253L101.935 163.961C75.2828 137.309 75.2828 94.096 101.935 67.448L280.485 245.998Z" fill="#D7E9FF"/>
<path d="M232.231 301.079C230.485 301.079 228.736 300.415 227.404 299.08L97.1082 168.788C67.8399 139.519 67.8399 91.8934 97.1082 62.6212C99.7754 59.9541 104.094 59.9541 106.761 62.6212L285.312 241.172C287.975 243.835 287.975 248.158 285.312 250.821L237.053 299.08C235.722 300.415 233.976 301.079 232.231 301.079V301.079ZM102.204 77.3628C82.9251 101.457 84.4442 136.817 106.761 159.138L232.231 284.607L270.836 245.998L102.204 77.3628Z" fill="#1A428A"/>
<path d="M136.541 245.998L184.8 294.253L315.092 163.961C341.744 137.309 341.744 94.096 315.092 67.448L136.541 245.998Z" fill="#6BC4E8"/>
<path d="M184.8 301.079C183.054 301.079 181.309 300.415 179.973 299.08L131.719 250.825C129.051 248.158 129.051 243.839 131.719 241.172L310.269 62.6212C312.932 59.9541 317.251 59.9541 319.918 62.6212C349.187 91.8895 349.187 139.515 319.918 168.788L189.627 299.08C188.291 300.415 186.545 301.079 184.8 301.079V301.079ZM146.191 245.998L184.8 284.607L310.269 159.138C332.582 136.817 334.105 101.457 314.826 77.3628L146.191 245.998Z" fill="#1A428A"/>
<path d="M214.853 221.799C214.853 227.453 210.272 232.034 204.618 232.034C198.963 232.034 194.379 227.453 194.379 221.799C194.379 216.144 198.963 211.56 204.618 211.56C210.272 211.56 214.853 216.144 214.853 221.799Z" fill="#6BC4E8"/>
<path d="M204.618 238.86C195.211 238.86 187.557 231.21 187.557 221.799C187.557 212.388 195.211 204.738 204.618 204.738C214.025 204.738 221.679 212.388 221.679 221.799C221.679 231.21 214.025 238.86 204.618 238.86ZM204.618 218.386C202.732 218.386 201.205 219.916 201.205 221.799C201.205 223.677 202.732 225.212 204.618 225.212C206.5 225.212 208.031 223.677 208.031 221.799C208.031 219.916 206.5 218.386 204.618 218.386Z" fill="#1A428A"/>
<path d="M112.486 245.686C74.7948 245.686 44.2378 276.239 44.2378 313.931C44.2378 351.622 74.7948 382.175 112.486 382.175C150.174 382.175 180.731 351.622 180.731 313.931C180.731 276.239 150.174 245.686 112.486 245.686V245.686ZM112.486 354.879C89.8722 354.879 71.538 336.545 71.538 313.931C71.538 291.316 89.8722 272.982 112.486 272.982C135.1 272.982 153.435 291.316 153.435 313.931C153.435 336.545 135.1 354.879 112.486 354.879Z" fill="#6BC4E8"/>
<path d="M112.486 389.001C71.0926 389.001 37.4155 355.324 37.4155 313.93C37.4155 272.537 71.0926 238.86 112.486 238.86C153.88 238.86 187.557 272.537 187.557 313.93C187.557 355.324 153.88 389.001 112.486 389.001ZM112.486 252.508C78.6177 252.508 51.0637 280.058 51.0637 313.93C51.0637 347.799 78.6177 375.349 112.486 375.349C146.351 375.349 173.905 347.799 173.905 313.93C173.905 280.058 146.351 252.508 112.486 252.508ZM112.486 361.701C86.1427 361.701 64.7118 340.27 64.7118 313.93C64.7118 287.591 86.1427 266.156 112.486 266.156C138.826 266.156 160.257 287.591 160.257 313.93C160.257 340.27 138.826 361.701 112.486 361.701ZM112.486 279.808C93.6716 279.808 78.3638 295.116 78.3638 313.93C78.3638 332.745 93.6716 348.053 112.486 348.053C131.301 348.053 146.608 332.745 146.608 313.93C146.608 295.116 131.301 279.808 112.486 279.808Z" fill="#1A428A"/>
<path d="M303.572 245.686C265.884 245.686 235.327 276.239 235.327 313.931C235.327 351.622 265.884 382.175 303.572 382.175C341.263 382.175 371.82 351.622 371.82 313.931C371.82 276.239 341.263 245.686 303.572 245.686V245.686ZM303.572 354.879C280.958 354.879 262.627 336.545 262.627 313.931C262.627 291.316 280.958 272.982 303.572 272.982C326.19 272.982 344.52 291.316 344.52 313.931C344.52 336.545 326.19 354.879 303.572 354.879Z" fill="#6BC4E8"/>
<path d="M303.572 389.001C262.178 389.001 228.501 355.324 228.501 313.93C228.501 272.537 262.178 238.86 303.572 238.86C344.969 238.86 378.642 272.537 378.642 313.93C378.642 355.324 344.969 389.001 303.572 389.001ZM303.572 252.508C269.707 252.508 242.153 280.058 242.153 313.93C242.153 347.799 269.707 375.349 303.572 375.349C337.44 375.349 364.994 347.799 364.994 313.93C364.994 280.058 337.44 252.508 303.572 252.508V252.508ZM303.572 361.701C277.232 361.701 255.801 340.27 255.801 313.93C255.801 287.591 277.232 266.156 303.572 266.156C329.915 266.156 351.346 287.591 351.346 313.93C351.346 340.27 329.915 361.701 303.572 361.701ZM303.572 279.808C284.761 279.808 269.45 295.116 269.45 313.93C269.45 332.745 284.761 348.053 303.572 348.053C322.386 348.053 337.694 332.745 337.694 313.93C337.694 295.116 322.386 279.808 303.572 279.808Z" fill="#1A428A"/>
<path d="M235.327 75.0705C235.327 112.762 204.774 143.315 167.083 143.315C129.391 143.315 98.8381 112.762 98.8381 75.0705C98.8381 37.379 129.391 6.82593 167.083 6.82593C204.774 6.82593 235.327 37.379 235.327 75.0705Z" fill="#D7E9FF"/>
<path d="M167.083 150.141C125.689 150.141 92.0122 116.464 92.0122 75.0706C92.0122 33.6771 125.689 0 167.083 0C208.476 0 242.153 33.6771 242.153 75.0706C242.153 116.464 208.476 150.141 167.083 150.141ZM167.083 13.6481C133.214 13.6481 105.66 41.1982 105.66 75.0706C105.66 108.939 133.214 136.493 167.083 136.493C200.947 136.493 228.501 108.939 228.501 75.0706C228.501 41.1982 200.947 13.6481 167.083 13.6481Z" fill="#1A428A"/>
<path d="M119.308 81.8965C115.54 81.8965 112.486 78.8428 112.486 75.0705C112.486 60.2665 118.309 46.4114 128.891 36.0552C131.582 33.4154 135.901 33.4583 138.541 36.1606C141.181 38.8551 141.134 43.1702 138.439 45.81C130.504 53.5771 126.134 63.9685 126.134 75.0705C126.134 78.8428 123.081 81.8965 119.308 81.8965Z" fill="white"/>
<path d="M147.405 43.2404C147.405 42.6742 147.78 42.2993 148.342 42.2993H172.081C185.589 42.2993 191.97 49.0511 191.97 59.2824C191.97 66.5067 188.592 70.6304 184.558 72.7899V72.9774C188.498 74.4847 193.098 79.5495 193.098 87.3323C193.098 100 185.124 106.1 171.14 106.1H148.342C147.78 106.1 147.405 105.725 147.405 105.159V43.2404ZM171.796 68.8497C177.431 68.8497 180.899 65.4719 180.899 60.5007C180.899 55.4359 177.431 52.0541 171.796 52.0541H159.038C158.66 52.0541 158.476 52.2416 158.476 52.6164V68.2913C158.476 68.6662 158.66 68.8497 159.038 68.8497H171.796ZM159.038 96.3451H172.362C178.556 96.3451 182.024 92.7798 182.024 87.426C182.024 82.1737 178.556 78.6084 172.362 78.6084H159.038C158.66 78.6084 158.476 78.7959 158.476 79.1747V95.775C158.476 96.1577 158.66 96.3451 159.038 96.3451Z" fill="#1A428A"/>
<path d="M163.67 51.1834C159.901 51.1834 156.844 48.1335 156.844 44.3613V37.5352C156.844 33.763 159.901 30.7092 163.67 30.7092C167.438 30.7092 170.496 33.763 170.496 37.5352V44.3613C170.496 48.1335 167.438 51.1834 163.67 51.1834Z" fill="#1A428A"/>
<path d="M163.67 119.428C159.901 119.428 156.844 116.378 156.844 112.606V105.78C156.844 102.008 159.901 98.9578 163.67 98.9578C167.438 98.9578 170.496 102.008 170.496 105.78V112.606C170.496 116.378 167.438 119.428 163.67 119.428Z" fill="#1A428A"/>
<path d="M30.5897 197.911C26.8213 197.911 23.7676 194.862 23.7676 191.089V163.789C23.7676 160.017 26.8213 156.963 30.5897 156.963C34.3581 156.963 37.4157 160.017 37.4157 163.789V191.089C37.4157 194.862 34.3581 197.911 30.5897 197.911Z" fill="#1A428A"/>
<path d="M44.2378 184.263H16.9415C13.1731 184.263 10.1155 181.21 10.1155 177.437C10.1155 173.665 13.1731 170.615 16.9415 170.615H44.2378C48.01 170.615 51.0638 173.665 51.0638 177.437C51.0638 181.21 48.01 184.263 44.2378 184.263Z" fill="#1A428A"/>
<path d="M303.572 47.7703C299.804 47.7703 296.75 44.7205 296.75 40.9482V13.648C296.75 9.87577 299.804 6.82593 303.572 6.82593C307.34 6.82593 310.398 9.87577 310.398 13.648V40.9482C310.398 44.7205 307.34 47.7703 303.572 47.7703Z" fill="#1A428A"/>
<path d="M317.224 34.1223H289.924C286.155 34.1223 283.098 31.0724 283.098 27.3001C283.098 23.5279 286.155 20.4741 289.924 20.4741H317.224C320.992 20.4741 324.046 23.5279 324.046 27.3001C324.046 31.0724 320.992 34.1223 317.224 34.1223V34.1223Z" fill="#1A428A"/>
<path d="M358.168 225.212C354.4 225.212 351.346 222.158 351.346 218.386V191.089C351.346 187.317 354.4 184.263 358.168 184.263C361.937 184.263 364.994 187.317 364.994 191.089V218.386C364.994 222.158 361.937 225.212 358.168 225.212Z" fill="#1A428A"/>
<path d="M371.82 211.56H344.52C340.752 211.56 337.694 208.51 337.694 204.738C337.694 200.965 340.752 197.912 344.52 197.912H371.82C375.589 197.912 378.642 200.965 378.642 204.738C378.642 208.51 375.589 211.56 371.82 211.56Z" fill="#1A428A"/>
</g>
<defs>
<clipPath id="clip0_1_2169">
<rect width="389" height="389" fill="white"/>
</clipPath>
</defs>
</svg>
