<svg width="423" height="423" viewBox="0 0 423 423" fill="none" xmlns="http://www.w3.org/2000/svg">
<g clip-path="url(#clip0_1_2193)">
<path fill-rule="evenodd" clip-rule="evenodd" d="M317.23 416.177H126.079C118.575 416.177 112.493 410.094 112.493 402.591V20.4098C112.493 12.9065 118.575 6.82422 126.079 6.82422H317.23C324.733 6.82422 330.815 12.9065 330.815 20.4098V402.591C330.815 410.094 324.733 416.177 317.23 416.177Z" fill="#1A428A"/>
<path d="M317.23 423.001H126.079C114.824 423.001 105.669 413.846 105.669 402.591V20.4097C105.669 9.15467 114.824 0 126.079 0H317.23C328.485 0 337.639 9.15467 337.639 20.4097V402.591C337.639 413.846 328.485 423.001 317.23 423.001ZM126.079 13.6442C122.35 13.6442 119.317 16.6775 119.317 20.4097V402.591C119.317 406.323 122.35 409.356 126.079 409.356H317.23C320.962 409.356 323.991 406.323 323.991 402.591V20.4097C323.991 16.6775 320.962 13.6442 317.23 13.6442H126.079Z" fill="#1A428A"/>
<path d="M296.761 416.177H105.61C98.107 416.177 92.0247 410.094 92.0247 402.591V20.4098C92.0247 12.9065 98.107 6.82422 105.61 6.82422H296.761C304.265 6.82422 310.347 12.9065 310.347 20.4098V402.591C310.347 410.094 304.265 416.177 296.761 416.177Z" fill="#6BC4E8"/>
<path d="M296.761 423.001H105.61C94.3553 423.001 85.2006 413.846 85.2006 402.591V20.4097C85.2006 9.15467 94.3553 0 105.61 0H296.761C308.016 0 317.171 9.15467 317.171 20.4097V402.591C317.171 413.846 308.016 423.001 296.761 423.001ZM105.61 13.6442C101.882 13.6442 98.8487 16.6775 98.8487 20.4097V402.591C98.8487 406.323 101.882 409.356 105.61 409.356H296.761C300.494 409.356 303.523 406.323 303.523 402.591V20.4097C303.523 16.6775 300.494 13.6442 296.761 13.6442H105.61Z" fill="#1A428A"/>
<path d="M92.0247 47.7563H310.347V347.1H92.0247V47.7563Z" fill="#2A8EE6"/>
<path d="M310.347 353.921H92.0247C88.2574 353.921 85.2006 350.872 85.2006 347.101V47.7567C85.2006 43.9855 88.2574 40.9365 92.0247 40.9365H310.347C314.118 40.9365 317.171 43.9855 317.171 47.7567V347.101C317.171 350.872 314.118 353.921 310.347 353.921ZM98.8487 340.277H303.523V54.5807H98.8487V340.277Z" fill="#1A428A"/>
<path d="M214.83 382.064C214.83 389.599 208.72 395.708 201.186 395.708C193.651 395.708 187.542 389.599 187.542 382.064C187.542 374.53 193.651 368.42 201.186 368.42C208.72 368.42 214.83 374.53 214.83 382.064V382.064Z" fill="#6BC4E8"/>
<path d="M201.186 402.532C189.9 402.532 180.718 393.35 180.718 382.064C180.718 370.778 189.9 361.596 201.186 361.596C212.472 361.596 221.654 370.778 221.654 382.064C221.654 393.35 212.472 402.532 201.186 402.532V402.532ZM201.186 375.24C197.422 375.24 194.362 378.301 194.362 382.064C194.362 385.827 197.422 388.888 201.186 388.888C204.949 388.888 208.01 385.827 208.01 382.064C208.01 378.301 204.949 375.24 201.186 375.24Z" fill="#1A428A"/>
<path d="M201.186 156.918C197.415 156.918 194.362 153.869 194.362 150.097V75.0486C194.362 71.2775 197.415 68.2246 201.186 68.2246C204.957 68.2246 208.01 71.2775 208.01 75.0486V150.097C208.01 153.869 204.957 156.918 201.186 156.918Z" fill="#1A428A"/>
<path d="M235.298 115.985C233.553 115.985 231.808 115.317 230.477 113.986L201.186 84.6952L171.899 113.986C169.232 116.649 164.915 116.649 162.248 113.986C159.586 111.32 159.586 107.002 162.248 104.336L196.365 70.2234C199.027 67.5609 203.345 67.5609 206.011 70.2234L240.123 104.336C242.786 107.002 242.786 111.32 240.123 113.986C238.792 115.317 237.043 115.985 235.298 115.985Z" fill="#1A428A"/>
<path d="M242.122 327.484H126.137C122.37 327.484 119.317 324.431 119.317 320.659C119.317 316.888 122.37 313.839 126.137 313.839H242.122C245.893 313.839 248.942 316.888 248.942 320.659C248.942 324.431 245.893 327.484 242.122 327.484Z" fill="#1A428A"/>
<path d="M276.235 307.015H126.137C122.37 307.015 119.317 303.966 119.317 300.195C119.317 296.424 122.37 293.371 126.137 293.371H276.235C280.006 293.371 283.059 296.424 283.059 300.195C283.059 303.966 280.006 307.015 276.235 307.015Z" fill="#1A428A"/>
<path d="M255.766 225.147C255.766 255.289 231.332 279.727 201.186 279.727C171.044 279.727 146.605 255.289 146.605 225.147C146.605 195.001 171.044 170.566 201.186 170.566C231.332 170.566 255.766 195.001 255.766 225.147V225.147Z" fill="#D7E9FF"/>
<path d="M201.186 286.547C167.327 286.547 139.781 259.005 139.781 225.146C139.781 191.284 167.327 163.742 201.186 163.742C235.048 163.742 262.59 191.284 262.59 225.146C262.59 259.005 235.048 286.547 201.186 286.547ZM201.186 177.386C174.854 177.386 153.429 198.814 153.429 225.146C153.429 251.478 174.854 272.903 201.186 272.903C227.518 272.903 248.942 251.478 248.942 225.146C248.942 198.814 227.518 177.386 201.186 177.386V177.386Z" fill="#1A428A"/>
<path d="M181.514 193.326C181.514 192.76 181.889 192.385 182.451 192.385H206.183C219.69 192.385 226.065 199.135 226.065 209.363C226.065 216.581 222.693 220.708 218.656 222.867V223.054C222.599 224.557 227.198 229.624 227.198 237.405C227.198 250.069 219.222 256.167 205.242 256.167H182.451C181.889 256.167 181.514 255.792 181.514 255.226V193.326ZM205.906 218.927C211.527 218.927 214.998 215.551 214.998 210.577C214.998 205.514 211.527 202.137 205.906 202.137H193.148C192.769 202.137 192.582 202.324 192.582 202.699V218.369C192.582 218.744 192.769 218.927 193.148 218.927H205.906ZM193.144 246.411H206.464C212.659 246.411 216.126 242.847 216.126 237.498C216.126 232.248 212.659 228.683 206.464 228.683H193.144C192.769 228.683 192.582 228.867 192.582 229.249V245.845C192.582 246.224 192.769 246.411 193.144 246.411Z" fill="#1A428A"/>
<path d="M197.774 269.491C194.007 269.491 190.954 266.442 190.954 262.671V255.847C190.954 252.076 194.007 249.023 197.774 249.023C201.545 249.023 204.598 252.076 204.598 255.847V262.671C204.598 266.442 201.545 269.491 197.774 269.491Z" fill="#1A428A"/>
<path d="M197.774 201.266C194.007 201.266 190.954 198.213 190.954 194.442V187.622C190.954 183.851 194.007 180.798 197.774 180.798C201.545 180.798 204.598 183.851 204.598 187.622V194.442C204.598 198.213 201.545 201.266 197.774 201.266Z" fill="#1A428A"/>
<path d="M303.523 109.161C299.752 109.161 296.703 106.108 296.703 102.337V75.0486C296.703 71.2775 299.752 68.2246 303.523 68.2246C307.294 68.2246 310.347 71.2775 310.347 75.0486V102.337C310.347 106.108 307.294 109.161 303.523 109.161Z" fill="white"/>
<path d="M317.171 95.5172H289.879C286.108 95.5172 283.059 92.4644 283.059 88.6932C283.059 84.922 286.108 81.873 289.879 81.873H317.171C320.942 81.873 323.991 84.922 323.991 88.6932C323.991 92.4644 320.942 95.5172 317.171 95.5172Z" fill="white"/>
<path d="M112.493 252.435C108.726 252.435 105.669 249.386 105.669 245.614V204.678C105.669 200.907 108.726 197.854 112.493 197.854C116.26 197.854 119.317 200.907 119.317 204.678V245.614C119.317 249.386 116.26 252.435 112.493 252.435Z" fill="white"/>
</g>
<defs>
<clipPath id="clip0_1_2193">
<rect width="423" height="423" fill="white"/>
</clipPath>
</defs>
</svg>
