<svg width="389" height="389" viewBox="0 0 389 389" fill="none" xmlns="http://www.w3.org/2000/svg">
<g clip-path="url(#clip0_1_2235)">
<path fill-rule="evenodd" clip-rule="evenodd" d="M43.9328 54.5967L194.074 6.82227L344.212 54.5967V218.418C344.212 252.321 321.492 295.3 293.489 314.392L194.074 382.176L94.6595 314.392C66.6446 295.293 43.9328 252.306 43.9328 218.418V54.5967Z" fill="#288EEA"/>
<path d="M194.074 389.002C192.731 389.002 191.388 388.608 190.228 387.815L90.8091 320.031C60.6972 299.494 37.1068 254.859 37.1068 218.421V54.5966C37.1068 51.6248 39.032 48.9928 41.8632 48.0907L192.005 0.320215C193.348 -0.105436 194.797 -0.105436 196.144 0.320215L346.282 48.0907C349.117 48.9928 351.038 51.6248 351.038 54.5966V218.421C351.038 254.867 327.448 299.502 297.336 320.031L197.917 387.815C196.757 388.608 195.418 389.002 194.074 389.002ZM50.7589 59.5872V218.421C50.7589 250.275 72.1742 290.805 98.5021 308.753L194.074 373.917L289.643 308.753C315.971 290.802 337.39 250.283 337.39 218.421V59.5872L194.074 13.9879L50.7589 59.5872Z" fill="#1A428A"/>
<path d="M78.0552 85.1184L194.074 47.7705L310.09 85.1184V213.196C310.09 239.704 292.532 273.307 270.895 288.232L194.074 341.228L117.254 288.232C95.6045 273.303 78.0552 239.692 78.0552 213.196V85.1184Z" fill="#6BC4E8"/>
<path d="M194.074 348.053C192.719 348.053 191.364 347.655 190.197 346.847L113.38 293.855C89.747 277.555 71.2292 242.125 71.2292 213.2V85.1183C71.2292 82.1544 73.1427 79.5341 75.9621 78.6203L191.981 41.2724C193.34 40.8311 194.805 40.8311 196.164 41.2724L312.183 78.6203C315.002 79.5341 316.916 82.1544 316.916 85.1183V213.2C316.916 242.125 298.398 277.548 274.768 293.855L197.948 346.847C196.781 347.655 195.426 348.053 194.074 348.053ZM84.8813 90.0933V213.2C84.8813 237.271 101.478 269.062 121.128 282.62L194.074 332.937L267.017 282.62C286.667 269.062 303.267 237.271 303.267 213.2V90.0933L194.074 54.94L84.8813 90.0933Z" fill="#1A428A"/>
<path d="M269.145 184.264C269.145 225.724 235.534 259.335 194.074 259.335C152.614 259.335 119.004 225.724 119.004 184.264C119.004 142.804 152.614 109.193 194.074 109.193C235.534 109.193 269.145 142.804 269.145 184.264Z" fill="#D7E9FF"/>
<path d="M194.074 266.157C148.916 266.157 112.178 229.422 112.178 184.264C112.178 139.102 148.916 102.367 194.074 102.367C239.228 102.367 275.967 139.102 275.967 184.264C275.967 229.422 239.228 266.157 194.074 266.157ZM194.074 116.015C156.441 116.015 125.826 146.635 125.826 184.264C125.826 221.893 156.441 252.509 194.074 252.509C231.707 252.509 262.319 221.893 262.319 184.264C262.319 146.635 231.707 116.015 194.074 116.015Z" fill="#1A428A"/>
<path d="M171.995 146.549C171.995 145.83 172.472 145.354 173.186 145.354H203.376C220.566 145.354 228.677 153.945 228.677 166.957C228.677 176.145 224.381 181.39 219.254 184.135V184.377C224.264 186.291 230.11 192.734 230.11 202.637C230.11 218.746 219.965 226.505 202.185 226.505H173.186C172.472 226.505 171.995 226.025 171.995 225.31V146.549ZM203.025 179.125C210.183 179.125 214.599 174.829 214.599 168.507C214.599 162.064 210.183 157.764 203.025 157.764H186.788C186.315 157.764 186.073 158.002 186.073 158.475V178.41C186.073 178.883 186.315 179.125 186.788 179.125H203.025ZM186.788 214.095H203.735C211.616 214.095 216.025 209.553 216.025 202.754C216.025 196.073 211.616 191.531 203.735 191.531H186.788C186.315 191.531 186.073 191.773 186.073 192.254V213.372C186.073 213.853 186.315 214.095 186.788 214.095Z" fill="#1A428A"/>
<path d="M194.074 156.964C190.306 156.964 187.248 153.914 187.248 150.142V136.49C187.248 132.717 190.306 129.667 194.074 129.667C197.843 129.667 200.896 132.717 200.896 136.49V150.142C200.896 153.914 197.843 156.964 194.074 156.964Z" fill="#1A428A"/>
<path d="M194.074 238.86C190.306 238.86 187.248 235.807 187.248 232.034V225.208C187.248 221.436 190.306 218.386 194.074 218.386C197.843 218.386 200.896 221.436 200.896 225.208V232.034C200.896 235.807 197.843 238.86 194.074 238.86Z" fill="#1A428A"/>
<path d="M275.967 307.105C272.199 307.105 269.145 304.051 269.145 300.279V272.983C269.145 269.21 272.199 266.157 275.967 266.157C279.736 266.157 282.793 269.21 282.793 272.983V300.279C282.793 304.051 279.736 307.105 275.967 307.105Z" fill="white"/>
<path d="M289.615 293.457H262.319C258.551 293.457 255.493 290.403 255.493 286.631C255.493 282.858 258.551 279.805 262.319 279.805H289.615C293.388 279.805 296.441 282.858 296.441 286.631C296.441 290.403 293.388 293.457 289.615 293.457V293.457Z" fill="white"/>
<path d="M98.5294 136.489C94.761 136.489 91.7034 133.439 91.7034 129.667V102.367C91.7034 99.4264 93.5856 96.8217 96.3699 95.8963L137.318 82.2481C140.907 81.0492 144.761 82.9861 145.952 86.5593C147.143 90.1363 145.21 94.0023 141.637 95.1894L105.355 107.287V129.667C105.355 133.439 102.298 136.489 98.5294 136.489Z" fill="white"/>
</g>
<defs>
<clipPath id="clip0_1_2235">
<rect width="389" height="389" fill="white"/>
</clipPath>
</defs>
</svg>
