<svg width="423" height="423" viewBox="0 0 423 423" fill="none" xmlns="http://www.w3.org/2000/svg">
<g clip-path="url(#clip0_1_2215)">
<path d="M380.686 197.594H363.177C359.343 178.726 351.883 161.194 341.612 145.68L354.034 133.258C359.902 127.39 359.902 117.876 354.034 112.009L333.472 91.4467C327.605 85.5791 318.091 85.5791 312.223 91.4467L299.797 103.869C284.287 93.5978 266.754 86.1335 247.887 82.3038V64.7947C247.887 56.4989 241.156 49.7686 232.861 49.7686H203.78C195.481 49.7686 188.754 56.4989 188.754 64.7947V82.3038C169.887 86.1335 152.354 93.5978 136.844 103.869L124.418 91.4467C118.55 85.5791 109.036 85.5791 103.169 91.4467L82.6107 112.005C76.7431 117.872 76.7431 127.386 82.6107 133.254L95.0329 145.68C84.7617 161.19 77.2974 178.723 73.4677 197.59H55.9587C47.6628 197.59 40.9364 204.317 40.9364 212.616V241.697C40.9364 249.992 47.6628 256.723 55.9587 256.723H73.4677C77.3013 275.59 84.7617 293.123 95.0368 308.633L82.6107 321.059C76.7431 326.927 76.7431 336.437 82.6107 342.308L103.173 362.87C109.04 368.738 118.554 368.738 124.422 362.87L136.848 350.448C152.362 360.719 169.894 368.183 188.762 372.013V389.522C188.762 397.818 195.488 404.544 203.784 404.544H232.864C241.164 404.544 247.891 397.818 247.891 389.522V372.013C266.758 368.183 284.291 360.719 299.805 350.448L312.227 362.87C318.095 368.738 327.608 368.738 333.476 362.87L354.038 342.308C359.906 336.441 359.906 326.927 354.038 321.059L341.616 308.633C351.887 293.123 359.351 275.59 363.181 256.723H380.69C388.986 256.723 395.716 249.992 395.716 241.697V212.616C395.708 204.317 388.982 197.594 380.686 197.594V197.594ZM218.322 278.893C189.75 278.893 166.584 255.731 166.584 227.158C166.584 198.582 189.75 175.42 218.322 175.42C246.895 175.42 270.061 198.586 270.061 227.158C270.061 255.731 246.899 278.893 218.322 278.893V278.893Z" fill="#2A8EE6"/>
<path d="M232.861 411.369H203.784C191.737 411.369 181.934 401.566 181.934 389.519V377.479C166.373 373.727 151.565 367.571 137.796 359.138L129.239 367.692C120.99 375.956 106.596 375.956 98.3434 367.692L77.7854 347.134C73.659 343.007 71.383 337.518 71.383 331.682C71.383 325.846 73.659 320.361 77.7893 316.238L86.3389 307.681C77.9025 293.908 71.75 279.104 67.9944 263.539H55.9587C43.9151 263.539 34.1124 253.74 34.1124 241.693V212.617C34.1124 200.573 43.9112 190.77 55.9587 190.77H67.9944C71.75 175.205 77.9025 160.402 86.3389 146.629L77.7854 138.071C73.659 133.949 71.383 128.464 71.383 122.628C71.383 116.791 73.659 111.302 77.7854 107.176L98.3473 86.6218C106.596 78.3572 120.99 78.3572 129.247 86.6218L137.796 95.1753C151.573 86.7428 166.373 80.5863 181.934 76.8347V64.795C181.934 52.7475 191.737 42.9448 203.784 42.9448H232.861C244.912 42.9448 254.711 52.7475 254.711 64.795V76.8347C270.272 80.5863 285.079 86.7428 298.848 95.1753L307.406 86.6218C315.655 78.3572 330.048 78.3572 338.301 86.6218L358.859 107.184C362.99 111.306 365.266 116.795 365.266 122.635C365.266 128.472 362.99 133.953 358.859 138.079L350.31 146.633C358.742 160.406 364.899 175.209 368.65 190.774H380.69C392.734 190.774 402.536 200.573 402.536 212.621V241.697C402.536 253.744 392.734 263.547 380.69 263.547H368.65C364.899 279.108 358.742 293.916 350.31 307.685L358.859 316.242C362.99 320.365 365.266 325.85 365.266 331.686C365.266 337.522 362.99 343.015 358.859 347.138L338.301 367.7C330.052 375.96 315.659 375.96 307.402 367.7L298.848 359.142C285.075 367.579 270.272 373.735 254.711 377.487V389.526C254.711 401.566 244.912 411.369 232.861 411.369V411.369ZM136.848 343.62C138.152 343.62 139.459 343.995 140.611 344.752C155.809 354.821 172.467 361.742 190.113 365.322C193.29 365.966 195.578 368.765 195.578 372.009V389.522C195.578 394.043 199.26 397.725 203.784 397.725H232.861C237.381 397.725 241.067 394.047 241.067 389.522V372.009C241.067 368.765 243.35 365.966 246.528 365.322C264.178 361.742 280.836 354.821 296.034 344.752C298.747 342.968 302.327 343.327 304.622 345.619L317.048 358.045C320.148 361.157 325.555 361.141 328.647 358.045L349.209 337.483C350.759 335.933 351.614 333.872 351.614 331.682C351.614 329.488 350.763 327.439 349.213 325.885L336.787 313.459C334.491 311.167 334.132 307.575 335.92 304.87C345.984 289.676 352.906 273.018 356.49 255.361C357.138 252.183 359.933 249.899 363.177 249.899H380.686C385.211 249.899 388.888 246.222 388.888 241.697V212.621C388.888 208.096 385.211 204.418 380.686 204.418H363.177C359.933 204.418 357.138 202.131 356.49 198.953C352.906 181.299 345.988 164.641 335.92 149.444C334.132 146.738 334.491 143.15 336.787 140.855L349.209 128.433C350.763 126.879 351.614 124.825 351.614 122.635C351.614 120.445 350.759 118.384 349.209 116.834L328.647 96.2723C325.555 93.1687 320.148 93.1687 317.052 96.2723L304.622 108.698C302.327 110.998 298.747 111.349 296.034 109.565C280.836 99.4969 264.178 92.5753 246.528 88.9954C243.35 88.3473 241.067 85.5482 241.067 82.3041V64.795C241.067 60.2704 237.385 56.5929 232.861 56.5929H203.784C199.26 56.5929 195.578 60.2704 195.578 64.795V82.3041C195.578 85.5482 193.29 88.3473 190.113 88.9954C172.463 92.5753 155.809 99.4969 140.611 109.565C137.898 111.349 134.314 110.998 132.019 108.698L119.596 96.2723C116.497 93.1687 111.09 93.1687 107.998 96.2723L87.4359 116.83C85.886 118.38 85.0311 120.441 85.0311 122.631C85.0311 124.825 85.8821 126.875 87.432 128.429L99.8581 140.855C102.154 143.147 102.513 146.738 100.725 149.44C90.6605 164.638 83.7389 181.296 80.1551 198.953C79.5071 202.127 76.7119 204.415 73.4677 204.415H55.9587C51.4379 204.415 47.7565 208.092 47.7565 212.617V241.693C47.7565 246.218 51.434 249.895 55.9587 249.895H73.4716C76.7158 249.895 79.511 252.183 80.1551 255.357C83.7428 273.014 90.6605 289.672 100.725 304.87C102.513 307.575 102.154 311.163 99.8581 313.455L87.4359 325.881C85.886 327.435 85.0311 329.484 85.0311 331.678C85.0311 333.868 85.886 335.93 87.4359 337.479L107.998 358.041C111.094 361.141 116.501 361.153 119.596 358.041L132.022 345.615C133.342 344.299 135.087 343.62 136.848 343.62V343.62ZM218.322 285.717C186.033 285.717 159.76 259.444 159.76 227.159C159.76 194.869 186.033 168.6 218.322 168.6C250.616 168.6 276.885 194.869 276.885 227.159C276.885 259.444 250.616 285.717 218.322 285.717V285.717ZM218.322 182.244C193.556 182.244 173.408 202.392 173.408 227.159C173.408 251.925 193.552 272.069 218.322 272.069C243.093 272.069 263.241 251.925 263.241 227.159C263.241 202.392 243.089 182.244 218.322 182.244Z" fill="#1A428A"/>
<path fill-rule="evenodd" clip-rule="evenodd" d="M416.177 107.761C416.177 151.095 381.049 186.222 337.72 186.222C294.386 186.222 259.259 151.095 259.259 107.761C259.259 64.4316 294.386 29.3003 337.72 29.3003C381.049 29.3003 416.177 64.4316 416.177 107.761V107.761Z" fill="#1A428A"/>
<path d="M337.72 193.046C290.693 193.046 252.435 154.788 252.435 107.761C252.435 60.7388 290.693 22.4805 337.72 22.4805C384.742 22.4805 423.001 60.7388 423.001 107.761C423.001 154.788 384.742 193.046 337.72 193.046ZM337.72 36.1246C298.22 36.1246 266.079 68.2577 266.079 107.761C266.079 147.265 298.22 179.398 337.72 179.398C377.216 179.398 409.356 147.265 409.356 107.761C409.356 68.2577 377.216 36.1246 337.72 36.1246Z" fill="#1A428A"/>
<path d="M416.177 97.5292C416.177 140.859 381.049 175.986 337.72 175.986C294.386 175.986 259.259 140.859 259.259 97.5292C259.259 54.1958 294.386 19.0684 337.72 19.0684C381.049 19.0684 416.177 54.1958 416.177 97.5292V97.5292Z" fill="#6BC4E8"/>
<path d="M337.72 182.81C290.693 182.81 252.435 144.552 252.435 97.529C252.435 50.5025 290.693 12.2441 337.72 12.2441C384.742 12.2441 423.001 50.5025 423.001 97.529C423.001 144.552 384.742 182.81 337.72 182.81ZM337.72 25.8922C298.22 25.8922 266.079 58.0253 266.079 97.529C266.079 137.033 298.22 169.166 337.72 169.166C377.216 169.166 409.356 137.033 409.356 97.529C409.356 58.0253 377.216 25.8922 337.72 25.8922Z" fill="#1A428A"/>
<path d="M312.235 59.825C312.235 59.1067 312.711 58.6343 313.426 58.6343H343.607C360.792 58.6343 368.9 67.219 368.9 80.2268C368.9 89.4127 364.606 94.6557 359.48 97.4001V97.6422C364.489 99.5551 370.333 105.997 370.333 115.897C370.333 132 360.191 139.758 342.416 139.758H313.426C312.711 139.758 312.235 139.277 312.235 138.563V59.825ZM343.255 92.3914C350.411 92.3914 354.827 88.101 354.827 81.7767C354.827 75.3352 350.411 71.037 343.255 71.037H327.023C326.551 71.037 326.308 71.2751 326.308 71.7475V91.677C326.308 92.1494 326.551 92.3914 327.023 92.3914H343.255ZM327.023 127.351H343.966C351.844 127.351 356.251 122.811 356.251 116.014C356.251 109.334 351.844 104.794 343.966 104.794H327.023C326.551 104.794 326.308 105.036 326.308 105.516V126.629C326.308 127.109 326.551 127.351 327.023 127.351Z" fill="#1A428A"/>
<path d="M334.308 70.2366C330.54 70.2366 327.484 67.1876 327.484 63.4165V49.7684C327.484 45.9972 330.54 42.9482 334.308 42.9482C338.075 42.9482 341.128 45.9972 341.128 49.7684V63.4165C341.128 67.1876 338.075 70.2366 334.308 70.2366Z" fill="#1A428A"/>
<path d="M334.308 152.11C330.54 152.11 327.484 149.057 327.484 145.286V138.466C327.484 134.694 330.54 131.642 334.308 131.642C338.075 131.642 341.128 134.694 341.128 138.466V145.286C341.128 149.057 338.075 152.11 334.308 152.11Z" fill="#1A428A"/>
<path d="M218.322 227.158H136.453C134.423 227.158 132.507 226.256 131.21 224.703L99.1437 186.222H20.4682C16.7009 186.222 13.6442 183.169 13.6442 179.398C13.6442 175.627 16.7009 172.578 20.4682 172.578H102.337C104.363 172.578 106.284 173.476 107.58 175.029L139.647 213.51H218.322C222.09 213.51 225.146 216.563 225.146 220.334C225.146 224.105 222.09 227.158 218.322 227.158Z" fill="#1A428A"/>
<path d="M143.274 329.495H20.4682C16.7009 329.495 13.6442 326.443 13.6442 322.671C13.6442 318.9 16.7009 315.851 20.4682 315.851H139.057L150.816 292.33C152.502 288.961 156.594 287.595 159.971 289.281C163.344 290.964 164.706 295.063 163.023 298.436L149.375 325.724C148.22 328.039 145.862 329.495 143.274 329.495V329.495Z" fill="#1A428A"/>
<path d="M191.034 302.207H156.918C153.15 302.207 150.098 299.154 150.098 295.383C150.098 291.612 153.15 288.559 156.918 288.559H191.034C194.801 288.559 197.854 291.612 197.854 295.383C197.854 299.154 194.801 302.207 191.034 302.207Z" fill="#1A428A"/>
<path d="M191.03 302.207C189.457 302.207 187.876 301.665 186.591 300.56C183.73 298.108 183.398 293.802 185.85 290.945L226.786 243.188C228.082 241.673 229.976 240.803 231.967 240.803H307.015C310.783 240.803 313.835 243.856 313.835 247.627C313.835 251.398 310.783 254.447 307.015 254.447H235.105L196.211 299.822C194.864 301.399 192.951 302.207 191.03 302.207V302.207Z" fill="#1A428A"/>
<path d="M27.2922 179.398C27.2922 186.937 21.1826 193.046 13.6442 193.046C6.10962 193.046 0 186.937 0 179.398C0 171.864 6.10962 165.754 13.6442 165.754C21.1826 165.754 27.2922 171.864 27.2922 179.398Z" fill="#1A428A"/>
<path d="M27.2922 322.672C27.2922 330.21 21.1826 336.32 13.6442 336.32C6.10962 336.32 0 330.21 0 322.672C0 315.137 6.10962 309.027 13.6442 309.027C21.1826 309.027 27.2922 315.137 27.2922 322.672Z" fill="#1A428A"/>
<path d="M170.566 158.93C166.799 158.93 163.742 155.881 163.742 152.11V124.818C163.742 121.047 166.799 117.998 170.566 117.998C174.333 117.998 177.386 121.047 177.386 124.818V152.11C177.386 155.881 174.333 158.93 170.566 158.93Z" fill="white"/>
<path d="M184.21 145.286H156.918C153.15 145.286 150.098 142.237 150.098 138.466C150.098 134.694 153.15 131.642 156.918 131.642H184.21C187.977 131.642 191.034 134.694 191.034 138.466C191.034 142.237 187.977 145.286 184.21 145.286Z" fill="white"/>
<path d="M290.775 333.146C288.675 333.146 286.598 332.182 285.263 330.355C283.038 327.31 283.701 323.039 286.742 320.821C304.739 307.649 318.493 289.754 326.511 269.051C327.878 265.534 331.848 263.801 335.338 265.155C338.856 266.522 340.597 270.469 339.238 273.982C330.271 297.113 314.905 317.124 294.796 331.826C293.586 332.72 292.173 333.146 290.775 333.146V333.146Z" fill="white"/>
</g>
<defs>
<clipPath id="clip0_1_2215">
<rect width="423" height="423" fill="white"/>
</clipPath>
</defs>
</svg>
