<svg width="402" height="402" viewBox="0 0 402 402" fill="none" xmlns="http://www.w3.org/2000/svg">
<g clip-path="url(#clip0_1_2249)">
<path d="M361.118 265.848H81.7645L68.1345 109.138H395.185L361.118 265.848Z" fill="#6BC4E8"/>
<path d="M361.118 272.663H81.7646C78.2285 272.663 75.281 269.961 74.9769 266.441L61.3508 109.73C61.1831 107.828 61.8264 105.945 63.113 104.533C64.4035 103.122 66.2242 102.323 68.1346 102.323H395.185C397.248 102.323 399.197 103.255 400.487 104.857C401.786 106.467 402.281 108.572 401.848 110.588L367.781 267.298C367.095 270.429 364.326 272.663 361.118 272.663V272.663ZM88.0104 259.037H355.628L386.729 115.949H75.5656L88.0104 259.037Z" fill="#1A428A"/>
<path d="M68.1268 115.949C64.6998 115.949 61.7523 113.375 61.3663 109.886L55.2258 54.6291H6.81501C3.04882 54.6291 0 51.5802 0 47.814C0 44.0478 3.04882 40.999 6.81501 40.999H61.3234C64.7933 40.999 67.7096 43.6073 68.0917 47.0616L74.9067 108.385C75.3238 112.124 72.6259 115.492 68.887 115.91C68.6297 115.937 68.3802 115.949 68.1268 115.949Z" fill="#1A428A"/>
<path d="M88.5679 333.982C85.1409 333.982 82.1934 331.409 81.8035 327.92L74.9924 266.6C74.5753 262.861 77.2693 259.493 81.0082 259.076C84.712 258.713 88.1156 261.349 88.5328 265.095L95.3439 326.419C95.7611 330.158 93.067 333.522 89.3281 333.943C89.0708 333.971 88.8213 333.982 88.5679 333.982V333.982Z" fill="#1A428A"/>
<path d="M122.643 354.424C122.643 369.477 110.444 381.68 95.3907 381.68C80.3376 381.68 68.1345 369.477 68.1345 354.424C68.1345 339.374 80.3376 327.171 95.3907 327.171C110.444 327.171 122.643 339.374 122.643 354.424Z" fill="#6BC4E8"/>
<path d="M95.3908 388.491C76.6066 388.491 61.3235 373.208 61.3235 354.424C61.3235 335.643 76.6066 320.356 95.3908 320.356C114.175 320.356 129.458 335.643 129.458 354.424C129.458 373.208 114.175 388.491 95.3908 388.491ZM95.3908 333.983C84.1195 333.983 74.9496 343.152 74.9496 354.424C74.9496 365.695 84.1195 374.865 95.3908 374.865C106.662 374.865 115.832 365.695 115.832 354.424C115.832 343.152 106.662 333.983 95.3908 333.983Z" fill="#1A428A"/>
<path d="M354.307 354.424C354.307 369.477 342.104 381.68 327.05 381.68C311.997 381.68 299.798 369.477 299.798 354.424C299.798 339.374 311.997 327.171 327.05 327.171C342.104 327.171 354.307 339.374 354.307 354.424Z" fill="#6BC4E8"/>
<path d="M327.05 388.491C308.266 388.491 292.983 373.208 292.983 354.424C292.983 335.643 308.266 320.356 327.05 320.356C345.835 320.356 361.118 335.643 361.118 354.424C361.118 373.208 345.835 388.491 327.05 388.491ZM327.05 333.983C315.779 333.983 306.609 343.152 306.609 354.424C306.609 365.695 315.779 374.865 327.05 374.865C338.322 374.865 347.492 365.695 347.492 354.424C347.492 343.152 338.322 333.983 327.05 333.983V333.983Z" fill="#1A428A"/>
<path d="M299.798 361.238H122.643C118.881 361.238 115.832 358.19 115.832 354.423C115.832 350.657 118.881 347.612 122.643 347.612H299.798C303.564 347.612 306.609 350.657 306.609 354.423C306.609 358.19 303.564 361.238 299.798 361.238Z" fill="#1A428A"/>
<path fill-rule="evenodd" clip-rule="evenodd" d="M313.424 95.5116C313.424 136.905 279.868 170.457 238.475 170.457C197.082 170.457 163.525 136.905 163.525 95.5116C163.525 54.1146 197.082 20.562 238.475 20.562C279.868 20.562 313.424 54.1146 313.424 95.5116Z" fill="#1A428A"/>
<path d="M238.475 177.272C193.386 177.272 156.71 140.597 156.71 95.5116C156.71 50.4226 193.386 13.7471 238.475 13.7471C283.56 13.7471 320.235 50.4226 320.235 95.5116C320.235 140.597 283.56 177.272 238.475 177.272ZM238.475 27.3732C200.906 27.3732 170.34 57.9433 170.34 95.5116C170.34 133.076 200.906 163.646 238.475 163.646C276.043 163.646 306.609 133.076 306.609 95.5116C306.609 57.9433 276.043 27.3732 238.475 27.3732V27.3732Z" fill="#1A428A"/>
<path d="M299.798 95.5116C299.798 136.905 266.242 170.457 224.849 170.457C183.456 170.457 149.899 136.905 149.899 95.5116C149.899 54.1146 183.456 20.562 224.849 20.562C266.242 20.562 299.798 54.1146 299.798 95.5116Z" fill="#D7E9FF"/>
<path d="M224.849 177.272C179.76 177.272 143.084 140.597 143.084 95.5116C143.084 50.4226 179.76 13.7471 224.849 13.7471C269.934 13.7471 306.609 50.4226 306.609 95.5116C306.609 140.597 269.934 177.272 224.849 177.272V177.272ZM224.849 27.3732C187.28 27.3732 156.71 57.9433 156.71 95.5116C156.71 133.076 187.28 163.646 224.849 163.646C262.417 163.646 292.983 133.076 292.983 95.5116C292.983 57.9433 262.417 27.3732 224.849 27.3732Z" fill="#1A428A"/>
<path d="M202.805 57.8576C202.805 57.1363 203.281 56.6646 203.994 56.6646H234.136C251.298 56.6646 259.396 65.2418 259.396 78.2324C259.396 87.4062 255.107 92.6422 249.988 95.383V95.6248C254.99 97.5351 260.826 103.968 260.826 113.855C260.826 129.938 250.697 137.681 232.946 137.681H203.994C203.281 137.681 202.805 137.205 202.805 136.491V57.8576ZM233.785 90.3809C240.931 90.3809 245.341 86.0923 245.341 79.7802C245.341 73.3434 240.931 69.0509 233.785 69.0509H217.574C217.102 69.0509 216.86 69.2926 216.86 69.7643V89.6675C216.86 90.1392 217.102 90.3809 217.574 90.3809H233.785ZM217.574 125.29H234.494C242.362 125.29 246.764 120.76 246.764 113.972C246.764 107.298 242.362 102.767 234.494 102.767H217.574C217.102 102.767 216.86 103.009 216.86 103.489V124.573C216.86 125.053 217.102 125.29 217.574 125.29Z" fill="#1A428A"/>
<path d="M224.849 68.2552C221.083 68.2552 218.034 65.2064 218.034 61.4402V47.814C218.034 44.0478 221.083 40.999 224.849 40.999C228.615 40.999 231.66 44.0478 231.66 47.814V61.4402C231.66 65.2064 228.615 68.2552 224.849 68.2552Z" fill="#1A428A"/>
<path d="M224.849 150.02C221.083 150.02 218.034 146.971 218.034 143.205V136.39C218.034 132.624 221.083 129.579 224.849 129.579C228.615 129.579 231.66 132.624 231.66 136.39V143.205C231.66 146.971 228.615 150.02 224.849 150.02Z" fill="#1A428A"/>
<path d="M354.307 163.646C350.541 163.646 347.492 160.597 347.492 156.831V129.579C347.492 125.812 350.541 122.764 354.307 122.764C358.073 122.764 361.118 125.812 361.118 129.579V156.831C361.118 160.597 358.073 163.646 354.307 163.646Z" fill="white"/>
<path d="M367.933 150.02H340.677C336.91 150.02 333.865 146.971 333.865 143.205C333.865 139.439 336.91 136.39 340.677 136.39H367.933C371.699 136.39 374.744 139.439 374.744 143.205C374.744 146.971 371.699 150.02 367.933 150.02Z" fill="white"/>
<path d="M95.3829 204.528C91.9247 204.528 88.9617 201.904 88.6069 198.392L81.7958 130.257C81.4215 126.51 84.1545 123.169 87.8973 122.795C91.644 122.518 94.9813 125.157 95.3556 128.896L102.171 197.035C102.541 200.778 99.8119 204.119 96.0691 204.493C95.8391 204.513 95.609 204.528 95.3829 204.528Z" fill="white"/>
</g>
<defs>
<clipPath id="clip0_1_2249">
<rect width="402" height="402" fill="white"/>
</clipPath>
</defs>
</svg>
