<svg width="369" height="369" viewBox="0 0 369 369" fill="none" xmlns="http://www.w3.org/2000/svg">
<g clip-path="url(#clip0_1_2270)">
<path d="M361.812 88.7461C361.812 43.5039 325.137 6.82812 279.895 6.82812C234.648 6.82812 197.973 43.5039 197.973 88.7461C197.973 133.992 234.648 170.668 279.895 170.668C325.137 170.668 361.812 133.992 361.812 88.7461Z" fill="#1A428A"/>
<path d="M279.895 177.492C230.961 177.492 191.148 137.68 191.148 88.7461C191.148 39.8125 230.961 0 279.895 0C328.828 0 368.641 39.8125 368.641 88.7461C368.641 137.68 328.828 177.492 279.895 177.492V177.492ZM279.895 13.6523C238.484 13.6523 204.801 47.3398 204.801 88.7461C204.801 130.152 238.484 163.84 279.895 163.84C321.301 163.84 354.988 130.152 354.988 88.7461C354.988 47.3398 321.301 13.6523 279.895 13.6523Z" fill="#1A428A"/>
<path d="M279.895 211.625C279.895 151.305 218.766 102.398 143.359 102.398C67.9531 102.398 6.82812 151.305 6.82812 211.625C6.82812 256.406 40.543 294.844 88.7461 311.703V344.746C88.7461 354.172 96.3867 361.812 105.812 361.812C115.238 361.812 122.879 354.172 122.879 344.746C122.879 354.172 130.52 361.812 139.945 361.812C149.371 361.812 157.012 354.172 157.012 344.746C157.012 354.172 164.652 361.812 174.078 361.812C183.508 361.812 191.148 354.172 191.148 344.746V313.84C242.949 298.328 279.895 258.48 279.895 211.625V211.625Z" fill="#D7E9FF"/>
<path d="M174.078 368.641C167.398 368.641 161.352 365.887 157.012 361.453C152.672 365.887 146.625 368.641 139.945 368.641C133.266 368.641 127.219 365.887 122.879 361.453C118.539 365.887 112.492 368.641 105.812 368.641C92.6406 368.641 81.9219 357.922 81.9219 344.746V316.473C31.9883 297.305 0 256.594 0 211.625C0 147.633 64.3125 95.5742 143.359 95.5742C222.406 95.5742 286.719 147.633 286.719 211.625C286.719 258.492 251.273 301.047 197.973 318.84V344.746C197.973 357.922 187.254 368.641 174.078 368.641ZM157.012 337.922C160.785 337.922 163.84 340.973 163.84 344.746C163.84 350.395 168.434 354.988 174.078 354.988C179.727 354.988 184.32 350.395 184.32 344.746V313.84C184.32 310.828 186.301 308.168 189.188 307.301C239.359 292.273 273.066 253.828 273.066 211.625C273.066 155.16 214.879 109.227 143.359 109.227C71.8398 109.227 13.6523 155.16 13.6523 211.625C13.6523 252.066 44.0117 288.82 91 305.258C93.7383 306.219 95.5742 308.805 95.5742 311.707V344.746C95.5742 350.395 100.164 354.988 105.812 354.988C111.461 354.988 116.055 350.395 116.055 344.746C116.055 340.973 119.105 337.922 122.879 337.922C126.652 337.922 129.707 340.973 129.707 344.746C129.707 350.395 134.301 354.988 139.945 354.988C145.594 354.988 150.188 350.395 150.188 344.746C150.188 340.973 153.238 337.922 157.012 337.922V337.922Z" fill="#1A428A"/>
<path d="M59.168 159.047C57.2461 159.047 55.3399 158.238 53.9922 156.672C51.5352 153.812 51.8594 149.5 54.7149 147.043C70 133.898 89.375 124.418 110.746 119.625C114.434 118.824 118.074 121.113 118.898 124.793C119.727 128.473 117.414 132.117 113.734 132.945C94.5391 137.25 77.2071 145.703 63.6211 157.391C62.3281 158.508 60.7461 159.047 59.168 159.047Z" fill="white"/>
<path d="M129.707 221.867C129.707 246.375 109.84 266.238 85.332 266.238C60.8281 266.238 40.9609 246.375 40.9609 221.867C40.9609 197.359 60.8281 177.492 85.332 177.492C109.84 177.492 129.707 197.359 129.707 221.867V221.867Z" fill="#2A8EE6"/>
<path d="M85.332 273.066C57.1016 273.066 34.1328 250.102 34.1328 221.867C34.1328 193.633 57.1016 170.668 85.332 170.668C113.566 170.668 136.535 193.633 136.535 221.867C136.535 250.102 113.566 273.066 85.332 273.066ZM85.332 184.32C64.6328 184.32 47.7852 201.168 47.7852 221.867C47.7852 242.566 64.6328 259.414 85.332 259.414C106.035 259.414 122.879 242.566 122.879 221.867C122.879 201.168 106.035 184.32 85.332 184.32V184.32Z" fill="#1A428A"/>
<path d="M252.586 221.867C252.586 246.375 232.719 266.238 208.215 266.238C183.707 266.238 163.84 246.375 163.84 221.867C163.84 197.359 183.707 177.492 208.215 177.492C232.719 177.492 252.586 197.359 252.586 221.867V221.867Z" fill="#2A8EE6"/>
<path d="M208.215 273.066C179.98 273.066 157.012 250.102 157.012 221.867C157.012 193.633 179.98 170.668 208.215 170.668C236.445 170.668 259.414 193.633 259.414 221.867C259.414 250.102 236.445 273.066 208.215 273.066ZM208.215 184.32C187.512 184.32 170.668 201.168 170.668 221.867C170.668 242.566 187.512 259.414 208.215 259.414C228.914 259.414 245.762 242.566 245.762 221.867C245.762 201.168 228.914 184.32 208.215 184.32V184.32Z" fill="#1A428A"/>
<path d="M348.16 88.7461C348.16 43.5039 311.484 6.82812 266.238 6.82812C220.996 6.82812 184.32 43.5039 184.32 88.7461C184.32 133.992 220.996 170.668 266.238 170.668C311.484 170.668 348.16 133.992 348.16 88.7461Z" fill="#6BC4E8"/>
<path d="M266.238 177.492C217.305 177.492 177.492 137.68 177.492 88.7461C177.492 39.8125 217.305 0 266.238 0C315.172 0 354.988 39.8125 354.988 88.7461C354.988 137.68 315.172 177.492 266.238 177.492ZM266.238 13.6523C224.832 13.6523 191.148 47.3398 191.148 88.7461C191.148 130.152 224.832 163.84 266.238 163.84C307.648 163.84 341.332 130.152 341.332 88.7461C341.332 47.3398 307.648 13.6523 266.238 13.6523Z" fill="#1A428A"/>
<path d="M244.152 44.1953C244.152 43.4727 244.633 43 245.348 43H275.547C292.738 43 300.852 51.5938 300.852 64.6094C300.852 73.8008 296.559 79.0469 291.426 81.793V82.0352C296.441 83.9492 302.285 90.3945 302.285 100.301C302.285 116.414 292.141 124.172 274.352 124.172H245.348C244.633 124.172 244.152 123.695 244.152 122.98V44.1953ZM275.191 76.7812C282.352 76.7812 286.773 72.4844 286.773 66.1602C286.773 59.7109 282.352 55.4102 275.191 55.4102H258.953C258.48 55.4102 258.238 55.6523 258.238 56.125V76.0664C258.238 76.5391 258.48 76.7812 258.953 76.7812H275.191ZM258.953 111.758H275.906C283.785 111.758 288.199 107.219 288.199 100.418C288.199 93.7305 283.785 89.1914 275.906 89.1914H258.953C258.48 89.1914 258.238 89.4336 258.238 89.9141V111.039C258.238 111.52 258.48 111.758 258.953 111.758Z" fill="#1A428A"/>
<path d="M266.238 54.6133C262.465 54.6133 259.414 51.5586 259.414 47.7852V34.1328C259.414 30.3594 262.465 27.3086 266.238 27.3086C270.012 27.3086 273.066 30.3594 273.066 34.1328V47.7852C273.066 51.5586 270.012 54.6133 266.238 54.6133Z" fill="#1A428A"/>
<path d="M266.238 136.535C262.465 136.535 259.414 133.48 259.414 129.707V122.879C259.414 119.105 262.465 116.055 266.238 116.055C270.012 116.055 273.066 119.105 273.066 122.879V129.707C273.066 133.48 270.012 136.535 266.238 136.535Z" fill="#1A428A"/>
<path d="M266.238 54.6133C262.465 54.6133 259.414 51.5586 259.414 47.7852V34.1328C259.414 30.3594 262.465 27.3086 266.238 27.3086C270.012 27.3086 273.066 30.3594 273.066 34.1328V47.7852C273.066 51.5586 270.012 54.6133 266.238 54.6133Z" fill="#1A428A"/>
<path d="M266.238 136.535C262.465 136.535 259.414 133.48 259.414 129.707V122.879C259.414 119.105 262.465 116.055 266.238 116.055C270.012 116.055 273.066 119.105 273.066 122.879V129.707C273.066 133.48 270.012 136.535 266.238 136.535Z" fill="#1A428A"/>
<path d="M314.027 163.84C310.254 163.84 307.199 160.785 307.199 157.012V129.707C307.199 125.934 310.254 122.879 314.027 122.879C317.801 122.879 320.852 125.934 320.852 129.707V157.012C320.852 160.785 317.801 163.84 314.027 163.84Z" fill="white"/>
<path d="M327.68 150.188H300.375C296.602 150.188 293.547 147.133 293.547 143.359C293.547 139.586 296.602 136.535 300.375 136.535H327.68C331.453 136.535 334.508 139.586 334.508 143.359C334.508 147.133 331.453 150.188 327.68 150.188Z" fill="white"/>
</g>
<defs>
<clipPath id="clip0_1_2270">
<rect width="368.64" height="368.64" fill="white"/>
</clipPath>
</defs>
</svg>
