<svg width="402" height="402" viewBox="0 0 402 402" fill="none" xmlns="http://www.w3.org/2000/svg">
<g clip-path="url(#clip0_1_2290)">
<path d="M395.185 334.677H6.81506V48.5083H395.185V334.677Z" fill="#6BC4E8"/>
<path d="M395.185 341.492H6.81502C3.04882 341.492 0 338.443 0 334.677V48.5084C0 44.7422 3.04882 41.6934 6.81502 41.6934H395.185C398.951 41.6934 402 44.7422 402 48.5084V334.677C402 338.443 398.951 341.492 395.185 341.492ZM13.6261 327.862H388.374V55.3195H13.6261V327.862Z" fill="#1A428A"/>
<path d="M354.307 341.492C350.541 341.492 347.492 338.443 347.492 334.677V48.5084C347.492 44.7422 350.541 41.6934 354.307 41.6934C358.073 41.6934 361.118 44.7422 361.118 48.5084V334.677C361.118 338.443 358.073 341.492 354.307 341.492Z" fill="#1A428A"/>
<path d="M292.983 341.492C289.217 341.492 286.168 338.443 286.168 334.677V48.5084C286.168 44.7422 289.217 41.6934 292.983 41.6934C296.749 41.6934 299.798 44.7422 299.798 48.5084V334.677C299.798 338.443 296.749 341.492 292.983 341.492Z" fill="#1A428A"/>
<path d="M231.66 341.492C227.894 341.492 224.849 338.443 224.849 334.677V48.5084C224.849 44.7422 227.894 41.6934 231.66 41.6934C235.426 41.6934 238.475 44.7422 238.475 48.5084V334.677C238.475 338.443 235.426 341.492 231.66 341.492Z" fill="#1A428A"/>
<path d="M170.34 341.492C166.574 341.492 163.525 338.443 163.525 334.677V48.5084C163.525 44.7422 166.574 41.6934 170.34 41.6934C174.107 41.6934 177.152 44.7422 177.152 48.5084V334.677C177.152 338.443 174.107 341.492 170.34 341.492Z" fill="#1A428A"/>
<path d="M109.017 341.492C105.251 341.492 102.202 338.443 102.202 334.677V48.5084C102.202 44.7422 105.251 41.6934 109.017 41.6934C112.783 41.6934 115.832 44.7422 115.832 48.5084V334.677C115.832 338.443 112.783 341.492 109.017 341.492Z" fill="#1A428A"/>
<path d="M47.6934 341.492C43.9272 341.492 40.8823 338.443 40.8823 334.677V48.5084C40.8823 44.7422 43.9272 41.6934 47.6934 41.6934C51.4596 41.6934 54.5085 44.7422 54.5085 48.5084V334.677C54.5085 338.443 51.4596 341.492 47.6934 341.492Z" fill="#1A428A"/>
<path d="M395.185 307.42C393.548 307.42 391.906 306.836 390.604 305.65L318.267 239.894L199.07 266.382C196.52 266.94 193.846 265.996 192.228 263.926L71.6278 109.828H6.81502C3.04882 109.828 0 106.783 0 103.017C0 99.2505 3.04882 96.2017 6.81502 96.2017H74.9496C77.0432 96.2017 79.0238 97.1647 80.3104 98.8177L200.306 252.14L318.758 225.82C320.926 225.356 323.179 225.94 324.82 227.43L399.77 295.564C402.554 298.098 402.756 302.407 400.23 305.194C398.885 306.672 397.037 307.42 395.185 307.42Z" fill="#1A428A"/>
<path d="M265.727 198.404C265.727 236.034 235.223 266.542 197.593 266.542C159.962 266.542 129.458 236.034 129.458 198.404C129.458 160.777 159.962 130.269 197.593 130.269C235.223 130.269 265.727 160.777 265.727 198.404Z" fill="#D7E9FF"/>
<path d="M197.593 273.353C156.266 273.353 122.643 239.734 122.643 198.404C122.643 157.077 156.266 123.458 197.593 123.458C238.919 123.458 272.542 157.077 272.542 198.404C272.542 239.734 238.919 273.353 197.593 273.353V273.353ZM197.593 137.084C163.779 137.084 136.273 164.59 136.273 198.404C136.273 232.221 163.779 259.727 197.593 259.727C231.41 259.727 258.916 232.221 258.916 198.404C258.916 164.59 231.41 137.084 197.593 137.084Z" fill="#1A428A"/>
<path d="M177.951 166.625C177.951 166.059 178.325 165.689 178.882 165.689H202.583C216.073 165.689 222.439 172.43 222.439 182.641C222.439 189.853 219.071 193.974 215.039 196.13V196.314C218.977 197.819 223.57 202.875 223.57 210.645C223.57 223.297 215.605 229.383 201.647 229.383H178.882C178.325 229.383 177.951 229.012 177.951 228.447V166.625ZM202.306 192.197C207.92 192.197 211.386 188.824 211.386 183.857C211.386 178.8 207.92 175.428 202.306 175.428H189.565C189.183 175.428 189 175.615 189 175.986V191.639C189 192.009 189.183 192.197 189.565 192.197H202.306ZM189.561 219.644H202.864C209.051 219.644 212.513 216.084 212.513 210.739C212.513 205.499 209.051 201.94 202.864 201.94H189.561C189.183 201.94 188.996 202.123 188.996 202.505V219.078C188.996 219.457 189.183 219.644 189.561 219.644Z" fill="#1A428A"/>
<path d="M194.185 174.559C190.419 174.559 187.374 171.51 187.374 167.744V160.929C187.374 157.163 190.419 154.118 194.185 154.118C197.951 154.118 201 157.163 201 160.929V167.744C201 171.51 197.951 174.559 194.185 174.559Z" fill="#1A428A"/>
<path d="M194.185 242.693C190.419 242.693 187.374 239.644 187.374 235.878V229.067C187.374 225.301 190.419 222.252 194.185 222.252C197.951 222.252 201 225.301 201 229.067V235.878C201 239.644 197.951 242.693 194.185 242.693Z" fill="#1A428A"/>
<path d="M395.185 334.676H6.81506L20.4412 355.117H381.559L395.185 334.676Z" fill="#1A428A"/>
<path d="M381.559 361.929H20.4412C18.1643 361.929 16.0356 360.794 14.7724 358.895L1.14629 338.454C-0.245568 336.365 -0.378125 333.678 0.807095 331.464C1.99231 329.249 4.29648 327.861 6.81507 327.861H395.185C397.704 327.861 400.012 329.245 401.193 331.46C402.378 333.678 402.246 336.365 400.854 338.454L387.228 358.895C385.965 360.794 383.836 361.929 381.559 361.929V361.929ZM24.0865 348.302H377.914L382.46 341.491H19.5445L24.0865 348.302Z" fill="#1A428A"/>
<path d="M320.235 348.303C316.469 348.303 313.424 345.258 313.424 341.492V314.235C313.424 310.469 316.469 307.42 320.235 307.42C324.002 307.42 327.05 310.469 327.05 314.235V341.492C327.05 345.258 324.002 348.303 320.235 348.303Z" fill="white"/>
<path d="M333.866 334.676H306.609C302.843 334.676 299.798 331.628 299.798 327.861C299.798 324.095 302.843 321.05 306.609 321.05H333.866C337.632 321.05 340.677 324.095 340.677 327.861C340.677 331.628 337.632 334.676 333.866 334.676Z" fill="white"/>
<path d="M27.2562 198.403C23.49 198.403 20.4412 195.358 20.4412 191.592V123.458C20.4412 119.691 23.49 116.643 27.2562 116.643C31.0224 116.643 34.0673 119.691 34.0673 123.458V191.592C34.0673 195.358 31.0224 198.403 27.2562 198.403Z" fill="white"/>
</g>
<defs>
<clipPath id="clip0_1_2290">
<rect width="402" height="402" fill="white"/>
</clipPath>
</defs>
</svg>
