<svg width="402" height="402" viewBox="0 0 402 402" fill="none" xmlns="http://www.w3.org/2000/svg">
<g clip-path="url(#clip0_1_2311)">
<path d="M6.81494 48.5083H395.185V334.677H6.81494V48.5083Z" fill="#2A8EE6"/>
<path d="M395.185 341.492H6.81502C3.04882 341.492 0 338.443 0 334.677V48.5084C0 44.7422 3.04882 41.6934 6.81502 41.6934H395.185C398.951 41.6934 402 44.7422 402 48.5084V334.677C402 338.443 398.951 341.492 395.185 341.492ZM13.6261 327.862H388.374V55.3195H13.6261V327.862Z" fill="#1A428A"/>
<path d="M395.185 334.677H6.81494L20.4411 355.118H381.559L395.185 334.677Z" fill="#1A428A"/>
<path d="M381.559 361.929H20.4411C18.1603 361.929 16.0355 360.795 14.7723 358.896L1.14614 338.455C-0.249614 336.365 -0.378272 333.679 0.806948 331.464C1.99217 329.246 4.30023 327.862 6.81492 327.862H395.185C397.704 327.862 400.012 329.246 401.193 331.46C402.378 333.679 402.246 336.365 400.854 338.455L387.228 358.896C385.964 360.795 383.836 361.929 381.559 361.929V361.929ZM24.0864 348.303H377.914L382.459 341.492H19.5482L24.0864 348.303Z" fill="#1A428A"/>
<path d="M47.6934 341.492C43.9311 341.492 40.8823 338.443 40.8823 334.677V48.5084C40.8823 44.7422 43.9311 41.6934 47.6934 41.6934C51.4596 41.6934 54.5085 44.7422 54.5085 48.5084V334.677C54.5085 338.443 51.4596 341.492 47.6934 341.492Z" fill="#1A428A"/>
<path d="M109.017 341.492C105.255 341.492 102.202 338.443 102.202 334.677V48.5084C102.202 44.7422 105.255 41.6934 109.017 41.6934C112.779 41.6934 115.832 44.7422 115.832 48.5084V334.677C115.832 338.443 112.779 341.492 109.017 341.492Z" fill="#1A428A"/>
<path d="M170.34 341.492C166.578 341.492 163.525 338.443 163.525 334.677V48.5084C163.525 44.7422 166.578 41.6934 170.34 41.6934C174.103 41.6934 177.152 44.7422 177.152 48.5084V334.677C177.152 338.443 174.103 341.492 170.34 341.492Z" fill="#1A428A"/>
<path d="M231.66 341.492C227.894 341.492 224.849 338.443 224.849 334.677V48.5084C224.849 44.7422 227.894 41.6934 231.66 41.6934C235.426 41.6934 238.475 44.7422 238.475 48.5084V334.677C238.475 338.443 235.426 341.492 231.66 341.492Z" fill="#1A428A"/>
<path d="M292.983 341.492C289.217 341.492 286.168 338.443 286.168 334.677V48.5084C286.168 44.7422 289.217 41.6934 292.983 41.6934C296.749 41.6934 299.798 44.7422 299.798 48.5084V334.677C299.798 338.443 296.749 341.492 292.983 341.492Z" fill="#1A428A"/>
<path d="M354.307 341.492C350.541 341.492 347.492 338.443 347.492 334.677V48.5084C347.492 44.7422 350.541 41.6934 354.307 41.6934C358.073 41.6934 361.118 44.7422 361.118 48.5084V334.677C361.118 338.443 358.073 341.492 354.307 341.492Z" fill="#1A428A"/>
<path d="M6.81902 307.42C4.96321 307.42 3.1191 306.672 1.77404 305.194C-0.756253 302.403 -0.553519 298.098 2.23019 295.564L77.1798 227.43C78.8211 225.94 81.0902 225.348 83.2423 225.82L201.694 252.14L321.69 98.8177C322.976 97.1647 324.957 96.2017 327.051 96.2017H395.185C398.951 96.2017 402 99.2505 402 103.017C402 106.783 398.951 109.828 395.185 109.828H330.372L209.768 263.926C208.154 265.988 205.495 266.928 202.93 266.382L83.7297 239.89L11.3962 305.65C10.0901 306.836 8.4487 307.42 6.81902 307.42V307.42Z" fill="#1A428A"/>
<path d="M265.727 198.404C265.727 236.034 235.223 266.542 197.593 266.542C159.962 266.542 129.458 236.034 129.458 198.404C129.458 160.777 159.962 130.269 197.593 130.269C235.223 130.269 265.727 160.777 265.727 198.404Z" fill="#D7E9FF"/>
<path d="M197.593 273.353C156.266 273.353 122.643 239.734 122.643 198.404C122.643 157.077 156.266 123.458 197.593 123.458C238.919 123.458 272.542 157.077 272.542 198.404C272.542 239.734 238.919 273.353 197.593 273.353V273.353ZM197.593 137.084C163.783 137.084 136.273 164.59 136.273 198.404C136.273 232.221 163.783 259.727 197.593 259.727C231.41 259.727 258.916 232.221 258.916 198.404C258.916 164.59 231.41 137.084 197.593 137.084Z" fill="#1A428A"/>
<path d="M177.947 166.625C177.947 166.059 178.321 165.689 178.882 165.689H202.583C216.073 165.689 222.439 172.43 222.439 182.641C222.439 189.853 219.071 193.974 215.039 196.13V196.314C218.977 197.819 223.57 202.875 223.57 210.645C223.57 223.297 215.605 229.383 201.647 229.383H178.882C178.321 229.383 177.947 229.012 177.947 228.447V166.625ZM202.306 192.197C207.92 192.197 211.386 188.824 211.386 183.857C211.386 178.8 207.92 175.428 202.306 175.428H189.565C189.183 175.428 189 175.615 189 175.986V191.639C189 192.009 189.183 192.197 189.565 192.197H202.306ZM189.561 219.644H202.864C209.051 219.644 212.513 216.084 212.513 210.739C212.513 205.499 209.051 201.94 202.864 201.94H189.561C189.183 201.94 188.996 202.123 188.996 202.505V219.078C188.996 219.457 189.183 219.644 189.561 219.644Z" fill="#1A428A"/>
<path d="M194.185 174.559C190.419 174.559 187.374 171.51 187.374 167.744V160.929C187.374 157.163 190.419 154.118 194.185 154.118C197.951 154.118 201 157.163 201 160.929V167.744C201 171.51 197.951 174.559 194.185 174.559Z" fill="#1A428A"/>
<path d="M194.185 242.693C190.419 242.693 187.374 239.644 187.374 235.878V229.067C187.374 225.301 190.419 222.252 194.185 222.252C197.951 222.252 201 225.301 201 229.067V235.878C201 239.644 197.951 242.693 194.185 242.693Z" fill="#1A428A"/>
<path d="M327.051 348.303C323.284 348.303 320.236 345.258 320.236 341.492V314.235C320.236 310.469 323.284 307.42 327.051 307.42C330.817 307.42 333.866 310.469 333.866 314.235V341.492C333.866 345.258 330.817 348.303 327.051 348.303Z" fill="white"/>
<path d="M340.677 334.676H313.424C309.658 334.676 306.609 331.628 306.609 327.861C306.609 324.095 309.658 321.05 313.424 321.05H340.677C344.443 321.05 347.492 324.095 347.492 327.861C347.492 331.628 344.443 334.676 340.677 334.676Z" fill="white"/>
<path d="M27.2562 177.966C23.49 177.966 20.4412 174.918 20.4412 171.151V89.3868C20.4412 85.6206 23.49 82.5757 27.2562 82.5757C31.0185 82.5757 34.0673 85.6206 34.0673 89.3868V171.151C34.0673 174.918 31.0185 177.966 27.2562 177.966Z" fill="white"/>
</g>
<defs>
<clipPath id="clip0_1_2311">
<rect width="402" height="402" fill="white"/>
</clipPath>
</defs>
</svg>
