<svg width="400" height="400" viewBox="0 0 400 400" fill="none" xmlns="http://www.w3.org/2000/svg">
<g clip-path="url(#clip0_1_2332)">
<path d="M159.573 12.8909C151.95 4.78831 139.074 4.78831 131.447 12.8909L36.4812 113.796V326.172C36.4812 336.836 45.1258 345.485 55.7903 345.485H235.23C245.894 345.485 254.543 336.84 254.543 326.172V113.796L159.573 12.8909ZM145.512 86.536C134.22 86.536 125.068 77.3845 125.068 66.0923C125.068 54.8039 134.22 45.6485 145.512 45.6485C156.8 45.6485 165.956 54.8039 165.956 66.0923C165.956 77.3845 156.8 86.536 145.512 86.536Z" fill="#6BC4E8"/>
<path d="M235.23 352.301H55.7902C41.3825 352.301 29.6653 340.58 29.6653 326.172V113.796C29.6653 112.057 30.3282 110.388 31.5174 109.124L126.487 8.21961C131.404 2.99462 138.337 0 145.512 0C152.683 0 159.619 2.99462 164.532 8.21961L259.502 109.124C260.692 110.388 261.355 112.057 261.355 113.796V326.172C261.355 340.584 249.637 352.301 235.23 352.301ZM43.2931 116.498V326.172C43.2931 333.066 48.9003 338.669 55.7902 338.669H235.23C242.12 338.669 247.727 333.066 247.727 326.172V116.498L154.613 17.5622C149.84 12.4893 141.18 12.4893 136.411 17.5622L43.2931 116.498ZM145.512 93.3518C130.48 93.3518 118.252 81.1238 118.252 66.0922C118.252 51.0606 130.48 38.8365 145.512 38.8365C160.54 38.8365 172.768 51.0606 172.768 66.0922C172.768 81.1238 160.54 93.3518 145.512 93.3518ZM145.512 52.4644C137.994 52.4644 131.88 58.5784 131.88 66.0922C131.88 73.6061 137.994 79.7201 145.512 79.7201C153.026 79.7201 159.14 73.6061 159.14 66.0922C159.14 58.5784 153.026 52.4644 145.512 52.4644Z" fill="#1A428A"/>
<path fill-rule="evenodd" clip-rule="evenodd" d="M363.573 318.225C363.573 359.624 330.013 393.184 288.614 393.184C247.216 393.184 213.655 359.624 213.655 318.225C213.655 276.827 247.216 243.27 288.614 243.27C330.013 243.27 363.573 276.827 363.573 318.225Z" fill="#1A428A"/>
<path d="M288.614 400C243.523 400 206.839 363.32 206.839 318.225C206.839 273.134 243.523 236.454 288.614 236.454C333.701 236.454 370.385 273.134 370.385 318.225C370.385 363.32 333.701 400 288.614 400V400ZM288.614 250.082C251.037 250.082 220.471 280.652 220.471 318.225C220.471 355.798 251.037 386.372 288.614 386.372C326.191 386.372 356.758 355.798 356.758 318.225C356.758 280.652 326.191 250.082 288.614 250.082Z" fill="#1A428A"/>
<path d="M349.942 318.225C349.942 359.624 316.385 393.184 274.986 393.184C233.584 393.184 200.027 359.624 200.027 318.225C200.027 276.827 233.584 243.27 274.986 243.27C316.385 243.27 349.942 276.827 349.942 318.225Z" fill="#D7E9FF"/>
<path d="M274.986 400C229.896 400 193.211 363.32 193.211 318.225C193.211 273.134 229.896 236.454 274.986 236.454C320.073 236.454 356.758 273.134 356.758 318.225C356.758 363.32 320.073 400 274.986 400ZM274.986 250.082C237.409 250.082 206.839 280.652 206.839 318.225C206.839 355.798 237.409 386.372 274.986 386.372C312.56 386.372 343.13 355.798 343.13 318.225C343.13 280.652 312.56 250.082 274.986 250.082V250.082Z" fill="#1A428A"/>
<path d="M252.94 280.57C252.94 279.849 253.416 279.377 254.129 279.377H284.275C301.435 279.377 309.534 287.955 309.534 300.944C309.534 310.123 305.249 315.359 300.125 318.1V318.342C305.132 320.249 310.965 326.687 310.965 336.575C310.965 352.659 300.839 360.403 283.085 360.403H254.129C253.416 360.403 252.94 359.928 252.94 359.214V280.57ZM283.924 313.098C291.067 313.098 295.481 308.812 295.481 302.496C295.481 296.062 291.067 291.769 283.924 291.769H267.711C267.239 291.769 266.997 292.007 266.997 292.478V312.384C266.997 312.856 267.239 313.098 267.711 313.098H283.924ZM267.711 348.015H284.633C292.498 348.015 296.904 343.484 296.904 336.692C296.904 330.02 292.498 325.489 284.633 325.489H267.711C267.239 325.489 266.997 325.727 266.997 326.207V347.294C266.997 347.774 267.239 348.015 267.711 348.015V348.015Z" fill="#1A428A"/>
<path d="M274.987 290.97C271.22 290.97 268.171 287.92 268.171 284.154V270.526C268.171 266.759 271.22 263.71 274.987 263.71C278.749 263.71 281.799 266.759 281.799 270.526V284.154C281.799 287.92 278.749 290.97 274.987 290.97Z" fill="#1A428A"/>
<path d="M274.987 372.741C271.22 372.741 268.171 369.695 268.171 365.929V359.113C268.171 355.346 271.22 352.301 274.987 352.301C278.749 352.301 281.799 355.346 281.799 359.113V365.929C281.799 369.695 278.749 372.741 274.987 372.741Z" fill="#1A428A"/>
<path d="M206.839 188.755H70.5529C66.7902 188.755 63.7371 185.706 63.7371 181.939C63.7371 178.172 66.7902 175.123 70.5529 175.123H206.839C210.602 175.123 213.655 178.172 213.655 181.939C213.655 185.706 210.602 188.755 206.839 188.755Z" fill="#1A428A"/>
<path d="M131.88 216.011H70.5529C66.7902 216.011 63.7371 212.961 63.7371 209.195C63.7371 205.428 66.7902 202.383 70.5529 202.383H131.88C135.643 202.383 138.696 205.428 138.696 209.195C138.696 212.961 135.643 216.011 131.88 216.011Z" fill="#1A428A"/>
<path d="M131.88 304.598H70.5529C66.7902 304.598 63.7371 301.552 63.7371 297.786C63.7371 294.019 66.7902 290.97 70.5529 290.97H131.88C135.643 290.97 138.696 294.019 138.696 297.786C138.696 301.552 135.643 304.598 131.88 304.598Z" fill="#1A428A"/>
<path d="M220.471 147.867C216.704 147.867 213.655 144.818 213.655 141.051V113.795C213.655 110.029 216.704 106.979 220.471 106.979C224.234 106.979 227.283 110.029 227.283 113.795V141.051C227.283 144.818 224.234 147.867 220.471 147.867Z" fill="white"/>
<path d="M234.099 134.235H206.839C203.077 134.235 200.027 131.19 200.027 127.423C200.027 123.657 203.077 120.607 206.839 120.607H234.099C237.862 120.607 240.911 123.657 240.911 127.423C240.911 131.19 237.862 134.235 234.099 134.235Z" fill="white"/>
<path d="M56.9211 154.679C53.1583 154.679 50.1091 151.634 50.1091 147.867V127.424C50.1091 125.614 50.8266 123.883 52.1055 122.604L79.3613 95.3485C82.0245 92.6853 86.337 92.6853 89.0002 95.3485C91.6595 98.0077 91.6595 102.32 89.0002 104.983L63.737 130.247V147.867C63.737 151.634 60.6878 154.679 56.9211 154.679V154.679Z" fill="white"/>
</g>
<defs>
<clipPath id="clip0_1_2332">
<rect width="400" height="400" fill="white"/>
</clipPath>
</defs>
</svg>
