<svg width="424" height="424" viewBox="0 0 424 424" fill="none" xmlns="http://www.w3.org/2000/svg">
<g clip-path="url(#clip0_1_2349)">
<path d="M402.773 218.453C402.773 327.789 314.137 416.426 204.801 416.426C95.4609 416.426 6.82812 327.789 6.82812 218.453C6.82812 109.117 95.4609 20.4805 204.801 20.4805C314.137 20.4805 402.773 109.117 402.773 218.453V218.453Z" fill="#2A8EE6"/>
<path d="M204.801 423.254C91.875 423.254 0 331.379 0 218.453C0 105.527 91.875 13.6523 204.801 13.6523C317.727 13.6523 409.602 105.527 409.602 218.453C409.602 331.379 317.727 423.254 204.801 423.254ZM204.801 27.3086C99.3984 27.3086 13.6523 113.055 13.6523 218.453C13.6523 323.855 99.3984 409.602 204.801 409.602C310.199 409.602 395.945 323.855 395.945 218.453C395.945 113.055 310.199 27.3086 204.801 27.3086V27.3086Z" fill="#1A428A"/>
<path d="M375.465 218.453C375.465 312.711 299.055 389.121 204.801 389.121C110.543 389.121 34.1328 312.711 34.1328 218.453C34.1328 124.195 110.543 47.7852 204.801 47.7852C299.055 47.7852 375.465 124.195 375.465 218.453V218.453Z" fill="#6BC4E8"/>
<path d="M204.801 395.945C106.93 395.945 27.3086 316.328 27.3086 218.453C27.3086 120.578 106.93 40.9609 204.801 40.9609C302.676 40.9609 382.293 120.578 382.293 218.453C382.293 316.328 302.676 395.945 204.801 395.945V395.945ZM204.801 54.6133C114.461 54.6133 40.9609 128.113 40.9609 218.453C40.9609 308.793 114.461 382.293 204.801 382.293C295.141 382.293 368.641 308.793 368.641 218.453C368.641 128.113 295.141 54.6133 204.801 54.6133Z" fill="#1A428A"/>
<path d="M72.1055 154.859C71.0274 154.859 69.9297 154.605 68.9063 154.059C65.582 152.293 64.3164 148.16 66.0859 144.824C80.7149 117.328 102.926 94.9726 130.336 80.1914C133.656 78.3867 137.793 79.6406 139.582 82.9609C141.371 86.2773 140.133 90.4179 136.816 92.207C111.789 105.707 91.4961 126.121 78.1406 151.238C76.9141 153.547 74.5508 154.859 72.1055 154.859Z" fill="white"/>
<path d="M204.801 116.055C148.246 116.055 102.398 161.898 102.398 218.453C102.398 275.008 148.246 320.852 204.801 320.852C261.355 320.852 307.199 275.008 307.199 218.453C307.199 161.898 261.355 116.055 204.801 116.055V116.055Z" fill="#1A428A"/>
<path d="M204.801 327.68C144.574 327.68 95.5742 278.68 95.5742 218.453C95.5742 158.227 144.574 109.227 204.801 109.227C265.027 109.227 314.027 158.227 314.027 218.453C314.027 278.68 265.027 327.68 204.801 327.68V327.68ZM204.801 122.879C152.102 122.879 109.227 165.754 109.227 218.453C109.227 271.152 152.102 314.027 204.801 314.027C257.5 314.027 300.375 271.152 300.375 218.453C300.375 165.754 257.5 122.879 204.801 122.879V122.879Z" fill="#1A428A"/>
<path d="M204.801 136.535C159.555 136.535 122.879 173.211 122.879 218.453C122.879 263.695 159.555 300.375 204.801 300.375C250.043 300.375 286.719 263.695 286.719 218.453C286.719 173.211 250.043 136.535 204.801 136.535Z" fill="#D7E9FF"/>
<path d="M204.801 307.199C155.863 307.199 116.055 267.387 116.055 218.453C116.055 169.52 155.863 129.707 204.801 129.707C253.734 129.707 293.547 169.52 293.547 218.453C293.547 267.387 253.734 307.199 204.801 307.199ZM204.801 143.359C163.395 143.359 129.707 177.047 129.707 218.453C129.707 259.859 163.395 293.547 204.801 293.547C246.207 293.547 279.895 259.859 279.895 218.453C279.895 177.047 246.207 143.359 204.801 143.359V143.359Z" fill="#1A428A"/>
<path d="M182.715 180.727C182.715 180.008 183.195 179.535 183.906 179.535H214.105C231.301 179.535 239.414 188.129 239.414 201.141C239.414 210.336 235.117 215.582 229.988 218.328V218.566C235 220.48 240.848 226.926 240.848 236.836C240.848 252.945 230.699 260.707 212.914 260.707H183.906C183.195 260.707 182.715 260.227 182.715 259.516V180.727ZM213.754 213.312C220.914 213.312 225.332 209.02 225.332 202.691C225.332 196.246 220.914 191.945 213.754 191.945H197.512C197.039 191.945 196.801 192.188 196.801 192.66V212.598C196.801 213.07 197.039 213.312 197.512 213.312H213.754ZM197.512 248.293H214.465C222.348 248.293 226.758 243.754 226.758 236.953C226.758 230.266 222.348 225.727 214.465 225.727H197.512C197.039 225.727 196.801 225.965 196.801 226.445V247.574C196.801 248.055 197.039 248.293 197.512 248.293Z" fill="#1A428A"/>
<path d="M204.801 191.148C201.027 191.148 197.973 188.094 197.973 184.32V170.668C197.973 166.895 201.027 163.84 204.801 163.84C208.574 163.84 211.625 166.895 211.625 170.668V184.32C211.625 188.094 208.574 191.148 204.801 191.148Z" fill="#1A428A"/>
<path d="M204.801 273.066C201.027 273.066 197.973 270.012 197.973 266.238V259.414C197.973 255.641 201.027 252.586 204.801 252.586C208.574 252.586 211.625 255.641 211.625 259.414V266.238C211.625 270.012 208.574 273.066 204.801 273.066Z" fill="#1A428A"/>
<path d="M232.105 197.973C230.359 197.973 228.613 197.305 227.281 195.973C224.613 193.309 224.613 188.984 227.281 186.32L391.121 22.4805C393.785 19.8125 398.105 19.8125 400.773 22.4805C403.437 25.1445 403.437 29.4688 400.773 32.1328L236.934 195.973C235.602 197.305 233.852 197.973 232.105 197.973V197.973Z" fill="#1A428A"/>
<path d="M416.426 23.8945C416.426 33.3203 408.785 40.9609 399.359 40.9609C389.934 40.9609 382.293 33.3203 382.293 23.8945C382.293 14.4688 389.934 6.82812 399.359 6.82812C408.785 6.82812 416.426 14.4688 416.426 23.8945V23.8945Z" fill="#2A8EE6"/>
<path d="M399.359 47.7852C386.188 47.7852 375.465 37.0664 375.465 23.8945C375.465 10.7188 386.188 0 399.359 0C412.535 0 423.254 10.7188 423.254 23.8945C423.254 37.0664 412.535 47.7852 399.359 47.7852ZM399.359 13.6523C393.711 13.6523 389.121 18.2461 389.121 23.8945C389.121 29.5391 393.711 34.1328 399.359 34.1328C405.008 34.1328 409.602 29.5391 409.602 23.8945C409.602 18.2461 405.008 13.6523 399.359 13.6523V13.6523Z" fill="#1A428A"/>
<path d="M293.547 307.199C289.773 307.199 286.719 304.148 286.719 300.375V273.066C286.719 269.293 289.773 266.238 293.547 266.238C297.32 266.238 300.375 269.293 300.375 273.066V300.375C300.375 304.148 297.32 307.199 293.547 307.199Z" fill="white"/>
<path d="M307.199 293.547H279.895C276.121 293.547 273.066 290.492 273.066 286.719C273.066 282.945 276.121 279.895 279.895 279.895H307.199C310.973 279.895 314.027 282.945 314.027 286.719C314.027 290.492 310.973 293.547 307.199 293.547Z" fill="white"/>
</g>
<defs>
<clipPath id="clip0_1_2349">
<rect width="423.253" height="423.253" fill="white"/>
</clipPath>
</defs>
</svg>
