<svg width="430" height="430" viewBox="0 0 430 430" fill="none" xmlns="http://www.w3.org/2000/svg">
<path d="M382.222 395.646H47.7763C25.1594 395.646 6.8269 377.314 6.8269 354.693H423.175C423.175 377.314 404.839 395.646 382.222 395.646Z" fill="#6BC4E8"/>
<path d="M382.222 402.473H47.7763C21.4335 402.473 0 381.036 0 354.693C0 350.92 3.05412 347.87 6.82685 347.87H423.175C426.948 347.87 429.998 350.92 429.998 354.693C429.998 381.036 408.565 402.473 382.222 402.473V402.473ZM14.3372 361.52C17.5085 377.075 31.295 388.819 47.7763 388.819H382.222C398.707 388.819 412.49 377.075 415.665 361.52H14.3372Z" fill="#1A428A"/>
<path d="M40.9534 122.63H389.049V354.693H40.9534V122.63Z" fill="#D7E9FF"/>
<path d="M389.049 361.52H40.9533C37.1806 361.52 34.1265 358.465 34.1265 354.693V122.63C34.1265 118.858 37.1806 115.804 40.9533 115.804H389.049C392.821 115.804 395.872 118.858 395.872 122.63V354.693C395.872 358.465 392.821 361.52 389.049 361.52ZM47.7763 347.87H382.222V129.457H47.7763V347.87Z" fill="#1A428A"/>
<path d="M61.4299 184.06C59.6841 184.06 57.9344 183.393 56.6027 182.061C53.9391 179.393 53.9391 175.074 56.6027 172.406L83.9062 145.107C86.5697 142.439 90.8892 142.439 93.5567 145.107C96.2203 147.77 96.2203 152.094 93.5567 154.757L66.2532 182.061C64.9214 183.393 63.1757 184.06 61.4299 184.06Z" fill="white"/>
<path fill-rule="evenodd" clip-rule="evenodd" d="M300.319 108.981C300.319 150.446 266.704 184.06 225.239 184.06C183.775 184.06 150.16 150.446 150.16 108.981C150.16 67.5157 183.775 33.9009 225.239 33.9009C266.704 33.9009 300.319 67.5157 300.319 108.981Z" fill="#1A428A"/>
<path d="M225.239 190.883C180.072 190.883 143.333 154.144 143.333 108.981C143.333 63.8132 180.072 27.074 225.239 27.074C270.403 27.074 307.142 63.8132 307.142 108.981C307.142 154.144 270.403 190.883 225.239 190.883V190.883ZM225.239 40.7238C187.606 40.7238 156.983 71.347 156.983 108.981C156.983 146.614 187.606 177.234 225.239 177.234C262.873 177.234 293.492 146.614 293.492 108.981C293.492 71.347 262.873 40.7238 225.239 40.7238Z" fill="#1A428A"/>
<path d="M286.665 108.981C286.665 150.446 253.051 184.06 211.586 184.06C170.121 184.06 136.51 150.446 136.51 108.981C136.51 67.5157 170.121 33.9009 211.586 33.9009C253.051 33.9009 286.665 67.5157 286.665 108.981Z" fill="#6BC4E8"/>
<path d="M211.586 190.883C166.422 190.883 129.683 154.144 129.683 108.981C129.683 63.8132 166.422 27.074 211.586 27.074C256.753 27.074 293.492 63.8132 293.492 108.981C293.492 154.144 256.753 190.883 211.586 190.883ZM211.586 40.7238C173.952 40.7238 143.333 71.347 143.333 108.981C143.333 146.614 173.952 177.234 211.586 177.234C249.219 177.234 279.842 146.614 279.842 108.981C279.842 71.347 249.219 40.7238 211.586 40.7238V40.7238Z" fill="#1A428A"/>
<path d="M189.504 71.261C189.504 70.5424 189.984 70.0698 190.699 70.0698H220.892C238.081 70.0698 246.192 78.6581 246.192 91.6713C246.192 100.861 241.9 106.106 236.768 108.852V109.094C241.783 111.008 247.626 117.452 247.626 127.356C247.626 143.466 237.483 151.227 219.697 151.227H190.699C189.984 151.227 189.504 150.746 189.504 150.032V71.261ZM220.537 103.841C227.696 103.841 232.117 99.5487 232.117 93.2218C232.117 86.7777 227.696 82.4777 220.537 82.4777H204.302C203.829 82.4777 203.587 82.7159 203.587 83.1885V103.126C203.587 103.599 203.829 103.841 204.302 103.841H220.537ZM204.302 138.815H221.252C229.129 138.815 233.542 134.273 233.542 127.473C233.542 120.791 229.129 116.249 221.252 116.249H204.302C203.829 116.249 203.587 116.491 203.587 116.971V138.092C203.587 138.573 203.829 138.815 204.302 138.815Z" fill="#1A428A"/>
<path d="M211.586 81.677C207.813 81.677 204.763 78.6268 204.763 74.8541V61.2004C204.763 57.4277 207.813 54.3774 211.586 54.3774C215.358 54.3774 218.412 57.4277 218.412 61.2004V74.8541C218.412 78.6268 215.358 81.677 211.586 81.677Z" fill="#1A428A"/>
<path d="M211.586 163.584C207.813 163.584 204.763 160.53 204.763 156.757V149.934C204.763 146.161 207.813 143.107 211.586 143.107C215.358 143.107 218.412 146.161 218.412 149.934V156.757C218.412 160.53 215.358 163.584 211.586 163.584Z" fill="#1A428A"/>
<path d="M116.033 245.487H143.333V327.393H116.033V245.487Z" fill="#2A8EE6"/>
<path d="M143.333 334.216H116.033C112.26 334.216 109.206 331.166 109.206 327.393V245.487C109.206 241.714 112.26 238.664 116.033 238.664H143.333C147.105 238.664 150.16 241.714 150.16 245.487V327.393C150.16 331.166 147.105 334.216 143.333 334.216ZM122.856 320.566H136.51V252.313H122.856V320.566Z" fill="#1A428A"/>
<path d="M177.459 245.487L129.683 190.883L81.9067 245.487H177.459Z" fill="#6BC4E8"/>
<path d="M177.459 252.313H81.9066C79.2274 252.313 76.7982 250.747 75.6929 248.306C74.5799 245.865 75.0056 243.007 76.7669 240.995L124.543 186.392C127.14 183.42 132.221 183.42 134.819 186.392L182.599 240.995C184.356 243.007 184.782 245.865 183.673 248.306C182.568 250.747 180.138 252.313 177.459 252.313ZM96.9468 238.664H162.415L129.683 201.249L96.9468 238.664Z" fill="#1A428A"/>
<path d="M320.792 272.79H293.492V190.883H320.792V272.79Z" fill="#2A8EE6"/>
<path d="M320.792 279.613H293.492C289.72 279.613 286.666 276.563 286.666 272.79V190.883C286.666 187.111 289.72 184.06 293.492 184.06H320.792C324.565 184.06 327.619 187.111 327.619 190.883V272.79C327.619 276.563 324.565 279.613 320.792 279.613ZM300.319 265.963H313.969V197.71H300.319V265.963Z" fill="#1A428A"/>
<path d="M259.366 272.79L307.142 327.393L354.922 272.79H259.366Z" fill="#6BC4E8"/>
<path d="M307.142 334.216C305.178 334.216 303.303 333.372 302.002 331.884L254.226 277.281C252.465 275.27 252.039 272.411 253.152 269.97C254.257 267.529 256.683 265.963 259.366 265.963H354.922C357.601 265.963 360.027 267.529 361.132 269.97C362.245 272.411 361.819 275.27 360.062 277.281L312.282 331.884C310.981 333.372 309.11 334.216 307.142 334.216ZM274.41 279.613L307.142 317.028L339.878 279.613H274.41Z" fill="#1A428A"/>
<path d="M273.016 108.981C269.243 108.981 266.189 105.927 266.189 102.154V74.8542C266.189 71.0815 269.243 68.0273 273.016 68.0273C276.788 68.0273 279.842 71.0815 279.842 74.8542V102.154C279.842 105.927 276.788 108.981 273.016 108.981Z" fill="white"/>
<path d="M286.666 95.3308H259.366C255.593 95.3308 252.539 92.2767 252.539 88.504C252.539 84.7312 255.593 81.6771 259.366 81.6771H286.666C290.438 81.6771 293.492 84.7312 293.492 88.504C293.492 92.2767 290.438 95.3308 286.666 95.3308Z" fill="white"/>
</svg>
