<svg width="430" height="430" viewBox="0 0 430 430" fill="none" xmlns="http://www.w3.org/2000/svg">
<path fill-rule="evenodd" clip-rule="evenodd" d="M225.239 33.9009C168.695 33.9009 122.856 79.7361 122.856 136.28C122.856 192.824 168.695 238.664 225.239 238.664C281.78 238.664 327.619 192.824 327.619 136.28C327.619 79.7361 281.78 33.9009 225.239 33.9009V33.9009Z" fill="#1A428A"/>
<path d="M225.239 245.487C165.024 245.487 116.033 196.496 116.033 136.28C116.033 76.0651 165.024 27.0742 225.239 27.0742C285.455 27.0742 334.446 76.0651 334.446 136.28C334.446 196.496 285.455 245.487 225.239 245.487ZM225.239 40.724C172.546 40.724 129.683 83.591 129.683 136.28C129.683 188.974 172.546 231.837 225.239 231.837C277.929 231.837 320.792 188.974 320.792 136.28C320.792 83.591 277.929 40.724 225.239 40.724Z" fill="#1A428A"/>
<path d="M211.586 33.9009C155.045 33.9009 109.206 79.7361 109.206 136.28C109.206 192.824 155.045 238.664 211.586 238.664C268.13 238.664 313.969 192.824 313.969 136.28C313.969 79.7361 268.13 33.9009 211.586 33.9009V33.9009Z" fill="#D7E9FF"/>
<path d="M211.586 245.487C151.37 245.487 102.379 196.496 102.379 136.28C102.379 76.0651 151.37 27.0742 211.586 27.0742C271.801 27.0742 320.792 76.0651 320.792 136.28C320.792 196.496 271.801 245.487 211.586 245.487ZM211.586 40.724C158.896 40.724 116.033 83.591 116.033 136.28C116.033 188.974 158.896 231.837 211.586 231.837C264.279 231.837 307.142 188.974 307.142 136.28C307.142 83.591 264.279 40.724 211.586 40.724V40.724Z" fill="#1A428A"/>
<path d="M211.586 54.3774C166.352 54.3774 129.683 91.0464 129.683 136.28C129.683 181.514 166.352 218.187 211.586 218.187C256.823 218.187 293.492 181.514 293.492 136.28C293.492 91.0464 256.823 54.3774 211.586 54.3774Z" fill="#D7E9FF"/>
<path d="M211.586 225.01C162.661 225.01 122.856 185.205 122.856 136.28C122.856 87.3559 162.661 47.5508 211.586 47.5508C260.51 47.5508 300.319 87.3559 300.319 136.28C300.319 185.205 260.51 225.01 211.586 225.01ZM211.586 61.2006C170.187 61.2006 136.51 94.8818 136.51 136.28C136.51 177.679 170.187 211.36 211.586 211.36C252.988 211.36 286.665 177.679 286.665 136.28C286.665 94.8818 252.988 61.2006 211.586 61.2006Z" fill="#1A428A"/>
<path d="M150.16 143.107C146.387 143.107 143.333 140.053 143.333 136.28C143.333 118.057 150.433 100.916 163.325 88.0157C165.989 85.3522 170.308 85.3522 172.976 88.0157C175.639 90.6754 175.639 95.0027 172.976 97.6702C162.661 107.985 156.983 121.697 156.983 136.28C156.983 140.053 153.932 143.107 150.16 143.107Z" fill="white"/>
<path d="M189.504 98.5608C189.504 97.8422 189.984 97.3696 190.699 97.3696H220.893C238.081 97.3696 246.193 105.962 246.193 118.971C246.193 128.165 241.9 133.41 236.769 136.155V136.398C241.783 138.307 247.626 144.755 247.626 154.66C247.626 170.77 237.483 178.526 219.698 178.526H190.699C189.984 178.526 189.504 178.046 189.504 177.335V98.5608ZM220.537 131.141C227.696 131.141 232.117 126.849 232.117 120.522C232.117 114.077 227.696 109.777 220.537 109.777H204.302C203.829 109.777 203.587 110.02 203.587 110.492V130.43C203.587 130.902 203.829 131.141 204.302 131.141H220.537ZM204.302 166.115H221.252C229.129 166.115 233.543 161.576 233.543 154.777C233.543 148.091 229.129 143.552 221.252 143.552H204.302C203.829 143.552 203.587 143.795 203.587 144.271V165.396C203.587 165.876 203.829 166.115 204.302 166.115Z" fill="#1A428A"/>
<path d="M211.586 108.981C207.813 108.981 204.763 105.927 204.763 102.154V88.5041C204.763 84.7314 207.813 81.6772 211.586 81.6772C215.358 81.6772 218.412 84.7314 218.412 88.5041V102.154C218.412 105.927 215.358 108.981 211.586 108.981Z" fill="#1A428A"/>
<path d="M211.586 190.883C207.813 190.883 204.763 187.833 204.763 184.06V177.234C204.763 173.461 207.813 170.407 211.586 170.407C215.358 170.407 218.412 173.461 218.412 177.234V184.06C218.412 187.833 215.358 190.883 211.586 190.883Z" fill="#1A428A"/>
<path d="M136.51 395.646H20.4766V380.407C20.4766 369.928 30.6426 361.434 43.1872 361.434L78.4931 355.731L113.799 361.434C126.34 361.434 136.51 369.928 136.51 380.407V395.646Z" fill="#6BC4E8"/>
<path d="M136.51 402.473H20.4768C16.704 402.473 13.6499 399.419 13.6499 395.646V380.403C13.6499 366.347 26.5889 354.88 42.6055 354.615L77.4076 348.987C78.1262 348.87 78.8604 348.87 79.579 348.987L114.381 354.615C130.398 354.88 143.337 366.347 143.337 380.403V395.646C143.333 399.419 140.283 402.473 136.51 402.473V402.473ZM27.3036 388.819H129.683V380.403C129.683 373.701 122.555 368.257 113.799 368.257C113.432 368.257 113.073 368.229 112.71 368.171L78.4933 362.641L44.2731 368.171C43.9099 368.229 43.5506 368.257 43.1835 368.257C34.4273 368.257 27.2997 373.701 27.2997 380.403V388.819H27.3036Z" fill="#1A428A"/>
<path d="M68.2529 341.043H88.7296V368.346H68.2529V341.043Z" fill="#D7E9FF"/>
<path d="M88.7295 375.17H68.2529C64.4801 375.17 61.4299 372.119 61.4299 368.347V341.043C61.4299 337.27 64.4801 334.216 68.2529 334.216H88.7295C92.5023 334.216 95.5564 337.27 95.5564 341.043V368.347C95.5564 372.119 92.5023 375.17 88.7295 375.17ZM75.0797 361.52H81.9066V347.87H75.0797V361.52Z" fill="#1A428A"/>
<path d="M97.1226 347.87H59.7546C53.08 347.87 47.6709 342.457 47.6709 335.786V305.928C47.6709 291.396 59.4539 279.613 73.9863 279.613H82.8909C97.4234 279.613 109.206 291.396 109.206 305.928V335.786C109.206 342.457 103.797 347.87 97.1226 347.87Z" fill="#D7E9FF"/>
<path d="M97.1226 354.693H59.7545C49.3307 354.693 40.8479 346.21 40.8479 335.786V305.928C40.8479 287.654 55.7123 272.79 73.9863 272.79H82.8909C101.169 272.79 116.033 287.654 116.033 305.928V335.786C116.033 346.21 107.546 354.693 97.1226 354.693ZM73.9863 286.44C63.2422 286.44 54.4938 295.184 54.4938 305.928V335.786C54.4938 338.684 56.8566 341.043 59.7545 341.043H97.1187C100.02 341.043 102.379 338.684 102.379 335.786V305.928C102.379 295.184 93.635 286.44 82.8909 286.44H73.9863Z" fill="#1A428A"/>
<path d="M273.016 395.646H156.982V380.407C156.982 369.928 167.152 361.434 179.693 361.434L214.999 355.731L250.305 361.434C262.849 361.434 273.016 369.928 273.016 380.407V395.646Z" fill="#2A8EE6"/>
<path d="M273.016 402.473H156.983C153.21 402.473 150.16 399.419 150.16 395.646V380.403C150.16 366.347 163.095 354.88 179.115 354.615L213.913 348.987C214.636 348.87 215.37 348.87 216.089 348.987L250.887 354.615C266.907 354.88 279.843 366.347 279.843 380.403V395.646C279.843 399.419 276.788 402.473 273.016 402.473V402.473ZM163.809 388.819H266.189V380.403C266.189 373.701 259.065 368.257 250.305 368.257C249.938 368.257 249.579 368.229 249.219 368.171L214.999 362.641L180.779 368.171C180.42 368.229 180.06 368.257 179.693 368.257C170.933 368.257 163.809 373.701 163.809 380.403V388.819Z" fill="#1A428A"/>
<path d="M204.763 341.043H225.239V368.346H204.763V341.043Z" fill="#D7E9FF"/>
<path d="M225.239 375.17H204.763C200.99 375.17 197.936 372.119 197.936 368.347V341.043C197.936 337.27 200.99 334.216 204.763 334.216H225.239C229.012 334.216 232.062 337.27 232.062 341.043V368.347C232.062 372.119 229.012 375.17 225.239 375.17ZM211.586 361.52H218.412V347.87H211.586V361.52Z" fill="#1A428A"/>
<path d="M233.628 347.87H196.264C189.586 347.87 184.177 342.457 184.177 335.786V305.928C184.177 291.396 195.96 279.613 210.492 279.613H219.401C233.933 279.613 245.716 291.396 245.716 305.928V335.786C245.716 342.457 240.303 347.87 233.628 347.87Z" fill="#D7E9FF"/>
<path d="M233.628 354.693H196.264C185.84 354.693 177.354 346.21 177.354 335.786V305.928C177.354 287.654 192.218 272.79 210.496 272.79H219.401C237.678 272.79 252.543 287.654 252.543 305.928V335.786C252.539 346.21 244.052 354.693 233.628 354.693ZM210.492 286.44C199.748 286.44 191.004 295.184 191.004 305.928V335.786C191.004 338.684 193.362 341.043 196.264 341.043H233.628C236.526 341.043 238.885 338.684 238.885 335.786V305.928C238.885 295.184 230.141 286.44 219.397 286.44H210.492Z" fill="#1A428A"/>
<path d="M409.525 395.646H293.492V380.407C293.492 369.928 303.658 361.434 316.203 361.434L351.509 355.731L386.815 361.434C399.355 361.434 409.525 369.928 409.525 380.407V395.646Z" fill="#6BC4E8"/>
<path d="M409.525 402.473H293.492C289.72 402.473 286.666 399.419 286.666 395.646V380.403C286.666 366.347 299.605 354.88 315.621 354.615L350.423 348.987C351.142 348.87 351.876 348.87 352.595 348.987L387.397 354.615C403.413 354.88 416.352 366.347 416.352 380.403V395.646C416.348 399.419 413.298 402.473 409.525 402.473V402.473ZM300.319 388.819H402.699V380.403C402.699 373.701 395.571 368.257 386.815 368.257C386.448 368.257 386.088 368.229 385.725 368.171L351.509 362.641L317.289 368.171C316.926 368.229 316.566 368.257 316.199 368.257C307.443 368.257 300.315 373.701 300.315 380.403V388.819H300.319Z" fill="#1A428A"/>
<path d="M341.269 341.043H361.745V368.346H341.269V341.043Z" fill="#D7E9FF"/>
<path d="M361.745 375.17H341.269C337.496 375.17 334.446 372.119 334.446 368.347V341.043C334.446 337.27 337.496 334.216 341.269 334.216H361.745C365.518 334.216 368.572 337.27 368.572 341.043V368.347C368.572 372.119 365.518 375.17 361.745 375.17ZM348.095 361.52H354.922V347.87H348.095V361.52Z" fill="#1A428A"/>
<path d="M370.138 347.87H332.77C326.096 347.87 320.687 342.457 320.687 335.786V305.928C320.687 291.396 332.469 279.613 347.002 279.613H355.91C370.443 279.613 382.226 291.396 382.226 305.928V335.786C382.222 342.457 376.813 347.87 370.138 347.87V347.87Z" fill="#D7E9FF"/>
<path d="M370.138 354.693H332.774C322.346 354.693 313.864 346.21 313.864 335.786V305.928C313.864 287.654 328.728 272.79 347.002 272.79H355.91C374.184 272.79 389.049 287.654 389.049 305.928V335.786C389.049 346.21 380.562 354.693 370.138 354.693ZM347.002 286.44C336.258 286.44 327.513 295.184 327.513 305.928V335.786C327.513 338.684 329.872 341.043 332.77 341.043H370.134C373.036 341.043 375.395 338.684 375.395 335.786V305.928C375.395 295.184 366.651 286.44 355.906 286.44H347.002Z" fill="#1A428A"/>
<path d="M28.6548 313.744H0V225.01H40.9533V129.458H109.206V143.107H54.6031V238.664H13.6498V300.09H28.6548V313.744Z" fill="#1A428A"/>
<path d="M429.998 313.744H402.332V300.09H416.348V238.664H375.395V143.107H320.792V129.458H389.049V225.01H429.998V313.744Z" fill="#1A428A"/>
<path d="M88.7297 252.314C84.957 252.314 81.9067 249.26 81.9067 245.487V218.187C81.9067 214.414 84.957 211.36 88.7297 211.36C92.5024 211.36 95.5565 214.414 95.5565 218.187V245.487C95.5565 249.26 92.5024 252.314 88.7297 252.314Z" fill="#1A428A"/>
<path d="M102.379 238.664H75.0798C71.307 238.664 68.2529 235.61 68.2529 231.837C68.2529 228.064 71.307 225.01 75.0798 225.01H102.379C106.152 225.01 109.206 228.064 109.206 231.837C109.206 235.61 106.152 238.664 102.379 238.664Z" fill="#1A428A"/>
<path d="M375.395 102.154C371.622 102.154 368.572 99.1038 368.572 95.3311V68.0275C368.572 64.2548 371.622 61.2007 375.395 61.2007C379.168 61.2007 382.222 64.2548 382.222 68.0275V95.3311C382.222 99.1038 379.168 102.154 375.395 102.154Z" fill="#1A428A"/>
<path d="M389.049 88.5043H361.745C357.973 88.5043 354.922 85.4502 354.922 81.6774C354.922 77.9047 357.973 74.8545 361.745 74.8545H389.049C392.822 74.8545 395.872 77.9047 395.872 81.6774C395.872 85.4502 392.822 88.5043 389.049 88.5043V88.5043Z" fill="#1A428A"/>
</svg>
