<svg width="410" height="410" viewBox="0 0 410 410" fill="none" xmlns="http://www.w3.org/2000/svg">
<g clip-path="url(#clip0_1_2404)">
<path d="M402.773 204.801C402.773 314.137 314.137 402.773 204.801 402.773C95.4609 402.773 6.82812 314.137 6.82812 204.801C6.82812 95.4609 95.4609 6.82812 204.801 6.82812C314.137 6.82812 402.773 95.4609 402.773 204.801Z" fill="#2A8EE6"/>
<path d="M204.801 409.602C91.875 409.602 0 317.727 0 204.801C0 91.875 91.875 0 204.801 0C317.727 0 409.602 91.875 409.602 204.801C409.602 317.727 317.727 409.602 204.801 409.602ZM204.801 13.6523C99.3984 13.6523 13.6523 99.3984 13.6523 204.801C13.6523 310.199 99.3984 395.945 204.801 395.945C310.199 395.945 395.945 310.199 395.945 204.801C395.945 99.3984 310.199 13.6523 204.801 13.6523V13.6523Z" fill="#1A428A"/>
<path d="M382.293 204.801C382.293 302.828 302.828 382.293 204.801 382.293C106.773 382.293 27.3086 302.828 27.3086 204.801C27.3086 106.773 106.773 27.3086 204.801 27.3086C302.828 27.3086 382.293 106.773 382.293 204.801V204.801Z" fill="#6BC4E8"/>
<path d="M204.801 389.121C103.168 389.121 20.4805 306.434 20.4805 204.801C20.4805 103.168 103.168 20.4805 204.801 20.4805C306.434 20.4805 389.121 103.168 389.121 204.801C389.121 306.434 306.434 389.121 204.801 389.121V389.121ZM204.801 34.1328C110.691 34.1328 34.1328 110.691 34.1328 204.801C34.1328 298.906 110.691 375.465 204.801 375.465C298.906 375.465 375.465 298.906 375.465 204.801C375.465 110.691 298.906 34.1328 204.801 34.1328V34.1328Z" fill="#1A428A"/>
<path d="M127.234 75.0862C124.859 75.0862 122.555 73.8479 121.293 71.6408C119.426 68.3596 120.574 64.1916 123.848 62.3244C143.762 50.9846 165.434 44.0783 188.266 41.7854C192.066 41.4807 195.367 44.1526 195.742 47.8987C196.113 51.6526 193.379 54.9924 189.629 55.3713C168.707 57.4729 148.848 63.801 130.609 74.1916C129.539 74.801 128.379 75.0862 127.234 75.0862Z" fill="white"/>
<path d="M204.801 361.812C110.215 361.812 32.9297 287.82 27.6211 194.559C27.4297 197.949 27.3086 201.359 27.3086 204.801C27.3086 302.828 106.773 382.293 204.801 382.293C302.828 382.293 382.293 302.828 382.293 204.801C382.293 201.359 382.172 197.949 381.977 194.559C376.668 287.82 299.387 361.812 204.801 361.812V361.812Z" fill="#1A428A"/>
<path d="M204.801 389.121C103.168 389.121 20.4805 306.434 20.4805 204.801C20.4805 201.227 20.6055 197.688 20.8047 194.172C21.0117 190.559 24 187.734 27.6172 187.734C31.2383 187.734 34.2266 190.559 34.4336 194.172C39.5664 284.348 114.398 354.988 204.801 354.988C295.199 354.988 370.031 284.348 375.168 194.172C375.371 190.559 378.359 187.734 381.98 187.734C385.598 187.734 388.586 190.559 388.793 194.172C388.992 197.688 389.117 201.227 389.117 204.801C389.121 306.434 306.434 389.121 204.801 389.121ZM73.168 313.312C104.492 351.254 151.871 375.465 204.801 375.465C257.727 375.465 305.105 351.254 336.434 313.312C302.887 347.52 256.176 368.641 204.801 368.641C153.426 368.641 106.711 347.52 73.168 313.312V313.312Z" fill="#1A428A"/>
<path d="M307.199 102.398H102.398V143.359H184.32V320.852H225.281V143.359H307.199V102.398Z" fill="#D7E9FF"/>
<path d="M225.281 327.68H184.32C180.547 327.68 177.492 324.625 177.492 320.852V150.188H102.398C98.625 150.188 95.5742 147.133 95.5742 143.359V102.398C95.5742 98.625 98.625 95.5742 102.398 95.5742H307.199C310.973 95.5742 314.027 98.625 314.027 102.398V143.359C314.027 147.133 310.973 150.188 307.199 150.188H232.105V320.852C232.105 324.625 229.055 327.68 225.281 327.68V327.68ZM191.148 314.027H218.453V143.359C218.453 139.586 221.508 136.535 225.281 136.535H300.375V109.227H109.227V136.535H184.32C188.094 136.535 191.148 139.586 191.148 143.359V314.027Z" fill="#1A428A"/>
<path d="M204.801 238.933C195.02 238.933 109.227 238.168 109.227 211.625C109.227 192.32 154.574 186.668 181.605 185.012C185.426 184.844 188.605 187.644 188.832 191.414C189.066 195.172 186.199 198.414 182.434 198.64C144.559 200.953 126.82 208.078 123.273 211.637C128.207 216.879 157.539 225.277 204.801 225.277C252.055 225.277 281.387 216.879 286.328 211.644C282.84 208.164 265.582 201.172 228.801 198.746C225.043 198.492 222.195 195.246 222.441 191.476C222.688 187.711 225.906 184.918 229.707 185.117C256.094 186.867 300.375 192.625 300.375 211.625C300.375 238.168 214.578 238.933 204.801 238.933Z" fill="#1A428A"/>
<path d="M286.719 348.16C282.945 348.16 279.895 345.105 279.895 341.332V314.027C279.895 310.254 282.945 307.199 286.719 307.199C290.492 307.199 293.547 310.254 293.547 314.027V341.332C293.547 345.105 290.492 348.16 286.719 348.16Z" fill="white"/>
<path d="M300.375 334.508H273.066C269.293 334.508 266.238 331.453 266.238 327.68C266.238 323.906 269.293 320.852 273.066 320.852H300.375C304.148 320.852 307.199 323.906 307.199 327.68C307.199 331.453 304.148 334.508 300.375 334.508Z" fill="white"/>
</g>
<defs>
<clipPath id="clip0_1_2404">
<rect width="409.6" height="409.6" fill="white"/>
</clipPath>
</defs>
</svg>
