<svg width="430" height="430" viewBox="0 0 430 430" fill="none" xmlns="http://www.w3.org/2000/svg">
<g clip-path="url(#clip0_1_2418)">
<path d="M215.008 40.9463C109.459 40.9463 23.8953 126.51 23.8953 232.059C23.8953 337.611 109.459 423.175 215.008 423.175C320.56 423.175 406.124 337.611 406.124 232.059H215.008V40.9463Z" fill="#6BC4E8"/>
<path d="M215.008 429.998C105.866 429.998 17.0683 341.2 17.0683 232.059C17.0683 122.917 105.866 34.1191 215.008 34.1191C218.781 34.1191 221.835 37.1733 221.835 40.9461V225.236H406.124C409.893 225.236 412.951 228.286 412.951 232.059C412.951 341.2 324.154 429.998 215.008 429.998ZM208.185 47.8981C109.713 51.4951 30.7184 132.724 30.7184 232.059C30.7184 333.678 113.392 416.348 215.008 416.348C314.343 416.348 395.575 337.353 399.176 238.886H215.008C211.239 238.886 208.185 235.831 208.185 232.059V47.8981Z" fill="#1A428A"/>
<path d="M378.82 232.059C378.82 322.532 305.481 395.871 215.008 395.871C124.539 395.871 51.1954 322.532 51.1954 232.059C51.1954 141.59 124.539 68.2466 215.008 68.2466C305.481 68.2466 378.82 141.59 378.82 232.059Z" fill="#D7E9FF"/>
<path d="M215.008 402.698C120.918 402.698 44.3723 326.152 44.3723 232.059C44.3723 137.969 120.918 61.4233 215.008 61.4233C309.101 61.4233 385.647 137.969 385.647 232.059C385.647 326.152 309.101 402.698 215.008 402.698V402.698ZM215.008 75.0734C128.448 75.0734 58.0224 145.495 58.0224 232.059C58.0224 318.626 128.448 389.048 215.008 389.048C301.571 389.048 371.997 318.626 371.997 232.059C371.997 145.495 301.571 75.0734 215.008 75.0734V75.0734Z" fill="#1A428A"/>
<path d="M114.716 136.481C112.947 136.481 111.178 135.797 109.842 134.43C107.202 131.736 107.249 127.416 109.943 124.78C127.069 108.009 148.171 95.4487 170.968 88.4655C174.565 87.3367 178.393 89.3833 179.494 92.9881C180.6 96.5969 178.573 100.409 174.968 101.514C154.252 107.861 135.068 119.277 119.496 134.536C118.161 135.836 116.438 136.481 114.716 136.481Z" fill="white"/>
<path d="M215.008 368.571C129.139 368.571 58.7528 302.484 51.8086 218.409C51.4376 222.916 51.1954 227.458 51.1954 232.059C51.1954 322.532 124.539 395.871 215.008 395.871C305.481 395.871 378.82 322.532 378.82 232.059C378.82 227.458 378.582 222.916 378.211 218.409C371.267 302.484 300.88 368.571 215.008 368.571V368.571Z" fill="#1A428A"/>
<path d="M215.008 402.698C120.918 402.698 44.3723 326.152 44.3723 232.059C44.3723 227.688 44.5793 223.033 45.0051 217.85C45.2941 214.312 48.2545 211.582 51.8047 211.582C55.3549 211.582 58.3153 214.312 58.6082 217.85C65.2712 298.536 133.967 361.744 215.008 361.744C296.049 361.744 364.744 298.536 371.407 217.85C371.7 214.312 374.657 211.582 378.211 211.582C381.761 211.582 384.722 214.312 385.011 217.85C385.436 223.033 385.643 227.688 385.643 232.059C385.647 326.148 309.101 402.698 215.008 402.698V402.698ZM72.9457 298.84C98.086 352.097 152.315 389.044 215.008 389.044C277.7 389.044 331.934 352.097 357.074 298.84C326.243 345.001 273.588 375.394 215.008 375.394C156.428 375.394 103.773 345.001 72.9457 298.84V298.84Z" fill="#1A428A"/>
<path d="M172.964 166.238C172.964 164.941 173.823 164.082 175.116 164.082H226.998C256.489 164.082 271.127 179.154 271.127 202.615C271.127 219.627 262.945 229.958 251.541 234.476V234.91C261.441 237.71 273.713 249.115 273.713 268.705C273.713 296.048 256.489 310.472 225.92 310.472H175.116C173.823 310.472 172.964 309.612 172.964 308.32V166.238ZM226.568 227.376C242.71 227.376 252.181 218.124 252.181 204.56C252.181 190.566 242.71 181.521 226.568 181.521H193.41C192.551 181.521 192.121 181.954 192.121 182.817V226.087C192.121 226.946 192.551 227.376 193.41 227.376H226.568ZM193.414 293.037H227.646C245.081 293.037 254.556 283.562 254.556 268.928C254.556 254.5 245.081 244.811 227.646 244.811H193.414C192.555 244.811 192.125 245.244 192.125 246.103V291.744C192.125 292.603 192.555 293.037 193.414 293.037Z" fill="#1A428A"/>
<path d="M201.358 170.631C197.589 170.631 194.535 167.577 194.535 163.805V143.327C194.535 139.555 197.589 136.5 201.358 136.5C205.127 136.5 208.185 139.555 208.185 143.327V163.805C208.185 167.577 205.127 170.631 201.358 170.631Z" fill="#1A428A"/>
<path d="M221.835 170.631C218.066 170.631 215.008 167.577 215.008 163.805V143.327C215.008 139.555 218.066 136.5 221.835 136.5C225.604 136.5 228.662 139.555 228.662 143.327V163.805C228.662 167.577 225.604 170.631 221.835 170.631Z" fill="#1A428A"/>
<path d="M201.358 334.444C197.589 334.444 194.535 331.39 194.535 327.617V307.14C194.535 303.367 197.589 300.317 201.358 300.317C205.127 300.317 208.185 303.367 208.185 307.14V327.617C208.185 331.39 205.127 334.444 201.358 334.444Z" fill="#1A428A"/>
<path d="M221.835 334.444C218.066 334.444 215.008 331.39 215.008 327.617V307.14C215.008 303.367 218.066 300.317 221.835 300.317C225.604 300.317 228.662 303.367 228.662 307.14V327.617C228.662 331.39 225.604 334.444 221.835 334.444Z" fill="#1A428A"/>
<path d="M337.87 6.81934L276.439 150.155H331.043V238.886L406.124 102.374H337.87V6.81934Z" fill="#2A8EE6"/>
<path d="M331.043 245.713C330.481 245.713 329.91 245.642 329.344 245.498C326.325 244.725 324.216 241.999 324.216 238.886V156.978H276.439C274.146 156.978 272.002 155.826 270.741 153.912C269.475 151.994 269.26 149.573 270.167 147.468L331.598 4.13217C332.871 1.1522 336.066 -0.495963 339.241 0.132838C342.412 0.785073 344.693 3.57757 344.693 6.81922V95.5504H406.124C408.534 95.5504 410.768 96.8237 411.998 98.9014C413.225 100.975 413.264 103.549 412.1 105.662L337.022 242.17C335.804 244.389 333.492 245.713 331.043 245.713V245.713ZM286.789 143.328H331.043C334.812 143.328 337.87 146.382 337.87 150.155V212.312L394.579 109.201H337.87C334.101 109.201 331.043 106.146 331.043 102.374V40.0715L286.789 143.328Z" fill="#1A428A"/>
<path d="M324.216 341.267C320.447 341.267 317.393 338.217 317.393 334.444V307.14C317.393 303.367 320.447 300.317 324.216 300.317C327.989 300.317 331.043 303.367 331.043 307.14V334.444C331.043 338.217 327.989 341.267 324.216 341.267Z" fill="white"/>
<path d="M337.87 327.617H310.566C306.797 327.617 303.743 324.563 303.743 320.79C303.743 317.017 306.797 313.967 310.566 313.967H337.87C341.639 313.967 344.693 317.017 344.693 320.79C344.693 324.563 341.639 327.617 337.87 327.617Z" fill="white"/>
</g>
<defs>
<clipPath id="clip0_1_2418">
<rect width="430" height="430" fill="white"/>
</clipPath>
</defs>
</svg>
