<svg width="433" height="433" viewBox="0 0 433 433" fill="none" xmlns="http://www.w3.org/2000/svg">
<g clip-path="url(#clip0_1_2485)">
<path d="M235.253 383.518C235.253 402.348 219.989 417.612 201.158 417.612C182.328 417.612 167.064 402.348 167.064 383.518C167.064 364.688 182.328 349.424 201.158 349.424C219.989 349.424 235.253 364.688 235.253 383.518Z" fill="#1A428A"/>
<path d="M201.159 424.432C178.598 424.432 160.244 406.078 160.244 383.518C160.244 360.957 178.598 342.603 201.159 342.603C223.719 342.603 242.073 360.957 242.073 383.518C242.073 406.078 223.719 424.432 201.159 424.432ZM201.159 356.244C186.117 356.244 173.881 368.476 173.881 383.518C173.881 398.563 186.117 410.795 201.159 410.795C216.2 410.795 228.432 398.563 228.432 383.518C228.432 368.476 216.2 356.244 201.159 356.244Z" fill="#1A428A"/>
<path d="M235.253 63.0297C235.253 81.8599 219.989 97.1238 201.158 97.1238C182.328 97.1238 167.064 81.8599 167.064 63.0297C167.064 44.1995 182.328 28.9355 201.158 28.9355C219.989 28.9355 235.253 44.1995 235.253 63.0297Z" fill="#1A428A"/>
<path d="M201.159 103.944C178.598 103.944 160.244 85.5901 160.244 63.0298C160.244 40.4694 178.598 22.1152 201.159 22.1152C223.719 22.1152 242.073 40.4694 242.073 63.0298C242.073 85.5901 223.719 103.944 201.159 103.944ZM201.159 35.7521C186.117 35.7521 173.881 47.9882 173.881 63.0298C173.881 78.0713 186.117 90.3035 201.159 90.3035C216.2 90.3035 228.432 78.0713 228.432 63.0298C228.432 47.9882 216.2 35.7521 201.159 35.7521Z" fill="#1A428A"/>
<path d="M395.497 223.274C395.497 242.104 380.233 257.368 361.402 257.368C342.572 257.368 327.308 242.104 327.308 223.274C327.308 204.444 342.572 189.18 361.402 189.18C380.233 189.18 395.497 204.444 395.497 223.274Z" fill="#1A428A"/>
<path d="M361.403 264.188C338.842 264.188 320.488 245.834 320.488 223.274C320.488 200.714 338.842 182.359 361.403 182.359C383.963 182.359 402.317 200.714 402.317 223.274C402.317 245.834 383.967 264.188 361.403 264.188ZM361.403 196C346.361 196 334.129 208.232 334.129 223.274C334.129 238.315 346.361 250.552 361.403 250.552C376.444 250.552 388.68 238.315 388.68 223.274C388.68 208.232 376.444 196 361.403 196Z" fill="#1A428A"/>
<path d="M75.0087 223.274C75.0087 242.104 59.7448 257.368 40.9146 257.368C22.0844 257.368 6.82043 242.104 6.82043 223.274C6.82043 204.444 22.0844 189.18 40.9146 189.18C59.7448 189.18 75.0087 204.444 75.0087 223.274Z" fill="#1A428A"/>
<path d="M40.9145 264.188C18.3542 264.188 0 245.834 0 223.274C0 200.714 18.3542 182.359 40.9145 182.359C63.4749 182.359 81.829 200.714 81.829 223.274C81.829 245.834 63.4749 264.188 40.9145 264.188ZM40.9145 196C25.8691 196 13.6369 208.232 13.6369 223.274C13.6369 238.315 25.8691 250.552 40.9145 250.552C55.9561 250.552 68.1883 238.315 68.1883 223.274C68.1883 208.232 55.9561 196 40.9145 196Z" fill="#1A428A"/>
<path d="M338.573 312.477C325.256 299.161 303.671 299.161 290.354 312.477C277.041 325.79 277.041 347.379 290.354 360.692C303.671 374.009 325.256 374.009 338.573 360.692C351.886 347.379 351.886 325.79 338.573 312.477V312.477Z" fill="#1A428A"/>
<path d="M314.471 377.501C303.542 377.501 293.265 373.244 285.536 365.515C269.589 349.564 269.589 323.609 285.536 307.654C301.49 291.7 327.457 291.7 343.396 307.654C351.129 315.384 355.382 325.657 355.382 336.586C355.382 347.515 351.129 357.789 343.396 365.515C335.674 373.244 325.397 377.501 314.471 377.501ZM314.471 309.324C307.483 309.324 300.499 311.982 295.181 317.296C284.544 327.928 284.544 345.237 295.181 355.869C305.489 366.178 323.446 366.178 333.754 355.869C338.909 350.719 341.749 343.871 341.749 336.586C341.749 329.302 338.912 322.45 333.754 317.296C328.44 311.978 321.456 309.324 314.471 309.324Z" fill="#1A428A"/>
<path d="M111.955 85.8554C98.6419 72.5423 77.0532 72.5423 63.7362 85.8554C50.4232 99.1684 50.4232 120.757 63.7362 134.07C77.0532 147.387 98.6419 147.387 111.955 134.07C125.268 120.757 125.268 99.1684 111.955 85.8554Z" fill="#1A428A"/>
<path d="M87.8496 150.856C77.3732 150.856 66.8929 146.876 58.9215 138.897C51.188 131.167 46.9351 120.89 46.9351 109.961C46.9351 99.0319 51.188 88.7584 58.9215 81.0328C66.6432 73.3033 76.9206 69.0503 87.8496 69.0503C98.7747 69.0503 109.052 73.3033 116.782 81.0328C132.732 96.9834 132.732 122.938 116.782 138.893C108.802 146.876 98.3221 150.856 87.8496 150.856ZM87.8496 82.6872C80.5649 82.6872 73.7172 85.5238 68.5629 90.6781C63.4125 95.8324 60.5719 102.676 60.5719 109.961C60.5719 117.246 63.4086 124.101 68.5629 129.252C79.1914 139.88 96.4999 139.88 107.14 129.252C117.777 118.619 117.777 101.311 107.14 90.6781C101.986 85.5238 95.1343 82.6872 87.8496 82.6872Z" fill="#1A428A"/>
<path d="M111.955 312.474C98.638 299.161 77.0493 299.161 63.7362 312.474C50.4232 325.79 50.4232 347.375 63.7362 360.692C77.0493 374.005 98.638 374.005 111.955 360.692C125.268 347.375 125.268 325.79 111.955 312.474Z" fill="#1A428A"/>
<path d="M87.8496 377.501C76.9206 377.501 66.6432 373.244 58.9215 365.515C51.188 357.789 46.9351 347.512 46.9351 336.586C46.9351 325.657 51.188 315.384 58.9215 307.65C74.8643 291.696 100.827 291.696 116.782 307.65C132.728 323.605 132.728 349.564 116.782 365.511C109.048 373.244 98.7747 377.501 87.8496 377.501V377.501ZM87.8496 309.324C80.8614 309.324 73.885 311.982 68.5629 317.296C63.4125 322.45 60.5719 329.302 60.5719 336.586C60.5719 343.871 63.4086 350.715 68.5629 355.869C78.8715 366.178 96.8316 366.178 107.14 355.869C117.777 345.237 117.777 327.928 107.14 317.292C101.818 311.978 94.8338 309.324 87.8496 309.324V309.324Z" fill="#1A428A"/>
<path d="M214.795 383.518C124.558 383.518 51.1412 310.101 51.1412 219.864C51.1412 129.626 124.558 56.2095 214.795 56.2095C218.565 56.2095 221.616 59.2607 221.616 63.0299C221.616 66.799 218.565 69.8463 214.795 69.8463C132.077 69.8463 64.7781 137.145 64.7781 219.864C64.7781 302.582 132.077 369.881 214.795 369.881C297.514 369.881 364.813 302.582 364.813 219.864C364.813 216.095 367.864 213.047 371.633 213.047C375.402 213.047 378.45 216.095 378.45 219.864C378.45 310.101 305.033 383.518 214.795 383.518V383.518Z" fill="#1A428A"/>
<path d="M248.89 383.517C248.89 402.348 233.626 417.612 214.795 417.612C195.965 417.612 180.701 402.348 180.701 383.517C180.701 364.687 195.965 349.423 214.795 349.423C233.626 349.423 248.89 364.687 248.89 383.517Z" fill="#2A8EE6"/>
<path d="M214.795 424.432C192.235 424.432 173.881 406.078 173.881 383.518C173.881 360.957 192.235 342.603 214.795 342.603C237.356 342.603 255.71 360.957 255.71 383.518C255.71 406.078 237.36 424.432 214.795 424.432ZM214.795 356.244C199.754 356.244 187.522 368.476 187.522 383.518C187.522 398.563 199.754 410.795 214.795 410.795C229.841 410.795 242.073 398.563 242.073 383.518C242.073 368.476 229.841 356.244 214.795 356.244Z" fill="#1A428A"/>
<path d="M248.89 63.0297C248.89 81.8599 233.626 97.1238 214.795 97.1238C195.965 97.1238 180.701 81.8599 180.701 63.0297C180.701 44.1995 195.965 28.9355 214.795 28.9355C233.626 28.9355 248.89 44.1995 248.89 63.0297Z" fill="#2A8EE6"/>
<path d="M214.795 103.944C192.235 103.944 173.881 85.5901 173.881 63.0298C173.881 40.4694 192.235 22.1152 214.795 22.1152C237.356 22.1152 255.71 40.4694 255.71 63.0298C255.71 85.5901 237.36 103.944 214.795 103.944ZM214.795 35.7521C199.754 35.7521 187.522 47.9882 187.522 63.0298C187.522 78.0713 199.754 90.3035 214.795 90.3035C229.841 90.3035 242.073 78.0713 242.073 63.0298C242.073 47.9882 229.841 35.7521 214.795 35.7521Z" fill="#1A428A"/>
<path d="M409.137 223.273C409.137 242.104 393.87 257.367 375.039 257.367C356.213 257.367 340.945 242.104 340.945 223.273C340.945 204.443 356.213 189.179 375.039 189.179C393.87 189.179 409.137 204.443 409.137 223.273V223.273Z" fill="#2A8EE6"/>
<path d="M375.039 264.188C352.479 264.188 334.129 245.834 334.129 223.273C334.129 200.713 352.479 182.359 375.039 182.359C397.6 182.359 415.954 200.713 415.954 223.273C415.954 245.834 397.604 264.188 375.039 264.188V264.188ZM375.039 196C359.998 196 347.766 208.232 347.766 223.273C347.766 238.315 359.998 250.551 375.039 250.551C390.085 250.551 402.317 238.315 402.317 223.273C402.317 208.232 390.085 196 375.039 196V196Z" fill="#1A428A"/>
<path d="M88.6455 223.273C88.6455 242.104 73.3816 257.367 54.5514 257.367C35.7212 257.367 20.4573 242.104 20.4573 223.273C20.4573 204.443 35.7212 189.179 54.5514 189.179C73.3816 189.179 88.6455 204.443 88.6455 223.273Z" fill="#2A8EE6"/>
<path d="M54.5514 264.188C31.991 264.188 13.6368 245.834 13.6368 223.273C13.6368 200.713 31.991 182.359 54.5514 182.359C77.1117 182.359 95.4659 200.713 95.4659 223.273C95.4659 245.834 77.1117 264.188 54.5514 264.188ZM54.5514 196C39.5098 196 27.2776 208.232 27.2776 223.273C27.2776 238.315 39.5098 250.551 54.5514 250.551C69.5929 250.551 81.829 238.315 81.829 223.273C81.829 208.232 69.5929 196 54.5514 196Z" fill="#1A428A"/>
<path d="M352.21 312.477C338.897 299.16 317.308 299.16 303.995 312.477C290.678 325.79 290.678 347.379 303.995 360.692C317.308 374.009 338.897 374.009 352.21 360.692C365.523 347.379 365.523 325.79 352.21 312.477V312.477Z" fill="#2A8EE6"/>
<path d="M328.108 377.501C317.179 377.501 306.906 373.244 299.172 365.515C283.226 349.564 283.226 323.609 299.172 307.654C315.127 291.7 341.094 291.7 357.032 307.654C364.766 315.384 369.019 325.657 369.019 336.586C369.019 347.515 364.766 357.789 357.032 365.515C349.311 373.244 339.037 377.501 328.108 377.501V377.501ZM328.108 309.324C321.124 309.324 314.14 311.982 308.818 317.296C298.185 327.928 298.185 345.237 308.818 355.869C319.126 366.178 337.086 366.178 347.395 355.869C352.545 350.719 355.386 343.871 355.386 336.586C355.386 329.302 352.549 322.45 347.395 317.296C342.077 311.978 335.093 309.324 328.108 309.324V309.324Z" fill="#1A428A"/>
<path d="M125.592 85.8554C112.279 72.5423 90.6901 72.5423 77.3771 85.8554C64.0602 99.1684 64.0602 120.757 77.3771 134.07C90.6901 147.387 112.279 147.387 125.592 134.07C138.909 120.757 138.909 99.1684 125.592 85.8554Z" fill="#2A8EE6"/>
<path d="M101.486 150.856C91.01 150.856 80.5297 146.876 72.5583 138.897C64.8288 131.167 60.5719 120.89 60.5719 109.961C60.5719 99.0319 64.8288 88.7584 72.5583 81.0328C80.2839 73.3033 90.5574 69.0503 101.486 69.0503C112.412 69.0503 122.689 73.3033 130.422 81.0328C146.369 96.9834 146.369 122.938 130.422 138.893C122.439 146.876 111.959 150.856 101.486 150.856ZM101.486 82.6872C94.2017 82.6872 87.354 85.5238 82.2036 90.6781C77.0493 95.8324 74.2088 102.676 74.2088 109.961C74.2088 117.246 77.0454 124.101 82.2036 129.252C92.8283 139.88 110.137 139.88 120.777 129.252C131.413 118.619 131.413 101.311 120.777 90.6781C115.623 85.5238 108.771 82.6872 101.486 82.6872Z" fill="#1A428A"/>
<path d="M125.592 312.473C112.275 299.16 90.6901 299.16 77.3732 312.473C64.0602 325.79 64.0602 347.375 77.3732 360.692C90.6901 374.005 112.275 374.005 125.592 360.692C138.905 347.375 138.905 325.79 125.592 312.473Z" fill="#2A8EE6"/>
<path d="M101.486 377.501C90.5574 377.501 80.2839 373.244 72.5583 365.515C64.8288 357.789 60.5719 347.512 60.5719 336.586C60.5719 325.657 64.8288 315.384 72.5583 307.65C88.5012 291.696 114.464 291.696 130.418 307.65C146.365 323.605 146.365 349.564 130.418 365.511C122.689 373.244 112.412 377.501 101.486 377.501V377.501ZM101.486 309.324C94.4983 309.324 87.5218 311.982 82.2036 317.296C77.0493 322.45 74.2088 329.302 74.2088 336.586C74.2088 343.871 77.0454 350.715 82.2036 355.869C92.5122 366.178 110.468 366.178 120.777 355.869C131.413 345.237 131.413 327.928 120.777 317.292C115.455 311.978 108.471 309.324 101.486 309.324V309.324Z" fill="#1A428A"/>
<path d="M364.813 76.6663C361.044 76.6663 357.992 73.6151 357.992 69.8459V56.2091C357.992 52.4399 361.044 49.3926 364.813 49.3926C368.582 49.3926 371.633 52.4399 371.633 56.2091V69.8459C371.633 73.6151 368.582 76.6663 364.813 76.6663Z" fill="#1A428A"/>
<path d="M364.813 144.855C361.044 144.855 357.992 141.807 357.992 138.038V103.944C357.992 100.175 361.044 97.1235 364.813 97.1235C368.582 97.1235 371.633 100.175 371.633 103.944V138.038C371.633 141.807 368.582 144.855 364.813 144.855Z" fill="#1A428A"/>
<path d="M364.813 192.59C361.044 192.59 357.992 189.538 357.992 185.769V172.132C357.992 168.363 361.044 165.312 364.813 165.312C368.582 165.312 371.633 168.363 371.633 172.132V185.769C371.633 189.538 368.582 192.59 364.813 192.59Z" fill="#1A428A"/>
<path d="M385.27 76.6663C381.501 76.6663 378.45 73.6151 378.45 69.8459V56.2091C378.45 52.4399 381.501 49.3926 385.27 49.3926C389.039 49.3926 392.09 52.4399 392.09 56.2091V69.8459C392.09 73.6151 389.039 76.6663 385.27 76.6663Z" fill="#1A428A"/>
<path d="M385.27 144.855C381.501 144.855 378.45 141.807 378.45 138.038V103.944C378.45 100.175 381.501 97.1235 385.27 97.1235C389.039 97.1235 392.09 100.175 392.09 103.944V138.038C392.09 141.807 389.039 144.855 385.27 144.855Z" fill="#1A428A"/>
<path d="M385.27 192.59C381.501 192.59 378.45 189.538 378.45 185.769V172.132C378.45 168.363 381.501 165.312 385.27 165.312C389.039 165.312 392.09 168.363 392.09 172.132V185.769C392.09 189.538 389.039 192.59 385.27 192.59Z" fill="#1A428A"/>
<path d="M426.184 69.8459C424.518 69.8459 422.848 69.2411 421.53 68.016L375.039 24.6277L328.553 68.016C325.791 70.5873 321.487 70.4351 318.912 67.6843C316.348 64.9296 316.492 60.6142 319.243 58.0429L370.384 10.308C373.01 7.87325 377.072 7.87325 379.694 10.308L430.835 58.0429C433.586 60.6142 433.734 64.9296 431.171 67.6843C429.825 69.1202 428.01 69.8459 426.184 69.8459V69.8459Z" fill="#1A428A"/>
<path d="M296.624 219.863C296.624 174.672 259.99 138.038 214.795 138.038C169.604 138.038 132.97 174.672 132.97 219.863C132.97 265.058 169.604 301.692 214.795 301.692C259.99 301.692 296.624 265.058 296.624 219.863Z" fill="#D7E9FF"/>
<path d="M214.795 308.509C165.917 308.509 126.15 268.741 126.15 219.863C126.15 170.985 165.917 131.218 214.795 131.218C263.674 131.218 303.441 170.985 303.441 219.863C303.441 268.741 263.674 308.509 214.795 308.509V308.509ZM214.795 144.855C173.436 144.855 139.787 178.504 139.787 219.863C139.787 261.223 173.436 294.872 214.795 294.872C256.155 294.872 289.804 261.223 289.804 219.863C289.804 178.504 256.155 144.855 214.795 144.855V144.855Z" fill="#1A428A"/>
<path d="M163.916 260.996C161.723 260.996 159.573 259.947 158.262 257.992C150.638 246.72 146.607 233.527 146.607 219.863C146.607 210.663 148.414 201.732 151.968 193.323C153.435 189.858 157.45 188.235 160.907 189.698C164.376 191.161 165.991 195.165 164.528 198.633C161.684 205.352 160.248 212.501 160.248 219.863C160.248 230.8 163.471 241.347 169.558 250.364C171.669 253.481 170.849 257.723 167.724 259.826C166.557 260.618 165.227 260.996 163.916 260.996Z" fill="white"/>
<path d="M192.734 175.363C192.734 174.641 193.214 174.169 193.928 174.169H224.093C241.265 174.169 249.369 182.753 249.369 195.754C249.369 204.935 245.081 210.175 239.954 212.918V213.16C244.964 215.072 250.801 221.51 250.801 231.405C250.801 247.5 240.668 255.253 222.899 255.253H193.928C193.214 255.253 192.734 254.773 192.734 254.059V175.363ZM223.738 207.912C230.89 207.912 235.307 203.62 235.307 197.303C235.307 190.865 230.89 186.569 223.738 186.569H207.519C207.046 186.569 206.804 186.807 206.804 187.279V207.198C206.804 207.67 207.046 207.912 207.519 207.912H223.738ZM207.519 242.849H224.452C232.326 242.849 236.731 238.315 236.731 231.522C236.731 224.842 232.326 220.308 224.452 220.308H207.519C207.046 220.308 206.804 220.55 206.804 221.03V242.131C206.804 242.611 207.046 242.849 207.519 242.849Z" fill="#1A428A"/>
<path d="M214.795 185.769C211.026 185.769 207.979 182.718 207.979 178.949V165.312C207.979 161.543 211.026 158.496 214.795 158.496C218.565 158.496 221.616 161.543 221.616 165.312V178.949C221.616 182.718 218.565 185.769 214.795 185.769Z" fill="#1A428A"/>
<path d="M214.795 267.598C211.026 267.598 207.979 264.547 207.979 260.778V253.958C207.979 250.188 211.026 247.141 214.795 247.141C218.565 247.141 221.616 250.188 221.616 253.958V260.778C221.616 264.547 218.565 267.598 214.795 267.598Z" fill="#1A428A"/>
<path d="M214.795 185.769C211.026 185.769 207.979 182.718 207.979 178.949V165.312C207.979 161.543 211.026 158.496 214.795 158.496C218.565 158.496 221.616 161.543 221.616 165.312V178.949C221.616 182.718 218.565 185.769 214.795 185.769Z" fill="#1A428A"/>
<path d="M214.795 267.598C211.026 267.598 207.979 264.547 207.979 260.778V253.958C207.979 250.188 211.026 247.141 214.795 247.141C218.565 247.141 221.616 250.188 221.616 253.958V260.778C221.616 264.547 218.565 267.598 214.795 267.598Z" fill="#1A428A"/>
<path d="M310.261 117.581C306.492 117.581 303.441 114.53 303.441 110.76V97.1236C303.441 93.3544 306.492 90.3032 310.261 90.3032C314.03 90.3032 317.082 93.3544 317.082 97.1236V110.76C317.082 114.53 314.03 117.581 310.261 117.581Z" fill="#1A428A"/>
<path d="M310.261 131.218C306.492 131.218 303.441 128.167 303.441 124.398V110.761C303.441 106.992 306.492 103.944 310.261 103.944C314.03 103.944 317.082 106.992 317.082 110.761V124.398C317.082 128.167 314.03 131.218 310.261 131.218Z" fill="#1A428A"/>
<path d="M310.261 117.581H296.624C292.855 117.581 289.804 114.53 289.804 110.761C289.804 106.992 292.855 103.944 296.624 103.944H310.261C314.031 103.944 317.082 106.992 317.082 110.761C317.082 114.53 314.031 117.581 310.261 117.581Z" fill="#1A428A"/>
<path d="M323.898 117.581H310.261C306.492 117.581 303.441 114.53 303.441 110.761C303.441 106.992 306.492 103.944 310.261 103.944H323.898C327.667 103.944 330.719 106.992 330.719 110.761C330.719 114.53 327.667 117.581 323.898 117.581Z" fill="#1A428A"/>
</g>
<defs>
<clipPath id="clip0_1_2485">
<rect width="433" height="433" fill="white"/>
</clipPath>
</defs>
</svg>
