<svg width="436" height="436" viewBox="0 0 436 436" fill="none" xmlns="http://www.w3.org/2000/svg">
<g clip-path="url(#clip0_1_2535)">
<path d="M170.314 259.515C151.014 268.091 128.3 268.091 109 259.515V211.825H170.314V259.515Z" fill="#6BC4E8"/>
<path d="M139.655 272.714C128.179 272.714 116.699 270.391 106.232 265.74C103.776 264.645 102.186 262.209 102.186 259.515V211.825C102.186 208.06 105.238 205.015 109 205.015H170.314C174.076 205.015 177.124 208.06 177.124 211.825V259.515C177.124 262.209 175.537 264.645 173.082 265.74C162.615 270.391 151.135 272.714 139.655 272.714ZM170.314 259.515H170.38H170.314ZM115.814 254.923C131.021 260.497 148.289 260.497 163.5 254.923V218.639H115.814V254.923Z" fill="#1A428A"/>
<path d="M265.686 348.077H13.624V314.261C13.624 291.012 35.7109 272.165 62.9589 272.165L139.655 259.515L216.355 272.165C243.599 272.165 265.686 291.012 265.686 314.261V348.077Z" fill="#D7E9FF"/>
<path d="M265.686 354.887H13.624C9.86231 354.887 6.81396 351.843 6.81396 348.077V314.261C6.81396 287.465 31.688 265.627 62.382 265.355L138.548 252.795C139.281 252.674 140.033 252.674 140.766 252.795L216.932 265.355C247.626 265.627 272.5 287.461 272.5 314.261V348.077C272.5 351.843 269.451 354.887 265.686 354.887ZM20.438 341.263H258.876V314.261C258.876 294.809 239.802 278.979 216.355 278.979C215.984 278.979 215.614 278.947 215.248 278.885L139.655 266.419L64.0621 278.885C63.6957 278.947 63.3293 278.979 62.955 278.979C39.5116 278.979 20.438 294.809 20.438 314.261V341.263Z" fill="#1A428A"/>
<path d="M176.216 225.45H103.094C87.5446 225.45 74.938 212.843 74.938 197.293V136.888C74.938 103.028 102.389 75.5776 136.252 75.5776H143.062C176.925 75.5776 204.376 103.028 204.376 136.888V197.293C204.376 212.843 191.769 225.45 176.216 225.45Z" fill="#D7E9FF"/>
<path d="M176.216 232.264H103.094C83.8141 232.264 68.124 216.577 68.124 197.297V136.888C68.124 99.3251 98.6855 68.7637 136.252 68.7637H143.062C180.628 68.7637 211.186 99.3251 211.186 136.888V197.297C211.186 216.577 195.5 232.264 176.216 232.264ZM136.252 82.3877C106.197 82.3877 81.7519 106.837 81.7519 136.888V197.297C81.7519 209.066 91.3258 218.64 103.094 218.64H176.216C187.984 218.64 197.562 209.066 197.562 197.297V136.888C197.562 106.837 173.113 82.3877 143.062 82.3877H136.252Z" fill="#1A428A"/>
<path d="M143.062 259.515H81.752V293.577L143.062 259.515Z" fill="white"/>
<path d="M81.7519 300.387C80.5552 300.387 79.3624 300.075 78.2943 299.452C76.2166 298.224 74.938 295.99 74.938 293.577V259.515C74.938 255.75 77.9863 252.701 81.7519 252.701H143.062C146.165 252.701 148.878 254.794 149.658 257.804C150.437 260.813 149.085 263.963 146.371 265.468L85.0576 299.53C84.0285 300.103 82.8863 300.387 81.7519 300.387ZM88.562 266.325V282L116.773 266.325H88.562Z" fill="#1A428A"/>
<path d="M136.252 259.515H197.562V293.577L136.252 259.515Z" fill="white"/>
<path d="M197.562 300.387C196.424 300.387 195.285 300.103 194.252 299.53L132.942 265.468C130.229 263.963 128.877 260.813 129.652 257.804C130.436 254.794 133.145 252.701 136.252 252.701H197.562C201.324 252.701 204.376 255.75 204.376 259.515V293.577C204.376 295.99 203.097 298.224 201.019 299.452C199.951 300.075 198.755 300.387 197.562 300.387ZM162.541 266.325L190.752 282V266.325H162.541Z" fill="#1A428A"/>
<path d="M422.376 150.516C422.376 188.137 391.873 218.64 354.252 218.64C316.627 218.64 286.124 188.137 286.124 150.516C286.124 112.891 316.627 82.3877 354.252 82.3877C391.873 82.3877 422.376 112.891 422.376 150.516V150.516Z" fill="#D7E9FF"/>
<path d="M354.252 225.45C312.927 225.45 279.314 191.836 279.314 150.516C279.314 109.191 312.927 75.5776 354.252 75.5776C395.572 75.5776 429.186 109.191 429.186 150.516C429.186 191.836 395.572 225.45 354.252 225.45V225.45ZM354.252 89.2016C320.443 89.2016 292.938 116.703 292.938 150.516C292.938 184.324 320.443 211.826 354.252 211.826C388.056 211.826 415.562 184.324 415.562 150.516C415.562 116.703 388.056 89.2016 354.252 89.2016V89.2016Z" fill="#1A428A"/>
<path d="M405.345 279.949H303.155C293.788 279.949 286.124 272.285 286.124 262.918C286.124 253.551 293.788 245.887 303.155 245.887H405.345C414.712 245.887 422.376 253.551 422.376 262.918C422.376 272.285 414.712 279.949 405.345 279.949Z" fill="#2A8EE6"/>
<path d="M405.345 286.763H303.155C290.01 286.763 279.314 276.067 279.314 262.918C279.314 249.774 290.01 239.077 303.155 239.077H405.345C418.489 239.077 429.186 249.774 429.186 262.918C429.186 276.067 418.489 286.763 405.345 286.763ZM303.155 252.701C297.522 252.701 292.938 257.285 292.938 262.918C292.938 268.555 297.522 273.139 303.155 273.139H405.345C410.981 273.139 415.562 268.555 415.562 262.918C415.562 257.285 410.981 252.701 405.345 252.701H303.155Z" fill="#1A428A"/>
<path d="M405.345 348.077H303.155C293.788 348.077 286.124 340.413 286.124 331.046C286.124 321.679 293.788 314.015 303.155 314.015H405.345C414.712 314.015 422.376 321.679 422.376 331.046C422.376 340.413 414.712 348.077 405.345 348.077V348.077Z" fill="#2A8EE6"/>
<path d="M405.345 354.887H303.155C290.01 354.887 279.314 344.191 279.314 331.046C279.314 317.898 290.01 307.201 303.155 307.201H405.345C418.489 307.201 429.186 317.898 429.186 331.046C429.186 344.191 418.489 354.887 405.345 354.887ZM303.155 320.825C297.522 320.825 292.938 325.409 292.938 331.046C292.938 336.679 297.522 341.263 303.155 341.263H405.345C410.981 341.263 415.562 336.679 415.562 331.046C415.562 325.409 410.981 320.825 405.345 320.825H303.155Z" fill="#1A428A"/>
<path d="M405.345 314.015H303.155C293.788 314.015 286.124 306.351 286.124 296.984C286.124 287.617 293.788 279.949 303.155 279.949H405.345C414.712 279.949 422.376 287.617 422.376 296.984C422.376 306.351 414.712 314.015 405.345 314.015Z" fill="#2A8EE6"/>
<path d="M405.345 320.825H303.155C290.01 320.825 279.314 310.129 279.314 296.984C279.314 283.836 290.01 273.139 303.155 273.139H405.345C418.489 273.139 429.186 283.836 429.186 296.984C429.186 310.129 418.489 320.825 405.345 320.825ZM303.155 286.763C297.522 286.763 292.938 291.347 292.938 296.984C292.938 302.617 297.522 307.201 303.155 307.201H405.345C410.981 307.201 415.562 302.617 415.562 296.984C415.562 291.347 410.981 286.763 405.345 286.763H303.155Z" fill="#1A428A"/>
<path d="M334.609 118.742C334.609 118.176 334.979 117.802 335.544 117.802H359.241C372.725 117.802 379.095 124.542 379.095 134.751C379.095 141.963 375.723 146.083 371.696 148.239V148.422C375.629 149.927 380.221 154.983 380.221 162.756C380.221 175.401 372.257 181.49 358.302 181.49H335.544C334.979 181.49 334.609 181.116 334.609 180.551V118.742ZM358.957 144.306C364.578 144.306 368.043 140.934 368.043 135.968C368.043 130.912 364.578 127.54 358.957 127.54H346.221C345.843 127.54 345.656 127.727 345.656 128.097V143.748C345.656 144.119 345.843 144.306 346.221 144.306H358.957ZM346.221 171.749H359.518C365.704 171.749 369.166 168.19 369.166 162.849C369.166 157.606 365.704 154.047 359.518 154.047H346.221C345.843 154.047 345.656 154.23 345.656 154.612V171.183C345.656 171.562 345.843 171.749 346.221 171.749Z" fill="#1A428A"/>
<path d="M350.845 126.67C347.083 126.67 344.031 123.622 344.031 119.856V113.046C344.031 109.281 347.083 106.232 350.845 106.232C354.606 106.232 357.655 109.281 357.655 113.046V119.856C357.655 123.622 354.606 126.67 350.845 126.67Z" fill="#1A428A"/>
<path d="M350.845 194.794C347.083 194.794 344.031 191.75 344.031 187.984V181.17C344.031 177.405 347.083 174.356 350.845 174.356C354.606 174.356 357.655 177.405 357.655 181.17V187.984C357.655 191.75 354.606 194.794 350.845 194.794Z" fill="#1A428A"/>
<path d="M6.81396 348.077H429.186V361.701H6.81396V348.077Z" fill="#1A428A"/>
<path d="M429.186 368.515H6.81396C3.04835 368.515 0 365.467 0 361.701V348.077C0 344.312 3.04835 341.263 6.81396 341.263H429.186C432.951 341.263 436 344.312 436 348.077V361.701C436 365.467 432.951 368.515 429.186 368.515ZM13.624 354.887H422.376H13.624Z" fill="#1A428A"/>
<path d="M211.186 361.701C207.424 361.701 204.376 358.653 204.376 354.887V327.639C204.376 323.874 207.424 320.825 211.186 320.825C214.951 320.825 218 323.874 218 327.639V354.887C218 358.653 214.951 361.701 211.186 361.701Z" fill="white"/>
<path d="M224.814 348.077H197.562C193.8 348.077 190.752 345.029 190.752 341.263C190.752 337.498 193.8 334.449 197.562 334.449H224.814C228.575 334.449 231.624 337.498 231.624 341.263C231.624 345.029 228.575 348.077 224.814 348.077Z" fill="white"/>
<path d="M97.1652 134.615C96.5298 134.615 95.8827 134.525 95.2434 134.342C91.6337 133.278 89.5638 129.489 90.6241 125.879C95.45 109.46 108.084 96.612 124.429 91.5094C128.019 90.4062 131.839 92.3943 132.962 95.9883C134.081 99.5785 132.081 103.399 128.487 104.521C116.504 108.256 107.234 117.682 103.698 129.723C102.825 132.689 100.108 134.615 97.1652 134.615Z" fill="white"/>
</g>
<defs>
<clipPath id="clip0_1_2535">
<rect width="436" height="436" fill="white"/>
</clipPath>
</defs>
</svg>
