<svg width="436" height="436" viewBox="0 0 436 436" fill="none" xmlns="http://www.w3.org/2000/svg">
<g clip-path="url(#clip0_1_2563)">
<path d="M74.938 32.6665H177.124V93.9765H74.938V32.6665Z" fill="#6BC4E8"/>
<path d="M177.124 100.79H74.938C71.1724 100.79 68.124 97.7421 68.124 93.9765V32.6665C68.124 28.9009 71.1724 25.8525 74.938 25.8525H177.124C180.89 25.8525 183.938 28.9009 183.938 32.6665V93.9765C183.938 97.7421 180.89 100.79 177.124 100.79ZM81.7519 87.1664H170.314V39.4766H81.7519V87.1664Z" fill="#1A428A"/>
<path d="M177.124 32.6665H279.314V93.9765H177.124V32.6665Z" fill="#D7E9FF"/>
<path d="M279.314 100.79H177.124C173.358 100.79 170.314 97.7421 170.314 93.9765V32.6665C170.314 28.9009 173.358 25.8525 177.124 25.8525H279.314C283.079 25.8525 286.124 28.9009 286.124 32.6665V93.9765C286.124 97.7421 283.079 100.79 279.314 100.79ZM183.938 87.1664H272.5V39.4766H183.938V87.1664Z" fill="#1A428A"/>
<path d="M279.314 32.6665H381.5V93.9765H279.314V32.6665Z" fill="#D7E9FF"/>
<path d="M381.5 100.79H279.314C275.548 100.79 272.5 97.7421 272.5 93.9765V32.6665C272.5 28.9009 275.548 25.8525 279.314 25.8525H381.5C385.265 25.8525 388.314 28.9009 388.314 32.6665V93.9765C388.314 97.7421 385.265 100.79 381.5 100.79ZM286.124 87.1664H374.686V39.4766H286.124V87.1664Z" fill="#1A428A"/>
<path d="M74.938 155.291H177.124V216.604H74.938V155.291Z" fill="#D7E9FF"/>
<path d="M177.124 223.414H74.938C71.1724 223.414 68.124 220.37 68.124 216.604V155.291C68.124 151.525 71.1724 148.477 74.938 148.477H177.124C180.89 148.477 183.938 151.525 183.938 155.291V216.604C183.938 220.37 180.89 223.414 177.124 223.414ZM81.7519 209.79H170.314V162.104H81.7519V209.79Z" fill="#1A428A"/>
<path d="M177.124 155.291H279.314V216.604H177.124V155.291Z" fill="#6BC4E8"/>
<path d="M279.314 223.414H177.124C173.358 223.414 170.314 220.37 170.314 216.604V155.291C170.314 151.525 173.358 148.477 177.124 148.477H279.314C283.079 148.477 286.124 151.525 286.124 155.291V216.604C286.124 220.37 283.079 223.414 279.314 223.414ZM183.938 209.79H272.5V162.104H183.938V209.79Z" fill="#1A428A"/>
<path d="M279.314 155.291H381.5V216.604H279.314V155.291Z" fill="#6BC4E8"/>
<path d="M381.5 223.414H279.314C275.548 223.414 272.5 220.37 272.5 216.604V155.291C272.5 151.525 275.548 148.477 279.314 148.477H381.5C385.265 148.477 388.314 151.525 388.314 155.291V216.604C388.314 220.37 385.265 223.414 381.5 223.414ZM286.124 209.79H374.686V162.104H286.124V209.79Z" fill="#1A428A"/>
<path d="M27.252 284.729H129.438V346.042H27.252V284.729Z" fill="#D7E9FF"/>
<path d="M129.438 352.852H27.2519C23.4863 352.852 20.438 349.808 20.438 346.042V284.729C20.438 280.963 23.4863 277.915 27.2519 277.915H129.438C133.203 277.915 136.252 280.963 136.252 284.729V346.042C136.252 349.808 133.203 352.852 129.438 352.852V352.852ZM34.062 339.228H122.624V291.539H34.062V339.228Z" fill="#1A428A"/>
<path d="M177.124 277.915H279.314V339.228H177.124V277.915Z" fill="#6BC4E8"/>
<path d="M279.314 346.042H177.124C173.358 346.042 170.314 342.994 170.314 339.228V277.915C170.314 274.149 173.358 271.104 177.124 271.104H279.314C283.079 271.104 286.124 274.149 286.124 277.915V339.228C286.124 342.994 283.079 346.042 279.314 346.042ZM183.938 332.414H272.5V284.729H183.938V332.414Z" fill="#1A428A"/>
<path d="M279.314 277.915H381.5V339.228H279.314V277.915Z" fill="#D7E9FF"/>
<path d="M381.5 346.042H279.314C275.548 346.042 272.5 342.994 272.5 339.228V277.915C272.5 274.149 275.548 271.104 279.314 271.104H381.5C385.265 271.104 388.314 274.149 388.314 277.915V339.228C388.314 342.994 385.265 346.042 381.5 346.042ZM286.124 332.414H374.686V284.729H286.124V332.414Z" fill="#1A428A"/>
<path d="M122.624 93.9766H224.814V155.29H122.624V93.9766Z" fill="#6BC4E8"/>
<path d="M224.814 162.104H122.624C118.858 162.104 115.814 159.056 115.814 155.29V93.9766C115.814 90.211 118.858 87.1665 122.624 87.1665H224.814C228.579 87.1665 231.624 90.211 231.624 93.9766V155.29C231.624 159.056 228.579 162.104 224.814 162.104ZM129.438 148.477H218V100.791H129.438V148.477Z" fill="#1A428A"/>
<path d="M224.814 93.9766H327V155.29H224.814V93.9766Z" fill="#D7E9FF"/>
<path d="M327 162.104H224.814C221.048 162.104 218 159.056 218 155.29V93.9766C218 90.211 221.048 87.1665 224.814 87.1665H327C330.765 87.1665 333.814 90.211 333.814 93.9766V155.29C333.814 159.056 330.765 162.104 327 162.104ZM231.624 148.477H320.186V100.791H231.624V148.477Z" fill="#1A428A"/>
<path d="M327 93.9766H429.186V155.29H327V93.9766Z" fill="#6BC4E8"/>
<path d="M429.186 162.104H327C323.234 162.104 320.186 159.056 320.186 155.29V93.9766C320.186 90.211 323.234 87.1665 327 87.1665H429.186C432.951 87.1665 436 90.211 436 93.9766V155.29C436 159.056 432.951 162.104 429.186 162.104ZM333.814 148.477H422.376V100.791H333.814V148.477Z" fill="#1A428A"/>
<path d="M122.624 216.604H224.814V277.914H122.624V216.604Z" fill="#6BC4E8"/>
<path d="M224.814 284.728H122.624C118.858 284.728 115.814 281.68 115.814 277.914V216.604C115.814 212.839 118.858 209.791 122.624 209.791H224.814C228.579 209.791 231.624 212.839 231.624 216.604V277.914C231.624 281.68 228.579 284.728 224.814 284.728ZM129.438 271.104H218V223.415H129.438V271.104Z" fill="#1A428A"/>
<path d="M224.814 216.604H327V277.914H224.814V216.604Z" fill="#D7E9FF"/>
<path d="M327 284.728H224.814C221.048 284.728 218 281.68 218 277.914V216.604C218 212.839 221.048 209.791 224.814 209.791H327C330.765 209.791 333.814 212.839 333.814 216.604V277.914C333.814 281.68 330.765 284.728 327 284.728ZM231.624 271.104H320.186V223.415H231.624V271.104Z" fill="#1A428A"/>
<path d="M327 216.604H429.186V277.914H327V216.604Z" fill="#6BC4E8"/>
<path d="M429.185 284.728H327C323.234 284.728 320.186 281.68 320.186 277.914V216.604C320.186 212.839 323.234 209.791 327 209.791H429.185C432.951 209.791 435.999 212.839 435.999 216.604V277.914C435.999 281.68 432.951 284.728 429.185 284.728ZM333.813 271.104H422.375V223.415H333.813V271.104Z" fill="#1A428A"/>
<path fill-rule="evenodd" clip-rule="evenodd" d="M224.814 305.166C224.814 360.348 180.079 405.083 124.896 405.083C69.7143 405.083 24.9792 360.348 24.9792 305.166C24.9792 249.984 69.7143 205.249 124.896 205.249C180.079 205.249 224.814 249.984 224.814 305.166Z" fill="#1A428A"/>
<path d="M124.893 411.897C66.0423 411.897 18.1692 364.017 18.1692 305.166C18.1692 246.312 66.0423 198.435 124.893 198.435C183.747 198.435 231.624 246.312 231.624 305.166C231.624 364.017 183.747 411.897 124.893 411.897ZM124.893 212.059C73.5579 212.059 31.7932 253.824 31.7932 305.166C31.7932 356.505 73.5579 398.273 124.893 398.273C176.235 398.273 218 356.505 218 305.166C218 253.824 176.235 212.059 124.893 212.059V212.059Z" fill="#1A428A"/>
<path d="M206.648 305.166C206.648 360.348 161.913 405.083 106.731 405.083C51.5452 405.083 6.81396 360.348 6.81396 305.166C6.81396 249.984 51.5452 205.249 106.731 205.249C161.913 205.249 206.648 249.984 206.648 305.166Z" fill="#6BC4E8"/>
<path d="M106.731 411.897C47.8809 411.897 0 364.017 0 305.166C0 246.312 47.8809 198.435 106.731 198.435C165.581 198.435 213.455 246.312 213.455 305.166C213.455 364.017 165.581 411.897 106.731 411.897ZM106.731 212.059C55.3926 212.059 13.624 253.824 13.624 305.166C13.624 356.505 55.3926 398.273 106.731 398.273C158.066 398.273 199.831 356.505 199.831 305.166C199.831 253.824 158.066 212.059 106.731 212.059V212.059Z" fill="#1A428A"/>
<path d="M29.54 285.002C28.7916 285.002 28.0353 284.881 27.2908 284.62C23.7435 283.376 21.8685 279.49 23.1081 275.938C29.427 257.843 41.7412 242.001 57.786 231.336C60.9357 229.246 65.1496 230.1 67.2351 233.238C69.3167 236.372 68.4669 240.602 65.3328 242.687C51.7477 251.715 41.3124 265.121 35.972 280.433C34.9857 283.243 32.3506 285.002 29.54 285.002Z" fill="white"/>
<path d="M86.9597 267.518C86.9597 266.801 87.4392 266.329 88.1487 266.329H118.285C135.445 266.329 143.541 274.901 143.541 287.89C143.541 297.062 139.257 302.297 134.135 305.038V305.279C139.14 307.189 144.972 313.621 144.972 323.507C144.972 339.587 134.848 347.333 117.096 347.333H88.1487C87.4392 347.333 86.9597 346.853 86.9597 346.14V267.518ZM117.934 300.036C125.08 300.036 129.488 295.752 129.488 289.437C129.488 283.005 125.08 278.714 117.934 278.714H101.726C101.254 278.714 101.016 278.951 101.016 279.423V299.323C101.016 299.795 101.254 300.036 101.726 300.036H117.934ZM101.726 334.944H118.648C126.51 334.944 130.915 330.411 130.915 323.624C130.915 316.954 126.51 312.421 118.648 312.421H101.726C101.254 312.421 101.016 312.662 101.016 313.142V334.223C101.016 334.703 101.254 334.944 101.726 334.944V334.944Z" fill="#1A428A"/>
<path d="M109 277.915C105.234 277.915 102.186 274.87 102.186 271.104V257.477C102.186 253.711 105.234 250.667 109 250.667C112.766 250.667 115.814 253.711 115.814 257.477V271.104C115.814 274.87 112.766 277.915 109 277.915Z" fill="#1A428A"/>
<path d="M109 359.666C105.234 359.666 102.186 356.618 102.186 352.853V346.042C102.186 342.277 105.234 339.229 109 339.229C112.766 339.229 115.814 342.277 115.814 346.042V352.853C115.814 356.618 112.766 359.666 109 359.666Z" fill="#1A428A"/>
<path d="M177.124 271.104C173.358 271.104 170.314 268.056 170.314 264.29V237.039C170.314 233.273 173.358 230.229 177.124 230.229C180.889 230.229 183.938 233.273 183.938 237.039V264.29C183.938 268.056 180.889 271.104 177.124 271.104Z" fill="white"/>
<path d="M190.752 257.477H163.5C159.734 257.477 156.686 254.432 156.686 250.666C156.686 246.901 159.734 243.853 163.5 243.853H190.752C194.517 243.853 197.562 246.901 197.562 250.666C197.562 254.432 194.517 257.477 190.752 257.477Z" fill="white"/>
</g>
<defs>
<clipPath id="clip0_1_2563">
<rect width="436" height="436" fill="white"/>
</clipPath>
</defs>
</svg>
