<svg width="443" height="443" viewBox="0 0 443 443" fill="none" xmlns="http://www.w3.org/2000/svg">
<g clip-path="url(#clip0_1_2605)">
<path fill-rule="evenodd" clip-rule="evenodd" d="M293.701 177.199H157.391L171.025 6.81689H280.071L293.701 177.199Z" fill="#1A428A"/>
<path d="M293.701 184.016H157.391C155.488 184.016 153.671 183.224 152.388 181.824C151.097 180.428 150.442 178.552 150.598 176.653L164.228 6.27087C164.516 2.72986 167.468 0 171.025 0H280.071C283.624 0 286.58 2.72986 286.864 6.27087L300.494 176.653C300.65 178.552 299.995 180.428 298.704 181.824C297.421 183.224 295.604 184.016 293.701 184.016ZM164.774 170.386H286.318L273.781 13.6298H177.315L164.774 170.386Z" fill="#1A428A"/>
<path fill-rule="evenodd" clip-rule="evenodd" d="M293.701 265.798H157.391L171.025 436.184H280.071L293.701 265.798Z" fill="#1A428A"/>
<path d="M280.071 443.001H171.025C167.468 443.001 164.516 440.271 164.228 436.73L150.598 266.344C150.446 264.449 151.097 262.573 152.388 261.173C153.675 259.777 155.488 258.985 157.395 258.985H293.701C295.604 258.985 297.425 259.777 298.708 261.173C299.999 262.573 300.65 264.449 300.498 266.344L286.868 436.73C286.58 440.271 283.624 443.001 280.071 443.001ZM177.311 429.367H273.781L286.319 272.615H164.774L177.311 429.367Z" fill="#1A428A"/>
<path fill-rule="evenodd" clip-rule="evenodd" d="M355.041 224.909C355.041 296.424 297.063 354.402 225.548 354.402C154.03 354.402 96.0554 296.424 96.0554 224.909C96.0554 153.391 154.03 95.4165 225.548 95.4165C297.063 95.4165 355.041 153.391 355.041 224.909V224.909Z" fill="#1A428A"/>
<path d="M225.548 361.215C150.383 361.215 89.2385 300.07 89.2385 224.909C89.2385 149.744 150.383 88.5996 225.548 88.5996C300.709 88.5996 361.854 149.744 361.854 224.909C361.854 300.07 300.709 361.215 225.548 361.215ZM225.548 102.229C157.906 102.229 102.868 157.267 102.868 224.909C102.868 292.547 157.906 347.585 225.548 347.585C293.186 347.585 348.224 292.547 348.224 224.909C348.224 157.267 293.186 102.229 225.548 102.229V102.229Z" fill="#1A428A"/>
<path d="M334.594 197.646H361.854V252.169H334.594V197.646Z" fill="#6BC4E8"/>
<path d="M361.854 258.985H334.594C330.827 258.985 327.777 255.936 327.777 252.168V197.645C327.777 193.878 330.827 190.833 334.594 190.833H361.854C365.621 190.833 368.67 193.878 368.67 197.645V252.168C368.67 255.936 365.621 258.985 361.854 258.985ZM341.407 245.356H355.041V204.462H341.407V245.356Z" fill="#1A428A"/>
<path d="M280.071 177.199H143.761L157.391 6.81689H266.437L280.071 177.199Z" fill="#2A8EE6"/>
<path d="M280.071 184.016H143.761C141.858 184.016 140.041 183.224 138.758 181.824C137.463 180.428 136.812 178.552 136.964 176.653L150.598 6.27087C150.882 2.72986 153.839 0 157.391 0H266.437C269.994 0 272.946 2.72986 273.235 6.27087L286.864 176.653C287.017 178.552 286.365 180.428 285.074 181.824C283.791 183.224 281.974 184.016 280.071 184.016ZM151.144 170.386H272.689L260.151 13.6298H163.682L151.144 170.386Z" fill="#1A428A"/>
<path d="M280.071 265.798H143.761L157.391 436.184H266.437L280.071 265.798Z" fill="#2A8EE6"/>
<path d="M266.437 443.001H157.391C153.838 443.001 150.882 440.271 150.598 436.73L136.968 266.344C136.812 264.449 137.467 262.573 138.758 261.173C140.041 259.777 141.858 258.985 143.765 258.985H280.071C281.974 258.985 283.791 259.777 285.078 261.173C286.369 262.573 287.02 264.449 286.868 266.344L273.238 436.73C272.946 440.271 269.994 443.001 266.437 443.001ZM163.682 429.367H260.147L272.689 272.615H151.14L163.682 429.367Z" fill="#1A428A"/>
<path d="M341.407 224.909C341.407 296.424 283.433 354.402 211.914 354.402C140.4 354.402 82.4216 296.424 82.4216 224.909C82.4216 153.391 140.4 95.4165 211.914 95.4165C283.433 95.4165 341.407 153.391 341.407 224.909V224.909Z" fill="#D7E9FF"/>
<path d="M211.914 361.215C136.754 361.215 75.6086 300.07 75.6086 224.909C75.6086 149.744 136.754 88.5996 211.914 88.5996C287.079 88.5996 348.224 149.744 348.224 224.909C348.224 300.07 287.079 361.215 211.914 361.215V361.215ZM211.914 102.229C144.276 102.229 89.2384 157.267 89.2384 224.909C89.2384 292.547 144.276 347.585 211.914 347.585C279.556 347.585 334.594 292.547 334.594 224.909C334.594 157.267 279.556 102.229 211.914 102.229V102.229Z" fill="#1A428A"/>
<path d="M314.147 224.909C314.147 281.366 268.375 327.138 211.914 327.138C155.457 327.138 109.685 281.366 109.685 224.909C109.685 168.448 155.457 122.676 211.914 122.676C268.375 122.676 314.147 168.448 314.147 224.909Z" fill="#6BC4E8"/>
<path d="M211.914 333.955C151.787 333.955 102.868 285.036 102.868 224.909C102.868 164.782 151.787 115.863 211.914 115.863C272.041 115.863 320.96 164.782 320.96 224.909C320.96 285.036 272.041 333.955 211.914 333.955ZM211.914 129.493C159.302 129.493 116.502 172.293 116.502 224.909C116.502 277.521 159.302 320.321 211.914 320.321C264.53 320.321 307.33 277.521 307.33 224.909C307.33 172.293 264.53 129.493 211.914 129.493Z" fill="#1A428A"/>
<path d="M130.132 231.722C126.365 231.722 123.315 228.676 123.315 224.909C123.315 199.299 134.398 174.945 153.718 158.098C156.549 155.629 160.847 155.914 163.339 158.757C165.807 161.592 165.515 165.898 162.679 168.378C146.324 182.632 136.949 203.238 136.949 224.909C136.949 228.676 133.899 231.722 130.132 231.722Z" fill="white"/>
<path d="M189.865 180.428C189.865 179.71 190.344 179.238 191.058 179.238H221.207C238.37 179.238 246.47 187.818 246.47 200.808C246.47 209.988 242.184 215.226 237.06 217.967V218.205C242.067 220.116 247.901 226.551 247.901 236.444C247.901 252.527 237.774 260.276 220.014 260.276H191.058C190.344 260.276 189.865 259.796 189.865 259.087V180.428ZM220.853 212.96C228.001 212.96 232.415 208.674 232.415 202.356C232.415 195.922 228.001 191.628 220.853 191.628H204.641C204.169 191.628 203.927 191.87 203.927 192.342V212.246C203.927 212.718 204.169 212.96 204.641 212.96H220.853ZM204.641 247.882H221.566C229.432 247.882 233.839 243.351 233.839 236.561C233.839 229.885 229.432 225.353 221.566 225.353H204.641C204.169 225.353 203.927 225.591 203.927 226.071V247.165C203.927 247.645 204.169 247.882 204.641 247.882Z" fill="#1A428A"/>
<path d="M211.914 190.832C208.147 190.832 205.101 187.783 205.101 184.015V170.386C205.101 166.618 208.147 163.569 211.914 163.569C215.681 163.569 218.731 166.618 218.731 170.386V184.015C218.731 187.783 215.681 190.832 211.914 190.832Z" fill="#1A428A"/>
<path d="M211.914 272.615C208.147 272.615 205.101 269.565 205.101 265.798V258.985C205.101 255.218 208.147 252.168 211.914 252.168C215.681 252.168 218.731 255.218 218.731 258.985V265.798C218.731 269.565 215.681 272.615 211.914 272.615Z" fill="#1A428A"/>
<path d="M259.624 68.153C255.857 68.153 252.808 65.1073 252.808 61.3401V34.0766C252.808 30.3094 255.857 27.2637 259.624 27.2637C263.392 27.2637 266.437 30.3094 266.437 34.0766V61.3401C266.437 65.1073 263.392 68.153 259.624 68.153Z" fill="white"/>
<path d="M273.254 54.5228H245.995C242.227 54.5228 239.178 51.4732 239.178 47.706C239.178 43.9388 242.227 40.8931 245.995 40.8931H273.254C277.021 40.8931 280.071 43.9388 280.071 47.706C280.071 51.4732 277.021 54.5228 273.254 54.5228Z" fill="white"/>
</g>
<defs>
<clipPath id="clip0_1_2605">
<rect width="443" height="443" fill="white"/>
</clipPath>
</defs>
</svg>
