<svg width="403" height="403" viewBox="0 0 403 403" fill="none" xmlns="http://www.w3.org/2000/svg">
<g clip-path="url(#clip0_1_2629)">
<path d="M395.945 201.387C395.945 308.84 308.84 395.945 201.387 395.945C93.9336 395.945 6.82812 308.84 6.82812 201.387C6.82812 93.9336 93.9336 6.82812 201.387 6.82812C308.84 6.82812 395.945 93.9336 395.945 201.387Z" fill="#6BC4E8"/>
<path d="M201.387 402.773C90.3398 402.773 0 312.434 0 201.387C0 90.3398 90.3398 0 201.387 0C312.434 0 402.773 90.3398 402.773 201.387C402.773 312.434 312.434 402.773 201.387 402.773ZM201.387 13.6523C97.8711 13.6523 13.6523 97.875 13.6523 201.387C13.6523 304.898 97.8711 389.121 201.387 389.121C304.902 389.121 389.121 304.898 389.121 201.387C389.121 97.875 304.902 13.6523 201.387 13.6523V13.6523Z" fill="#1A428A"/>
<path d="M57.7461 116C56.4844 116 55.2031 115.649 54.0586 114.914C50.8906 112.875 49.9726 108.653 52.0156 105.481C67.7148 81.0744 89.375 60.6721 114.656 46.4963C117.953 44.6564 122.109 45.8205 123.949 49.1096C125.797 52.3947 124.625 56.5549 121.336 58.4025C97.9922 71.4924 77.9961 90.3283 63.4922 112.867C62.1875 114.895 59.9922 116 57.7461 116Z" fill="white"/>
<path d="M370.836 105.812H148.527C123.051 105.812 102.398 126.465 102.398 151.941V187.734H395.414C393.359 158.105 384.684 130.312 370.836 105.812Z" fill="white"/>
<path d="M402.734 194.559H95.5742V151.938C95.5742 122.738 119.328 98.9883 148.527 98.9883H374.816L376.777 102.453C391.574 128.633 400.137 157.168 402.227 187.258L402.734 194.559ZM109.227 180.906H387.961C385.367 156.852 378.266 133.934 366.805 112.641H148.527C126.855 112.641 109.227 130.266 109.227 151.938V180.906Z" fill="#1A428A"/>
<path d="M163.84 150.188C163.84 159.613 156.199 167.254 146.773 167.254C137.348 167.254 129.707 159.613 129.707 150.188C129.707 140.762 137.348 133.121 146.773 133.121C156.199 133.121 163.84 140.762 163.84 150.188Z" fill="#D7E9FF"/>
<path d="M146.773 174.078C133.598 174.078 122.879 163.359 122.879 150.188C122.879 137.012 133.598 126.293 146.773 126.293C159.945 126.293 170.668 137.012 170.668 150.188C170.668 163.359 159.945 174.078 146.773 174.078ZM146.773 139.945C141.125 139.945 136.535 144.539 136.535 150.188C136.535 155.836 141.125 160.426 146.773 160.426C152.422 160.426 157.012 155.836 157.012 150.188C157.012 144.539 152.422 139.945 146.773 139.945Z" fill="#1A428A"/>
<path d="M218.453 150.188C218.453 159.613 210.812 167.254 201.387 167.254C191.961 167.254 184.32 159.613 184.32 150.188C184.32 140.762 191.961 133.121 201.387 133.121C210.812 133.121 218.453 140.762 218.453 150.188Z" fill="#D7E9FF"/>
<path d="M201.387 174.078C188.215 174.078 177.492 163.359 177.492 150.188C177.492 137.012 188.215 126.293 201.387 126.293C214.559 126.293 225.281 137.012 225.281 150.188C225.281 163.359 214.559 174.078 201.387 174.078ZM201.387 139.945C195.738 139.945 191.148 144.539 191.148 150.188C191.148 155.836 195.738 160.426 201.387 160.426C207.035 160.426 211.625 155.836 211.625 150.188C211.625 144.539 207.035 139.945 201.387 139.945Z" fill="#1A428A"/>
<path d="M273.066 150.188C273.066 159.613 265.426 167.254 256 167.254C246.574 167.254 238.934 159.613 238.934 150.188C238.934 140.762 246.574 133.121 256 133.121C265.426 133.121 273.066 140.762 273.066 150.188Z" fill="#D7E9FF"/>
<path d="M256 174.078C242.828 174.078 232.105 163.359 232.105 150.188C232.105 137.012 242.828 126.293 256 126.293C269.172 126.293 279.895 137.012 279.895 150.188C279.895 163.359 269.172 174.078 256 174.078ZM256 139.945C250.352 139.945 245.762 144.539 245.762 150.188C245.762 155.836 250.352 160.426 256 160.426C261.648 160.426 266.238 155.836 266.238 150.188C266.238 144.539 261.648 139.945 256 139.945Z" fill="#1A428A"/>
<path d="M102.398 368.871C131.406 386.051 165.234 395.945 201.387 395.945C308.84 395.945 395.945 308.84 395.945 201.387C395.945 196.793 395.73 192.25 395.414 187.734H102.398V368.871Z" fill="#D7E9FF"/>
<path d="M201.387 402.773C165.305 402.773 129.875 393.078 98.9219 374.746C96.8477 373.52 95.5742 371.285 95.5742 368.875V187.734C95.5742 183.961 98.6289 180.906 102.398 180.906H395.414C399.004 180.906 401.98 183.68 402.227 187.262C402.598 192.633 402.773 197.121 402.773 201.387C402.773 312.434 312.434 402.773 201.387 402.773V402.773ZM109.227 364.934C137.27 380.766 169.047 389.121 201.387 389.121C304.902 389.121 389.121 304.898 389.121 201.387C389.121 199.219 389.07 196.98 388.965 194.559H109.227V364.934Z" fill="#1A428A"/>
<path fill-rule="evenodd" clip-rule="evenodd" d="M314.027 283.309C314.027 324.781 280.406 358.398 238.934 358.398C197.461 358.398 163.84 324.781 163.84 283.309C163.84 241.832 197.461 208.215 238.934 208.215C280.406 208.215 314.027 241.832 314.027 283.309V283.309Z" fill="#1A428A"/>
<path d="M238.934 365.227C193.762 365.227 157.012 328.48 157.012 283.309C157.012 238.133 193.762 201.387 238.934 201.387C284.105 201.387 320.852 238.133 320.852 283.309C320.852 328.48 284.105 365.227 238.934 365.227V365.227ZM238.934 215.039C201.289 215.039 170.668 245.668 170.668 283.309C170.668 320.945 201.289 351.574 238.934 351.574C276.578 351.574 307.199 320.945 307.199 283.309C307.199 245.668 276.578 215.039 238.934 215.039V215.039Z" fill="#1A428A"/>
<path d="M300.375 283.309C300.375 324.781 266.754 358.398 225.281 358.398C183.809 358.398 150.188 324.781 150.188 283.309C150.188 241.832 183.809 208.215 225.281 208.215C266.754 208.215 300.375 241.832 300.375 283.309V283.309Z" fill="#6BC4E8"/>
<path d="M225.281 365.227C180.109 365.227 143.359 328.48 143.359 283.309C143.359 238.133 180.109 201.387 225.281 201.387C270.449 201.387 307.199 238.133 307.199 283.309C307.199 328.48 270.449 365.227 225.281 365.227V365.227ZM225.281 215.039C187.637 215.039 157.012 245.668 157.012 283.309C157.012 320.945 187.637 351.574 225.281 351.574C262.926 351.574 293.547 320.945 293.547 283.309C293.547 245.668 262.926 215.039 225.281 215.039V215.039Z" fill="#1A428A"/>
<path d="M203.195 245.582C203.195 244.859 203.672 244.387 204.387 244.387H234.586C251.781 244.387 259.895 252.98 259.895 265.996C259.895 275.188 255.598 280.434 250.469 283.18V283.422C255.48 285.336 261.328 291.781 261.328 301.688C261.328 317.801 251.18 325.559 233.395 325.559H204.387C203.672 325.559 203.195 325.082 203.195 324.367V245.582ZM234.234 278.168C241.395 278.168 245.812 273.871 245.812 267.547C245.812 261.098 241.395 256.797 234.234 256.797H217.992C217.52 256.797 217.277 257.039 217.277 257.512V277.453C217.277 277.926 217.52 278.168 217.992 278.168H234.234ZM217.992 313.145H234.945C242.828 313.145 247.238 308.605 247.238 301.805C247.238 295.117 242.828 290.578 234.945 290.578H217.992C217.52 290.578 217.277 290.82 217.277 291.301V312.426C217.277 312.906 217.52 313.145 217.992 313.145Z" fill="#1A428A"/>
<path d="M225.281 256C221.512 256 218.453 252.945 218.453 249.172V235.52C218.453 231.746 221.512 228.691 225.281 228.691C229.051 228.691 232.105 231.746 232.105 235.52V249.172C232.105 252.945 229.051 256 225.281 256Z" fill="#1A428A"/>
<path d="M225.281 337.922C221.512 337.922 218.453 334.867 218.453 331.094V324.266C218.453 320.492 221.512 317.441 225.281 317.441C229.051 317.441 232.105 320.492 232.105 324.266V331.094C232.105 334.867 229.051 337.922 225.281 337.922Z" fill="#1A428A"/>
<path d="M286.719 276.48C282.949 276.48 279.895 273.426 279.895 269.652V242.348C279.895 238.574 282.949 235.52 286.719 235.52C290.488 235.52 293.547 238.574 293.547 242.348V269.652C293.547 273.426 290.488 276.48 286.719 276.48Z" fill="white"/>
<path d="M300.375 262.828H273.066C269.297 262.828 266.238 259.773 266.238 256C266.238 252.227 269.297 249.172 273.066 249.172H300.375C304.145 249.172 307.199 252.227 307.199 256C307.199 259.773 304.145 262.828 300.375 262.828Z" fill="white"/>
</g>
<defs>
<clipPath id="clip0_1_2629">
<rect width="402.773" height="402.773" fill="white"/>
</clipPath>
</defs>
</svg>
