<svg width="413" height="413" viewBox="0 0 413 413" fill="none" xmlns="http://www.w3.org/2000/svg">
<g clip-path="url(#clip0_1_2653)">
<path d="M324.442 257.699C324.442 339.7 257.967 406.175 175.966 406.175C93.9686 406.175 27.4941 339.7 27.4941 257.699C27.4941 175.698 93.9686 109.223 175.966 109.223C257.967 109.223 324.442 175.698 324.442 257.699V257.699Z" fill="#1A428A"/>
<path d="M175.966 412.998C90.332 412.998 20.6663 343.329 20.6663 257.699C20.6663 172.069 90.332 102.395 175.966 102.395C261.604 102.395 331.27 172.069 331.27 257.699C331.27 343.329 261.604 412.998 175.966 412.998ZM175.966 116.051C97.863 116.051 34.3182 179.592 34.3182 257.699C34.3182 335.802 97.863 399.346 175.966 399.346C254.073 399.346 317.618 335.802 317.618 257.699C317.618 179.592 254.073 116.051 175.966 116.051V116.051Z" fill="#1A428A"/>
<path d="M310.789 257.699C310.789 339.7 244.315 406.175 162.314 406.175C80.3126 406.175 13.8381 339.7 13.8381 257.699C13.8381 175.698 80.3126 109.223 162.314 109.223C244.315 109.223 310.789 175.698 310.789 257.699V257.699Z" fill="#6BC4E8"/>
<path d="M162.314 412.998C76.6799 412.998 7.01416 343.329 7.01416 257.699C7.01416 172.069 76.6799 102.395 162.314 102.395C247.948 102.395 317.617 172.069 317.617 257.699C317.617 343.329 247.948 412.998 162.314 412.998V412.998ZM162.314 116.051C84.2109 116.051 20.6661 179.592 20.6661 257.699C20.6661 335.802 84.2109 399.346 162.314 399.346C240.421 399.346 303.962 335.802 303.962 257.699C303.962 179.592 240.421 116.051 162.314 116.051V116.051Z" fill="#1A428A"/>
<path d="M109.835 155.28C107.296 155.28 104.859 153.862 103.683 151.413C102.046 148.022 103.476 143.94 106.87 142.3C124.237 133.941 142.893 129.703 162.314 129.703C172.536 129.703 182.716 130.917 192.567 133.3C196.235 134.191 198.485 137.882 197.594 141.542C196.703 145.206 193.028 147.487 189.356 146.565C180.552 144.437 171.454 143.355 162.314 143.355C144.959 143.355 128.299 147.143 112.796 154.608C111.839 155.069 110.831 155.28 109.835 155.28Z" fill="white"/>
<path fill-rule="evenodd" clip-rule="evenodd" d="M19.7327 216.305C32.5174 219.012 44.4975 223.168 47.6693 229.508C55.1886 244.543 70.2232 244.543 85.2579 229.508C100.293 214.469 122.847 199.435 100.293 176.885C89.039 165.627 85.3399 147.058 84.4532 131.277C53.4816 150.393 30.0878 180.572 19.7327 216.305V216.305Z" fill="white"/>
<path d="M63.6024 247.605C62.3563 247.605 61.1298 247.504 59.9228 247.312C54.4738 246.426 46.8607 243.152 41.5601 232.559C41.2945 232.028 38.3805 227.231 18.3187 222.985C16.4633 222.594 14.8539 221.446 13.8774 219.821C12.9009 218.188 12.6431 216.227 13.1743 214.407C23.9044 177.373 47.9427 145.788 80.8674 125.468C82.9181 124.195 85.4728 124.117 87.6094 125.222C89.7421 126.336 91.1327 128.488 91.2694 130.894C92.0116 144.093 95.0154 161.956 105.121 172.053C113.007 179.939 116.784 187.752 116.659 195.939C116.456 209.399 105.464 219.747 95.7732 228.871C93.8319 230.699 91.8983 232.52 90.0859 234.332C81.4299 242.992 72.1607 247.605 63.6024 247.605ZM28.459 211.368C42.4038 215.087 50.5208 219.946 53.7746 226.453C55.9503 230.809 58.7549 233.293 62.1063 233.832C67.1062 234.649 73.7934 231.309 80.4299 224.68C82.34 222.766 84.3712 220.86 86.4141 218.934C94.5115 211.306 102.89 203.423 103.007 195.736C103.07 191.435 100.609 186.849 95.4685 181.709C86.8086 173.049 81.2151 160.17 78.7816 143.308C55.4268 160.37 37.8962 184.056 28.459 211.368Z" fill="#1A428A"/>
<path fill-rule="evenodd" clip-rule="evenodd" d="M122.846 372.344C122.846 372.344 137.881 327.24 122.846 319.72C107.812 312.201 92.7771 319.72 85.2578 297.166C77.7385 274.616 85.2578 267.097 107.812 259.578C130.362 252.062 160.435 259.578 167.954 289.651C175.47 319.72 160.435 334.755 152.92 364.828C147.447 386.706 122.846 372.344 122.846 372.344Z" fill="white"/>
<path d="M138.627 383.796C129.268 383.796 120.624 378.949 119.401 378.234C116.616 376.609 115.351 373.25 116.37 370.187C123.124 349.875 124.788 328.318 119.792 325.821C115.815 323.837 111.687 323.111 107.316 322.337C97.4411 320.595 85.1563 318.431 78.7815 299.322C69.4341 271.276 81.5548 261.14 105.652 253.105C120.87 248.027 137.807 249.304 150.971 256.531C162.904 263.085 171.068 273.968 174.579 287.998C180.216 310.545 174.196 325.845 167.829 342.051C164.884 349.539 161.845 357.278 159.545 366.484C157.115 376.191 151.545 380.355 147.299 382.144C144.471 383.335 141.514 383.796 138.627 383.796ZM122.846 372.343H122.913H122.846ZM131.151 368.637C134.639 369.886 139.006 370.836 142.014 369.554C142.76 369.234 145.018 368.273 146.295 363.176C148.81 353.102 152.162 344.579 155.123 337.048C161.146 321.724 165.908 309.615 161.334 291.303C158.736 280.917 153.037 273.245 144.4 268.503C134.514 263.085 121.639 262.171 109.968 266.05C88.8593 273.089 85.9649 277.69 91.7342 295.002C95.5349 306.396 100.558 307.283 109.683 308.888C114.585 309.756 120.143 310.736 125.897 313.611C142.33 321.829 135.745 352.887 131.151 368.637Z" fill="#1A428A"/>
<path fill-rule="evenodd" clip-rule="evenodd" d="M239.143 130.625C216.703 152.565 192.317 179.994 205.543 184.4C228.093 191.919 243.128 199.435 243.128 199.435C243.128 199.435 235.612 221.989 213.058 221.989C190.504 221.989 160.435 221.989 160.435 229.508C160.435 237.023 205.543 267.097 205.543 274.612C205.543 282.131 215.261 314.404 220.578 319.72C228.093 327.235 250.647 334.755 258.166 304.681C265.682 274.612 258.166 252.058 273.201 244.543C281.607 240.34 292.357 219.883 300.204 202.657C288.169 172.529 266.58 147.253 239.143 130.625V130.625Z" fill="white"/>
<path d="M236.976 333.274C228.441 333.274 220.406 329.2 215.75 324.548C208.844 317.638 199.465 285.776 198.754 275.71C196.571 272.264 185.829 263.319 178.622 257.312C160.091 241.867 153.607 235.895 153.607 229.508C153.607 215.825 175.091 215.161 213.058 215.161C224.195 215.161 230.691 207.981 233.964 202.7C227.656 199.892 216.855 195.369 203.379 190.873C199.114 189.455 196.243 186.416 195.301 182.326C193.594 174.912 196.903 162.393 234.37 125.742C236.593 123.57 240.018 123.176 242.679 124.785C271.412 142.198 294.095 168.947 306.548 200.126C307.235 201.86 307.192 203.794 306.423 205.493C290.513 240.406 281.584 247.984 276.252 250.648C270.713 253.421 270.025 260.308 269.107 274.378C268.529 283.233 267.807 294.256 264.787 306.338C260.307 324.278 250.877 330.392 243.761 332.364C241.499 332.989 239.218 333.274 236.976 333.274V333.274ZM169.419 231.024C173.509 235.277 181.579 242 187.364 246.824C205.887 262.257 212.367 268.226 212.367 274.612C212.367 280.917 221.558 310.63 225.433 314.931C228.132 317.615 234.503 320.763 240.108 319.208C246.674 317.392 249.948 309.404 251.542 303.029C254.264 292.139 254.913 282.229 255.483 273.487C256.487 258.113 257.354 244.836 270.15 238.434C271.463 237.773 278.595 233 292.763 202.509C281.88 176.842 263.361 154.635 240.085 139.288C214.351 164.971 209.656 175.201 208.812 178.295C230.984 185.775 245.565 193.013 246.182 193.33C249.221 194.849 250.682 198.368 249.608 201.595C249.241 202.708 240.222 228.813 213.062 228.813C201.301 228.813 178.614 228.813 169.419 231.024V231.024ZM208.629 179.392H208.695H208.629Z" fill="#1A428A"/>
<path d="M399.533 102.395C399.533 155.179 356.745 197.966 303.962 197.966C251.182 197.966 208.395 155.179 208.395 102.395C208.395 49.6158 251.182 6.82812 303.962 6.82812C356.745 6.82812 399.533 49.6158 399.533 102.395V102.395Z" fill="#6BC4E8"/>
<path d="M303.962 204.794C247.503 204.794 201.567 158.862 201.567 102.395C201.567 45.9321 247.503 0 303.962 0C360.425 0 406.361 45.9321 406.361 102.395C406.361 158.862 360.425 204.794 303.962 204.794V204.794ZM303.962 13.6519C255.03 13.6519 215.219 53.4631 215.219 102.395C215.219 151.327 255.03 191.142 303.962 191.142C352.898 191.142 392.709 151.327 392.709 102.395C392.709 53.4631 352.898 13.6519 303.962 13.6519Z" fill="#1A428A"/>
<path d="M372.229 102.395C372.229 140.097 341.664 170.663 303.962 170.663C266.264 170.663 235.698 140.097 235.698 102.395C235.698 64.6973 266.264 34.1318 303.962 34.1318C341.664 34.1318 372.229 64.6973 372.229 102.395Z" fill="#D7E9FF"/>
<path d="M303.962 177.486C262.557 177.486 228.874 143.804 228.874 102.395C228.874 60.9901 262.557 27.3076 303.962 27.3076C345.371 27.3076 379.053 60.9901 379.053 102.395C379.053 143.804 345.371 177.486 303.962 177.486ZM303.962 40.9595C270.088 40.9595 242.526 68.5172 242.526 102.395C242.526 136.277 270.088 163.834 303.962 163.834C337.84 163.834 365.401 136.277 365.401 102.395C365.401 68.5172 337.84 40.9595 303.962 40.9595V40.9595Z" fill="#1A428A"/>
<path d="M297.138 34.1318H310.79V47.7842H297.138V34.1318Z" fill="#1A428A"/>
<path d="M297.138 157.006H310.79V170.663H297.138V157.006Z" fill="#1A428A"/>
<path d="M235.698 95.5713H256.179V109.224H235.698V95.5713Z" fill="#1A428A"/>
<path d="M351.749 95.5713H372.229V109.224H351.749V95.5713Z" fill="#1A428A"/>
<path d="M284.283 70.5561C284.283 69.9897 284.654 69.6187 285.216 69.6187H308.966C322.477 69.6187 328.859 76.3723 328.859 86.6025C328.859 93.8288 325.481 97.9576 321.446 100.118V100.301C325.387 101.809 329.984 106.875 329.984 114.66C329.984 127.336 322.008 133.433 308.024 133.433H285.216C284.654 133.433 284.283 133.062 284.283 132.496V70.5561ZM308.68 96.1764C314.313 96.1764 317.786 92.7976 317.786 87.8212C317.786 82.7549 314.313 79.3762 308.68 79.3762H295.915C295.54 79.3762 295.353 79.5636 295.353 79.9347V95.6178C295.353 95.9889 295.54 96.1764 295.915 96.1764H308.68ZM295.915 123.676H309.243C315.442 123.676 318.911 120.109 318.911 114.754C318.911 109.504 315.442 105.938 309.243 105.938H295.915C295.54 105.938 295.353 106.121 295.353 106.504V123.109C295.353 123.488 295.54 123.676 295.915 123.676Z" fill="#1A428A"/>
<path d="M300.552 78.5059C296.782 78.5059 293.724 75.4512 293.724 71.6777V64.8496C293.724 61.0762 296.782 58.0254 300.552 58.0254C304.321 58.0254 307.376 61.0762 307.376 64.8496V71.6777C307.376 75.4512 304.321 78.5059 300.552 78.5059Z" fill="#1A428A"/>
<path d="M300.552 146.769C296.782 146.769 293.724 143.714 293.724 139.941V133.117C293.724 129.343 296.782 126.289 300.552 126.289C304.321 126.289 307.376 129.343 307.376 133.117V139.941C307.376 143.714 304.321 146.769 300.552 146.769Z" fill="#1A428A"/>
<path d="M263.006 375.453C259.237 375.453 256.178 372.402 256.178 368.629V341.321C256.178 337.548 259.237 334.497 263.006 334.497C266.776 334.497 269.83 337.548 269.83 341.321V368.629C269.83 372.402 266.776 375.453 263.006 375.453Z" fill="white"/>
<path d="M276.658 361.801H249.35C245.581 361.801 242.526 358.75 242.526 354.977C242.526 351.204 245.581 348.149 249.35 348.149H276.658C280.427 348.149 283.486 351.204 283.486 354.977C283.486 358.75 280.427 361.801 276.658 361.801Z" fill="white"/>
</g>
<defs>
<clipPath id="clip0_1_2653">
<rect width="413" height="413" fill="white"/>
</clipPath>
</defs>
</svg>
