<svg width="410" height="410" viewBox="0 0 410 410" fill="none" xmlns="http://www.w3.org/2000/svg">
<g clip-path="url(#clip0_1_2679)">
<path d="M402.773 204.801C402.773 314.137 314.137 402.773 204.801 402.773C95.4609 402.773 6.82812 314.137 6.82812 204.801C6.82812 95.4609 95.4609 6.82812 204.801 6.82812C314.137 6.82812 402.773 95.4609 402.773 204.801Z" fill="#2A8EE6"/>
<path d="M204.801 409.602C91.875 409.602 0 317.727 0 204.801C0 91.875 91.875 0 204.801 0C317.727 0 409.602 91.875 409.602 204.801C409.602 317.727 317.727 409.602 204.801 409.602ZM204.801 13.6523C99.3984 13.6523 13.6523 99.3984 13.6523 204.801C13.6523 310.199 99.3984 395.945 204.801 395.945C310.199 395.945 395.945 310.199 395.945 204.801C395.945 99.3984 310.199 13.6523 204.801 13.6523V13.6523Z" fill="#1A428A"/>
<path d="M382.293 204.801C382.293 302.828 302.828 382.293 204.801 382.293C106.773 382.293 27.3086 302.828 27.3086 204.801C27.3086 106.773 106.773 27.3086 204.801 27.3086C302.828 27.3086 382.293 106.773 382.293 204.801V204.801Z" fill="#6BC4E8"/>
<path d="M204.801 389.121C103.168 389.121 20.4805 306.434 20.4805 204.801C20.4805 103.168 103.168 20.4805 204.801 20.4805C306.434 20.4805 389.121 103.168 389.121 204.801C389.121 306.434 306.434 389.121 204.801 389.121V389.121ZM204.801 34.1328C110.691 34.1328 34.1328 110.691 34.1328 204.801C34.1328 298.906 110.691 375.465 204.801 375.465C298.906 375.465 375.465 298.906 375.465 204.801C375.465 110.691 298.906 34.1328 204.801 34.1328V34.1328Z" fill="#1A428A"/>
<path d="M72.7812 126.586C71.5156 126.586 70.2266 126.234 69.0859 125.492C65.9219 123.453 65.0078 119.227 67.0547 116.059C81.7617 93.2695 102.082 74.3047 125.824 61.2187C129.109 59.414 133.27 60.6055 135.098 63.9062C136.914 67.207 135.715 71.3594 132.41 73.1797C110.648 85.1719 92.0156 102.559 78.5234 123.461C77.2187 125.484 75.0195 126.586 72.7812 126.586Z" fill="white"/>
<path d="M204.801 361.812C110.215 361.812 32.9297 287.82 27.6211 194.559C27.4297 197.949 27.3086 201.359 27.3086 204.801C27.3086 302.828 106.773 382.293 204.801 382.293C302.828 382.293 382.293 302.828 382.293 204.801C382.293 201.359 382.172 197.949 381.977 194.559C376.668 287.82 299.387 361.812 204.801 361.812V361.812Z" fill="#1A428A"/>
<path d="M204.801 389.121C103.168 389.121 20.4805 306.434 20.4805 204.801C20.4805 201.227 20.6055 197.688 20.8047 194.172C21.0117 190.559 24 187.734 27.6172 187.734C31.2383 187.734 34.2266 190.559 34.4336 194.172C39.5664 284.348 114.398 354.988 204.801 354.988C295.199 354.988 370.031 284.348 375.168 194.172C375.371 190.559 378.359 187.734 381.98 187.734C385.598 187.734 388.586 190.559 388.793 194.172C388.992 197.688 389.117 201.227 389.117 204.801C389.121 306.434 306.434 389.121 204.801 389.121ZM73.168 313.312C104.492 351.254 151.871 375.465 204.801 375.465C257.727 375.465 305.105 351.254 336.434 313.312C302.887 347.52 256.176 368.641 204.801 368.641C153.426 368.641 106.711 347.52 73.168 313.312V313.312Z" fill="#1A428A"/>
<path d="M279.895 307.199H129.707C127.141 307.199 124.793 305.758 123.629 303.48C122.461 301.191 122.672 298.445 124.18 296.367L259.691 109.227H129.707C125.934 109.227 122.879 106.172 122.879 102.398C122.879 98.625 125.934 95.5742 129.707 95.5742H273.066C275.633 95.5742 277.98 97.0156 279.145 99.293C280.313 101.582 280.102 104.328 278.594 106.406L143.082 293.547H279.895C283.668 293.547 286.719 296.602 286.719 300.375C286.719 304.148 283.668 307.199 279.895 307.199V307.199Z" fill="#1A428A"/>
<path d="M197.973 109.227C194.199 109.227 191.148 106.172 191.148 102.398V68.2656C191.148 64.4922 194.199 61.4414 197.973 61.4414C201.746 61.4414 204.801 64.4922 204.801 68.2656V102.398C204.801 106.172 201.746 109.227 197.973 109.227Z" fill="#1A428A"/>
<path d="M197.973 341.332C194.199 341.332 191.148 338.281 191.148 334.508V300.375C191.148 296.602 194.199 293.547 197.973 293.547C201.746 293.547 204.801 296.602 204.801 300.375V334.508C204.801 338.281 201.746 341.332 197.973 341.332Z" fill="#1A428A"/>
<path d="M327.68 327.68C323.906 327.68 320.852 324.625 320.852 320.852V293.547C320.852 289.773 323.906 286.719 327.68 286.719C331.453 286.719 334.508 289.773 334.508 293.547V320.852C334.508 324.625 331.453 327.68 327.68 327.68Z" fill="white"/>
<path d="M341.332 314.027H314.027C310.254 314.027 307.199 310.973 307.199 307.199C307.199 303.426 310.254 300.375 314.027 300.375H341.332C345.105 300.375 348.16 303.426 348.16 307.199C348.16 310.973 345.105 314.027 341.332 314.027Z" fill="white"/>
</g>
<defs>
<clipPath id="clip0_1_2679">
<rect width="409.6" height="409.6" fill="white"/>
</clipPath>
</defs>
</svg>
