<svg width="416" height="416" viewBox="0 0 416 416" fill="none" xmlns="http://www.w3.org/2000/svg">
<path d="M247.573 388.722H46.045C30.1356 388.722 17.2347 375.822 17.2347 359.912V62.9082C17.2347 46.9987 30.1356 34.0979 46.045 34.0979H247.573C263.482 34.0979 276.383 46.9987 276.383 62.9082V359.908C276.383 375.822 263.482 388.722 247.573 388.722V388.722Z" fill="#6BC4E8"/>
<path d="M247.573 395.54H46.045C26.4011 395.54 10.4175 379.556 10.4175 359.912V62.908C10.4175 43.2641 26.4011 27.2805 46.045 27.2805H247.573C267.22 27.2805 283.204 43.2641 283.204 62.908V359.908C283.204 379.556 267.22 395.54 247.573 395.54V395.54ZM46.045 40.9189C33.9207 40.9189 24.0558 50.7799 24.0558 62.908V359.908C24.0558 372.04 33.9207 381.901 46.045 381.901H247.573C259.697 381.901 269.562 372.04 269.562 359.912V62.908C269.562 50.7799 259.697 40.9189 247.573 40.9189H46.045Z" fill="#1A428A"/>
<path d="M37.6942 54.5574H255.924V320.523H37.6942V54.5574Z" fill="#2A8EE6"/>
<path d="M255.923 327.344H37.6942C33.9285 327.344 30.873 324.292 30.873 320.523V54.5572C30.873 50.7876 33.9285 47.7361 37.6942 47.7361H255.923C259.689 47.7361 262.745 50.7876 262.745 54.5572V320.523C262.745 324.292 259.689 327.344 255.923 327.344ZM44.5153 313.705H249.106V61.3783H44.5153V313.705Z" fill="#1A428A"/>
<path d="M160.447 354.625C160.447 362.156 154.344 368.263 146.809 368.263C139.278 368.263 133.171 362.156 133.171 354.625C133.171 347.089 139.278 340.982 146.809 340.982C154.344 340.982 160.447 347.089 160.447 354.625V354.625Z" fill="white"/>
<path d="M146.809 375.08C135.527 375.08 126.349 365.906 126.349 354.625C126.349 343.343 135.527 334.165 146.809 334.165C158.09 334.165 167.268 343.343 167.268 354.625C167.268 365.906 158.09 375.08 146.809 375.08ZM146.809 347.803C143.051 347.803 139.992 350.859 139.992 354.625C139.992 358.386 143.051 361.442 146.809 361.442C150.571 361.442 153.63 358.386 153.63 354.625C153.63 350.859 150.571 347.803 146.809 347.803Z" fill="#1A428A"/>
<path d="M330.94 61.3784C330.94 91.5076 306.516 115.936 276.383 115.936C246.254 115.936 221.826 91.5076 221.826 61.3784C221.826 31.2452 246.254 6.82104 276.383 6.82104C306.516 6.82104 330.94 31.2452 330.94 61.3784V61.3784Z" fill="#D7E9FF"/>
<path d="M276.383 122.753C242.539 122.753 215.005 95.2226 215.005 61.3785C215.005 27.5304 242.539 0 276.383 0C310.227 0 337.761 27.5304 337.761 61.3785C337.761 95.2226 310.227 122.753 276.383 122.753ZM276.383 13.6384C250.062 13.6384 228.647 35.0578 228.647 61.3785C228.647 87.6991 250.062 109.115 276.383 109.115C302.704 109.115 324.119 87.6991 324.119 61.3785C324.119 35.0578 302.704 13.6384 276.383 13.6384Z" fill="#1A428A"/>
<path d="M357.983 197.77L303.664 190.953V126.164C303.664 116.748 296.031 109.115 286.611 109.115C277.195 109.115 269.562 116.748 269.562 126.164V287.35C269.562 299.872 278.318 310.303 290.021 312.988V409.182H378.676V312.988C390.383 310.303 399.136 299.872 399.136 287.35V238.927C399.136 216.196 380.709 197.77 357.983 197.77V197.77Z" fill="#1A428A"/>
<path d="M378.677 415.999H290.021C286.256 415.999 283.204 412.951 283.204 409.182V317.955C270.928 312.906 262.745 301 262.745 287.346V126.164C262.745 113.005 273.452 102.293 286.611 102.293C299.773 102.293 310.481 113.005 310.481 126.164V184.939L358.424 190.953C384.674 191.191 405.957 212.622 405.957 238.931V287.346C405.957 301 397.774 312.906 385.498 317.955V409.182C385.498 412.951 382.446 415.999 378.677 415.999V415.999ZM296.842 402.361H371.859V312.984C371.859 309.807 374.056 307.052 377.151 306.338C386.079 304.297 392.319 296.485 392.319 287.346V238.931C392.319 219.997 376.917 204.591 357.983 204.591C357.698 204.591 357.417 204.571 357.132 204.536L302.813 197.719C299.398 197.29 296.842 194.387 296.842 190.953V126.164C296.842 120.521 292.253 115.936 286.611 115.936C280.972 115.936 276.383 120.521 276.383 126.164V287.346C276.383 296.481 282.619 304.293 291.547 306.338C294.646 307.052 296.842 309.807 296.842 312.984V402.361Z" fill="#1A428A"/>
<path d="M256.719 29.5713C256.719 29.0055 257.094 28.6309 257.656 28.6309H281.378C294.88 28.6309 301.256 35.3778 301.256 45.6017C301.256 52.817 297.88 56.9417 293.849 59.0996V59.2869C297.787 60.7893 302.38 65.8544 302.38 73.6316C302.38 86.2905 294.411 92.3858 280.437 92.3858H257.656C257.094 92.3858 256.719 92.0112 256.719 91.4453V29.5713ZM281.097 55.1622C286.724 55.1622 290.189 51.7868 290.189 46.8153C290.189 41.7541 286.724 38.3787 281.097 38.3787H268.344C267.966 38.3787 267.782 38.566 267.782 38.9406V54.6042C267.782 54.9749 267.966 55.1622 268.344 55.1622H281.097ZM268.344 82.6341H281.659C287.848 82.6341 291.313 79.0713 291.313 73.7252C291.313 68.4767 287.848 64.914 281.659 64.914H268.344C267.966 64.914 267.782 65.0974 267.782 65.4798V82.0682C267.782 82.4468 267.966 82.6341 268.344 82.6341Z" fill="#1A428A"/>
<path d="M272.972 37.5083C269.207 37.5083 266.155 34.4568 266.155 30.6872V23.87C266.155 20.1004 269.207 17.0488 272.972 17.0488C276.738 17.0488 279.794 20.1004 279.794 23.87V30.6872C279.794 34.4568 276.738 37.5083 272.972 37.5083Z" fill="#1A428A"/>
<path d="M272.972 105.704C269.207 105.704 266.155 102.656 266.155 98.8869V92.0658C266.155 88.2962 269.207 85.2446 272.972 85.2446C276.738 85.2446 279.794 88.2962 279.794 92.0658V98.8869C279.794 102.656 276.738 105.704 272.972 105.704Z" fill="#1A428A"/>
<path d="M344.344 197.77L290.021 190.953V126.164C290.021 116.748 282.389 109.115 272.972 109.115C263.556 109.115 255.923 116.748 255.923 126.164V287.35C255.923 299.872 264.676 310.303 276.383 312.988V409.182H365.038V312.988C376.745 310.303 385.498 299.872 385.498 287.35V238.927C385.498 216.196 367.071 197.77 344.344 197.77V197.77Z" fill="#D7E9FF"/>
<path d="M365.038 415.999H276.383C272.617 415.999 269.562 412.951 269.562 409.182V317.955C257.285 312.906 249.106 301 249.106 287.346V126.164C249.106 113.005 259.814 102.293 272.972 102.293C286.135 102.293 296.843 113.005 296.843 126.164V184.939L344.786 190.953C371.036 191.191 392.319 212.622 392.319 238.931V287.346C392.319 301 384.136 312.906 371.859 317.955V409.182C371.859 412.951 368.804 415.999 365.038 415.999V415.999ZM283.204 402.361H358.221V312.984C358.221 309.807 360.418 307.052 363.512 306.338C372.441 304.297 378.677 296.485 378.677 287.346V238.931C378.677 219.997 363.278 204.591 344.345 204.591C344.06 204.591 343.779 204.571 343.494 204.536L289.175 197.719C285.76 197.29 283.204 194.387 283.204 190.953V126.164C283.204 120.521 278.615 115.936 272.972 115.936C267.334 115.936 262.745 120.521 262.745 126.164V287.346C262.745 296.481 268.98 304.293 277.909 306.338C281.007 307.052 283.204 309.807 283.204 312.984V402.361Z" fill="#1A428A"/>
<path d="M290.021 231.868C286.256 231.868 283.204 228.82 283.204 225.05V190.952C283.204 187.183 286.256 184.131 290.021 184.131C293.787 184.131 296.842 187.183 296.842 190.952V225.05C296.842 228.82 293.787 231.868 290.021 231.868Z" fill="#1A428A"/>
<path d="M317.302 225.05C313.536 225.05 310.481 221.999 310.481 218.229V197.77C310.481 194 313.536 190.953 317.302 190.953C321.068 190.953 324.119 194 324.119 197.77V218.229C324.119 221.999 321.068 225.05 317.302 225.05Z" fill="#1A428A"/>
<path d="M344.579 225.05C340.813 225.05 337.761 221.999 337.761 218.229V197.77C337.761 194 340.813 190.953 344.579 190.953C348.344 190.953 351.4 194 351.4 197.77V218.229C351.4 221.999 348.344 225.05 344.579 225.05Z" fill="#1A428A"/>
<path d="M215.004 300.067C211.239 300.067 208.187 297.016 208.187 293.246V265.965C208.187 262.196 211.239 259.148 215.004 259.148C218.774 259.148 221.826 262.196 221.826 265.965V293.246C221.826 297.016 218.774 300.067 215.004 300.067Z" fill="white"/>
<path d="M228.647 286.425H201.366C197.601 286.425 194.549 283.377 194.549 279.608C194.549 275.838 197.601 272.787 201.366 272.787H228.647C232.412 272.787 235.464 275.838 235.464 279.608C235.464 283.377 232.412 286.425 228.647 286.425Z" fill="white"/>
<path d="M61.5643 92.0659C59.82 92.0659 58.0718 91.3986 56.7411 90.0679C54.0798 87.4027 54.0798 83.0868 56.7411 80.4254L66.9728 70.1938C69.6341 67.5324 73.95 67.5324 76.6153 70.1938C79.2766 72.859 79.2766 77.1749 76.6153 79.8362L66.3836 90.0679C65.0529 91.3986 63.3086 92.0659 61.5643 92.0659Z" fill="white"/>
<path d="M64.9748 115.936C63.2305 115.936 61.4823 115.269 60.1516 113.938C57.4903 111.273 57.4903 106.957 60.1516 104.292L94.2495 70.1938C96.9147 67.5324 101.231 67.5324 103.892 70.1938C106.557 72.859 106.557 77.1749 103.892 79.8362L69.7941 113.938C68.4634 115.269 66.7191 115.936 64.9748 115.936Z" fill="white"/>
</svg>
