<svg width="416" height="416" viewBox="0 0 416 416" fill="none" xmlns="http://www.w3.org/2000/svg">
<path d="M331.112 170.493C327.342 170.493 324.295 167.441 324.295 163.672V95.4762H99.2444V163.672C99.2444 167.441 96.1967 170.493 92.4271 170.493C88.6576 170.493 85.606 167.441 85.606 163.672V88.6551C85.606 84.8855 88.6576 81.8379 92.4271 81.8379H331.112C334.882 81.8379 337.933 84.8855 337.933 88.6551V163.672C337.933 167.441 334.882 170.493 331.112 170.493V170.493Z" fill="#1A428A"/>
<path fill-rule="evenodd" clip-rule="evenodd" d="M290.197 81.8381C290.197 123.268 256.61 156.851 215.18 156.851C173.75 156.851 140.163 123.268 140.163 81.8381C140.163 40.404 173.75 6.82129 215.18 6.82129C256.61 6.82129 290.197 40.404 290.197 81.8381Z" fill="#1A428A"/>
<path d="M215.18 163.672C170.051 163.672 133.342 126.964 133.342 81.8379C133.342 36.7084 170.051 0 215.18 0C260.306 0 297.014 36.7084 297.014 81.8379C297.014 126.964 260.306 163.672 215.18 163.672V163.672ZM215.18 13.6384C177.578 13.6384 146.984 44.2359 146.984 81.8379C146.984 119.436 177.578 150.034 215.18 150.034C252.782 150.034 283.376 119.436 283.376 81.8379C283.376 44.2359 252.782 13.6384 215.18 13.6384Z" fill="#1A428A"/>
<path d="M276.555 81.8381C276.555 123.268 242.972 156.851 201.542 156.851C160.108 156.851 126.525 123.268 126.525 81.8381C126.525 40.404 160.108 6.82129 201.542 6.82129C242.972 6.82129 276.555 40.404 276.555 81.8381Z" fill="#6BC4E8"/>
<path d="M201.542 163.672C156.412 163.672 119.704 126.964 119.704 81.8379C119.704 36.7084 156.412 0 201.542 0C246.667 0 283.376 36.7084 283.376 81.8379C283.376 126.964 246.667 163.672 201.542 163.672ZM201.542 13.6384C163.94 13.6384 133.342 44.2359 133.342 81.8379C133.342 119.436 163.94 150.034 201.542 150.034C239.144 150.034 269.737 119.436 269.737 81.8379C269.737 44.2359 239.144 13.6384 201.542 13.6384Z" fill="#1A428A"/>
<path d="M179.479 44.1501C179.479 43.4282 179.955 42.9561 180.669 42.9561H210.837C228.011 42.9561 236.116 51.541 236.116 64.5433C236.116 73.7253 231.827 78.966 226.7 81.7093V81.9512C231.71 83.8633 237.548 90.302 237.548 100.198C237.548 116.295 227.414 124.045 209.647 124.045H180.669C179.955 124.045 179.479 123.569 179.479 122.855V44.1501ZM210.486 76.7027C217.635 76.7027 222.052 72.4102 222.052 66.0925C222.052 59.6499 217.635 55.3535 210.486 55.3535H194.26C193.788 55.3535 193.546 55.5954 193.546 56.0676V75.9886C193.546 76.4608 193.788 76.7027 194.26 76.7027H210.486ZM194.26 111.643H211.196C219.067 111.643 223.476 107.109 223.476 100.315C223.476 93.6345 219.067 89.1001 211.196 89.1001H194.26C193.788 89.1001 193.546 89.3421 193.546 89.822V110.925C193.546 111.405 193.788 111.643 194.26 111.643Z" fill="#1A428A"/>
<path d="M201.542 54.5575C197.772 54.5575 194.721 51.5059 194.721 47.7363V34.098C194.721 30.3284 197.772 27.2808 201.542 27.2808C205.311 27.2808 208.359 30.3284 208.359 34.098V47.7363C208.359 51.5059 205.311 54.5575 201.542 54.5575Z" fill="#1A428A"/>
<path d="M201.542 136.395C197.772 136.395 194.721 133.343 194.721 129.574V122.753C194.721 118.983 197.772 115.936 201.542 115.936C205.311 115.936 208.359 118.983 208.359 122.753V129.574C208.359 133.343 205.311 136.395 201.542 136.395Z" fill="#1A428A"/>
<path d="M153.802 381.901H24.2275V212.961C24.2275 204.572 31.0292 197.77 39.4229 197.77H138.606C147 197.77 153.802 204.572 153.802 212.961V381.901Z" fill="#D7E9FF"/>
<path d="M153.802 388.722H24.2276C20.458 388.722 17.4103 385.671 17.4103 381.901V212.961C17.4103 200.829 27.2869 190.953 39.419 190.953H138.61C150.746 190.953 160.623 200.829 160.623 212.961V381.901C160.623 385.671 157.571 388.722 153.802 388.722ZM31.0487 375.08H146.984V212.961C146.984 208.345 143.227 204.591 138.61 204.591H39.419C34.8027 204.591 31.0487 208.345 31.0487 212.961V375.08Z" fill="#1A428A"/>
<path d="M392.49 381.901H262.916V212.961C262.916 204.572 269.718 197.77 278.108 197.77H377.295C385.689 197.77 392.49 204.572 392.49 212.961V381.901Z" fill="#D7E9FF"/>
<path d="M392.49 388.722H262.916C259.147 388.722 256.099 385.671 256.099 381.901V212.961C256.099 200.829 265.976 190.953 278.108 190.953H377.299C389.435 190.953 399.312 200.829 399.312 212.961V381.901C399.312 385.671 396.26 388.722 392.49 388.722V388.722ZM269.737 375.08H385.669V212.961C385.669 208.345 381.915 204.591 377.299 204.591H278.108C273.491 204.591 269.737 208.345 269.737 212.961V375.08Z" fill="#1A428A"/>
<path d="M24.2275 381.901H153.802V409.182H24.2275V381.901Z" fill="#6BC4E8"/>
<path d="M153.802 415.999H24.2276C20.458 415.999 17.4103 412.951 17.4103 409.182V381.901C17.4103 378.132 20.458 375.08 24.2276 375.08H153.802C157.571 375.08 160.623 378.132 160.623 381.901V409.182C160.623 412.951 157.571 415.999 153.802 415.999ZM31.0487 402.361H146.984V388.722H31.0487V402.361Z" fill="#1A428A"/>
<path d="M262.916 381.901H392.49V409.182H262.916V381.901Z" fill="#6BC4E8"/>
<path d="M392.49 415.999H262.916C259.147 415.999 256.099 412.951 256.099 409.182V381.901C256.099 378.132 259.147 375.08 262.916 375.08H392.49C396.26 375.08 399.312 378.132 399.312 381.901V409.182C399.312 412.951 396.26 415.999 392.49 415.999ZM269.737 402.361H385.669V388.722H269.737V402.361Z" fill="#1A428A"/>
<path d="M48.0976 242.099C46.3533 242.099 44.609 241.432 43.2744 240.101C40.6131 237.436 40.6131 233.12 43.2744 230.459L60.3234 213.406C62.9886 210.745 67.3045 210.745 69.9697 213.406C72.6311 216.071 72.6311 220.387 69.9697 223.053L52.9208 240.101C51.5862 241.432 49.8419 242.099 48.0976 242.099Z" fill="white"/>
<path d="M286.786 242.099C285.042 242.099 283.298 241.432 281.963 240.101C279.302 237.436 279.302 233.12 281.963 230.459L299.012 213.406C301.677 210.745 305.993 210.745 308.658 213.406C311.32 216.071 311.32 220.387 308.658 223.053L291.606 240.101C290.275 241.432 288.531 242.099 286.786 242.099V242.099Z" fill="white"/>
<path d="M92.4271 178.965C90.6828 178.965 88.9346 178.298 87.604 176.967L58.6727 148.036C56.0114 145.371 56.0114 141.055 58.6727 138.393C61.3379 135.728 65.6538 135.728 68.3151 138.393L92.4271 162.498L116.535 138.39C119.197 135.728 123.516 135.728 126.178 138.39C128.839 141.055 128.839 145.371 126.178 148.032L97.2464 176.963C95.9157 178.298 94.1675 178.965 92.4271 178.965Z" fill="#1A428A"/>
<path d="M331.112 178.965C329.368 178.965 327.623 178.298 326.293 176.967L297.361 148.036C294.7 145.371 294.7 141.055 297.361 138.393C300.023 135.728 304.343 135.728 307.004 138.393L331.112 162.498L355.224 138.39C357.885 135.728 362.201 135.728 364.866 138.39C367.528 141.055 367.528 145.371 364.866 148.032L335.935 176.963C334.605 178.298 332.856 178.965 331.112 178.965Z" fill="#1A428A"/>
<path d="M262.916 81.8379C259.147 81.8379 256.099 78.7864 256.099 75.0168V47.7362C256.099 43.9666 259.147 40.9189 262.916 40.9189C266.686 40.9189 269.737 43.9666 269.737 47.7362V75.0168C269.737 78.7864 266.686 81.8379 262.916 81.8379Z" fill="white"/>
<path d="M276.555 68.1955H249.278C245.508 68.1955 242.457 65.1478 242.457 61.3783C242.457 57.6087 245.508 54.5571 249.278 54.5571H276.555C280.324 54.5571 283.376 57.6087 283.376 61.3783C283.376 65.1478 280.324 68.1955 276.555 68.1955Z" fill="white"/>
</svg>
