<svg width="409" height="409" viewBox="0 0 409 409" fill="none" xmlns="http://www.w3.org/2000/svg">
<g clip-path="url(#clip0_1_350)">
<path d="M184.05 297.231H224.951V358.583H184.05V297.231Z" fill="#6BC4E8"/>
<path d="M224.951 365.397H184.05C180.286 365.397 177.232 362.351 177.232 358.583V297.231C177.232 293.463 180.286 290.413 184.05 290.413H224.951C228.715 290.413 231.765 293.463 231.765 297.231V358.583C231.765 362.351 228.715 365.397 224.951 365.397V365.397ZM190.868 351.764H218.133V304.045H190.868V351.764Z" fill="#1A428A"/>
<path d="M382.525 310.864H26.4768C15.6177 310.864 6.81812 302.06 6.81812 291.205V85.1244C6.81812 74.2653 15.6177 65.4657 26.4768 65.4657H382.525C393.38 65.4657 402.183 74.2653 402.183 85.1244V291.205C402.183 302.06 393.38 310.864 382.525 310.864Z" fill="#2A8EE6"/>
<path d="M382.525 317.682H26.4729C11.8771 317.682 0 305.805 0 291.205V85.1205C0 70.5247 11.8771 58.6476 26.4729 58.6476H382.525C397.124 58.6476 409.002 70.5247 409.002 85.1205V291.205C409.002 305.805 397.124 317.682 382.525 317.682ZM26.4729 72.2799C19.3934 72.2799 13.6323 78.0371 13.6323 85.1205V291.205C13.6323 298.288 19.3934 304.045 26.4729 304.045H382.525C389.604 304.045 395.365 298.288 395.365 291.205V85.1205C395.365 78.0371 389.604 72.2799 382.525 72.2799H26.4729Z" fill="#1A428A"/>
<path d="M149.968 358.583H259.034V379.029H149.968V358.583Z" fill="#2A8EE6"/>
<path d="M259.034 385.847H149.968C146.204 385.847 143.149 382.797 143.149 379.029V358.583C143.149 354.815 146.204 351.764 149.968 351.764H259.034C262.798 351.764 265.848 354.815 265.848 358.583V379.029C265.848 382.797 262.798 385.847 259.034 385.847ZM156.782 372.215H252.216V365.397H156.782V372.215Z" fill="#1A428A"/>
<path d="M61.3513 31.379H347.65V147.264H61.3513V31.379Z" fill="#6BC4E8"/>
<path d="M347.65 154.082H61.3513C57.5873 154.082 54.5332 151.032 54.5332 147.264V31.379C54.5332 27.6111 57.5873 24.5648 61.3513 24.5648H347.65C351.414 24.5648 354.468 27.6111 354.468 31.379V147.264C354.468 151.032 351.414 154.082 347.65 154.082ZM68.1655 140.446H340.832V38.1971H68.1655V140.446Z" fill="#1A428A"/>
<path d="M61.3513 140.446H347.65V310.864H61.3513V140.446Z" fill="#D7E9FF"/>
<path d="M347.65 317.682H61.3513C57.5873 317.682 54.5332 314.631 54.5332 310.863V140.446C54.5332 136.678 57.5873 133.631 61.3513 133.631H347.65C351.414 133.631 354.468 136.678 354.468 140.446V310.863C354.468 314.631 351.414 317.682 347.65 317.682ZM68.1655 304.045H340.832V147.264H68.1655V304.045Z" fill="#1A428A"/>
<path d="M211.315 79.0981C211.315 90.3901 202.16 99.5485 190.868 99.5485C179.573 99.5485 170.418 90.3901 170.418 79.0981C170.418 67.8021 179.573 58.6476 190.868 58.6476C202.16 58.6476 211.315 67.8021 211.315 79.0981Z" fill="white"/>
<path d="M190.868 106.363C175.832 106.363 163.6 94.1346 163.6 79.0981C163.6 64.0615 175.832 51.8295 190.868 51.8295C205.901 51.8295 218.133 64.0615 218.133 79.0981C218.133 94.1346 205.901 106.363 190.868 106.363ZM190.868 65.4657C183.348 65.4657 177.232 71.5817 177.232 79.0981C177.232 86.6144 183.348 92.7304 190.868 92.7304C198.385 92.7304 204.501 86.6144 204.501 79.0981C204.501 71.5817 198.385 65.4657 190.868 65.4657Z" fill="#1A428A"/>
<path d="M224.951 119.999C223.208 119.999 221.46 119.332 220.13 118.002L203.089 100.957C200.429 98.2965 200.429 93.9825 203.089 91.3184C205.749 88.6583 210.067 88.6583 212.727 91.3184L229.768 108.36C232.433 111.024 232.433 115.338 229.768 118.002C228.438 119.332 226.695 119.999 224.951 119.999Z" fill="#1A428A"/>
<path fill-rule="evenodd" clip-rule="evenodd" d="M293.117 222.247C293.117 263.659 259.545 297.231 218.133 297.231C176.721 297.231 143.149 263.659 143.149 222.247C143.149 180.836 176.721 147.264 218.133 147.264C259.545 147.264 293.117 180.836 293.117 222.247Z" fill="#1A428A"/>
<path d="M218.133 304.045C173.027 304.045 136.335 267.353 136.335 222.247C136.335 177.138 173.027 140.446 218.133 140.446C263.239 140.446 299.935 177.138 299.935 222.247C299.935 267.353 263.239 304.045 218.133 304.045ZM218.133 154.082C180.544 154.082 149.968 184.662 149.968 222.247C149.968 259.833 180.544 290.413 218.133 290.413C255.723 290.413 286.299 259.833 286.299 222.247C286.299 184.662 255.723 154.082 218.133 154.082V154.082Z" fill="#1A428A"/>
<path d="M279.485 222.247C279.485 263.659 245.913 297.231 204.501 297.231C163.089 297.231 129.517 263.659 129.517 222.247C129.517 180.836 163.089 147.264 204.501 147.264C245.913 147.264 279.485 180.836 279.485 222.247Z" fill="#6BC4E8"/>
<path d="M204.501 304.045C159.395 304.045 122.699 267.353 122.699 222.247C122.699 177.138 159.395 140.446 204.501 140.446C249.603 140.446 286.299 177.138 286.299 222.247C286.299 267.353 249.603 304.045 204.501 304.045ZM204.501 154.082C166.911 154.082 136.335 184.662 136.335 222.247C136.335 259.833 166.911 290.413 204.501 290.413C242.09 290.413 272.666 259.833 272.666 222.247C272.666 184.662 242.09 154.082 204.501 154.082V154.082Z" fill="#1A428A"/>
<path d="M182.447 184.576C182.447 183.858 182.927 183.386 183.637 183.386H213.792C230.962 183.386 239.063 191.968 239.063 204.96C239.063 214.142 234.773 219.381 229.651 222.123V222.361C234.656 224.272 240.495 230.708 240.495 240.599C240.495 256.689 230.361 264.439 212.602 264.439H183.637C182.927 264.439 182.447 263.96 182.447 263.25V184.576ZM213.441 217.114C220.591 217.114 225.002 212.828 225.002 206.509C225.002 200.073 220.591 195.778 213.441 195.778H197.222C196.751 195.778 196.513 196.02 196.513 196.492V216.401C196.513 216.873 196.751 217.114 197.222 217.114H213.441ZM197.222 252.044H214.151C222.022 252.044 226.426 247.511 226.426 240.72C226.426 234.043 222.022 229.51 214.151 229.51H197.222C196.751 229.51 196.513 229.748 196.513 230.228V251.322C196.513 251.806 196.751 252.044 197.222 252.044Z" fill="#1A428A"/>
<path d="M204.501 194.979C200.737 194.979 197.683 191.932 197.683 188.165V174.532C197.683 170.764 200.737 167.714 204.501 167.714C208.265 167.714 211.315 170.764 211.315 174.532V188.165C211.315 191.932 208.265 194.979 204.501 194.979Z" fill="#1A428A"/>
<path d="M204.501 276.781C200.737 276.781 197.683 273.73 197.683 269.963V263.148C197.683 259.38 200.737 256.33 204.501 256.33C208.265 256.33 211.315 259.38 211.315 263.148V269.963C211.315 273.73 208.265 276.781 204.501 276.781Z" fill="#1A428A"/>
<path d="M259.034 208.615C255.27 208.615 252.216 205.565 252.216 201.797V174.532C252.216 170.764 255.27 167.714 259.034 167.714C262.798 167.714 265.848 170.764 265.848 174.532V201.797C265.848 205.565 262.798 208.615 259.034 208.615Z" fill="white"/>
<path d="M272.666 194.979H245.402C241.634 194.979 238.583 191.932 238.583 188.165C238.583 184.397 241.634 181.346 245.402 181.346H272.666C276.43 181.346 279.484 184.397 279.484 188.165C279.484 191.932 276.43 194.979 272.666 194.979Z" fill="white"/>
<path d="M115.885 58.6475H81.8018C78.0339 58.6475 74.9836 55.5973 74.9836 51.8294C74.9836 48.0615 78.0339 45.0152 81.8018 45.0152H115.885C119.649 45.0152 122.699 48.0615 122.699 51.8294C122.699 55.5973 119.649 58.6475 115.885 58.6475Z" fill="white"/>
</g>
<defs>
<clipPath id="clip0_1_350">
<rect width="409" height="409" fill="white"/>
</clipPath>
</defs>
</svg>
