<svg width="361" height="361" viewBox="0 0 361 361" fill="none" xmlns="http://www.w3.org/2000/svg">
<path d="M163.632 163.472H20.5947V143.014C20.5947 105.407 51.0768 74.9249 88.6834 74.9249H163.632V163.472Z" fill="#6BC4E8"/>
<path d="M163.632 170.284H20.5946C16.8297 170.284 13.7819 167.237 13.7819 163.472V143.01C13.7819 101.708 47.378 68.1122 88.6795 68.1122H163.632C167.397 68.1122 170.445 71.16 170.445 74.925V163.472C170.445 167.237 167.397 170.284 163.632 170.284ZM27.4035 156.659H156.819V81.7377H88.6795C54.8885 81.7377 27.4035 109.223 27.4035 143.01V156.659Z" fill="#1A428A"/>
<path fill-rule="evenodd" clip-rule="evenodd" d="M265.8 81.7377C265.8 123.117 232.255 156.659 190.875 156.659C149.496 156.659 115.954 123.117 115.954 81.7377C115.954 40.3544 149.496 6.81281 190.875 6.81281C232.255 6.81281 265.8 40.3544 265.8 81.7377Z" fill="#1A428A"/>
<path d="M190.875 163.472C145.805 163.472 109.141 126.808 109.141 81.7377C109.141 36.6635 145.805 0 190.875 0C235.949 0 272.613 36.6635 272.613 81.7377C272.613 126.808 235.949 163.472 190.875 163.472ZM190.875 13.6217C153.319 13.6217 122.763 44.1817 122.763 81.7377C122.763 119.29 153.319 149.85 190.875 149.85C228.431 149.85 258.991 119.29 258.991 81.7377C258.991 44.1817 228.431 13.6217 190.875 13.6217Z" fill="#1A428A"/>
<path d="M252.178 81.7377C252.178 123.117 218.633 156.659 177.253 156.659C135.874 156.659 102.328 123.117 102.328 81.7377C102.328 40.3544 135.874 6.81281 177.253 6.81281C218.633 6.81281 252.178 40.3544 252.178 81.7377Z" fill="#6BC4E8"/>
<path d="M177.253 163.472C132.183 163.472 95.5196 126.808 95.5196 81.7377C95.5196 36.6635 132.183 0 177.253 0C222.328 0 258.991 36.6635 258.991 81.7377C258.991 126.808 222.328 163.472 177.253 163.472ZM177.253 13.6217C139.697 13.6217 109.141 44.1817 109.141 81.7377C109.141 119.29 139.697 149.85 177.253 149.85C214.809 149.85 245.366 119.29 245.366 81.7377C245.366 44.1817 214.809 13.6217 177.253 13.6217Z" fill="#1A428A"/>
<path d="M155.217 44.0959C155.217 43.3749 155.696 42.9033 156.41 42.9033H186.541C203.694 42.9033 211.789 51.4778 211.789 64.4641C211.789 73.6349 207.506 78.8692 202.384 81.6091V81.8507C207.389 83.7605 213.219 90.1913 213.219 100.075C213.219 116.152 203.098 123.893 185.348 123.893H156.41C155.696 123.893 155.217 123.417 155.217 122.704V44.0959ZM186.186 76.6086C193.33 76.6086 197.742 72.3214 197.742 66.0114C197.742 59.5767 193.33 55.2856 186.186 55.2856H169.985C169.513 55.2856 169.271 55.5272 169.271 55.9988V75.8954C169.271 76.367 169.513 76.6086 169.985 76.6086H186.186ZM169.985 111.507H186.9C194.761 111.507 199.165 106.978 199.165 100.192C199.165 93.5197 194.761 88.9909 186.9 88.9909H169.985C169.513 88.9909 169.271 89.2325 169.271 89.7119V110.789C169.271 111.269 169.513 111.507 169.985 111.507Z" fill="#1A428A"/>
<path d="M177.253 54.4905C173.488 54.4905 170.445 51.4427 170.445 47.6777V34.0561C170.445 30.2911 173.488 27.2472 177.253 27.2472C181.018 27.2472 184.066 30.2911 184.066 34.0561V47.6777C184.066 51.4427 181.018 54.4905 177.253 54.4905Z" fill="#1A428A"/>
<path d="M177.253 136.228C173.488 136.228 170.445 133.18 170.445 129.415V122.603C170.445 118.838 173.488 115.794 177.253 115.794C181.018 115.794 184.066 118.838 184.066 122.603V129.415C184.066 133.18 181.018 136.228 177.253 136.228Z" fill="#1A428A"/>
<path d="M252.178 211.149C252.178 188.579 270.477 170.284 293.047 170.284Z" fill="#2A8EE6"/>
<path d="M252.178 217.962C248.413 217.962 245.366 214.914 245.366 211.149C245.366 184.861 266.759 163.472 293.047 163.472C296.812 163.472 299.856 166.519 299.856 170.284C299.856 174.049 296.812 177.093 293.047 177.093C274.269 177.093 258.991 192.375 258.991 211.149C258.991 214.914 255.943 217.962 252.178 217.962V217.962Z" fill="#1A428A"/>
<path d="M311.245 354.19H50.0751C33.7915 354.19 20.5947 340.99 20.5947 324.706V138.461C20.5947 122.178 33.7915 108.981 50.0751 108.981H311.245C327.528 108.981 340.725 122.178 340.725 138.461V324.706C340.725 340.99 327.528 354.19 311.245 354.19V354.19Z" fill="#D7E9FF"/>
<path d="M311.244 360.999H50.0712C30.0655 360.999 13.7819 344.719 13.7819 324.71V138.462C13.7819 118.452 30.0655 102.168 50.0712 102.168H311.244C331.254 102.168 347.534 118.452 347.534 138.462V324.706C347.538 344.719 331.254 360.999 311.244 360.999V360.999ZM50.0712 115.794C37.5759 115.794 27.4035 125.962 27.4035 138.462V324.706C27.4035 337.205 37.5759 347.378 50.0712 347.378H311.244C323.744 347.378 333.912 337.205 333.912 324.71V138.462C333.912 125.962 323.74 115.794 311.244 115.794H50.0712Z" fill="#1A428A"/>
<path d="M262.394 279.265H340.725V204.34H262.394C241.706 204.34 224.935 221.111 224.935 241.803C224.935 262.491 241.706 279.265 262.394 279.265Z" fill="#6BC4E8"/>
<path d="M340.725 286.074H262.394C237.984 286.074 218.122 266.213 218.122 241.803C218.122 217.389 237.984 197.528 262.394 197.528H340.725C344.49 197.528 347.538 200.575 347.538 204.34V279.265C347.538 283.03 344.49 286.074 340.725 286.074V286.074ZM262.394 211.149C245.494 211.149 231.744 224.9 231.744 241.803C231.744 258.702 245.494 272.453 262.394 272.453H333.916V211.149H262.394Z" fill="#1A428A"/>
<path d="M279.426 241.803C279.426 251.207 271.798 258.831 262.394 258.831C252.993 258.831 245.366 251.207 245.366 241.803C245.366 232.398 252.993 224.775 262.394 224.775C271.798 224.775 279.426 232.398 279.426 241.803Z" fill="#2A8EE6"/>
<path d="M262.394 265.64C249.251 265.64 238.557 254.945 238.557 241.803C238.557 228.657 249.251 217.962 262.394 217.962C275.54 217.962 286.234 228.657 286.234 241.803C286.234 254.945 275.54 265.64 262.394 265.64V265.64ZM262.394 231.584C256.762 231.584 252.178 236.167 252.178 241.803C252.178 247.435 256.762 252.018 262.394 252.018C268.029 252.018 272.613 247.435 272.613 241.803C272.613 236.167 268.029 231.584 262.394 231.584Z" fill="#1A428A"/>
<path d="M34.2163 149.85H20.5946C16.8297 149.85 13.7819 146.802 13.7819 143.037C13.7819 139.272 16.8297 136.228 20.5946 136.228H34.2163C37.9812 136.228 41.0291 139.272 41.0291 143.037C41.0291 146.802 37.9812 149.85 34.2163 149.85Z" fill="#1A428A"/>
<path d="M300.476 149.85H273.848C270.083 149.85 267.035 146.802 267.035 143.037C267.035 139.272 270.083 136.228 273.848 136.228H300.476C304.241 136.228 307.289 139.272 307.289 143.037C307.289 146.802 304.241 149.85 300.476 149.85ZM247.225 149.85H220.597C216.832 149.85 213.784 146.802 213.784 143.037C213.784 139.272 216.832 136.228 220.597 136.228H247.225C250.99 136.228 254.034 139.272 254.034 143.037C254.034 146.802 250.99 149.85 247.225 149.85ZM193.977 149.85H167.35C163.585 149.85 160.537 146.802 160.537 143.037C160.537 139.272 163.585 136.228 167.35 136.228H193.977C197.742 136.228 200.786 139.272 200.786 143.037C200.786 146.802 197.742 149.85 193.977 149.85ZM140.722 149.85H114.095C110.33 149.85 107.286 146.802 107.286 143.037C107.286 139.272 110.33 136.228 114.095 136.228H140.722C144.487 136.228 147.535 139.272 147.535 143.037C147.535 146.802 144.487 149.85 140.722 149.85ZM87.4674 149.85H60.8438C57.0788 149.85 54.031 146.802 54.031 143.037C54.031 139.272 57.0788 136.228 60.8438 136.228H87.4713C91.2362 136.228 94.2802 139.272 94.2802 143.037C94.2802 146.802 91.2323 149.85 87.4674 149.85Z" fill="#1A428A"/>
<path d="M340.725 149.85H327.103C323.338 149.85 320.291 146.802 320.291 143.037C320.291 139.272 323.338 136.228 327.103 136.228H340.725C344.49 136.228 347.538 139.272 347.538 143.037C347.538 146.802 344.49 149.85 340.725 149.85V149.85Z" fill="#1A428A"/>
<path d="M286.234 333.756C282.469 333.756 279.426 330.708 279.426 326.943V299.7C279.426 295.935 282.469 292.887 286.234 292.887C289.999 292.887 293.047 295.935 293.047 299.7V326.943C293.047 330.708 289.999 333.756 286.234 333.756Z" fill="white"/>
<path d="M299.856 320.13H272.613C268.848 320.13 265.8 317.086 265.8 313.321C265.8 309.556 268.848 306.509 272.613 306.509H299.856C303.621 306.509 306.669 309.556 306.669 313.321C306.669 317.086 303.621 320.13 299.856 320.13Z" fill="white"/>
<path d="M41.0291 224.775C37.2641 224.775 34.2163 221.727 34.2163 217.962V163.472C34.2163 159.707 37.2641 156.659 41.0291 156.659C44.794 156.659 47.838 159.707 47.838 163.472V217.962C47.838 221.727 44.794 224.775 41.0291 224.775Z" fill="white"/>
</svg>
