<svg width="389" height="389" viewBox="0 0 389 389" fill="none" xmlns="http://www.w3.org/2000/svg">
<g clip-path="url(#clip0_1_1189)">
<path d="M371.82 368.527H16.9414V177.438L194.379 47.7705L371.82 177.438V368.527Z" fill="#2A8EE6"/>
<path d="M371.82 375.349H16.9415C13.1731 375.349 10.1155 372.299 10.1155 368.527V177.437C10.1155 175.258 11.1542 173.212 12.9154 171.927L190.357 42.2603C192.754 40.5148 196.007 40.5148 198.405 42.2603L375.846 171.927C377.604 173.216 378.646 175.258 378.646 177.437V368.527C378.642 372.299 375.589 375.349 371.82 375.349ZM23.7675 361.701H364.994V180.905L194.379 56.2209L23.7675 180.905V361.701Z" fill="#1A428A"/>
<path d="M112.486 6.82593H276.276V293.456H112.486V6.82593Z" fill="#D7E9FF"/>
<path d="M276.275 300.282H112.486C108.718 300.282 105.66 297.229 105.66 293.456V6.82602C105.66 3.05375 108.718 0 112.486 0H276.275C280.044 0 283.098 3.05375 283.098 6.82602V293.456C283.098 297.229 280.044 300.282 276.275 300.282ZM119.308 286.63H269.449V13.6481H119.308V286.63Z" fill="#1A428A"/>
<path d="M371.82 368.527H16.9414V177.438L194.379 279.808L371.82 177.438V368.527Z" fill="#6BC4E8"/>
<path d="M371.82 375.349H16.9415C13.1731 375.349 10.1155 372.299 10.1155 368.527V177.437C10.1155 175.001 11.4159 172.747 13.5285 171.525C15.6372 170.315 18.2419 170.315 20.3506 171.525L194.379 271.928L368.411 171.525C370.52 170.315 373.121 170.315 375.229 171.525C377.342 172.747 378.642 175.001 378.642 177.437V368.527C378.642 372.299 375.589 375.349 371.82 375.349ZM23.7675 361.701H364.994V189.254L197.788 285.72C195.683 286.931 193.075 286.931 190.97 285.72L23.7675 189.254V361.701Z" fill="#1A428A"/>
<path d="M194.379 225.212L16.9414 368.527H371.82L194.379 225.212Z" fill="white"/>
<path d="M371.82 375.349H16.9416C14.0479 375.349 11.4706 373.525 10.5061 370.8C9.54542 368.074 10.4045 365.032 12.6538 363.216L190.091 219.901C192.598 217.886 196.164 217.886 198.671 219.901L376.108 363.216C378.357 365.032 379.217 368.074 378.256 370.8C377.291 373.525 374.71 375.349 371.82 375.349V375.349ZM36.252 361.701H352.506L194.379 233.982L36.252 361.701Z" fill="#1A428A"/>
<path d="M248.975 136.493C248.975 166.644 224.534 191.09 194.379 191.09C164.228 191.09 139.782 166.644 139.782 136.493C139.782 106.338 164.228 81.8967 194.379 81.8967C224.534 81.8967 248.975 106.338 248.975 136.493Z" fill="#2A8EE6"/>
<path d="M194.379 197.912C160.514 197.912 132.96 170.361 132.96 136.493C132.96 102.621 160.514 75.0706 194.379 75.0706C228.247 75.0706 255.801 102.621 255.801 136.493C255.801 170.361 228.247 197.912 194.379 197.912ZM194.379 88.7187C168.039 88.7187 146.609 110.153 146.609 136.493C146.609 162.829 168.039 184.263 194.379 184.263C220.722 184.263 242.153 162.829 242.153 136.493C242.153 110.153 220.722 88.7187 194.379 88.7187Z" fill="#1A428A"/>
<path d="M174.701 104.663C174.701 104.097 175.076 103.722 175.639 103.722H199.377C212.889 103.722 219.27 110.474 219.27 120.701C219.27 127.925 215.892 132.053 211.858 134.213V134.396C215.798 135.903 220.394 140.968 220.394 148.755C220.394 161.423 212.42 167.523 198.44 167.523H175.639C175.076 167.523 174.701 167.148 174.701 166.581V104.663ZM199.096 130.272C204.727 130.272 208.195 126.894 208.195 121.919C208.195 116.855 204.727 113.477 199.096 113.477H186.335C185.96 113.477 185.772 113.664 185.772 114.035V129.714C185.772 130.085 185.96 130.272 186.335 130.272H199.096ZM186.335 157.764H199.659C205.852 157.764 209.324 154.199 209.324 148.849C209.324 143.596 205.852 140.031 199.659 140.031H186.335C185.96 140.031 185.772 140.215 185.772 140.597V157.198C185.772 157.576 185.96 157.764 186.335 157.764Z" fill="#1A428A"/>
<path d="M190.966 112.606C187.198 112.606 184.144 109.552 184.144 105.78V98.9576C184.144 95.1853 187.198 92.1316 190.966 92.1316C194.738 92.1316 197.792 95.1853 197.792 98.9576V105.78C197.792 109.552 194.738 112.606 190.966 112.606Z" fill="#1A428A"/>
<path d="M190.966 180.85C187.198 180.85 184.144 177.797 184.144 174.024V167.202C184.144 163.43 187.198 160.376 190.966 160.376C194.738 160.376 197.792 163.43 197.792 167.202V174.024C197.792 177.797 194.738 180.85 190.966 180.85Z" fill="#1A428A"/>
<path d="M16.9414 368.527H371.82V382.175H16.9414V368.527Z" fill="#1A428A"/>
<path d="M371.82 389.001H16.9415C13.1731 389.001 10.1155 385.947 10.1155 382.175V368.527C10.1155 364.755 13.1731 361.701 16.9415 361.701H371.82C375.589 361.701 378.642 364.755 378.642 368.527V382.175C378.642 385.947 375.589 389.001 371.82 389.001V389.001ZM23.7675 375.349H364.994H23.7675Z" fill="#1A428A"/>
<path d="M44.2376 259.334C40.4693 259.334 37.4155 256.28 37.4155 252.508V225.212C37.4155 221.439 40.4693 218.386 44.2376 218.386C48.0099 218.386 51.0637 221.439 51.0637 225.212V252.508C51.0637 256.28 48.0099 259.334 44.2376 259.334Z" fill="white"/>
<path d="M57.8899 245.686H30.5897C26.8213 245.686 23.7676 242.632 23.7676 238.86C23.7676 235.088 26.8213 232.034 30.5897 232.034H57.8899C61.6582 232.034 64.712 235.088 64.712 238.86C64.712 242.632 61.6582 245.686 57.8899 245.686Z" fill="white"/>
<path d="M351.346 266.156C347.578 266.156 344.52 263.106 344.52 259.334V218.386C344.52 214.614 347.578 211.56 351.346 211.56C355.114 211.56 358.168 214.614 358.168 218.386V259.334C358.168 263.106 355.114 266.156 351.346 266.156Z" fill="white"/>
</g>
<defs>
<clipPath id="clip0_1_1189">
<rect width="389" height="389" fill="white"/>
</clipPath>
</defs>
</svg>
